<svg width="32" height="32" viewBox="0 0 32 32" fill="none" xmlns="http://www.w3.org/2000/svg">
<path fill-rule="evenodd" clip-rule="evenodd" d="M19.5558 24.0639C19.7863 24.0634 20.0169 24.063 20.2476 24.063H22.3993C22.4049 24.063 22.4105 24.063 22.4161 24.063C22.497 24.063 22.5793 24.0631 22.658 24.0505C24.417 23.7616 25.7947 22.8546 26.8731 21.4562C27.4394 20.7216 27.7043 19.8582 27.9672 18.9896C28.5801 16.9647 29.1994 14.9421 29.8188 12.9192C29.9081 12.6275 29.9974 12.3358 30.0867 12.044C30.3122 11.3053 30.4088 10.5583 30.1677 9.80709C29.8291 8.74524 28.8109 7.98055 27.6358 7.94837C26.4906 7.91683 25.343 7.91575 24.1965 7.91467C24.0209 7.91451 23.8454 7.91434 23.67 7.91407C21.6138 7.912 20.0003 8.79407 18.7535 10.3983C18.2226 11.0809 17.9753 11.8881 17.7291 12.6996C17.4341 13.6697 17.1365 14.6392 16.8389 15.6087C16.3629 17.1593 15.8869 18.71 15.4215 20.2634C15.2521 20.8297 15.2553 21.426 15.4236 22.0006C15.7976 23.2806 16.8345 24.0536 18.1727 24.063C18.634 24.0657 19.0948 24.0648 19.5558 24.0639ZM19.6215 20.0541C19.6045 20.0488 19.5825 20.0419 19.5525 20.0338H19.5515C19.5965 19.8867 19.6405 19.7417 19.6841 19.5981C19.762 19.3413 19.8385 19.0892 19.9172 18.8379C20.0047 18.5584 20.0922 18.2789 20.1797 17.9994C20.7924 16.0428 21.4051 14.086 22.0242 12.1323C22.0502 12.0533 22.1676 11.9484 22.2424 11.9484C23.2471 11.9389 24.2526 11.9402 25.2575 11.9415C25.4622 11.9417 25.6669 11.942 25.8716 11.9422C25.898 11.9422 25.9249 11.9492 25.9619 11.9588C25.9802 11.9635 26.0009 11.9689 26.0253 11.9744C25.9875 12.0992 25.9503 12.2227 25.9133 12.3453C25.8221 12.6476 25.7326 12.9445 25.6409 13.2409L25.5844 13.4234C24.9175 15.5756 24.2504 17.7288 23.5754 19.8779C23.5505 19.9569 23.4341 20.0619 23.3593 20.0619C22.2216 20.0715 21.0839 20.0695 19.9462 20.0675C19.8569 20.0674 19.7676 20.0672 19.6782 20.067C19.663 20.067 19.6482 20.0624 19.6215 20.0541Z" fill="#FD1323"/>
<path d="M17.5284 8.87969C17.6252 8.57618 17.7237 8.26751 17.8256 7.94879H17.8286C17.7903 7.94655 17.7565 7.94432 17.7259 7.94229C17.6573 7.93774 17.6048 7.93426 17.5523 7.93426C16.9603 7.93426 16.3683 7.9341 15.7763 7.93393C13.81 7.93337 11.8433 7.93282 9.87733 7.9384C9.5594 7.93946 9.23314 7.95605 8.92666 8.03192C6.72504 8.57739 5.20086 9.88131 4.50474 12.0725C4.01172 13.6233 3.5243 15.1763 3.03689 16.7293C2.71182 17.765 2.38675 18.8007 2.06002 19.8358C1.84911 20.5028 1.7504 21.1729 1.88131 21.8732C2.10365 23.065 3.17277 24.0323 4.38006 24.0561C5.54769 24.0782 6.71595 24.0791 7.88436 24.08C8.2027 24.0802 8.52105 24.0804 8.8394 24.0811C8.86578 24.0812 8.89225 24.0814 8.91878 24.0816C9.1346 24.0832 9.35432 24.0849 9.56253 24.0395C11.7724 23.5605 13.255 22.2161 14.0052 20.1164C14.3864 19.0508 14.7087 17.9635 15.031 16.8764C15.1716 16.4021 15.3122 15.9279 15.4577 15.4554C15.5242 15.2387 15.5895 15.0216 15.6562 14.7998C15.6947 14.6717 15.7336 14.5422 15.7735 14.4103C15.7434 14.4049 15.7179 14.3995 15.6955 14.3947C15.6531 14.3858 15.6216 14.3791 15.5896 14.3791C14.9362 14.3783 14.2829 14.3783 13.6296 14.3782C12.4506 14.378 11.2717 14.3779 10.0924 14.3739C9.93449 14.3739 9.8846 14.4476 9.84409 14.5744C9.82333 14.6395 9.80258 14.7046 9.78182 14.7696C9.49613 15.6655 9.21076 16.5603 8.91727 17.4534C8.86119 17.6248 8.91208 17.6757 9.0742 17.6757C9.50638 17.6737 9.93862 17.6737 10.3709 17.6757C10.4337 17.6765 10.4965 17.6818 10.5627 17.6875C10.5905 17.6899 10.619 17.6923 10.6482 17.6944C10.6448 17.7253 10.6431 17.7521 10.6415 17.7761C10.6388 17.8174 10.6367 17.8502 10.6274 17.8804C10.5607 18.0995 10.4927 18.318 10.4247 18.5366C10.2905 18.968 10.1562 19.3992 10.0321 19.8337C9.97812 20.0228 9.88772 20.0717 9.70275 20.0706C8.94003 20.0656 8.17728 20.066 7.41453 20.0664C7.07075 20.0666 6.72697 20.0668 6.38319 20.0665C6.32669 20.0665 6.26966 20.0614 6.2033 20.0555C6.17453 20.053 6.14401 20.0503 6.11102 20.0477C6.1191 20.0091 6.12564 19.9739 6.13172 19.9412C6.14362 19.8771 6.15375 19.8226 6.17023 19.7704C6.37549 19.1119 6.58104 18.4535 6.7866 17.795C7.36658 15.9372 7.94661 14.0793 8.5204 12.219C8.58895 11.9935 8.69286 11.9354 8.9194 11.9354C10.1423 11.9396 11.3654 11.9401 12.5885 11.9406C13.8117 11.9411 15.0348 11.9416 16.2577 11.9458C16.4873 11.9458 16.5819 11.8793 16.6463 11.6548C16.7685 11.2262 16.9076 10.8022 17.0467 10.3782C17.1062 10.1968 17.1657 10.0153 17.2239 9.83354C17.325 9.51752 17.4258 9.20151 17.5284 8.87969Z" fill="#FD1323"/>
</svg>
