<svg width="32" height="32" viewBox="0 0 32 32" fill="none" xmlns="http://www.w3.org/2000/svg">
<path d="M1.52588e-05 5.90408C1.52588e-05 2.64336 2.64335 2.28882e-05 5.90407 2.28882e-05H26.0959C29.3566 2.28882e-05 32 2.64336 32 5.90408V26.096C32 29.3567 29.3566 32 26.0959 32H5.90407C2.64335 32 1.52588e-05 29.3567 1.52588e-05 26.096V5.90408Z" fill="#C09A5D" style="fill:#C09A5D;fill:color(display-p3 0.7529 0.6039 0.3647);fill-opacity:1;"/>
<path d="M17.6002 14.4104C17.8915 13.515 18.9326 9.71379 18.9326 9.71379C18.9326 9.71379 19.5367 13.2236 19.8281 13.6121C19.731 13.9987 17.6002 14.4104 17.6002 14.4104ZM22.8951 17.4094C23.7108 16.4207 26.2476 15.9041 26.2048 15.4749C26.1621 15.0436 22.594 16.549 22.594 16.549C22.594 16.549 22.2113 15.7545 21.7879 14.2453C22.4094 14.1657 23.3029 14.0297 23.2408 13.9015C23.1728 13.7675 22.2793 13.6801 21.6325 13.6626C21.0867 11.5221 20.5428 8.24344 20.7021 3.99353L18.7675 2.6805C18.7675 2.6805 18.3247 9.49622 15.9667 14.9582C14.8964 15.9857 13.6067 16.4207 13.6067 16.4207C13.6067 16.4207 13.2629 15.0864 12.6607 14.5289C12.0586 13.9695 8.57596 11.3026 8.53321 8.93876C8.49047 6.57301 10.8971 5.62706 11.1981 5.7572C11.4992 5.8854 9.77631 7.88796 9.9065 8.24149C10.1434 8.88049 11.4351 7.83943 12.4801 6.9537C13.5251 6.06992 15.1334 4.62286 14.168 3.09422C13.2027 1.56752 9.42478 4.43833 8.13894 5.73583C6.85115 7.03529 5.48372 8.64356 5.88579 10.2518C6.28784 11.8601 8.05929 13.7112 9.09262 14.6998C10.124 15.6885 11.4992 16.8073 11.1554 17.322C10.8116 17.8387 9.81132 17.6231 10.1395 18.097C10.4678 18.569 11.4623 19.2605 9.26354 20.2045C6.38301 21.0824 10.3396 19.2586 9.95113 18.6992C9.56459 18.1398 8.01655 18.6137 6.8123 19.6878C5.60997 20.7619 4.83497 21.6651 6.16746 22.31C7.50183 22.9549 10.2095 22.2673 12.1888 19.6024C14.1661 16.9355 15.2829 16.7646 15.2829 16.7646C15.2829 16.7646 13.9077 18.6564 14.4244 19.0002C14.9391 19.344 16.2289 18.9905 17.0893 15.9857C18.2936 14.6571 20.0145 14.5289 20.0145 14.5289C20.0145 14.5289 20.7449 16.9782 20.873 17.4949C19.1113 19.0857 17.6915 19.816 17.7769 21.838C17.8643 23.8581 23.4972 29.2909 24.4431 29.2909C25.389 29.2909 26.4632 28.545 26.4632 27.7292C26.4632 26.9134 23.1534 19.8607 22.8951 17.4094ZM18.7132 21.7778C18.8608 20.5211 20.199 18.7361 21.1314 18.3301C22.0249 21.0475 23.2408 26.4414 24.0119 27.3738C24.783 28.308 18.5674 23.0345 18.7132 21.7778Z" fill="white" style="fill:white;fill-opacity:1;"/>
<path d="M25.1813 13.3047C26.1991 13.3591 27.4345 14.1847 25.7038 14.408C23.9732 14.6314 24.3034 13.2562 25.1813 13.3047Z" fill="white" style="fill:white;fill-opacity:1;"/>
</svg>
