<svg width="32" height="32" viewBox="0 0 32 32" fill="none" xmlns="http://www.w3.org/2000/svg">
<g clip-path="url(#clip0_21320_1631)">
<path d="M0.00123596 5.90211C0.00123596 2.64139 2.64457 -0.00195312 5.9053 -0.00195312H26.0972C29.3579 -0.00195312 32.0012 2.64139 32.0012 5.90211V26.094C32.0012 29.3547 29.3579 31.9981 26.0972 31.9981H5.9053C2.64457 31.9981 0.00123596 29.3547 0.00123596 26.094V5.90211Z" fill="#331B68" style="fill:#331B68;fill:color(display-p3 0.2000 0.1059 0.4078);fill-opacity:1;"/>
<path d="M4.63489 12.9436C4.82111 12.9436 5.00767 12.9426 5.19388 12.9436C5.35462 12.945 5.42656 13.0125 5.45066 13.1715C5.52707 13.6794 5.60555 14.1873 5.6823 14.6951C5.76664 15.254 5.84856 15.8131 5.93322 16.372C5.99551 16.7838 6.06163 17.1952 6.12286 17.607C6.1463 17.7647 6.07988 17.8374 5.92047 17.8374C5.63102 17.8374 5.34155 17.8377 5.05207 17.8374C4.91749 17.8374 4.86103 17.7898 4.8366 17.6556C4.80217 17.4648 4.76741 17.2737 4.73884 17.0819C4.73058 17.0255 4.70821 17.0117 4.65623 17.0117C4.09449 17.0131 3.53241 17.0117 2.97066 17.0152C2.93693 17.0152 2.89012 17.0437 2.87188 17.073C2.74865 17.2689 2.62922 17.4676 2.51253 17.6676C2.44403 17.7847 2.35075 17.8418 2.21135 17.8394C1.90191 17.8343 1.59213 17.8381 1.28268 17.8377C1.13502 17.8377 1.0827 17.7465 1.15739 17.6174C1.56115 16.9191 1.96593 16.2218 2.36934 15.5235C2.80545 14.7685 3.24052 14.0128 3.67628 13.2573C3.70623 13.2053 3.73686 13.1533 3.77094 13.1041C3.84219 13.0008 3.9396 12.944 4.06764 12.944C4.25696 12.944 4.44558 12.9436 4.63489 12.9436ZM4.65451 15.9498C4.575 15.371 4.49721 14.8026 4.41908 14.2341C4.4115 14.2324 4.40359 14.231 4.39602 14.2293C4.07453 14.8002 3.75304 15.371 3.42708 15.9502L4.65451 15.9498Z" fill="white" style="fill:white;fill-opacity:1;"/>
<path d="M15.0052 14.5359C15.0206 14.4719 15.031 14.425 15.0437 14.3789C15.0764 14.2594 15.1491 14.2006 15.2736 14.1999C15.5401 14.1981 15.8065 14.1978 16.0729 14.1999C16.1999 14.2009 16.2591 14.2684 16.2347 14.392C16.1669 14.7332 16.0935 15.0734 16.0213 15.4136C15.8629 16.1584 15.7036 16.9027 15.5449 17.6475C15.5181 17.7732 15.4447 17.8365 15.3184 17.8369C15.0434 17.8375 14.7684 17.8375 14.4934 17.8369C14.3677 17.8365 14.3126 17.7646 14.3402 17.6406C14.3512 17.591 14.3629 17.5414 14.3784 17.4753C14.3044 17.5335 14.2424 17.5804 14.1822 17.6292C13.8848 17.8709 13.5371 17.9339 13.1664 17.9119C12.9617 17.8999 12.7637 17.8568 12.583 17.7566C12.2915 17.5955 12.1418 17.3362 12.0805 17.0178C12.0244 16.7264 12.0512 16.44 12.1108 16.1511C12.1762 15.8343 12.2447 15.5197 12.3848 15.2263C12.593 14.79 12.8831 14.4292 13.3492 14.2508C13.7485 14.098 14.1584 14.0821 14.5673 14.213C14.7394 14.2681 14.8778 14.3803 15.0052 14.5359ZM13.3781 16.4486C13.3781 16.4858 13.3771 16.523 13.3781 16.5601C13.3847 16.7557 13.4869 16.8783 13.6779 16.9213C13.9719 16.9878 14.2806 16.8477 14.4417 16.5557C14.6176 16.2368 14.6799 15.8846 14.6899 15.5255C14.6954 15.3292 14.5921 15.1874 14.4296 15.1426C14.1687 15.071 13.871 15.1216 13.6896 15.3798C13.4642 15.7011 13.4091 16.0712 13.3781 16.4486Z" fill="white" style="fill:white;fill-opacity:1;"/>
<path d="M17.2565 15.1665C17.0913 15.1665 16.9337 15.1672 16.7764 15.1665C16.6063 15.1655 16.5561 15.1038 16.5888 14.9372C16.6229 14.7636 16.6576 14.5901 16.6927 14.4166C16.7223 14.2716 16.808 14.2004 16.9567 14.1986C17.0999 14.1972 17.2434 14.1938 17.3866 14.2004C17.4552 14.2034 17.4834 14.1776 17.4961 14.1157C17.5649 13.7803 17.6362 13.4452 17.705 13.1095C17.7422 12.9281 17.8055 12.8751 17.9924 12.8751C18.2506 12.8751 18.5084 12.8747 18.7666 12.8751C18.9066 12.8751 18.9641 12.946 18.9352 13.083C18.8636 13.4236 18.7913 13.7644 18.7201 14.105C18.7146 14.1318 18.7125 14.1597 18.7073 14.1983C18.8254 14.1983 18.9335 14.1983 19.0419 14.1983C19.2109 14.1983 19.3803 14.1969 19.5493 14.199C19.677 14.2007 19.7324 14.2679 19.708 14.3935C19.6694 14.5922 19.6281 14.7905 19.585 14.9885C19.561 15.0997 19.4673 15.1647 19.3331 15.1658C19.0836 15.1675 18.8343 15.1692 18.5848 15.1645C18.5139 15.163 18.4843 15.1848 18.4702 15.254C18.3876 15.6592 18.2994 16.0634 18.2168 16.4687C18.2055 16.5238 18.2072 16.5833 18.2141 16.6398C18.2279 16.7569 18.2971 16.822 18.422 16.8261C18.6223 16.8326 18.8234 16.8306 19.0237 16.8319C19.1786 16.833 19.2364 16.8932 19.2078 17.0454C19.1679 17.2586 19.1193 17.4703 19.0702 17.6817C19.0495 17.7699 18.971 17.8353 18.8846 17.8346C18.5466 17.8311 18.2072 17.8401 17.8716 17.8108C17.7005 17.796 17.5254 17.7309 17.3701 17.6528C17.0796 17.5065 16.9495 17.2417 16.9512 16.9266C16.9526 16.7201 16.9877 16.5117 17.0262 16.3079C17.0954 15.9436 17.1787 15.5818 17.2558 15.2188C17.2586 15.2054 17.2565 15.1913 17.2565 15.1665Z" fill="white" style="fill:white;fill-opacity:1;"/>
<path d="M7.84619 16.3961C7.89266 16.319 7.94048 16.2429 7.98559 16.1651C8.33871 15.5605 8.69083 14.9555 9.04466 14.3513C9.10181 14.2538 9.18411 14.197 9.30385 14.198C9.58476 14.2008 9.86562 14.198 10.1461 14.199C10.3082 14.1998 10.3623 14.2875 10.2776 14.4277C10.077 14.7606 9.86975 15.0898 9.66458 15.42C9.36755 15.8986 9.07016 16.3765 8.77313 16.8551C8.61478 17.1099 8.4575 17.3657 8.29774 17.6198C8.26745 17.668 8.23686 17.7214 8.19276 17.7541C8.14081 17.7923 8.07503 17.8312 8.01381 17.8333C7.74187 17.8416 7.46963 17.8371 7.19734 17.8371C7.0583 17.8371 7.01626 17.803 6.98804 17.6632C6.94919 17.4704 6.91164 17.2772 6.87379 17.0841C6.7602 16.5046 6.64696 15.9247 6.53337 15.3453C6.4745 15.0457 6.41393 14.7469 6.35613 14.4473C6.32306 14.2772 6.3847 14.2008 6.5561 14.1994C6.80531 14.1973 7.05481 14.1977 7.30402 14.1994C7.43934 14.2001 7.49815 14.2476 7.51988 14.383C7.57667 14.7379 7.62934 15.0933 7.68371 15.4486C7.73189 15.763 7.77971 16.0777 7.82759 16.392C7.83379 16.3934 7.84035 16.3948 7.84619 16.3961Z" fill="white" style="fill:white;fill-opacity:1;"/>
<path d="M21.5046 14.5958C21.7104 14.4019 21.9431 14.2645 22.2164 14.2312C22.4625 14.2008 22.7135 14.205 22.962 14.2029C23.0525 14.2022 23.1014 14.2807 23.0824 14.383C23.048 14.5682 23.007 14.7521 22.9685 14.9363C22.9551 15.0007 22.9403 15.0644 22.9258 15.1284C22.8952 15.2641 22.8253 15.323 22.6849 15.324C22.4556 15.3257 22.2264 15.3278 21.9971 15.324C21.6378 15.3178 21.3855 15.5333 21.3098 15.8739C21.179 16.4613 21.0554 17.0507 20.9301 17.6395C20.9009 17.7762 20.8324 17.8368 20.6933 17.8371C20.3952 17.8375 20.0972 17.8375 19.7991 17.8371C19.6542 17.8371 19.6046 17.7741 19.6356 17.6295C19.7189 17.2418 19.8042 16.8548 19.8861 16.4671C20.0311 15.7829 20.1746 15.0988 20.3185 14.4147C20.3488 14.2714 20.4314 14.2002 20.5753 14.1995C20.8417 14.1981 21.1084 14.1981 21.3748 14.1995C21.5101 14.2002 21.5717 14.2804 21.5442 14.4136C21.5314 14.4746 21.5177 14.5352 21.5046 14.5958Z" fill="white" style="fill:white;fill-opacity:1;"/>
<path d="M25.9411 16.1353C25.9799 16.2544 26.0078 16.3643 26.0519 16.4675C26.1238 16.6369 26.2536 16.7578 26.4143 16.8429C26.4649 16.8697 26.478 16.891 26.4574 16.9475C26.2037 17.6358 25.909 18.3041 25.4991 18.9163C25.2685 19.261 24.9828 19.5443 24.5931 19.7044C24.4947 19.7447 24.3842 19.773 24.2785 19.7753C23.9003 19.784 23.522 19.7795 23.1434 19.7788C23.0108 19.7788 22.9286 19.6507 22.9833 19.5264C23.0036 19.4803 23.0353 19.4376 23.0687 19.3994C23.4796 18.9301 23.892 18.4618 24.3036 17.9929C24.7911 17.4382 25.2781 16.8835 25.7655 16.3288C25.8216 16.2647 25.8801 16.2024 25.9411 16.1353ZM25.1139 17.8562C25.1174 17.8592 25.1208 17.862 25.1246 17.8651C25.2798 17.6902 25.4351 17.5153 25.5982 17.3311C25.6192 17.4722 25.5999 17.5504 25.5363 17.6382C25.4009 17.8245 25.2674 18.0122 25.1328 18.1991C25.1356 18.2015 25.1387 18.2039 25.1415 18.2067C25.276 18.059 25.4109 17.9116 25.5576 17.7508C25.5583 17.8958 25.5324 18.0084 25.4526 18.1116C25.3359 18.2631 25.2288 18.4219 25.1177 18.5778C25.1212 18.5806 25.1249 18.583 25.1284 18.5857C25.2412 18.4622 25.3545 18.3389 25.4674 18.2153C25.4154 18.5348 25.2933 18.8257 25.1662 19.1157C25.1921 19.094 25.2117 19.0695 25.2306 19.0447C25.5342 18.646 25.6808 18.187 25.7345 17.6968C25.7848 17.2406 25.7727 16.7774 25.8818 16.3236C25.7325 16.7833 25.3679 17.1015 25.1094 17.5184C25.3032 17.297 25.4798 17.0953 25.6567 16.8931C25.6636 16.8979 25.6708 16.9024 25.6777 16.9072C25.6498 17.0198 25.6522 17.1362 25.57 17.2391C25.4106 17.4389 25.2654 17.6499 25.1139 17.8562Z" fill="white" style="fill:white;fill-opacity:1;"/>
<path d="M27.3323 15.1055C27.429 14.8634 27.5164 14.628 27.6163 14.3976C27.807 13.9566 28.0186 13.5261 28.284 13.124C28.5181 12.7693 28.7996 12.4657 29.1989 12.2963C29.2963 12.2549 29.4071 12.2277 29.5121 12.2257C29.9018 12.2174 30.2914 12.2219 30.6811 12.2222C30.8212 12.2222 30.9024 12.3479 30.8312 12.4698C30.7788 12.56 30.7055 12.6392 30.636 12.7184C30.0777 13.3547 29.5173 13.9896 28.9587 14.6252C28.6265 15.0032 28.2954 15.382 27.9635 15.7604C27.934 15.7941 27.903 15.8268 27.8582 15.8761C27.8314 15.5107 27.6534 15.2663 27.3323 15.1055ZM28.7167 14.4733L28.7112 14.4689C28.5298 14.6754 28.3484 14.8824 28.167 15.089C28.1587 15.0852 28.1508 15.081 28.1426 15.0773C28.1736 14.9833 28.1518 14.881 28.2193 14.7918C28.3886 14.5677 28.5528 14.3394 28.7191 14.1128C28.716 14.1104 28.7129 14.1081 28.7098 14.1056C28.5466 14.2902 28.3831 14.4744 28.211 14.6689C28.199 14.5133 28.2365 14.3966 28.3246 14.2878C28.4386 14.147 28.5384 13.9948 28.644 13.8474C28.6392 13.8433 28.6344 13.8391 28.6296 13.8353C28.5109 13.9651 28.3924 14.0949 28.2599 14.2399C28.2658 14.096 28.2812 13.9851 28.3632 13.8835C28.4819 13.7362 28.5842 13.5754 28.6933 13.4204L28.6837 13.4128C28.5731 13.5327 28.4623 13.6525 28.3518 13.7723C28.3969 13.4607 28.5239 13.1815 28.6375 12.8961C28.6138 12.9132 28.5969 12.9343 28.5804 12.9556C28.1959 13.4604 28.0895 14.0512 28.0506 14.6634C28.0379 14.86 28.0241 15.0566 28.0025 15.2522C27.9873 15.3882 27.957 15.5228 27.9336 15.6578C27.9556 15.6361 27.968 15.6113 27.9797 15.5861C28.0245 15.4884 28.0555 15.3806 28.1164 15.2938C28.3109 15.0163 28.5163 14.7468 28.7174 14.474L28.7167 14.4733Z" fill="white" style="fill:white;fill-opacity:1;"/>
<path d="M10.6098 17.8372C10.4635 17.8372 10.3175 17.8383 10.1712 17.8369C10.0566 17.8359 10.0057 17.7732 10.0298 17.6585C10.1533 17.0694 10.2779 16.4803 10.4025 15.8915C10.5082 15.392 10.6146 14.892 10.7206 14.3924C10.744 14.2815 10.8286 14.2026 10.9422 14.2013C11.2345 14.1975 11.527 14.1975 11.8193 14.2013C11.9367 14.2026 11.9897 14.2849 11.9625 14.4116C11.9081 14.6654 11.8506 14.9189 11.7962 15.1726C11.6867 15.6832 11.578 16.1942 11.4692 16.7051C11.4059 17.0037 11.3402 17.3022 11.281 17.6014C11.251 17.7519 11.1849 17.8524 10.9963 17.8397C10.8679 17.831 10.7388 17.8372 10.6098 17.8372Z" fill="white" style="fill:white;fill-opacity:1;"/>
<path d="M23.4632 17.8373C23.3168 17.8373 23.1709 17.838 23.0246 17.8373C22.9114 17.8366 22.868 17.7995 22.8828 17.6862C22.9034 17.5251 22.9382 17.3656 22.9719 17.2065C23.1193 16.5059 23.268 15.8056 23.4163 15.1049C23.4673 14.8649 23.5185 14.6252 23.5705 14.3856C23.5929 14.2826 23.6817 14.2024 23.7905 14.201C24.0827 14.1976 24.3749 14.1976 24.6675 14.201C24.7838 14.2024 24.8379 14.2792 24.8138 14.4011C24.788 14.5326 24.7577 14.6634 24.7295 14.7946C24.5866 15.4612 24.4438 16.1282 24.3013 16.7947C24.2424 17.0709 24.1832 17.3471 24.1254 17.6232C24.0916 17.7853 24.0304 17.8373 23.8676 17.8377C23.733 17.8377 23.5977 17.8373 23.4632 17.8373Z" fill="white" style="fill:white;fill-opacity:1;"/>
<path d="M26.0172 14.204C26.1549 14.204 26.2922 14.205 26.4299 14.204C26.5297 14.2029 26.5958 14.2498 26.6409 14.3373C26.7731 14.5937 26.9056 14.8503 27.0429 15.104C27.0632 15.1412 27.1063 15.1788 27.1462 15.1908C27.4433 15.2796 27.761 15.5878 27.7245 16.0719C27.699 16.4114 27.4233 16.7292 27.0581 16.7953C26.4354 16.9075 25.9907 16.3811 26.0733 15.8664C26.0788 15.8312 26.0633 15.7885 26.0465 15.7544C25.8396 15.3368 25.6307 14.9202 25.4217 14.5035C25.3828 14.4261 25.3673 14.3445 25.4334 14.2818C25.4747 14.2426 25.5394 14.2119 25.5959 14.2074C25.7356 14.1971 25.8768 14.204 26.0172 14.204ZM27.2023 15.9879C27.203 15.8185 27.0581 15.6677 26.897 15.6708C26.729 15.6739 26.5869 15.8188 26.5875 15.9869C26.5882 16.1518 26.7293 16.2912 26.896 16.2916C27.0667 16.2916 27.2016 16.1583 27.2023 15.9879Z" fill="white" style="fill:white;fill-opacity:1;"/>
<path d="M27.7415 16.4886C27.8744 16.7533 27.9983 17.0006 28.1222 17.2481C28.1773 17.358 28.2327 17.4674 28.2857 17.5783C28.3405 17.693 28.2874 17.8283 28.1628 17.8331C27.8379 17.8458 27.5123 17.839 27.187 17.8314C27.1488 17.8304 27.0975 17.786 27.0769 17.7481C26.9378 17.4919 26.8053 17.2326 26.671 16.9737C26.6672 16.9668 26.6676 16.9575 26.6642 16.9403C26.8731 16.9658 27.0765 16.9706 27.272 16.8866C27.4634 16.8043 27.6159 16.6762 27.7415 16.4886Z" fill="white" style="fill:white;fill-opacity:1;"/>
<path d="M11.4988 13.7104C11.3583 13.7104 11.2179 13.7114 11.0778 13.7104C10.9374 13.709 10.8788 13.6381 10.9077 13.5017C10.9525 13.2897 10.9976 13.0779 11.0475 12.8672C11.0747 12.7522 11.1601 12.6885 11.2774 12.6882C11.5638 12.6868 11.8502 12.6868 12.1369 12.6882C12.247 12.6885 12.3152 12.757 12.2945 12.8634C12.2478 13.101 12.1937 13.3375 12.1342 13.5723C12.1094 13.6698 12.0264 13.709 11.929 13.7104C11.7858 13.7122 11.6419 13.7101 11.4988 13.7104Z" fill="white" style="fill:white;fill-opacity:1;"/>
<path d="M24.3474 13.7097C24.207 13.7097 24.0665 13.7107 23.9264 13.7097C23.7898 13.7083 23.7309 13.6391 23.7581 13.5079C23.8022 13.2958 23.8483 13.0844 23.8961 12.8733C23.9234 12.7532 24.0066 12.6874 24.1288 12.6871C24.4125 12.6861 24.6961 12.6861 24.9794 12.6871C25.0995 12.6874 25.1663 12.7563 25.1432 12.873C25.0981 13.1023 25.0454 13.3303 24.989 13.5571C24.9635 13.6598 24.8895 13.7076 24.777 13.7094C24.6338 13.7114 24.4906 13.7097 24.3474 13.7097Z" fill="white" style="fill:white;fill-opacity:1;"/>
</g>
<defs>
<clipPath id="clip0_21320_1631">
<rect width="32" height="32" fill="white" style="fill:white;fill-opacity:1;"/>
</clipPath>
</defs>
</svg>
