<svg width="1000" height="859" viewBox="0 0 1000 859" fill="none" xmlns="http://www.w3.org/2000/svg">
<path d="M804.401 564.792C804.401 618.805 760.615 662.592 706.601 662.592L293.399 662.592C239.385 662.592 195.599 618.805 195.599 564.792L195.599 293.399C195.599 239.385 239.385 195.599 293.399 195.599L706.602 195.599C760.615 195.599 804.401 239.386 804.401 293.399L804.401 564.792Z" fill="url(#paint0_linear_4576_359)"/>
<path d="M709.284 419.783V429.19C727.803 437.513 743.054 458.138 743.054 483.828C743.054 526.888 715.094 558.73 653.725 558.73H528.809V300.375H650.457C707.468 300.375 735.792 331.855 735.792 368.763C735.792 391.921 725.624 411.098 709.284 419.783ZM582.915 402.776H643.921C668.25 402.776 680.233 393.006 680.233 373.829C680.233 354.651 667.887 345.243 643.557 345.243H582.915V402.776ZM582.915 512.776H645.736C672.971 512.776 687.496 502.644 687.496 480.934C687.496 458.861 673.697 448.006 646.462 448.006H582.915V512.776Z" fill="white"/>
<path d="M378.4 415.893H490.93V445.455C490.93 503.873 459.436 560.18 380.169 560.18C300.902 560.18 258.084 505.985 258.084 429.97C258.084 354.307 301.256 299.76 380.523 299.76C438.204 299.76 474.652 330.025 484.207 376.126H429.357C423.695 357.475 407.417 346.565 380.169 346.565C334.874 346.565 312.226 382.109 312.226 429.97C312.226 477.831 334.874 513.727 380.523 513.727C419.449 513.727 437.142 490.852 438.204 458.828H378.4V415.893Z" fill="white"/>
<defs>
<linearGradient id="paint0_linear_4576_359" x1="500" y1="662.592" x2="500" y2="195.599" gradientUnits="userSpaceOnUse">
<stop stop-color="#057400"/>
<stop offset="0.632213" stop-color="#2BDC24"/>
</linearGradient>
</defs>
</svg>
