<svg width="32" height="32" viewBox="0 0 32 32" fill="none" xmlns="http://www.w3.org/2000/svg">
<path d="M16.0066 31.9986C24.549 31.9986 31.4738 24.8355 31.4738 15.9993C31.4738 7.16316 24.549 0 16.0066 0C7.46429 0 0.539352 7.16316 0.539352 15.9993C0.539352 24.8355 7.46429 31.9986 16.0066 31.9986Z" fill="white" style="fill:white;fill-opacity:1;"/>
<path d="M14.6386 0.0581689C23.2842 -0.687487 30.8818 5.82187 31.6274 14.6286C32.0708 19.8482 29.9749 24.967 26.0249 28.3124C20.362 33.1088 12.2001 33.2297 6.39615 28.655C-0.455817 23.2339 -1.70529 13.1777 3.61505 6.18462C6.27524 2.67804 10.2856 0.461225 14.6386 0.0581689ZM14.7595 0.602297C6.41625 1.28749 0.189073 8.74402 0.854113 17.2485C1.51915 25.753 8.83464 32.1011 17.1778 31.4159C25.5413 30.7307 31.7483 23.2944 31.0833 14.7697C30.7004 9.93305 28.1007 5.58004 24.0903 2.96018C21.3293 1.16658 18.0646 0.340308 14.7595 0.602297Z" fill="#E40707" style="fill:#E40707;fill:color(display-p3 0.8941 0.0275 0.0275);fill-opacity:1;"/>
<path d="M13.8125 1.40849C21.0473 0.279928 27.9798 4.83446 29.9548 12.029C31.0431 15.9991 30.4587 20.473 28.2016 23.9192C26.146 24.8664 23.8284 25.0276 21.6116 24.9268C17.9035 24.7454 14.276 23.758 10.5477 23.6572C8.45183 23.5967 6.29549 23.8789 4.34065 24.7454C-0.395248 18.1756 0.995292 8.92546 7.4442 4.10896C9.29822 2.69827 11.4949 1.79139 13.8125 1.40849ZM15.989 1.69063C15.6866 2.5975 15.4046 3.50438 15.1022 4.43141C14.155 4.43141 13.2079 4.41125 12.2607 4.45156C13.0265 5.01584 13.7923 5.58012 14.5581 6.16455C14.276 7.07143 13.9737 7.97832 13.6915 8.90536C14.4574 8.34106 15.2232 7.77675 15.989 7.21251C16.7548 7.77675 17.5206 8.34106 18.2864 8.90536C18.0042 7.99848 17.702 7.07143 17.4198 6.16455C18.1856 5.60027 18.9514 5.03599 19.7172 4.45156C18.77 4.43141 17.8229 4.45156 16.8757 4.45156C16.5734 3.50438 16.2711 2.5975 15.989 1.69063ZM9.39903 5.25767C9.29822 5.72119 9.23779 6.18471 9.13704 6.64821L7.74645 6.82961L8.97581 7.51476C8.89516 7.97831 8.81457 8.46197 8.73398 8.90536C9.07656 8.58288 9.41914 8.26047 9.76177 7.91783C10.1648 8.13955 10.5678 8.38138 10.9911 8.58288C10.7896 8.15966 10.588 7.71633 10.3865 7.2931C10.7291 6.97068 11.0717 6.62804 11.3941 6.30563C10.9306 6.36605 10.4671 6.42654 10.0036 6.48697C9.80204 6.12423 9.60054 5.70104 9.39903 5.25767ZM21.9743 6.54746L20.5838 6.36605C20.9264 6.70869 21.2488 7.03111 21.5914 7.35359C21.3899 7.77675 21.1884 8.22014 20.9869 8.64337L22.2161 7.97831C22.5588 8.30073 22.9014 8.64337 23.2439 8.96579C23.1432 8.50229 23.0828 8.01858 23.0021 7.55509C23.4052 7.33342 23.8082 7.0916 24.2315 6.86987L22.8409 6.68853C22.7401 6.22498 22.6797 5.74134 22.5789 5.29798C22.3774 5.70104 22.1759 6.12423 21.9743 6.54746ZM4.98555 8.58288C5.0057 8.86503 5.02585 9.14718 5.046 9.42928L4.26005 9.75175L5.06616 9.95326C5.08631 10.2354 5.10646 10.5176 5.12662 10.7997C5.26769 10.5579 5.40875 10.3161 5.56997 10.0943L6.37608 10.2757L5.85211 9.63084L6.29549 8.90536L5.50952 9.22777C5.3483 9.00611 5.16692 8.78439 4.98555 8.58288ZM26.4482 9.22777L25.6824 8.90536L26.1258 9.63084C25.9444 9.8525 25.7631 10.0541 25.5817 10.2757L26.3878 10.0943L26.8311 10.7997L26.8916 9.95326L27.6978 9.75175L26.9319 9.42928L26.9924 8.58288L26.4482 9.22777ZM7.12172 10.699C6.235 10.9408 5.3886 11.505 4.94524 12.3313C4.90493 15.2333 4.94524 18.1353 4.92509 21.0575C5.59013 21.521 6.31565 21.8435 7.10156 22.045C8.00844 22.2868 8.93548 22.2264 9.86252 22.1659C10.7896 22.1054 11.7367 21.8636 12.4219 21.2187C13.49 20.2715 13.8125 18.5988 13.2482 17.2687C12.9459 16.5231 12.2809 15.9991 11.5755 15.6767C12.2809 15.2333 12.825 14.4675 12.7847 13.6009C12.8048 12.0492 11.4747 10.699 10.0036 10.5377C9.0564 10.437 8.06893 10.437 7.12172 10.699ZM11.112 10.4772C12.1599 10.8601 12.8452 11.8275 13.2079 12.8553H14.5984V22.186H16.9764V12.8553H18.2864C18.9918 11.7872 19.9792 10.8803 21.1884 10.4772C17.8229 10.4974 14.4574 10.4772 11.112 10.4772ZM21.4907 10.7997C20.2009 11.2632 19.1529 12.1902 18.5484 13.4397C17.8833 14.79 17.7826 16.3417 18.0042 17.8129C18.2058 19.2034 18.8909 20.5134 19.9994 21.3799C21.0473 22.2062 22.4177 22.4682 23.6873 22.3674C24.9771 22.2666 26.3273 21.9039 27.3551 21.0575V15.4751H23.4858V17.6114H24.9973V19.7475C24.2113 20.2917 23.1634 20.2917 22.2766 19.9692C21.3093 19.5863 20.6443 18.619 20.4427 17.6114C20.2412 16.5836 20.3016 15.5155 20.6845 14.5481C21.0473 13.6614 21.793 12.9359 22.72 12.7545C23.8687 12.4522 25.0577 12.9561 25.9243 13.7017C26.2669 13.0366 26.5893 12.3716 26.952 11.7066C25.5011 10.3563 23.3044 10.1951 21.4907 10.7997Z" fill="#E40707" style="fill:#E40707;fill:color(display-p3 0.8941 0.0275 0.0275);fill-opacity:1;"/>
<path d="M7.74648 13.1773C8.35111 12.4316 9.74164 12.5526 10.1447 13.4796C10.3059 13.9834 10.0842 14.6888 9.51998 14.8298C8.87509 15.0112 8.21003 14.9105 7.54498 14.9306C7.58531 14.3663 7.40391 13.7013 7.74648 13.1773ZM7.54498 16.8653C8.37121 16.9056 9.23783 16.7444 10.0238 17.0668C11.1725 17.5303 11.0919 19.5255 9.94315 19.9285C9.15718 20.0293 8.29062 20.0897 7.54498 19.7068V16.8653ZM12.0995 24.342C16.3115 24.7652 20.5032 25.9139 24.7555 25.4101C25.7631 25.3093 26.7506 25.0675 27.7179 24.6846C26.9722 25.6721 26.1863 26.6192 25.1988 27.3649C24.4128 27.506 23.6269 27.4253 22.8611 27.3447C20.5838 27.0424 18.4073 26.3371 16.2308 25.6116C14.8604 25.1884 13.5102 24.6644 12.0995 24.342ZM9.33858 25.2488C11.1523 25.2892 12.8854 25.9139 14.6186 26.4782C17.4803 27.4052 20.3017 28.5338 23.3246 28.7756C22.0348 29.5011 20.6846 30.0855 19.2336 30.408C19.032 30.4684 18.8709 30.3072 18.6895 30.2467C16.8959 29.2391 15.1829 28.0904 13.3893 27.0223C12.0995 26.2766 10.7694 25.5915 9.33858 25.2488ZM7.08149 27.6672C8.35111 27.7478 9.64089 27.9292 10.7896 28.4935C12.0995 29.0779 13.2482 29.9243 14.4171 30.7304C11.7569 30.3878 9.21767 29.3398 7.08149 27.6672Z" fill="#E40707" style="fill:#E40707;fill:color(display-p3 0.8941 0.0275 0.0275);fill-opacity:1;"/>
</svg>
