<svg width="32" height="32" viewBox="0 0 32 32" fill="none" xmlns="http://www.w3.org/2000/svg">
<path d="M28.49 25.8694C28.3629 26.0616 28.2442 26.2601 28.1068 26.4451C27.7091 26.9811 27.2626 27.4754 26.7789 27.9347C26.0226 28.6527 25.1978 29.2822 24.2983 29.8106C23.9344 30.0242 23.5633 30.2284 23.1845 30.414C22.4485 30.7747 21.6856 31.0705 20.8973 31.2969C20.5227 31.4047 20.147 31.5099 19.7677 31.599C19.4448 31.6751 19.1171 31.7327 18.7896 31.7865C18.5426 31.8271 18.293 31.853 18.0436 31.8782C17.6786 31.9151 17.313 31.9454 16.9478 31.9795C16.9393 31.9801 16.9321 31.993 16.9244 32.0002H15.129C14.9925 31.9853 14.8561 31.9697 14.7194 31.9557C14.4059 31.9233 14.091 31.8994 13.7787 31.8577C13.4591 31.815 13.1381 31.7709 12.8241 31.6995C12.2433 31.5675 11.659 31.4418 11.0905 31.2664C8.72109 30.5348 6.6208 29.3258 4.79013 27.6529C4.29538 27.2008 3.87621 26.689 3.64481 26.0476C3.5942 25.9072 3.562 25.7598 3.52142 25.6156C3.53448 25.589 3.55104 25.5636 3.56037 25.5356C3.61309 25.3742 3.64691 25.2039 3.71876 25.0518C3.9273 24.6112 4.26599 24.2732 4.63151 23.962C5.27695 23.4124 6.00031 22.9802 6.75493 22.6025C7.2508 22.3543 7.76398 22.1409 8.26736 21.9072C9.52789 21.3219 10.787 20.7343 12.0467 20.1472C13.1374 19.6387 14.2275 19.129 15.3186 18.6214C15.4159 18.5762 15.5186 18.5421 15.6186 18.5029C15.4015 18.6618 15.1805 18.816 14.9681 18.9806C14.4215 19.4038 13.8645 19.8148 13.3385 20.2622C12.8195 20.7036 12.3184 21.1689 11.8365 21.6503C11.0934 22.3926 10.5561 23.2701 10.2279 24.2708C10.1225 24.5925 10.0521 24.9211 10.0194 25.2599C9.93148 26.1717 10.2282 26.9718 10.7159 27.7185C11.0649 28.2526 11.5468 28.6394 12.0968 28.9475C12.686 29.2776 13.3227 29.4861 13.9765 29.6368C14.3273 29.7175 14.6872 29.7621 15.045 29.8076C15.3772 29.8498 15.7112 29.8827 16.0455 29.8988C16.3478 29.9134 16.6515 29.905 16.9543 29.8976C17.3252 29.8885 17.6968 29.8824 18.0662 29.8528C18.889 29.7865 19.7075 29.682 20.5188 29.5286C21.4929 29.3445 22.4541 29.1075 23.3848 28.764C23.9337 28.5612 24.4751 28.3357 25.0102 28.0984C25.7642 27.7642 26.4749 27.3487 27.1497 26.875C27.4628 26.6552 27.7643 26.4187 28.0683 26.1859C28.1831 26.098 28.288 25.9972 28.4005 25.9057C28.4245 25.8862 28.4609 25.882 28.4917 25.8707L28.4903 25.8696L28.49 25.8694Z" fill="#FBAD18" style="fill:#FBAD18;fill:color(display-p3 0.9843 0.6784 0.0941);fill-opacity:1;"/>
<path d="M15.6186 18.5025C15.5185 18.5417 15.4159 18.5757 15.3186 18.621C14.2274 19.1286 13.1373 19.6383 12.0466 20.1468C10.787 20.7339 9.52787 21.3215 8.26734 21.9067C7.76395 22.1405 7.25077 22.3539 6.75484 22.6021C6.00022 22.9797 5.27689 23.4119 4.63145 23.9616C4.26593 24.2727 3.92747 24.6107 3.7187 25.0514C3.64662 25.2035 3.61303 25.3737 3.56032 25.5351C3.55122 25.5631 3.53466 25.5885 3.52136 25.6152C3.51179 25.5046 3.5006 25.394 3.49313 25.2834C3.45791 24.7619 3.61816 24.2863 3.85026 23.8316C4.17892 23.1878 4.64195 22.6434 5.14696 22.1349C5.66154 21.6168 6.2006 21.1229 6.71119 20.6012C7.46323 19.8324 8.09798 18.9776 8.51437 17.9768C8.69954 17.5314 8.83998 17.0728 8.87984 16.5886C8.89505 16.4052 8.93256 16.2205 8.92162 16.0385C8.9013 15.6989 8.87683 15.3565 8.81196 15.0234C8.51996 13.5221 7.64588 12.3555 6.61116 11.2914C6.0833 10.7486 5.52345 10.2369 4.99231 9.6971C4.55541 9.25293 4.16959 8.7659 3.87429 8.2128C3.59553 7.69078 3.44625 7.13936 3.4943 6.54333C3.49733 6.50485 3.52136 6.46824 3.53582 6.43066C3.55775 6.50419 3.57944 6.57766 3.60137 6.65088C3.7348 7.10106 4.0203 7.45168 4.34757 7.77194C4.87918 8.29168 5.49709 8.69286 6.13831 9.06073C6.81502 9.44886 7.53183 9.75331 8.23932 10.0792C10.6671 11.1974 13.0872 12.3327 15.5108 13.4608C15.5444 13.4764 15.5824 13.4829 15.6184 13.4937L15.6167 13.4925C15.6402 13.5065 15.6638 13.5202 15.6874 13.5343C16.0945 13.8025 16.5171 14.0507 16.9043 14.3448C17.3107 14.6534 17.6858 15.0068 17.8861 15.4955C18.0214 15.8254 18.0186 16.1652 17.8882 16.4964C17.7233 16.9159 17.407 17.2219 17.0786 17.51C16.6559 17.8809 16.187 18.189 15.6918 18.4563C15.6825 18.4638 15.6731 18.4715 15.6638 18.4789C15.6638 18.4789 15.6652 18.478 15.665 18.478C15.6494 18.4864 15.6335 18.4948 15.6179 18.503L15.6186 18.502V18.5025Z" fill="#EE212E" style="fill:#EE212E;fill:color(display-p3 0.9333 0.1294 0.1804);fill-opacity:1;"/>
<path d="M15.6183 13.4943C15.5824 13.4835 15.5444 13.4772 15.5108 13.4614C13.0874 12.3333 10.6673 11.198 8.23927 10.0797C7.53178 9.7539 6.81498 9.44945 6.13827 9.06132C5.49706 8.69344 4.87915 8.29202 4.34755 7.77252C4.02004 7.45251 3.73476 7.10171 3.60134 6.65147C3.57964 6.578 3.55772 6.50454 3.53579 6.43131C3.56518 6.02845 3.73569 5.67715 3.9426 5.34125C4.26637 4.81525 4.70933 4.39677 5.17399 3.99929C6.63913 2.74574 8.2703 1.77047 10.0706 1.07861C11.2013 0.644043 12.3661 0.337064 13.5651 0.167485C14.0009 0.105903 14.4413 0.0748797 14.8807 0.0450218C15.2743 0.0181969 15.6689 -0.000231076 16.0631 2.18937e-06C16.4606 0.000235455 16.8595 0.0135316 17.2556 0.0464214C18.6519 0.16212 20.0249 0.401212 21.3575 0.848144C21.9689 1.05318 22.566 1.28995 23.1478 1.56823C24.022 1.986 24.8441 2.48798 25.6159 3.07324C26.2007 3.51667 26.7491 4.00162 27.2518 4.53626C27.7055 5.01865 28.1258 5.52902 28.4834 6.08863C28.4956 6.10774 28.5033 6.12969 28.5133 6.15043L28.5152 6.14881C28.4116 6.07324 28.3061 6.00019 28.2049 5.92161C27.9154 5.69721 27.6355 5.45928 27.3374 5.24724C26.7221 4.80918 26.0738 4.42476 25.3969 4.08723C24.8611 3.82015 24.3131 3.58525 23.7548 3.36994C23.0878 3.11289 22.406 2.90809 21.7127 2.74154C21.2353 2.62677 20.7517 2.5365 20.2693 2.44366C19.9423 2.38068 19.6134 2.32563 19.2833 2.27991C19.0379 2.24585 18.79 2.23209 18.543 2.21064C18.1648 2.17798 17.7867 2.14369 17.4084 2.11663C17.277 2.10729 17.1443 2.11756 17.0123 2.11709C16.682 2.1164 16.3515 2.1052 16.0216 2.11663C15.7576 2.12573 15.4945 2.16095 15.2313 2.18661C15.0151 2.20783 14.7972 2.22183 14.5833 2.25705C14.0452 2.34546 13.5136 2.46279 12.9988 2.64917C12.2629 2.91555 11.5792 3.27034 11.048 3.85817C10.542 4.41823 10.2003 5.07066 10.0693 5.82013C10.0303 6.04312 9.99856 6.27217 10.0039 6.49732C10.0156 6.9974 10.1248 7.48263 10.3046 7.94934C10.5915 8.69416 10.9656 9.39089 11.5112 9.98013C11.8957 10.3951 12.2855 10.8085 12.7046 11.187C13.2005 11.6352 13.7233 12.055 14.2489 12.4686C14.6887 12.8148 15.1494 13.1341 15.6006 13.4658C15.609 13.4718 15.6125 13.4845 15.6186 13.4943H15.6183Z" fill="#2899D5" style="fill:#2899D5;fill:color(display-p3 0.1569 0.6000 0.8353);fill-opacity:1;"/>
</svg>
