<svg width="32" height="32" viewBox="0 0 32 32" fill="none" xmlns="http://www.w3.org/2000/svg">
<g clip-path="url(#clip0_21320_2333)">
<path fill-rule="evenodd" clip-rule="evenodd" d="M14.1702 16.1381L9.55744 22.5447H10.2543L6.25133 28.3692C4.34446 26.9161 2.79864 25.0425 1.73419 22.8943C0.669733 20.7461 0.115366 18.3812 0.114235 15.9837C0.146361 13.139 0.944067 10.3554 2.42353 7.92556C3.903 5.49567 6.0096 3.50915 8.52199 2.17471C11.0344 0.840279 13.8598 0.207206 16.7014 0.342014C19.5429 0.476822 22.2957 1.37453 24.6705 2.94082L19.8915 9.42265H19.0402L15.8291 13.8732L12.5587 9.46225H9.48221L14.1702 16.1381ZM5.38422 21.4914H8.55175C8.59134 21.4914 8.62698 21.4914 8.63094 21.44V12.1508C8.63094 10.5274 7.96971 9.69586 6.17214 9.69586H3.48766C3.47295 9.69586 3.45886 9.7017 3.44846 9.7121C3.43806 9.7225 3.43222 9.7366 3.43222 9.7513V10.8362C3.43304 10.851 3.43904 10.8651 3.44917 10.876C3.4593 10.8868 3.47292 10.8938 3.48766 10.8956C5.03579 10.8956 5.32878 11.1451 5.32878 11.9013V21.4321C5.3296 21.4469 5.33559 21.461 5.34573 21.4718C5.35586 21.4827 5.36948 21.4896 5.38422 21.4914Z" fill="#008C47" style="fill:#008C47;fill:color(display-p3 0.0000 0.5490 0.2784);fill-opacity:1;"/>
<path fill-rule="evenodd" clip-rule="evenodd" d="M8.42913 2.00058C10.9729 0.649465 13.8337 0.00847787 16.7107 0.144971C19.5878 0.281464 22.375 1.1904 24.7795 2.77626L24.9537 2.89112L19.9915 9.62134H19.1415L15.8313 14.2093L12.459 9.66093H9.86314L14.4131 16.1402L9.94393 22.3474H10.6306L6.29671 28.6534L6.13133 28.5274C4.20023 27.0558 2.63477 25.1584 1.55679 22.9829C0.478817 20.8074 -0.0825937 18.4124 -0.0837391 15.9845L-0.0837402 15.9821C-0.0512125 13.1019 0.756477 10.2836 2.25444 7.82331C3.75239 5.36305 5.88533 3.35169 8.42913 2.00058ZM16.692 0.540477C13.8859 0.407355 11.0958 1.03251 8.61486 2.35027C6.13387 3.66802 4.0536 5.62971 2.59263 8.02923C1.13186 10.4284 0.344138 13.1767 0.312209 15.9855C0.313505 18.3521 0.860821 20.6865 1.91158 22.8071C2.93171 24.8659 4.39965 26.6692 6.20674 28.0853L9.87801 22.7434H9.17095L13.9272 16.1374L9.10127 9.26498H12.6583L15.827 13.5386L18.9389 9.22539H19.7915L24.3866 2.99307C22.0817 1.51663 19.4285 0.670302 16.692 0.540477ZM3.6302 9.89455V10.6991C3.95712 10.7026 4.23009 10.7186 4.45659 10.7512C4.71395 10.7881 4.92434 10.848 5.08913 10.9449C5.25997 11.0454 5.37463 11.1816 5.44274 11.3526C5.50808 11.5167 5.52676 11.7034 5.52676 11.9021V21.2942H8.43296V12.1515C8.43296 11.3608 8.27098 10.8086 7.93205 10.4516C7.59511 10.0967 7.04466 9.89455 6.17214 9.89455H3.6302ZM3.30847 9.57282C3.35599 9.5253 3.42044 9.4986 3.48766 9.4986H6.17214C7.0972 9.4986 7.77614 9.71225 8.2192 10.179C8.66028 10.6436 8.82891 11.3188 8.82891 12.1515V21.4483L8.82833 21.4559C8.82566 21.4905 8.81646 21.5335 8.79042 21.5752C8.7628 21.6195 8.72459 21.6489 8.68569 21.6664C8.62852 21.692 8.56626 21.6905 8.55365 21.6902C8.55276 21.6901 8.55212 21.6901 8.55175 21.6901H5.37194L5.35977 21.6886C5.29899 21.6811 5.24279 21.6524 5.20099 21.6076C5.1592 21.5628 5.13447 21.5048 5.13111 21.4436L5.13051 21.4328L5.13081 11.9021C5.13081 11.7225 5.11287 11.5945 5.07488 11.4991C5.03968 11.4107 4.98433 11.3427 4.8884 11.2862C4.78644 11.2263 4.6333 11.1765 4.40031 11.1431C4.16862 11.1098 3.87071 11.0943 3.48766 11.0943H3.47538L3.46321 11.0928C3.40242 11.0852 3.34623 11.0565 3.30443 11.0118C3.26264 10.967 3.23791 10.909 3.23455 10.8478L3.23395 10.8369L3.23425 9.75201C3.23425 9.6848 3.26095 9.62035 3.30847 9.57282Z" fill="#316937" style="fill:#316937;fill:color(display-p3 0.1922 0.4118 0.2157);fill-opacity:1;"/>
<path d="M25.8346 3.79102L21.6931 9.44133H22.4849L17.8603 15.8281L22.5047 22.504H19.3372L16.1499 18.2276L13.014 22.5832H12.1113L7.56587 29.3145C9.95205 30.7867 12.6863 31.599 15.4892 31.6685C18.2921 31.738 21.0632 31.0622 23.5194 29.71C25.9756 28.3578 28.0288 26.3778 29.4693 23.9723C30.9098 21.5667 31.6859 18.8219 31.7183 16.0182C31.7187 13.6691 31.19 11.3501 30.1714 9.23328C29.1529 7.11651 27.6706 5.25638 25.8346 3.79102ZM29.9168 21.4903L22.7898 21.5497C22.7898 20.7143 22.7542 20.1164 22.7898 18.1247C22.9026 17.6356 23.1673 17.1948 23.5461 16.8655C25.019 15.4322 27.3392 14.1374 27.3392 13.1871V12.0349C27.3392 11.4726 27.2046 10.9697 26.5077 10.9895C25.2684 11.0093 25.5575 11.8012 25.5575 12.7119C25.5575 12.7317 25.5575 12.7515 25.5575 12.7713L22.968 14.6878C22.9569 14.6957 22.9438 14.7004 22.9302 14.7015C22.9166 14.7025 22.903 14.6998 22.8908 14.6937C22.8786 14.6876 22.8683 14.6783 22.8609 14.6668C22.8536 14.6553 22.8496 14.642 22.8492 14.6284C22.8492 13.6424 22.6948 12.4783 22.8096 11.8567C23.0472 10.4669 24.2667 9.57596 26.4444 9.6116C28.9032 9.63139 29.8138 10.5777 29.9484 11.239C30.1148 12.061 30.1282 12.9066 29.988 13.7335C29.8019 14.5294 28.82 15.4401 27.2362 16.7388C26.3295 17.4912 25.6881 18.1682 25.6525 18.4613C25.6525 18.8572 25.6525 19.562 25.6525 19.7758C25.6525 19.8154 25.6921 19.8352 25.7317 19.8352H29.9366C29.9549 19.837 29.972 19.8451 29.985 19.8581C29.998 19.8711 30.0061 19.8882 30.0078 19.9065V21.4349C29.9762 21.4903 29.9564 21.4903 29.9168 21.4903Z" fill="#99989A" style="fill:#99989A;fill:color(display-p3 0.6000 0.5961 0.6039);fill-opacity:1;"/>
<path fill-rule="evenodd" clip-rule="evenodd" d="M25.7969 3.50781L25.9581 3.63649C27.8173 5.12041 29.3184 7.00408 30.3498 9.14765C31.3813 11.2912 31.9167 13.6396 31.9163 16.0184L31.9162 16.0207C31.8834 18.8594 31.0976 21.6386 29.6391 24.0742C28.1807 26.5098 26.1018 28.5146 23.6149 29.8836C21.128 31.2527 18.3222 31.937 15.4843 31.8667C12.6463 31.7963 9.87792 30.9738 7.46191 29.4832L7.28635 29.3748L12.0061 22.3854H12.9126L16.1471 17.8929L19.4366 22.3062H22.1258L17.6176 15.8261L22.0972 9.63952H21.3025L25.7969 3.50781ZM25.8715 4.07575L22.0836 9.24357H22.8727L18.1031 15.8306L22.8836 22.7022H19.2378L16.1526 18.5628L13.1154 22.7814H12.2165L7.84614 29.2534C10.1604 30.6394 12.795 31.4039 15.4941 31.4708C18.2619 31.5395 20.9984 30.872 23.4239 29.5368C25.8494 28.2015 27.877 26.2462 29.2994 23.8708C30.7217 21.4956 31.4881 18.7855 31.5203 16.0172C31.5206 13.6982 30.9986 11.409 29.993 9.31934C29.0172 7.29136 27.6102 5.50197 25.8715 4.07575ZM24.0069 10.3661C23.4478 10.7273 23.1144 11.2486 23.0047 11.8902L23.0043 11.8929C22.9518 12.1771 22.9596 12.6002 22.9841 13.0964C22.9899 13.2151 22.9967 13.3375 23.0036 13.462C23.0203 13.765 23.0377 14.0804 23.0444 14.3852L25.3593 12.6719C25.3581 12.5406 25.3513 12.4155 25.3446 12.2903C25.3406 12.2171 25.3367 12.1438 25.3338 12.0692C25.326 11.8649 25.327 11.6543 25.3764 11.4665C25.428 11.2701 25.5339 11.0937 25.7321 10.9709C25.922 10.8531 26.1767 10.7972 26.5033 10.7918C26.9073 10.7806 27.188 10.9254 27.3527 11.1893C27.5045 11.4326 27.5372 11.747 27.5372 12.0351V13.1873C27.5372 13.5003 27.35 13.8065 27.1032 14.0911C26.8508 14.3822 26.5034 14.6869 26.1199 14.999C25.8884 15.1872 25.6436 15.3785 25.3946 15.5731C24.8067 16.0324 24.1958 16.5097 23.6841 17.0076L23.6762 17.0154C23.3341 17.3128 23.0932 17.7092 22.9874 18.1496C22.963 19.5261 22.9728 20.2276 22.981 20.8114C22.9836 20.997 22.986 21.1707 22.9871 21.3503L29.8098 21.2935V20.0334H25.7317C25.6825 20.0334 25.622 20.0217 25.5674 19.9853C25.5069 19.945 25.4545 19.8726 25.4545 19.776V18.4495L25.4559 18.4376C25.4709 18.3145 25.5414 18.184 25.6238 18.0631C25.7108 17.9354 25.8298 17.7918 25.9725 17.6379C26.2585 17.3295 26.6525 16.9661 27.1098 16.5867L27.1107 16.586C27.9024 15.9367 28.5354 15.3911 28.993 14.9112C29.4515 14.4303 29.7118 14.0374 29.7939 13.6944C29.9288 12.8936 29.9155 12.0747 29.7544 11.2787C29.6483 10.7572 28.868 9.8293 26.4428 9.80978L26.4411 9.80976C25.3776 9.79235 24.5707 10.0018 24.0069 10.3661ZM26.4468 9.41384C25.3329 9.39573 24.4415 9.61389 23.792 10.0335C23.1379 10.4561 22.7428 11.0747 22.6147 11.8223C22.5526 12.1596 22.5646 12.6288 22.5886 13.1159C22.5947 13.24 22.6017 13.3659 22.6087 13.4925C22.6298 13.8746 22.6512 14.2632 22.6512 14.6286L22.6513 14.6337C22.6526 14.6832 22.6673 14.7315 22.6939 14.7733C22.7204 14.8151 22.7579 14.8489 22.8022 14.871C22.8465 14.8932 22.8961 14.9029 22.9454 14.8991C22.9948 14.8952 23.0423 14.8781 23.0827 14.8494L25.7554 12.8713V12.7131C25.7554 12.5572 25.747 12.3982 25.7392 12.2536C25.7354 12.1833 25.7318 12.1162 25.7295 12.0541C25.7218 11.8531 25.726 11.6937 25.7593 11.5672C25.7903 11.4493 25.8445 11.3671 25.9407 11.3074C26.0449 11.2428 26.2184 11.1924 26.5109 11.1877L26.5133 11.1876C26.8055 11.1793 26.9401 11.2761 27.0168 11.3989C27.1065 11.5427 27.1412 11.7609 27.1412 12.0351V13.1873C27.1412 13.3495 27.0384 13.5615 26.804 13.8317C26.5754 14.0954 26.2507 14.3822 25.87 14.6918C25.6516 14.8695 25.4148 15.0546 25.1704 15.2455C24.5769 15.7093 23.939 16.2077 23.4119 16.72C23.0039 17.0764 22.7186 17.5524 22.5969 18.0804L22.5922 18.1006L22.5919 18.1214C22.5669 19.5181 22.5769 20.2348 22.5851 20.8234C22.5886 21.0746 22.5918 21.3025 22.5918 21.5499V21.7496L29.9168 21.6885C29.9166 21.6885 29.9169 21.6885 29.9168 21.6885C29.9173 21.6885 29.9185 21.6885 29.9193 21.6886C29.9344 21.6889 29.9948 21.6902 30.0538 21.6607C30.1209 21.6271 30.158 21.5713 30.1797 21.5333L30.2058 21.4877V19.8972L30.2049 19.8878C30.1987 19.8238 30.1705 19.7638 30.125 19.7183C30.0795 19.6728 30.0195 19.6445 29.9554 19.6384L29.946 19.6375H25.8504V18.4779C25.8569 18.4495 25.8823 18.3869 25.9511 18.286C26.0228 18.1807 26.1275 18.0531 26.2629 17.9071C26.5331 17.6157 26.913 17.2645 27.3623 16.8917C28.1541 16.2424 28.8037 15.6835 29.2795 15.1844C29.7519 14.689 30.0752 14.2303 30.1808 13.7788L30.1832 13.7668C30.3274 12.9159 30.3136 12.0458 30.1425 11.1999C29.9794 10.399 28.9385 9.43412 26.4468 9.41384Z" fill="#636562" style="fill:#636562;fill:color(display-p3 0.3882 0.3961 0.3843);fill-opacity:1;"/>
</g>
<defs>
<clipPath id="clip0_21320_2333">
<rect width="32" height="32" fill="white" style="fill:white;fill-opacity:1;"/>
</clipPath>
</defs>
</svg>
