<svg width="16" height="16" viewBox="0 0 16 16" fill="none" xmlns="http://www.w3.org/2000/svg">
<path d="M8.40567 1.31914L8.71231 1.3455C10.2378 1.51424 11.6628 2.20305 12.7445 3.30058L12.9555 3.52422C13.6035 4.24515 14.0816 5.09509 14.3666 6.01054L14.64 5.53886L14.7104 5.44218C14.8921 5.23727 15.1982 5.18087 15.4447 5.32304C15.7263 5.48579 15.8232 5.84604 15.6606 6.12773L14.5844 7.99101C14.4979 8.14077 14.3502 8.24513 14.1801 8.27617C14.0099 8.30707 13.8343 8.26182 13.7006 8.15215L11.8481 6.62968L11.7631 6.54472C11.5907 6.33184 11.5853 6.01952 11.766 5.79961C11.9468 5.57963 12.2542 5.52497 12.4965 5.65312L12.5961 5.71855L13.1938 6.20976C12.9547 5.5131 12.5776 4.86654 12.0795 4.3123L11.9057 4.12773C11.0143 3.22331 9.83952 2.65637 8.58243 2.51738L8.33047 2.49492C7.06329 2.41344 5.80927 2.77164 4.77872 3.50468L4.57559 3.65605C3.57576 4.43882 2.87908 5.54117 2.59805 6.77422L2.54727 7.02226C2.30732 8.35514 2.56573 9.73015 3.27383 10.8846L3.41153 11.0984C4.1217 12.1447 5.1722 12.9174 6.38809 13.283L6.63223 13.3504C7.85879 13.6585 9.15721 13.5365 10.308 12.9998L10.5356 12.8875C11.6558 12.3009 12.5429 11.345 13.0443 10.1785L13.1029 10.074C13.2595 9.84944 13.5574 9.75757 13.8188 9.86992C14.1174 9.99855 14.2558 10.3455 14.1273 10.6443L13.9994 10.9236C13.3739 12.2125 12.3507 13.267 11.0815 13.9314L10.8061 14.0672C9.40943 14.7185 7.83369 14.8669 6.34512 14.493L6.04825 14.4119C4.57269 13.9682 3.29871 13.0293 2.43692 11.7596L2.26993 11.5008C1.41052 10.0998 1.09603 8.4318 1.38712 6.81425L1.44864 6.5125C1.78965 5.01598 2.63558 3.67833 3.84903 2.72832L4.0961 2.54472C5.34667 1.65522 6.86797 1.22032 8.40567 1.31914ZM7.65176 8.26543C7.70326 8.26543 7.74545 8.30672 7.74551 8.3582V11.0115C7.74534 11.0629 7.70319 11.1043 7.65176 11.1043H6.40762C6.36348 11.1043 6.31975 11.1018 6.27676 11.0975C5.90711 11.0623 5.60471 10.8896 5.40372 10.615C5.23473 10.3989 5.13419 10.1265 5.13419 9.83086V9.80937C5.13193 9.77095 5.13028 9.73186 5.13028 9.69218V8.35918C5.13026 8.30751 5.17238 8.26551 5.22403 8.26543H7.65176ZM10.7592 8.26543C10.8105 8.26554 10.8518 8.30684 10.852 8.3582L10.8568 9.83086C10.8568 10.1577 10.733 10.456 10.5307 10.6814C10.3417 10.9049 10.0784 11.0496 9.76309 11.0916C9.70438 11.0999 9.64441 11.1043 9.5834 11.1043H8.33633C8.28507 11.1041 8.24373 11.0628 8.24356 11.0115V8.3582C8.24363 8.30684 8.28501 8.26562 8.33633 8.26543H10.7592ZM9.15762 4.89629C9.64871 4.89629 10.0461 5.3067 10.0463 5.80742C10.0463 6.00874 9.98213 6.19614 9.87344 6.34746C10.4971 6.48357 10.805 7.03032 10.851 7.61894V7.67558C10.8509 7.72706 10.8087 7.76834 10.7572 7.76836H5.22598C5.17342 7.76836 5.13048 7.72514 5.13321 7.67265C5.13414 7.65474 5.13492 7.63682 5.13614 7.61894C5.18204 7.03066 5.48956 6.48397 6.1127 6.34746C6.00352 6.19611 5.93887 6.00882 5.93887 5.80742C5.93911 5.3067 6.3397 4.8963 6.82755 4.89629C7.42865 4.89629 7.78767 5.33645 7.99454 5.74687C8.20137 5.33645 8.55979 4.89629 9.15762 4.89629ZM6.82755 5.38164C6.6047 5.38165 6.42348 5.57171 6.42325 5.80742C6.42325 6.04333 6.60456 6.23417 6.82755 6.23418H7.6713C7.55492 5.89484 7.29607 5.38164 6.82755 5.38164ZM9.15762 5.38164C8.69557 5.38165 8.43347 5.89484 8.31387 6.23418H9.15762C9.38062 6.23418 9.56192 6.04334 9.56192 5.80742C9.56169 5.57171 9.38047 5.38164 9.15762 5.38164Z" fill="#D0D0D0"/>
</svg>
