<svg width="32" height="32" viewBox="0 0 32 32" fill="none" xmlns="http://www.w3.org/2000/svg">
<path d="M3.65375 3.61621L3.45245 5.16C3.18405 7.17363 4.72734 8.91881 6.74031 8.91881H26.5346L3.51955 16.5035C2.31176 16.9062 1.50657 17.9131 1.30528 19.1212L0.365887 25.2293L0.0303911 27.4443C-0.238006 29.4579 1.30528 31.2031 3.31825 31.2031H25.1255C26.7359 31.2031 28.145 29.9949 28.4134 28.384L28.6147 26.8402C28.8831 24.8266 27.3398 23.0814 25.3268 23.0814H6.87451L28.4134 15.9666C29.6212 15.5638 30.4263 14.557 30.6276 13.3488L31.567 7.24076L31.9696 4.55591C32.238 2.54227 30.6947 0.797119 28.6818 0.797119H6.87451C5.26413 0.797119 3.85505 2.0053 3.65375 3.61621Z" fill="#F9B233" style="fill:#F9B233;fill:color(display-p3 0.9765 0.6980 0.2000);fill-opacity:1;"/>
</svg>
