<svg width="32" height="32" viewBox="0 0 32 32" fill="none" xmlns="http://www.w3.org/2000/svg">
<g clip-path="url(#clip0_21320_2072)">
<path d="M0 4.43792V11.0389C0 11.6416 0.396394 12.0955 0.779563 12.3351C1.41438 12.7321 1.81631 12.6164 2.61547 12.6164H6.80851C5.59947 16.0352 4.39363 19.4515 3.20198 22.8761C2.95781 23.5513 1.61909 27.1692 1.61909 27.645C1.61909 28.5925 2.78087 29.1396 3.36274 29.1396H11.7073C12.3866 29.1396 13.045 28.2419 13.0774 27.8526L20.052 8.42341C20.072 8.18219 21.0096 5.69096 21.1162 5.37766C21.2965 4.84791 21.4933 4.33106 21.2396 3.74851C21.0498 3.31286 20.4663 2.86035 20.052 2.86035H1.70213C0.716333 2.86035 0 3.4703 0 4.43792Z" fill="#1F1F1E" style="fill:#1F1F1E;fill:color(display-p3 0.1216 0.1216 0.1176);fill-opacity:1;"/>
<path fill-rule="evenodd" clip-rule="evenodd" d="M1.54144 4.33008L1.58296 10.931H8.9727L3.2021 27.5371H11.5051L19.7252 4.33008H1.54144Z" fill="#E50A7E" style="fill:#E50A7E;fill:color(display-p3 0.8980 0.0392 0.4941);fill-opacity:1;"/>
<path fill-rule="evenodd" clip-rule="evenodd" d="M11.4425 9.69151V22.0344C10.9813 22.0344 10.5367 22.1184 10.2227 22.3991C9.98797 22.6089 9.77451 22.8984 9.77451 23.327V26.6629C9.77451 27.333 10.5436 27.8305 11.2757 27.8305H13.2355C13.9811 27.8305 14.8593 27.3223 15.4039 26.9132C15.501 26.8402 15.5884 26.7807 15.6851 26.6939C15.7832 26.6057 15.8853 26.523 15.9877 26.4544C16.1183 26.542 16.3743 26.7945 16.713 27.0218C16.9969 27.2124 17.2553 27.3382 17.5898 27.4793C18.2138 27.7427 18.8566 27.8864 19.4995 27.9139H19.9569C20.7318 27.8809 21.5002 27.6798 22.2291 27.3167C22.4412 27.2111 22.679 26.9988 22.8679 26.9549C22.9529 27.3195 23.5339 27.8305 23.9938 27.8305H28.7475C29.5853 27.8305 30.5218 27.2869 31.0728 26.6948C31.551 26.1808 32 25.1442 32 24.161V24.1259V23.9539C31.9992 23.2996 31.9838 22.7632 31.7441 22.1236C31.579 21.6832 31.3679 21.4389 31.3782 21.2506C31.3846 21.1313 31.4163 21.0625 31.4163 20.8668V18.1981C31.4163 17.6371 30.7984 17.1914 30.4155 16.9888C30.5262 16.7795 30.6767 16.6277 30.7914 16.4057C31.5731 14.8914 31.6589 12.967 30.9025 11.4563C30.6087 10.8696 30.3081 10.3571 29.8429 9.88878C28.9326 8.97249 27.4996 8.35716 26.1622 8.35716C25.3067 8.35716 25.1365 8.32887 24.2855 8.5654C23.7923 8.7025 23.4019 8.96943 23.2433 8.98266C23.1781 8.73854 22.6294 8.31543 22.2842 8.31543H18.8649C18.7211 8.31543 18.4771 8.39542 18.3808 8.4568C18.2379 8.5479 17.9049 9.02291 17.7753 9.18567C17.6506 9.34211 17.5788 9.48954 17.4471 9.52474L16.9346 8.78622C16.768 8.58869 16.4539 8.31543 16.1128 8.31543H12.8603C12.455 8.31543 12.1039 8.5253 11.8987 8.73C11.7317 8.89666 11.4425 9.36772 11.4425 9.69151Z" fill="#1F1B20" style="fill:#1F1B20;fill:color(display-p3 0.1216 0.1059 0.1255);fill-opacity:1;"/>
<path fill-rule="evenodd" clip-rule="evenodd" d="M20.9652 22.4214C20.9652 23.6589 19.2696 23.9312 18.8417 22.8843C18.4347 21.8885 19.4081 21.0386 20.2793 21.4052C20.6377 21.5561 20.9652 21.9361 20.9652 22.4214ZM15.9418 21.9648L15.9003 18.4775H13.1187V22.463C13.1187 23.7618 12.4915 23.5424 11.3751 23.5424V26.4069C12.7581 26.4069 13.1226 26.5568 14.2126 26.0063C14.3841 25.9197 14.5524 25.8109 14.6858 25.6907L15.1023 25.2768C15.6145 24.6914 15.9003 23.9209 15.9003 22.8366H15.9418C15.9418 23.7318 16.4186 24.4225 16.9141 25.0609C16.9844 25.1514 17.0529 25.2236 17.1356 25.2961C18.9938 26.9241 21.6659 26.6532 23.0235 24.7704C23.169 24.5686 23.2725 24.4096 23.3874 24.1794C24.2734 22.4037 23.7354 20.5863 22.366 19.36C21.335 18.4366 19.6926 18.1998 18.3962 18.7316C17.9963 18.8956 17.5093 19.1697 17.2178 19.4629C16.8733 19.8093 16.6353 20.0487 16.3851 20.4984C16.1947 20.8407 15.9418 21.457 15.9418 21.9648Z" fill="url(#paint0_linear_21320_2072)" style=""/>
<path fill-rule="evenodd" clip-rule="evenodd" d="M13.1188 17.8552H15.9003V13.9528L17.3947 15.8626C17.63 16.1835 17.5686 16.178 17.8281 15.839L19.2215 14.0358V17.8552H22.0031V9.92578H19.2215C19.1926 10.0341 17.7223 12.0383 17.6024 12.1261C17.5351 12.0768 15.9761 10.0544 15.9418 9.92578H13.1188V17.8552Z" fill="url(#paint1_linear_21320_2072)" style=""/>
<path fill-rule="evenodd" clip-rule="evenodd" d="M27.151 13.8686C27.151 15.106 25.4554 15.3783 25.0275 14.3314C24.6205 13.3356 25.5939 12.4856 26.4651 12.8523C26.8235 13.0031 27.151 13.3832 27.151 13.8686ZM22.086 13.744C22.086 15.4279 22.9146 16.7226 24.3688 17.4395C25.8224 18.1561 27.6895 17.8058 28.7806 16.7022C29.1222 16.3567 29.3467 16.0803 29.5732 15.6265C30.5844 13.5999 29.6614 11.0487 27.5726 10.2087C26.5553 9.79954 25.3852 9.77483 24.4103 10.2561C23.0775 10.9141 22.086 12.1565 22.086 13.744Z" fill="url(#paint2_linear_21320_2072)" style=""/>
<path fill-rule="evenodd" clip-rule="evenodd" d="M23.672 20.5118C23.672 21.2394 23.6588 21.7618 23.9503 22.4338C24.4519 23.5899 25.2217 23.5425 26.1629 23.5425C26.5967 23.5425 27.5329 23.4033 27.5329 23.833C27.5329 24.0419 27.29 24.1236 27.0763 24.1236H24.2532V26.3655H28.5293C30.5392 26.3655 30.8368 23.61 30.0934 22.2273C29.5511 21.2185 28.7766 21.3006 27.865 21.3006C27.441 21.3006 26.5781 21.4309 26.5781 21.01C26.5781 20.8012 26.821 20.7194 27.0347 20.7194H29.8578V18.4775H25.5817C24.5457 18.4775 23.672 19.4954 23.672 20.5118Z" fill="url(#paint3_linear_21320_2072)" style=""/>
</g>
<defs>
<linearGradient id="paint0_linear_21320_2072" x1="11.3751" y1="22.4388" x2="23.8207" y2="22.4388" gradientUnits="userSpaceOnUse">
<stop stop-color="#FDE610" style="stop-color:#FDE610;stop-color:color(display-p3 0.9922 0.9020 0.0627);stop-opacity:1;"/>
<stop offset="1" stop-color="#E7432E" style="stop-color:#E7432E;stop-color:color(display-p3 0.9059 0.2627 0.1804);stop-opacity:1;"/>
</linearGradient>
<linearGradient id="paint1_linear_21320_2072" x1="13.1188" y1="13.8905" x2="22.0031" y2="13.8905" gradientUnits="userSpaceOnUse">
<stop stop-color="#FDE610" style="stop-color:#FDE610;stop-color:color(display-p3 0.9922 0.9020 0.0627);stop-opacity:1;"/>
<stop offset="1" stop-color="#E7432E" style="stop-color:#E7432E;stop-color:color(display-p3 0.9059 0.2627 0.1804);stop-opacity:1;"/>
</linearGradient>
<linearGradient id="paint2_linear_21320_2072" x1="22.0861" y1="13.8559" x2="29.9846" y2="13.8559" gradientUnits="userSpaceOnUse">
<stop stop-color="#FDE610" style="stop-color:#FDE610;stop-color:color(display-p3 0.9922 0.9020 0.0627);stop-opacity:1;"/>
<stop offset="1" stop-color="#E7432E" style="stop-color:#E7432E;stop-color:color(display-p3 0.9059 0.2627 0.1804);stop-opacity:1;"/>
</linearGradient>
<linearGradient id="paint3_linear_21320_2072" x1="23.6719" y1="22.4215" x2="30.4653" y2="22.4215" gradientUnits="userSpaceOnUse">
<stop stop-color="#FDE610" style="stop-color:#FDE610;stop-color:color(display-p3 0.9922 0.9020 0.0627);stop-opacity:1;"/>
<stop offset="1" stop-color="#E7432E" style="stop-color:#E7432E;stop-color:color(display-p3 0.9059 0.2627 0.1804);stop-opacity:1;"/>
</linearGradient>
<clipPath id="clip0_21320_2072">
<rect width="32" height="32" fill="white" style="fill:white;fill-opacity:1;"/>
</clipPath>
</defs>
</svg>
