<svg width="32" height="32" viewBox="0 0 32 32" fill="none" xmlns="http://www.w3.org/2000/svg">
<g clip-path="url(#clip0_21320_2106)">
<path d="M24.8697 0.000130617H7.12353C6.5595 0.000130617 6.01856 0.224193 5.61973 0.623027C5.2209 1.02186 4.99683 1.56279 4.99683 2.12683V29.8734C4.99683 30.1527 5.05184 30.4292 5.15872 30.6873C5.2656 30.9453 5.42225 31.1797 5.61973 31.3772C5.81721 31.5747 6.05166 31.7314 6.30968 31.8382C6.5677 31.9451 6.84425 32.0001 7.12353 32.0001H24.8697C25.1494 32.0009 25.4266 31.9465 25.6854 31.84C25.9441 31.7334 26.1792 31.5769 26.3774 31.3794C26.5755 31.1818 26.7327 30.9471 26.8399 30.6887C26.9472 30.4302 27.0024 30.1532 27.0024 29.8734V2.12683C27.0024 1.84704 26.9472 1.57 26.8399 1.31158C26.7327 1.05317 26.5755 0.818453 26.3774 0.620891C26.1792 0.42333 25.9441 0.266804 25.6854 0.160282C25.4266 0.0537609 25.1494 -0.000662552 24.8697 0.000130617ZM23.2675 17.071C23.2679 18.2222 22.898 19.3431 22.2124 20.2678L19.3653 24.1052L22.6661 27.1589C22.7355 27.2239 22.7838 27.3082 22.8048 27.4009C22.8257 27.4937 22.8184 27.5906 22.7836 27.6791C22.7489 27.7676 22.6883 27.8436 22.6099 27.8973C22.5314 27.9511 22.4386 27.98 22.3435 27.9803H18.1851C17.9471 27.9816 17.7174 27.8934 17.5415 27.7331L17.0306 27.2599L16.6206 26.8801L15.9996 26.2998L14.4426 24.8694C14.3574 24.7898 14.3043 24.6817 14.2935 24.5656C14.2827 24.4495 14.3148 24.3334 14.3839 24.2394L18.794 18.2934C19.279 17.6394 19.5406 16.8467 19.5401 16.0325V11.033C19.5401 9.42785 18.9236 8.74055 18.6915 8.55818C18.4232 8.35018 17.855 7.85279 15.9996 7.85279C14.1442 7.85279 13.573 8.35018 13.3047 8.55818C13.0696 8.74206 12.4531 9.42785 12.4531 11.033V16.3295C12.4531 16.7646 12.5431 17.1949 12.7174 17.5936C12.8917 17.9923 13.1466 18.3506 13.466 18.6461L14.9445 20.0146C15.0312 20.0943 15.0853 20.2032 15.0965 20.3203C15.1076 20.4375 15.075 20.5546 15.0048 20.6492L13.2353 23.0291C13.1958 23.0824 13.1455 23.1269 13.0877 23.1595C13.0298 23.1921 12.9658 23.2122 12.8997 23.2185C12.8336 23.2247 12.7669 23.217 12.704 23.1958C12.6411 23.1746 12.5833 23.1404 12.5345 23.0954L10.447 21.1631C9.90419 20.6607 9.4711 20.0515 9.1749 19.3738C8.8787 18.696 8.72577 17.9644 8.72572 17.2247V9.42936C8.72572 7.1866 9.40699 6.17374 10.1907 5.48494C11.0785 4.70419 12.6656 4.0184 15.9966 4.0184C19.3276 4.0184 20.9147 4.70419 21.8024 5.48494C22.5862 6.17374 23.2675 7.1866 23.2675 9.42936V17.071Z" fill="#FF7800" style="fill:#FF7800;fill:color(display-p3 1.0000 0.4706 0.0000);fill-opacity:1;"/>
</g>
<defs>
<clipPath id="clip0_21320_2106">
<rect width="32" height="32" fill="white" style="fill:white;fill-opacity:1;"/>
</clipPath>
</defs>
</svg>
