<svg width="32" height="32" viewBox="0 0 32 32" fill="none" xmlns="http://www.w3.org/2000/svg">
<path d="M21.3995 0.563788C28.6125 -0.638396 34.1726 6.19902 31.1671 12.811L25.2314 26.4859C22.4514 32.6471 14.2617 33.3233 10.0541 27.9135L1.93944 17.3944C-2.26815 11.9094 0.73727 4.02006 7.42433 2.89302L21.3995 0.563788Z" fill="#069BE8" style="fill:#069BE8;fill:color(display-p3 0.0235 0.6078 0.9098);fill-opacity:1;"/>
<path d="M17.8694 22.6544C16.2915 22.6544 14.9391 22.3539 13.6618 21.6777C12.3845 21.0014 11.4077 20.0247 10.7315 18.8976C10.0553 17.6954 9.67959 16.343 9.67959 14.8403C9.67959 13.3375 10.0553 11.9851 10.7315 10.7829C11.4828 9.5807 12.4596 8.67907 13.6618 8.00284C14.9391 7.32661 16.3666 6.95093 17.8694 6.95093C19.1467 6.95093 20.3488 7.17634 21.4007 7.62716C22.4526 8.07797 23.3542 8.7542 24.1056 9.65584L21.8515 11.7597C20.7996 10.5575 19.5223 9.95639 18.0196 9.95639C17.118 9.95639 16.2164 10.1818 15.465 10.5575C14.7137 10.9332 14.1877 11.5343 13.7369 12.2856C13.3612 13.037 13.1358 13.8635 13.1358 14.8403C13.1358 15.817 13.4364 16.4933 13.812 17.2446C14.2629 17.996 14.7888 18.5971 15.5402 18.9728C16.2915 19.3484 17.118 19.5739 18.0948 19.5739C19.5975 19.5739 20.8748 18.9728 21.9267 17.7706L24.1807 19.8744C23.4294 20.776 22.5278 21.4523 21.4759 21.9031C20.3488 22.429 19.1467 22.6544 17.8694 22.6544Z" fill="white" style="fill:white;fill-opacity:1;"/>
</svg>
