<svg width="32" height="32" viewBox="0 0 32 32" fill="none" xmlns="http://www.w3.org/2000/svg">
<g clip-path="url(#clip0_21320_2165)">
<path d="M19.9464 28.1995C20.0831 28.0016 20.1686 27.7689 20.195 27.5304C20.2187 27.3146 20.224 27.0988 20.4615 27.0059C20.852 26.8529 21.2583 27.0645 21.5585 27.3088C21.712 27.4333 22.3078 28.1668 22.3078 28.1668C22.1648 26.1147 20.1042 24.2504 16.9377 24.0752C16.6042 24.0568 16.3124 24.0478 16.0006 24.0483C15.6887 24.0478 15.3969 24.0568 15.0634 24.0752C11.8969 24.2499 9.83626 26.1147 9.69328 28.1668C9.69328 28.1668 10.289 27.4333 10.4426 27.3088C10.7428 27.065 11.1492 26.8529 11.5396 27.0059C11.777 27.0988 11.7823 27.3146 11.8061 27.5304C11.8325 27.7695 11.918 28.0016 12.0546 28.1995C12.3865 28.6802 12.9749 28.8465 13.5099 28.9937C14.0423 29.1398 14.6396 29.2015 15.171 29.0148C15.3742 28.9436 15.5657 28.8327 15.7156 28.6765C15.7858 28.6032 15.9262 28.4449 16.0006 28.4449C16.075 28.4449 16.2153 28.6032 16.2855 28.6765C16.4353 28.8327 16.6269 28.943 16.8301 29.0148C17.3609 29.201 17.9587 29.1398 18.4912 28.9937C19.0262 28.8465 19.6151 28.6802 19.9464 28.1995Z" fill="#D71920" style="fill:#D71920;fill:color(display-p3 0.8431 0.0980 0.1255);fill-opacity:1;"/>
<path d="M31.0561 15.5665C31.0561 15.5681 30.9184 17.4524 30.8334 18.4587C30.6171 21.0152 30.0799 23.5518 28.2156 25.4129C27.6194 26.0081 26.7445 26.14 26.7445 26.14C27.3434 24.8942 28.0241 23.6794 28.5185 22.3935C29.0129 21.1087 29.3269 19.7546 29.7174 18.4296C29.7174 18.4296 28.4061 18.8993 28.1169 18.9726C28.137 18.721 29.4757 13.7345 29.4763 13.7318C29.4087 13.8089 27.1919 18.54 27.1091 18.722C27.0716 18.8038 27.0922 18.9008 27.1608 18.9589C28.0895 19.7409 27.7798 21.1688 27.3862 21.6332C26.8199 22.3012 26.125 22.9265 25.6722 23.9871C25.4876 24.4198 25.1457 25.6746 25.1457 25.6751C25.0575 25.643 24.9235 22.8922 25.762 21.6944C26.1846 21.0907 26.1873 19.4528 25.5831 19.1442C24.9594 18.8249 24.8718 18.4829 25.2887 17.8899C25.2823 17.8766 25.2812 17.8735 25.2749 17.8603C23.3526 17.684 23.9668 15.7306 22.5147 15.6568C22.8962 15.3845 23.3532 15.4779 23.7568 15.699C24.1663 15.9232 24.1452 15.9306 24.4011 16.3026C24.5251 16.4831 25.0359 16.8234 25.266 16.8752C27.0886 17.2846 26.9086 15.4399 26.9086 15.4393C25.9889 15.3871 25.2121 15.0193 25.153 14.3977C25.6775 14.356 26.3134 14.4822 26.6902 14.2262C27.0353 13.9919 27.2885 13.3498 27.2891 12.8796C26.6587 13.1638 26.1895 13.1785 25.8817 12.9234C27.3217 11.4559 28.5702 7.85566 28.5212 6.68052C29.0868 7.15861 29.195 7.58603 29.3301 7.87729C30.3147 7.47731 31.0651 7.35225 30.9258 5.97243L29.8356 6.53331C29.8995 6.36712 29.9739 6.2035 30.0582 6.04736C30.1992 5.7856 30.4181 5.61517 30.6176 5.4009C31.0318 4.95661 31.4851 4.37567 31.674 3.79945C31.799 3.41741 31.8771 3.02061 31.9246 2.62168C31.9737 2.21169 32.0349 1.75736 31.9726 1.34683C31.8671 0.646081 31.3294 -0.027224 30.4804 0.110494C30.0282 0.183843 29.6261 0.407046 29.2129 0.584344C28.7507 0.783276 28.2816 0.971659 27.8088 1.14631C27.3403 1.31939 26.8622 1.45923 26.3894 1.61541C25.8696 1.78691 23.4608 1.95682 22.93 2.01908L24.9684 2.3436C25.114 2.36682 25.2628 2.35785 25.4047 2.31775C25.878 2.18266 27.0015 1.86711 27.4373 1.77266C27.946 1.66238 29.3222 1.41542 29.7918 2.10562C29.5037 2.69661 28.5206 3.10028 28.4235 3.24961C28.4188 3.257 28.4135 3.26439 28.4088 3.27178C29.1855 3.05754 29.5316 3.23009 29.5316 3.23009C28.9549 3.76831 28.6694 4.28174 28.3206 5.01732C27.9191 5.86529 27.7323 7.03514 27.3713 7.89785C27.05 8.66508 26.6411 9.39698 26.1593 10.0751C25.6474 10.7953 25.047 11.3066 24.3552 11.7076C25.0132 10.9995 25.6538 10.0391 26.0221 9.34368C27.2104 7.09948 27.2822 4.63475 27.469 3.8654C26.9249 4.10286 25.7862 3.97305 25.7852 3.97305C25.7862 3.97305 27.6342 3.11981 28.1676 2.84067C27.8853 2.67867 27.6326 2.58686 27.3883 2.56153C26.1756 2.437 25.7187 2.81851 24.9346 2.93037C24.5319 2.98789 21.6683 2.00748 21.0842 1.87714C21.0842 1.87714 21.1032 1.87872 21.1364 1.88083C20.6605 1.77055 20.184 1.66343 19.7059 1.56423C19.6426 1.55104 19.5792 1.53732 19.5159 1.5236C19.089 1.45975 18.6611 1.40171 18.2316 1.3558C17.6611 1.29512 16.61 1.24499 16.1842 1.22652C16.0597 1.22124 15.9362 1.22124 15.8122 1.22652C15.3869 1.24499 14.3353 1.29512 13.7649 1.3558C13.3353 1.40118 12.9074 1.45975 12.4805 1.5236C12.4172 1.53785 12.3538 1.55157 12.2905 1.56423C11.8119 1.66343 11.3354 1.77002 10.86 1.88083C10.8927 1.87872 10.9122 1.87714 10.9122 1.87714C10.3281 2.00748 7.46446 2.98789 7.06184 2.93037C6.27769 2.81851 5.82077 2.43647 4.60816 2.56153C4.36437 2.58686 4.11109 2.67814 3.82879 2.84067C4.36226 3.11981 6.21122 3.97305 6.21122 3.97305C6.21122 3.97305 5.072 4.10286 4.52743 3.8654C4.71421 4.63422 4.78597 7.09948 5.97433 9.34368C6.34263 10.0391 6.9832 10.9995 7.64124 11.7076C6.94941 11.3061 6.34898 10.7953 5.8371 10.0751C5.35531 9.39698 4.94641 8.66561 4.62504 7.89785C4.26359 7.03514 4.07732 5.86529 3.67577 5.01732C3.3275 4.28174 3.0415 3.76779 2.46476 3.23009C2.46476 3.23009 2.81091 3.05701 3.58764 3.27178C3.58289 3.26439 3.57762 3.257 3.57287 3.24961C3.47631 3.10081 2.49326 2.69661 2.20461 2.10562C2.67425 1.41542 4.04988 1.66238 4.55909 1.77266C4.99442 1.86711 6.11837 2.18319 6.59169 2.31775C6.73361 2.35838 6.88242 2.36682 7.02804 2.3436L9.06643 2.01908C8.53564 1.95682 6.12624 1.78691 5.60702 1.61541C5.13423 1.45923 4.65618 1.31939 4.1876 1.14631C3.71481 0.971659 3.24571 0.782747 2.78347 0.584344C2.37347 0.407046 1.97139 0.183843 1.51865 0.109971C0.670151 -0.0277529 0.132455 0.645558 0.0269182 1.3463C-0.034818 1.75683 0.0258666 2.21116 0.0749381 2.62116C0.122958 3.02008 0.20052 3.41636 0.32558 3.79892C0.514485 4.37566 0.967755 4.95608 1.38198 5.40037C1.58144 5.61464 1.80042 5.78507 1.94131 6.04683C2.02573 6.2035 2.10014 6.36659 2.16399 6.53278L1.07382 5.9719C0.934516 7.35172 1.68486 7.47731 2.6695 7.87676C2.80405 7.5855 2.91275 7.15808 3.47842 6.68C3.42934 7.85513 4.67781 11.4554 6.11784 12.9229C5.80999 13.1783 5.3409 13.1636 4.71051 12.8791C4.71051 13.3492 4.96433 13.9914 5.30942 14.2257C5.68618 14.4816 6.32206 14.3555 6.84657 14.3972C6.78745 15.0188 6.0107 15.386 5.09098 15.4388C5.09098 15.4388 4.91103 17.2841 6.73361 16.8746C6.96369 16.8229 7.47445 16.4825 7.59845 16.3021C7.85439 15.9301 7.83329 15.9227 8.24273 15.6984C8.64641 15.4779 9.1034 15.384 9.48492 15.6562C8.03275 15.7301 8.64694 17.6835 6.72462 17.8598C6.71834 17.873 6.71728 17.8761 6.71093 17.8893C7.12777 18.4824 7.04021 18.8243 6.4165 19.1436C5.8123 19.4528 5.81495 21.0902 6.23761 21.6938C7.07659 22.8916 6.94207 25.6424 6.85391 25.6746C6.85391 25.6746 6.512 24.4193 6.32729 23.9866C5.8746 22.9265 5.1796 22.3012 4.61343 21.6326C4.21979 21.1683 3.91005 19.7404 4.83874 18.9584C4.90732 18.9003 4.92796 18.8038 4.89046 18.7215C4.80759 18.5394 2.59035 13.8078 2.52333 13.7313C2.52333 13.7313 3.86308 18.7204 3.88261 18.9721C3.59345 18.8982 2.28218 18.4291 2.28218 18.4291C2.67266 19.7541 2.98662 21.1081 3.48105 22.393C3.97601 23.6789 4.65618 24.8937 5.25506 26.1395C5.25506 26.1395 4.38021 26.0081 3.78394 25.4123C1.91968 23.5513 1.38251 21.0142 1.16616 18.4581C1.08121 17.4514 0.943484 15.566 0.943484 15.566C0.693894 16.5179 0.392593 17.2181 0.245372 18.1758C0.0269183 19.5963 -0.150381 20.1087 0.189972 22.0537C0.221101 22.231 0.363574 22.8036 0.463304 22.9592C1.73182 24.9422 4.44669 28.858 4.44669 28.858L4.59022 27.6111C4.74166 27.9473 6.52939 31.9069 6.52939 31.9069C6.52939 30.9634 6.0482 28.3784 7.06342 27.9367C7.3974 27.7916 7.86709 28.1409 7.8739 28.5926C7.88131 29.1055 7.87813 30.2526 7.87813 30.2526C8.62955 29.8316 8.92715 29.6052 9.3018 29.4379C9.8812 29.1794 11.0141 28.9462 12.2251 29.2633C12.2119 29.2538 12.195 29.2422 12.175 29.2295C11.3893 28.7134 10.4215 28.5493 9.50867 28.7726C9.33453 28.8153 9.16404 28.8528 9.00049 28.8755C8.81578 28.9013 8.66486 28.7304 8.71658 28.5509C8.89653 27.9262 9.24691 26.7035 9.37091 26.2244C9.55139 25.5268 9.4627 24.8657 9.37884 24.1617C9.17409 23.4921 8.77729 22.9508 8.00954 22.8004C7.74256 22.7481 7.69348 22.3956 7.6544 22.1788C7.58952 21.8157 7.53516 21.4559 7.5214 21.0865C7.48979 20.2311 7.63595 19.3467 7.99472 18.5595C8.17468 18.1642 8.40846 17.7933 8.69495 17.4667C8.9952 17.1242 9.34664 16.8989 9.70548 16.6303C9.72711 16.6139 9.74767 16.5955 9.76771 16.5776C10.0759 16.3058 10.0706 16.0235 10.0838 15.6425C10.1091 14.899 10.6859 14.6099 11.3586 14.4595C11.2093 14.5787 11.0584 14.7312 10.9518 14.919C10.8679 15.0663 10.8684 15.7886 10.8558 15.9723C10.8046 16.6889 10.6954 16.8851 9.60258 17.2013C10.5519 17.9711 11.2568 18.5421 12.1101 19.2338C10.736 19.5636 10.1508 18.5584 9.3018 18.0033C9.36985 19.6349 10.9676 19.761 11.8045 20.5826C11.7607 20.6633 10.2532 20.4949 9.04057 20.0707C9.57619 21.2026 10.5186 21.0089 11.3017 21.3102C10.9418 21.6632 10.1851 21.6231 9.64212 21.7244C9.44848 21.7603 9.28963 21.7092 9.10287 21.7825C9.22793 21.9709 9.31284 22.2199 9.48651 22.3365C9.93497 22.6373 10.4036 22.9276 10.9028 23.1249C11.1613 23.2273 11.527 23.1967 11.7998 23.1006C12.8958 22.7133 13.9796 22.2911 15.1489 21.8447C15.4375 21.7345 15.6318 21.4606 15.6402 21.1514C15.6518 20.7218 15.6623 20.2496 15.6006 19.7868C15.5684 19.5451 15.2339 19.2423 14.9727 19.1499C13.7759 18.7257 12.4836 17.8466 12.1153 17.0382C11.8372 16.4277 11.9285 14.6352 11.9206 14.3619C11.9154 14.175 11.8119 13.4406 11.4716 12.8733C11.2811 12.5883 10.9719 12.3725 10.7677 12.2517C10.3825 12.0237 9.94343 11.8876 9.51601 11.7535C7.68132 11.1794 6.86978 9.9252 6.23179 8.64504C6.08034 8.34162 5.88406 7.73748 5.74954 7.24147C5.67673 6.97337 5.8461 6.70056 6.11837 6.64673C6.23179 6.95068 6.27663 7.17071 6.42702 7.49523C6.67714 8.03508 7.03386 8.34214 7.71723 8.34691C9.2395 8.35749 10.7054 8.61283 11.5381 10.1901C11.7343 10.5621 11.9813 10.9378 12.2762 11.2718C11.8072 10.9151 11.527 10.3927 10.8653 9.74524C10.0004 8.89939 8.92556 8.8361 8.36779 8.83081C7.57841 8.82287 7.17473 8.63082 7.17473 8.63082C7.44389 9.13053 7.90346 9.188 8.67386 9.28409C8.76935 9.29619 8.86855 9.31729 8.97093 9.34685C8.7636 9.79432 8.79204 10.3457 9.1319 10.7241C9.46905 11.0998 10.0506 11.2201 10.4743 10.9161C10.6167 10.8138 10.7292 10.6802 10.7988 10.5257C10.9887 10.705 11.1782 10.8998 11.3645 11.1093C12.2868 12.1472 13.4978 12.1857 13.4978 12.1857C13.4978 12.1857 13.329 11.2866 13.2298 10.8259C13.9374 10.5373 13.5727 10.0999 13.196 9.69353C12.682 9.14051 12.1618 8.59385 11.6177 8.01657C12.1665 7.85989 12.5692 7.5818 12.8388 7.34173C12.8388 7.34173 11.5554 7.61454 10.3761 7.52585C10.2025 7.51269 9.97088 7.39233 9.86057 7.25781L9.8564 7.25252C10.7223 7.09525 12.0183 6.58079 12.4504 6.32909C10.9344 5.39937 9.07913 5.8848 7.82694 5.29488C8.88443 5.23682 9.69437 5.13127 10.7835 4.83843C11.7095 4.58937 13.5147 3.85116 13.4957 3.74562H9.58935C10.8178 3.1921 11.9027 2.39426 13.3242 2.42275C13.9105 2.43436 14.7025 2.54517 15.4017 2.61483C15.7304 2.64754 16.2686 2.64754 16.5974 2.61483C17.2965 2.54517 18.088 2.43436 18.6748 2.42275C20.0963 2.39426 21.1813 3.1921 22.4096 3.74562H18.5033C18.4838 3.85116 20.2895 4.58937 21.2155 4.83843C22.3047 5.13127 23.1146 5.23682 24.1721 5.29488C22.9199 5.88533 21.0647 5.3999 19.5486 6.32909C19.9808 6.58079 21.2762 7.09578 22.1427 7.25252L22.1384 7.25781C22.0282 7.39233 21.796 7.51269 21.6229 7.52585C20.4441 7.61507 19.1608 7.34226 19.1603 7.34173C19.4299 7.58127 19.832 7.85989 20.3813 8.01657C19.8373 8.59385 19.317 9.14051 18.803 9.69353C18.4257 10.0993 18.0617 10.5373 18.7693 10.8259C18.6701 11.286 18.5012 12.1857 18.5012 12.1857C18.5012 12.1857 19.7122 12.1472 20.6346 11.1093C20.8208 10.8998 21.0103 10.705 21.2002 10.5257C21.2699 10.6802 21.3823 10.8138 21.5248 10.9161C21.9485 11.2201 22.53 11.0998 22.8672 10.7241C23.207 10.3457 23.2355 9.79432 23.0281 9.34685C23.1305 9.31676 23.2297 9.29567 23.3252 9.28409C24.0956 9.188 24.5552 9.13053 24.8243 8.63082C24.8243 8.63082 24.4201 8.82287 23.6312 8.83081C23.0735 8.83656 21.9986 8.89992 21.1338 9.74524C20.472 10.3927 20.1919 10.9151 19.7227 11.2718C20.0178 10.9383 20.2647 10.5626 20.461 10.1906C21.2936 8.61389 22.76 8.35802 24.2818 8.34743C24.9652 8.34267 25.3219 8.03508 25.572 7.49576C25.7224 7.17124 25.7673 6.95121 25.8807 6.64726C26.1266 6.56552 26.3662 6.78713 26.3028 7.03884C26.1714 7.5607 25.9398 8.29942 25.7673 8.6461C25.1293 9.92625 24.3183 11.1805 22.483 11.7546C22.0556 11.8881 21.6166 12.0248 21.2314 12.2527C21.0272 12.3735 20.7179 12.5894 20.5275 12.8743C20.1871 13.4416 20.0837 14.1761 20.0784 14.3629C20.0705 14.6368 20.1618 16.4288 19.8837 17.0392C19.5154 17.8477 18.2232 18.7267 17.0264 19.151C16.7652 19.2434 16.4307 19.5462 16.3984 19.7879C16.3367 20.2506 16.3473 20.7229 16.3589 21.1524C16.3673 21.4616 16.5609 21.7355 16.8501 21.8458C18.0195 22.2922 19.1033 22.7143 20.1992 23.1017C20.472 23.1982 20.8378 23.2283 21.0963 23.126C21.5955 22.9286 22.064 22.6384 22.5125 22.3376C22.6861 22.221 22.7711 21.9719 22.8962 21.7836C22.7094 21.7102 22.5511 21.7619 22.3569 21.7255C21.8139 21.6242 21.0573 21.6643 20.6974 21.3113C21.4805 21.01 22.4223 21.2036 22.9584 20.0718C21.7459 20.496 20.2383 20.6639 20.1945 20.5836C21.0314 19.762 22.6297 19.6354 22.6973 18.0043C21.8482 18.5595 21.2631 19.5647 19.889 19.2349C20.7422 18.5431 21.4472 17.9717 22.3965 17.2023C21.3042 16.8862 21.1944 16.6904 21.1432 15.9734C21.1301 15.7897 21.1306 15.0678 21.0472 14.9201C20.9406 14.7328 20.7898 14.5803 20.6404 14.4605C21.3137 14.6109 21.8899 14.9001 21.9152 15.6435C21.9284 16.024 21.9232 16.3068 22.2313 16.5786C22.2514 16.5965 22.2719 16.615 22.2936 16.6313C22.6524 16.9005 23.0039 17.1253 23.3041 17.4677C23.5906 17.7944 23.8244 18.1658 24.0043 18.5605C24.3626 19.3478 24.5087 20.2327 24.4776 21.0875C24.4639 21.4569 24.4095 21.8168 24.3447 22.1798C24.3061 22.3967 24.2565 22.7492 23.9895 22.8014C23.2218 22.9518 22.825 23.4932 22.6202 24.1628C22.5363 24.8667 22.4482 25.5274 22.6281 26.2255C22.7521 26.7041 23.102 27.9267 23.2824 28.5515C23.3341 28.7309 23.1832 28.9013 22.9986 28.876C22.8349 28.8533 22.6645 28.8153 22.4899 28.7726C21.5765 28.5488 20.6077 28.7134 19.8219 29.2305C19.803 29.2432 19.7872 29.2538 19.7739 29.2633C20.985 28.9462 22.1179 29.1794 22.6973 29.4379C23.0719 29.6052 23.3695 29.8316 24.1209 30.2526C24.1209 30.2526 24.1178 29.1055 24.1252 28.5926C24.132 28.1409 24.6016 27.7916 24.9356 27.9367C25.9509 28.3779 25.4697 30.9629 25.4697 31.9064C25.4697 31.9064 27.2574 27.9462 27.4088 27.6106L27.5524 28.8575C27.5529 28.8564 30.2678 24.9417 31.5357 22.9586C31.6355 22.8025 31.7779 22.2305 31.8091 22.0532C32.1494 20.1087 31.9721 19.5958 31.7537 18.1753C31.6064 17.2176 31.3046 16.5174 31.0555 15.5654L31.0561 15.5665Z" fill="#D71920" style="fill:#D71920;fill:color(display-p3 0.8431 0.0980 0.1255);fill-opacity:1;"/>
<path d="M19.2042 16.1117C19.2042 15.6384 18.7594 15.4193 18.7594 15.4193C18.694 16.2372 17.8719 16.5887 16.0155 16.6198C14.1592 16.5887 13.3075 16.2372 13.2421 15.4193C13.2421 15.4193 12.7973 15.6384 12.7973 16.1117C12.7973 16.585 13.2954 16.7006 13.4621 16.7465C13.9233 16.8736 14.6103 17.1829 15.9849 17.1829C17.3595 17.1829 18.0787 16.8731 18.5399 16.7465C18.7061 16.7006 19.2042 16.5987 19.2042 16.1117Z" fill="#D71920" style="fill:#D71920;fill:color(display-p3 0.8431 0.0980 0.1255);fill-opacity:1;"/>
</g>
<defs>
<clipPath id="clip0_21320_2165">
<rect width="32" height="32" fill="white" style="fill:white;fill-opacity:1;"/>
</clipPath>
</defs>
</svg>
