<svg width="32" height="32" viewBox="0 0 32 32" fill="none" xmlns="http://www.w3.org/2000/svg">
<g clip-path="url(#clip0_21320_2191)">
<path d="M28.7328 7.32834C28.7328 7.00672 28.5697 6.72531 28.3238 6.55983L18.1033 0.442168C17.0865 -0.149017 15.8332 -0.149017 14.8164 0.442168L3.62408 6.67568C2.60724 7.26683 1.98058 8.36175 1.98058 9.54412V14.4959C1.98058 15.9431 2.77513 17.2793 4.06155 18.0029C4.06155 18.0029 11.5459 21.628 14.0833 22.7465C14.4569 22.9121 14.8779 22.9877 15.313 22.9877C17.0652 22.9877 18.4865 21.6044 18.4865 19.8994C18.4865 18.5704 17.5925 17.4873 16.4126 17.0026L11.7091 15.0564C10.5173 14.581 9.67779 13.4412 9.67779 12.1122L9.6825 11.8261C9.74162 10.4664 10.4085 9.01912 11.4277 8.25299C11.4277 8.25299 13.3148 6.65438 16.2447 6.65438V6.65199C19.3614 6.65199 22.4946 8.80393 23.372 9.44717C23.6156 9.62686 23.9183 9.78293 24.2044 9.87994C25.0864 10.1803 26.0843 10.1353 26.9262 9.7049C26.9593 9.68837 28.1275 9.07353 28.6619 7.68307C28.7092 7.57425 28.7328 7.45369 28.7328 7.32834Z" fill="#ED1A3C" style="fill:#ED1A3C;fill:color(display-p3 0.9294 0.1020 0.2353);fill-opacity:1;"/>
<path d="M13.2534 11.4648C13.2534 12.8624 14.1615 14.0045 15.3604 14.5129L20.0757 16.549C21.2834 17.0477 22.1369 18.2457 22.1378 19.6447C22.137 21.1338 21.4395 22.7617 20.3547 23.6078C20.3547 23.6078 18.4369 25.2915 15.4621 25.2915C12.5677 25.2915 9.79119 23.4905 8.49854 22.652C8.36123 22.5629 8.24067 22.4847 8.13848 22.4207C7.63479 22.1038 7.04364 21.9147 6.41222 21.8508C4.80205 21.6888 3.31063 22.4589 2.46766 23.726C2.37364 23.8619 2.31652 24.0295 2.31652 24.2108C2.31652 24.5324 2.49624 24.8138 2.76109 24.9557L13.8966 31.5534C14.9135 32.1446 16.1668 32.1446 17.1836 31.5534L28.3759 25.3199C29.3928 24.7287 30.0194 23.6338 30.0194 22.4515V17.1497C30.0194 15.6291 29.213 14.2221 27.9053 13.4606C27.9053 13.4606 20.3027 9.64631 17.7252 8.46865C17.3468 8.296 16.9188 8.21558 16.4766 8.21558C14.6959 8.21558 13.2534 9.66993 13.2534 11.4648Z" fill="#ED1A3C" style="fill:#ED1A3C;fill:color(display-p3 0.9294 0.1020 0.2353);fill-opacity:1;"/>
<path d="M17.1856 31.5579C16.1687 32.1491 14.9154 32.1491 13.8986 31.5579L2.76305 24.9603C2.4982 24.8183 2.31847 24.5369 2.31847 24.2154C2.31847 24.0309 2.3776 23.8606 2.47455 23.7235L2.4509 23.7589C3.29039 22.4749 4.792 21.6922 6.41422 21.8553C7.04557 21.9192 7.63679 22.1083 8.14048 22.4253C9.2046 23.0921 12.2622 25.296 15.464 25.296C18.4389 25.296 20.3567 23.6123 20.3567 23.6123C21.4421 22.7657 22.1397 21.1365 22.1397 19.6467V19.6514C22.1397 18.2514 21.2861 17.0525 20.0776 16.5535L15.3553 14.5151C14.1563 14.0067 13.2483 12.8645 13.2483 11.4669C13.2483 10.5636 13.6125 9.74777 14.2036 9.15894C13.7189 9.65082 13.4185 10.3342 13.4185 11.0815C13.4185 12.2473 14.1492 13.2429 15.1732 13.6283L21.8701 16.1846C24.417 17.1471 26.2307 19.623 26.2307 22.5269C26.2307 25.0761 24.8307 27.299 22.764 28.453L17.1856 31.5579Z" fill="url(#paint0_linear_21320_2191)" style=""/>
<path d="M28.6343 7.74875C28.0289 8.74665 26.9387 9.41351 25.6949 9.41351C24.9027 9.41351 24.1744 9.1392 23.5926 8.68521C21.3674 6.97545 18.3784 5.6394 15.3302 5.6394H15.3231C10.868 5.6394 7.13879 9.84628 7.13879 14.3369C7.13879 16.9808 8.76811 19.9698 10.8018 21.2326L10.8042 21.235C12.1166 21.8545 13.3203 22.4149 14.0793 22.7484C14.4529 22.9139 14.8739 22.9896 15.3089 22.9896C17.0612 22.9896 18.4825 21.6086 18.4825 19.9012C18.4825 18.8229 17.9125 17.9054 17.0612 17.3378C16.995 17.2976 16.9288 17.2574 16.8649 17.2196C16.7255 17.1392 16.5812 17.0706 16.4322 17.0068L15.2097 16.5055L11.7075 15.0487C10.5157 14.5734 9.67616 13.4431 9.67616 12.1118L9.68087 11.8256C9.73999 10.4658 10.4092 9.01864 11.426 8.25244C11.426 8.25244 13.3132 6.6539 16.243 6.6539V6.65151C16.7302 6.65151 17.2173 6.70353 17.6974 6.79576C20.2867 7.28526 22.6397 8.90511 23.3798 9.44901C23.6234 9.62877 23.9261 9.78244 24.2122 9.88178C24.3753 9.93851 24.5433 9.98111 24.7135 10.0142C25.456 10.1514 26.2411 10.0544 26.9222 9.7068C26.9529 9.69492 28.0904 9.09667 28.6343 7.74875Z" fill="url(#paint1_linear_21320_2191)" style=""/>
</g>
<defs>
<linearGradient id="paint0_linear_21320_2191" x1="16.9613" y1="12.6007" x2="8.32501" y2="27.9733" gradientUnits="userSpaceOnUse">
<stop stop-color="#941A1D" style="stop-color:#941A1D;stop-color:color(display-p3 0.5804 0.1020 0.1137);stop-opacity:1;"/>
<stop offset="1" stop-color="#E91C31" style="stop-color:#E91C31;stop-color:color(display-p3 0.9137 0.1098 0.1922);stop-opacity:1;"/>
</linearGradient>
<linearGradient id="paint1_linear_21320_2191" x1="11.7795" y1="5.6394" x2="16.2704" y2="22.9896" gradientUnits="userSpaceOnUse">
<stop stop-color="#941A1D" style="stop-color:#941A1D;stop-color:color(display-p3 0.5804 0.1020 0.1137);stop-opacity:1;"/>
<stop offset="1" stop-color="#E51C30" style="stop-color:#E51C30;stop-color:color(display-p3 0.8980 0.1098 0.1882);stop-opacity:1;"/>
</linearGradient>
<clipPath id="clip0_21320_2191">
<rect width="32" height="32" fill="white" style="fill:white;fill-opacity:1;"/>
</clipPath>
</defs>
</svg>
