<svg width="32" height="32" viewBox="0 0 32 32" fill="none" xmlns="http://www.w3.org/2000/svg">
<g clip-path="url(#clip0_21320_2348)">
<path d="M17.072 3.47394L0.000976562 3.47368V28.5364L17.0959 28.5367C17.4009 28.5367 17.5551 28.5367 17.633 28.4596C17.7126 28.3808 17.7126 28.2216 17.7126 27.8997V4.13296C17.7126 3.76351 17.7126 3.59894 17.6309 3.52664C17.5653 3.46856 17.447 3.47002 17.2337 3.47265C17.1849 3.47325 17.1312 3.47392 17.072 3.47394Z" fill="#FFCC29" style="fill:#FFCC29;fill:color(display-p3 1.0000 0.8000 0.1608);fill-opacity:1;"/>
<path d="M32.0013 18.8334V15.243H25.8334V18.2344H28.9556V18.691C28.9447 19.6004 28.6826 20.309 28.1477 20.8605C27.6274 21.4303 26.9833 21.7043 26.1755 21.7043C25.6988 21.7043 25.2912 21.602 24.931 21.3828C24.5853 21.2075 24.3015 20.9738 24.0722 20.6706C23.8175 20.382 23.6464 19.9913 23.5555 19.5018C23.4499 18.9759 23.3954 17.9313 23.3954 16.4009C23.3954 14.8705 23.4499 13.8186 23.5591 13.2707C23.6428 12.8032 23.8175 12.4197 24.0904 12.1056C24.3015 11.8244 24.589 11.5833 24.9382 11.3934C25.2767 11.2107 25.6988 11.1084 26.1682 11.0975C26.8305 11.1084 27.3763 11.302 27.8202 11.6709C28.2678 12.0727 28.5771 12.5694 28.7482 13.1429L28.8246 13.4022H31.9904L31.9103 12.9712C31.6556 11.576 31.0261 10.3852 30.0436 9.43563C29.0466 8.48236 27.7511 7.98925 26.1791 7.97461C24.9019 7.98925 23.8211 8.31433 22.9623 8.9316C22.0963 9.53789 21.4595 10.2428 21.0738 11.0025C20.8227 11.4226 20.6335 11.9741 20.5134 12.6425C20.4042 13.289 20.3496 14.5491 20.3496 16.4009C20.3496 18.2527 20.4042 19.4726 20.5134 20.1373C20.5716 20.4989 20.648 20.8094 20.7463 21.0688C20.8409 21.2915 20.9428 21.5217 21.0629 21.7773C21.4595 22.5626 22.0999 23.2602 22.9587 23.8446C23.8175 24.4655 24.9019 24.7979 26.19 24.8271C27.8421 24.7979 29.2321 24.2062 30.3275 23.0739C31.4082 21.938 31.9722 20.5135 32.0013 18.8334Z" fill="#FFCC29" style="fill:#FFCC29;fill:color(display-p3 1.0000 0.8000 0.1608);fill-opacity:1;"/>
<path fill-rule="evenodd" clip-rule="evenodd" d="M14.0218 17.442C13.6286 16.7787 13.0263 16.3996 12.2386 16.1364C12.2932 16.0865 12.337 16.043 12.3748 16.0054C12.4387 15.9417 12.4857 15.8949 12.54 15.8626C13.5248 15.2809 14.0053 14.3789 14.1452 13.2818C14.3734 11.5127 13.9188 9.91124 12.4461 8.92827C11.4244 8.24712 10.2445 8.03174 9.04609 7.99862C7.97729 7.96839 6.90746 7.97571 5.83745 7.98303C5.40927 7.98596 4.98095 7.98889 4.55272 7.98941C3.91212 7.98941 3.87346 8.02625 3.87346 8.66135L3.87371 11.4907C3.87425 15.7331 3.8748 19.9753 3.86426 24.2162C3.86426 24.6562 4.00416 24.8035 4.44228 24.7979C5.11728 24.7893 5.79262 24.792 6.468 24.7947C7.38212 24.7984 8.29633 24.802 9.20993 24.7777C9.96836 24.7574 10.7378 24.6709 11.4723 24.4924C12.3577 24.277 13.1088 23.8002 13.7016 23.0639C14.2961 22.3257 14.5317 21.4697 14.6385 20.5751C14.7692 19.4761 14.5999 18.4158 14.0218 17.442ZM7.05087 22.1807L7.05607 22.1807C7.90663 22.1825 8.75899 22.1843 9.60954 22.188C9.60342 22.1884 9.5973 22.1888 9.59118 22.1891L9.60973 22.1892C9.64433 22.1744 9.67841 22.1588 9.71239 22.1432C9.78869 22.1082 9.86452 22.0734 9.94479 22.0493C10.5302 21.8725 10.913 21.4952 11.0769 20.9043C11.3346 19.9728 11.2904 19.0524 10.8891 18.1762C10.7087 17.7804 10.3847 17.4675 9.90794 17.4472C9.14448 17.4137 8.37964 17.3982 7.61463 17.3827L7.25903 17.3754C6.94423 17.368 6.90556 17.5687 6.90556 17.8356C6.90972 18.3256 6.90673 18.8152 6.90374 19.3046C6.90012 19.8963 6.89651 20.4877 6.90556 21.0792C6.90939 21.3336 6.95279 21.5871 6.99625 21.8411C7.01561 21.9542 7.03498 22.0673 7.05087 22.1807ZM6.90183 12.7972C6.90183 12.6043 6.90203 12.4115 6.90223 12.2188L6.90224 12.2177C6.90264 11.8317 6.90305 11.446 6.90183 11.0595C6.90183 10.7392 6.98649 10.5386 7.37492 10.5772C7.65611 10.6053 7.93829 10.6214 8.22034 10.6376C8.60487 10.6596 8.98915 10.6817 9.37037 10.7337C10.1914 10.846 10.5816 11.4535 10.6608 12.1917C10.7215 12.7659 10.6663 13.3808 10.5209 13.9404C10.3313 14.6694 9.73117 15.0044 9.00403 15.0504C8.63519 15.0739 8.26486 15.0697 7.89398 15.0654C7.68366 15.063 7.47313 15.0606 7.26262 15.0633C6.98466 15.067 6.89634 14.951 6.90549 14.6712C6.92007 14.2217 6.91748 13.7713 6.91488 13.3213C6.91388 13.1465 6.91287 12.9718 6.91287 12.7972H6.90183Z" fill="#1A2632" style="fill:#1A2632;fill:color(display-p3 0.1020 0.1490 0.1961);fill-opacity:1;"/>
</g>
<defs>
<clipPath id="clip0_21320_2348">
<rect width="32" height="32" fill="white" style="fill:white;fill-opacity:1;"/>
</clipPath>
</defs>
</svg>
