<svg width="32" height="32" viewBox="0 0 32 32" fill="none" xmlns="http://www.w3.org/2000/svg">
<g clip-path="url(#clip0_21320_389)">
<path d="M31.9487 28.5131L16.2994 3.11883C16.268 3.06787 16.224 3.02581 16.1718 2.99664C16.1196 2.96746 16.0608 2.95215 16.001 2.95215C15.9412 2.95215 15.8824 2.96746 15.8301 2.99664C15.7779 3.02581 15.734 3.06787 15.7026 3.11883L0.0532662 28.5131C0.0204706 28.5662 0.0024483 28.6272 0.00106293 28.6896C-0.000322425 28.7521 0.0149795 28.8137 0.0453863 28.8683C0.0757928 28.9228 0.120201 28.9683 0.17402 28.9999C0.227839 29.0315 0.289117 29.0482 0.351517 29.0481H22.4066C22.4651 29.0482 22.5226 29.0326 22.573 29.0029C22.6235 28.9733 22.6651 28.9306 22.6935 28.8794C22.722 28.8283 22.7363 28.7705 22.7349 28.7119C22.7334 28.6533 22.7164 28.5962 22.6856 28.5465L19.8219 23.9228C19.7924 23.8753 19.7514 23.836 19.7025 23.8088C19.6537 23.7816 19.5988 23.7672 19.5429 23.7672H9.17606L16.0011 12.6926L22.8259 23.7672L25.9341 28.7857C25.9837 28.8659 26.0531 28.9322 26.1355 28.978C26.2178 29.024 26.3106 29.0481 26.4049 29.0481H31.6505C31.7129 29.0482 31.7741 29.0315 31.8279 28.9999C31.8818 28.9683 31.9262 28.9228 31.9566 28.8683C31.987 28.8137 32.0023 28.7521 32.0009 28.6896C31.9995 28.6272 31.9815 28.5662 31.9487 28.5131Z" fill="#FE0000" style="fill:#FE0000;fill:color(display-p3 0.9961 0.0000 0.0000);fill-opacity:1;"/>
</g>
<defs>
<clipPath id="clip0_21320_389">
<rect width="32" height="32" fill="white" style="fill:white;fill-opacity:1;"/>
</clipPath>
</defs>
</svg>
