<svg width="32" height="32" viewBox="0 0 32 32" fill="none" xmlns="http://www.w3.org/2000/svg">
<path d="M20.0548 8.39552C18.4675 11.3881 15.9498 16.1809 15.9498 16.1809H15.4752L12.4917 10.6036H7.40337C7.95534 11.8634 13.0057 21.3963 13.0057 21.3963H18.2654L24.0733 10.518H31.1491C31.4343 10.518 31.6042 10.6576 31.7838 10.8792C32.0504 11.2082 32.0701 11.7016 31.8448 12.1401C29.36 16.9758 27.7406 19.8488 25.0499 24.8408C24.8357 25.2381 24.6769 25.4801 24.2889 25.7108C23.9408 25.9177 23.6902 25.9715 23.2852 25.9715C18.93 25.9715 16.4414 25.9595 12.009 25.9595C11.6933 25.9595 11.3982 25.864 11.2386 25.6601C11.054 25.4242 11.0341 25.0651 11.1959 24.7597C11.9 23.4309 13.0057 21.3963 13.0057 21.3963H2.41575C1.52873 21.3963 0.64851 21.5651 0.193642 20.9396C-0.165097 20.4463 0.0318049 19.8712 0.322126 19.3348C2.70997 14.9228 3.73219 13.0741 6.18811 8.17884C6.71406 7.13049 7.14482 6.45983 7.63862 6.21004C8.04464 6.00465 9.00095 6.02924 10.2813 6.02924C13.6394 6.02924 15.1027 6.02954 19.232 6.02924C19.7153 6.0292 20.0897 6.19794 20.3477 6.56485C20.7343 7.11448 20.3717 7.79817 20.0584 8.38886L20.0548 8.39552Z" fill="url(#paint0_linear_21320_2046)" style=""/>
<defs>
<linearGradient id="paint0_linear_21320_2046" x1="32.9192" y1="7.29698" x2="7.64787e-07" y2="21.0796" gradientUnits="userSpaceOnUse">
<stop offset="0.114372" stop-color="#F1622A" style="stop-color:#F1622A;stop-color:color(display-p3 0.9451 0.3843 0.1647);stop-opacity:1;"/>
<stop offset="0.643365" stop-color="#FACF00" style="stop-color:#FACF00;stop-color:color(display-p3 0.9804 0.8118 0.0000);stop-opacity:1;"/>
<stop offset="1" stop-color="#FACF00" style="stop-color:#FACF00;stop-color:color(display-p3 0.9804 0.8118 0.0000);stop-opacity:1;"/>
</linearGradient>
</defs>
</svg>
