<svg width="32" height="32" viewBox="0 0 32 32" fill="none" xmlns="http://www.w3.org/2000/svg">
<g id="ICONIC21/color-on-light/small" clip-path="url(#clip0_21364_480)">
<g id="Vector">
<path d="M21.4984 21.1728L19.0284 17.3385L17.0755 18.6643L17.6806 16.6343L13.6483 16.1502L17.9611 14.5879L17.422 10L19.859 13.5647L21.8394 12.1894L21.2068 14.2909L25.2061 14.7585L20.8822 16.2988L21.4984 21.1728Z" fill="#E9113A"/>
<path d="M12.9496 16.4473V20.6722H14.3139V18.0756L15.7607 20.6722H17.455V18.8678L16.3988 19.5829L17.1855 16.9479L16.0798 16.8214V18.7248L14.9465 16.6784L12.9496 16.4473Z" fill="#E9113A"/>
<path d="M18.2912 18.3122V20.6722H19.815V19.2584L18.9183 17.8666L18.2912 18.3122Z" fill="#E9113A"/>
<path d="M7.01986 18.7798C6.8853 19.9865 6.11368 20.8207 4.49441 20.8207C3.04762 20.8207 1.9474 19.7975 1.9474 18.3782C1.9474 17.0414 3.04212 15.9577 4.49441 15.9577C5.8392 15.9577 6.8774 16.6181 7.02373 18.0261H5.4826C5.38365 17.4827 5.04231 17.256 4.55493 17.256C3.9333 17.256 3.57573 17.6741 3.57573 18.3837C3.57573 19.1209 3.91129 19.5444 4.55493 19.5444C5.07254 19.5444 5.37669 19.2705 5.47594 18.7798H7.01986Z" fill="#E9113A"/>
<path d="M0 16.0897H1.52931V20.6667H0V16.0897Z" fill="#E9113A"/>
<path fill-rule="evenodd" clip-rule="evenodd" d="M12.5646 18.3782C12.5646 19.7975 11.7946 20.8207 9.96252 20.8207C8.48448 20.8207 7.3605 19.7975 7.3605 18.3782C7.3605 17.0414 8.47886 15.9577 9.96252 15.9577C11.4462 15.9577 12.5646 16.7279 12.5646 18.3782ZM11.0022 18.3837C11.0022 19.1209 10.6819 19.5444 10.0243 19.5444C9.36681 19.5444 9.024 19.1209 9.024 18.3837C9.024 17.6741 9.38929 17.256 10.0243 17.256C10.6201 17.256 11.0022 17.5805 11.0022 18.3837Z" fill="#E9113A"/>
<path d="M21.8119 20.6172L21.3003 16.5353L22.9012 15.9797C23.7978 15.9412 25.3337 16.3747 25.4042 18.0206H23.8638C23.8363 17.7694 23.6163 17.267 22.9562 17.267C22.296 17.267 22.043 17.8098 21.999 18.0811C21.9055 18.5469 21.966 19.4905 22.9562 19.5389C23.6053 19.5169 23.8363 19.1209 23.8638 18.7798H25.4042C25.4042 19.5389 24.7957 20.8273 22.9122 20.8317C22.6738 20.8317 22.12 20.7888 21.8119 20.6172Z" fill="#E9113A"/>
<path d="M25.6462 17.6576C25.6279 17.1056 25.9785 15.9973 27.5276 15.9797C29.0767 15.9621 29.2953 17.0909 29.2109 17.6576C29.1963 17.8354 29.0745 18.266 28.7048 18.5652C28.3352 18.8645 27.9237 19.0897 27.7641 19.1649C27.6431 19.2419 27.3989 19.4245 27.3901 19.5389H29.1669V20.6667H25.6737C25.67 20.3109 25.7254 19.5125 25.9763 19.1649C26.2898 18.7303 26.3356 18.696 26.7134 18.4222C26.8857 18.2974 27.0444 18.2088 27.1961 18.1241L27.1962 18.1241C27.3788 18.0221 27.5514 17.9258 27.7256 17.7786C27.7935 17.7107 27.916 17.5299 27.8632 17.3495C27.8103 17.1691 27.6174 17.1276 27.5276 17.1294C27.3607 17.1111 27.0292 17.1911 27.038 17.6576H25.6462Z" fill="#E9113A"/>
<path d="M29.5575 17.0964V18.3837C30.1131 18.3837 30.4762 18.2077 30.5752 18.1086V20.6667H32V16.0897H30.9658C30.7843 16.8489 30.1241 17.0964 29.5575 17.0964Z" fill="#E9113A"/>
</g>
</g>
<defs>
<clipPath id="clip0_21364_480">
<rect width="32" height="32" fill="white"/>
</clipPath>
</defs>
</svg>
