<svg width="32" height="32" viewBox="0 0 32 32" fill="none" xmlns="http://www.w3.org/2000/svg">
<path fill-rule="evenodd" clip-rule="evenodd" d="M1.46961 8.79028V10.2596H0V23.2096H2.68982V20.2704H10.0105L10.0103 19.0502L10.0105 18.8282H12.9498V17.3588H14.4194V11.7295H12.9498V8.79028H1.46961ZM11.7295 16.1386V12.9497H10.2599V11.4798H2.68982V17.608H10.2599V16.1386H11.7295Z" fill="black" style="fill:black;fill-opacity:1;"/>
<path d="M21.7401 20.5196V19.0502H20.2705L20.2702 18.8282L20.2705 12.9497H21.7401V11.4798H27.8406V12.9497H30.5304V10.2596H27.8406V10.0105H27.8682V8.79028H20.5199V10.2596H19.0503V11.7295H17.5806V20.2704H19.0503V21.7398H20.5199V23.2096H29.0608V21.7398H30.5304V20.5196L30.5301 20.2704H32V14.6687H24.929V17.3588H29.3102V19.0502H27.8406V20.5196H21.7401Z" fill="black" style="fill:black;fill-opacity:1;"/>
</svg>
