<?xml version="1.0" encoding="utf-8"?>
<!-- Generator: Adobe Illustrator 23.0.4, SVG Export Plug-In . SVG Version: 6.00 Build 0)  -->
<svg version="1.1" id="Layer_1" xmlns="http://www.w3.org/2000/svg" xmlns:xlink="http://www.w3.org/1999/xlink" x="0px" y="0px"
	 viewBox="0 0 103.6 32.4" style="enable-background:new 0 0 103.6 32.4;" xml:space="preserve">
<style type="text/css">
	.st0{fill:#FFFFFF;}
</style>
<g>
	<g>
		<path class="st0" d="M6,29.1c0,1.2-0.3,2-1,2.6c-0.4,0.4-1,0.5-1.8,0.5c-1,0-1.7-0.4-2.3-1.1c-0.5-0.7-0.7-1.4-0.7-2.2
			c0-1,0.2-1.8,0.8-2.5c0.3-0.3,0.6-0.6,0.9-0.8c0.4-0.2,0.8-0.3,1.3-0.3c0.5,0,0.9,0.1,1.4,0.2c0.4,0.1,0.7,0.3,0.9,0.6
			c0.1,0.1,0.1,0.2,0.1,0.3c0,0.1,0,0.2-0.1,0.3c-0.1,0.1-0.2,0.1-0.3,0.1c-0.1,0-0.2,0-0.3-0.1c-0.3-0.2-0.5-0.4-0.7-0.5
			c-0.3-0.1-0.5-0.2-0.9-0.2c-0.7,0-1.3,0.3-1.7,0.9c-0.3,0.5-0.5,1.1-0.5,1.8c0,1,0.3,1.7,0.8,2.3c0.3,0.3,0.7,0.5,1.2,0.5
			c0.3,0,0.7-0.1,1-0.2c0.7-0.3,1.1-1,1.1-1.9v-0.3H4c-0.2,0-0.4-0.1-0.4-0.4c0-0.3,0.1-0.4,0.4-0.4h1.5C5.8,28.3,6,28.6,6,29V29.1z
			"/>
		<path class="st0" d="M103.5,29.1c0,1.2-0.3,2-1,2.6c-0.4,0.4-1,0.5-1.8,0.5c-1,0-1.7-0.4-2.3-1.1c-0.5-0.7-0.7-1.4-0.7-2.2
			c0-1,0.2-1.8,0.8-2.5c0.3-0.3,0.6-0.6,0.9-0.8c0.4-0.2,0.8-0.3,1.3-0.3c0.5,0,0.9,0.1,1.4,0.2c0.4,0.1,0.7,0.3,0.9,0.6
			c0.1,0.1,0.1,0.2,0.1,0.3c0,0.1,0,0.2-0.1,0.3c-0.1,0.1-0.2,0.1-0.3,0.1c-0.1,0-0.2,0-0.3-0.1c-0.3-0.2-0.5-0.4-0.7-0.5
			c-0.3-0.1-0.5-0.2-0.9-0.2c-0.7,0-1.3,0.3-1.7,0.9c-0.3,0.5-0.5,1.1-0.5,1.8c0,1,0.3,1.7,0.8,2.3c0.3,0.3,0.7,0.5,1.2,0.5
			c0.3,0,0.7-0.1,1-0.2c0.7-0.3,1.1-1,1.1-1.9v-0.3h-1.2c-0.2,0-0.4-0.1-0.4-0.4c0-0.3,0.1-0.4,0.4-0.4h1.5c0.4,0,0.6,0.2,0.6,0.6
			V29.1z"/>
		<path class="st0" d="M47.3,31.7c0,0.4-0.1,0.6-0.4,0.6c-0.2,0-0.4-0.1-0.4-0.4l-0.8-5.5l-1.6,5.5c-0.1,0.2-0.2,0.3-0.4,0.3
			c-0.2,0-0.4-0.1-0.4-0.3l-1.6-5.5l-0.8,5.5c0,0.3-0.2,0.4-0.5,0.4c-0.2,0-0.4-0.2-0.4-0.5c0-0.1,0-0.1,0-0.2l1-5.7
			c0-0.2,0.1-0.3,0.2-0.4c0.1-0.1,0.3-0.2,0.4-0.2c0.2,0,0.3,0,0.4,0.1c0.1,0.1,0.2,0.2,0.2,0.3l1.4,4.9h0l1.4-5
			c0-0.1,0.1-0.2,0.2-0.3c0.1-0.1,0.2-0.1,0.4-0.1c0.2,0,0.3,0,0.4,0.1c0.1,0.1,0.2,0.2,0.2,0.4L47.3,31.7z"/>
		<path class="st0" d="M62.9,31.8c0,0.3-0.1,0.5-0.4,0.5c-0.3,0-0.4-0.1-0.4-0.4v-6c0-0.3,0.1-0.4,0.4-0.4c0.3,0,0.4,0.1,0.4,0.4
			V31.8z"/>
		<path class="st0" d="M83,31.8c0,0.3-0.1,0.4-0.4,0.4c-0.2,0-0.3-0.1-0.5-0.3l-3.6-5.1v4.9c0,0.3-0.1,0.4-0.4,0.4
			c-0.3,0-0.4-0.1-0.4-0.4v-6c0-0.3,0.1-0.4,0.3-0.4c0.2,0,0.3,0.1,0.5,0.3l3.5,5.1h0v-4.9c0-0.1,0-0.2,0.1-0.3
			c0.1-0.1,0.2-0.1,0.3-0.1c0.3,0,0.4,0.1,0.4,0.4V31.8z"/>
		<path class="st0" d="M25.8,31.9c0,0.2-0.1,0.3-0.4,0.3c-0.1,0-0.2,0-0.3-0.1C25,32.1,25,32.1,25,32l-0.4-1.2h-3.1L20.9,32
			c-0.1,0.2-0.2,0.3-0.4,0.3c-0.2,0-0.4-0.1-0.4-0.3c0,0,0-0.1,0-0.1l0-0.1l2.2-5.8c0.1-0.2,0.1-0.3,0.2-0.4
			c0.1-0.1,0.2-0.1,0.3-0.1c0.1,0,0.2,0,0.4,0.1c0.1,0.1,0.2,0.2,0.2,0.4l2.2,5.8C25.8,31.8,25.8,31.9,25.8,31.9 M24.3,30l-1.3-3.7
			h0L21.6,30H24.3z"/>
	</g>
	<g>
		<g>
			<circle class="st0" cx="86.8" cy="2.7" r="2.7"/>
			<path class="st0" d="M103.6,2.7c0,1.5-1.2,2.7-2.7,2.7c-1.5,0-2.7-1.2-2.7-2.7S99.4,0,100.9,0C102.4,0,103.6,1.2,103.6,2.7z"/>
			<circle class="st0" cx="86.8" cy="15.9" r="2.7"/>
			<path class="st0" d="M103.6,15.9c0,1.5-1.2,2.7-2.7,2.7c-1.5,0-2.7-1.2-2.7-2.7c0-1.5,1.2-2.7,2.7-2.7
				C102.4,13.2,103.6,14.4,103.6,15.9z"/>
			<path class="st0" d="M96.6,9.3c0,1.5-1.2,2.7-2.7,2.7c-1.5,0-2.7-1.2-2.7-2.7s1.2-2.7,2.7-2.7C95.4,6.6,96.6,7.8,96.6,9.3z"/>
		</g>
		<g>
			<path class="st0" d="M79.6,18L72.1,0.3l0,0C72,0.1,71.9,0,71.7,0l0,0h-1.5H70h-1.5l0,0c-0.2,0-0.3,0.1-0.4,0.3l0,0L60.5,18
				c0,0,0,0.1,0,0.1c0,0.2,0.1,0.3,0.3,0.3h3.4c0.2,0,0.3-0.1,0.4-0.3l0,0l1.6-4.1h8l1.6,4.1l0,0c0.1,0.2,0.2,0.3,0.4,0.3h3.4
				c0.2,0,0.3-0.1,0.3-0.3C79.7,18.1,79.7,18,79.6,18z M67.3,10.8l2.8-7.1l2.8,7.1H67.3z"/>
			<path class="st0" d="M26.3,5.7c0.2-0.7,0.5-1,0.5-1s0.4-0.7,1.3-1.1c0.9-0.4,1.7-0.4,1.7-0.4h6.7c0.2,0,0.4-0.2,0.4-0.4V0.4
				c0-0.2-0.2-0.4-0.4-0.4l-7.4,0v0c-4.1,0-7.4,3.6-7.4,8v1.1v0.1v0.2v0.1v1.1c0,4.4,3.3,8,7.4,8l0,0l7.4,0c0.2,0,0.4-0.2,0.4-0.4
				v-2.5c0-0.2-0.2-0.4-0.4-0.4h-6.7c0,0-0.9,0-1.7-0.4c-0.9-0.4-1.3-1.1-1.3-1.1s-0.3-0.4-0.5-1c-0.2-0.7-0.2-1.6-0.2-1.6v-0.4
				h10.4c0.2,0,0.4-0.2,0.4-0.4V7.9c0-0.2-0.2-0.4-0.4-0.4H26.1V7.3C26.1,7.3,26.2,6.4,26.3,5.7z"/>
			<path class="st0" d="M49.3,18.4l6.1,0c0.2,0,0.3-0.2,0.3-0.4v-2.5c0-0.2-0.1-0.4-0.3-0.4h-5.5c0,0-0.7,0-1.4-0.4
				c-0.7-0.4-1.1-1.1-1.1-1.1S47,13.2,47,12.5c0-0.6,0-1.4,0-1.4V9.3l0-9l0,0C47,0.1,46.9,0,46.7,0h-3.2c-0.2,0-0.4,0.2-0.4,0.4
				c0,0,0,0,0,0.1l0,8.9l0,0v1.2c0,0,0,0,0,0l0,1.9c0,0,0,0.1,0,0.1C43.2,15.8,45.9,18.4,49.3,18.4"/>
			<path class="st0" d="M16.5,18L16.5,18l-4.3-7.2c0,0,0,0,0,0l0,0c2.2-0.5,3.7-2,3.7-5.3C16,1.1,13,0.1,9.3,0L8.4,0H0.4
				C0.2,0,0,0.2,0,0.4c0,0,0,0,0,0v17.7c0,0,0,0,0,0c0,0.2,0.2,0.4,0.4,0.4h3.2c0.2,0,0.4-0.2,0.4-0.4v-6.9h4.5l4,7h0
				c0.1,0.2,0.3,0.3,0.5,0.3h3.4v0c0,0,0,0,0,0c0.2,0,0.3-0.1,0.3-0.3C16.5,18.1,16.5,18,16.5,18z M9.4,7.9L8.4,8H3.9V3.3h4.6h0.9
				c2.1,0,2.7,1,2.7,2.3C12,6.9,11.4,7.9,9.4,7.9z"/>
		</g>
	</g>
</g>
</svg>
