<svg width="32" height="32" viewBox="0 0 32 32" fill="none" xmlns="http://www.w3.org/2000/svg">
<g clip-path="url(#clip0_21320_2214)">
<path d="M10.2004 9.16904C9.76566 8.78738 9.38625 8.45429 9.19563 8.21189C8.93318 7.87799 9.0286 7.7157 9.35303 7.38906C9.48989 7.2513 9.66749 7.08427 9.8844 6.88028C10.1818 6.60058 10.5531 6.25138 10.9946 5.81286C11.7581 5.05438 12.7315 4.02895 13.4902 3.1155C14.249 2.20209 14.793 1.40071 15.1079 0.933353C15.1763 0.831865 15.2339 0.746118 15.2829 0.673037C15.4599 0.409495 15.5263 0.310658 15.5897 0.232248C15.6709 0.131976 15.7473 0.0652437 15.8331 0.0318224C15.9191 -0.00159889 16.0145 -0.00159863 16.0908 0.000893382C16.1671 0.00327498 16.2241 0.00803015 16.3053 0.0653542C16.3864 0.122576 16.4914 0.232129 16.8088 0.718749C16.8716 0.815035 16.9427 0.926081 17.0215 1.04924C17.3411 1.5484 17.7882 2.24657 18.3257 2.96779C18.996 3.86689 19.8073 4.80171 20.5183 5.54576C21.1103 6.16521 21.633 6.65244 22.0255 7.01842C22.1045 7.09203 22.1782 7.16074 22.2462 7.22463C22.6518 7.60616 22.8521 7.81609 22.8975 7.99013C22.9429 8.16418 22.8333 8.3025 22.6067 8.51945C22.491 8.63021 22.3449 8.76145 22.1382 8.94711C21.9399 9.12524 21.6858 9.35346 21.3494 9.66175C20.6622 10.2914 19.6315 11.2547 18.7965 12.1848C18.121 12.9372 17.5735 13.6678 17.1843 14.1871C17.0924 14.3098 17.0094 14.4206 16.9355 14.5172C16.5489 15.0228 16.4154 15.1373 16.2675 15.1946C16.1195 15.2517 15.9572 15.2517 15.795 15.1946C15.6328 15.1373 15.4705 15.0228 15.251 14.7271C15.169 14.6167 15.079 14.4809 14.975 14.3241C14.8006 14.0611 14.587 13.7389 14.3061 13.3774C13.8575 12.8003 13.2372 12.123 12.6074 11.4695C11.9776 10.816 11.3382 10.1865 10.7083 9.61893C10.5359 9.46357 10.3642 9.31286 10.2004 9.16904Z" fill="url(#paint0_linear_21320_2214)" style=""/>
<path d="M0.786943 6.70902C0.729698 8.3688 0.672342 11.574 0.615097 14.7792C1.55036 13.8062 2.48573 12.8333 3.08439 12.2634C3.6831 11.6936 3.94516 11.527 4.13608 11.4316C4.32692 11.3362 4.44655 11.312 4.55404 11.319C4.66161 11.326 4.75711 11.3641 4.62344 11.6503C4.52471 11.8619 4.30062 12.2092 4.00146 12.6728C3.89606 12.8361 3.78135 13.0138 3.65952 13.2052C3.19196 13.9398 2.61935 14.8746 2.14217 15.7809C1.66496 16.6871 1.28319 17.5647 1.03506 18.5949C0.786935 19.6252 0.672342 20.808 0.777306 21.9337C0.88238 23.0593 1.2068 24.1277 1.75077 25.0339C2.29485 25.9401 3.05829 26.6842 3.93632 27.3328C4.81428 27.9815 5.80683 28.5348 6.64662 28.8687C7.48649 29.2025 8.1736 29.317 9.06118 29.3647C9.94868 29.4125 11.0368 29.3933 12.0388 29.2693C13.041 29.1453 13.957 28.9164 14.6919 28.6207C15.2376 28.4012 15.6833 28.1447 16.0368 27.9413C16.1594 27.8708 16.2709 27.8066 16.3717 27.7526C16.763 27.5427 16.9919 27.4855 17.1351 27.5141C17.2783 27.5427 17.3355 27.6573 17.345 27.7908C17.3545 27.9243 17.3164 28.0769 17.2305 28.2392C17.1446 28.4012 17.0111 28.5729 16.2094 29.0022C15.6355 29.3095 14.7192 29.7489 13.9437 30.1207C13.636 30.2682 13.3504 30.4051 13.1172 30.519C12.2964 30.9196 12.1247 31.0342 12.1915 31.2059C12.2583 31.3775 12.5637 31.6064 12.8213 31.7495C13.079 31.8926 13.2891 31.95 14.2287 31.978C15.1683 32.0059 16.8377 32.0046 17.7713 31.9885C18.705 31.9723 18.9032 31.9414 19.2041 31.7512C19.5051 31.561 19.9092 31.2118 20.1971 30.8462C20.4849 30.4808 20.6567 30.0993 20.7425 29.8418C20.8284 29.5841 20.8284 29.4506 20.8284 29.3839V29.317C21.5155 29.317 22.2027 29.317 22.9853 29.2885C23.7679 29.2599 24.6459 29.2025 25.4952 28.945C26.3447 28.6875 27.1654 28.2295 27.8716 27.6954C28.5778 27.1612 29.1696 26.5506 29.6372 25.902C30.1049 25.2533 30.4485 24.5665 30.6966 23.9655C30.9447 23.3645 31.0974 22.8494 31.2214 22.239C31.3455 21.6284 31.441 20.9224 31.3455 20.1117C31.2501 19.3007 30.9638 18.3851 30.477 17.2976C29.9903 16.21 29.3032 14.9509 28.702 13.9398C28.3835 13.4042 28.0892 12.9383 27.8416 12.5463C27.6217 12.1982 27.4387 11.9085 27.3084 11.6803C27.0315 11.195 26.9931 10.9878 27.0156 10.8925C27.0381 10.7972 27.1215 10.8139 27.3101 10.8927C27.4985 10.9713 27.792 11.1121 28.4662 11.8275C29.1403 12.5428 30.1953 13.8327 31.2501 15.1226L31.2501 15.122C31.3025 11.8312 31.3548 8.54045 31.288 6.85215C31.2212 5.16366 31.0353 5.07778 30.8755 5.0348C30.7156 4.9919 30.5821 4.9919 30.0667 5.259C29.5514 5.5261 28.6543 6.06031 27.4803 6.89024C26.3065 7.72017 24.8559 8.84575 23.4817 9.97142C22.1074 11.0971 20.8094 12.2227 19.8837 13.2244C18.958 14.226 18.4044 15.1035 17.994 16.0193C17.6999 16.6756 17.4793 17.3516 17.2936 17.9206C17.2202 18.1456 17.1522 18.3539 17.0873 18.5377C16.8583 19.1863 16.6675 19.5298 16.4385 19.692C16.2094 19.8541 15.9422 19.835 15.7321 19.7587C15.5222 19.6824 15.3695 19.5489 15.1596 19.1291C15.0143 18.8387 14.8416 18.4113 14.6289 17.8847C14.5342 17.6503 14.4315 17.3962 14.3198 17.1258C13.9572 16.2483 13.499 15.1989 12.8213 14.2163C12.1439 13.2338 11.2467 12.3181 10.1969 11.3546C9.14706 10.3911 7.94467 9.37996 6.56074 8.32117C5.17696 7.2623 3.61189 6.15573 2.73385 5.56427C1.85585 4.97281 1.66496 4.89655 1.4836 4.85838C1.30224 4.82022 1.13051 4.82022 1.01591 4.87747C0.901425 4.93464 0.84418 5.04923 0.786943 6.70902Z" fill="url(#paint1_linear_21320_2214)" style=""/>
</g>
<defs>
<linearGradient id="paint0_linear_21320_2214" x1="15.9997" y1="-6.10352e-05" x2="15.9997" y2="31.9999" gradientUnits="userSpaceOnUse">
<stop stop-color="#E18202" style="stop-color:#E18202;stop-color:color(display-p3 0.8824 0.5098 0.0078);stop-opacity:1;"/>
<stop offset="1" stop-color="#C21010" style="stop-color:#C21010;stop-color:color(display-p3 0.7608 0.0627 0.0627);stop-opacity:1;"/>
</linearGradient>
<linearGradient id="paint1_linear_21320_2214" x1="15.9997" y1="-6.10352e-05" x2="15.9997" y2="31.9999" gradientUnits="userSpaceOnUse">
<stop stop-color="#E18202" style="stop-color:#E18202;stop-color:color(display-p3 0.8824 0.5098 0.0078);stop-opacity:1;"/>
<stop offset="1" stop-color="#C21010" style="stop-color:#C21010;stop-color:color(display-p3 0.7608 0.0627 0.0627);stop-opacity:1;"/>
</linearGradient>
<clipPath id="clip0_21320_2214">
<rect width="32" height="32" fill="white" style="fill:white;fill-opacity:1;"/>
</clipPath>
</defs>
</svg>
