<svg width="96" height="32" viewBox="0 0 96 32" fill="none" xmlns="http://www.w3.org/2000/svg">
<path d="M19.5322 15.9878C19.5322 3.76487 29.661 0 38.2529 0H47.7294V6.16365H39.39C30.0262 6.16365 26.2908 10.6709 26.2908 15.9357C26.2908 22.3072 30.0783 25.812 38.2613 25.812H41.3797V15.9357H47.721V31.9757H38.2529C29.661 31.9757 19.5322 28.2108 19.5322 15.9878Z" fill="black"/>
<path d="M51.25 9.2989C51.25 4.38341 54.0124 0.0243256 61.8393 0.0243256H73.9058V6.18797H61.5271C58.7646 6.18797 57.3313 7.294 57.3313 9.64818C57.3313 12.2103 58.7646 12.908 61.4749 12.908H65.7228C74.4705 12.908 76.4678 17.8681 76.4678 22.4797C76.4678 28.6955 73.9065 32 65.3146 32H52.6758V25.8364H65.3146C68.5896 25.8364 70.379 24.9375 70.379 22.2794C70.379 19.3242 68.5896 18.7746 65.3146 18.7746H60.7627C53.3441 18.7746 51.25 13.8583 51.25 9.2989Z" fill="black"/>
</svg>
