<svg width="32" height="32" viewBox="0 0 32 32" fill="none" xmlns="http://www.w3.org/2000/svg">
<path d="M31.9585 15.7832H16.5246V21.2304H25.4097C24.5602 23.0256 23.4438 24.3443 22.0589 25.1863C20.674 26.0283 18.972 26.4497 16.9537 26.4497C13.8495 26.4497 11.2394 25.4281 9.12397 23.384C7.00864 21.3407 5.95095 18.8481 5.95095 15.9068C5.95095 12.9655 6.97027 10.6455 9.00892 8.65745C11.0476 6.66936 13.577 5.67496 16.5975 5.67496C20.0626 5.67496 23.0962 7.04179 25.6986 9.77626L29.8111 5.73715C27.9337 3.7211 26.0149 2.29906 24.0545 1.47025C21.7309 0.490601 19.2358 0 16.5661 0C12.1734 0 8.49296 1.3163 5.52192 3.94658C5.53602 4.03366 5.5227 4.13629 5.47652 4.20782C5.47652 4.20859 5.47573 4.21015 5.47495 4.21093C5.45773 4.41463 5.29253 4.56391 5.08663 4.57324C5.07724 4.57324 5.06785 4.57324 5.05845 4.57324C5.05845 4.57324 5.05688 4.5748 5.0561 4.57557C4.62003 4.93711 4.25912 5.36784 3.92483 5.8219C3.85045 6.5271 3.15054 7.03481 2.70038 7.56741C2.61427 7.73375 2.52815 7.89938 2.43577 8.06032C2.18916 8.4934 2.04589 8.95443 1.90027 9.42797C1.76483 9.8688 1.58947 10.2894 1.42741 10.7209C1.09233 11.615 0.959237 12.5511 0.673482 13.4577C0.520818 13.9413 0.325879 14.4234 0.29378 14.9334C0.262465 15.4357 0.278905 15.9309 0.192005 16.4293C0.186524 16.4604 0.175564 16.4884 0.162254 16.5149C0.646865 19.75 1.70141 22.9253 3.66099 25.5859C5.40997 27.9611 8.02093 29.5955 10.7297 30.6949C13.5528 31.8401 16.7916 32.0283 19.7838 31.5423C22.6868 31.0712 25.4841 29.8761 27.4561 27.651C29.4596 25.3907 30.7999 22.6804 31.5413 19.7702C31.5804 19.6171 31.6822 19.5331 31.7996 19.5043C31.9328 18.7058 32 17.8934 32 17.0684L31.9585 15.784V15.7832Z" fill="url(#paint0_linear_21320_2341)" style=""/>
<path d="M31.8697 19.0393C31.609 20.9862 30.9569 22.856 29.914 24.6474C28.5236 27.0366 26.723 28.8591 24.5121 30.1155C22.3012 31.372 19.7083 32.0002 16.7325 32.0002C13.5485 32.0002 10.7082 31.3129 8.21229 29.939C6.77651 29.1491 5.51369 28.1656 4.42313 26.9893C4.19061 26.7389 6.54239 27.5405 10.2024 27.8313C13.1258 28.0637 16.9995 27.9191 20.2085 27.0242C23.4724 26.1138 26.5296 24.254 28.598 22.4891C30.7846 20.6231 31.8893 18.8784 31.8681 19.0386L31.8697 19.0393Z" fill="url(#paint1_linear_21320_2341)" style=""/>
<path d="M12.2504 31.4813C10.9422 31.2208 9.32869 30.7139 7.68226 29.7195C5.81038 28.589 4.67362 27.2976 3.90404 26.4081C3.40064 25.8273 2.6295 24.9293 1.88732 23.5718C1.11774 22.1645 0.579891 20.6313 0.274562 18.9737C-0.249974 16.1249 -0.0229363 13.3314 0.955677 10.5931C1.64775 8.65629 2.6295 6.96836 3.90169 5.52841C4.74173 4.57753 5.5896 3.88867 5.5896 3.88867C5.5896 3.88867 4.96407 6.65347 4.47947 10.1522C3.79209 15.1095 4.96642 19.5825 4.96642 19.5825C5.77985 22.8339 7.09275 25.1346 7.65175 26.0512C9.20265 28.5968 10.9626 30.3671 12.2512 31.4813H12.2504Z" fill="url(#paint2_linear_21320_2341)" style=""/>
<defs>
<linearGradient id="paint0_linear_21320_2341" x1="9.34793" y1="5.18435" x2="27.4375" y2="31.2034" gradientUnits="userSpaceOnUse">
<stop offset="0.6" style="stop-color:black;stop-opacity:1;"/>
<stop offset="1" stop-color="#352711" style="stop-color:#352711;stop-color:color(display-p3 0.2078 0.1529 0.0667);stop-opacity:1;"/>
</linearGradient>
<linearGradient id="paint1_linear_21320_2341" x1="5.84485" y1="29.9468" x2="32.7506" y2="23.7494" gradientUnits="userSpaceOnUse">
<stop stop-color="#352711" style="stop-color:#352711;stop-color:color(display-p3 0.2078 0.1529 0.0667);stop-opacity:1;"/>
<stop offset="1" stop-color="#F2A50A" style="stop-color:#F2A50A;stop-color:color(display-p3 0.9490 0.6471 0.0392);stop-opacity:1;"/>
</linearGradient>
<linearGradient id="paint2_linear_21320_2341" x1="2.55199" y1="6.77319" x2="6.99182" y2="29.1723" gradientUnits="userSpaceOnUse">
<stop stop-color="#352711" style="stop-color:#352711;stop-color:color(display-p3 0.2078 0.1529 0.0667);stop-opacity:1;"/>
<stop offset="1" stop-color="#F2A50A" style="stop-color:#F2A50A;stop-color:color(display-p3 0.9490 0.6471 0.0392);stop-opacity:1;"/>
</linearGradient>
</defs>
</svg>
