<svg width="32" height="32" viewBox="0 0 32 32" fill="none" xmlns="http://www.w3.org/2000/svg">
<g clip-path="url(#clip0_21320_2317)">
<path d="M17.7129 9.1934C25.3496 6.92535 31.2924 12.5811 31.7518 21.2514C32.8715 13.5285 30.0292 7.61438 26.6128 4.77215C25.0051 4.59989 23.1103 4.54247 21.5025 4.39893C20.6412 5.40376 18.5742 8.18857 17.7129 9.1934Z" fill="#A31E22" style="fill:#A31E22;fill:color(display-p3 0.6392 0.1176 0.1333);fill-opacity:1;"/>
<path d="M30.8906 11.2449C27.4167 4.32593 21.0433 7.45526 17.7704 9.57976C10.7079 14.2307 7.03308 4.03884 15.3875 1.39757C20.3255 -0.152733 29.0819 4.23981 30.8906 11.2449Z" fill="#EC1C24" style="fill:#EC1C24;fill:color(display-p3 0.9255 0.1098 0.1412);fill-opacity:1;"/>
<path d="M20.9 21.1177C19.2062 28.8118 11.3398 31.1947 3.41602 27.405C9.70337 32.1134 16.3352 32.5153 20.4981 30.965C21.4168 29.6444 22.3929 28.0366 23.3116 26.716C22.8523 25.4815 21.3881 22.3522 20.9 21.1177Z" fill="#659941" style="fill:#659941;fill:color(display-p3 0.3961 0.6000 0.2549);fill-opacity:1;"/>
<path d="M12.7168 31.5085C20.5545 31.853 20.8703 24.8479 20.5545 21.0009C19.8654 12.6464 30.6889 14.3977 28.9663 22.8957C27.9328 27.9198 19.808 33.3459 12.7168 31.5085Z" fill="#A6CE38" style="fill:#A6CE38;fill:color(display-p3 0.6510 0.8078 0.2196);fill-opacity:1;"/>
<path d="M8.6146 18.0976C2.90143 12.5854 5.02592 4.719 12.4904 0.125488C5.08334 2.88159 1.23628 8.22154 0.375 12.528C1.00661 13.9921 1.8966 15.6573 2.5282 17.1215C3.82013 17.4086 7.29396 17.8105 8.6146 18.0976Z" fill="#116D98" style="fill:#116D98;fill:color(display-p3 0.0667 0.4275 0.5961);fill-opacity:1;"/>
<path d="M4.0485 5.71924C-0.430169 12.0927 5.45526 16.0546 8.90038 17.8346C16.451 21.6817 9.18748 29.8064 2.81399 23.8923C-0.946939 20.361 -1.32016 10.6573 4.0485 5.71924Z" fill="#28ABE2" style="fill:#28ABE2;fill:color(display-p3 0.1569 0.6706 0.8863);fill-opacity:1;"/>
</g>
<defs>
<clipPath id="clip0_21320_2317">
<rect width="32" height="32" fill="white" style="fill:white;fill-opacity:1;"/>
</clipPath>
</defs>
</svg>
