<svg width="32" height="32" viewBox="0 0 32 32" fill="none" xmlns="http://www.w3.org/2000/svg">
<path d="M0 19.3928V12.5788H1.18721L3.84527 16.5593V12.5788H5.20216V19.3928H4.04314L1.27236 15.2933V19.3928H0Z" fill="#6BB22D" style="fill:#6BB22D;fill:color(display-p3 0.4196 0.6980 0.1765);fill-opacity:1;"/>
<path d="M21.6253 19.3928V12.5788H22.8131L25.4706 16.5593V12.5788H26.8281V19.3928H25.6685L22.8977 15.2933V19.3928H21.6253Z" fill="#6BB22D" style="fill:#6BB22D;fill:color(display-p3 0.4196 0.6980 0.1765);fill-opacity:1;"/>
<path d="M6.02239 12.5788V19.3928H10.6873V18.1774H7.40746V16.5593H10.1219V15.3784H7.40746V13.7666H10.6873V12.5788H6.02239Z" fill="#6BB22D" style="fill:#6BB22D;fill:color(display-p3 0.4196 0.6980 0.1765);fill-opacity:1;"/>
<path d="M11.14 13.7385V12.5788H15.7204V13.7385H14.1932V19.3928H12.8644V13.7666L11.14 13.7385Z" fill="#6BB22D" style="fill:#6BB22D;fill:color(display-p3 0.4196 0.6980 0.1765);fill-opacity:1;"/>
<path d="M27.4196 13.7385V12.5788H32V13.7385H30.4728V19.3928H29.1441V13.7666L27.4196 13.7385Z" fill="#6BB22D" style="fill:#6BB22D;fill:color(display-p3 0.4196 0.6980 0.1765);fill-opacity:1;"/>
<path d="M21.2339 19.3928V18.1774H17.954V16.5593H20.6678V15.3784H17.954V13.7666H21.2339V12.5788H16.7662V10.3169H16.3704V21.683H16.7662V19.3928H21.2339Z" fill="#6BB22D" style="fill:#6BB22D;fill:color(display-p3 0.4196 0.6980 0.1765);fill-opacity:1;"/>
</svg>
