<svg width="32" height="32" viewBox="0 0 32 32" fill="none" xmlns="http://www.w3.org/2000/svg">
<path d="M17.4615 12.4655C13.9977 12.6808 15.553 17.192 19.3823 16.9539C23.1281 16.721 21.152 12.2362 17.4615 12.4655Z" fill="#F19021"/>
<path d="M16 9.68137C13.7929 9.68137 11.6354 10.3358 9.80023 11.562C7.96509 12.7882 6.53478 14.5311 5.69015 16.5702C4.84553 18.6093 4.62454 20.8531 5.05513 23.0178C5.48571 25.1825 6.54853 27.1709 8.10919 28.7315C9.66985 30.2922 11.6583 31.355 13.8229 31.7856C15.9876 32.2162 18.2314 31.9952 20.2705 31.1505C22.3096 30.3059 24.0524 28.8756 25.2787 27.0405C26.5049 25.2053 27.1593 23.0478 27.1593 20.8407C27.1593 17.881 25.9836 15.0426 23.8908 12.9499C21.7981 10.8571 18.9597 9.68137 16 9.68137ZM16 30.8305C14.0247 30.8308 12.0936 30.2454 10.451 29.1482C8.80837 28.051 7.52802 26.4913 6.77184 24.6665C6.01567 22.8416 5.81764 20.8334 6.2028 18.896C6.58796 16.9586 7.539 15.1789 8.93566 13.782C10.3323 12.3851 12.1119 11.4337 14.0492 11.0482C15.9866 10.6627 17.9948 10.8604 19.8198 11.6162C21.6448 12.3721 23.2047 13.6522 24.3021 15.2946C25.3996 16.937 25.9854 18.868 25.9854 20.8433C25.9854 23.4918 24.9334 26.0318 23.0609 27.9047C21.1883 29.7776 18.6485 30.83 16 30.8305ZM15.6635 1.89093C13.0142 3.89346 13.4747 6.96447 13.4747 6.96447C13.4747 6.96447 11.8096 2.64221 9.64712 0C9.35539 3.40139 10.4212 7.90818 10.4212 7.90818C10.4212 7.90818 9.06718 5.11395 5.74926 4.95755C8.50131 6.53918 9.56891 9.38876 9.81319 10.1532C11.4532 9.14087 13.3287 8.57334 15.2549 8.50656C15.0379 7.79483 14.2664 4.79587 15.6635 1.89093Z" fill="#F19021"/>
<path d="M8.43176 21.9297V24.2653H7.46082V18.248H9.5064C10.1988 18.248 10.7202 18.4129 11.0705 18.7427C11.4208 19.0725 11.5965 19.5242 11.5977 20.0977C11.5977 20.6665 11.4187 21.114 11.0608 21.4403C10.7029 21.7666 10.1859 21.9297 9.50991 21.9297H8.43176ZM10.6083 20.0977C10.6083 19.7568 10.5131 19.4967 10.3227 19.3174C10.1323 19.1382 9.82683 19.0488 9.40623 19.0494H8.43176V21.1372H9.40359C10.2067 21.1372 10.6083 20.7907 10.6083 20.0977ZM13.2645 23.507H15.3444V24.2653H12.2927V18.248H13.2645V23.507ZM19.7932 22.9613H17.2538L16.7933 24.2653H15.753L17.9699 18.3421H19.0858L21.294 24.2653H20.2536L19.7932 22.9613ZM19.5208 22.2118L18.5235 19.4L17.5262 22.2118H19.5208ZM25.1945 18.248L23.1919 22.0747V24.2653H22.214V22.0747L20.2026 18.248H21.3282L22.7095 21.0352L24.09 18.248H25.1945Z" fill="white"/>
</svg>
