<svg width="32" height="32" viewBox="0 0 32 32" fill="none" xmlns="http://www.w3.org/2000/svg">
<g clip-path="url(#clip0_21320_2366)">
<path d="M31.9539 19.8393C31.9284 19.504 31.9232 19.1603 31.8469 18.838C31.5191 17.4492 31.0991 16.0968 30.3803 14.8701C30.2427 14.5991 30.1173 14.3196 29.9656 14.057C28.8715 12.1652 27.5312 10.4812 26.082 8.89123C24.462 7.1131 22.7201 5.47469 20.8678 3.976C19.6045 2.95422 18.2957 1.99484 17.0035 1.0131C16.7274 0.803532 16.631 0.81657 16.3574 1.02055C15.8507 1.39965 15.3431 1.77781 14.8373 2.15784C14.2246 2.6189 13.6135 3.08182 13.0007 3.54288C12.7816 3.70682 12.6983 3.69936 12.5046 3.50563C12.4564 3.45813 12.4134 3.40503 12.3669 3.35567C11.5464 2.48571 10.7329 1.60643 9.9009 0.748575C9.49855 0.333152 9.00499 0.163628 8.43426 0.257705C8.02053 0.326633 7.71981 0.579983 7.44017 0.878046C6.24003 2.15691 5.03989 3.43577 3.84153 4.7165C2.72029 5.91524 1.59994 7.114 0.48397 8.31746C0.177142 8.64714 0.00356835 9.04954 6.14879e-05 9.51802C-0.00432372 10.0443 0.226238 10.4616 0.567249 10.823C1.29048 11.5886 2.01372 12.3552 2.73608 13.1227C2.93244 13.3304 3.13407 13.5335 3.31729 13.7533C3.3769 13.8259 3.44266 13.975 3.41197 14.0374C3.20771 14.4621 2.97803 14.8738 2.75624 15.2892C2.74572 15.319 2.73432 15.3488 2.7238 15.3796C2.72029 15.3954 2.71679 15.4113 2.71328 15.4271C2.45116 16.0446 2.16363 16.6519 1.93657 17.2844C1.77176 17.7436 1.68059 18.2345 1.56926 18.7151C1.50088 19.0113 1.42023 19.3112 1.40708 19.613C1.38078 20.2231 1.3948 20.8341 1.39743 21.4451C1.39831 21.6053 1.40971 21.7665 1.43513 21.9248C1.49211 22.2871 1.56049 22.6467 1.62449 23.0081C1.62799 23.0463 1.62537 23.0854 1.63501 23.1217C2.16012 25.0265 3.14459 26.5903 4.67437 27.7491C5.44491 28.3322 6.27595 28.7867 7.19821 29.0224C7.63738 29.135 8.00428 29.2411 8.5342 29.2785C8.85829 29.3013 9.36615 29.2766 9.36615 29.2766C9.4845 29.2664 9.60376 29.2562 9.72211 29.245C10.1832 29.1677 10.6504 29.1183 11.1036 29.0065C12.7404 28.6051 14.1272 27.7389 15.2625 26.4218C15.4816 26.1675 15.6894 25.902 15.9375 25.5984C15.9296 25.7428 15.9375 25.835 15.9164 25.9188C15.8429 26.215 15.7604 26.5084 15.6789 26.8027C15.4536 27.614 15.0451 28.3145 14.4911 28.9124C13.0972 30.4195 11.3377 31.024 9.41 31.1917C9.26446 31.2047 9.13824 31.2317 9.1102 31.3947C9.08476 31.5456 9.07422 31.7142 9.27409 31.7636C9.34689 31.7599 9.41963 31.7533 9.49237 31.7533C14.3113 31.7533 19.1311 31.7552 23.9501 31.7561C23.9939 31.7561 24.0377 31.7608 24.0807 31.7636C24.2814 31.7095 24.2578 31.5409 24.2394 31.3891C24.2201 31.228 24.1105 31.1898 23.9685 31.188C23.744 31.1842 23.5179 31.1796 23.2978 31.1432C22.4572 31.0026 21.6436 30.7623 20.8669 30.3879C19.4949 29.7265 18.436 28.714 17.8284 27.2303C17.6207 26.7236 17.4979 26.1768 17.3366 25.6478C17.3682 25.6291 17.4006 25.6105 17.4322 25.5928C17.4997 25.6711 17.5733 25.7446 17.6347 25.8275C18.7647 27.3672 20.2111 28.4039 21.9793 28.9376C22.9638 29.2347 23.9588 29.3577 24.9818 29.2487C25.8427 29.1565 26.658 28.905 27.44 28.5231C29.2669 27.6317 30.5345 26.1573 31.3507 24.2301C31.5208 23.8287 31.6058 23.3853 31.7303 22.9615C31.7566 22.8665 31.7969 22.7724 31.8066 22.6755C31.8749 22.0292 31.9494 21.3836 31.9942 20.7363C32.0143 20.4391 31.9775 20.1374 31.9539 19.8393ZM1.25104 10.4318C1.1283 10.3005 1.01872 10.1523 0.91791 10.0014C0.657543 9.60748 0.688227 9.23771 1.01259 8.88467C1.45004 8.40685 1.89274 7.93463 2.33545 7.46331C4.00371 5.68519 5.67282 3.90801 7.34375 2.13176C7.60673 1.85233 7.87674 1.58128 8.14324 1.30557C8.48163 0.957219 9.00232 0.948834 9.35301 1.29346C9.5292 1.46765 9.69491 1.653 9.86498 1.8337C12.011 4.11386 14.157 6.39306 16.3013 8.67417C16.5012 8.8875 16.7037 9.10076 16.723 9.43424C16.744 9.79654 16.5915 10.0741 16.3635 10.3172C15.1117 11.6501 9.50818 17.6169 9.50818 17.6169C9.20135 17.941 8.82704 18.0742 8.4001 17.9336C8.30277 17.9019 8.13621 17.7482 8.13621 17.7482C8.13621 17.7482 2.70364 11.9892 1.25104 10.4318Z" fill="#0666FE" style="fill:#0666FE;fill:color(display-p3 0.0235 0.4000 0.9961);fill-opacity:1;"/>
</g>
<defs>
<clipPath id="clip0_21320_2366">
<rect width="32" height="32" fill="white" style="fill:white;fill-opacity:1;" transform="translate(0 -0.00195312)"/>
</clipPath>
</defs>
</svg>
