<svg width="75" height="32" viewBox="0 0 75 32" fill="none" xmlns="http://www.w3.org/2000/svg">
<g clip-path="url(#clip0_121_460)">
<path d="M49.5862 31.3042C49.5482 31.3029 49.5103 31.3002 49.4736 31.2989C49.3833 31.2505 49.2916 31.202 49.2013 31.1549C46.199 29.5837 44.6344 27.1013 44.6134 23.7194C44.5794 18.524 44.603 13.3287 44.6056 8.13338C44.6069 6.5465 45.0272 5.07222 45.9005 3.74721C46.7987 2.38422 47.9522 1.30797 49.5089 0.720093C49.9148 0.772465 50.2408 1.00945 50.58 1.20454C55.0041 3.74721 59.4191 6.30559 63.8458 8.84303C66.5744 10.4076 68.3485 13.3785 67.9688 16.8219C67.6559 19.6605 66.2144 21.7436 63.7516 23.1564C61.6802 24.3452 59.6181 25.5511 57.5481 26.7412C54.8954 28.2679 52.2402 29.7841 49.5862 31.3042ZM49.0245 17.5499C49.0271 17.5499 49.031 17.5499 49.0337 17.5499C49.0337 19.6828 49.0193 21.8156 49.0402 23.9472C49.0507 25.0313 49.505 25.4542 50.597 25.5C50.7685 25.5066 50.9413 25.5066 51.1128 25.5039C52.3829 25.4843 52.8411 25.0077 52.8293 23.7272C52.8228 23.0228 52.8464 22.3158 52.8071 21.6127C52.7848 21.2094 52.9302 21.1191 53.3033 21.1374C53.9043 21.1662 54.5079 21.1453 55.1115 21.1453C58.8901 21.1453 61.3791 18.4965 61.1356 14.7349C60.9693 12.1713 58.7592 9.82239 56.2231 9.60635C54.3521 9.44661 52.4706 9.51732 50.597 9.571C49.3819 9.60635 49.0271 10.0489 49.0258 11.2548C49.0232 13.3536 49.0245 15.4511 49.0245 17.5499Z" fill="#29378D"/>
<path d="M49.5862 31.3042C52.2402 29.7841 54.8954 28.2679 57.5468 26.7426C59.6168 25.5524 61.6789 24.3465 63.7503 23.1577C66.2131 21.7449 67.6546 19.6618 67.9675 16.8233C68.3472 13.3798 66.5731 10.409 63.8445 8.84435C59.4178 6.30692 55.0028 3.74854 50.5786 1.20586C50.2395 1.01078 49.9135 0.773794 49.5076 0.721422C49.5116 0.700473 49.5168 0.679525 49.522 0.658576C52.3043 -0.466117 54.902 -0.0693973 57.4551 1.44678C61.7104 3.97243 66.0193 6.40905 70.3086 8.8784C75.843 12.0639 75.8718 19.8504 70.3478 23.0595C65.8739 25.6585 61.3948 28.247 56.9065 30.821C54.555 32.1696 52.1079 32.3791 49.5862 31.3042Z" fill="#0192EE"/>
<path d="M49.5221 0.658534C49.5168 0.679483 49.5129 0.700431 49.5077 0.72138C47.9509 1.30926 46.7961 2.38551 45.8979 3.7485C45.0246 5.07351 44.6043 6.54779 44.603 8.13467C44.5991 13.33 44.5768 18.5253 44.6109 23.7206C44.6331 27.1026 46.1977 29.5837 49.1987 31.1562C49.2903 31.2033 49.3807 31.2531 49.471 31.3002C46.6652 32.493 44.006 32.1382 41.5576 30.4099C39.333 28.84 38.1992 26.6194 38.1861 23.8935C38.1599 18.6288 38.1573 13.364 38.1848 8.10063C38.2097 3.38058 42.1559 -0.269764 46.876 0.0156642C47.7951 0.0693458 48.6763 0.298475 49.5221 0.658534Z" fill="#FE0166"/>
<path d="M16.2068 12.1463C14.7744 10.8959 14.5243 9.13231 15.6045 7.95C16.6074 6.8515 17.863 6.63415 19.2391 7.01778C19.6699 7.13824 19.9946 7.20108 20.297 6.79258C20.5039 6.5137 20.7632 6.55036 20.9884 6.81614C21.0774 6.92089 21.1821 7.01123 21.2803 7.10812C21.7831 7.6122 21.8027 7.63184 21.3026 8.12414C21.0604 8.36244 21.1808 8.54443 21.2594 8.76439C21.8669 10.4783 21.0014 12.2157 19.3282 12.6439C18.955 12.7394 18.5766 12.7146 18.1982 12.6989C18.0437 12.6923 17.8814 12.6452 17.736 12.6792C17.4454 12.7486 17.0172 12.8049 17.0735 13.1728C17.1233 13.4936 17.52 13.3941 17.7845 13.3496C18.464 13.237 19.1409 13.1283 19.8362 13.2029C20.8561 13.3129 21.5671 13.8406 21.7517 14.655C21.9913 15.7076 21.6378 16.5953 20.7422 17.1426C19.8126 17.7109 18.7913 17.9073 17.7203 17.7698C17.2503 17.7096 17.0801 17.7632 17.0892 18.3079C17.1272 20.3544 17.1023 22.4008 17.1063 24.4473C17.1076 25.1412 17.1076 25.839 17.8251 26.2554C17.9887 26.351 17.8748 26.4531 17.8054 26.55C17.5017 26.9781 16.8169 27.2033 16.2264 27.079C15.6411 26.9559 15.4238 26.5317 15.3466 26.0066C15.3047 25.7186 15.2916 25.424 15.2916 25.1333C15.2876 22.571 15.2994 20.0087 15.2785 17.4464C15.2745 17.0353 15.3714 16.7171 15.6713 16.4513C15.7223 16.4055 15.776 16.3597 15.814 16.3034C16.1609 15.7823 16.4961 15.5675 17.1626 15.9643C17.8617 16.3819 18.6918 16.2903 19.4656 16.0035C19.8113 15.8752 20.0771 15.6749 20.0339 15.2507C19.9907 14.8291 19.6516 14.7453 19.3321 14.6877C18.9236 14.6144 18.5085 14.6654 18.0974 14.7204C17.5331 14.7964 16.9622 14.8369 16.4005 14.7322C15.8677 14.6327 15.412 14.3957 15.2732 13.8118C15.1384 13.2435 15.3806 12.8075 15.8061 12.4527C15.924 12.3545 16.0497 12.2655 16.2068 12.1463ZM19.5023 9.80791C19.5272 8.95948 19.027 8.37291 18.2558 8.3441C17.4048 8.31268 16.8064 8.8351 16.7763 9.63639C16.7423 10.5869 17.2765 11.2246 18.1223 11.2429C18.9786 11.2612 19.4761 10.7441 19.5023 9.80791Z" fill="#2B3A8E"/>
<path d="M23.4773 12.1451C22.8318 11.658 22.3906 11.0858 22.261 10.3107C21.9468 8.42925 23.2862 6.88688 25.2776 6.84891C25.7267 6.84106 26.1876 6.85808 26.5974 7.03745C26.9457 7.18933 27.1709 7.1278 27.3908 6.8476C27.6514 6.51373 27.9237 6.52028 28.2 6.84237C28.3231 6.98508 28.4605 7.11732 28.6006 7.24432C28.8769 7.49571 28.8874 7.74841 28.5941 7.97884C28.3335 8.1831 28.3414 8.37294 28.4632 8.67801C29.1767 10.4705 28.1489 12.8128 25.6809 12.7067C25.2933 12.6897 24.8914 12.5667 24.5287 12.8246C24.4174 12.9045 24.276 12.9673 24.2956 13.1323C24.3192 13.3287 24.496 13.381 24.64 13.3758C24.9464 13.3653 25.2554 13.3274 25.5578 13.2684C26.1392 13.1545 26.7244 13.1375 27.3031 13.237C28.1332 13.3797 28.7931 13.7555 29.0105 14.6537C29.2383 15.599 29.0105 16.4016 28.2275 16.9908C26.7283 18.1194 24.1569 18.0932 22.4404 16.9083C22.2963 16.8088 22.2544 16.725 22.3841 16.5888C22.4548 16.5142 22.5176 16.4317 22.5818 16.3505C22.8187 16.056 22.9994 15.6527 23.3071 15.4943C23.6685 15.3096 23.9029 15.8098 24.2367 15.9407C25.059 16.2615 25.8721 16.3126 26.7022 16.0114C27.0426 15.8884 27.3542 15.7077 27.3175 15.29C27.2769 14.8435 26.9143 14.7231 26.5411 14.6759C26.164 14.6288 25.7856 14.6576 25.4086 14.7126C24.8783 14.7899 24.3454 14.8121 23.8125 14.7558C23.1133 14.6825 22.6773 14.3539 22.5372 13.8118C22.3762 13.1873 22.6852 12.7552 23.1395 12.3886C23.2312 12.3166 23.3307 12.2498 23.4773 12.1451ZM26.8017 9.7595C26.8069 8.92024 26.2531 8.34414 25.4426 8.34414C24.6151 8.34414 24.0508 8.90714 24.0469 9.73724C24.043 10.6236 24.6217 11.2416 25.457 11.2429C26.2936 11.2443 26.7964 10.6904 26.8017 9.7595Z" fill="#2B3A8E"/>
<path d="M7.33097 21.6258C7.33097 20.0101 7.33097 18.3931 7.33097 16.7775C7.33097 16.5523 7.29169 16.3297 7.6452 16.3244C9.08806 16.3035 10.5335 16.1673 11.962 16.5156C13.486 16.8874 14.2716 17.7477 14.3829 19.1944C14.5125 20.8874 13.7911 22.1666 12.381 22.7309C11.4998 23.0844 10.5728 23.1551 9.6419 23.0857C9.27136 23.0582 9.22161 23.1813 9.22685 23.4955C9.24125 24.5102 9.22161 25.5249 9.23863 26.5383C9.24387 26.8447 9.17578 26.9848 8.84322 26.9468C8.35485 26.8918 7.7146 27.1563 7.41477 26.8369C7.17778 26.5842 7.3349 25.9557 7.33228 25.4948C7.32835 24.2052 7.33097 22.9155 7.33097 21.6258ZM10.0452 17.9598C9.89066 17.9598 9.73486 17.9702 9.58167 17.9571C9.31588 17.9362 9.22292 18.0423 9.22685 18.3133C9.23994 19.2403 9.2347 20.1673 9.22947 21.0942C9.22816 21.2684 9.25565 21.3744 9.46907 21.398C10.1617 21.4739 10.8438 21.4517 11.4998 21.2029C12.1806 20.9437 12.4451 20.4003 12.4569 19.7051C12.47 18.9706 12.199 18.528 11.5522 18.2413C11.073 18.0279 10.5636 17.965 10.0452 17.9598Z" fill="#2B3A8E"/>
<path d="M0.048621 9.43605C0.048621 7.81906 0.0604058 6.20207 0.0394569 4.58507C0.035529 4.21847 0.146819 4.12812 0.50295 4.1242C1.8607 4.10979 3.22107 3.97755 4.56442 4.30095C6.32412 4.72517 7.09661 5.63775 7.0953 7.3045C7.094 9.15193 6.2089 10.3303 4.51073 10.7257C3.78538 10.8946 3.04693 10.9679 2.30586 10.8841C1.99556 10.8488 1.91962 10.9391 1.92355 11.2324C1.93664 12.2642 1.91569 13.2972 1.93533 14.3289C1.94188 14.6641 1.85285 14.7963 1.50719 14.7584C1.03453 14.706 0.400824 14.9626 0.128489 14.6523C-0.105877 14.3852 0.0525502 13.7698 0.0499316 13.3077C0.0460037 12.0167 0.048621 10.727 0.048621 9.43605ZM1.91831 7.51006C1.91831 7.97486 1.92355 8.43967 1.91569 8.90316C1.91307 9.08516 1.95366 9.18728 2.16315 9.20168C2.85446 9.25013 3.54185 9.26453 4.20043 9.00791C4.86163 8.74997 5.15099 8.27208 5.16015 7.45769C5.16801 6.75721 4.85116 6.26884 4.20698 6.01745C3.6191 5.78701 3.00111 5.76476 2.37788 5.75821C2.03746 5.75428 1.87903 5.8407 1.90915 6.22039C1.9445 6.64854 1.91831 7.08061 1.91831 7.51006Z" fill="#2B3A8E"/>
<path d="M23.1487 26.2672C22.1523 27.1851 20.9897 27.3134 19.7838 26.8852C18.1039 26.2882 17.7923 23.8529 19.226 22.6863C20.1923 21.8994 21.351 21.7462 22.5373 21.8641C23.0269 21.9125 23.0178 21.758 22.8921 21.4137C22.7284 20.9632 22.3762 20.7446 21.9363 20.6451C21.2293 20.484 20.5314 20.5521 19.8558 20.793C19.5979 20.8847 19.4892 20.8585 19.429 20.5783C19.1619 19.3528 18.7926 19.5243 20.2434 19.1656C20.9543 18.9888 21.6836 19.0137 22.3945 19.1394C23.9173 19.4078 24.6492 20.2772 24.7447 21.9361C24.7984 22.8604 24.7814 23.79 24.8102 24.717C24.8285 25.3167 24.8298 25.9281 25.2855 26.406C25.474 26.6037 25.3025 26.719 25.1873 26.8303C24.7984 27.206 23.9919 27.1969 23.5795 26.8041C23.4223 26.6483 23.3006 26.4571 23.1487 26.2672ZM22.0214 23.2113C21.6561 23.2074 21.1612 23.2611 20.7199 23.5282C20.2578 23.8084 20.0954 24.2391 20.1438 24.7602C20.1818 25.1556 20.3861 25.4411 20.7631 25.572C21.9612 25.9871 22.9366 25.3193 22.9837 24.0624C23.0152 23.2231 22.9955 23.2035 22.0214 23.2113Z" fill="#2B3A8E"/>
<path d="M6.97748 10.8881C6.96569 9.29865 7.49072 7.97232 8.98595 7.22471C11.5587 5.93897 14.2323 7.56382 14.3934 10.4967C14.4602 11.713 14.2742 12.8835 13.3996 13.8092C12.2278 15.0478 10.7574 15.1512 9.25043 14.6603C7.77223 14.1797 7.15161 12.9778 6.98271 11.5074C6.95653 11.3032 6.97748 11.095 6.97748 10.8881ZM12.5407 10.896C12.5381 10.4299 12.4949 9.96639 12.3417 9.52516C12.1086 8.85741 11.6766 8.40963 10.929 8.35202C10.0805 8.28655 9.49658 8.58377 9.15485 9.30781C8.72409 10.2217 8.74111 11.1762 9.0069 12.1267C9.24912 12.9922 9.80165 13.4059 10.6501 13.4177C11.4474 13.4295 12.0785 12.9686 12.3456 12.1647C12.4818 11.7549 12.5316 11.3281 12.5407 10.896Z" fill="#2B3A8E"/>
<path d="M25.0773 19.2416C25.1546 19.2193 25.1703 19.2101 25.1873 19.2101C25.7542 19.2128 26.4167 19.036 26.8619 19.2704C27.29 19.4956 27.3306 20.217 27.5349 20.7211C28.0376 21.961 28.5234 23.2061 29.0576 24.5521C29.4032 23.5832 29.7175 22.7047 30.0304 21.8261C30.3014 21.0667 30.5856 20.3126 30.8356 19.5466C30.926 19.2678 31.0582 19.1748 31.3476 19.1918C31.8242 19.218 32.3047 19.1997 32.8389 19.1997C32.3256 20.5613 31.8333 21.8759 31.3371 23.1878C30.7243 24.8074 30.1116 26.427 29.4949 28.0453C29.0615 29.1831 27.3751 30.1703 26.1941 29.9962C26.0501 29.9753 25.9716 29.9307 25.9755 29.7789C25.9781 29.6754 25.9742 29.572 25.9742 29.4699C25.9768 29.1438 25.8747 28.7589 26.0121 28.5062C26.1693 28.2182 26.604 28.3975 26.9143 28.3308C27.9591 28.1056 28.2367 27.7442 27.963 26.702C27.5231 25.0235 26.7427 23.468 26.1221 21.8549C25.7909 20.9895 25.4361 20.1332 25.0773 19.2416Z" fill="#2B3A8E"/>
<path d="M32.4081 10.9039C32.4081 12.0377 32.395 13.1716 32.416 14.3041C32.4225 14.6472 32.3583 14.8134 31.976 14.765C31.523 14.7074 30.9129 14.9614 30.651 14.6563C30.4258 14.3945 30.5725 13.8066 30.5711 13.3641C30.5659 11.8872 30.5581 10.4089 30.5777 8.93205C30.5829 8.57199 30.4795 8.41749 30.1181 8.48165C29.69 8.55759 29.5669 8.39 29.5813 7.95793C29.614 7.0113 29.5892 7.00999 30.5162 7.00999C31.015 7.00999 31.5152 7.02832 32.0114 7.00344C32.3256 6.98773 32.4225 7.07546 32.4173 7.40016C32.3963 8.56806 32.4081 9.73596 32.4081 10.9039Z" fill="#2B3A8E"/>
<path d="M31.5047 4.01429C32.0939 4.01691 32.5626 4.48041 32.5574 5.05388C32.5508 5.62998 32.0677 6.09609 31.4877 6.0843C30.9364 6.07252 30.4716 5.61164 30.4585 5.06043C30.4455 4.48957 30.922 4.01167 31.5047 4.01429Z" fill="#FE0166"/>
<path d="M49.0245 17.5499C49.0245 15.451 49.0232 13.3535 49.0245 11.2547C49.0258 10.0488 49.3806 9.6063 50.5957 9.57095C52.4706 9.51726 54.3521 9.44656 56.2218 9.6063C58.7579 9.82233 60.9693 12.1712 61.1343 14.7348C61.3778 18.4965 58.8888 21.1439 55.1102 21.1452C54.5079 21.1452 53.9043 21.1662 53.302 21.1374C52.9289 21.119 52.7848 21.2094 52.8058 21.6126C52.8438 22.3157 52.8215 23.0228 52.828 23.7272C52.8398 25.0077 52.3803 25.4842 51.1115 25.5039C50.94 25.5065 50.7672 25.5065 50.5957 25.5C49.505 25.4554 49.0494 25.0312 49.0389 23.9471C49.018 21.8143 49.0324 19.6814 49.0324 17.5499C49.0297 17.5499 49.0271 17.5499 49.0245 17.5499ZM52.8084 15.3489C52.8084 15.8648 52.8176 16.3806 52.8045 16.8965C52.7979 17.1518 52.8621 17.2684 53.1462 17.2618C53.9554 17.2435 54.7645 17.2723 55.5737 17.2448C56.6565 17.2081 57.4041 16.4147 57.4041 15.3476C57.4054 14.2674 56.6185 13.4413 55.5383 13.4164C54.7645 13.398 53.9881 13.4268 53.2143 13.4059C52.9053 13.398 52.7835 13.474 52.8005 13.8039C52.828 14.3159 52.8084 14.833 52.8084 15.3489Z" fill="#FDFDFE"/>
<path d="M52.8084 15.349C52.8084 14.8331 52.828 14.316 52.8018 13.8014C52.7848 13.4715 52.9066 13.3955 53.2156 13.4034C53.9894 13.4243 54.7658 13.3955 55.5396 13.4138C56.6198 13.4387 57.4054 14.2649 57.4054 15.3451C57.4041 16.4135 56.6564 17.2056 55.575 17.2423C54.7671 17.2697 53.9566 17.2423 53.1475 17.2593C52.8621 17.2658 52.7979 17.1493 52.8058 16.894C52.8176 16.3807 52.8084 15.8649 52.8084 15.349Z" fill="#2B3A8E"/>
</g>
<defs>
<clipPath id="clip0_121_460">
<rect width="74.48" height="32" fill="white"/>
</clipPath>
</defs>
</svg>
