<svg width="32" height="32" viewBox="0 0 32 32" fill="none" xmlns="http://www.w3.org/2000/svg">
<path d="M16 32C24.8365 32 32 24.8365 32 16C32 7.16346 24.8365 0 16 0C7.16346 0 0 7.16346 0 16C0 24.8365 7.16346 32 16 32Z" fill="black" style="fill:black;fill-opacity:1;"/>
<path d="M27.8858 20.9676L22.7658 15.8476L27.8858 10.7276C28.5258 10.0876 28.5258 9.08185 27.8858 8.44185L23.3449 3.9009C22.7049 3.2609 21.6992 3.2609 21.0592 3.9009L15.9392 9.0209L10.8192 3.9009C10.1792 3.2609 9.17345 3.2609 8.53345 3.9009L3.9925 8.44185C3.3525 9.08185 3.3525 10.0876 3.9925 10.7276L9.1125 15.8476L3.9925 20.9676C3.3525 21.6076 3.3525 22.6133 3.9925 23.2533L8.53345 27.7942C9.17345 28.4342 10.1792 28.4342 10.8192 27.7942L15.9392 22.6742L21.0592 27.7942C21.6992 28.4342 22.7049 28.4342 23.3449 27.7942L27.8858 23.2533C28.5258 22.6133 28.5258 21.6076 27.8858 20.9676Z" fill="#FF003A" style="fill:#FF003A;fill:color(display-p3 1.0000 0.0000 0.2275);fill-opacity:1;"/>
</svg>
