<svg width="32" height="32" viewBox="0 0 32 32" fill="none" xmlns="http://www.w3.org/2000/svg">
<path fill-rule="evenodd" clip-rule="evenodd" d="M8.29762 5.46426C8.78675 5.46426 9.73825 6.19995 10.1063 6.55204C10.2153 6.65643 10.2919 6.79365 10.3205 6.9422C10.4088 7.38349 9.83062 7.97924 9.64621 8.34804C9.30314 9.02019 9.06092 9.72095 8.86378 10.4473C8.54835 11.6094 8.24461 12.9301 8.24461 14.1368H20.6915C20.6915 13.4916 20.5881 12.8684 20.5219 12.2284C20.4503 11.5363 20.2453 10.8191 20.0321 10.161C19.7636 9.32056 19.4444 8.40616 18.9485 7.66951C18.7648 7.39658 18.4639 7.1586 18.6326 6.80437C18.8472 6.41422 20.1983 5.32454 20.717 5.47274C21.0659 5.53816 21.3748 6.21825 21.5164 6.48631C21.7074 6.8501 21.4337 6.85792 21.4337 7.17545C21.4337 7.65445 22.0544 8.35153 22.2395 8.80394C22.7943 10.24 23.5425 11.7693 23.6835 13.3205C23.7044 13.5965 23.7572 13.8654 23.8086 14.1368C25.6004 14.145 27.3604 14.1721 29.1415 14.334C29.2455 14.3489 29.2499 14.6559 29.2581 14.7242C29.2687 14.8323 29.2793 15.0062 29.2793 15.3031H29.1096V14.4655H0.165769V20.2649H29.1096C29.1096 20.1316 29.0776 19.2895 29.1457 19.2895C29.1669 19.2895 29.2072 19.281 29.2878 19.2577C29.2763 19.5923 29.2937 19.9467 29.2263 20.2755C29.2072 20.356 29.1839 20.4324 29.1711 20.4451C29.0924 20.514 28.4822 20.4976 28.3781 20.5066C28.1788 20.5257 27.8416 20.549 27.6253 20.5617C27.4091 20.5723 26.264 20.5829 22.9286 20.5829C22.6532 21.1998 22.3245 21.782 21.915 22.3217C21.3544 23.0607 20.6599 23.5623 19.9324 24.124C19.7492 24.265 19.5369 24.4099 19.4702 24.6436C19.3839 24.9408 19.6216 25.2275 19.5465 25.5278C19.4952 25.7111 19.2688 25.84 19.1118 25.9158C18.5076 26.2058 17.8078 26.2967 17.1504 26.3802C16.0714 26.5172 14.9714 26.5758 13.885 26.5223C12.9345 26.4707 11.9709 26.4072 11.0436 26.1787C10.6366 26.0785 9.8959 25.9012 9.76072 25.4281C9.67966 25.1669 9.85297 24.9047 9.78616 24.6436C9.61659 23.8522 7.88639 23.278 7.33495 22.6906C6.77284 22.0786 6.37545 21.3424 6.04996 20.5829C5.35935 20.5829 0.368224 20.5808 0.0703494 20.3009C0.049145 20.2309 0.0279407 20.0231 0.0152181 19.7242C0.00249556 19.4443 -0.00386573 18.3416 0.00249557 16.9676C0.0109773 14.9574 0.0152182 14.6563 0.0449042 14.5079C0.127208 14.1055 0.781563 14.2313 1.16237 14.2004C2.49953 14.092 3.85202 14.1368 5.19119 14.1368C5.22338 13.8525 5.27394 13.5705 5.32266 13.2886C5.52695 12.0743 5.83186 10.7931 6.36167 9.67331C6.64402 9.0701 7.56607 7.84224 7.56607 7.18605C7.56607 7.0695 7.26921 6.98782 7.26921 6.84254C7.26921 6.48644 7.71313 5.97368 7.93079 5.71871C8.0185 5.61596 8.14647 5.46426 8.29762 5.46426ZM8.85317 7.09699C8.68186 7.09699 8.43473 6.88595 8.29126 6.81497C7.9838 6.66018 7.92018 6.63474 7.89262 6.65594C7.86505 6.67714 7.80499 6.7344 7.81347 6.82557C7.8324 7.07163 8.24013 7.23641 8.41424 7.37053C8.51415 7.44748 8.9142 7.61934 8.95707 7.74796C9.01733 7.89861 8.75993 8.23618 8.7005 8.34804C8.49192 8.73311 8.31579 9.13089 8.14919 9.53549C7.96352 9.99967 7.81995 10.4758 7.6827 10.9562C7.54951 11.4223 7.44456 11.8867 7.37523 12.3663C7.29635 12.9543 7.26518 13.5444 7.24801 14.1368H7.37523C7.37523 12.8258 7.56522 11.512 8.0156 10.2776C8.17117 9.86648 8.34445 9.46312 8.53935 9.06899C8.71956 8.69628 8.95947 8.33242 9.09702 7.94092C9.13519 7.82854 9.14155 7.79037 9.12247 7.75008C8.92152 7.48417 8.39939 7.20224 8.14071 7.03762C8.07139 6.9952 7.83078 6.88317 7.94139 6.77256C8.02717 6.68106 8.24306 6.90038 8.30822 6.94644C8.44915 7.04849 8.71143 7.28783 8.90194 7.28783C9.17081 7.28783 9.14173 6.69411 9.42145 6.69411C9.58664 6.69411 9.75012 6.88457 9.75012 6.82557C9.75012 6.74062 9.49734 6.50327 9.41297 6.50327C9.12272 6.50327 9.09371 7.09699 8.85317 7.09699ZM19.1691 6.80013C19.1611 6.84 19.2519 6.72651 19.3875 6.70259C19.4299 6.69199 19.4702 6.69835 19.5041 6.71955C19.5338 6.73652 19.6504 6.88495 19.7628 7.05034C19.8837 7.22634 19.9876 7.35568 20.013 7.36204C20.1589 7.39571 20.4807 7.10398 20.5961 7.02702C20.6604 6.98416 20.865 6.76397 20.9502 6.78953C20.9714 6.79589 20.9884 6.82133 20.9884 6.84678C20.9905 6.87434 20.9672 6.92311 20.9417 6.95704C20.8573 7.06094 20.7102 7.10752 20.6067 7.19029C20.4766 7.29436 19.8222 7.63643 19.8222 7.82218C19.8222 7.83702 19.9324 8.04058 20.0681 8.27383C20.206 8.50708 20.3756 8.8209 20.4498 8.97357C20.8125 9.73097 21.032 10.538 21.2407 11.3485C21.4365 12.1561 21.5786 12.9832 21.6182 13.8145L21.6351 14.1368C21.7518 14.1368 21.773 14.1262 21.773 14.105C21.773 13.627 21.7041 13.1264 21.6436 12.6525C21.511 11.614 21.2319 10.6593 20.8824 9.67331C20.7553 9.31486 20.623 8.95968 20.4434 8.6237C20.3575 8.45748 19.9691 7.96178 20.013 7.81794C20.0549 7.68057 20.4437 7.45126 20.6067 7.3472C20.7433 7.26003 20.937 7.18044 21.01 7.02702C21.0749 6.89082 21.0948 6.69411 20.982 6.69411C20.9693 6.69411 20.77 6.80013 20.5431 6.92736C20.3162 7.0567 20.1084 7.1606 20.0809 7.1606C20.0001 7.1606 19.9419 7.0244 19.907 6.96976C19.8346 6.85662 19.5981 6.53896 19.4532 6.52447C19.4278 6.52447 19.3599 6.57748 19.2921 6.6517C19.2263 6.71955 19.1712 6.78741 19.1691 6.80013ZM9.29634 8.10419C9.07129 8.46914 8.85763 8.87257 8.72383 9.28103C8.5922 9.68283 8.41593 10.0717 8.30186 10.4791C8.12065 11.1133 7.96989 11.7719 7.84385 12.4193C7.73454 12.9807 7.67187 13.5657 7.7039 14.1368H7.84173C7.87248 13.6482 7.91496 13.1601 7.97107 12.6737C8.07526 11.7708 8.2992 10.8312 8.59024 9.97017C8.78085 9.42123 9.00993 8.90393 9.28362 8.39045C9.50114 7.98442 9.72559 7.58485 9.9664 7.19241C9.99952 7.13844 10.1807 6.95478 10.0915 6.90615C10.0512 6.88495 10.0364 6.90403 9.90703 7.10123C9.69802 7.43217 9.49932 7.76956 9.29634 8.10419ZM19.15 7.42566C19.3999 7.79138 19.6038 8.18653 19.8031 8.58129C19.9745 8.92087 20.1371 9.26776 20.2526 9.6309C20.3895 10.0611 20.4957 10.5015 20.6216 10.935C20.731 11.3226 20.834 11.7007 20.8824 12.1012C20.9218 12.4273 20.9849 12.75 21.0202 13.0766C21.0583 13.4287 21.0702 13.7831 21.0838 14.1368H21.2641C21.2641 13.9142 21.2535 13.7361 21.2407 13.5961C21.1912 12.9427 21.086 12.2745 20.946 11.6347C20.8251 11.1073 20.6692 10.5884 20.5304 10.0656C20.4229 9.66087 20.276 9.28543 20.1063 8.9036C19.9496 8.56349 19.7752 8.23441 19.5826 7.91336C19.392 7.60507 19.2063 7.24861 18.9549 6.98461C18.9125 6.9422 18.8722 6.90615 18.8637 6.90615C18.8552 6.90615 18.8446 6.91463 18.8362 6.92736C18.7968 6.99293 19.1178 7.37654 19.15 7.42566ZM31.0923 10.9795C31.6413 10.9629 32.0667 11.4671 31.9913 12.01C31.9458 12.3286 31.7182 12.6156 31.4103 12.7183C31.3191 12.7501 31.3022 12.7649 31.2873 12.8264C31.2788 12.8646 31.2046 13.5982 31.1241 14.4549C31.0414 15.3115 30.9544 16.1936 30.9311 16.4163C30.9021 16.6896 30.8744 16.9372 30.7169 17.1669C30.6118 17.3246 30.4537 17.4452 30.2759 17.5104C30.2123 17.5359 30.1041 17.5656 29.9175 17.6037L29.8348 18.5516C29.7552 18.7296 29.61 18.8748 29.432 18.9544C29.2984 19.0202 29.275 19.0244 28.7174 19.0393L28.7025 19.3298C28.6947 19.4762 28.7062 19.6669 28.6241 19.7984C28.5468 19.9143 27.7166 19.8763 27.5511 19.8874C27.2309 19.9086 24.608 19.915 14.6377 19.915C4.66744 19.915 2.04447 19.9086 1.72429 19.8874C1.54902 19.8757 0.703609 19.9173 0.6153 19.7136C0.600457 19.6733 0.577132 19.5397 0.56653 19.4167C0.555928 19.2937 0.543205 18.6109 0.534724 17.9006C0.527205 17.0435 0.534724 16.0019 0.598337 15.1122C0.677678 14.8147 1.34887 14.9184 1.61826 14.8959C1.82183 14.8769 5.16786 14.8684 14.2772 14.8641C22.9392 14.8578 26.8175 14.862 27.1801 14.879C27.6165 14.8984 28.0757 14.9023 28.5053 14.9935C28.6304 15.0189 28.6326 15.0189 28.6601 15.1122C28.675 15.1652 28.694 15.2819 28.7174 15.5321C29.026 15.5409 29.364 15.5126 29.6164 15.7229C29.985 16.03 29.9154 16.5151 29.9154 16.9464C29.9782 16.9296 30.0439 16.9149 30.0978 16.8764C30.3067 16.6245 30.3651 15.8679 30.4031 15.5257C30.4498 15.1059 30.5452 14.3001 30.613 13.7339C30.7233 12.8264 30.7339 12.7034 30.7063 12.6843C30.6894 12.6716 30.63 12.6334 30.577 12.5995C30.2338 12.3662 30.1219 11.8704 30.2929 11.5011C30.4462 11.1859 30.7426 10.9901 31.0923 10.9795ZM21.8366 11.6877C21.8366 11.816 21.8746 11.9373 21.9108 12.0588C22.0423 11.9316 22.1143 11.8764 22.1546 11.8552C22.2686 11.8007 22.447 11.8036 22.5618 11.8552L22.6423 11.8892C22.6211 11.7492 22.5978 11.6602 22.5766 11.6029C22.5379 11.4944 22.4836 11.379 22.3815 11.3166C22.2777 11.2506 22.1056 11.2566 22.0041 11.323C21.8832 11.3993 21.8366 11.5531 21.8366 11.6877ZM6.30017 12.3663C6.324 12.4616 6.41284 12.5299 6.4995 12.5656C6.58765 12.5961 6.68829 12.552 6.74971 12.485C6.77303 12.4617 6.78787 12.4362 6.78151 12.4341C6.6693 12.3593 6.5091 12.3704 6.39347 12.2878C6.3235 12.2327 6.3129 12.2306 6.3023 12.2645C6.29381 12.2857 6.29381 12.3302 6.30017 12.3663ZM22.2013 12.5253C22.3339 12.6063 22.4435 12.5524 22.5469 12.4638C22.4239 12.4617 22.3518 12.4468 22.3073 12.4299C22.2588 12.4081 22.0698 12.2329 22.0698 12.2857C22.0698 12.3761 22.1262 12.4767 22.2013 12.5253ZM6.08389 12.7543C6.04009 13.0281 5.97575 13.3218 5.97575 13.6004V13.6491C6.26553 13.4115 6.5461 13.4073 6.79848 13.6597C6.83452 13.3968 6.85573 13.225 6.86633 13.1084C6.86871 13.0823 6.90773 12.6313 6.87693 12.6313C6.78028 12.6313 6.68593 12.7161 6.58007 12.7161C6.39408 12.7161 6.26271 12.5782 6.13266 12.4638L6.08389 12.7543ZM22.3391 12.7161C22.2984 12.7148 22.0443 12.6229 22.0253 12.6419C21.9367 12.76 22.0763 13.2808 22.0995 13.4201C22.1165 13.5219 22.1419 13.6067 22.1525 13.6067C22.3153 13.6067 22.4022 13.4094 22.6148 13.4625C22.7416 13.4967 22.8506 13.5773 22.9583 13.6491C22.9583 13.5177 22.9434 13.3671 22.9265 13.2293C22.9041 13.0703 22.9015 12.5872 22.7823 12.468C22.778 12.4659 22.7356 12.5062 22.6869 12.5571C22.5907 12.6616 22.4819 12.7161 22.3391 12.7161ZM6.12842 13.9757C6.16843 14.1517 6.4456 14.2268 6.57795 14.0944L6.62036 14.0499C6.4274 14.052 6.34895 14.0372 6.30866 14.0181C6.23819 13.9828 6.17477 13.9352 6.11146 13.8887L6.12842 13.9757ZM22.3094 14.0796C22.3671 14.1796 22.5593 14.1368 22.6614 14.1368C22.5174 14.0592 22.3828 13.977 22.2564 13.8739C22.2648 13.9455 22.2733 14.0153 22.3094 14.0796ZM8.14919 21.0876C8.41063 21.0713 8.52485 20.8221 8.50754 20.5914C7.74419 20.5829 7.52154 20.5872 7.52154 20.5978C7.52154 20.8438 7.93351 21.1056 8.14919 21.0876ZM9.36208 20.8204C9.60065 21.0931 9.86056 21.3512 10.1509 21.5689C10.5108 21.8388 10.9049 22.0515 11.3341 22.1902C12.1578 22.4734 13.0416 22.5048 13.904 22.5337C14.5432 22.5587 15.1956 22.5733 15.8336 22.5125C16.6437 22.4225 17.461 22.2715 18.1979 21.9082C18.7848 21.6311 19.3241 21.2327 19.7204 20.7144L19.82 20.5808C19.6525 20.5808 19.6483 20.5851 19.4723 20.8204C18.8463 21.5362 18.0431 21.9082 17.2331 22.1499C16.4558 22.3473 15.6496 22.4503 14.8476 22.4341C14.087 22.4264 13.3361 22.3807 12.5788 22.3217C11.7476 22.2569 10.846 21.965 10.1827 21.4438C9.94775 21.2524 9.7283 21.0434 9.52535 20.8183C9.40202 20.659 9.17548 20.5636 9.17548 20.5914C9.17548 20.5978 9.2603 20.7017 9.36208 20.8204ZM11.0839 21.482C13.4617 22.5175 16.9787 22.5125 18.569 21.0579C18.737 20.9101 18.8883 20.7487 19.0355 20.5808C18.834 20.5829 18.834 20.5829 18.5372 20.8734C18.3003 21.1072 18.0594 21.3011 17.7632 21.4523C16.4693 22.0855 14.7555 22.1013 13.3527 21.9485C12.3303 21.8335 11.4205 21.5924 10.575 20.9943C10.3556 20.8338 10.1518 20.5808 9.86462 20.5808C10.2224 20.9441 10.6261 21.2531 11.0839 21.482ZM11.667 21.2912C12.4547 21.6398 13.2917 21.7483 14.1479 21.764C15.1114 21.7815 16.0611 21.7539 16.9787 21.4375C17.5248 21.2585 18.0122 20.9739 18.4312 20.5829H10.5919C10.8678 20.9254 11.2723 21.1136 11.667 21.2912ZM20.4689 20.8946C20.5474 21.023 20.6735 21.0791 20.8188 21.0791C21.0074 21.0791 21.1493 20.9777 21.2556 20.8247C21.311 20.7451 21.3644 20.6649 21.4125 20.5808H20.418C20.3936 20.6929 20.4125 20.7931 20.4689 20.8946ZM17.7441 22.9981C17.1603 23.0859 16.5728 23.1446 15.9842 23.1889C15.2473 23.2445 14.5076 23.2858 13.7683 23.2653C13.1411 23.2515 12.5142 23.2058 11.8918 23.1274C11.4672 23.0771 10.8846 22.9803 10.4393 23.0935C10.2549 23.1571 10.1243 23.4723 10.0406 23.6576C10.0109 23.7212 9.98972 23.7848 9.99609 23.7996C10.0003 23.8145 10.0215 23.8272 10.0427 23.8272C10.0618 23.8272 10.1127 23.7869 10.1551 23.7381C10.2921 23.5738 10.3883 23.212 10.6259 23.1571C10.6513 23.1508 10.84 23.1593 11.0436 23.1783C11.5639 23.2271 12.0816 23.3007 12.6021 23.348C13.2585 23.4076 13.9151 23.4286 14.5741 23.4158C15.1171 23.4069 15.6551 23.3702 16.1962 23.3289C16.6852 23.2916 17.1748 23.245 17.6593 23.1677C17.9117 23.1275 18.2953 22.9732 18.5499 23.0278C18.6717 23.0565 18.7255 23.3086 18.7577 23.4031C18.7937 23.5065 18.8747 23.8272 19.0228 23.8272C19.0951 23.8272 19.0706 23.7237 19.0609 23.683C18.9928 23.456 18.8503 23.078 18.6814 22.909C18.658 22.8857 18.6178 22.873 18.5711 22.873C18.296 22.8875 18.0164 22.9595 17.7441 22.9981ZM14.4893 23.9056C13.5082 23.9187 12.4901 23.8868 11.5419 23.6067C11.3533 23.5509 10.8484 23.2839 10.6916 23.5452C10.4307 23.98 10.2301 24.654 10.0661 25.1461C9.99716 25.3758 10.324 25.5417 10.4817 25.619C11.1595 25.9443 11.9794 26.0591 12.7187 26.1491C13.4439 26.2275 14.1748 26.218 14.9028 26.2021C15.6208 26.1852 16.3405 26.1733 17.055 26.0939C17.5528 26.0386 18.0579 25.9732 18.5393 25.831C18.6904 25.7829 18.8847 25.7162 18.9825 25.5808C19.0674 25.4631 19.0449 25.3857 18.9931 25.2521C18.8566 24.9149 18.7074 23.6364 18.4608 23.4392C18.3263 23.3298 18.0208 23.4449 17.882 23.4773C16.7697 23.7518 15.6346 23.8865 14.4893 23.9056ZM14.5402 6.2679C14.7036 6.2679 14.6414 6.86288 14.6419 6.92099C14.6483 7.4193 14.6462 7.45746 14.6123 7.45746C14.5805 7.45746 14.5699 7.42354 14.5465 7.23906C14.5116 6.95984 14.4446 6.61842 14.4914 6.33788C14.4999 6.29335 14.5168 6.27002 14.5402 6.2679ZM12.6551 6.77893C12.6784 6.77893 12.7357 6.82345 12.7887 6.88071C12.9759 7.09233 13.1085 7.35962 13.2615 7.59529C13.3676 7.75856 13.4757 7.93032 13.5033 7.97697C13.5308 8.02574 13.5457 8.07663 13.5372 8.09783C13.5248 8.13915 12.943 7.3825 12.8841 7.29843C12.8056 7.18168 12.6127 6.98141 12.6127 6.82557C12.6127 6.79165 12.6254 6.77893 12.6551 6.77893ZM15.7 6.82133C15.717 6.82133 15.7361 6.8383 15.7425 6.85738C15.7509 6.87859 15.7403 6.92311 15.7212 6.95916C15.6449 7.09486 15.5674 7.22359 15.5177 7.37265C15.4689 7.51471 15.4562 7.53168 15.4053 7.53592C15.3671 7.54016 15.3438 7.52956 15.3353 7.50411C15.3004 7.40809 15.521 7.13002 15.5601 7.04398C15.5823 6.99259 15.6207 6.82133 15.7 6.82133ZM13.5033 6.82557C13.5682 6.82557 13.9218 7.45239 13.9168 7.49775C13.8951 7.59517 13.816 7.55912 13.7705 7.50623C13.6527 7.35902 13.5622 7.16842 13.5012 6.99097C13.4757 6.92523 13.4609 6.8595 13.4672 6.8489C13.4736 6.83618 13.4884 6.8277 13.5033 6.82557ZM17.2151 7.45746C17.2236 7.45746 17.2385 7.46807 17.2448 7.48291C17.2512 7.49775 17.2427 7.53804 17.2257 7.57409C17.1084 7.80867 16.7867 8.00623 16.596 8.17205C16.4953 8.2581 16.2373 8.57917 16.0828 8.57917C16.0595 8.58129 16.0447 8.56645 16.0468 8.54312C16.0468 8.34884 16.627 7.94257 16.755 7.8243C16.8435 7.74387 17.0729 7.45746 17.2151 7.45746ZM16.1687 7.39385C16.1946 7.39385 16.2513 7.41536 16.2429 7.44898C16.2224 7.59262 15.9977 7.75648 15.9227 7.88155C15.8894 7.9391 15.898 8.04391 15.8485 8.08723C15.8294 8.10207 15.7955 8.10844 15.7721 8.10419C15.7382 8.09571 15.7319 8.08087 15.7403 8.02362C15.7685 7.8549 15.9231 7.68877 16.0245 7.56136C16.0987 7.46807 16.1644 7.39385 16.1687 7.39385ZM12.653 7.70979C12.6593 7.70979 12.7463 7.79885 12.8459 7.90487C12.9439 8.01128 13.1582 8.09767 13.2319 8.2081C13.246 8.23634 13.2328 8.30307 13.2022 8.31836C13.111 8.35484 12.8962 8.1068 12.8502 8.06179C12.8073 8.02073 12.5537 7.82771 12.6148 7.74372C12.6275 7.72464 12.6445 7.71191 12.653 7.70979ZM12.0635 7.98202C12.2184 7.9562 12.4434 8.15649 12.5342 8.25556C12.5724 8.29584 12.5724 8.30432 12.5448 8.33401C12.4779 8.40656 12.345 8.25617 12.301 8.21527C12.2858 8.20066 11.9562 7.98202 12.0635 7.98202ZM17.5059 8.6237C17.5229 8.63006 17.5356 8.65339 17.5377 8.67671C17.5377 8.70428 17.4826 8.74881 17.3427 8.8315C17.2345 8.89511 17.12 8.97357 17.0903 9.00538C17.0509 9.04739 17.007 9.16229 16.9398 9.16229C16.9122 9.16229 16.8762 9.14745 16.8592 9.13048C16.8316 9.09868 16.8401 9.08383 16.9567 8.97569C17.0288 8.90784 17.173 8.7997 17.2812 8.73396C17.3872 8.66823 17.489 8.61734 17.5059 8.6237ZM14.5402 8.07027C14.5699 8.07027 14.6123 8.08723 14.6313 8.10844C14.6504 8.12964 14.7777 8.37349 14.9134 8.64915C15.1084 9.05415 15.1657 9.15593 15.206 9.16441C15.2314 9.16865 15.4922 9.20894 15.7827 9.25135C16.0754 9.29376 16.3298 9.33616 16.351 9.34677C16.375 9.35949 16.3871 9.39059 16.3871 9.44007C16.3871 9.50792 16.3553 9.54397 15.963 9.9214C15.5898 10.2798 15.5389 10.337 15.5495 10.3837C15.5559 10.4112 15.5983 10.6572 15.6449 10.9286C15.6916 11.2 15.7297 11.4502 15.7297 11.4863C15.7297 11.5287 15.7156 11.557 15.6873 11.5711C15.664 11.5817 15.6279 11.5923 15.6089 11.5923C15.5877 11.5923 15.3438 11.4736 15.0682 11.3272C14.7904 11.1809 14.5571 11.0622 14.5487 11.0622C14.538 11.0622 14.3048 11.1809 14.0291 11.3272C13.7514 11.4714 13.5033 11.5923 13.4778 11.5923C13.4503 11.5923 13.41 11.5732 13.3442 11.5054L13.552 10.3306L13.1237 9.91716C12.7972 9.5991 12.6975 9.49096 12.6975 9.45067C12.6975 9.42098 12.7124 9.38069 12.7336 9.36161C12.7611 9.33616 12.9159 9.30648 13.3124 9.24923C13.6093 9.20682 13.8701 9.16865 13.8913 9.16229C13.9146 9.15593 14.0207 8.96721 14.1839 8.63854C14.326 8.35653 14.4511 8.11268 14.4617 8.09783C14.4744 8.08299 14.5084 8.07239 14.5402 8.07027ZM11.8197 8.41711C12.0097 8.41711 12.1938 8.63329 12.3985 8.65036C12.5279 8.66096 12.5279 8.66096 12.5342 8.72881C12.5385 8.78394 12.53 8.79879 12.5024 8.79879C12.4812 8.79879 12.4113 8.78394 12.3476 8.76698C12.274 8.74733 11.7751 8.57593 11.7751 8.49556C11.7751 8.47333 11.791 8.41711 11.8197 8.41711ZM17.6713 9.57634C17.7362 9.63477 17.407 9.78589 17.3851 9.79474C17.341 9.8135 17.1465 9.92815 17.1179 9.83291C17.0824 9.7478 17.275 9.70706 17.3215 9.69932C17.3851 9.6866 17.4847 9.65056 17.5441 9.61663C17.6098 9.57846 17.6565 9.56362 17.6713 9.57634ZM12.1271 9.46339C12.1441 9.49944 12.1441 9.5164 12.125 9.53336C12.0132 9.62651 11.6366 9.56759 11.5058 9.55669C11.3256 9.54397 11.3192 9.54185 11.3192 9.49096C11.3192 9.44855 11.3298 9.43795 11.368 9.43795C11.5458 9.43795 11.7521 9.51497 11.9236 9.45067C11.9843 9.42857 12.0887 9.38664 12.1271 9.46339ZM17.5908 10.1059C17.6501 10.1038 17.6586 10.1101 17.6544 10.1504C17.648 10.1949 17.6268 10.2013 17.4148 10.2373C17.2225 10.2694 17.0876 10.3057 16.9398 10.4324C16.9144 10.4082 16.8507 10.3641 16.8507 10.3264C16.8507 10.2693 17.0864 10.204 17.1285 10.1907C17.2707 10.1458 17.4411 10.1059 17.5908 10.1059ZM12.4325 10.1059C12.4325 10.125 12.4028 10.144 12.3582 10.1525C12.0389 10.2198 11.7071 10.2558 11.3828 10.2882C11.3259 10.2946 10.8534 10.3795 10.8379 10.2713C10.8337 10.2458 10.857 10.2246 10.9121 10.2013C11.1662 10.0869 11.5462 10.1206 11.8175 10.0974C11.8623 10.0936 12.4325 10.0266 12.4325 10.1059ZM17.2409 10.6876C17.3598 10.6876 17.4704 10.7253 17.5908 10.7046C17.6544 10.6919 17.7053 10.6919 17.718 10.7046C17.7307 10.7173 17.7159 10.7385 17.6756 10.7618C17.5799 10.8242 17.2068 10.8673 17.1179 10.7873C17.1031 10.7724 17.0903 10.7512 17.0882 10.7427C17.0784 10.7037 17.2214 10.6876 17.2409 10.6876ZM17.0331 11.1173C17.23 11.1173 17.4259 11.153 17.6183 11.1915C17.6549 11.2037 17.6725 11.2779 17.6332 11.2976C17.6226 11.3018 17.5187 11.287 17.4063 11.2636C17.2418 11.2276 17.0998 11.2362 16.9355 11.2488C16.8783 11.2576 16.8387 11.2075 16.855 11.1534C16.8677 11.1237 16.8953 11.1173 17.0331 11.1173ZM6.48889 11.3675C6.43307 11.4148 6.26953 11.7151 6.29381 11.8552C6.3335 11.8949 6.54828 11.7841 6.70306 11.8256C6.84661 11.864 7.01824 12.0362 7.02324 12.0312C7.12837 11.9261 7.10136 11.555 7.05293 11.4651C6.99046 11.3401 6.86589 11.2742 6.7285 11.2742C6.63044 11.2742 6.55829 11.2981 6.48889 11.3675ZM30.5155 11.6241C30.4777 11.8606 30.702 11.9632 30.8972 11.8764C31.0598 11.7904 31.2006 11.5985 31.1198 11.4099C31.0539 11.2686 30.8502 11.2756 30.7339 11.3421C30.6309 11.4058 30.5379 11.5007 30.5155 11.6241ZM31.2937 11.5011C31.2937 11.5631 31.3718 11.5754 31.4124 11.5541C31.4665 11.525 31.4959 11.4651 31.4591 11.4099C31.4442 11.393 31.423 11.3781 31.4146 11.3781C31.3765 11.3877 31.3014 11.4624 31.2937 11.5011ZM30.9332 14.0668C30.8526 14.6351 30.7339 15.4748 30.6682 15.9328C30.621 16.273 30.6455 16.7783 30.3777 17.0461C30.281 17.1427 30.1567 17.2089 30.0214 17.2305C29.9068 17.2462 29.9209 17.3156 29.9112 17.4129C30.1016 17.3772 30.2774 17.3272 30.4243 17.1945C30.5428 17.0879 30.6345 16.9527 30.6766 16.798C30.6873 16.7513 30.7233 16.4969 30.753 16.236C30.7827 15.9731 30.8632 15.2522 30.9332 14.6351C31.0011 14.016 31.0689 13.3989 31.0838 13.2611C31.0986 13.1233 31.1029 13.0045 31.0944 12.996C31.088 12.9875 31.0817 12.9918 31.0817 13.0066C31.0817 13.0215 31.0159 13.4986 30.9332 14.0668ZM0.717081 19.6711H28.5583V15.1122H0.717081V19.6711ZM29.5337 16.1767C29.5465 16.2276 29.5655 16.605 29.5783 17.0206C29.591 17.4341 29.608 17.8242 29.6164 17.89C29.6292 17.9981 29.6313 17.9918 29.6461 17.7734C29.6546 17.644 29.6716 17.2729 29.6843 16.9464C29.695 16.6717 29.7616 16.3192 29.6419 16.0558C29.5909 15.9436 29.5077 15.8403 29.3959 15.7844C29.3042 15.7386 29.1991 15.7305 29.099 15.7165C29.2984 15.8242 29.4823 15.94 29.5337 16.1767ZM12.0571 10.7526C12.0571 10.8618 11.6572 10.9836 11.5694 11.0368C11.5287 11.0615 11.368 11.178 11.368 11.0622C11.368 11.024 11.385 11.0028 11.4274 10.9859C11.5761 10.9164 11.7352 10.8582 11.8663 10.7569C11.9077 10.7254 12.0571 10.6424 12.0571 10.7526ZM12.2794 11.1915C12.3218 11.2212 12.3218 11.2212 12.2772 11.2827C12.1921 11.3962 11.7577 11.8385 11.6581 11.7323C11.6263 11.7004 11.6263 11.692 11.6538 11.6602C11.6708 11.6411 11.7662 11.5732 11.8638 11.5075C11.9803 11.4264 12.0791 11.3556 12.1458 11.2297C12.1835 11.1656 12.2159 11.1512 12.2794 11.1915ZM13.3012 12.1251C13.3097 12.1251 13.3246 12.1379 13.3309 12.1527C13.3373 12.1654 13.2779 12.2778 13.1973 12.4008C13.0583 12.6188 12.9157 12.8528 12.7415 13.0454C12.6906 13.1048 12.6609 13.126 12.6354 13.1154C12.6057 13.1048 12.5994 13.0836 12.6079 13.0327C12.6302 12.8985 12.7454 12.7747 12.8305 12.6764C12.9134 12.577 13.1537 12.1251 13.3012 12.1251ZM13.767 12.0827C13.7839 12.0827 13.7967 12.0976 13.7967 12.1145C13.7967 12.4645 13.654 12.8696 13.5698 13.2065C13.5295 13.3762 13.4828 13.5395 13.4659 13.5734C13.4489 13.6052 13.4213 13.6306 13.4044 13.6306C13.3811 13.6306 13.3726 13.6073 13.3726 13.5416C13.3726 13.2745 13.4841 12.9934 13.5507 12.7401C13.6164 12.4898 13.6843 12.2396 13.7034 12.1845C13.7224 12.1251 13.7479 12.0827 13.767 12.0827ZM16.2577 11.9146C16.3875 11.9146 16.6473 12.435 16.7072 12.5295C16.7772 12.6398 16.8514 12.7628 16.8705 12.8009C16.8896 12.837 16.9044 12.8836 16.9044 12.9006C16.9044 12.9733 16.7882 12.9003 16.7687 12.8858C16.5961 12.7455 16.4975 12.4663 16.3871 12.2814C16.298 12.1267 16.2259 11.9803 16.2259 11.957C16.2259 11.9337 16.2408 11.9146 16.2577 11.9146ZM14.3939 12.1712C14.4129 12.1754 14.4363 12.2178 14.4532 12.2814C14.4809 12.3887 14.533 12.9723 14.4214 12.9875C14.3163 12.9967 14.4048 12.439 14.3408 12.3345C14.3239 12.3048 14.309 12.2602 14.3048 12.2348C14.3005 12.1829 14.35 12.1657 14.3939 12.1712ZM15.6449 12.3345C15.7945 12.3345 15.8887 12.7158 15.9227 12.8179C15.9651 12.9367 15.999 13.049 15.999 13.066C15.999 13.0851 15.9799 13.0978 15.946 13.0978C15.838 13.0978 15.7768 12.7169 15.7319 12.6271C15.6977 12.5562 15.6209 12.5185 15.5919 12.4532C15.5919 12.4532 15.5981 12.3345 15.6449 12.3345ZM15.1063 12.4553C15.1339 12.4596 15.1572 12.4829 15.1657 12.5147C15.1742 12.5444 15.1827 12.6271 15.1827 12.7013C15.184 12.746 15.266 13.0252 15.2335 13.0512C15.2251 13.0618 15.1975 13.0427 15.1721 13.0088C15.0982 12.908 15.0876 12.7952 15.0682 12.6737C15.0594 12.6198 14.9985 12.4357 15.1063 12.4553ZM3.72809 15.8141C4.14481 15.9157 4.53598 16.2977 4.53598 16.7449C4.53598 17.1749 4.23769 17.5513 3.81291 17.6504C3.68531 17.6759 2.91756 17.6622 2.8884 17.7691C2.81259 18.0723 3.3451 17.9214 3.47152 18.0321C3.56387 18.098 3.5555 18.7724 3.46304 18.8357C3.42699 18.8611 3.25736 18.8654 1.3214 18.8548C1.33969 18.5805 1.33613 18.2714 1.40834 18.0066C1.43036 17.913 1.80215 17.9306 1.88968 17.8518C2.00826 17.7411 1.95851 16.85 1.86211 16.7343C1.75868 16.6482 1.49986 16.7707 1.41046 16.6813C1.33664 16.6075 1.39192 15.9021 1.44227 15.8014C1.64092 15.5034 3.36381 15.7165 3.72809 15.8141ZM2.90537 17.1839C3.00769 17.2862 3.57966 17.2074 3.57966 16.9994C3.57966 16.7686 3.0216 16.6285 2.90112 16.7768C2.85584 16.8296 2.85625 17.1348 2.90537 17.1839ZM4.7671 15.7483C4.79679 15.7483 5.02686 15.8115 5.19119 15.7929C5.72614 15.7312 6.2773 15.8163 6.81332 15.8332C7.35647 15.8502 7.97195 15.9494 8.00712 16.6177C8.01788 16.7648 8.00704 16.9394 7.91594 17.063C7.65164 17.4217 7.61613 17.3979 7.80992 17.8582C7.89821 18.0679 8.16619 17.9137 8.27854 18.0448C8.41561 18.1818 8.39949 18.7699 8.40364 18.9608C7.94868 18.9608 7.28328 19.0829 7.04657 18.5897C6.93303 18.3698 6.9898 18.0955 6.8939 17.8688C6.83877 17.7435 6.41835 17.5085 6.29805 17.6398C6.25655 17.6813 6.24953 17.9008 6.29169 17.943C6.37195 18.0393 6.61368 17.9317 6.71578 18.0278C6.84324 18.1553 6.80126 18.8437 6.67549 18.8908C6.37216 19.0122 5.15506 18.8823 4.79891 18.9142C4.69842 18.8555 4.70904 18.169 4.77771 18.066C4.8709 17.9262 5.14037 18.0876 5.26328 17.9706C5.40157 17.8383 5.38466 16.9702 5.25056 16.8361C5.23572 16.8234 5.12334 16.8043 4.77983 16.7768C4.75208 16.6678 4.5664 15.7483 4.7671 15.7483ZM6.58007 17.1181C6.67863 17.1092 6.83453 17.0943 6.90662 17.0142C6.96725 16.9435 6.88631 16.8574 6.82392 16.8213C6.68243 16.7427 6.47938 16.7682 6.32138 16.7619C6.17817 16.9847 6.30841 17.1511 6.58007 17.1181ZM17.0868 15.812C17.5036 15.9211 17.8947 16.2897 17.8947 16.7428C17.8947 16.9755 17.844 17.1846 17.672 17.3472C17.3334 17.6758 16.9047 17.7182 16.4507 17.7182C16.3238 17.7182 16.1078 17.8063 16.3128 17.9345C16.4632 18.0276 16.6897 17.9348 16.8324 18.0299C16.9226 18.0994 16.9145 18.7701 16.8218 18.8336C16.7857 18.859 16.6182 18.8633 14.6801 18.8527C14.7075 18.5788 14.6945 18.2704 14.7671 18.0045C14.7972 17.8838 15.1411 17.9463 15.2484 17.8497C15.3608 17.7448 15.3205 16.8319 15.2208 16.7322C15.1168 16.6456 14.8594 16.7694 14.7692 16.6792C14.7053 16.6153 14.7481 15.8817 14.8031 15.7992C14.9433 15.5189 16.7547 15.7289 17.0868 15.812ZM16.2662 17.1839C16.3678 17.2855 16.9384 17.2034 16.9384 16.9973C16.9384 16.7616 16.3903 16.6349 16.2598 16.7746C16.216 16.8294 16.2163 17.1339 16.2662 17.1839ZM10.1424 15.7717C10.8646 15.7292 11.4095 16.4772 11.5101 17.1139C11.6129 17.6535 11.3915 18.1286 11.0224 18.5134C10.2874 19.2871 9.12246 18.8532 8.6899 18.0151C8.15785 16.951 9.00595 15.7717 10.1424 15.7717ZM9.63985 17.8433C10.0946 18.4194 10.8436 17.643 10.541 17.0715C10.4305 16.8504 10.2001 16.7795 9.9664 16.8064C9.48271 16.8651 9.35923 17.5066 9.63985 17.8433ZM13.7217 15.7632C13.834 15.769 14.2319 15.7264 14.3027 15.7971C14.4481 15.8698 14.2735 16.7567 14.3621 16.9337C14.3684 16.9528 14.3557 16.993 14.2878 17.0821L13.7323 17.0715C13.6217 16.9024 13.5077 16.7486 13.3018 16.6898C13.164 16.649 12.5242 16.7274 12.8205 16.9612C13.1142 17.2158 13.6392 17.1398 13.991 17.2454C14.6209 17.4079 14.6142 18.1738 14.1861 18.5897C13.8951 18.8807 13.1866 19.1105 12.8141 18.8717C12.7675 18.8399 12.6784 18.7636 12.4961 18.5897C12.478 18.6904 12.4747 18.832 12.4134 18.9163C12.3178 19.0486 11.7348 19.0779 11.7348 18.8293C11.7511 18.4879 11.6875 17.953 11.8218 17.6398C11.8405 17.5555 12.4127 17.6365 12.4537 17.6398C12.537 17.7857 12.6256 18.0047 12.8141 18.0257C13.1108 18.0661 13.8013 17.8748 13.2276 17.7267C12.837 17.6225 12.0998 17.4968 11.8769 17.1097C11.6609 16.7341 11.8977 16.2216 12.2013 15.9731C12.5682 15.684 13.1781 15.7558 13.5202 16.0558C13.6644 16.183 13.675 16.1894 13.6878 16.1449C13.718 16.0137 13.6657 15.8938 13.7217 15.7632ZM23.147 15.7823C23.3258 15.7912 23.4895 15.8497 23.6305 15.9604C23.7365 16.0431 23.7386 16.0431 23.7534 15.9964C23.7598 15.971 23.7704 15.9116 23.7789 15.7802C24.0021 15.768 24.2235 15.7781 24.4468 15.7908C24.5713 16.2014 24.499 16.7223 24.521 17.1415C24.375 17.2113 23.7961 17.3217 23.7068 17.1542C23.5748 16.8901 23.5486 16.6578 23.164 16.6835C22.8081 16.7108 22.5967 17.0071 22.5914 17.3493C22.5914 17.7009 22.825 17.9636 23.1682 18.0151C23.4653 18.0628 23.6776 17.882 23.7195 17.5889C23.7344 17.4871 23.7428 17.4765 23.8001 17.4638C23.9733 17.4205 24.3521 17.397 24.4892 17.5189C24.6827 17.7339 24.4145 18.2581 24.2793 18.4265C23.9175 18.8673 23.4818 18.9638 22.9095 18.9035C21.9731 18.8195 21.4154 17.6383 21.7199 16.8192C21.9651 16.1772 22.4118 15.7455 23.147 15.7823ZM27.8416 15.8056C27.8713 15.8395 27.8777 15.9413 27.9031 17.2326L27.8289 17.2645C27.7233 17.3091 27.1754 17.3598 27.1504 17.2496C27.1326 17.1342 27.1639 16.9281 27.0762 16.8404C26.9572 16.7293 26.794 16.7858 26.756 16.9252C26.6961 17.1886 26.6982 17.5833 26.7539 17.8476C26.8105 18.1148 27.3196 17.8161 27.4133 17.9918C27.521 18.1857 27.4764 18.6291 27.4578 18.8442C26.9565 18.8502 25.6688 18.9035 25.2208 18.8421C25.1378 18.7635 25.1265 18.0111 25.2102 17.9854C25.371 17.9251 25.6047 18.0816 25.7403 17.9515C25.8733 17.8287 25.8877 17.0952 25.8103 16.9209C25.778 16.8134 25.649 16.78 25.5537 16.8276C25.524 16.8425 25.5134 16.8891 25.5007 17.0609C25.4858 17.2687 25.4837 17.2751 25.4265 17.2984C25.3024 17.3449 24.8871 17.3655 24.7903 17.2687C24.7606 17.2369 24.7522 17.1775 24.7416 16.9082C24.7274 16.6153 24.6838 16.2125 24.784 15.9286C24.8052 15.8692 24.8137 15.865 24.96 15.8501C25.3342 15.8033 27.4515 15.7165 27.8416 15.8056ZM21.2704 15.8501C21.3503 15.93 21.2689 17.0878 21.1877 17.1436C21.1602 17.1627 21.052 17.169 20.5028 17.169V17.0842C20.5028 17.0376 20.4922 16.9528 20.4816 16.8934C20.4668 16.817 20.4434 16.7746 20.401 16.7428C20.2163 16.6881 19.7812 16.6775 19.6059 16.7301C19.5357 16.7613 19.5461 16.8778 19.5613 16.9358C19.5825 17.0229 19.7291 17.0562 19.7988 16.9952C19.8386 16.9554 19.8168 16.8886 19.8349 16.8404C19.8591 16.7677 20.2407 16.7887 20.2929 16.8446C20.3205 16.8764 20.3268 16.9528 20.3332 17.7628C20.2453 17.7612 19.8792 17.8013 19.8455 17.7203C19.7642 17.5578 19.7968 17.4977 19.5804 17.4977C19.5756 17.5953 19.5502 17.7235 19.5953 17.8136C19.6491 17.9367 19.8219 17.9133 19.9303 17.9133C20.0723 17.9133 20.4204 17.9385 20.5389 17.837C20.6281 17.7775 20.5744 17.5335 20.6364 17.4405C20.7309 17.2725 21.1376 17.3515 21.2768 17.3493C21.2873 17.6397 21.5169 18.6698 21.3446 18.8421C21.3255 18.8633 21.2831 18.8675 21.1708 18.8569C20.5825 18.8116 19.0503 18.8357 18.2678 18.8421C17.9224 18.8449 17.9822 18.0072 18.111 17.9557C18.2469 17.9034 18.5897 17.9621 18.6623 17.7988C18.7173 17.6751 18.6852 16.7891 18.5308 16.7428C18.4425 16.7176 18.1391 16.7773 18.1152 16.6771C18.0794 16.522 18.04 16.0066 18.1491 15.8883C18.3041 15.7095 19.1974 15.8484 19.4426 15.8353C19.7792 15.8171 21.0417 15.6214 21.2704 15.8501ZM11.7815 23.7763C11.9139 23.8374 12.0077 23.9697 12.0338 24.1134C12.0453 24.1975 12.0201 24.4098 11.9787 24.5184C11.9277 24.5525 11.6954 24.4546 11.65 24.4421C11.6682 24.3482 11.7285 24.1984 11.6839 24.1092C11.6374 24.0083 11.4772 23.9898 11.4168 24.088C11.2454 24.345 11.1856 24.8001 11.1199 25.0994C11.0955 25.2022 11.0525 25.3499 11.1729 25.4069C11.3345 25.4877 11.4097 25.363 11.4507 25.2224C11.474 25.1376 11.4974 25.0507 11.5037 25.0316C11.5184 24.963 11.3582 24.9924 11.3277 24.9468C11.3076 24.8998 11.3472 24.7491 11.3828 24.7135C11.4052 24.6837 11.8895 24.7917 11.9087 24.8302C11.9816 24.9031 11.7447 25.6542 11.7073 25.7759C11.6924 25.8183 11.6818 25.8225 11.6182 25.8098C11.5147 25.7943 11.4882 25.7262 11.491 25.6296C11.3273 25.7287 11.1645 25.7532 10.9821 25.6698C10.8141 25.5957 10.7379 25.471 10.7298 25.2924C10.7191 24.9574 10.877 24.6063 10.98 24.2937C11.1035 23.9098 11.3492 23.5676 11.7815 23.7763ZM18.0431 24.0965C18.0728 24.1813 18.0898 24.2555 18.0855 24.2598C18.0589 24.2864 17.7911 24.3724 17.7675 24.3488C17.6507 24.271 17.7497 24.018 17.5279 24.018C17.4517 24.018 17.3837 24.1112 17.3837 24.1834C17.443 24.6058 17.506 25.2842 17.7823 25.4302C17.8589 25.479 17.9731 25.3992 17.9922 25.3179C18.0063 25.2616 17.9676 24.9298 17.8947 24.9298C17.8756 24.9298 17.8311 24.9404 17.7251 24.9722C17.7033 24.8969 17.6593 24.8066 17.6593 24.7284C17.6593 24.6858 18.1699 24.525 18.1873 24.5799C18.2883 24.898 18.4092 25.2278 18.4778 25.5023C18.4863 25.5257 18.4608 25.5447 18.393 25.5659C18.2976 25.5977 18.2976 25.5977 18.2022 25.479L18.1576 25.5596C18.0289 25.7803 17.622 25.8254 17.443 25.6465C17.2627 25.4662 17.2328 25.1296 17.1822 24.898C17.097 24.5076 16.8852 23.8627 17.443 23.7233C17.7234 23.6565 17.9575 23.829 18.0431 24.0965ZM16.7285 23.9184C16.768 24.1834 17.0542 25.5563 17.0974 25.8374C17.1186 25.9221 16.8732 25.9253 16.8133 25.9391C16.6807 25.9668 16.1711 24.8828 16.139 24.915C16.0683 24.9503 16.262 25.8485 16.262 25.9752C16.262 26.0324 16.2598 26.0324 16.0966 26.0452C16.0075 26.0515 15.9312 26.0536 15.9269 26.0494C15.9248 26.0452 15.876 25.5999 15.8188 25.057C15.7615 24.5142 15.7149 24.0689 15.717 24.0689C15.7191 24.0668 16.0393 24.0329 16.0393 24.0329C16.0393 24.0329 16.5568 25.1055 16.5949 25.0295C16.5991 25.0274 16.5631 24.792 16.5164 24.5057C16.4698 24.2195 16.4358 23.982 16.4422 23.9756C16.4507 23.9693 16.51 23.9544 16.5758 23.9417C16.5841 23.9401 16.7285 23.9064 16.7285 23.9184ZM13.0516 24.0456C13.1313 24.2049 13.2692 26.0159 13.2022 26.0494C13.2001 26.0536 13.1131 26.0515 12.8269 26.0324C12.8239 25.8803 12.8131 25.7299 12.7951 25.5787C12.7419 25.5702 12.4947 25.502 12.4643 25.5426C12.4064 25.5861 12.3074 25.9621 12.3074 25.9476C12.1998 25.9261 12.0776 25.884 11.9681 25.884C11.8441 25.884 12.5936 24.1459 12.6487 23.9989C12.6674 23.9524 13.0356 24.0054 13.0516 24.0456ZM12.5766 25.2415C12.6057 25.2706 12.7403 25.2636 12.7845 25.2691C12.7845 24.7263 12.7802 24.5693 12.7781 24.5693C12.7506 24.5693 12.5651 25.2357 12.5766 25.2415ZM14.0228 24.1728C14.0291 24.1983 14.0737 24.4442 14.1203 24.7178C14.1691 24.9913 14.2157 25.2267 14.2221 25.2373C14.2285 25.25 14.2412 25.2309 14.2475 25.1949C14.3321 24.8567 14.3857 24.511 14.4702 24.1728C14.4787 24.1262 14.4893 24.124 14.9049 24.124C14.9049 24.4968 14.96 25.8098 14.96 26.1109C14.9579 26.1151 14.8773 26.1236 14.6059 26.1491L14.6038 24.8768L14.5338 25.1737C14.4956 25.3369 14.4257 25.619 14.2963 26.1279C14.2508 26.1244 14.1494 26.1336 14.1161 26.1003C14.1076 26.0918 14.044 25.8098 13.8531 24.8556L13.815 25.4811C13.7959 25.8246 13.7768 26.1067 13.7747 26.1088C13.7726 26.1088 13.6941 26.1024 13.4312 26.0854C13.451 25.7387 13.4875 25.3925 13.516 25.0464C13.5563 24.5566 13.5881 24.141 13.5839 24.124C13.5806 24.1028 14.0228 24.1092 14.0228 24.1728ZM15.4604 24.0859C15.5523 24.0629 15.5607 25.1208 15.6258 26.0324C15.6258 26.1071 15.3096 26.1467 15.2654 26.1024C15.1593 25.7483 15.1626 24.4663 15.1593 24.1028C15.2555 24.0985 15.3673 24.1092 15.4604 24.0859Z" fill="black" style="fill:black;fill-opacity:1;"/>
</svg>
