<svg width="32" height="32" viewBox="0 0 32 32" fill="none" xmlns="http://www.w3.org/2000/svg">
<path d="M24 0H8.00001C3.58174 0 2.28882e-05 3.58172 2.28882e-05 8V24C2.28882e-05 28.4183 3.58174 32 8.00001 32H24C28.4183 32 32 28.4183 32 24V8C32 3.58172 28.4183 0 24 0Z" fill="url(#paint0_linear_21320_1616)" style=""/>
<path d="M11.7555 13.5746C11.9476 12.6367 11.6017 11.969 10.9753 11.529C10.4027 11.147 9.68019 11.0891 8.91923 11.4712L5.73711 12.9069C4.93773 13.2697 4.5957 14.2075 4.93774 14.991C5.29899 15.7938 6.21365 16.1373 7.01303 15.7938L7.43193 15.6008L6.74785 19.3329C6.55569 20.4599 7.28204 21.3785 8.27355 21.5714C9.32275 21.7645 10.3488 21.0736 10.5218 20.0199L11.7555 13.5746Z" fill="white" style="fill:white;fill-opacity:1;"/>
<path d="M12.0889 11.2119C12.5078 11.7098 13.0035 12.3234 12.7538 13.8132L12.1081 17.3176L12.2234 20.1312C12.2426 21.1462 12.7383 21.5862 13.5762 21.5862H15.7091C16.374 21.5862 16.6622 21.069 16.9274 20.4206L18.5453 16.4222L18.7183 20.247C18.7375 21.0883 19.1564 21.6055 19.9365 21.6055H22.3577C23.0418 21.6055 23.3301 21.1848 23.6337 20.4399L26.7389 12.7866C27.0809 12.003 26.8734 11.2196 26.0356 11.2196H24.4906C23.9181 11.2196 23.5184 11.4126 23.2916 11.9645L21.1933 17.086L21.0011 12.5126C20.9626 11.5361 20.5053 11.2119 19.9519 11.2119H18.3724C17.7421 11.2119 17.3809 11.4589 17.1925 11.9374L15.0981 17.1054L14.9059 12.3967C14.8866 11.5168 14.583 11.2119 13.8759 11.2119H12.0889Z" fill="white" style="fill:white;fill-opacity:1;"/>
<defs>
<linearGradient id="paint0_linear_21320_1616" x1="2.275e-05" y1="1.71429" x2="19.1269" y2="37.2835" gradientUnits="userSpaceOnUse">
<stop stop-color="#1BF1FF" style="stop-color:#1BF1FF;stop-color:color(display-p3 0.1059 0.9451 1.0000);stop-opacity:1;"/>
<stop offset="1" stop-color="#0855C4" style="stop-color:#0855C4;stop-color:color(display-p3 0.0314 0.3333 0.7686);stop-opacity:1;"/>
</linearGradient>
</defs>
</svg>
