<svg width="32" height="32" viewBox="0 0 32 32" fill="none" xmlns="http://www.w3.org/2000/svg">
<g clip-path="url(#clip0_21320_2364)">
<path d="M18.705 23.2235C18.5558 25.5094 19.3413 27.4903 21.3329 28.9185C22.7982 29.9689 24.4975 30.3204 26.2572 30.4463C26.6044 30.4717 26.9559 30.4495 27.3391 30.4495V31.9995C26.3969 31.9053 25.4546 31.8672 24.5335 31.7094C21.7637 31.2351 19.5033 29.9657 18.0835 27.4352C17.1402 25.7539 17.0873 23.9467 17.3085 22.0991C17.3382 21.8545 17.3742 21.611 17.4102 21.3665C17.4155 21.3336 17.4419 21.305 17.4917 21.2129C18.0126 21.3495 18.5526 21.4829 19.0873 21.6322C20.2519 21.9573 21.4345 22.0684 22.6415 22.0059C24.1947 21.9255 25.2142 21.1399 25.714 19.6947C26.4107 17.682 26.075 15.7371 25.227 13.8493C24.2381 11.647 22.6245 9.9192 20.8638 8.33954C19.4112 7.03622 17.8569 5.84511 16.3313 4.62431C16.2 4.51951 15.8771 4.47396 15.7596 4.55973C13.0259 6.5629 10.3928 8.68571 8.28688 11.3729C6.72307 13.3675 5.72787 15.5888 5.9629 18.1944C6.02013 18.8296 6.21279 19.4723 6.45316 20.0673C6.9486 21.2987 7.93112 21.8884 9.23769 21.9975C10.7739 22.1266 12.2508 21.846 13.713 21.4184C13.9777 21.341 14.2477 21.2828 14.5156 21.215C16.0433 27.8248 11.371 32.1223 4.65641 31.9116V30.5448C5.59237 30.4399 6.50923 30.3955 7.40072 30.2261C9.78293 29.773 11.7363 28.6771 12.7718 26.35C13.2292 25.3198 13.4102 24.2368 13.2662 23.1854C12.0868 23.2891 10.9391 23.4649 9.78927 23.4755C6.82895 23.503 5.12756 21.9837 4.595 18.9239C4.08154 15.9742 5.03754 13.359 6.74535 10.9938C8.59925 8.42632 10.9772 6.38185 13.4515 4.44325C14.1853 3.86839 14.9401 3.31781 15.7045 2.78424C15.8337 2.69423 16.1228 2.66352 16.2381 2.74611C19.5711 5.12833 22.7834 7.65238 25.2429 10.9842C26.7453 13.0192 27.6463 15.2966 27.4991 17.863C27.4461 18.7926 27.2185 19.7487 26.8797 20.6179C26.1513 22.4845 24.6595 23.4141 22.6923 23.4521C21.3848 23.4776 20.0729 23.3071 18.705 23.2214V23.2235Z" fill="#BA1218" style="fill:#BA1218;fill:color(display-p3 0.7294 0.0706 0.0941);fill-opacity:1;"/>
<path d="M19.4227 24.0302C20.1554 24.0979 20.834 24.2091 21.5127 24.2112C22.2655 24.2133 23.0362 24.1985 23.77 24.0471C26.1532 23.5558 27.7202 21.7485 28.1553 19.035C28.6413 16.0111 27.7328 13.324 26.0526 10.8613C24.4486 8.51091 22.3766 6.5956 20.184 4.81377C18.8457 3.72638 17.4492 2.71106 16.0209 1.61948C14.833 2.50566 13.6599 3.34099 12.5323 4.23249C10.1914 6.08322 7.97013 8.06621 6.20099 10.4929C4.51545 12.8053 3.50223 15.3621 3.74569 18.2748C3.92566 20.4336 4.688 22.3404 6.67106 23.487C8.1385 24.335 9.77106 24.3192 11.4026 24.1572C11.769 24.1212 12.1321 24.0566 12.5514 23.9984C12.5312 25.1048 12.202 26.082 11.5974 26.9651C10.6001 28.4197 9.13161 29.1397 7.46301 29.4733C6.55567 29.6543 5.62288 29.7019 4.65621 29.8152V28.3075C6.9262 28.1752 9.20887 28.0153 10.6361 25.7676C9.7658 25.6924 8.94105 25.6903 8.14376 25.5389C5.1327 24.9693 3.10408 22.8592 2.46885 19.6734C1.76901 16.1615 2.72718 13.0128 4.67423 10.117C6.31104 7.68191 8.42643 5.67982 10.6922 3.84919C12.292 2.55648 13.9913 1.38655 15.6429 0.157335C15.8568 -0.00147437 16.0273 -0.075589 16.2951 0.104396C19.9732 2.58718 23.4428 5.31137 26.2993 8.74069C28.1277 10.9355 29.3644 13.4108 29.6873 16.2843C29.9012 18.1965 29.6534 20.0429 28.8 21.7845C27.5434 24.351 25.412 25.5421 22.6254 25.6893C22.2284 25.7104 21.8282 25.6924 21.3178 25.6924C22.7768 27.9825 25.0129 28.1858 27.3305 28.2959V29.7432C25.1611 29.7295 23.0775 29.4415 21.339 27.9995C20.1226 26.9904 19.5465 25.6416 19.4259 24.0312L19.4227 24.0302Z" fill="#BA1218" style="fill:#BA1218;fill:color(display-p3 0.7294 0.0706 0.0941);fill-opacity:1;"/>
</g>
<defs>
<clipPath id="clip0_21320_2364">
<rect width="32" height="32" fill="white" style="fill:white;fill-opacity:1;"/>
</clipPath>
</defs>
</svg>
