<svg width="32" height="32" viewBox="0 0 32 32" fill="none" xmlns="http://www.w3.org/2000/svg">
<path d="M16.1098 6.78975C16.4164 6.04357 16.7569 5.30783 17.023 4.54599C17.3009 3.75025 17.5291 2.93624 17.7353 2.11962C17.8892 1.51302 17.9883 0.892078 18.081 0.272435C18.1201 0.00762012 18.2571 -0.0276017 18.4606 0.0154472C18.9367 0.113285 19.4142 0.208514 19.8838 0.332442C20.3639 0.458979 20.8361 0.618129 21.3122 0.762931C21.671 0.871205 21.6958 0.931212 21.6201 1.30039C21.4871 1.94612 21.3814 2.59707 21.2431 3.24149C21.1492 3.68372 21.0331 4.12203 20.9026 4.55513C20.7278 5.13303 20.5243 5.70179 20.3469 6.27836C20.3195 6.3684 20.3652 6.48055 20.3769 6.58102C20.4669 6.56404 20.5686 6.56669 20.6456 6.52625C21.5014 6.06445 22.395 5.65743 23.1946 5.11085C23.9121 4.62035 24.537 3.98897 25.1748 3.39021C25.4057 3.17235 25.5767 3.17496 25.7763 3.37324C26.4768 4.06463 27.176 4.75732 27.8661 5.45915C28.0265 5.62221 28.0944 5.79702 27.8804 6.01745C26.3724 7.56854 24.6753 8.86261 22.712 9.77577C21.6253 10.2806 20.4904 10.6733 19.3033 10.8898C19.1598 10.9159 19.0255 10.9942 18.8141 11.0777C19.1937 11.4573 19.5107 11.8238 19.876 12.1317C20.5882 12.7278 21.3266 13.2927 22.0558 13.868C22.2697 14.0363 22.442 14.0767 22.6963 13.855C23.4764 13.1727 24.2591 12.4839 25.1044 11.8891C25.9393 11.3007 26.8355 10.7919 27.7356 10.3041C28.3683 9.96098 29.0519 9.7092 29.7145 9.42223C30.1124 9.25006 30.2455 9.2905 30.3838 9.70661C30.7008 10.6589 30.9903 11.619 31.2891 12.5765C31.3556 12.7892 31.2461 12.9027 31.0556 12.9679C29.8541 13.3814 28.7101 13.9123 27.6691 14.6507C27.2282 14.9638 26.7794 15.2638 26.345 15.5847C26.2407 15.6617 26.1806 15.7986 26.101 15.9083C26.1989 15.9617 26.2916 16.0387 26.3959 16.0635C27.4656 16.3153 28.534 16.5788 29.6102 16.7966C30.1698 16.9101 30.7451 16.9401 31.3152 17.004C31.5565 17.0314 31.6426 17.1214 31.5917 17.3915C31.456 18.1142 31.3622 18.8447 31.2447 19.57C31.2121 19.7722 31.1652 19.9744 31.1064 20.1701C30.9421 20.7245 30.9356 20.748 30.3772 20.6971C28.9188 20.5627 27.4917 20.2796 26.088 19.8465C24.6478 19.4017 23.2429 18.8669 21.9423 18.1115C20.9352 17.5259 19.9634 16.8696 19.0242 16.1782C18.2688 15.6226 17.5813 14.9729 16.8769 14.3507C16.6434 14.1445 16.4464 13.8941 16.2455 13.654C16.0746 13.4505 15.9272 13.4831 15.7602 13.654C15.4119 14.0115 15.0585 14.3637 14.7023 14.7146C13.3665 16.0269 11.8637 17.1149 10.2304 18.0293C8.83984 18.8095 7.38009 19.4278 5.86037 19.8922C5.13898 20.1127 4.3928 20.2587 3.64923 20.3971C2.94872 20.5275 2.24037 20.6201 1.53202 20.6958C1.04022 20.748 0.96456 20.6684 0.874552 20.1714C0.725835 19.3508 0.583646 18.5303 0.437541 17.7098C0.433628 17.6889 0.427105 17.668 0.424496 17.6458C0.343617 17.0797 0.394493 16.9819 0.958038 16.9597C2.18949 16.9114 3.38181 16.6531 4.56499 16.34C5.03853 16.2148 5.49771 16.0295 5.96214 15.8717L5.97647 15.7595C5.58381 15.4634 5.20942 15.1373 4.79459 14.8764C4.0458 14.4055 3.28397 13.9515 2.50518 13.5353C2.01208 13.2718 1.48375 13.0683 0.956735 12.8792C0.678877 12.7787 0.673659 12.6144 0.740187 12.4004C1.035 11.4533 1.33243 10.5063 1.63768 9.56179C1.70552 9.35047 1.79423 9.23307 2.08644 9.3296C3.76533 9.88143 5.31509 10.6876 6.73308 11.726C7.64625 12.3952 8.49414 13.1544 9.35907 13.8876C9.54168 14.0415 9.64994 14.0572 9.85607 13.9176C10.991 13.1479 12.0098 12.2465 12.9465 11.2499C13.0156 11.1768 13.0508 11.0711 13.1016 10.9798C13.0078 10.9368 12.9177 10.8754 12.8199 10.8546C11.2128 10.5102 9.67476 9.96752 8.24891 9.15613C7.19748 8.55735 6.18909 7.87769 5.31248 7.02714C4.94852 6.67365 4.60022 6.30183 4.23235 5.95354C4.03928 5.77093 3.99232 5.59873 4.18017 5.39784C4.66675 4.87473 5.14811 4.34771 5.64904 3.83895C5.86819 3.61719 6.14215 3.45021 6.36651 3.23236C6.56091 3.04321 6.68615 3.09538 6.84789 3.26888C7.58493 4.06855 8.38848 4.79907 9.32122 5.3574C10.0139 5.77223 10.7549 6.10619 11.4789 6.46882C11.548 6.50408 11.642 6.48969 11.7528 6.50278C11.7528 6.41274 11.7685 6.34753 11.7502 6.29275C11.5297 5.64831 11.2754 5.01562 11.0888 4.36206C10.8762 3.61588 10.7197 2.85275 10.5461 2.09483C10.4836 1.82089 10.4483 1.54041 10.3922 1.26516C10.3439 1.02253 10.4261 0.860768 10.6675 0.796846C11.638 0.538554 12.6086 0.280262 13.5817 0.0271877C13.857 -0.0445602 13.9705 0.0767589 13.9966 0.361141C14.114 1.67217 14.4075 2.94667 14.8575 4.18204C15.1419 4.96213 15.472 5.72527 15.789 6.49364C15.8359 6.60579 15.9272 6.69972 15.9977 6.80149C16.0342 6.79889 16.0707 6.79624 16.1085 6.79235L16.1098 6.78975Z" fill="#FA6432" style="fill:#FA6432;fill:color(display-p3 0.9804 0.3922 0.1961);fill-opacity:1;"/>
<path d="M14.2158 29.2383C14.2158 28.479 14.2263 27.7185 14.208 26.9593C14.204 26.778 14.1467 26.5653 14.041 26.4218C13.0705 25.1082 12.0817 23.8076 11.1033 22.5005C10.5463 21.7556 10.001 21.0029 9.44912 20.2554C9.32129 20.0819 9.17784 19.9175 9.0513 19.7441C8.93385 19.5823 8.90778 19.461 9.13739 19.337C10.0805 18.8322 11.0094 18.2986 11.9525 17.7938C12.0295 17.7534 12.2304 17.8121 12.289 17.8904C13.0535 18.887 13.8049 19.8928 14.5537 20.8999C14.9411 21.4203 15.3129 21.9526 15.6977 22.4757C15.9156 22.7718 16.0695 22.7705 16.2743 22.4966C17.3532 21.0473 18.4319 19.5993 19.516 18.1539C19.8956 17.649 19.8865 17.6804 20.424 17.9999C21.1949 18.4591 21.9854 18.887 22.7812 19.3031C23.0434 19.4401 23.0864 19.5497 22.9064 19.7884C21.9828 21.016 21.0684 22.2487 20.1513 23.4815C19.4547 24.4181 18.7463 25.3482 18.0732 26.3018C17.9349 26.4975 17.871 26.7845 17.8684 27.0298C17.8502 28.5169 17.8514 30.004 17.8645 31.4912C17.8671 31.8225 17.7849 32.0051 17.4184 31.9999C16.4661 31.9882 15.5151 31.9895 14.5628 31.9856C14.2954 31.9843 14.2119 31.829 14.2145 31.5824C14.2197 30.801 14.2171 30.0197 14.2158 29.2383Z" fill="#FA6432" style="fill:#FA6432;fill:color(display-p3 0.9804 0.3922 0.1961);fill-opacity:1;"/>
</svg>
