<svg width="32" height="32" viewBox="0 0 32 32" fill="none" xmlns="http://www.w3.org/2000/svg">
<path d="M28.8085 7.404C28.8088 7.42174 28.809 7.43953 28.809 7.45736V29.4469C28.809 30.857 27.7316 32 26.4026 32H5.59745C4.26839 32 3.19098 30.857 3.19098 29.4469V7.45736C3.19098 6.04735 4.26839 4.90434 5.59745 4.90434H23.9993C25.1608 3.7307 26.5137 2.21465 27.3232 1.30753C27.3721 1.25278 27.4189 1.20026 27.4637 1.15016C28.3283 0.181742 28.3932 0.120119 28.4539 0.0796872C28.5146 0.0391933 28.571 0.0199527 28.6262 0.0102364C28.6813 0.000470606 28.7352 0.000235321 28.789 0C28.7955 0.107114 28.802 0.214173 28.8052 1.66926C28.808 2.89387 28.8084 5.07334 28.8085 7.404Z" fill="#FF4040" style="fill:#FF4040;fill:color(display-p3 1.0000 0.2510 0.2510);fill-opacity:1;"/>
<path fill-rule="evenodd" clip-rule="evenodd" d="M9.47095 27.4806C9.48842 21.5634 9.50588 15.646 9.52334 9.72876C9.52334 9.72876 9.52334 9.72876 10.9603 9.73749C12.3972 9.74622 15.2709 9.76362 16.8409 9.80512C18.4109 9.84661 18.6771 9.912 19.4758 10.2153C20.2744 10.5186 21.6054 11.0597 22.4456 12.3341C23.2857 13.6082 23.6348 15.6156 23.4908 17.1669C23.3467 18.7182 22.7094 19.8135 21.9403 20.6274C21.1711 21.4412 20.2699 21.9735 19.6273 22.2485C18.9847 22.5234 18.6007 22.5408 17.7366 22.5474C16.8724 22.5538 15.5281 22.5495 14.1839 22.5451C14.1841 24.2078 14.1841 25.8703 14.1842 27.533C12.6131 27.5156 11.042 27.4981 9.47095 27.4806ZM14.161 13.9635C14.1644 15.4588 14.1679 16.9541 14.1713 18.4493C15.1031 18.4618 16.0349 18.4743 16.5706 18.4589C17.1063 18.4433 17.2459 18.3995 17.3921 18.3341C17.5383 18.2687 17.691 18.1815 17.8393 18.0593C17.9877 17.9371 18.1318 17.78 18.2694 17.5443C18.4068 17.3086 18.5376 16.9944 18.5988 16.6627C18.6599 16.3311 18.6511 15.982 18.5726 15.6547C18.494 15.3275 18.3457 15.022 18.1318 14.7558C17.918 14.4896 17.6387 14.2627 17.3813 14.1361C17.1237 14.0095 16.8881 13.9834 16.3551 13.9714C15.822 13.9593 14.9915 13.9614 14.161 13.9635Z" fill="#FEFEFE" style="fill:#FEFEFE;fill:color(display-p3 0.9961 0.9961 0.9961);fill-opacity:1;"/>
</svg>
