<svg width="32" height="32" viewBox="0 0 32 32" fill="none" xmlns="http://www.w3.org/2000/svg">
<path d="M2.19598 32C2.29998 31.7201 2.34398 31.248 2.51998 31.196C4.75998 30.492 5.52798 28.584 6.22001 26.668C9.11601 18.668 11.964 10.652 14.836 2.648C15.112 1.876 15.428 1.116 15.86 0C15.9108 0 16.3241 0.85609 16.4127 1.09225C16.5012 1.32842 22.592 17.868 25.488 26.144C26.244 28.3081 26.752 30.6321 29.524 31.1881C29.664 31.216 29.712 31.7161 29.804 32H19.548C19.78 31.692 19.968 31.1721 20.252 31.112C22.244 30.68 22.276 29.3361 21.856 27.8001C21.392 26.1001 20.92 24.396 20.308 22.748C20.14 22.296 19.468 21.748 19.016 21.7361C15.952 21.648 12.88 21.6881 9.74396 21.6881C9.03199 23.796 8.37198 25.836 7.64796 27.856C7.07196 29.4641 7.39598 30.492 9.20398 30.9201C9.68398 31.032 10.056 31.628 10.476 32H2.19598ZM19.264 20.084C17.808 15.984 16.436 12.112 14.868 7.68798C13.292 12.16 11.908 16.068 10.496 20.084H19.268H19.264Z" fill="#0909A5" style="fill:#0909A5;fill:color(display-p3 0.0353 0.0353 0.6471);fill-opacity:1;"/>
</svg>
