<svg width="32" height="32" viewBox="0 0 32 32" fill="none" xmlns="http://www.w3.org/2000/svg">
<path d="M0 6.58663C0 2.94893 2.94893 0 6.58665 0H25.4134C29.051 0 32 2.94893 32 6.58663V25.4134C32 29.0511 29.051 32 25.4134 32H6.58665C2.94893 32 0 29.0511 0 25.4134V6.58663Z" fill="url(#paint0_linear_21320_1981)" style=""/>
<path d="M6.59241 3.88395L6.69411 3.88368C9.8335 3.87517 12.9598 3.86671 14.9026 3.89473C16.8667 3.92333 17.6217 3.98921 18.422 4.20642C19.2227 4.42362 20.0695 4.7926 20.9718 5.35018C21.8741 5.90806 22.8325 6.65422 23.5577 7.55211C24.2828 8.45029 24.7751 9.50045 25.0445 10.6505C25.3139 11.7993 25.3606 13.0487 25.4074 14.2979L25.4076 14.303L20.6083 14.3153C20.5864 13.9787 20.564 13.6421 20.4874 13.0964C20.4107 12.5511 20.2797 11.7964 19.8694 11.0418C19.4594 10.2875 18.7699 9.53316 18.0149 9.15553C17.2663 8.78139 16.4532 8.77846 15.3394 8.77446L15.313 8.77437C14.2973 8.77096 13.032 8.76401 11.7424 8.75692L11.3177 8.75459L11.3672 14.3149C10.4739 14.3212 9.58053 14.3274 8.68721 14.3336L6.60322 14.348L6.59241 3.88395Z" fill="black" style="fill:black;fill-opacity:1;"/>
<path d="M25.3958 15.6216H20.5797V28.0707H25.3958V15.6216Z" fill="black" style="fill:black;fill-opacity:1;"/>
<path d="M6.5973 15.6753H11.4134V28.1245H6.5973V15.6753Z" fill="black" style="fill:black;fill-opacity:1;"/>
<defs>
<linearGradient id="paint0_linear_21320_1981" x1="16" y1="0" x2="16" y2="32" gradientUnits="userSpaceOnUse">
<stop stop-color="#FFFF00" style="stop-color:#FFFF00;stop-color:color(display-p3 1.0000 1.0000 0.0000);stop-opacity:1;"/>
<stop offset="1" stop-color="#B2AA0E" style="stop-color:#B2AA0E;stop-color:color(display-p3 0.6980 0.6667 0.0549);stop-opacity:1;"/>
</linearGradient>
</defs>
</svg>
