<svg width="542" height="542" viewBox="0 0 542 542" fill="none" xmlns="http://www.w3.org/2000/svg">
    <rect width="542" height="542" fill="white"/>
    <path d="M68 431.611V412.302H87.3091V364.03H68V354.375H77.6545V344.721H87.3091V335.066H106.618V412.302H125.927V431.611H68Z"
          fill="black"/>
    <path d="M141.761 431.611V421.957H132.106V344.721H141.761V335.066H199.688V344.721H209.342V421.957H199.688V431.611H141.761ZM190.033 412.302V354.375H151.415V412.302H190.033Z"
          fill="black"/>
    <path d="M225.176 431.611V421.957H215.521V344.721H225.176V335.066H283.103V344.721H292.758V421.957H283.103V431.611H225.176ZM273.449 412.302V354.375H234.83V412.302H273.449Z"
          fill="black"/>
    <path d="M370.202 430.679V392.085H331.608V430.679H312.312V334.194H331.608V372.788H370.202V334.194H389.499V430.679H370.202Z"
          fill="black"/>
    <path d="M395.674 430.679V334.194H463.213V343.843H472.861V382.436H463.213V392.085H414.971V430.679H395.674ZM453.564 372.788V353.491H414.971V372.788H453.564Z"
          fill="black"/>
    <path fill-rule="evenodd" clip-rule="evenodd"
          d="M292.155 236.155H313.515V214.796H334.874V193.436H356.233L357.055 129.359H292.155V150.718H249.437V129.359H185.359V193.436H206.719V214.796H228.078V236.155H249.437V257.514H292.155V236.155Z"
          fill="#FB0128"/>
    <path fill-rule="evenodd" clip-rule="evenodd"
          d="M334.875 108H356.234V129.359H334.875H334.873H313.515H292.155V108H313.515H334.873H334.875ZM356.234 129.359H377.593L377.593 129.361V150.718V150.72V172.077V172.078V193.438H356.234V214.795H334.875V193.436H356.234L356.234 129.359ZM249.437 129.361H270.796H292.156V150.72H270.797H249.437V129.361ZM185.359 193.438H164V172.078V172.077V150.72V150.718V129.361V129.359H185.359L185.359 129.361V150.718V150.72V172.077V172.078V193.436H206.718V214.795H185.359V193.438ZM185.359 129.359V108H206.718H228.077H228.078H249.437L249.438 129.359H228.078H228.077H206.718H185.359ZM228.077 214.796H206.718V236.156H228.077V214.796ZM228.078 236.157H249.438V257.514H270.796H292.155V236.157H313.515V257.516H292.156V278.873H270.797H249.437V257.516H228.078V236.157ZM313.514 214.796H334.873V236.156H313.514V214.796Z"
          fill="black"/>
    <path d="M323.454 139.217V160.658H344.895V139.217H323.454Z" fill="white"/>
    <path d="M323.454 182.099V160.658H302.014V182.099H323.454Z" fill="white"/>
</svg>
