<svg width="542" height="542" viewBox="0 0 542 542" fill="none" xmlns="http://www.w3.org/2000/svg">
    <g clip-path="url(#clip0_348_3209)">
        <path d="M0 100C0 44.7715 44.7715 0 100 0H442C497.228 0 542 44.7715 542 100V442C542 497.228 497.228 542 442 542H100C44.7715 542 0 497.228 0 442V100Z"
              fill="#FAA700"/>
        <path fill-rule="evenodd" clip-rule="evenodd"
              d="M213.898 430.984L145.654 412.674L207.103 408.834L218.329 385.209L282.141 408.834L354.52 412.378L323.205 430.688L355.702 455.495L281.845 443.682L230.442 455.2L213.898 430.984Z"
              fill="white"/>
        <path fill-rule="evenodd" clip-rule="evenodd"
              d="M175.192 470.262L52 371.626L97.4958 72.7622L391.738 69.5137L491 222.194L450.231 472.921L175.192 470.262ZM211.239 166.079L178.151 166.67L186.128 114.989L284.504 113.808L257.915 314.331L190.263 314.625L211.239 166.079ZM481.845 224.557L390.855 87.8233L351.267 371.922L441.077 463.323L481.845 224.557ZM179.037 459.039L69.1387 371.919L335.908 372.214L425.422 462.288L179.037 459.039Z"
              fill="white"/>
    </g>
    <defs>
        <clipPath id="clip0_348_3209">
            <rect width="542" height="542" fill="white"/>
        </clipPath>
    </defs>
</svg>
