<svg width="32" height="32" viewBox="0 0 32 32" fill="none" xmlns="http://www.w3.org/2000/svg">
<g clip-path="url(#clip0_20702_761)">
<path d="M7.09183 9.95016H8.02196V22.2375H7.09183V10.9675L4.01953 12.6175V11.5992L7.09183 9.95016Z" fill="white"/>
<path d="M19.0819 22.2375H18.0636L14.5175 16.7256L10.9889 22.2375H9.95312L14.0079 15.9185L10.1808 9.9502H11.2166L14.5166 15.1114L17.834 9.9502H18.8523L15.0436 15.9185L19.0819 22.2375Z" fill="white"/>
<path d="M20.2568 22.2374V21.3945L24.7679 16.8127C26.0901 15.4905 26.7512 14.3437 26.7512 13.3722C26.7512 12.5183 26.4969 11.8508 25.9872 11.3715C25.4786 10.8922 24.8257 10.6516 24.0297 10.6516C23.2336 10.6516 22.5201 10.8857 21.9931 11.354C21.4661 11.8223 21.2035 12.4889 21.2035 13.3548H20.2559C20.2559 12.2199 20.6213 11.3357 21.3531 10.704C22.084 10.0722 22.9765 9.75635 24.0297 9.75635C25.0828 9.75635 25.9138 10.075 26.6272 10.7131C27.3407 11.3513 27.6979 12.2374 27.6979 13.3722C27.6979 14.5071 26.9312 15.9239 25.3986 17.4793L21.59 21.3412H27.9797V22.2365H20.2559L20.2568 22.2374Z" fill="white"/>
<path d="M26.8699 30.4002H5.12974C3.18225 30.4002 1.59745 28.8154 1.59745 26.8679V5.1278C1.59745 3.18031 3.18225 1.5955 5.12974 1.5955H26.8699C28.8173 1.5955 30.4021 3.18031 30.4021 5.1278V26.8679C30.4021 28.8154 28.8173 30.4002 26.8699 30.4002ZM5.12974 2.69733C3.78918 2.69733 2.69928 3.78815 2.69928 5.1278V26.8679C2.69928 28.2085 3.7901 29.2984 5.12974 29.2984H26.8699C28.2104 29.2984 29.3003 28.2075 29.3003 26.8679V5.1278C29.3003 3.78723 28.2095 2.69733 26.8699 2.69733H5.12974Z" fill="white"/>
<path d="M27.207 31.9981H4.79297C2.15041 31.9981 0 29.8477 0 27.2051V4.79103C0 2.14846 2.15041 -0.00195312 4.79297 -0.00195312H27.207C29.8496 -0.00195312 32 2.14846 32 4.79103V27.2051C32 29.8477 29.8496 31.9981 27.207 31.9981ZM4.79297 0.548964C2.45433 0.548964 0.550917 2.45146 0.550917 4.79103V27.2051C0.550917 29.5438 2.45433 31.4472 4.79297 31.4472H27.207C29.5457 31.4472 31.4491 29.5447 31.4491 27.2051V4.79103C31.4491 2.45239 29.5457 0.548964 27.207 0.548964H4.79297Z" fill="white"/>
</g>
<defs>
<clipPath id="clip0_20702_761">
<rect width="32" height="32" fill="white" transform="translate(0.00195312)"/>
</clipPath>
</defs>
</svg>
