<svg width="542" height="542" viewBox="0 0 542 542" fill="none" xmlns="http://www.w3.org/2000/svg">
    <path d="M271.74 542C267.627 536.313 263.877 530.626 259.522 525.544C248.634 512.476 235.206 502.312 221.294 492.995C202.179 480.169 182.703 467.827 163.709 454.759C145.2 441.933 128.748 426.93 115.803 408.296C100.198 385.911 92.3341 360.985 90.8824 334.002C89.3097 304.962 88.3419 275.801 87.0112 246.761C86.8902 243.857 87.737 242.526 90.2775 241.316C112.053 230.668 134.917 223.53 158.386 218.448C202.663 208.889 247.545 205.743 292.79 207.437C324.606 208.526 356.181 212.035 387.271 219.174C410.136 224.376 432.274 231.273 453.324 241.8C455.501 242.889 456.106 244.099 455.985 246.398C454.776 270.719 453.566 295.161 452.598 319.482C451.872 339.205 450.058 358.686 443.041 377.32C435.178 398.495 422.596 416.524 406.507 432.132C388.36 449.798 367.19 463.471 346.019 477.023C328.599 488.155 311.178 499.045 295.693 512.96C286.257 521.309 277.91 530.747 271.74 542ZM319.525 435.883C344.809 420.759 367.432 402.609 384.005 377.562C401.305 351.184 408.321 321.781 410.015 290.684C408.2 295.645 406.627 300.727 404.813 305.688C394.772 334.849 382.19 362.679 364.528 388.089C351.826 406.239 337.067 422.332 319.525 435.883Z"
          fill="#F6B002"/>
    <path d="M464.73 245C468.126 236.398 461.577 235.065 456.725 232.763C438.047 224.039 418.641 217.254 398.75 212.044C372.188 205.138 345.262 201.261 317.972 199.201C292.017 197.141 265.94 196.778 239.985 198.111C193.896 200.534 148.655 207.44 105.477 224.16C96.8657 227.553 88.4968 231.672 80.0067 235.307C77.3384 236.398 76.0042 237.973 76.6107 241.002C76.8533 241.971 76.6107 243.183 76.6107 244.273C76.3681 244.394 76.1255 244.394 75.7617 244.515C74.1849 240.638 72.3656 236.882 71.1527 233.005C59.873 199.564 71.8805 168.547 103.415 149.283C117.727 140.559 133.494 135.712 149.626 131.956C180.797 124.808 212.331 120.446 244.23 118.75C245.685 118.629 246.898 118.871 247.383 116.932C252.477 100.091 263.029 87.2479 277.463 77.555C284.497 72.8297 292.26 68.9525 299.416 64.2272C310.331 57.0787 321.49 50.0514 331.678 41.8124C339.925 35.1485 348.78 31.3925 359.089 30.3021C364.547 29.6963 370.005 28.8481 376.19 28C375.584 32.1195 375.099 35.8755 374.371 39.6315C370.247 59.3808 358.24 73.4355 341.502 83.7342C330.344 90.5193 318.579 96.335 307.299 103.241C301.72 106.634 296.747 111.238 291.532 115.357C290.562 116.084 289.834 117.175 288.742 118.508C297.232 118.992 305.116 119.356 313 120.083C347.445 123.112 381.527 128.079 414.639 138.378C431.619 143.588 446.901 152.312 458.666 166.003C476.495 186.721 478.8 210.348 470.067 235.549C468.975 238.7 467.398 241.729 466.064 244.879C465.579 244.758 465.215 244.879 464.73 245Z"
          fill="#F6B002"/>
</svg>
