<?xml version="1.0" encoding="UTF-8"?>
<!DOCTYPE svg PUBLIC "-//W3C//DTD SVG 1.1//EN" "http://www.w3.org/Graphics/SVG/1.1/DTD/svg11.dtd">
<svg xmlns="http://www.w3.org/2000/svg" xml:space="preserve" width="273.016mm" height="223.28mm" version="1.1"
     shape-rendering="geometricPrecision" text-rendering="geometricPrecision" image-rendering="optimizeQuality"
     fill-rule="evenodd" clip-rule="evenodd" viewBox="0 0 1847.3896 1510.8481"
     xmlns:xlink="http://www.w3.org/1999/xlink">
  <g id="Layer_x0020_1">
    <metadata id="CorelCorpID_0Corel-Layer"/>
      <g id="_1482690687888">
      <path fill="black"
            d="M759.0046 899.8256l159.9157 0 2.3866 217.1997c0,-70.8815 39.2497,-139.3263 96.8957,-177.5873 195.0107,-129.4349 424.9011,77.1169 335.1158,277.8325 -21.1619,47.308 -59.1881,86.333 -104.661,110.1514 -42.9835,22.5152 -70.0492,23.5105 -117.3112,23.5105 -102.9315,0 -210.0393,-99.2071 -210.0393,-214.8131l-2.3866 0c0,71.2692 -14.4866,113.2911 -46.3207,154.1709 -23.7853,30.5431 -81.591,65.4154 -135.0762,65.4154l-78.7652 0 0 -164.6895 69.2176 0c19.615,0 31.0289,-26.8749 31.0289,-47.7363l0 -243.4541zm613.409 128.8875c0,-74.2979 50.8239,-128.8875 119.3398,-128.8875l236.2943 0 0 128.8875 -169.4634 0c-22.3027,0 -25.2516,25.8714 -8.4095,32.278 6.3417,2.4123 15.5537,1.2146 22.7114,1.1564 45.32,-0.3667 95.9558,-4.5986 128.1404,12.6813 45.9493,24.6697 60.4359,81.1342 60.4359,142.4423 0,80.3175 -46.9149,136.0479 -119.3398,136.0479l-236.2943 0 0 -128.8875 169.4634 0c13.4012,0 19.0947,-8.2336 19.0947,-19.0947 0,-34.647 -115.179,7.09 -168.8496,-31.642 -38.1562,-27.536 -53.1232,-80.5746 -53.1232,-144.9818zm114.5666 -169.4627c-34.04,0 -65.3477,-12.4147 -88.3305,-23.8496 -46.6483,-23.2088 -86.5725,-65.9141 -106.421,-115.5518 -18.6941,-46.7504 -21.7079,-92.6936 -9.5903,-141.3177 12.8457,-51.5446 45.6502,-100.6931 89.7637,-129.8233 199.8068,-131.9405 425.3274,78.4174 336.5503,276.8804 -21.1619,47.3087 -59.1888,86.333 -104.661,110.1514 -42.9841,22.5152 -70.0492,23.5105 -117.3112,23.5105zm-727.9757 -451.1061l155.1419 0c6.5907,0 8.6382,5.7171 14.6754,13.9663 4.2244,5.7726 7.6368,10.583 12.322,16.3197l49.3542 65.2124c5.5946,7.3113 21.7451,25.3402 23.8942,33.3891l4.7738 0c1.7925,-6.7131 72.2774,-100.6545 81.1674,-112.1645 4.2467,-5.4979 7.628,-8.553 9.5314,-16.723l159.9157 0 0 455.8793 -159.9157 0 0 -219.5856c-6.9202,4.6338 -60.4474,75.7582 -69.5633,87.9658 -5.2759,7.0643 -17.6703,24.7001 -23.522,28.9874 -11.1074,-8.1382 -85.7517,-113.62 -97.8592,-121.727l0 224.3594 -159.9157 0 0 -455.8793zm-656.3722 -116.9539c0,-70.3171 -2.3866,-132.6416 -2.3866,-202.8782l1045.4212 0c-6.004,12.5121 -9.48,26.3972 -14.6652,40.2315l-27.9941 79.4121c-4.5871,12.6887 -8.7939,25.6231 -13.925,38.5845 -20.3296,51.3585 -19.1346,74.7147 -48.4353,113.8676 -5.2664,7.0373 -17.4118,24.3185 -23.8678,28.6417 -6.1157,-4.4802 -23.7447,-32.7693 -31.7164,-42.2743 -9.1268,-10.882 -28.2844,-26.9432 -47.0482,-26.9432l-186.1708 0c-42.1938,0 -81.1518,41.5679 -81.1518,83.5384l0 701.7206c-51.1927,0 -95.472,25.4674 -95.472,73.9914l0 186.1708c0,14.421 4.3976,25.4539 10.5539,34.7952 12.6109,19.1353 13.6462,12.2908 20.4744,22.4881l-410.5309 0 52.8147 -150.0642c32.9242,-99.155 70.8436,-199.7595 103.8057,-299.5647 3.6276,-10.9849 6.9669,-18.3984 10.1783,-28.0103 10.9599,-32.797 158.8378,-450.7712 164.9676,-477.0831l-424.8517 0 0 -176.6238zm-102.6324 -200.4916l0 379.502c0,34.6524 22.7906,60.7465 44.8186,74.5219 36.497,22.8217 59.6049,16.1769 105.5501,16.1769 80.3561,0 160.7114,0 241.0675,0l-132.197 373.8058c-6.8153,19.4905 -12.7686,35.7953 -19.0811,54.9096l-56.0707 161.1289c-14.036,38.824 -91.002,246.8218 -91.002,274.1792 0,54.4725 66.7924,85.925 100.2458,85.925l479.7478 0c39.0555,0 76.9024,-51.6068 78.7652,-73.9907 51.8355,0 68.4976,-7.6896 103.4633,-25.4241 39.8275,-20.2003 51.6007,-37.3056 75.547,-53.3404 29.5152,19.7646 27.5949,31.6048 91.705,58.6637 87.3189,36.8543 181.0701,32.7733 265.5497,-9.3075 12.1393,-6.0466 25.7523,-18.1954 36.5681,-20.7146 4.8625,20.8709 38.1156,50.1229 64.4437,50.1229l272.0957 0c47.9529,0 101.5592,-31.1142 133.0963,-65.0087 27.3756,-29.4218 53.0745,-88.7527 53.0745,-145.0305 0,-43.0186 0.4919,-76.2244 -14.6517,-116.6223 -9.4468,-25.2022 -21.5273,-39.1894 -20.9426,-49.9639 0.3701,-6.8322 2.1795,-10.7677 2.1795,-21.9711l0 -152.756c0,-32.1116 -35.3663,-57.6203 -57.2833,-69.2169 13.2111,-24.9687 20.4378,-23.9023 38.9086,-70.8842 39.8918,-101.4678 14.7918,-234.1859 -53.9575,-315.0508 -6.3518,-7.4703 -10.9917,-13.6875 -17.7244,-20.4642 -21.6294,-21.7729 -59.8715,-48.3534 -87.9279,-60.0542 -72.925,-30.4125 -152.4603,-37.2961 -230.1733,-15.6951l-44.2969 17.7603c-6.8647,4.2176 -5.6,5.3091 -15.3595,6.1217 -3.1072,-11.6379 -19.2604,-22.4624 -28.5828,-28.7012 -17.0965,-11.4416 -20.6544,-9.5233 -47.7938,-9.4888 -38.9837,0.0487 -77.9708,0.0007 -116.9546,0.0007 1.1537,-13.8688 55.0551,-157.0954 61.1863,-175.1067 10.3678,-30.4551 21.6788,-60.1699 7.0921,-93.6633 -10.9078,-25.0472 -44.4593,-51.0621 -68.2784,-51.0621l-1054.9682 0c-56.677,0 -97.8592,35.0665 -97.8592,90.6988z"/>
          <path fill="white"
                d="M102.6324 291.1904l0 176.6238 424.8517 0c-6.1299,26.3119 -154.0078,444.286 -164.9676,477.0831 -3.2114,9.612 -6.5507,17.0254 -10.1783,28.0103 -32.9621,99.8053 -70.8815,200.4097 -103.8057,299.5647l-52.8147 150.0642 410.5309 0c-6.8282,-10.1973 -7.8635,-3.3528 -20.4744,-22.4881 -6.1563,-9.3413 -10.5539,-20.3742 -10.5539,-34.7952l0 -186.1708c0,-48.524 44.2793,-73.9914 95.472,-73.9914l0 -701.7206c0,-41.9705 38.958,-83.5384 81.1518,-83.5384l186.1708 0c18.7638,0 37.9214,16.0612 47.0482,26.9432 7.9717,9.505 25.6007,37.7942 31.7164,42.2743 6.456,-4.3232 18.6014,-21.6044 23.8678,-28.6417 29.3007,-39.1529 28.1057,-62.5092 48.4353,-113.8676 5.1311,-12.9614 9.3379,-25.8958 13.925,-38.5845l27.9941 -79.4121c5.1852,-13.8343 8.6612,-27.7194 14.6652,-40.2315l-1045.4212 0c0,70.2366 2.3866,132.561 2.3866,202.8782z"/>
          <path fill="white"
                d="M1081.2232 1126.5723c0,-17.5986 8.6951,-35.1816 17.3299,-44.7272 36.6932,-40.5617 111.5575,-13.7078 111.5575,37.5668l0 14.3208c0,27.7045 -29.5788,57.2833 -57.2833,57.2833l-14.3208 0c-27.9312,0 -57.2833,-28.3575 -57.2833,-64.4437zm-322.2186 16.7074c0,20.8614 -11.4139,47.7363 -31.0289,47.7363l-69.2176 0 0 164.6895 78.7652 0c53.4852,0 111.2909,-34.8723 135.0762,-65.4154 31.8341,-40.8797 46.3207,-82.9017 46.3207,-154.1709l2.3866 0c0,115.606 107.1078,214.8131 210.0393,214.8131 47.262,0 74.3277,-0.9954 117.3112,-23.5105 45.4729,-23.8184 83.4991,-62.8434 104.661,-110.1514 89.7853,-200.7156 -140.1051,-407.2673 -335.1158,-277.8325 -57.646,38.2611 -96.8957,106.7059 -96.8957,177.5873l-2.3866 -217.1997 -159.9157 0 0 243.4541z"/>
          <path fill="white"
                d="M759.0046 864.0235l159.9157 0 0 -224.3594c12.1075,8.1071 86.7518,113.5889 97.8592,121.727 5.8518,-4.2873 18.2461,-21.9231 23.522,-28.9874 9.116,-12.2076 62.6431,-83.332 69.5633,-87.9658l0 219.5856 159.9157 0 0 -455.8793 -159.9157 0c-1.9034,8.17 -5.2847,11.2251 -9.5314,16.723 -8.89,11.51 -79.3749,105.4513 -81.1674,112.1645l-4.7738 0c-2.1491,-8.0489 -18.2996,-26.0778 -23.8942,-33.3891l-49.3542 -65.2124c-4.6852,-5.7367 -8.0976,-10.5471 -12.322,-16.3197 -6.0372,-8.2492 -8.0847,-13.9663 -14.6754,-13.9663l-155.1419 0 0 455.8793z"/>
          <path fill="white"
                d="M1436.8574 634.8903c0,-17.5986 8.6951,-35.1816 17.3299,-44.7265 36.6932,-40.5624 111.5575,-13.7085 111.5575,37.5661l0 14.3208c0,27.7045 -29.5788,57.2833 -57.2833,57.2833l-14.3208 0c-27.9312,0 -57.2833,-28.3575 -57.2833,-64.4437zm50.1229 224.3601c47.262,0 74.327,-0.9954 117.3112,-23.5105 45.4722,-23.8184 83.4991,-62.8428 104.661,-110.1514 88.7771,-198.463 -136.7435,-408.821 -336.5503,-276.8804 -44.1135,29.1302 -76.918,78.2787 -89.7637,129.8233 -12.1176,48.6241 -9.1038,94.5673 9.5903,141.3177 19.8485,49.6377 59.7727,92.3431 106.421,115.5518 22.9828,11.4349 54.2904,23.8496 88.3305,23.8496z"/>
          <path fill="white"
                d="M1372.4136 1028.7131c0,64.4072 14.967,117.4458 53.1232,144.9818 53.6706,38.732 168.8496,-3.005 168.8496,31.642 0,10.8611 -5.6934,19.0947 -19.0947,19.0947l-169.4634 0 0 128.8875 236.2943 0c72.4249,0 119.3398,-55.7304 119.3398,-136.0479 0,-61.3081 -14.4866,-117.7726 -60.4359,-142.4423 -32.1846,-17.2799 -82.8205,-13.048 -128.1404,-12.6813 -7.1577,0.0582 -16.3698,1.2559 -22.7114,-1.1564 -16.8421,-6.4066 -13.8932,-32.278 8.4095,-32.278l169.4634 0 0 -128.8875 -236.2943 0c-68.5159,0 -119.3398,54.5895 -119.3398,128.8875z"/>
          <path fill="black"
                d="M1081.2232 1126.5723c0,36.0863 29.3521,64.4437 57.2833,64.4437l14.3208 0c27.7045,0 57.2833,-29.5788 57.2833,-57.2833l0 -14.3208c0,-51.2746 -74.8643,-78.1285 -111.5575,-37.5668 -8.6349,9.5456 -17.3299,27.1286 -17.3299,44.7272z"/>
          <path fill="black"
                d="M1436.8574 634.8903c0,36.0863 29.3521,64.4437 57.2833,64.4437l14.3208 0c27.7045,0 57.2833,-29.5788 57.2833,-57.2833l0 -14.3208c0,-51.2746 -74.8643,-78.1285 -111.5575,-37.5661 -8.6349,9.545 -17.3299,27.128 -17.3299,44.7265z"/>
    </g>
  </g>
</svg>
