<svg width="32" height="32" viewBox="0 0 32 32" fill="none" xmlns="http://www.w3.org/2000/svg">
<g clip-path="url(#clip0_20699_62)">
<path fill-rule="evenodd" clip-rule="evenodd" d="M5.90699 -0.00195312C2.64627 -0.00195312 0.00292969 2.64139 0.00292969 5.90211V26.094C0.00292969 29.3547 2.64627 31.9981 5.90699 31.9981H26.0989C29.3596 31.9981 32.0029 29.3547 32.0029 26.094V5.90211C32.0029 2.64139 29.3596 -0.00195312 26.0989 -0.00195312H5.90699ZM4.82256 12.9426L4.06905 12.9432C3.941 12.9432 3.8436 13 3.77234 13.1033C3.73827 13.1525 3.70763 13.2045 3.67769 13.2565L3.18383 14.1131C2.91292 14.5831 2.64203 15.053 2.37074 15.5228C2.14935 15.906 1.92755 16.2889 1.70572 16.6718L1.70507 16.673L1.70455 16.6738C1.5227 16.9878 1.34045 17.3024 1.1588 17.6166C1.0841 17.7457 1.13643 17.8369 1.28409 17.8369C1.38201 17.837 1.47996 17.8367 1.57793 17.8364C1.78944 17.8358 2.00134 17.8351 2.21275 17.8386C2.35215 17.841 2.44543 17.7839 2.51393 17.6668C2.63062 17.4668 2.75006 17.2681 2.87328 17.0722C2.89153 17.0429 2.93833 17.0144 2.97207 17.0144C3.33035 17.0122 3.68878 17.0119 4.04717 17.0117C4.25068 17.0116 4.45418 17.0114 4.65764 17.0109C4.70961 17.0109 4.73199 17.0247 4.74025 17.0811C4.76757 17.2646 4.80055 17.4473 4.83349 17.6298L4.838 17.6548C4.86244 17.789 4.91889 17.8366 5.05347 17.8366C5.24646 17.8368 5.43945 17.8367 5.63242 17.8366L5.92187 17.8366C6.08128 17.8366 6.1477 17.7639 6.12426 17.6062C6.08997 17.3756 6.05415 17.1451 6.01832 16.9145C5.99017 16.7334 5.96203 16.5523 5.93462 16.3712C5.88966 16.0744 5.84548 15.7775 5.80129 15.4807C5.76231 15.2188 5.72322 14.9562 5.68371 14.6944C5.64879 14.4633 5.61351 14.2322 5.57823 14.0012C5.53597 13.7244 5.49371 13.4476 5.45206 13.1708C5.42797 13.0117 5.35603 12.9442 5.19528 12.9429C5.07124 12.9421 4.94671 12.9424 4.82256 12.9426ZM4.65592 15.949L3.42848 15.9494C3.75444 15.3703 4.07593 14.7994 4.39742 14.2285L4.42048 14.2333L4.65592 15.949ZM15.0063 14.5354L15.0186 14.4836C15.0279 14.4443 15.0358 14.4111 15.0448 14.3784C15.0775 14.2589 15.1501 14.2 15.2747 14.1993C15.5412 14.1976 15.8076 14.1973 16.074 14.1993C16.201 14.2004 16.2602 14.2679 16.2358 14.3914C16.1785 14.6798 16.1172 14.9673 16.056 15.2547L16.0223 15.413C15.9275 15.859 15.8324 16.3048 15.7372 16.7506L15.737 16.7517L15.5459 17.6469C15.5191 17.7726 15.4458 17.836 15.3195 17.8364C15.0445 17.837 14.7694 17.837 14.4944 17.8364C14.3688 17.836 14.3137 17.764 14.3413 17.6401C14.3516 17.5934 14.3626 17.5468 14.3768 17.4864L14.3795 17.4748C14.352 17.4964 14.3262 17.5164 14.3016 17.5355C14.2598 17.568 14.2212 17.5979 14.1833 17.6287C13.8859 17.8704 13.5382 17.9334 13.1675 17.9114C12.9627 17.8993 12.7648 17.8563 12.5841 17.7561C12.2926 17.595 12.1428 17.3357 12.0816 17.0172C12.0255 16.7259 12.0523 16.4394 12.1119 16.1506C12.1773 15.8338 12.2458 15.5191 12.3859 15.2258C12.5941 14.7895 12.8842 14.4286 13.3503 14.2503C13.7496 14.0974 14.1595 14.0816 14.5684 14.2124C14.7405 14.2675 14.8789 14.3798 15.0063 14.5354ZM13.3792 16.4481L13.379 16.4853C13.3787 16.5101 13.3785 16.5348 13.3792 16.5596C13.3858 16.7552 13.488 16.8778 13.679 16.9208C13.973 16.9872 14.2817 16.8471 14.4428 16.5552C14.6187 16.2363 14.681 15.8841 14.691 15.525C14.6965 15.3287 14.5932 15.1868 14.4307 15.1421C14.1698 15.0705 13.8721 15.1211 13.6907 15.3793C13.4652 15.7006 13.4102 16.0707 13.3792 16.4481ZM17.2579 15.1656L17.0935 15.1658C16.9871 15.1659 16.882 15.166 16.778 15.1656C16.608 15.1645 16.5578 15.1029 16.5905 14.9363C16.6245 14.7627 16.6592 14.5892 16.6944 14.4157C16.724 14.2707 16.8097 14.1995 16.9584 14.1977L17.032 14.1969C17.1507 14.1955 17.2696 14.194 17.3883 14.1995C17.4568 14.2025 17.485 14.1767 17.4977 14.1147C17.5314 13.9508 17.5656 13.7869 17.5999 13.623L17.6005 13.6199L17.6008 13.6187C17.6363 13.4488 17.6718 13.2788 17.7067 13.1086C17.7439 12.9272 17.8072 12.8742 17.9941 12.8742L18.2522 12.8741C18.4242 12.874 18.5961 12.8739 18.7682 12.8742C18.9083 12.8742 18.9658 12.9451 18.9369 13.0821L18.8508 13.4908C18.8076 13.6952 18.7645 13.8997 18.7218 14.1041C18.7181 14.1219 18.7159 14.1402 18.7134 14.1618L18.7119 14.1748L18.709 14.1974H19.0436L19.1902 14.1972C19.3105 14.1969 19.4308 14.1966 19.5509 14.1981C19.6786 14.1998 19.7341 14.267 19.7096 14.3926C19.6711 14.5913 19.6298 14.7896 19.5867 14.9876C19.5626 15.0988 19.469 15.1638 19.3348 15.1649C19.0853 15.1666 18.8359 15.1683 18.5864 15.1635C18.5155 15.1621 18.486 15.1839 18.4718 15.253C18.4305 15.4557 18.3879 15.658 18.3452 15.8604C18.3025 16.0628 18.2598 16.2651 18.2185 16.4678C18.2072 16.5229 18.2089 16.5824 18.2158 16.6389C18.2295 16.756 18.2987 16.8211 18.4237 16.8252C18.5669 16.8299 18.7106 16.8302 18.8541 16.8304C18.9111 16.8305 18.9684 16.8306 19.0254 16.831C19.1802 16.8321 19.2381 16.8923 19.2095 17.0445C19.1695 17.2577 19.121 17.4694 19.0718 17.6808C19.0512 17.7689 18.9727 17.8344 18.8863 17.8337C18.8035 17.8328 18.7207 17.8327 18.6379 17.8326C18.3823 17.8323 18.1267 17.832 17.8733 17.8099C17.7022 17.7951 17.527 17.73 17.3718 17.6519C17.0813 17.5056 16.9511 17.2408 16.9529 16.9257C16.9543 16.7191 16.9893 16.5108 17.0279 16.307C17.076 16.054 17.1308 15.8021 17.1857 15.5503C17.2098 15.4396 17.234 15.3287 17.2575 15.2179C17.2593 15.2093 17.2589 15.2 17.2584 15.1879C17.2582 15.1814 17.2579 15.1741 17.2579 15.1656ZM7.84728 16.3954C7.86326 16.3689 7.87941 16.3425 7.89555 16.3161C7.9263 16.2658 7.9571 16.2154 7.98667 16.1644L8.36769 15.5115C8.59348 15.1244 8.81926 14.7373 9.04574 14.3505C9.10289 14.2531 9.1852 14.1963 9.30493 14.1973C9.47206 14.199 9.63918 14.1987 9.8062 14.1984C9.91986 14.1981 10.0336 14.1979 10.1472 14.1983C10.3093 14.199 10.3634 14.2868 10.2787 14.427C10.1249 14.6822 9.96719 14.9353 9.80952 15.1882L9.66567 15.4193C9.51767 15.6577 9.36959 15.896 9.2215 16.1343L9.22012 16.1366C9.07145 16.3758 8.92279 16.615 8.77422 16.8544L8.62228 17.0994C8.51491 17.2728 8.40738 17.4465 8.29882 17.6191L8.28981 17.6335C8.26235 17.6777 8.23358 17.7239 8.19385 17.7534C8.14189 17.7916 8.07612 17.8305 8.01489 17.8326C7.81381 17.8387 7.61257 17.8378 7.41125 17.837C7.34039 17.8367 7.2693 17.8364 7.19842 17.8364C7.05938 17.8364 7.01734 17.8023 6.98912 17.6625C6.957 17.503 6.92576 17.3434 6.89452 17.1837L6.53445 15.3446C6.51178 15.2292 6.48886 15.114 6.46594 14.9988L6.4657 14.9975L6.46527 14.9954C6.42891 14.8125 6.39253 14.6296 6.35721 14.4466C6.32415 14.2765 6.38579 14.2001 6.55718 14.1987C6.80639 14.1966 7.0559 14.197 7.30511 14.1987C7.44043 14.1994 7.49923 14.2469 7.52096 14.3822C7.56124 14.6339 7.59943 14.8858 7.63763 15.1378L7.6848 15.4479C7.72223 15.6921 7.75944 15.9365 7.79663 16.1808L7.82868 16.3913L7.84728 16.3954ZM22.2176 14.23C21.9443 14.2633 21.7116 14.4007 21.5058 14.5946L21.5214 14.5231C21.5295 14.4864 21.5376 14.4494 21.5454 14.4124C21.5729 14.2792 21.5113 14.199 21.376 14.1983C21.1096 14.1969 20.8429 14.1969 20.5765 14.1983C20.4326 14.199 20.35 14.2703 20.3197 14.4135L20.2339 14.8216L20.2336 14.8229C20.1185 15.3705 20.0034 15.9182 19.8873 16.4659C19.8364 16.707 19.7841 16.9479 19.7319 17.1887C19.7001 17.335 19.6682 17.4819 19.6368 17.6283C19.6058 17.773 19.6554 17.836 19.8003 17.836C20.0983 17.8363 20.3964 17.8363 20.6945 17.836C20.8336 17.8356 20.9021 17.775 20.9313 17.6383L21.0063 17.2851C21.1063 16.814 21.2064 16.3425 21.311 15.8727C21.3867 15.5321 21.639 15.3166 21.9983 15.3228C22.2145 15.3264 22.4306 15.3248 22.6467 15.3231L22.6861 15.3228C22.8265 15.3218 22.8964 15.2629 22.927 15.1272L22.9378 15.0795C22.9487 15.0316 22.9596 14.9834 22.9697 14.9351L22.9849 14.8632L23.0014 14.7854C23.0299 14.6513 23.0585 14.5168 23.0836 14.3818C23.1026 14.2795 23.0537 14.2011 22.9632 14.2017L22.8493 14.2024C22.6382 14.2033 22.4261 14.2043 22.2176 14.23ZM25.9427 16.1348C25.9547 16.1715 25.9656 16.2074 25.9763 16.2425C26.0003 16.3211 26.0231 16.3957 26.0535 16.467C26.1254 16.6364 26.2552 16.7573 26.416 16.8424C26.4666 16.8692 26.4796 16.8905 26.459 16.947C26.2053 17.6353 25.9106 18.3036 25.5007 18.9158C25.2701 19.2605 24.9844 19.5438 24.5947 19.704C24.4963 19.7442 24.3859 19.7725 24.2802 19.7749C23.9877 19.7815 23.6953 19.7804 23.4027 19.7792L23.3998 19.7792C23.3149 19.7788 23.23 19.7785 23.145 19.7783C23.0125 19.7783 22.9302 19.6502 22.9849 19.5259C23.0053 19.4798 23.0369 19.4371 23.0703 19.3989C23.3305 19.1018 23.5912 18.8052 23.8519 18.5085L25.7671 16.3283C25.8048 16.2853 25.8435 16.243 25.8832 16.1996L25.8839 16.1988L25.8847 16.198L25.9427 16.1348ZM25.1262 17.8646C25.2814 17.6897 25.4367 17.5148 25.5998 17.3306C25.6209 17.4717 25.6016 17.5499 25.5379 17.6377C25.4512 17.7571 25.3651 17.8772 25.2791 17.9972C25.231 18.0642 25.1827 18.1317 25.1345 18.1986C25.1372 18.201 25.1403 18.2034 25.1431 18.2062C25.2175 18.1245 25.292 18.043 25.3685 17.9592L25.5592 17.7503C25.5599 17.8953 25.5341 18.0079 25.4543 18.1112C25.3717 18.2183 25.294 18.3291 25.2162 18.44C25.184 18.4859 25.1518 18.5317 25.1193 18.5773L25.13 18.5852L25.4691 18.2148C25.4171 18.5343 25.2949 18.8253 25.1678 19.1152C25.1937 19.0935 25.2133 19.069 25.2323 19.0442C25.5358 18.6455 25.6824 18.1865 25.7362 17.6963C25.7533 17.5411 25.7631 17.3852 25.773 17.2291C25.7922 16.9262 25.8115 16.6226 25.8835 16.3231C25.7879 16.6174 25.6041 16.8537 25.4164 17.095C25.3108 17.2306 25.2041 17.3679 25.1111 17.5179L25.6584 16.8926C25.6653 16.8975 25.6725 16.9019 25.6794 16.9067C25.672 16.9363 25.6668 16.9661 25.6616 16.9959C25.6469 17.0795 25.6323 17.1628 25.5716 17.2387C25.4596 17.3791 25.3543 17.525 25.249 17.671C25.2046 17.7325 25.1601 17.7942 25.1152 17.8553C25.1186 17.8583 25.1226 17.8617 25.1262 17.8646ZM27.4238 14.8763C27.3944 14.9517 27.3646 15.0278 27.334 15.1045C27.6551 15.2653 27.8331 15.5098 27.8599 15.8751L27.9054 15.8255C27.9279 15.801 27.9468 15.7804 27.9652 15.7594L28.3351 15.3374C28.5434 15.0995 28.7517 14.8617 28.9604 14.6242C29.1908 14.3621 29.4215 14.1001 29.6522 13.838L29.656 13.8336C29.9834 13.4618 30.3109 13.0898 30.6377 12.7174L30.6606 12.6914C30.723 12.6207 30.7863 12.5491 30.8328 12.4688C30.9041 12.3469 30.8229 12.2213 30.6828 12.2213C30.5874 12.2212 30.492 12.2208 30.3967 12.2205C30.1024 12.2195 29.8081 12.2184 29.5138 12.2247C29.4088 12.2267 29.298 12.254 29.2006 12.2953C28.8013 12.4647 28.5198 12.7683 28.2857 13.123C28.0203 13.5252 27.8087 13.9556 27.618 14.3966C27.5498 14.5539 27.4873 14.7138 27.4238 14.8763ZM28.7129 14.4679L28.7184 14.4724L28.7191 14.4731C28.6617 14.5509 28.6039 14.6285 28.5462 14.7061C28.4017 14.9002 28.257 15.0947 28.1181 15.2928C28.0765 15.3522 28.0488 15.4213 28.0212 15.4903C28.0084 15.5223 27.9956 15.5542 27.9814 15.5852C27.9697 15.6103 27.9573 15.6351 27.9353 15.6568C27.9426 15.6146 27.9506 15.5725 27.9586 15.5304C27.9762 15.4376 27.9938 15.3447 28.0042 15.2512C28.0258 15.0556 28.0396 14.859 28.0523 14.6624C28.0912 14.0502 28.1976 13.4594 28.5821 12.9546C28.5986 12.9333 28.6155 12.9123 28.6392 12.8951C28.6229 12.9359 28.6064 12.9766 28.5899 13.0173C28.491 13.261 28.3921 13.5044 28.3535 13.7714L28.6854 13.4119L28.695 13.4194C28.6627 13.4653 28.631 13.5117 28.5992 13.5582C28.5239 13.6684 28.4484 13.7789 28.3649 13.8825C28.2829 13.9842 28.2675 14.095 28.2616 14.2389L28.6313 13.8344C28.6361 13.8381 28.6409 13.8423 28.6458 13.8464C28.6146 13.8898 28.584 13.9336 28.5534 13.9775C28.4802 14.0823 28.4066 14.1876 28.3263 14.2868C28.2382 14.3956 28.2007 14.5123 28.2127 14.668L28.7115 14.1047L28.7208 14.1119C28.6725 14.1777 28.6243 14.2437 28.5761 14.3097C28.4587 14.4707 28.341 14.632 28.221 14.7908C28.1786 14.8469 28.1714 14.9081 28.1643 14.9691C28.16 15.0053 28.1558 15.0413 28.1443 15.0763L28.1687 15.088L28.7129 14.4679ZM10.6113 17.8361L10.4796 17.8363C10.3774 17.8365 10.275 17.8367 10.1727 17.8357C10.0581 17.8347 10.0071 17.772 10.0312 17.6573C10.1548 17.0682 10.2794 16.4791 10.404 15.8903C10.4799 15.5318 10.556 15.1731 10.6322 14.8144L10.6324 14.8134L10.7221 14.3912C10.7455 14.2803 10.8301 14.2015 10.9437 14.2001C11.236 14.1963 11.5285 14.1963 11.8208 14.2001C11.9381 14.2015 11.9911 14.2838 11.9639 14.4105C11.9365 14.5384 11.9083 14.6663 11.8801 14.7942C11.8524 14.9198 11.8246 15.0458 11.7977 15.1714C11.69 15.6739 11.5829 16.1767 11.4759 16.6796L11.4707 16.704C11.4541 16.7822 11.4373 16.8605 11.4206 16.9387C11.3734 17.159 11.3261 17.3794 11.2824 17.6002C11.2525 17.7507 11.1864 17.8512 10.9978 17.8385C10.9089 17.8325 10.8196 17.834 10.7303 17.8355C10.6905 17.8361 10.651 17.8361 10.6113 17.8361ZM23.3187 17.8363L23.465 17.8362L23.8694 17.8365C24.0323 17.8361 24.0935 17.7841 24.1273 17.622C24.1736 17.4005 24.2209 17.179 24.2682 16.9575L24.3031 16.7935C24.4456 16.127 24.5885 15.4601 24.7313 14.7934L24.7422 14.743L24.7587 14.6679C24.7784 14.5787 24.7981 14.4894 24.8157 14.3999C24.8398 14.278 24.7857 14.2013 24.6694 14.1998C24.3768 14.1964 24.0846 14.1964 23.7923 14.1998C23.6836 14.2013 23.5948 14.2814 23.5724 14.3844C23.5204 14.624 23.4691 14.8637 23.4182 15.1037L23.3217 15.559C23.2055 16.1078 23.0892 16.6565 22.9738 17.2054L22.9674 17.2355C22.9357 17.3846 22.904 17.5341 22.8846 17.685C22.8699 17.7983 22.9132 17.8354 23.0264 17.8362C23.124 17.8366 23.2213 17.8365 23.3187 17.8363ZM26.0187 14.2034L26.1563 14.2037C26.248 14.2039 26.3396 14.2041 26.4314 14.2034C26.5312 14.2024 26.5973 14.2492 26.6424 14.3367C26.7746 14.5932 26.907 14.8497 27.0444 15.1034C27.0647 15.1406 27.1077 15.1782 27.1476 15.1902C27.4447 15.279 27.7624 15.5872 27.7259 16.0713C27.7004 16.4108 27.4247 16.7286 27.0595 16.7947C26.4368 16.907 25.9922 16.3805 26.0748 15.8658C26.0803 15.8307 26.0648 15.788 26.0479 15.7538C25.8433 15.3407 25.6366 14.9286 25.4299 14.5164L25.4232 14.5029C25.3843 14.4255 25.3688 14.3439 25.4349 14.2812C25.4762 14.242 25.5409 14.2113 25.5974 14.2069C25.6971 14.1995 25.7974 14.2009 25.8978 14.2023C25.938 14.2029 25.9785 14.2034 26.0187 14.2034ZM27.2038 15.9873C27.2044 15.8179 27.0595 15.6671 26.8984 15.6702C26.7305 15.6733 26.5883 15.8183 26.589 15.9863C26.5897 16.1512 26.7308 16.2906 26.8974 16.291C27.0682 16.291 27.2031 16.1577 27.2038 15.9873ZM28.124 17.2472C28.0002 16.9996 27.8762 16.7524 27.7433 16.4876C27.6178 16.6752 27.4653 16.8034 27.2738 16.8857C27.0784 16.9697 26.8749 16.9648 26.666 16.9394C26.6673 16.9458 26.668 16.9511 26.6687 16.9556C26.6698 16.9632 26.6705 16.9684 26.6729 16.9727L26.7482 17.1183C26.857 17.3287 26.9657 17.539 27.0787 17.7471C27.0994 17.785 27.1506 17.8294 27.1888 17.8304C27.5141 17.838 27.8397 17.8449 28.1646 17.8322C28.2893 17.8274 28.3423 17.692 28.2876 17.5774C28.2427 17.4835 28.196 17.3906 28.1494 17.2976L28.124 17.2472ZM11.5006 13.7098L11.3601 13.7101C11.2665 13.7103 11.1729 13.7105 11.0796 13.7098C10.9392 13.7084 10.8807 13.6375 10.9095 13.5011C10.9543 13.289 10.9994 13.0773 11.0493 12.8666C11.0765 12.7516 11.1619 12.6879 11.2792 12.6875C11.5656 12.6862 11.852 12.6862 12.1387 12.6875C12.2489 12.6879 12.317 12.7564 12.2963 12.8628C12.2496 13.1004 12.1955 13.3369 12.136 13.5717C12.1112 13.6692 12.0282 13.7084 11.9308 13.7098C11.8394 13.7109 11.7479 13.7107 11.6565 13.7106C11.6047 13.7105 11.5523 13.7097 11.5006 13.7098ZM24.2082 13.7092C24.2551 13.7091 24.3019 13.7089 24.3487 13.7089C24.3901 13.7089 24.4315 13.7094 24.4729 13.7095C24.5747 13.7098 24.6765 13.7101 24.7783 13.7086C24.8908 13.7069 24.9648 13.659 24.9903 13.5564C25.0467 13.3295 25.0994 13.1015 25.1445 12.8722C25.1676 12.7555 25.1008 12.6867 24.9806 12.6863C24.6974 12.6853 24.4137 12.6853 24.1301 12.6863C24.0079 12.6867 23.9246 12.7524 23.8974 12.8726C23.8496 13.0836 23.8034 13.2951 23.7594 13.5071C23.7322 13.6383 23.7911 13.7075 23.9277 13.7089C24.0211 13.7096 24.1147 13.7094 24.2082 13.7092Z" fill="white"/>
</g>
<defs>
<clipPath id="clip0_20699_62">
<rect width="32" height="32" fill="white" transform="translate(0.00195312)"/>
</clipPath>
</defs>
</svg>
