<svg width="32" height="32" viewBox="0 0 32 32" fill="none" xmlns="http://www.w3.org/2000/svg">
<path d="M31.9539 19.8412C31.9284 19.506 31.9232 19.1623 31.8469 18.84C31.5191 17.4512 31.0991 16.0988 30.3803 14.8721C30.2427 14.601 30.1173 14.3216 29.9656 14.0589C28.8715 12.1671 27.5312 10.4831 26.082 8.89319C24.462 7.11506 22.7201 5.47664 20.8678 3.97796C19.6045 2.95617 18.2957 1.99679 17.0035 1.01506C16.7274 0.805485 16.631 0.818523 16.3574 1.02251C15.8507 1.4016 15.3431 1.77977 14.8373 2.15979C14.2246 2.62086 13.6135 3.08378 13.0007 3.54484C12.7816 3.70877 12.6983 3.70132 12.5046 3.50758C12.4564 3.46008 12.4134 3.40699 12.3669 3.35762C11.5464 2.48766 10.7329 1.60838 9.9009 0.750528C9.49855 0.335105 9.00499 0.165581 8.43426 0.259658C8.02053 0.328586 7.71981 0.581936 7.44017 0.879999C6.24003 2.15886 5.03989 3.43772 3.84153 4.71845C2.72029 5.91719 1.59994 7.11595 0.48397 8.31942C0.177142 8.64909 0.00356835 9.05149 6.14879e-05 9.51998C-0.00432372 10.0463 0.226238 10.4636 0.567249 10.8249C1.29048 11.5906 2.01372 12.3572 2.73608 13.1247C2.93244 13.3324 3.13407 13.5355 3.31729 13.7553C3.3769 13.8279 3.44266 13.9769 3.41197 14.0393C3.20771 14.4641 2.97803 14.8758 2.75624 15.2912C2.74572 15.321 2.73432 15.3508 2.7238 15.3815C2.72029 15.3974 2.71679 15.4132 2.71328 15.429C2.45116 16.0466 2.16363 16.6539 1.93657 17.2863C1.77176 17.7455 1.68059 18.2364 1.56926 18.717C1.50088 19.0132 1.42023 19.3132 1.40708 19.6149C1.38078 20.2251 1.3948 20.836 1.39743 21.447C1.39831 21.6073 1.40971 21.7684 1.43513 21.9267C1.49211 22.2891 1.56049 22.6486 1.62449 23.01C1.62799 23.0482 1.62537 23.0873 1.63501 23.1236C2.16012 25.0285 3.14459 26.5923 4.67437 27.751C5.44491 28.3341 6.27595 28.7887 7.19821 29.0243C7.63738 29.137 8.00428 29.2431 8.5342 29.2804C8.85829 29.3033 9.36615 29.2786 9.36615 29.2786C9.4845 29.2683 9.60376 29.2581 9.72211 29.2469C10.1832 29.1696 10.6504 29.1203 11.1036 29.0085C12.7404 28.6071 14.1272 27.7408 15.2625 26.4238C15.4816 26.1694 15.6894 25.904 15.9375 25.6004C15.9296 25.7447 15.9375 25.8369 15.9164 25.9208C15.8429 26.2169 15.7604 26.5104 15.6789 26.8047C15.4536 27.616 15.0451 28.3164 14.4911 28.9144C13.0972 30.4215 11.3377 31.0259 9.41 31.1936C9.26446 31.2066 9.13824 31.2337 9.1102 31.3967C9.08476 31.5476 9.07422 31.7162 9.27409 31.7656C9.34689 31.7618 9.41963 31.7552 9.49237 31.7552C14.3113 31.7552 19.1311 31.7571 23.9501 31.7581C23.9939 31.7581 24.0377 31.7627 24.0807 31.7656C24.2814 31.7115 24.2578 31.5429 24.2394 31.3911C24.2201 31.2299 24.1105 31.1918 23.9685 31.1899C23.744 31.1862 23.5179 31.1816 23.2978 31.1452C22.4572 31.0045 21.6436 30.7642 20.8669 30.3898C19.4949 29.7285 18.436 28.716 17.8284 27.2322C17.6207 26.7255 17.4979 26.1788 17.3366 25.6497C17.3682 25.6311 17.4006 25.6125 17.4322 25.5948C17.4997 25.673 17.5733 25.7466 17.6347 25.8295C18.7647 27.3692 20.2111 28.4058 21.9793 28.9396C22.9638 29.2367 23.9588 29.3597 24.9818 29.2506C25.8427 29.1584 26.658 28.9069 27.44 28.5251C29.2669 27.6337 30.5345 26.1592 31.3507 24.232C31.5208 23.8306 31.6058 23.3873 31.7303 22.9635C31.7566 22.8685 31.7969 22.7744 31.8066 22.6775C31.8749 22.0311 31.9494 21.3856 31.9942 20.7383C32.0143 20.4411 31.9775 20.1393 31.9539 19.8412ZM1.25104 10.4337C1.1283 10.3024 1.01872 10.1543 0.91791 10.0034C0.657543 9.60943 0.688227 9.23966 1.01259 8.88662C1.45004 8.4088 1.89274 7.93658 2.33545 7.46526C4.00371 5.68715 5.67282 3.90996 7.34375 2.13371C7.60673 1.85428 7.87674 1.58323 8.14324 1.30753C8.48163 0.959172 9.00232 0.950787 9.35301 1.29541C9.5292 1.4696 9.69491 1.65495 9.86498 1.83565C12.011 4.11581 14.157 6.39501 16.3013 8.67612C16.5012 8.88945 16.7037 9.10272 16.723 9.43619C16.744 9.7985 16.5915 10.076 16.3635 10.3192C15.1117 11.652 9.50818 17.6188 9.50818 17.6188C9.20135 17.943 8.82704 18.0762 8.4001 17.9356C8.30277 17.9038 8.13621 17.7502 8.13621 17.7502C8.13621 17.7502 2.70364 11.9911 1.25104 10.4337Z" fill="#0666FE"/>
</svg>
