<svg width="32" height="32" viewBox="0 0 32 32" fill="none" xmlns="http://www.w3.org/2000/svg">
<path d="M18.0776 8.9844H13.4907C8.52614 8.9844 7.39292 9.79385 7.06914 14.003H24.6071V12.7618C24.6071 10.8731 23.204 8.9844 18.0776 8.9844ZM18.8331 3.75H13.113C5.50421 3.75 0 5.58474 0 13.4094V18.6438C0 26.4684 5.55818 28.2492 13.113 28.2492H18.8331C26.4418 28.2492 32 26.4144 32 18.5898V13.3554C31.946 5.58474 26.4418 3.75 18.8331 3.75ZM27.7369 16.5392H7.1231V17.7264C7.1231 21.9895 9.17369 23.0148 14.6239 23.0148H18.941C22.8803 23.0148 24.4452 22.5291 24.661 19.6691H27.7909V20.0468C27.7909 24.3099 24.2833 25.551 18.4553 25.551H12.7352C8.63406 25.551 3.99325 24.7955 3.99325 17.9422V13.895C3.99325 7.14966 8.63406 6.39418 13.113 6.39418H18.1315C23.7437 6.39418 27.7909 7.79722 27.7909 14.4347L27.7369 16.5392Z" fill="#006AA6"/>
</svg>
