<svg enable-background="new 0 0 394.738 180.277" xmlns="http://www.w3.org/2000/svg" xmlns:xlink="http://www.w3.org/1999/xlink" viewBox="0 0 394.738 180.277" xml:space="preserve">
<polygon fill="#FFFFFF" points="45.135,162.794 65.268,162.794 65.268,174.332 31.21,174.332 31.21,146.163 67.813,146.163
	67.813,140.354 29.46,140.354 24.845,144.969 24.845,175.525 29.46,180.14 66.78,180.14 71.395,175.525 71.395,156.985
	45.135,156.985 "/>
<path fill="#FFFFFF" d="M111.652,140.354L87.464,176.32v3.819h5.411l6.128-9.549h31.192l6.128,9.549h5.411v-3.819l-24.189-35.966
	C117.543,140.354,111.652,140.354,111.652,140.354z M102.82,164.782l11.777-18.302l11.777,18.302
	C126.374,164.782,102.82,164.782,102.82,164.782z"/>
<polygon fill="#FFFFFF" points="200.85,140.354 188.117,172.819 175.466,140.354 167.747,140.354 157.006,176.32 157.006,180.14
	163.052,180.14 171.806,147.118 184.776,180.14 191.46,180.14 204.509,147.118 213.262,180.14 219.31,180.14 219.31,176.32
	208.567,140.354 "/>
<polygon fill="#FFFFFF" points="236.338,175.525 240.953,180.14 279.546,180.14 279.546,174.332 242.703,174.332 242.703,162.794
	277.318,162.794 277.318,156.985 242.703,156.985 242.703,146.163 279.546,146.163 279.546,140.354 236.338,140.354 "/>
<polygon fill="#FFFFFF" points="306.281,153.405 306.281,146.163 346.147,146.163 346.147,140.354 304.53,140.354 299.915,144.969
	299.915,154.598 304.53,159.213 344.316,165.579 344.316,174.332 299.915,174.332 299.915,180.14 346.067,180.14 350.682,175.525
	350.682,164.305 346.227,159.85 "/>
<path fill="#FFFFFF" d="M244.157,14.379L264.345,0h130.393l-6.87,16.984c-3.419,8.462-11.632,14.002-20.76,14.002h-90.007
	l-6.921,17.353h80.501l-5.938,14.697c-3.554,8.796-14.076,19.264-23.564,19.264h-64.804l-11.172,27.652
	c-3.417,8.458-11.626,13.995-20.748,13.995h-24.569L244.157,14.379z"/>
<path fill="#FFC20E" d="M76.235,40.854c-27.354,3.166-36.521,9.695-50.221,35.77c-1.134,2.158-4.271,2.158-3.662,0
	c7.37-26.075,3.478-32.604-21.317-35.77c-2.052-0.262-0.785-3.399,1.479-3.662c27.354-3.165,36.522-9.499,50.221-35.574
	c1.134-2.158,4.271-2.158,3.662,0c-7.37,26.075-3.478,32.408,21.317,35.574C79.766,37.455,78.499,40.593,76.235,40.854z"/>
<path fill="#FFFFFF" d="M49.809,62.157l0.003-0.002l0.014-0.034C49.821,62.134,49.814,62.145,49.809,62.157z"/>
<path fill="#FFFFFF" d="M214.24,0H74.924l-6.898,17.072C66.364,21.186,67.558,26,71.13,28.633c0.045,0.033,0.09,0.066,0.135,0.099
	c2.08,1.507,4.617,2.254,7.185,2.254l97.986,0l-7.011,17.353c0,0-99.483-0.092-100.696,0.053c-2.761,0.184-5.415,0.879-7.849,2.011
	c-4.906,2.282-8.916,6.33-11.089,11.526l0.022,0.225l-24.966,61.792h142.814c8.937,0,16.997-5.377,20.431-13.628l14.442-34.712
	l-8.32-14.379l9.234-6.697c2.901-2.104,5.151-4.98,6.493-8.303l12.868-31.851L214.24,0z M155.859,92.96h-78.83l7.612-18.839h78.83
	L155.859,92.96z"/>
</svg>
