<svg width="32" height="32" viewBox="0 0 32 32" fill="none" xmlns="http://www.w3.org/2000/svg">
<path d="M23.5212 16.0033H21.2493V13.8182H23.5046C24.7723 13.8182 24.6789 16.0033 23.5212 16.0033ZM23.598 17.3344H21.2493V19.7832H23.598C24.9858 19.7832 24.9858 17.3344 23.598 17.3344ZM31.1976 20.2569C31.1976 20.9842 30.8707 21.6714 30.3102 22.1318L23.7114 27.5396C23.2644 27.9066 22.6238 27.9066 22.1768 27.5396L17.2694 23.5296V26.1651C17.2694 26.6756 17.4962 27.156 17.8899 27.4796L20.7856 29.8515C21.6664 30.5721 21.1559 32 20.0183 32H11.9616C10.824 32 10.3136 30.5721 11.1943 29.8515L14.1167 27.4562C14.5104 27.1326 14.7373 26.6522 14.7373 26.1451V23.4929L9.79647 27.543C9.34943 27.9099 8.70556 27.9099 8.25852 27.543L1.68971 22.1585C1.12925 21.6981 0.802307 21.0075 0.802307 20.2836V12.9675C0.802307 12.457 1.02916 11.9766 1.42282 11.653L15.3711 0.220183C15.7281 -0.0733945 16.2418 -0.0733945 16.5988 0.220183L30.5704 11.6664C30.9641 11.99 31.191 12.4704 31.191 12.9775V20.2569H31.1976ZM14.7373 16.9908L7.04751 23.2961L8.72224 24.6706C8.90239 24.8173 9.15927 24.8173 9.33609 24.6706L14.4704 20.4637C14.6405 20.3269 14.7373 20.1201 14.7373 19.8999V16.9908ZM14.7373 10.4921L3.46453 19.7298C3.26436 19.8932 3.26436 20.2002 3.46453 20.3636L5.05919 21.6714L14.4637 13.965C14.6338 13.8282 14.7306 13.6214 14.7306 13.4012V10.4921H14.7373ZM14.7373 3.98999L3.58129 13.1343C3.41448 13.2711 3.3144 13.4779 3.3144 13.6981V16.6038L14.467 7.45955C14.6372 7.32277 14.7339 7.11593 14.7339 6.89575V3.98999H14.7373ZM25.1926 16.5972C26.7373 15.8799 26.7373 12.5204 23.6013 12.5204H19.5546V21.0809H23.6013C26.9441 21.0809 27.1076 17.4679 25.1926 16.5938V16.5972Z" fill="white"/>
</svg>
