<svg width="32" height="32" viewBox="0 0 32 32" fill="none" xmlns="http://www.w3.org/2000/svg">
<path d="M0.712252 25.2654C0.517496 25.2654 0.350561 25.1931 0.21145 25.054C0.0723381 24.9148 0 24.748 0 24.5532V7.44795C0 7.25323 0.0723381 7.08628 0.21145 6.94717C0.350561 6.80806 0.517496 6.73569 0.712252 6.73569H8.52477C9.65436 6.73569 10.6003 6.9082 11.3571 7.25323C12.1138 7.59819 12.7259 8.03223 13.1822 8.54977C13.6441 9.07281 13.9724 9.63482 14.1727 10.2469C14.373 10.859 14.4787 11.4266 14.4787 11.9552C14.4787 12.4838 14.4064 12.9568 14.2673 13.3741C14.1282 13.7915 13.9557 14.142 13.7498 14.4314C13.5439 14.7207 13.3436 14.9656 13.1433 15.1603C12.9374 15.3551 12.776 15.4886 12.6536 15.5554C13.1989 15.9283 13.7053 16.4513 14.1616 17.1302C14.6178 17.809 14.8516 18.6715 14.8516 19.7121C14.8516 20.3854 14.7292 21.0475 14.4787 21.7097C14.2283 22.3719 13.8722 22.9673 13.3937 23.4959C12.9152 24.0246 12.3197 24.453 11.6075 24.7813C10.8897 25.1096 10.0661 25.271 9.13131 25.271H0.712252V25.2654ZM10.9064 12.0832C10.9064 11.4099 10.6949 10.9035 10.272 10.5585C9.84908 10.2135 9.17579 10.041 8.25768 10.041H3.57239V14.1198H8.26325C9.18136 14.1198 9.85465 13.9473 10.2775 13.6023C10.7004 13.2573 10.9119 12.7509 10.9119 12.0776L10.9064 12.0832ZM3.57239 21.9602H8.47467C9.44288 21.9602 10.1551 21.7542 10.6059 21.3369C11.0566 20.9251 11.2792 20.3798 11.2792 19.7065C11.2792 19.0332 11.0455 18.4879 10.578 18.065C10.1107 17.6421 9.40954 17.4306 8.47467 17.4306H3.57239V21.9602Z" fill="#EC1C24"/>
<path d="M15.9242 13.5905C15.9576 12.5333 16.1524 11.5651 16.5085 10.6915C16.8646 9.81783 17.371 9.06661 18.0443 8.44342C18.7176 7.8146 19.5411 7.33052 20.5205 6.9855C21.4998 6.64053 22.6406 6.46802 23.9482 6.46802C25.484 6.46802 26.7527 6.66836 27.7487 7.06343C28.7448 7.4585 29.5405 7.93701 30.1303 8.49352C30.7202 9.04996 31.1375 9.62305 31.3768 10.2129C31.616 10.8027 31.7496 11.3035 31.7885 11.7097C31.8052 11.9212 31.7384 12.0937 31.5882 12.2273C31.438 12.3608 31.2655 12.4276 31.0707 12.4276H28.9284C28.7336 12.4276 28.5778 12.3775 28.4665 12.2829C28.3497 12.1883 28.2662 12.0826 28.2162 11.9769C28.1828 11.9045 28.0882 11.7543 27.9379 11.515C27.7877 11.2757 27.5484 11.0309 27.2201 10.7749C26.8918 10.519 26.4633 10.2908 25.9347 10.0849C25.4061 9.88463 24.7439 9.77886 23.9482 9.77886C22.6239 9.77886 21.5666 10.135 20.7709 10.8528C19.9752 11.5706 19.5523 12.5278 19.5022 13.7241C19.4688 14.3974 19.4521 15.1152 19.4521 15.8831C19.4521 16.651 19.4688 17.3688 19.5022 18.0421C19.5578 19.5056 19.9807 20.5684 20.7709 21.2306C21.5666 21.8928 22.6239 22.221 23.9482 22.221C24.5993 22.221 25.2002 22.1487 25.7511 22.0096C26.2964 21.8705 26.7694 21.6368 27.17 21.3196C27.5651 21.0024 27.8767 20.5851 28.0993 20.0621C28.3219 19.5389 28.4276 18.8991 28.4276 18.1423V17.9308H25.2002C25.0055 17.9308 24.8385 17.8585 24.6994 17.7194C24.5603 17.5803 24.4879 17.4134 24.4879 17.2186V15.3378C24.4879 15.143 24.5603 14.9761 24.6994 14.837C24.8385 14.6979 25.0055 14.6256 25.2002 14.6256H31.2877C31.4825 14.6256 31.6494 14.6979 31.7885 14.837C31.9276 14.9761 32 15.1486 32 15.3378V18.248C32 19.3053 31.8331 20.2846 31.4992 21.1749C31.1653 22.0652 30.6589 22.8332 29.9912 23.4786C29.3179 24.1241 28.4832 24.6249 27.4761 24.9866C26.4689 25.3483 25.2948 25.5319 23.9537 25.5319C22.6127 25.5319 21.4497 25.3539 20.4593 25.0033C19.4688 24.6527 18.6508 24.1575 17.9942 23.5231C17.3376 22.8888 16.8424 22.1265 16.4974 21.2306C16.1524 20.3403 15.9632 19.3665 15.9298 18.3036C15.9131 17.9698 15.8964 17.597 15.8908 17.1908C15.8797 16.7845 15.8797 16.3672 15.8797 15.9443C15.8797 15.5214 15.8797 15.1041 15.8908 14.6979C15.902 14.2917 15.9131 13.9189 15.9298 13.585L15.9242 13.5905Z" fill="#EC1C24"/>
</svg>
