<svg width="32" height="32" viewBox="0 0 32 32" fill="none" xmlns="http://www.w3.org/2000/svg">
<path d="M21.3995 0.564276C28.6125 -0.637908 34.1726 6.19951 31.1671 12.8115L25.2314 26.4864C22.4514 32.6475 14.2617 33.3238 10.0541 27.9139L1.93944 17.3948C-2.26815 11.9099 0.73727 4.02055 7.42433 2.89351L21.3995 0.564276Z" fill="#069BE8"/>
<path d="M17.8694 22.6547C16.2915 22.6547 14.9391 22.3541 13.6618 21.6779C12.3845 21.0017 11.4077 20.0249 10.7315 18.8979C10.0553 17.6957 9.6796 16.3432 9.6796 14.8405C9.6796 13.3378 10.0553 11.9853 10.7315 10.7831C11.4828 9.58095 12.4596 8.67931 13.6618 8.00308C14.9391 7.32685 16.3667 6.95117 17.8694 6.95117C19.1467 6.95117 20.3488 7.17658 21.4007 7.6274C22.4526 8.07822 23.3543 8.75445 24.1056 9.65608L21.8515 11.7599C20.7996 10.5577 19.5223 9.95663 18.0196 9.95663C17.118 9.95663 16.2164 10.182 15.465 10.5577C14.7137 10.9334 14.1877 11.5345 13.7369 12.2859C13.3612 13.0372 13.1358 13.8637 13.1358 14.8405C13.1358 15.8173 13.4364 16.4935 13.812 17.2449C14.2629 17.9962 14.7888 18.5973 15.5402 18.973C16.2915 19.3487 17.118 19.5741 18.0948 19.5741C19.5975 19.5741 20.8748 18.973 21.9267 17.7708L24.1807 19.8746C23.4294 20.7763 22.5278 21.4525 21.4759 21.9033C20.3488 22.4293 19.1467 22.6547 17.8694 22.6547Z" fill="white"/>
</svg>
