<svg width="300" height="300" viewBox="0 0 300 300" fill="none" xmlns="http://www.w3.org/2000/svg">
    <path d="M282.4 99.1316C276.129 91.2168 265.233 78.9475 240.695 79.0002C220.918 79.0432 204.104 96.8873 202.585 117.157C201.113 135.934 212.956 153.817 230.84 159.748C239.627 162.662 249.137 162.543 257.849 159.411C266.561 156.278 273.973 150.312 278.901 142.466C277.406 148.769 274.7 154.08 270.777 158.329C260.138 169.867 244.055 170.001 243.897 170.001C228.731 170.001 213.919 165.401 200.984 157.722C198.13 156.042 194.842 154.128 191.296 152.104C194.913 144.049 196.355 135.185 195.478 126.398C193.088 102.051 173.225 82.6848 148.855 80.9382C121.607 78.918 97.1254 100.027 94.7855 127.014C94.0247 135.789 95.5653 144.611 99.2547 152.606C97.2187 154.066 94.3129 156.018 90.4177 158.349C84.367 161.985 70.9274 170.173 54.2379 169.441C35.2781 168.608 19.8742 152.984 18.6077 134.03C16.7518 107.079 44.0727 86.3931 69.4976 95.6182C77.4645 98.5089 84.2387 103.981 88.7449 111.166L95.3739 99.0215C90.3147 92.9368 83.8979 88.1278 76.6412 84.9825C69.3845 81.8372 61.491 80.4437 53.5974 80.9143C28.5105 82.3498 8.05008 102.419 6.1479 127.503C5.61562 134.459 6.52361 141.451 8.81501 148.04C15.8076 168.147 35.2657 182.03 56.5606 182.055C57.7794 182.055 75.5969 183.409 96.8603 169.106C100.555 166.622 103.647 164.847 105.888 163.268C115.452 175.125 130.211 182.14 145.445 182.053C160.68 181.967 175.359 174.783 184.786 162.818C188.39 164.852 191.731 166.823 194.598 168.517C209.449 177.308 226.513 182.538 243.893 182.538C246.101 182.538 265.878 182.098 279.972 166.833C289.684 156.281 304.71 127.273 282.4 99.1316ZM180.236 146.18C170.443 141.28 159.905 137.04 150.991 136.274C133.786 134.805 120.007 142.529 119.448 142.864L125.661 153.75C125.766 153.688 136.797 147.625 149.954 148.764C156.727 149.348 165.248 152.721 173.526 156.808C167.18 163.871 158.414 168.289 148.967 169.186C129.622 171.023 111.59 157.296 108.155 138.18C103.93 114.67 122.971 92.955 146.9 94.0304C161.362 94.6804 175.454 103.195 181.004 118.661C184.213 127.602 183.949 137.424 180.265 146.18H180.236ZM243.878 149.271C225.92 149.271 212.046 132.299 215.542 114.701C217.796 103.356 226.894 94.2335 238.242 91.9736C249.586 89.7143 261.481 94.6543 267.901 104.274C271.075 109.031 272.77 114.623 272.77 120.344C272.751 136.078 259.622 149.253 243.878 149.271Z"
          fill="url(#paint0_linear_2003_67)"/>
    <path d="M103.019 219.423H96.8879C96.5098 219.422 96.1351 219.366 95.7737 219.255C91.2099 217.84 88.1617 213.316 88.5457 208.556C88.9321 203.797 92.6704 199.824 97.402 199.164C100.498 198.731 103.69 199.763 105.949 201.923L106.852 200.765C104.36 198.581 101.152 197.389 97.8384 197.415C90.6696 197.415 84.877 202.761 84.877 209.35C84.877 215.432 89.5129 220.528 95.8981 221.265C96.7986 221.265 97.571 221.265 98.4009 221.265H106.767V208.823H103.019V219.423Z"
          fill="white"/>
    <path d="M161.815 198.148H165.237V221.294H161.815V198.148Z" fill="white"/>
    <path fill-rule="evenodd" clip-rule="evenodd"
          d="M113.353 217.399L111.718 221.289H109.744L119.465 198.32H121.019L130.74 221.289H127.146L125.378 217.399H113.353ZM120.197 204.01H119.365L114.285 215.427H124.861L120.197 204.01Z"
          fill="white"/>
    <path d="M134.238 221.289V198.248H137.001L144.867 207.072L152.94 198.248H155.492V221.289H151.664V203.129L144.548 210.809L136.15 201.78V221.289H134.238Z"
          fill="white"/>
    <path d="M186.033 221.289L173.735 205.11V221.289H172.077V198.148H173.735L187.208 216.638V198.148H188.867V221.289H186.033Z"
          fill="white"/>
    <path d="M205.126 219.423H211.258L211.277 208.823H215.01V221.265H207.36C206.291 221.265 205.238 221.265 204.137 221.265C197.751 220.528 193.12 215.432 193.12 209.35C193.12 202.761 198.908 197.415 206.077 197.415C209.39 197.389 212.598 198.581 215.091 200.765L214.188 201.923C211.928 199.763 208.737 198.731 205.64 199.164C200.909 199.824 197.171 203.797 196.784 208.556C196.4 213.316 199.449 217.84 204.012 219.255C204.374 219.366 204.749 219.422 205.126 219.423Z"
          fill="white"/>
    <defs>
        <linearGradient id="paint0_linear_2003_67" x1="149.997" y1="79.0002" x2="149.997" y2="182.538"
                        gradientUnits="userSpaceOnUse">
            <stop stop-color="#FFCF00"/>
            <stop offset="0.07" stop-color="#FDC005"/>
            <stop offset="0.26" stop-color="#F99C10"/>
            <stop offset="0.44" stop-color="#F57F19"/>
            <stop offset="0.63" stop-color="#F36A1F"/>
            <stop offset="0.82" stop-color="#F15E23"/>
            <stop offset="1" stop-color="#F15A24"/>
        </linearGradient>
    </defs>
</svg>
