<svg width="542" height="542" viewBox="0 0 542 542" fill="none" xmlns="http://www.w3.org/2000/svg">
    <g clip-path="url(#clip0_139_664)">
        <path d="M0.257812 111.56C0.257812 49.9475 50.1038 0 111.592 0H429.822C491.31 0 541.156 49.9476 541.156 111.56V430.44C541.156 492.052 491.31 542 429.822 542H111.592C50.1038 542 0.257812 492.052 0.257812 430.44V111.56Z"
              fill="white"/>
        <path d="M112.621 77.6279C292.112 -4.11499 422.035 123.065 428.259 262.162C235.543 277.976 167.191 224.409 112.621 77.6279Z"
              fill="black"/>
        <path d="M112.621 464.07C281.443 545.813 415.923 427.987 428.259 283.322C276.219 268.065 180.529 286.997 112.621 464.07Z"
              fill="black"/>
        <path d="M385.471 158.369C385.471 197.125 375.134 233.43 357.129 264.724C217.426 261.939 159.856 204.697 112.621 77.6285C232.764 22.8363 330.789 61.8146 384.248 135.205C385.026 142.778 385.471 150.573 385.471 158.369Z"
              fill="black"/>
        <path d="M348.019 279.091C309.674 334.774 245.548 371.302 172.861 371.302C168.639 371.302 164.415 371.19 160.191 370.857C208.76 302.255 269.331 280.427 348.019 279.091Z"
              fill="black"/>
        <path d="M348.019 279.091C309.674 334.774 245.548 371.302 172.861 371.302C168.639 371.302 164.415 371.19 160.191 370.857C208.76 302.255 269.331 280.427 348.019 279.091Z"
              fill="url(#paint0_radial_139_664)"/>
        <path d="M385.471 158.369C385.471 197.125 375.134 233.43 357.129 264.724C217.426 261.939 159.856 204.697 112.621 77.6285C232.764 22.8363 330.789 61.8146 384.248 135.205C385.026 142.778 385.471 150.573 385.471 158.369Z"
              fill="url(#paint1_radial_139_664)"/>
    </g>
    <defs>
        <radialGradient id="paint0_radial_139_664" cx="0" cy="0" r="1" gradientUnits="userSpaceOnUse"
                        gradientTransform="translate(237.007 303.015) rotate(58.1162) scale(117.321 479.016)">
            <stop/>
            <stop offset="1" stop-color="white"/>
        </radialGradient>
        <radialGradient id="paint1_radial_139_664" cx="0" cy="0" r="1" gradientUnits="userSpaceOnUse"
                        gradientTransform="translate(385.461 242.707) rotate(-146.461) scale(346.058 229.104)">
            <stop stop-color="#F2F2F2"/>
            <stop offset="0.555279" stop-color="#262626"/>
            <stop offset="1"/>
        </radialGradient>
        <clipPath id="clip0_139_664">
            <rect width="542" height="542" fill="white"/>
        </clipPath>
    </defs>
</svg>
