<svg width="542" height="542" viewBox="0 0 542 542" fill="none" xmlns="http://www.w3.org/2000/svg">
    <path d="M297.899 148C297.899 155.593 297.899 162.766 297.899 169.939C297.899 186.61 297.899 203.281 297.899 219.952C297.899 225.229 295.165 227.875 289.698 227.892C240.121 227.892 190.569 227.892 140.992 227.892C135.673 227.892 133.005 230.629 132.989 236.103C132.989 251.34 133.186 266.576 132.865 281.812C132.741 287.254 134.446 288.862 139.856 288.837C184.295 288.639 228.709 288.738 273.148 288.738C275.791 288.738 278.409 288.738 281.546 288.738V368.729C278.755 368.877 275.939 369.174 273.148 369.174C229.129 369.198 185.11 369.174 141.091 369.198C132.989 369.198 132.964 369.223 132.964 377.386C132.964 392.003 133.186 406.621 132.84 421.239C132.717 426.78 134.569 428.165 139.905 428.14C189.877 427.967 239.874 428.041 289.846 428.041C295.198 428.041 297.874 430.754 297.874 436.179C297.874 458.835 297.701 481.467 297.998 504.124C298.072 509.689 296.244 511 290.933 511C211.343 510.852 131.729 510.827 52.1389 511C46.3586 511 45 509.194 45 503.654C45.1482 387.353 45.0988 271.028 45.0988 154.728C45.0988 152.675 45.0988 150.647 45.0988 148.025H297.899V148Z"
          fill="#F62442"/>
    <path d="M497.998 166.743C497.966 207.767 462.8 242.968 421.887 243C380.424 243 345.13 207.8 345 166.581C344.871 128.534 375.419 90.2599 421.661 90.001C465.965 89.7746 498.257 126.949 497.998 166.743Z"
          fill="#F52442"/>
</svg>
