<svg width="32" height="32" viewBox="0 0 32 32" fill="none" xmlns="http://www.w3.org/2000/svg">
<g clip-path="url(#clip0_20702_108)">
<path d="M5.90406 0C2.64334 0 0 2.64334 0 5.90407V22.4721C0.809916 22.3212 1.61846 22.1633 2.42538 21.9978C3.76152 21.7249 4.45403 20.8653 4.66789 19.4804C4.71374 19.1851 4.75808 18.8881 4.80244 18.591L4.80297 18.5875C5.05793 16.8799 5.31546 15.155 5.88589 13.5512C7.33815 9.47357 10.0552 6.70757 14.5891 6.03953C16.0332 5.82769 18.3062 6.11079 18.9478 6.21877C21.0743 6.57313 22.7241 7.69544 24.2333 9.19861C25.3699 10.329 26.6734 11.3169 27.9953 12.2354C29.2783 13.1229 30.6265 13.4219 32 13.2374V5.90407C32 2.64334 29.3566 0 26.0959 0H5.90406Z" fill="white"/>
<path fill-rule="evenodd" clip-rule="evenodd" d="M0 23.5658V26.096C0 29.3567 2.64334 32 5.90406 32H26.0959C29.3566 32 32 29.3567 32 26.096V14.079C31.6571 14.1236 31.3088 14.1534 30.9547 14.1684C28.4312 14.2743 26.5044 13.0074 24.6448 11.545C24.2677 11.249 23.8951 10.9438 23.5232 10.6391C22.5595 9.84945 21.5957 9.05972 20.5406 8.42052C17.6362 6.66075 14.4302 6.72593 11.4463 7.95002C8.56023 9.13343 6.99796 11.7364 6.27495 14.704C5.93982 16.0819 5.73644 17.4913 5.53308 18.9005C5.43734 19.5639 5.3416 20.2274 5.23208 20.8878C4.95508 22.562 4.33793 23.1323 2.62906 23.3054C1.753 23.3951 0.876532 23.4809 0 23.5658ZM12.4957 24.8034C10.9599 23.6852 9.63606 22.2533 8.33858 20.8479C7.98422 20.463 7.77238 19.5404 7.99644 19.1431C8.22452 18.7378 9.0698 18.4893 9.63807 18.4995C10.6172 18.5182 11.5941 18.6492 12.5694 18.7799C12.8681 18.8199 13.1667 18.8599 13.4652 18.8967C14.6669 19.0454 15.7403 18.7562 16.6996 18.025L17.2603 17.5971C18.8186 16.4077 20.376 15.2191 21.9383 14.0369C22.368 13.711 22.8039 13.3851 23.2683 13.1122C24.0586 12.6478 24.5393 12.8555 24.5515 13.7477C24.5617 14.5033 24.5332 15.3466 24.2154 16.0045C22.8691 18.7888 21.4331 21.5323 19.9768 24.2596C19.2416 25.6365 18.0093 26.2455 16.439 26.1579C16.4023 26.2496 13.5915 25.5978 12.4978 24.8014L12.4957 24.8034ZM14.0693 13.1017C14.2241 13.5865 14.2302 14.1079 14.0856 14.5968L14.0709 14.6467C13.9156 15.1739 13.7698 15.6693 13.5072 16.0938C12.6293 17.5236 10.7147 17.4748 9.79819 16.0734C8.90603 14.7108 8.93254 12.6211 9.8613 11.2788C10.7718 9.96307 12.4378 9.88974 13.3056 11.2442C13.6429 11.7697 13.84 12.3874 14.0374 13.0061L14.0673 13.0997L14.0693 13.1017ZM16.5808 13.1546C16.4708 13.1098 16.4077 12.9957 16.426 12.8796C16.4379 12.8094 16.449 12.7388 16.4601 12.6682C16.5076 12.3657 16.5553 12.0619 16.6725 11.7879C17.3915 10.1218 19.5546 9.10136 21.3123 9.60444C21.7115 9.71851 22.127 9.96087 22.4081 10.2623C22.9254 10.8143 22.7462 11.2339 21.9926 11.3439C21.6069 11.4001 21.217 11.4251 20.8266 11.4502C20.6789 11.4597 20.5311 11.4692 20.3835 11.4803C19.1431 11.5761 17.9923 11.8633 17.1715 12.9081C17.0968 13.0015 16.9755 13.058 16.8547 13.1144C16.8304 13.1256 16.8063 13.1369 16.7825 13.1485C16.7193 13.1791 16.646 13.1811 16.5788 13.1546H16.5808Z" fill="white"/>
</g>
<defs>
<clipPath id="clip0_20702_108">
<rect width="32" height="32" fill="white"/>
</clipPath>
</defs>
</svg>
