<svg xmlns="http://www.w3.org/2000/svg" version="1.1" viewBox="0 0 837.9 506.7">
  <g>
    <g>
      <rect fill="#0068ff" width="837.9" height="506.7"/>
      <rect x="-2821.3" width="837.9" height="506.7"/>
      <rect fill="#fff" x="-1857.9" width="837.9" height="506.7"/>
      <g>
        <path d="M-1567.8,41.7c-113.6,0-247.6,49.8-247.6,211.5s134,211.5,247.6,211.5h125.2v-212.2h-83.9v130.6h-41.3c-108.2,0-158.3-46.4-158.3-130.6s49.4-129.3,173.3-129.3h110.3V41.7s-125.3,0-125.3,0Z"/>
        <path d="M-1255.8,42c-103.5,0-140.1,57.7-140.1,122.7s27.7,125.3,125.8,125.3h60.2c43.3,0,67,7.3,67,46.4s-23.7,47.1-67,47.1h-167.2v81.5h167.2c113.6,0,147.5-43.7,147.5-125.9s-26.4-126.6-142.1-126.6h-56.2c-35.9,0-54.8-9.2-54.8-43.1s19-45.8,55.5-45.8h163.7V42h-159.6Z"/>
      </g>
      <g>
        <path fill="#fff" d="M-2531.2,41.7c-113.6,0-247.6,49.8-247.6,211.5s134,211.5,247.6,211.5h125.2v-212.2h-83.9v130.6h-41.3c-108.2,0-158.3-46.4-158.3-130.6s49.4-129.3,173.3-129.3h110.3V41.7s-125.3,0-125.3,0Z"/>
        <path fill="#fff" d="M-2219.2,42c-103.5,0-140.1,57.7-140.1,122.7s27.7,125.3,125.8,125.3h60.2c43.3,0,67,7.3,67,46.4s-23.7,47.1-67,47.1h-167.2v81.5h167.2c113.6,0,147.5-43.7,147.5-125.9s-26.4-126.6-142.1-126.6h-56.2c-35.9,0-54.8-9.2-54.8-43.1s19-45.8,55.5-45.8h163.7V42h-159.6Z"/>
      </g>
      <g>
        <path fill="#fff" d="M290,41.7c-113.6,0-247.6,49.8-247.6,211.5s134,211.5,247.6,211.5h125.2v-212.2h-83.9v130.6h-41.3c-108.2,0-158.3-46.4-158.3-130.6s49.4-129.3,173.3-129.3h110.3V41.7s-125.3,0-125.3,0Z"/>
        <path fill="#fff" d="M602,42c-103.5,0-140.1,57.7-140.1,122.7s27.7,125.3,125.8,125.3h60.2c43.3,0,67,7.3,67,46.4s-23.7,47.1-67,47.1h-167.2v81.5h167.2c113.6,0,147.5-43.7,147.5-125.9s-26.4-126.6-142.1-126.6h-56.2c-35.9,0-54.8-9.2-54.8-43.1s19-45.8,55.5-45.8h163.7V42h-159.6Z"/>
      </g>
      <rect fill="#fff" x="-914.4" width="837.9" height="506.7"/>
      <g>
        <path fill="#0068ff" d="M-624.3,41.7c-113.6,0-247.6,49.8-247.6,211.5s134,211.5,247.6,211.5h125.2v-212.2h-83.9v130.6h-41.3c-108.2,0-158.3-46.4-158.3-130.6s49.4-129.3,173.3-129.3h110.3V41.7s-125.3,0-125.3,0Z"/>
        <path fill="#0068ff" d="M-312.3,42c-103.5,0-140.1,57.7-140.1,122.7s27.7,125.3,125.8,125.3h60.2c43.3,0,67,7.3,67,46.4s-23.7,47.1-67,47.1h-167.2v81.5h167.2c113.6,0,147.5-43.7,147.5-125.9s-26.4-126.6-142.1-126.6h-56.2c-35.9,0-54.8-9.2-54.8-43.1s19-45.8,55.5-45.8h163.7V42h-159.6Z"/>
      </g>
    </g>
  </g>
</svg>
