<?xml version="1.0" encoding="utf-8"?>
<!-- Generator: Adobe Illustrator 26.3.1, SVG Export Plug-In . SVG Version: 6.00 Build 0)  -->
<svg version="1.1" id="Layer_1" xmlns="http://www.w3.org/2000/svg" xmlns:xlink="http://www.w3.org/1999/xlink" x="0px"
     y="0px" viewBox="0 0 283.46 283.46" style="enable-background:new 0 0 283.46 283.46;" xml:space="preserve">
  <style type="text/css">
    .st0{fill:#1F345F;}
    .st1{fill:#FFFFFF;}
  </style>
    <rect class="st0" width="283.46" height="283.46"/>
    <g>
    <g>
      <polygon class="st1" points="58.41,144.25 69.85,144.25 64.07,135.83 		"/>
        <path class="st1" d="M186.31,156.64l-22.09-32.2l-0.32-0.47H7.58v34.18l140.38-0.01l3.88-5.79H174l3.69,5.38l0.28,0.41h0.5h7.05
        h1.81L186.31,156.64z M44,139.79v9.35v0.34l-0.26,0.22c-3.1,2.66-7.68,4-13.62,4c-10.35,0-16.53-4.71-16.53-12.59
        c0-4.02,1.68-7.32,4.85-9.56c2.91-2.05,6.94-3.13,11.68-3.13c5.72,0,9.8,1.14,12.83,3.59l0.57,0.46l-0.45,0.57l-2.03,2.54
        l-0.47,0.59l-0.58-0.48c-2-1.69-4.46-2.81-9.95-2.81c-7.31,0-11.01,2.75-11.01,8.18c0,5.53,3.6,8.21,11.01,8.21
        c3.9,0,6.85-0.66,8.99-2.02v-3.59H28.35h-0.73v-0.73v-3.13v-0.73h0.73h14.91H44V139.79z M80.52,153.26h-4.09h-0.39l-0.22-0.32
        L73,148.8H55.36l-2.76,4.13l-0.22,0.33h-0.39h-3.9h-1.37l0.77-1.14l15.9-23.67l0.22-0.32h0.39h0.29h0.39l0.22,0.32l16.23,23.67
        l0.79,1.15H80.52z M119.14,129.19v23.34v0.73h-0.73h-3.79h-0.73v-0.73v-13.78l-10.17,9.75l-0.21,0.2h-0.29h-0.29h-0.28l-0.21-0.19
        l-10.74-9.81v13.84v0.73h-0.73h-3.79h-0.73v-0.73v-23.34v-0.73h0.73h0.33h0.28l0.21,0.19l15.1,13.82l14.49-13.81l0.21-0.2h0.29
        h0.33h0.73V129.19z M155.28,129.95l-2.14,3.28l-0.22,0.33h-0.4h-19.79v4.87h15.65h1.35l-0.74,1.13l-2.05,3.13l-0.22,0.33h-0.4
        h-13.6v5.49h9.05h1.35l-0.74,1.13l-2.14,3.28l-0.22,0.33h-0.4h-11.43h-0.73v-0.73v-22.97v-0.73h0.73h26.46h1.35L155.28,129.95z
        M156.76,144.99l6.03-8.96l6.15,8.96H156.76z"/>
    </g>
        <polygon class="st1" points="235.26,123.97 235.26,124.95 235.26,130.76 235.26,131.74 236.24,131.74 251.32,131.74 251.32,157.16
      251.32,158.14 252.3,158.14 258.85,158.14 259.83,158.14 259.83,157.16 259.83,131.74 274.91,131.74 275.89,131.74 275.89,123.97
      "/>
        <path class="st1" d="M213.77,138.55h-14.15v-6.96h14.15c8.38,0,8.38,1.84,8.38,3.46C222.15,136.53,222.15,138.55,213.77,138.55
      M221.93,145.09c7.68-1.99,8.88-7.19,8.88-10.24c0-3.67-1.44-6.45-4.3-8.27c-2.75-1.75-6.74-2.61-12.2-2.61H192.1h-0.98v0.98v32.21
      v0.98h0.98h6.55h0.98v-0.98v-11.24h12.35l10.79,11.9l0.29,0.32h0.43h8.04h2.21l-1.48-1.64L221.93,145.09z"/>
  </g>
</svg>
