<svg width="32" height="32" viewBox="0 0 32 32" fill="none" xmlns="http://www.w3.org/2000/svg">
<g clip-path="url(#clip0_20702_226)">
<path d="M31.9585 15.7832H16.5246V21.2304H25.4097C24.5602 23.0256 23.4438 24.3443 22.0589 25.1863C20.6739 26.0283 18.972 26.4497 16.9537 26.4497C13.8495 26.4497 11.2393 25.4281 9.12395 23.384C7.00862 21.3407 5.95092 18.8481 5.95092 15.9068C5.95092 12.9655 6.97025 10.6455 9.0089 8.65745C11.0475 6.66936 13.577 5.67496 16.5975 5.67496C20.0625 5.67496 23.0962 7.04179 25.6985 9.77626L29.8111 5.73715C27.9337 3.7211 26.0148 2.29906 24.0545 1.47025C21.7309 0.490601 19.2358 0 16.5661 0C12.1733 0 8.49294 1.3163 5.5219 3.94658C5.53599 4.03366 5.52268 4.13629 5.47649 4.20782C5.47649 4.20859 5.47571 4.21015 5.47493 4.21093C5.4577 4.41463 5.29251 4.56391 5.08661 4.57324C5.07722 4.57324 5.06782 4.57324 5.05843 4.57324C5.05843 4.57324 5.05686 4.5748 5.05608 4.57557C4.62001 4.93711 4.2591 5.36784 3.9248 5.8219C3.85043 6.5271 3.15052 7.03481 2.70036 7.56741C2.61424 7.73375 2.52813 7.89938 2.43575 8.06032C2.18914 8.4934 2.04587 8.95443 1.90025 9.42797C1.76481 9.8688 1.58944 10.2894 1.42738 10.7209C1.0923 11.615 0.959214 12.5511 0.673459 13.4577C0.520795 13.9413 0.325856 14.4234 0.293757 14.9334C0.262442 15.4357 0.278882 15.9309 0.191982 16.4293C0.186501 16.4604 0.175541 16.4884 0.162231 16.5149C0.646842 19.75 1.70139 22.9253 3.66097 25.5859C5.40994 27.9611 8.02091 29.5955 10.7297 30.6949C13.5528 31.8401 16.7916 32.0283 19.7838 31.5423C22.6867 31.0712 25.484 29.8761 27.4561 27.651C29.4595 25.3907 30.7999 22.6804 31.5413 19.7702C31.5804 19.6171 31.6822 19.5331 31.7996 19.5043C31.9327 18.7058 32 17.8934 32 17.0684L31.9585 15.784V15.7832Z" fill="white"/>
<path d="M31.8697 19.0393C31.609 20.9862 30.9568 22.856 29.914 24.6474C28.5236 27.0366 26.7229 28.8591 24.5121 30.1155C22.3012 31.372 19.7083 32.0002 16.7325 32.0002C13.5484 32.0002 10.7082 31.3129 8.21226 29.939C6.77648 29.1491 5.51366 28.1656 4.4231 26.9893C4.19058 26.7389 6.54236 27.5405 10.2024 27.8313C13.1257 28.0637 16.9995 27.9191 20.2085 27.0242C23.4724 26.1138 26.5296 24.254 28.598 22.4891C30.7846 20.6231 31.8893 18.8784 31.8681 19.0386L31.8697 19.0393Z" fill="url(#paint0_linear_20702_226)"/>
<path d="M12.2504 31.4813C10.9422 31.2208 9.32866 30.7139 7.68223 29.7195C5.81035 28.589 4.67359 27.2976 3.90401 26.4081C3.40061 25.8273 2.62946 24.9293 1.88729 23.5718C1.11771 22.1645 0.57986 20.6313 0.274531 18.9737C-0.250005 16.1249 -0.0229668 13.3314 0.955647 10.5931C1.64772 8.65629 2.62946 6.96836 3.90166 5.52841C4.7417 4.57753 5.58957 3.88867 5.58957 3.88867C5.58957 3.88867 4.96404 6.65347 4.47944 10.1522C3.79206 15.1095 4.96639 19.5825 4.96639 19.5825C5.77982 22.8339 7.09272 25.1346 7.65172 26.0512C9.20261 28.5968 10.9626 30.3671 12.2512 31.4813H12.2504Z" fill="url(#paint1_linear_20702_226)"/>
</g>
<defs>
<linearGradient id="paint0_linear_20702_226" x1="5.84482" y1="29.9468" x2="32.7506" y2="23.7494" gradientUnits="userSpaceOnUse">
<stop stop-color="#352711"/>
<stop offset="1" stop-color="#F2A50A"/>
</linearGradient>
<linearGradient id="paint1_linear_20702_226" x1="2.55196" y1="6.77319" x2="6.99179" y2="29.1723" gradientUnits="userSpaceOnUse">
<stop stop-color="#352711"/>
<stop offset="1" stop-color="#F2A50A"/>
</linearGradient>
<clipPath id="clip0_20702_226">
<rect width="32" height="32" fill="white"/>
</clipPath>
</defs>
</svg>
