<svg width="47" height="32" viewBox="0 0 47 32" fill="none" xmlns="http://www.w3.org/2000/svg">
<g clip-path="url(#clip0_20702_986)">
<path fill-rule="evenodd" clip-rule="evenodd" d="M35.3561 0.31658H35.3699C35.3573 0.295125 35.3458 0.272937 35.3358 0.250133C35.3115 0.177677 35.2654 0.114531 35.2037 0.0694049C35.1421 0.0242785 35.068 -0.000604562 34.9916 -0.00181178C34.9233 -0.00273466 34.854 0.000956507 34.7858 0.00649376L32.1223 0.202143L30.1954 0.346113C30.0511 0.356991 29.9066 0.367733 29.7621 0.37848C29.2568 0.416047 28.7504 0.453697 28.2481 0.497464C28.1724 0.512416 28.1042 0.553191 28.0552 0.612824C28.0091 0.666351 27.9786 0.684807 27.9122 0.656198C27.0198 0.264898 26.0803 0.144925 25.115 0.165229C24.2326 0.198331 23.3553 0.314825 22.4949 0.513153C22.2559 0.564834 22.1258 0.672811 22.1258 0.974591C22.1253 1.18388 22.1221 1.39296 22.1189 1.60203C22.1154 1.82714 22.1119 2.05235 22.1119 2.27769C22.1033 3.44051 22.0953 4.60334 22.0879 5.76616L22.0879 5.77206C22.0861 5.97381 22.0861 5.97452 21.896 6.04856C21.7631 6.09932 21.7012 6.0624 21.7012 5.91936C21.697 5.76325 21.6925 5.60737 21.688 5.45148L21.688 5.4502C21.6767 5.05847 21.6654 4.66574 21.6588 4.27018C21.6459 3.74514 21.6459 3.22287 21.6459 2.70152C21.6485 2.14294 21.6559 1.58365 21.6632 1.0248L21.6632 1.02157C21.6662 0.799755 21.6691 0.577048 21.6717 0.355341C21.6745 0.141234 21.5748 0.0563289 21.3662 0.10155C21.1401 0.151385 20.9149 0.203989 20.6898 0.257516L18.4961 0.777094C18.5054 0.902894 18.5259 1.02235 18.56 1.13407L18.4059 0.804774C18.4059 0.804774 17.6646 0.961664 17.2585 1.05395C17.1968 1.06709 17.1327 1.06196 17.0739 1.03918C16.3012 0.714286 15.4478 0.632519 14.6274 0.804774C13.4756 1.02719 12.5786 1.64275 11.9067 2.59608C11.8514 2.67452 11.8117 2.67637 11.7323 2.62284C11.4663 2.43072 11.1889 2.25475 10.9017 2.09588C10.0998 1.69073 9.2461 1.60398 8.36568 1.75072C7.22131 1.94176 6.24676 2.45488 5.49369 3.34084C4.47391 4.53965 3.99587 5.95442 3.91373 7.51223C3.88428 8.23322 3.96266 8.95456 4.1463 9.65238C4.40562 10.7408 4.9952 11.7223 5.83423 12.4625C5.9256 12.5456 5.91268 12.5908 5.78163 12.6379L2.52296 13.8238C2.29132 13.9068 1.82988 14.0785 1.82988 14.0785C1.82988 14.0785 1.34985 14.1912 0.796839 14.5957C0.243829 15.0002 0.39481 15.7858 0.39481 15.7858C0.56954 16.6133 0.745194 17.4405 0.921771 18.2674C1.42443 20.6183 1.92863 22.9689 2.43436 25.3191C2.85212 27.2768 3.27141 29.2346 3.69224 31.1923C3.7254 31.3811 3.8146 31.5556 3.94825 31.693C4.08189 31.8305 4.2538 31.9245 4.44161 31.9629C4.47294 31.9731 4.50374 31.9848 4.5339 31.998H4.73324C4.85341 31.9675 4.97148 31.9293 5.0867 31.8835C5.72664 31.5922 6.36557 31.2978 7.00461 31.0033L9.59587 29.8098C9.70753 29.7582 9.73245 29.7711 9.75829 29.8901C9.76017 29.8973 9.76269 29.9044 9.7652 29.9115C9.77008 29.9253 9.77491 29.9389 9.77491 29.9529C9.91703 30.6017 10.528 30.9118 11.1343 30.6349C11.9821 30.2491 12.8296 29.8615 13.6768 29.4721C13.7516 29.4333 13.8069 29.4278 13.8439 29.5256C13.9795 29.8809 14.2933 30.0286 14.6569 29.9178C15.0587 29.7955 15.4605 29.673 15.8623 29.5505L15.868 29.5487C17.202 29.1419 18.5361 28.7351 19.873 28.3369C20.2777 28.2161 20.6922 28.1143 21.1066 28.0125C21.29 27.9675 21.4743 27.9222 21.6569 27.8755C21.7603 27.8487 21.8064 27.8801 21.799 27.9724C21.7898 28.1413 21.8208 28.31 21.8898 28.4646C21.9587 28.6191 22.0634 28.755 22.1953 28.861C22.3271 28.967 22.4824 29.04 22.6481 29.0741C22.8138 29.1081 22.9853 29.1022 23.1483 29.0568C24.6212 28.6845 26.0959 28.3099 27.5725 27.9327C27.8643 27.861 28.1195 27.6846 28.2897 27.4371C28.4598 27.1895 28.5331 26.888 28.4954 26.5899C28.4845 26.5148 28.4796 26.4388 28.4806 26.3629C28.4813 26.3439 28.4945 26.3236 28.5082 26.3027C28.5151 26.2922 28.5221 26.2814 28.5277 26.2706C28.5594 26.2861 28.5902 26.3034 28.62 26.3223C28.6291 26.3284 28.6355 26.3389 28.6419 26.3496C28.6452 26.3551 28.6485 26.3606 28.6523 26.3657L28.9295 26.7722C29.2573 27.2532 29.5849 27.734 29.9176 28.2114C30.0248 28.3623 30.1616 28.4897 30.3197 28.5859C30.4779 28.6822 30.6539 28.7451 30.8372 28.771C31.0205 28.797 31.2071 28.7852 31.3857 28.7366C31.5643 28.688 31.7311 28.6035 31.8759 28.4883C32.0003 28.3903 32.1198 28.2871 32.2404 28.1828C32.3003 28.131 32.361 28.0786 32.4222 28.0268C32.7914 27.7112 33.1587 27.3944 33.5242 27.0763C33.5906 27.0181 33.6395 27.0098 33.6921 27.0864C33.7076 27.108 33.7251 27.1276 33.7428 27.1474L33.7623 27.1695C34.1591 27.6416 34.623 28.0529 35.1392 28.3905C36.3445 29.1703 37.6743 29.4711 39.0974 29.3973C40.3132 29.3334 41.4862 28.9267 42.4806 28.2243C43.2036 27.708 43.848 27.0897 44.3938 26.3887C45.4556 25.0884 46.2069 23.5629 46.5902 21.9285C46.8311 20.8869 46.9363 19.8186 46.9031 18.7501C46.8905 18.2145 46.8344 17.6809 46.7351 17.1544C46.5248 16.1142 46.1381 15.1175 45.5917 14.2077C44.6319 12.5714 43.3048 11.4003 41.4267 10.9389C41.4116 10.9373 41.397 10.9327 41.3838 10.9252C41.3706 10.9178 41.3591 10.9076 41.35 10.8955C41.3409 10.8834 41.3344 10.8695 41.3309 10.8547C41.3274 10.8399 41.3271 10.8246 41.3298 10.8097C41.3334 10.6756 41.3346 10.5413 41.3357 10.4069C41.3379 10.1575 41.3401 9.90776 41.3575 9.65884C41.4184 8.77473 41.4803 7.88969 41.5725 7.00834C41.6574 6.2239 41.7737 5.43946 41.9103 4.66424C42.0334 3.95693 42.1751 3.25334 42.3169 2.54944C42.3621 2.32499 42.4074 2.09995 42.452 1.87531C42.5729 1.25329 42.0921 0.622967 41.4599 0.601741C41.2172 0.593558 40.9739 0.609563 40.7309 0.625552C40.645 0.6312 40.5592 0.636847 40.4734 0.641424C39.8846 0.672802 39.2949 0.705104 38.7061 0.742019C38.6157 0.748479 38.5797 0.725406 38.5584 0.633119C38.5322 0.509933 38.467 0.398493 38.3724 0.315359C38.2778 0.232225 38.1589 0.181836 38.0333 0.171681C37.9101 0.16691 37.7866 0.171848 37.6642 0.186447C37.4329 0.200728 37.2018 0.21552 36.9707 0.230311C36.6642 0.24993 36.3577 0.269546 36.051 0.287963C35.8862 0.29801 35.721 0.304168 35.5559 0.310318C35.4936 0.312642 35.4312 0.314965 35.369 0.317495L35.3503 0.335198L35.3561 0.31658Z" fill="#23345D"/>
<path d="M5.311 7.47635C5.27041 12.3062 7.99326 12.158 9.86429 11.7338V10.7745C4.43428 12.4064 5.69081 2.92531 9.86429 3.98244L11.1772 3.73927C8.80728 1.44491 5.3424 3.73927 5.311 7.47635Z" fill="#FCEAB0"/>
<path d="M9.44694 9.80414C5.94228 10.4612 7.62135 3.34286 10.189 5.34084L9.86429 3.98244C5.69081 2.92531 4.43428 12.4064 9.86429 10.7745L9.44694 9.80414Z" fill="#FCCD0C"/>
<path d="M10.189 5.34084L11.1772 3.73927L9.86429 3.98244L10.189 5.34084Z" fill="#F7BC18"/>
<path d="M10.7607 8.12494C10.751 9.08866 9.88081 9.64596 9.44694 9.80414L9.86429 10.7745C10.5347 10.3742 11.7842 9.10611 11.4186 7.23667L9.44694 7.88615L8.899 8.9037L10.7607 8.12494Z" fill="#FCEAB0"/>
<path d="M9.86429 11.7338C11.3063 11.4068 12.2842 9.53731 12.5764 8.54735C12.3241 8.00326 12.2 7.4215 12.1468 6.92312C12.0975 6.4618 12.109 6.07193 12.1357 5.8495L11.4186 7.23667C11.7842 9.10611 10.5347 10.3742 9.86429 10.7745V11.7338Z" fill="#F8BE17"/>
<path d="M12.1357 5.8495L8.61914 7.23667L9.44694 7.88615L11.4186 7.23667L12.1357 5.8495Z" fill="#FCEAB0"/>
<path d="M8.61914 7.23667L8.899 8.9037L9.44694 7.88615L8.61914 7.23667Z" fill="#FDE384"/>
<path d="M15.9278 10.6716C17.7097 10.6304 18.5951 8.66078 18.8151 7.68114L18.7447 6.82175L17.9164 6.36177C17.8869 7.39857 17.3027 9.47691 15.2021 9.49584H15.177C13.8016 9.48341 13.1024 7.43082 13.0882 6.36177L12.1468 6.92312C12.2 7.4215 12.3241 8.00326 12.5764 8.54735C12.8238 9.34138 13.7004 10.7232 15.9278 10.6716Z" fill="#FDE384"/>
<path d="M15.9278 2.98808C13.7869 2.64495 13.0722 5.16227 13.0882 6.36177C13.1024 7.43082 13.8016 9.48341 15.177 9.49584L15.7984 8.35994C14.0591 8.70308 13.7685 4.45194 15.4908 4.15948L15.9278 2.98808Z" fill="#FCCD0C"/>
<path d="M15.2021 1.87052C13.1287 1.93866 12.2939 4.55157 12.1357 5.8495C12.109 6.07193 12.0975 6.4618 12.1468 6.92312L13.0882 6.36177C13.0722 5.16227 13.7869 2.64495 15.9278 2.98808L15.2021 1.87052Z" fill="#FCEAB0"/>
<path d="M18.5362 4.25586C18.2887 3.43236 17.2756 1.80238 15.2021 1.87052L15.9278 2.98808C17.4841 3.23754 17.9164 5.04239 17.9164 6.36177L18.7447 6.82175L18.5362 4.25586Z" fill="#FCCD0C"/>
<path d="M17.9164 6.36177C17.9164 5.04239 17.4841 3.23754 15.9278 2.98808L15.4908 4.15948C17.2183 4.46712 17.1946 8.35994 15.7984 8.35994L15.177 9.49584H15.2021C17.3027 9.47691 17.8869 7.39857 17.9164 6.36177Z" fill="#FCEBB0"/>
<path d="M18.378 2.00464L18.5362 4.25586L18.7447 6.82175L18.8151 7.68114L19.0111 10.1251L23.3112 9.08358L24.2785 7.82265L20.0759 8.72681C20.0357 8.76699 19.7689 4.53532 19.6405 2.41446L18.378 2.00464Z" fill="#FBD563"/>
<path d="M20.909 7.33457L20.7264 1.44491L19.6405 2.41446C19.7689 4.53532 20.0357 8.76699 20.0759 8.72681C20.1161 8.68663 20.648 7.78191 20.909 7.33457Z" fill="#FBCD0D"/>
<path d="M20.7264 1.44491L18.378 2.00464L19.6405 2.41446L20.7264 1.44491Z" fill="#FBEAB0"/>
<path d="M23.2452 6.88435L20.909 7.33457C20.648 7.78191 20.1161 8.68663 20.0759 8.72681L24.2785 7.82265L23.2452 6.88435Z" fill="#FCEBB1"/>
<path d="M23.1479 1.57904L23.2452 6.88435L24.2785 7.82265L23.3112 9.08358V9.83635L24.4208 8.57612L24.2785 2.51322L23.1479 1.57904Z" fill="#FDE384"/>
<path d="M24.2785 2.51322L24.4208 8.57612L25.4962 7.26873V3.61361C25.9111 3.45492 26.8239 3.45998 27.1559 4.74966L28.2722 5.12505C28.1378 2.49336 25.5538 2.28729 24.2785 2.51322Z" fill="#FAC612"/>
<path d="M29.305 3.76931C28.4289 0.917097 24.8352 1.12071 23.1479 1.57904L24.2785 2.51322C25.5538 2.28729 28.1378 2.49336 28.2722 5.12505L29.305 4.84845V3.76931Z" fill="#FCEBB0"/>
<path d="M25.4962 7.26873L24.4208 8.57612C25.6684 8.5684 28.1852 7.86738 28.2722 5.12505L27.1559 4.74966C27.4878 6.03935 26.1877 6.96641 25.4962 7.26873Z" fill="#FDEBB1"/>
<path d="M23.3112 9.83635C26.8255 9.88585 28.7353 7.38209 29.2509 6.12403L29.305 4.84845L28.2722 5.12505C28.1852 7.86738 25.6684 8.5684 24.4208 8.57612L23.3112 9.83635Z" fill="#FCCD0C"/>
<path d="M29.4023 1.57904L29.305 3.76931V4.84845L29.2509 6.12403L29.1478 9.83635L30.324 8.71602L30.4702 5.40448L30.6336 2.51322L29.4023 1.57904Z" fill="#FDE384"/>
<path d="M31.4721 7.36838L31.5074 6.31285L30.4702 5.40448L30.324 8.71602L31.4721 7.36838Z" fill="#FDCD0B"/>
<path d="M31.5804 4.64582L31.7021 3.48984L30.6336 2.51322L30.4702 5.40448L31.5804 4.64582Z" fill="#FCCD0C"/>
<path d="M33.6733 6.06949L33.5395 4.42679L32.913 5.26686L33.6733 6.06949Z" fill="#FBCD0D"/>
<path d="M29.1478 9.83635L34.0047 9.28982L35.201 8.15693L30.324 8.71602L29.1478 9.83635Z" fill="#F7BC18"/>
<path d="M34.2429 7.09021L31.4721 7.36838L30.324 8.71602L35.201 8.15693L34.2429 7.09021Z" fill="#FCEBB0"/>
<path d="M34.3061 3.3925L34.0627 1.21289L33.3087 2.29938L30.6336 2.51322L31.7021 3.48984L34.3061 3.3925Z" fill="#F8C116"/>
<path d="M34.0627 1.21289L29.4023 1.57904L30.6336 2.51322L33.3087 2.29938L34.0627 1.21289Z" fill="#FBEAB0"/>
<path d="M34.8091 1.49394L34.2429 7.09021L35.201 8.15693L36.0095 2.35099L34.8091 1.49394Z" fill="#FDE384"/>
<path d="M34.0047 9.28982L33.9325 10.1973C33.936 10.154 34.6993 9.45552 35.0805 9.11168L35.201 8.15693L34.0047 9.28982Z" fill="#FDE384"/>
<path d="M33.9325 10.1973L36.1496 9.83635L35.0805 9.11168C34.6993 9.45552 33.936 10.154 33.9325 10.1973Z" fill="#F6BB18"/>
<path d="M38.1398 6.31285C37.9088 6.43091 37.4317 3.06693 37.2221 1.37019L36.0095 2.35099L35.201 8.15693L35.0805 9.11168L36.1496 9.83635L36.3352 7.30991L36.5798 4.64582C36.8504 5.73961 37.6745 8.13978 38.8068 8.99006L38.1398 6.31285Z" fill="#FCCD0C"/>
<path d="M36.3352 7.30991L37.7892 10.0529L38.8068 8.99006C37.6745 8.13978 36.8504 5.73961 36.5798 4.64582L36.3352 7.30991Z" fill="#FDE384"/>
<path d="M37.7892 10.0529L40.0166 9.74355L38.8068 8.99006L37.7892 10.0529Z" fill="#F6BB18"/>
<path d="M40.0166 9.74355C39.8021 9.26507 40.5941 4.21631 41.0169 1.75174L39.8316 2.4629L38.8068 8.99006L40.0166 9.74355Z" fill="#FCCD0C"/>
<path d="M38.6039 1.91673L38.1398 6.31285L38.8068 8.99006L39.8316 2.4629L38.6039 1.91673Z" fill="#FDE384"/>
<path d="M41.0169 1.75174L38.6039 1.91673L39.8316 2.4629L41.0169 1.75174Z" fill="#FBEAB0"/>
<path d="M37.2221 1.37019L34.8091 1.49394L36.0095 2.35099L37.2221 1.37019Z" fill="#FBEAB0"/>
<path d="M33.5395 4.42679L31.5804 4.64582L30.4702 5.40448L32.913 5.26686L33.5395 4.42679Z" fill="#FCEAB0"/>
<path d="M31.5074 6.31285L33.6733 6.06949L32.913 5.26686L30.4702 5.40448L31.5074 6.31285Z" fill="#F7BC18"/>
<path d="M13.4824 13.1352L14.9112 26.1538L15.0313 27.2479L15.1243 28.0951L16.9183 25.7372L16.3236 19.7908L15.8222 14.5624L13.4824 13.1352Z" fill="#FDE384"/>
<path d="M18.1619 18.0714V15.9896L15.8222 14.5624L16.3236 19.7908L18.1619 18.0714Z" fill="#FDCD0B"/>
<path d="M18.6576 23.0479L18.4791 21.1049L16.3236 19.7908L16.9183 25.7372L18.6576 23.0479Z" fill="#FDCD0B"/>
<path d="M15.1243 28.0951L23.2328 25.9432L24.9545 23.6495L16.9183 25.7372L15.1243 28.0951Z" fill="#F8BC18"/>
<path d="M23.2328 25.9432V27.3818L24.9545 25.6323V23.6495L23.2328 25.9432Z" fill="#FDE384"/>
<path d="M27.1209 26.4292L27.0042 21.2774L25.0751 20.1302L24.9545 23.6495V25.6323L23.2328 27.3818L27.1209 26.4292Z" fill="#FBC90F"/>
<path d="M28.0381 19.0736C27.1633 19.4333 25.346 20.1483 25.0751 20.1302L27.0042 21.2774L28.0381 19.0736Z" fill="#F8BC18"/>
<path d="M27.0042 21.2774L31.1062 27.1456L31.7628 24.173L28.0381 19.0736L27.0042 21.2774Z" fill="#FDE384"/>
<path d="M33.126 22.3461L30.732 19.261L28.0381 19.0736L31.7628 24.173L33.8955 24.729C33.4961 24.2432 33.2161 22.938 33.126 22.3461Z" fill="#FDCD0B"/>
<path d="M31.1062 27.1456L33.8955 24.729L31.7628 24.173L31.1062 27.1456Z" fill="#F8BC18"/>
<path d="M28.0381 19.0736C31.1988 17.3111 32.5533 15.5441 31.3476 13.8665L29.6596 15.2432C29.7442 16.0704 27.9246 17.2876 27.0042 17.7929L25.0751 20.1302C25.346 20.1483 27.1633 19.4333 28.0381 19.0736Z" fill="#FCEBB1"/>
<path d="M25.3073 13.3517L25.0751 20.1302L27.0042 17.7929L27.1099 14.8907L25.3073 13.3517Z" fill="#FDCD0B"/>
<path d="M31.3476 13.8665C30.383 12.5244 26.9188 12.9641 25.3073 13.3517L27.1099 14.8907C27.9245 14.6635 29.575 14.416 29.6596 15.2432L31.3476 13.8665Z" fill="#F8BC18"/>
<path d="M37.6218 12.2897C34.0823 14.3938 33.176 17.6137 33.0147 19.8406L34.9133 19.1656C35.2696 17.0491 37.0037 13.0926 41.0902 14.199L40.2104 11.9751C39.473 11.9414 38.6156 12.0274 37.6218 12.2897Z" fill="#FCEBB1"/>
<path d="M33.126 22.3461C33.2161 22.938 33.4961 24.2432 33.8955 24.729C33.8955 24.729 35.2375 27.5797 38.2917 27.7606L37.3495 25.4682C34.3947 24.1983 34.4942 20.7374 34.9133 19.1656L33.0147 19.8406C32.9083 21.3093 33.126 22.3461 33.126 22.3461Z" fill="#FDE384"/>
<path d="M41.3092 27.1456C41.3092 27.1456 43.9354 25.4685 45.085 22.3461L43.3534 20.8317C42.9867 22.6236 41.2725 26.0596 37.3495 25.4682L38.2917 27.7606C39.1573 27.8119 40.1603 27.6488 41.3092 27.1456Z" fill="#F8BC18"/>
<path d="M44.3602 14.5517C44.3602 14.5517 43.4296 12.1224 40.2104 11.9751L41.0902 14.199C42.3004 14.6496 44.4473 16.6069 43.3534 20.8317L45.085 22.3461C45.8274 20.3298 45.9541 17.7109 44.3602 14.5517Z" fill="#FCCD0B"/>
<path d="M39.9271 16.0379C41.4485 16.2643 41.6193 19.4433 41.5145 21.0045L43.3534 20.8317C44.4473 16.6069 42.3004 14.6496 41.0902 14.199L39.9271 16.0379Z" fill="#FDE384"/>
<path d="M41.5145 21.0045C41.3154 22 40.5275 23.9185 38.9684 23.6293L37.3495 25.4682C41.2725 26.0596 42.9867 22.6236 43.3534 20.8317L41.5145 21.0045Z" fill="#FDEBB1"/>
<path d="M36.8937 20.2658L34.9133 19.1656C34.4942 20.7374 34.3947 24.1983 37.3495 25.4682L38.9684 23.6293C37.0194 23.2678 36.7837 21.366 36.8937 20.2658Z" fill="#FDCD0B"/>
<path d="M34.9133 19.1656L36.8937 20.2658C37.2709 18.7622 38.4057 15.8116 39.9271 16.0379L41.0902 14.199C37.0037 13.0926 35.2696 17.0491 34.9133 19.1656Z" fill="#F8BC18"/>
<path d="M23.3367 21.898L18.6576 23.0479L16.9183 25.7372L24.9545 23.6495L23.3367 21.898Z" fill="#FDEBB1"/>
<path d="M23.1384 12.1036L23.3367 21.898L24.9545 23.6495L25.0751 20.1302L25.3073 13.3517L23.1384 12.1036Z" fill="#FDE384"/>
<path d="M23.1384 12.1036L25.3073 13.3517C26.9188 12.9641 30.383 12.5244 31.3476 13.8665L33.8116 14.8907C34.4031 11.7318 30.9231 9.53792 23.1384 12.1036Z" fill="#FCEBB1"/>
<path d="M31.3476 13.8665C32.5533 15.5441 31.1988 17.3111 28.0381 19.0736L30.732 19.261C32.5206 17.8306 33.5536 16.2688 33.8116 14.8907L31.3476 13.8665Z" fill="#F8BC18"/>
<path d="M21.79 11.2914L13.4824 13.1352L15.8222 14.5624L20.7108 13.4611L21.79 11.2914Z" fill="#FCEBB1"/>
<path d="M18.1619 15.9896L22.722 15.0379L20.7108 13.4611L15.8222 14.5624L18.1619 15.9896Z" fill="#F8BC18"/>
<path d="M22.722 15.0379L21.79 11.2914L20.7108 13.4611L22.722 15.0379Z" fill="#FBCD0D"/>
<path d="M21.6118 17.1792L18.1619 18.0714L16.3236 19.7908L20.71 18.9004L21.6118 17.1792Z" fill="#FCEBB0"/>
<path d="M18.4791 21.1049L22.3255 20.0343L20.71 18.9004L16.3236 19.7908L18.4791 21.1049Z" fill="#F8BC18"/>
<path d="M22.3255 20.0343L21.6118 17.1792L20.71 18.9004L22.3255 20.0343Z" fill="#FBCD0D"/>
<path d="M1.72458 15.382L5.03607 30.1629L6.69263 28.0951L5.68292 22.953L4.23146 15.7903L1.72458 15.382Z" fill="#FDE384"/>
<path d="M5.03607 30.1629L8.96449 28.3486L6.69263 28.0951L5.03607 30.1629Z" fill="#F7BC18"/>
<path d="M8.96449 28.3486L7.86011 24.0573L5.68292 22.953L6.69263 28.0951L8.96449 28.3486Z" fill="#FCCD0B"/>
<path d="M7.86011 24.0573L9.81643 23.2212L11.331 20.618L5.68292 22.953L7.86011 24.0573Z" fill="#F8BC18"/>
<path d="M7.93699 14.0523L9.19197 20.0343L11.331 20.618L9.81643 23.2212L11.0757 28.9188L12.8298 26.7867L10.2424 14.5624L7.93699 14.0523Z" fill="#FDE384"/>
<path d="M11.0757 28.9188L15.0313 27.2479L12.8298 26.7867L11.0757 28.9188Z" fill="#F7BC18"/>
<path d="M15.0313 27.2479L14.9112 26.1538L12.3721 12.4923L10.2424 14.5624L12.8298 26.7867L15.0313 27.2479Z" fill="#FCCD0B"/>
<path d="M12.3721 12.4923L7.93699 14.0523L10.2424 14.5624L12.3721 12.4923Z" fill="#FBEAB0"/>
<path d="M9.19197 20.0343L7.26498 20.8426L5.68292 22.953L11.331 20.618L9.19197 20.0343Z" fill="#FDEBB1"/>
<path d="M7.26498 20.8426L6.2467 13.7593L4.23146 15.7903L5.68292 22.953L7.26498 20.8426Z" fill="#FCCD0B"/>
<path d="M6.2467 13.7593L1.72458 15.382L4.23146 15.7903L6.2467 13.7593Z" fill="#FBEAB0"/>
<path d="M34.7558 1.4729C34.6691 1.43347 34.5826 1.39417 34.497 1.35852C34.4366 1.34115 34.3749 1.32851 34.3125 1.3207C34.5588 1.32694 34.7986 1.24108 34.985 1.07992C35.1597 0.91514 35.274 0.696528 35.3097 0.459071C35.3163 0.426469 35.327 0.395009 35.3377 0.363469C35.3436 0.345994 35.3497 0.328281 35.3549 0.310547C35.3503 0.679551 35.58 1.22106 36.1935 1.31055L36.2719 1.32623L35.9287 1.44339C35.8143 1.48307 35.7104 1.54806 35.6246 1.63351C35.5388 1.71897 35.4735 1.82269 35.4333 1.93693C35.4065 2.02287 35.3802 2.1083 35.356 2.1871L35.3319 2.26534C35.3294 2.25154 35.327 2.2354 35.3243 2.21778C35.3193 2.1836 35.3133 2.14375 35.3042 2.10483C35.2812 1.98052 35.2296 1.86325 35.1535 1.76225C35.0775 1.66124 34.9791 1.57925 34.866 1.52272C34.8294 1.50635 34.7924 1.4895 34.7558 1.4729Z" fill="#FCFCFA"/>
<path d="M40.0512 13.3647C40.1153 13.0859 40.2643 12.8338 40.4776 12.643C40.7636 12.3707 41.1335 12.2035 41.5269 12.1687L41.7161 12.1382C40.7406 12.0856 40.1167 11.5559 39.9718 10.3848C39.9635 10.4226 39.9635 10.4429 39.9635 10.4632C39.9324 10.8656 39.7802 11.2491 39.527 11.5633C39.3434 11.7792 39.1311 11.9426 38.8312 11.9813C38.616 12.0219 38.4036 12.0761 38.1953 12.1438C38.3597 12.1579 38.523 12.1819 38.6844 12.2158C39.1809 12.3468 39.5889 12.608 39.7993 13.0943C39.8762 13.3028 39.9379 13.5165 39.9838 13.7339C39.9872 13.7144 39.9907 13.6911 39.9947 13.6651L39.9948 13.664C40.0073 13.5818 40.024 13.4722 40.0512 13.3647Z" fill="#FCFCFA"/>
<path d="M13.5352 27.3322C13.7604 27.3441 13.9806 27.4035 14.1812 27.5066C14.6509 27.7281 14.8678 28.1157 14.9139 28.5818L15.0985 28.0438L15.3643 27.7152C15.3873 27.6884 15.4119 27.6632 15.4381 27.6395C15.6849 27.4595 15.977 27.3518 16.2816 27.3285C16.2631 27.3264 16.2476 27.3248 16.2341 27.3235C16.2073 27.3208 16.1887 27.319 16.1709 27.3147C16.038 27.2815 15.9051 27.2464 15.7731 27.2113C15.1806 26.9824 14.9951 26.4767 14.9112 25.875C14.9077 25.9098 14.9074 25.9344 14.9072 25.9552C14.907 25.973 14.9068 25.988 14.9047 26.0042C14.9018 26.0263 14.8967 26.0483 14.8917 26.0699C14.8888 26.0826 14.8859 26.0953 14.8835 26.1076C14.8802 26.1242 14.8772 26.1406 14.8743 26.1569C14.8713 26.1733 14.8682 26.1897 14.865 26.2063C14.8147 26.5344 14.6419 26.8312 14.3814 27.0369C14.1406 27.2446 13.8434 27.2953 13.5352 27.3322Z" fill="#FCFCFA"/>
<path d="M1.8559 16.7182C1.92003 16.4394 2.06898 16.1873 2.28227 15.9966C2.56751 15.7222 2.93751 15.553 3.33158 15.5167L3.52077 15.4871C2.54529 15.4382 1.92142 14.9094 1.77653 13.7383C1.76823 13.7761 1.76823 13.7964 1.76823 13.8158C1.73744 14.2182 1.58522 14.6018 1.33171 14.9159C1.14806 15.1318 0.935795 15.2952 0.635861 15.3349C0.420681 15.3751 0.208294 15.429 0 15.4964C0.164293 15.5109 0.327607 15.5349 0.489123 15.5683C0.98563 15.6994 1.39354 15.9606 1.60396 16.4469C1.68087 16.6557 1.74256 16.8697 1.78853 17.0874C1.79192 17.0675 1.79552 17.0438 1.79956 17.0171C1.81205 16.9348 1.82871 16.8249 1.8559 16.7182Z" fill="#FCFCFA"/>
</g>
<defs>
<clipPath id="clip0_20702_986">
<rect width="47" height="32" fill="white"/>
</clipPath>
</defs>
</svg>
