<svg width="32" height="32" viewBox="0 0 32 32" fill="none" xmlns="http://www.w3.org/2000/svg">
<g clip-path="url(#clip0_20702_328)">
<path d="M0 5.90407C0 2.64334 2.64334 0 5.90406 0H26.0959C29.3566 0 32 2.64334 32 5.90407V26.096C32 29.3567 29.3566 32 26.0959 32H5.90406C2.64334 32 0 29.3567 0 26.096V5.90407Z" fill="#DCAE50"/>
<path d="M10.561 15.6739H16.5312V16.1937C16.5312 16.1937 15.837 15.9856 15.4203 16.4365C15.0036 16.8873 15.004 17.6152 15.004 17.6152V20.423C15.004 20.423 13.1296 21.8788 9.17278 21.8441C5.21597 21.8094 2.36133 18.3581 2.36133 15.7449C2.36133 12.8334 4.1901 10.4168 8.22618 10.1173C11.66 9.8623 11.7638 10.9031 12.7304 10.6926C13.5202 10.5208 13.4245 10.1173 13.6207 10.0263C13.8568 9.91656 14.4676 10.0263 14.4676 10.0263L14.6845 13.8367H13.9896C13.9896 13.8367 13.0993 12.1887 11.4059 11.3213C9.71247 10.4539 5.60981 10.7366 5.28338 15.7449C4.97942 20.4067 10.1472 21.8217 12.1008 20.5148C12.8117 20.0395 12.4048 16.5254 11.8402 16.3736C11.2756 16.2219 10.5373 16.135 10.5373 16.135L10.561 15.6739Z" fill="white"/>
<path d="M29.395 20.9744C28.8475 20.8925 27.9718 20.4273 27.9718 20.4273L24.4957 16.2395C24.4957 16.2395 27.2054 15.9108 27.26 13.256C27.3029 11.1759 25.4313 10.524 24.618 10.3389C24.4227 10.2945 24.2229 10.2725 24.0224 10.2725H16.5312V10.7376C16.5312 10.7376 16.8598 10.7376 17.243 10.7923C17.6262 10.8473 18.338 11.4495 18.3653 11.8327C18.3926 12.2155 18.5569 18.6481 18.3926 19.77C18.2283 20.8925 17.7355 20.7828 17.3527 20.9197C16.9695 21.0567 16.5312 21.0017 16.5312 21.0017V21.5492H22.6894V20.9744C22.6894 20.9744 21.704 20.9744 21.4305 20.8925C21.157 20.8101 20.7465 20.3449 20.7465 19.9344C20.7465 19.5238 20.8284 16.4857 20.8284 16.4857H21.7591L26.0285 21.5492H29.395C29.395 21.5492 29.9424 21.0567 29.395 20.9744ZM22.5426 15.6646C21.3282 15.7001 20.6596 15.6646 20.6596 15.6646V11.4234C20.6596 11.4234 21.4692 10.9655 22.8769 11.2297C24.2845 11.4935 24.6893 12.761 24.6893 13.5519C24.6893 14.3428 23.7566 15.6295 22.5426 15.6646Z" fill="white"/>
</g>
<defs>
<clipPath id="clip0_20702_328">
<rect width="32" height="32" fill="white"/>
</clipPath>
</defs>
</svg>
