<svg width="32" height="32" viewBox="0 0 32 32" fill="none" xmlns="http://www.w3.org/2000/svg">
<g clip-path="url(#clip0_20702_1078)">
<g clip-path="url(#clip1_20702_1078)">
<path fill-rule="evenodd" clip-rule="evenodd" d="M0.893744 14.6132C1.01001 15.145 1.22588 15.9593 1.63272 17.0478C2.03956 18.1363 2.63737 19.4991 3.368 20.6956C4.09864 21.8922 4.96217 22.9225 5.75509 23.8075C6.54802 24.6925 7.27033 25.4321 8.37462 26.3295C9.47892 27.2269 10.9651 28.2821 12.14 28.9843C13.3148 29.6864 14.1784 30.0353 14.7844 30.237C15.3905 30.4385 15.7392 30.4925 16.0775 30.5009C16.4158 30.5092 16.7439 30.4719 17.3749 30.2455C18.0059 30.019 18.94 29.6034 19.955 29.0133C20.9701 28.4233 22.0661 27.6589 23.0561 26.8904C24.0462 26.1218 24.9304 25.3492 25.7793 24.4394C26.6283 23.5296 27.442 22.4827 28.1457 21.448C28.8494 20.4135 29.4431 19.3913 29.9475 18.3109C30.452 17.2307 30.8671 16.0923 31.0934 14.9892C31.3197 13.8862 31.357 12.8184 31.3321 11.8753C31.3072 10.9322 31.22 10.1137 30.9024 9.17262C30.5848 8.23158 30.0368 7.16802 29.4639 6.37865C28.891 5.58926 28.2932 5.07404 27.4961 4.53394C26.699 3.99385 25.7027 3.42878 24.7811 3.02997C23.8595 2.6311 23.0126 2.39844 22.0763 2.1929C21.1401 1.98732 20.1147 1.80888 19.1162 1.68018C18.1177 1.55148 17.1463 1.47257 15.99 1.47672C14.8339 1.48087 13.493 1.56811 12.341 1.72173C11.189 1.87535 10.2261 2.09534 9.30451 2.34662C8.38295 2.59785 7.50283 2.8804 6.76388 3.2128C6.02493 3.54514 5.42714 3.92733 4.88742 4.30128C4.34775 4.67517 3.86621 5.04083 3.28497 5.68064C2.70378 6.32049 2.02294 7.23444 1.5912 7.99896C1.15946 8.76341 0.976778 9.37832 0.860563 9.94334C0.744341 10.5084 0.694493 11.0235 0.669596 11.4307C0.644693 11.8379 0.644693 12.137 0.661265 12.4777C0.677879 12.8184 0.711113 13.2006 0.736011 13.5164C0.760914 13.8321 0.777528 14.0814 0.893744 14.6132ZM16.2931 8.22408C19.9421 8.22408 22.9002 11.1984 22.9002 14.8675C22.9002 18.5365 19.9421 21.5108 16.2931 21.5108C12.6443 21.5108 9.68615 18.5365 9.68615 14.8675C9.68615 11.1984 12.6443 8.22408 16.2931 8.22408Z" fill="url(#paint0_linear_20702_1078)"/>
<path fill-rule="evenodd" clip-rule="evenodd" d="M7.63633 2.86344C7.32961 2.97368 7.037 3.0897 6.76376 3.21261C6.02487 3.54496 5.42705 3.92715 4.88733 4.30109C2.02054 6.28733 0.490068 8.95922 0.661175 12.4775C0.677222 12.807 0.708856 13.1755 0.733476 13.485C0.827428 13.7786 0.93089 14.0762 1.04669 14.3733C1.50332 15.545 2.15098 16.7082 2.92314 17.8217C3.6953 18.9352 4.592 19.9987 5.5219 20.8629C6.45185 21.7271 7.41498 22.3918 8.44453 22.8571C9.47408 23.3225 10.5701 23.5884 11.666 23.6881C12.7621 23.7878 13.858 23.7213 14.8461 23.497C15.8341 23.2726 16.7142 22.8904 17.6109 22.3835C18.5076 21.8766 19.4209 21.2451 20.0602 20.7134C20.634 20.2361 20.9871 19.8391 21.3535 19.1381C20.1415 20.5885 18.3245 21.5106 16.293 21.5106C12.6442 21.5106 9.6861 18.5362 9.6861 14.8673C9.6861 11.1982 12.6442 8.22387 16.293 8.22387C19.5729 8.22387 22.2942 10.6271 22.8112 13.7778C22.8039 13.5389 22.7828 13.3099 22.7504 13.0853C22.6424 12.3375 22.41 11.6395 21.9948 10.7339C21.5797 9.82812 20.9819 8.71467 20.135 7.68429C19.2881 6.65398 18.1921 5.70665 17.0546 4.98378C15.9171 4.26086 14.7381 3.76227 13.7251 3.43821C12.7122 3.11415 11.8653 2.96458 10.8026 2.86491C9.9176 2.78185 8.88291 2.73342 7.63633 2.86344Z" fill="url(#paint1_linear_20702_1078)"/>
<path fill-rule="evenodd" clip-rule="evenodd" d="M19.7966 29.1057C19.8496 29.0756 19.9029 29.045 19.9563 29.014C20.9714 28.4239 22.0673 27.6595 23.0574 26.891C24.0475 26.1224 24.9316 25.3499 25.7806 24.44C26.6295 23.5303 27.4432 22.4833 28.1469 21.4487C28.8506 20.4141 29.4444 19.3918 29.9488 18.3116C30.4533 17.2313 30.8684 16.0929 31.0946 14.9899C31.713 11.9755 31.3259 8.96645 29.5025 6.45404C28.9296 5.66465 28.2944 5.02478 27.4974 4.48469C26.7003 3.94459 25.7039 3.42942 24.7823 3.0306C23.8608 2.63179 23.0139 2.39907 22.0776 2.19354C21.1414 1.98796 20.1159 1.80951 19.1174 1.68081C18.3586 1.58302 17.6154 1.51396 16.795 1.48828L16.7985 1.4944C18.21 1.69381 19.6215 1.89327 20.9375 2.23396C22.2535 2.57459 23.474 3.05656 24.5202 3.53852C25.5664 4.02044 26.4382 4.50235 27.1273 5.00509C27.8165 5.50783 28.3229 6.03131 28.7754 6.67113C29.228 7.31095 29.6265 8.06714 29.9253 8.88143C30.2243 9.69572 30.4235 10.5682 30.5273 11.3618C30.6311 12.1553 30.6394 12.8699 30.573 13.5679C30.5065 14.2659 30.3654 14.9473 30.1828 15.6411C30.0001 16.3349 29.7759 17.0412 29.4936 17.7475C29.2113 18.4538 28.8709 19.1601 28.518 19.8373C28.1652 20.5145 27.7998 21.1626 27.3597 21.7983C26.9197 22.434 26.4049 23.0572 25.8694 23.6472C25.3339 24.2371 24.7776 24.7938 24.2296 25.3257C23.6816 25.8574 23.1419 26.3643 22.5939 26.8421C22.046 27.3199 21.4896 27.7686 20.979 28.1716C20.4865 28.5603 20.0365 28.9064 19.7966 29.1057Z" fill="url(#paint2_linear_20702_1078)"/>
<path fill-rule="evenodd" clip-rule="evenodd" d="M20.2348 20.276C19.9607 20.4796 19.4875 20.7952 18.9353 21.0528C18.3832 21.3104 17.7522 21.5099 17.2416 21.6387C16.7309 21.7675 16.3407 21.8256 15.8923 21.8256C15.444 21.8256 14.9375 21.7675 14.4103 21.6553C13.8831 21.5431 13.335 21.377 12.87 21.1775C12.4051 20.9781 12.0232 20.7454 11.5831 20.3507C11.1431 19.956 10.6449 19.3993 10.2381 18.7803C9.83121 18.1612 9.5157 17.4798 9.30398 16.7653C9.09226 16.0506 8.98433 15.3028 9.00919 14.5383C9.03411 13.7738 9.19192 12.9928 9.48246 12.299C9.77312 11.6051 10.1966 10.9985 10.649 10.4667C11.1016 9.93497 11.5831 9.47793 12.1228 9.10816C12.6625 8.73839 13.2603 8.45588 13.8705 8.27722C14.4808 8.09857 15.1035 8.02376 15.6806 8.00298C16.2577 7.98226 16.789 8.0155 17.3412 8.11108C17.8933 8.20661 18.4662 8.36449 19.0599 8.67197C19.6536 8.97939 20.2679 9.43643 20.6125 9.70648C20.8943 9.92735 20.9957 10.0232 21.164 10.378C19.9561 9.05349 18.2212 8.22285 16.2931 8.22285C12.6443 8.22285 9.68615 11.1972 9.68615 14.8663C9.68615 18.5352 12.6443 21.5096 16.2931 21.5096C17.9667 21.5096 19.4946 20.8836 20.6588 19.8523L20.654 19.8605C20.5834 19.981 20.5088 20.0724 20.2348 20.276Z" fill="url(#paint3_linear_20702_1078)"/>
</g>
</g>
<defs>
<linearGradient id="paint0_linear_20702_1078" x1="14.2058" y1="26.4355" x2="28.0152" y2="13.6333" gradientUnits="userSpaceOnUse">
<stop stop-color="#B12020"/>
<stop offset="0.568627" stop-color="#A01F1F"/>
<stop offset="1" stop-color="#CC3333"/>
</linearGradient>
<linearGradient id="paint1_linear_20702_1078" x1="16.0489" y1="3.60148" x2="8.52076" y2="10.9742" gradientUnits="userSpaceOnUse">
<stop stop-color="#6E0908"/>
<stop offset="1" stop-color="#CB3232"/>
</linearGradient>
<linearGradient id="paint2_linear_20702_1078" x1="20.5524" y1="5.21637" x2="28.7242" y2="19.0847" gradientUnits="userSpaceOnUse">
<stop stop-color="#E44441"/>
<stop offset="0.231373" stop-color="#F58886"/>
<stop offset="1" stop-color="#E44441"/>
</linearGradient>
<linearGradient id="paint3_linear_20702_1078" x1="11.3912" y1="8.63554" x2="10.693" y2="18.806" gradientUnits="userSpaceOnUse">
<stop stop-color="#871715"/>
<stop offset="1" stop-color="#E4423D"/>
</linearGradient>
<clipPath id="clip0_20702_1078">
<rect width="32" height="32" fill="white"/>
</clipPath>
<clipPath id="clip1_20702_1078">
<rect width="32" height="32" fill="white" transform="translate(0.000366211 -0.000976562)"/>
</clipPath>
</defs>
</svg>
