<svg width="542" height="542" viewBox="0 0 542 542" fill="none" xmlns="http://www.w3.org/2000/svg">
    <path d="M270.597 541.19C415.073 541.19 532.193 420.04 532.193 270.595C532.193 121.15 415.073 0 270.597 0C126.121 0 9 121.15 9 270.595C9 420.04 126.121 541.19 270.597 541.19Z"
          fill="#FBFBFB"/>
    <path d="M328.305 339.069C321.182 345.007 320.199 355.613 326.135 362.739C332.071 369.864 342.674 370.847 349.797 364.909C377.84 341.526 393.97 307.21 393.97 270.723C393.97 203.154 339.031 148.198 271.483 148.198C203.935 148.198 148.996 203.154 148.996 270.723C148.996 308.029 165.699 342.878 194.765 366.261C202.011 372.076 212.573 370.929 218.386 363.681C224.199 356.432 223.053 345.867 215.807 340.052C150.715 287.717 187.601 181.778 271.442 181.778C354.546 181.778 391.923 286.12 328.305 339.069Z"
          fill="#EF0404"/>
    <path d="M379.395 421.134C425.901 387.595 456.154 332.803 456.154 271.214C456.154 261.918 448.622 254.424 439.369 254.424C430.117 254.424 422.585 261.959 422.585 271.214C422.585 321.87 397.654 366.588 359.745 393.902C352.212 399.348 350.534 409.832 355.938 417.367C361.382 424.861 371.863 426.539 379.395 421.134Z"
          fill="#B70000"/>
    <path d="M201.393 36.2801C192.51 38.9419 187.434 48.2787 190.095 57.165C192.755 66.0513 202.089 71.1291 210.973 68.4673C345.536 28.3357 480.878 129.648 480.878 269.699C480.878 278.995 488.41 286.489 497.662 286.489C506.955 286.489 514.447 278.954 514.447 269.699C514.488 107.452 357.654 -10.3217 201.393 36.2801Z"
          fill="#910000"/>
    <path d="M388.117 127.928C268.291 30.2193 86.8125 115.479 86.8125 271.173C86.8125 373.058 169.671 455.901 271.484 455.901C280.777 455.901 288.269 448.366 288.269 439.112C288.269 429.816 280.736 422.322 271.484 422.322C188.175 422.322 120.382 354.508 120.382 271.173C120.382 143.612 269.028 74.1593 366.87 153.972C374.075 159.828 384.637 158.763 390.491 151.556C396.386 144.349 395.281 133.783 388.117 127.928Z"
          fill="#B70000"/>
    <path d="M43.7846 255.653C34.5326 255.653 27 263.188 27 272.443C27 407.294 136.673 517 271.482 517C328.796 517 384.553 496.73 428.398 459.997C435.521 454.018 436.463 443.453 430.486 436.328C424.509 429.202 413.947 428.26 406.824 434.239C368.997 465.935 320.936 483.421 271.482 483.421C155.218 483.421 60.6102 388.784 60.6102 272.484C60.5692 263.188 53.0776 255.653 43.7846 255.653Z"
          fill="#910000"/>
</svg>
