<svg width="256" height="256" viewBox="0 0 256 256" fill="none" xmlns="http://www.w3.org/2000/svg">
    <g clip-path="url(#clip0)">
        <path fill-rule="evenodd" clip-rule="evenodd"
              d="M139.057 255.786C204.643 250.179 256.127 195.166 256.127 128.128C256.127 95.4558 243.898 65.6398 223.768 43.0075C223.877 44.0852 223.986 45.2136 224.096 46.3944C228.514 93.8902 192.066 157.955 177.707 180.046C175.739 183.074 173.828 185.992 171.98 188.813C154.239 215.903 142.359 234.044 142.359 254.051C141.337 254.615 140.228 255.2 139.057 255.786ZM111.482 255.201C48.5205 247.098 -0.128906 193.294 -0.128906 128.128C-0.128906 96.8512 11.0778 68.1918 29.6948 45.9463C29.6948 46.0944 29.6948 46.2438 29.6948 46.3944C29.6948 67.3815 29.6948 96.1 61.7288 155.746C67.2404 166.008 74.0785 176.558 80.901 187.083C96.2063 210.695 111.434 234.187 111.434 254.051C111.434 254.452 111.45 254.835 111.482 255.201ZM37.4213 37.5055C37.4231 37.523 37.4249 37.5405 37.4267 37.558C41.8468 80.6324 110.329 183.36 126.897 201.032C182.567 128.574 211.948 67.3815 216.364 37.558C216.422 36.8871 216.485 36.2071 216.553 35.526C193.546 13.5186 162.351 0 127.999 0C92.629 0 60.6062 14.332 37.4213 37.5055Z"
              fill="#4378BC"/>
    </g>
    <defs>
        <clipPath id="clip0">
            <rect width="256" height="256" fill="white"/>
        </clipPath>
    </defs>
</svg>
