<svg width="542" height="542" viewBox="0 0 542 542" fill="none" xmlns="http://www.w3.org/2000/svg">
    <path d="M483.605 88.998H59.2656V458.512H483.605V88.998Z" fill="#FB601F"/>
    <path fill-rule="evenodd" clip-rule="evenodd"
          d="M243.862 157.916L103.434 156.62L102.922 385.266H159.922V291.812L242.568 291.558L242.697 265.911L268.737 265.916L269.122 187.18L243.865 186.922L243.862 157.916ZM215.883 209.063L159.142 208.938L159.08 237.36L215.757 237.549L215.883 209.063Z"
          fill="#FEFEFE"/>
    <path fill-rule="evenodd" clip-rule="evenodd"
          d="M282.504 353.379L283.409 187.105H311.65L311.909 157.058L423.836 157.578L423.322 218.445L342.23 218.244L341.963 325.407H397.995L398.187 297.689L371.76 297.434L372.018 247.967L451.042 248.225L450.913 355.325L420.988 355.45L420.859 382.901L312.689 383.422L312.692 353.374L282.504 353.379Z"
          fill="#FEFEFE"/>
    <path d="M436.185 44.2441H99.6055V117.491H436.185V44.2441Z" fill="#FB601F"/>
    <path d="M524.004 413.32L524.004 135.268L450.729 135.268L450.729 413.32L524.004 413.32Z" fill="#FB601F"/>
    <path d="M438.252 429.545H101.672V502.791H438.252V429.545Z" fill="#FB601F"/>
    <path d="M373.086 466.269H164.215V539.515H373.086V466.269Z" fill="#FB601F"/>
    <path d="M371.227 3.31934H162.355V76.5659H371.227V3.31934Z" fill="#FB601F"/>
    <path d="M92.2734 412.227L92.2734 134.175L18.9987 134.175L18.9987 412.227L92.2734 412.227Z" fill="#FB601F"/>
</svg>
