<svg width="32" height="32" viewBox="0 0 32 32" fill="none" xmlns="http://www.w3.org/2000/svg">
<g clip-path="url(#clip0_20702_395)">
<path d="M28.8089 7.40497C28.8093 7.42272 28.8094 7.44051 28.8094 7.45834V29.4479C28.8094 30.8579 27.732 32.001 26.403 32.001H5.59787C4.26882 32.001 3.19141 30.8579 3.19141 29.4479V7.45834C3.19141 6.04833 4.26882 4.90532 5.59787 4.90532H23.9998C25.1612 3.73168 26.5141 2.21563 27.3236 1.3085C27.3725 1.25376 27.4194 1.20123 27.4641 1.15113C28.3287 0.182719 28.3936 0.121096 28.4543 0.0806637C28.515 0.0401699 28.5715 0.0209293 28.6266 0.011213C28.6817 0.00144717 28.7356 0.00121188 28.7894 0.000976562C28.7959 0.108091 28.8024 0.21515 28.8057 1.67023C28.8084 2.89485 28.8089 5.07431 28.8089 7.40497Z" fill="#FF4040"/>
<path fill-rule="evenodd" clip-rule="evenodd" d="M9.47137 27.4814C9.48884 21.5641 9.5063 15.6468 9.52376 9.72949C9.52376 9.72949 9.52376 9.72949 10.9607 9.73822C12.3976 9.74696 15.2714 9.76436 16.8413 9.80585C18.4113 9.84734 18.6775 9.91273 19.4762 10.2161C20.2748 10.5193 21.6058 11.0605 22.446 12.3348C23.2861 13.6089 23.6352 15.6163 23.4912 17.1676C23.3471 18.7189 22.7099 19.8142 21.9407 20.6281C21.1715 21.4419 20.2703 21.9742 19.6277 22.2492C18.9851 22.5242 18.6011 22.5416 17.737 22.5481C16.8728 22.5546 15.5285 22.5502 14.1844 22.5458C14.1845 24.2085 14.1845 25.871 14.1846 27.5337C12.6135 27.5163 11.0425 27.4988 9.47137 27.4814ZM14.1614 13.9642C14.1649 15.4596 14.1683 16.9548 14.1717 18.4501C15.1035 18.4626 16.0353 18.4751 16.571 18.4596C17.1067 18.444 17.2463 18.4003 17.3925 18.3349C17.5387 18.2694 17.6914 18.1822 17.8398 18.0601C17.9881 17.9378 18.1322 17.7807 18.2698 17.545C18.4072 17.3094 18.538 16.9952 18.5992 16.6635C18.6603 16.3318 18.6516 15.9828 18.573 15.6554C18.4944 15.3282 18.3461 15.0227 18.1322 14.7566C17.9184 14.4903 17.6391 14.2634 17.3817 14.1368C17.1241 14.0102 16.8885 13.9842 16.3555 13.9721C15.8224 13.9601 14.9919 13.9621 14.1614 13.9642Z" fill="#FEFEFE"/>
</g>
<defs>
<clipPath id="clip0_20702_395">
<rect width="32" height="32" fill="white"/>
</clipPath>
</defs>
</svg>
