<svg width="32" height="32" viewBox="0 0 32 32" fill="none" xmlns="http://www.w3.org/2000/svg">
<g clip-path="url(#clip0_20702_1016)">
<path d="M28.5335 11.3364C28.514 11.2915 28.5023 11.2465 28.4827 11.1996C27.2913 8.4241 22.7695 7.58171 17.5564 8.85409L16.7008 8.34593C19.2674 7.29436 21.8242 6.74321 23.9648 6.89371C27.1604 7.11848 28.7229 8.8502 28.5335 11.3364ZM23.8985 17.1688C20.5605 21.2206 14.5054 24.0235 10.4036 23.7342C6.30164 23.4449 5.67662 19.917 9.02052 15.8671C9.087 15.783 9.15938 15.7029 9.22964 15.6189V20.7007C9.21789 20.967 9.27717 21.2316 9.40145 21.4674C9.52573 21.7033 9.71047 21.9019 9.93683 22.0429C10.163 22.1837 10.4226 22.2618 10.6889 22.2691C10.9553 22.2764 11.2188 22.2127 11.4524 22.0846L23.754 14.9504C23.9648 14.8233 24.1385 14.6431 24.2575 14.4278C24.3766 14.2125 24.4368 13.9697 24.4322 13.7237C24.4277 13.4777 24.3585 13.2373 24.2316 13.0265C24.1046 12.8157 23.9244 12.642 23.7089 12.5228L18.7263 9.78646C19.9516 9.40949 21.2329 9.24683 22.5137 9.30564C26.6154 9.60078 27.2385 13.119 23.8985 17.1688ZM8.27259 25.9135C4.50089 25.6438 2.99885 23.2768 3.97542 20.0499C3.96129 20.575 4.06058 21.0969 4.26652 21.5802C5.74117 25.0281 12.3587 25.4894 19.0467 22.6338C19.1854 22.5751 19.322 22.5107 19.4568 22.454C15.6968 24.7642 11.515 26.1422 8.2648 25.9135H8.27259ZM12.6205 7.88075L20.869 12.8278C21.0147 12.9101 21.1365 13.0288 21.2224 13.1723C21.3082 13.3159 21.3553 13.4793 21.3588 13.6465C21.3624 13.8137 21.3223 13.9789 21.2426 14.126C21.1629 14.273 21.0463 14.3968 20.9042 14.4852L12.5696 19.3208C12.4102 19.4077 12.2304 19.4505 12.0489 19.445C11.8673 19.4394 11.6905 19.3856 11.5367 19.2891C11.3827 19.1925 11.2573 19.0567 11.1731 18.8957C11.0889 18.7347 11.0492 18.5543 11.0578 18.3729L11.0187 8.76813C11.0255 8.58487 11.0794 8.40645 11.1753 8.25005C11.2711 8.09365 11.4057 7.96459 11.5661 7.87526C11.7262 7.78611 11.9067 7.73976 12.0901 7.74071C12.2734 7.74165 12.4534 7.78989 12.6127 7.88075H12.6205ZM31.7094 9.6731C29.9808 5.62909 22.7989 4.73782 15.0289 7.35499L11.5754 5.289C11.3403 5.15272 11.0738 5.07975 10.8021 5.07722C10.5302 5.07468 10.2625 5.14267 10.0249 5.27454C9.78704 5.40663 9.58754 5.59803 9.44579 5.83006C9.30403 6.06206 9.22486 6.32686 9.21594 6.59856V9.93696C2.52425 13.7581 -1.36056 19.2504 0.293484 23.1244C2.20967 27.5945 10.7943 28.2063 19.4665 24.4925C28.139 20.7789 33.6237 14.1353 31.7094 9.6731Z" fill="white"/>
</g>
<defs>
<clipPath id="clip0_20702_1016">
<rect width="32" height="32" fill="white" transform="translate(0.00195312)"/>
</clipPath>
</defs>
</svg>
