<svg width="542" height="542" viewBox="0 0 542 542" fill="none" xmlns="http://www.w3.org/2000/svg">
    <g clip-path="url(#clip0_200_2)">
        <path d="M225.389 365.963V361.538C225.389 331.005 225.612 300.472 225.198 269.947C225.118 264.023 223.484 257.669 220.901 252.32C213.447 236.878 195.621 228.659 178.912 232.175C159.46 236.272 147.852 254.241 147.972 270.074C148.354 323.033 148.187 376 148.043 428.967C148.02 437.473 150.61 444.783 155.458 451.568C163.988 463.526 183.121 472.239 197.726 465.431C208.927 460.209 220.215 455.139 231.273 449.63C294.077 418.332 356.826 386.914 419.598 355.551C452.786 338.969 485.966 322.387 519.17 305.837C535.497 297.698 543.262 284.4 541.835 266.399C540.663 251.571 532.492 241.191 519.09 234.598C492.24 221.388 465.534 207.899 438.755 194.538C311.568 131.112 184.396 67.6457 57.1931 4.25134C46.2394 -1.2016 34.9428 -1.6321 23.5746 3.26279C11.5526 8.42873 0.814152 23.7512 0.830096 35.7333C0.869957 63.2052 0.933734 90.6772 0.933734 118.149C0.941706 245.185 0.965622 372.221 0.869957 499.257C0.869957 506.783 2.19333 513.782 5.70904 520.391C13.2905 534.645 30.0001 543.12 43.4969 540.903C65.3645 537.316 78.6939 522.272 78.6939 499.887C78.6939 368.737 78.6939 237.588 78.6939 106.43V101.137C191.571 157.571 303.907 213.727 416.912 270.226C352.664 302.337 289.357 333.979 225.381 365.955L225.389 365.963Z"
              fill="#FEFEFE"/>
        <path d="M225.389 365.963C289.365 333.987 352.672 302.345 416.919 270.233C303.907 213.735 191.571 157.579 78.6939 101.145V106.438C78.6939 237.588 78.6939 368.737 78.6939 499.895C78.6939 522.272 65.3725 537.316 43.4969 540.911C30.0001 543.127 13.2905 534.661 5.70904 520.399C2.19333 513.782 0.861984 506.782 0.869957 499.257C0.965622 372.221 0.941706 245.185 0.933734 118.149C0.933734 90.6771 0.869957 63.2052 0.830096 35.7332C0.814152 23.7511 11.5526 8.42865 23.5746 3.26271C34.9428 -1.6242 46.2394 -1.20168 57.1931 4.25923C184.396 67.6536 311.568 131.112 438.747 194.562C465.526 207.923 492.232 221.404 519.082 234.622C532.484 241.215 540.655 251.595 541.827 266.423C543.254 284.424 535.489 297.721 519.162 305.861C485.958 322.411 452.778 338.993 419.59 355.575C356.818 386.945 294.069 418.356 231.265 449.654C220.207 455.163 208.919 460.225 197.718 465.455C183.121 472.263 163.988 463.55 155.45 451.591C150.603 444.799 148.012 437.497 148.035 428.99C148.179 376.024 148.346 323.057 147.964 270.098C147.852 254.265 159.452 236.296 178.904 232.198C195.613 228.675 213.439 236.902 220.893 252.344C223.476 257.693 225.11 264.047 225.19 269.97C225.612 300.496 225.381 331.029 225.381 361.562V365.987L225.389 365.963Z"
              fill="#FE012A"/>
    </g>
    <defs>
        <clipPath id="clip0_200_2">
            <rect width="542" height="542" fill="white"/>
        </clipPath>
    </defs>
</svg>
