<svg width="32" height="32" viewBox="0 0 32 32" fill="none" xmlns="http://www.w3.org/2000/svg">
<path d="M16 28C23.1797 28 29 22.1797 29 15C29 7.8203 23.1797 2 16 2C8.8203 2 3 7.8203 3 15C3 22.1797 8.8203 28 16 28Z" fill="white"/>
<path fill-rule="evenodd" clip-rule="evenodd" d="M1.19531 14.8064C1.19531 6.62883 7.82414 0 16.0017 0C24.1793 0 30.8082 6.62883 30.8082 14.8064C30.8082 22.984 24.1793 29.6128 16.0017 29.6128C11.5794 29.6128 7.60995 27.6742 4.89692 24.6004V32H1.19893V15.1369C1.19653 15.027 1.19531 14.9169 1.19531 14.8064ZM9.31932 23.2953C9.31932 23.2953 11.9193 25.6427 16.1497 25.5024C16.1497 25.5024 19.8265 25.5075 22.9852 22.91L21.9161 20.8867C21.9161 20.8867 16.9841 25.6835 10.9191 21.6802C10.9191 21.6802 7.77821 19.5446 7.48989 14.9978L10.7048 15.0233L7.23985 8.75934C7.23985 8.75934 5.35682 11.1195 5.2267 13.9134C5.2267 13.9134 4.55565 20.0243 9.31932 23.2953ZM21.3038 14.8217L24.8504 20.583C24.8504 20.583 26.6237 18.1412 26.6237 15.3448C26.6237 15.3448 27.009 9.2084 22.0998 6.1619C22.0998 6.1619 19.3952 3.93954 15.175 4.27378C15.175 4.27378 11.8045 4.41156 8.96211 6.87887L10.072 8.77975C10.072 8.77975 14.6877 3.94719 20.7578 7.83314C20.7578 7.83314 24.5085 10.2188 24.3044 14.8217H21.3038Z" fill="#AC0C0C"/>
</svg>
