<svg width="32" height="32" viewBox="0 0 32 32" fill="none" xmlns="http://www.w3.org/2000/svg">
<path fill-rule="evenodd" clip-rule="evenodd" d="M8.29762 5.58535C8.78675 5.58535 9.73825 6.32104 10.1063 6.67313C10.2153 6.77752 10.2919 6.91474 10.3205 7.06329C10.4088 7.50459 9.83062 8.10033 9.64621 8.46914C9.30314 9.14128 9.06092 9.84204 8.86378 10.5684C8.54835 11.7305 8.24461 13.0512 8.24461 14.2579H20.6915C20.6915 13.6127 20.5881 12.9895 20.5219 12.3495C20.4503 11.6574 20.2453 10.9402 20.0321 10.2821C19.7636 9.44165 19.4444 8.52725 18.9485 7.7906C18.7648 7.51768 18.4639 7.27969 18.6326 6.92546C18.8472 6.53531 20.1983 5.44563 20.717 5.59383C21.0659 5.65926 21.3748 6.33934 21.5164 6.6074C21.7074 6.97119 21.4337 6.97901 21.4337 7.29654C21.4337 7.77554 22.0544 8.47263 22.2395 8.92503C22.7943 10.3611 23.5424 11.8904 23.6835 13.4415C23.7044 13.7176 23.7572 13.9865 23.8086 14.2579C25.6004 14.2661 27.3604 14.2932 29.1415 14.4551C29.2455 14.47 29.2499 14.777 29.2581 14.8453C29.2687 14.9534 29.2793 15.1273 29.2793 15.4242H29.1096V14.5866H0.165769V20.386H29.1096C29.1096 20.2527 29.0776 19.4106 29.1457 19.4106C29.1669 19.4106 29.2072 19.4021 29.2878 19.3788C29.2763 19.7134 29.2937 20.0678 29.2263 20.3966C29.2072 20.4771 29.1839 20.5535 29.1711 20.5662C29.0924 20.6351 28.4822 20.6187 28.3781 20.6277C28.1788 20.6468 27.8416 20.6701 27.6253 20.6828C27.4091 20.6934 26.264 20.704 22.9286 20.704C22.6532 21.3209 22.3245 21.9031 21.915 22.4428C21.3544 23.1818 20.6599 23.6834 19.9324 24.2451C19.7492 24.3861 19.5369 24.531 19.4702 24.7646C19.3839 25.0619 19.6216 25.3486 19.5465 25.6489C19.4952 25.8322 19.2688 25.9611 19.1118 26.0369C18.5076 26.3269 17.8078 26.4178 17.1504 26.5013C16.0714 26.6383 14.9714 26.6969 13.885 26.6433C12.9345 26.5918 11.9709 26.5283 11.0436 26.2998C10.6366 26.1996 9.8959 26.0223 9.76072 25.5492C9.67966 25.288 9.85297 25.0258 9.78616 24.7646C9.61659 23.9733 7.88639 23.3991 7.33495 22.8117C6.77284 22.1997 6.37545 21.4635 6.04996 20.704C5.35935 20.704 0.368224 20.7019 0.0703494 20.422C0.049145 20.352 0.0279407 20.1442 0.0152181 19.8452C0.00249556 19.5654 -0.00386573 18.4627 0.00249557 17.0887C0.0109773 15.0785 0.0152182 14.7774 0.0449042 14.629C0.127208 14.2266 0.781563 14.3524 1.16237 14.3215C2.49953 14.2131 3.85202 14.2579 5.19119 14.2579C5.22338 13.9736 5.27394 13.6916 5.32266 13.4097C5.52695 12.1954 5.83186 10.9142 6.36167 9.79441C6.64402 9.1912 7.56607 7.96334 7.56607 7.30714C7.56607 7.1906 7.26921 7.10892 7.26921 6.96363C7.26921 6.60753 7.71313 6.09477 7.93079 5.8398C8.0185 5.73706 8.14647 5.58535 8.29762 5.58535ZM8.85317 7.21808C8.68186 7.21808 8.43473 7.00705 8.29126 6.93607C7.9838 6.78127 7.92018 6.75583 7.89262 6.77703C7.86505 6.79824 7.80499 6.85549 7.81347 6.94667C7.8324 7.19272 8.24013 7.3575 8.41424 7.49162C8.51415 7.56857 8.9142 7.74044 8.95708 7.86906C9.01733 8.0197 8.75993 8.35727 8.7005 8.46914C8.49192 8.85421 8.31579 9.25198 8.14919 9.65658C7.96352 10.1208 7.81995 10.5969 7.6827 11.0773C7.54951 11.5434 7.44456 12.0078 7.37523 12.4874C7.29635 13.0754 7.26518 13.6655 7.24801 14.2579H7.37523C7.37523 12.9469 7.56522 11.6331 8.0156 10.3987C8.17118 9.98758 8.34445 9.58422 8.53935 9.19008C8.71956 8.81737 8.95947 8.45352 9.09702 8.06202C9.13519 7.94963 9.14155 7.91146 9.12247 7.87118C8.92152 7.60526 8.39939 7.32333 8.14071 7.15871C8.07139 7.11629 7.83078 7.00426 7.94139 6.89366C8.02717 6.80215 8.24306 7.02147 8.30822 7.06753C8.44915 7.16959 8.71143 7.40892 8.90194 7.40892C9.17081 7.40892 9.14173 6.8152 9.42145 6.8152C9.58664 6.8152 9.75012 7.00567 9.75012 6.94667C9.75012 6.86172 9.49734 6.62436 9.41297 6.62436C9.12272 6.62436 9.09371 7.21808 8.85317 7.21808ZM19.1691 6.92122C19.1611 6.96109 19.2519 6.8476 19.3875 6.82368C19.4299 6.81308 19.4702 6.81944 19.5041 6.84065C19.5338 6.85761 19.6504 7.00604 19.7628 7.17143C19.8837 7.34743 19.9876 7.47678 20.013 7.48314C20.1589 7.5168 20.4807 7.22507 20.5961 7.14811C20.6604 7.10525 20.865 6.88506 20.9502 6.91062C20.9714 6.91698 20.9884 6.94243 20.9884 6.96787C20.9905 6.99544 20.9672 7.04421 20.9417 7.07814C20.8573 7.18203 20.7102 7.22861 20.6067 7.31138C20.4766 7.41545 19.8222 7.75752 19.8222 7.94327C19.8222 7.95811 19.9324 8.16168 20.0681 8.39492C20.206 8.62817 20.3756 8.94199 20.4498 9.09467C20.8125 9.85207 21.032 10.6591 21.2407 11.4695C21.4365 12.2772 21.5786 13.1043 21.6182 13.9356L21.6351 14.2579C21.7518 14.2579 21.773 14.2473 21.773 14.2261C21.773 13.7481 21.7041 13.2475 21.6436 12.7736C21.511 11.7351 21.2319 10.7804 20.8824 9.79441C20.7553 9.43595 20.623 9.08078 20.4434 8.74479C20.3575 8.57858 19.9691 8.08287 20.013 7.93903C20.0549 7.80167 20.4437 7.57236 20.6067 7.46829C20.7433 7.38113 20.937 7.30153 21.01 7.14811C21.0749 7.01191 21.0948 6.8152 20.982 6.8152C20.9693 6.8152 20.77 6.92122 20.5431 7.04845C20.3162 7.1778 20.1084 7.2817 20.0809 7.2817C20.0001 7.2817 19.9419 7.14549 19.907 7.09086C19.8346 6.97772 19.5981 6.66006 19.4532 6.64557C19.4278 6.64557 19.3599 6.69858 19.2921 6.77279C19.2263 6.84065 19.1712 6.9085 19.1691 6.92122ZM9.29634 8.22529C9.07129 8.59023 8.85763 8.99367 8.72383 9.40213C8.5922 9.80393 8.41593 10.1928 8.30186 10.6002C8.12065 11.2344 7.96989 11.8929 7.84385 12.5404C7.73454 13.1018 7.67187 13.6868 7.7039 14.2579H7.84173C7.87248 13.7693 7.91496 13.2812 7.97107 12.7948C8.07526 11.8919 8.2992 10.9523 8.59024 10.0913C8.78085 9.54232 9.00993 9.02502 9.28362 8.51155C9.50114 8.10552 9.72558 7.70594 9.9664 7.3135C9.99952 7.25953 10.1807 7.07588 10.0915 7.02724C10.0512 7.00604 10.0364 7.02512 9.90703 7.22232C9.69802 7.55326 9.49932 7.89065 9.29634 8.22529ZM19.15 7.54675C19.3999 7.91247 19.6038 8.30762 19.8031 8.70239C19.9745 9.04196 20.1371 9.38885 20.2526 9.752C20.3895 10.1822 20.4957 10.6226 20.6216 11.0561C20.731 11.4437 20.834 11.8218 20.8824 12.2223C20.9218 12.5484 20.9849 12.8711 21.0202 13.1977C21.0583 13.5498 21.0702 13.9042 21.0838 14.2579H21.2641C21.2641 14.0353 21.2535 13.8572 21.2407 13.7172C21.1912 13.0638 21.086 12.3956 20.946 11.7558C20.8251 11.2284 20.6692 10.7095 20.5304 10.1867C20.4229 9.78197 20.276 9.40653 20.1063 9.02469C19.9496 8.68458 19.7752 8.3555 19.5826 8.03445C19.392 7.72616 19.2063 7.36971 18.9549 7.1057C18.9125 7.06329 18.8722 7.02724 18.8637 7.02724C18.8552 7.02724 18.8446 7.03573 18.8362 7.04845C18.7968 7.11402 19.1178 7.49763 19.15 7.54675ZM31.0923 11.1006C31.6413 11.084 32.0667 11.5882 31.9913 12.1311C31.9458 12.4497 31.7182 12.7367 31.4103 12.8393C31.3191 12.8712 31.3022 12.886 31.2873 12.9475C31.2788 12.9857 31.2046 13.7193 31.1241 14.576C31.0414 15.4326 30.9544 16.3147 30.9311 16.5374C30.9021 16.8107 30.8744 17.0583 30.7169 17.288C30.6118 17.4456 30.4537 17.5663 30.2759 17.6315C30.2123 17.657 30.1041 17.6867 29.9175 17.7248L29.8348 18.6727C29.7552 18.8507 29.61 18.9959 29.432 19.0755C29.2984 19.1413 29.275 19.1455 28.7174 19.1603L28.7025 19.4508C28.6947 19.5973 28.7062 19.788 28.6241 19.9195C28.5468 20.0354 27.7166 19.9974 27.5511 20.0085C27.2309 20.0297 24.608 20.0361 14.6377 20.0361C4.66744 20.0361 2.04447 20.0297 1.72429 20.0085C1.54902 19.9968 0.703609 20.0384 0.6153 19.8346C0.600457 19.7944 0.577132 19.6608 0.56653 19.5378C0.555928 19.4148 0.543205 18.732 0.534724 18.0217C0.527205 17.1646 0.534724 16.123 0.598337 15.2333C0.677678 14.9358 1.34887 15.0395 1.61826 15.017C1.82183 14.9979 5.16786 14.9895 14.2772 14.9852C22.9392 14.9789 26.8175 14.9831 27.1801 15.0001C27.6165 15.0195 28.0757 15.0234 28.5053 15.1146C28.6304 15.14 28.6326 15.14 28.6601 15.2333C28.675 15.2863 28.694 15.4029 28.7174 15.6532C29.026 15.662 29.364 15.6337 29.6164 15.844C29.985 16.1511 29.9154 16.6362 29.9154 17.0675C29.9782 17.0507 30.0439 17.036 30.0978 16.9975C30.3067 16.7456 30.3651 15.989 30.4031 15.6468C30.4498 15.227 30.5452 14.4212 30.613 13.855C30.7233 12.9475 30.7339 12.8245 30.7063 12.8054C30.6894 12.7927 30.63 12.7545 30.577 12.7206C30.2338 12.4872 30.1219 11.9915 30.2929 11.6222C30.4462 11.307 30.7426 11.1112 31.0923 11.1006ZM21.8366 11.8088C21.8366 11.9371 21.8746 12.0584 21.9108 12.1799C22.0423 12.0527 22.1143 11.9975 22.1546 11.9763C22.2686 11.9218 22.447 11.9247 22.5618 11.9763L22.6423 12.0103C22.6211 11.8703 22.5978 11.7813 22.5766 11.724C22.5379 11.6155 22.4836 11.5001 22.3815 11.4377C22.2778 11.3717 22.1056 11.3777 22.0041 11.4441C21.8832 11.5204 21.8366 11.6742 21.8366 11.8088ZM6.30017 12.4874C6.324 12.5826 6.41284 12.651 6.4995 12.6867C6.58765 12.7172 6.68829 12.6731 6.74971 12.6061C6.77303 12.5828 6.78787 12.5573 6.78151 12.5552C6.6693 12.4804 6.5091 12.4915 6.39347 12.4089C6.3235 12.3538 6.3129 12.3516 6.3023 12.3856C6.29381 12.4068 6.29381 12.4513 6.30017 12.4874ZM22.2013 12.6464C22.3339 12.7274 22.4435 12.6735 22.5469 12.5849C22.4239 12.5828 22.3518 12.5679 22.3073 12.551C22.2588 12.5292 22.0698 12.354 22.0698 12.4068C22.0698 12.4972 22.1262 12.5978 22.2013 12.6464ZM6.08389 12.8754C6.04009 13.1492 5.97575 13.4429 5.97575 13.7214V13.7702C6.26553 13.5326 6.5461 13.5284 6.79848 13.7808C6.83452 13.5179 6.85573 13.3461 6.86633 13.2295C6.86871 13.2034 6.90773 12.7524 6.87693 12.7524C6.78028 12.7524 6.68593 12.8372 6.58007 12.8372C6.39408 12.8372 6.26271 12.6993 6.13266 12.5849L6.08389 12.8754ZM22.3391 12.8372C22.2984 12.8359 22.0443 12.744 22.0253 12.763C21.9367 12.8811 22.0763 13.4019 22.0995 13.5412C22.1165 13.643 22.1419 13.7278 22.1525 13.7278C22.3153 13.7278 22.4022 13.5305 22.6148 13.5836C22.7416 13.6178 22.8506 13.6984 22.9583 13.7702C22.9583 13.6387 22.9434 13.4882 22.9265 13.3504C22.9041 13.1914 22.9015 12.7083 22.7823 12.5891C22.778 12.587 22.7356 12.6273 22.6869 12.6782C22.5907 12.7827 22.4819 12.8372 22.3391 12.8372ZM6.12842 14.0968C6.16843 14.2728 6.4456 14.3479 6.57795 14.2155L6.62036 14.171C6.4274 14.1731 6.34895 14.1583 6.30866 14.1392C6.23819 14.1039 6.17477 14.0563 6.11146 14.0098L6.12842 14.0968ZM22.3094 14.2007C22.3671 14.3007 22.5593 14.2579 22.6614 14.2579C22.5174 14.1803 22.3828 14.098 22.2564 13.995C22.2648 14.0665 22.2733 14.1364 22.3094 14.2007ZM8.14919 21.2087C8.41063 21.1923 8.52485 20.9432 8.50754 20.7125C7.74419 20.704 7.52154 20.7083 7.52154 20.7189C7.52154 20.9649 7.93351 21.2267 8.14919 21.2087ZM9.36208 20.9415C9.60065 21.2142 9.86056 21.4723 10.1509 21.69C10.5108 21.9599 10.9049 22.1726 11.3341 22.3113C12.1578 22.5945 13.0416 22.6259 13.904 22.6548C14.5432 22.6798 15.1956 22.6944 15.8336 22.6336C16.6437 22.5436 17.461 22.3926 18.1979 22.0293C18.7848 21.7522 19.3241 21.3538 19.7204 20.8355L19.82 20.7019C19.6525 20.7019 19.6483 20.7061 19.4723 20.9415C18.8463 21.6573 18.0431 22.0293 17.2331 22.271C16.4558 22.4684 15.6496 22.5714 14.8476 22.5552C14.087 22.5475 13.3361 22.5018 12.5788 22.4428C11.7476 22.378 10.846 22.0861 10.1827 21.5649C9.94775 21.3735 9.7283 21.1645 9.52535 20.9394C9.40202 20.7801 9.17548 20.6847 9.17548 20.7125C9.17548 20.7189 9.2603 20.8228 9.36208 20.9415ZM11.0839 21.6031C13.4617 22.6386 16.9787 22.6336 18.569 21.179C18.7369 21.0312 18.8883 20.8698 19.0355 20.7019C18.834 20.704 18.834 20.704 18.5372 20.9945C18.3003 21.2283 18.0594 21.4222 17.7632 21.5734C16.4693 22.2066 14.7555 22.2224 13.3527 22.0696C12.3303 21.9546 11.4205 21.7135 10.575 21.1154C10.3556 20.9549 10.1518 20.7019 9.86462 20.7019C10.2224 21.0652 10.6261 21.3742 11.0839 21.6031ZM11.667 21.4122C12.4547 21.7609 13.2917 21.8694 14.1479 21.8851C15.1114 21.9026 16.0611 21.875 16.9787 21.5586C17.5248 21.3796 18.0122 21.095 18.4312 20.704H10.5919C10.8678 21.0465 11.2723 21.2347 11.667 21.4122ZM20.4689 21.0157C20.5474 21.1441 20.6735 21.2002 20.8188 21.2002C21.0074 21.2002 21.1493 21.0988 21.2556 20.9458C21.311 20.8662 21.3644 20.786 21.4125 20.7019H20.418C20.3936 20.814 20.4125 20.9142 20.4689 21.0157ZM17.7441 23.1192C17.1603 23.207 16.5728 23.2657 15.9842 23.31C15.2473 23.3656 14.5076 23.4069 13.7683 23.3864C13.1411 23.3726 12.5142 23.3269 11.8918 23.2485C11.4672 23.1982 10.8846 23.1014 10.4393 23.2146C10.2549 23.2782 10.1243 23.5934 10.0406 23.7786C10.0109 23.8423 9.98972 23.9059 9.99609 23.9207C10.0003 23.9356 10.0215 23.9483 10.0427 23.9483C10.0618 23.9483 10.1127 23.908 10.1551 23.8592C10.2921 23.6949 10.3883 23.333 10.6259 23.2782C10.6513 23.2719 10.84 23.2803 11.0436 23.2994C11.5639 23.3482 12.0816 23.4217 12.6021 23.4691C13.2585 23.5287 13.9151 23.5497 14.5741 23.5369C15.1171 23.528 15.6551 23.4913 16.1962 23.45C16.6852 23.4127 17.1748 23.3661 17.6593 23.2888C17.9117 23.2486 18.2953 23.0943 18.5499 23.1489C18.6717 23.1775 18.7255 23.4297 18.7577 23.5242C18.7937 23.6276 18.8747 23.9483 19.0228 23.9483C19.0951 23.9483 19.0706 23.8448 19.0609 23.8041C18.9928 23.5771 18.8503 23.1991 18.6814 23.0301C18.658 23.0068 18.6178 22.9941 18.5711 22.9941C18.296 23.0086 18.0164 23.0806 17.7441 23.1192ZM14.4893 24.0267C13.5082 24.0398 12.4901 24.0079 11.5419 23.7278C11.3533 23.672 10.8484 23.405 10.6916 23.6663C10.4307 24.1011 10.2301 24.7751 10.0661 25.2672C9.99716 25.4969 10.324 25.6628 10.4817 25.74C11.1595 26.0654 11.9794 26.1802 12.7187 26.2702C13.4439 26.3485 14.1748 26.3391 14.9028 26.3232C15.6208 26.3063 16.3405 26.2944 17.055 26.215C17.5528 26.1597 18.0579 26.0943 18.5393 25.9521C18.6904 25.904 18.8847 25.8373 18.9825 25.7019C19.0674 25.5842 19.0449 25.5068 18.9931 25.3732C18.8566 25.036 18.7074 23.7575 18.4608 23.5602C18.3263 23.4509 18.0208 23.566 17.882 23.5984C16.7697 23.8729 15.6346 24.0076 14.4893 24.0267ZM14.5402 6.389C14.7036 6.389 14.6414 6.98397 14.6419 7.04209C14.6483 7.54039 14.6462 7.57856 14.6123 7.57856C14.5805 7.57856 14.5699 7.54463 14.5465 7.36015C14.5116 7.08094 14.4446 6.73952 14.4914 6.45897C14.4999 6.41444 14.5168 6.39112 14.5402 6.389ZM12.6551 6.90002C12.6784 6.90002 12.7357 6.94455 12.7887 7.0018C12.9759 7.21342 13.1085 7.48071 13.2615 7.71638C13.3676 7.87966 13.4757 8.05141 13.5033 8.09806C13.5308 8.14683 13.5457 8.19772 13.5372 8.21893C13.5248 8.26024 12.943 7.50359 12.8841 7.41952C12.8056 7.30277 12.6127 7.10251 12.6127 6.94667C12.6127 6.91274 12.6254 6.90002 12.6551 6.90002ZM15.7 6.94243C15.717 6.94243 15.7361 6.95939 15.7425 6.97847C15.7509 6.99968 15.7403 7.04421 15.7212 7.08026C15.6449 7.21596 15.5674 7.34469 15.5177 7.49374C15.4689 7.63581 15.4562 7.65277 15.4053 7.65701C15.3671 7.66125 15.3438 7.65065 15.3353 7.62521C15.3004 7.52919 15.521 7.25112 15.5601 7.16507C15.5823 7.11369 15.6207 6.94243 15.7 6.94243ZM13.5033 6.94667C13.5682 6.94667 13.9218 7.57348 13.9168 7.61884C13.8951 7.71626 13.816 7.68021 13.7705 7.62733C13.6527 7.48011 13.5622 7.28951 13.5012 7.11206C13.4757 7.04633 13.4609 6.9806 13.4672 6.96999C13.4736 6.95727 13.4884 6.94879 13.5033 6.94667ZM17.2151 7.57856C17.2236 7.57856 17.2385 7.58916 17.2448 7.604C17.2512 7.61884 17.2427 7.65913 17.2257 7.69518C17.1084 7.92977 16.7867 8.12733 16.596 8.29314C16.4953 8.37919 16.2373 8.70026 16.0828 8.70026C16.0595 8.70239 16.0447 8.68754 16.0468 8.66422C16.0468 8.46993 16.627 8.06367 16.755 7.94539C16.8435 7.86497 17.0729 7.57856 17.2151 7.57856ZM16.1687 7.51494C16.1946 7.51494 16.2513 7.53646 16.2429 7.57008C16.2224 7.71371 15.9977 7.87757 15.9227 8.00264C15.8894 8.0602 15.898 8.165 15.8485 8.20832C15.8294 8.22317 15.7955 8.22953 15.7721 8.22529C15.7382 8.21681 15.7319 8.20196 15.7403 8.14471C15.7685 7.97599 15.9231 7.80986 16.0245 7.68246C16.0987 7.58916 16.1644 7.51494 16.1687 7.51494ZM12.653 7.83089C12.6593 7.83089 12.7463 7.91995 12.8459 8.02597C12.9439 8.13238 13.1582 8.21876 13.2319 8.32919C13.246 8.35743 13.2328 8.42416 13.2022 8.43945C13.111 8.47593 12.8962 8.2279 12.8502 8.18288C12.8073 8.14182 12.5537 7.9488 12.6148 7.86481C12.6275 7.84573 12.6445 7.83301 12.653 7.83089ZM12.0635 8.10311C12.2184 8.0773 12.4434 8.27758 12.5342 8.37665C12.5724 8.41694 12.5724 8.42542 12.5448 8.4551C12.4779 8.52765 12.345 8.37726 12.301 8.33636C12.2858 8.32176 11.9562 8.10311 12.0635 8.10311ZM17.5059 8.74479C17.5229 8.75115 17.5356 8.77448 17.5377 8.7978C17.5377 8.82537 17.4826 8.8699 17.3427 8.9526C17.2345 9.01621 17.12 9.09467 17.0903 9.12647C17.0509 9.16849 17.007 9.28338 16.9398 9.28338C16.9122 9.28338 16.8762 9.26854 16.8592 9.25158C16.8316 9.21977 16.8401 9.20493 16.9567 9.09679C17.0288 9.02893 17.173 8.92079 17.2812 8.85506C17.3872 8.78932 17.489 8.73843 17.5059 8.74479ZM14.5402 8.19136C14.5699 8.19136 14.6123 8.20832 14.6313 8.22953C14.6504 8.25073 14.7777 8.49458 14.9134 8.77024C15.1084 9.17524 15.1657 9.27702 15.206 9.2855C15.2314 9.28974 15.4922 9.33003 15.7827 9.37244C16.0754 9.41485 16.3298 9.45726 16.351 9.46786C16.375 9.48058 16.3871 9.51168 16.3871 9.56116C16.3871 9.62901 16.3553 9.66506 15.963 10.0425C15.5898 10.4009 15.5389 10.4581 15.5495 10.5048C15.5559 10.5323 15.5983 10.7783 15.6449 11.0497C15.6916 11.3211 15.7297 11.5713 15.7297 11.6074C15.7297 11.6498 15.7156 11.6781 15.6873 11.6922C15.664 11.7028 15.6279 11.7134 15.6089 11.7134C15.5877 11.7134 15.3438 11.5947 15.0682 11.4483C14.7904 11.302 14.5571 11.1833 14.5487 11.1833C14.538 11.1833 14.3048 11.302 14.0291 11.4483C13.7514 11.5925 13.5033 11.7134 13.4778 11.7134C13.4503 11.7134 13.41 11.6943 13.3442 11.6265L13.552 10.4517L13.1237 10.0383C12.7972 9.72019 12.6975 9.61205 12.6975 9.57176C12.6975 9.54208 12.7124 9.50179 12.7336 9.4827C12.7611 9.45726 12.9159 9.42757 13.3124 9.37032C13.6093 9.32791 13.8701 9.28974 13.8913 9.28338C13.9146 9.27702 14.0207 9.0883 14.1839 8.75964C14.326 8.47762 14.4511 8.23377 14.4617 8.21893C14.4744 8.20408 14.5084 8.19348 14.5402 8.19136ZM11.8197 8.5382C12.0097 8.5382 12.1938 8.75439 12.3985 8.77145C12.5279 8.78205 12.5279 8.78205 12.5342 8.84991C12.5385 8.90504 12.53 8.91988 12.5024 8.91988C12.4812 8.91988 12.4113 8.90504 12.3476 8.88807C12.274 8.86842 11.7751 8.69702 11.7751 8.61666C11.7751 8.59442 11.791 8.5382 11.8197 8.5382ZM17.6713 9.69743C17.7362 9.75586 17.407 9.90698 17.3851 9.91584C17.341 9.93459 17.1465 10.0492 17.1179 9.95401C17.0824 9.8689 17.275 9.82816 17.3215 9.82042C17.3851 9.8077 17.4847 9.77165 17.5441 9.73772C17.6098 9.69955 17.6565 9.68471 17.6713 9.69743ZM12.1271 9.58448C12.1441 9.62053 12.1441 9.6375 12.125 9.65446C12.0132 9.7476 11.6366 9.68868 11.5058 9.67778C11.3256 9.66506 11.3192 9.66294 11.3192 9.61205C11.3192 9.56964 11.3298 9.55904 11.368 9.55904C11.5458 9.55904 11.7521 9.63606 11.9236 9.57176C11.9843 9.54966 12.0887 9.50774 12.1271 9.58448ZM17.5908 10.227C17.6501 10.2249 17.6586 10.2312 17.6544 10.2715C17.648 10.316 17.6268 10.3224 17.4148 10.3584C17.2225 10.3905 17.0876 10.4268 16.9398 10.5535C16.9144 10.5293 16.8507 10.4852 16.8507 10.4475C16.8507 10.3904 17.0864 10.3251 17.1285 10.3118C17.2707 10.2669 17.4411 10.227 17.5908 10.227ZM12.4325 10.227C12.4325 10.2461 12.4028 10.2651 12.3582 10.2736C12.0389 10.3408 11.7071 10.3769 11.3828 10.4093C11.3259 10.4157 10.8534 10.5006 10.8379 10.3924C10.8337 10.3669 10.857 10.3457 10.9121 10.3224C11.1662 10.208 11.5462 10.2417 11.8175 10.2185C11.8623 10.2147 12.4325 10.1477 12.4325 10.227ZM17.2409 10.8087C17.3598 10.8087 17.4704 10.8464 17.5908 10.8257C17.6544 10.8129 17.7053 10.8129 17.718 10.8257C17.7307 10.8384 17.7159 10.8596 17.6756 10.8829C17.5799 10.9453 17.2068 10.9884 17.1179 10.9084C17.1031 10.8935 17.0903 10.8723 17.0882 10.8638C17.0784 10.8248 17.2214 10.8087 17.2409 10.8087ZM17.0331 11.2384C17.23 11.2384 17.4259 11.2741 17.6183 11.3126C17.6549 11.3248 17.6725 11.399 17.6332 11.4187C17.6226 11.4229 17.5187 11.4081 17.4063 11.3847C17.2418 11.3487 17.0998 11.3573 16.9355 11.3699C16.8783 11.3787 16.8387 11.3286 16.855 11.2745C16.8677 11.2448 16.8953 11.2384 17.0331 11.2384ZM6.48889 11.4886C6.43307 11.5359 6.26953 11.8362 6.29381 11.9763C6.3335 12.016 6.54828 11.9052 6.70306 11.9466C6.84661 11.9851 7.01824 12.1573 7.02324 12.1523C7.12837 12.0472 7.10136 11.6761 7.05293 11.5862C6.99046 11.4612 6.86589 11.3953 6.7285 11.3953C6.63044 11.3953 6.55829 11.4192 6.48889 11.4886ZM30.5155 11.7452C30.4777 11.9817 30.702 12.0843 30.8972 11.9975C31.0598 11.9115 31.2006 11.7196 31.1198 11.531C31.0539 11.3897 30.8502 11.3967 30.7339 11.4632C30.6309 11.5269 30.5379 11.6218 30.5155 11.7452ZM31.2937 11.6222C31.2937 11.6842 31.3718 11.6965 31.4124 11.6752C31.4665 11.6461 31.4959 11.5862 31.4591 11.531C31.4442 11.5141 31.423 11.4992 31.4146 11.4992C31.3765 11.5088 31.3014 11.5835 31.2937 11.6222ZM30.9332 14.1879C30.8526 14.7562 30.7339 15.5959 30.6682 16.0539C30.621 16.3941 30.6455 16.8994 30.3777 17.1671C30.281 17.2638 30.1567 17.33 30.0214 17.3516C29.9068 17.3673 29.9209 17.4367 29.9112 17.534C30.1016 17.4983 30.2774 17.4482 30.4243 17.3156C30.5428 17.209 30.6345 17.0738 30.6766 16.9191C30.6873 16.8724 30.7233 16.618 30.753 16.3571C30.7827 16.0942 30.8632 15.3733 30.9332 14.7562C31.0011 14.137 31.0689 13.52 31.0838 13.3822C31.0986 13.2443 31.1029 13.1256 31.0944 13.1171C31.088 13.1086 31.0816 13.1129 31.0816 13.1277C31.0816 13.1426 31.0159 13.6197 30.9332 14.1879ZM0.717081 19.7922H28.5583V15.2333H0.717081V19.7922ZM29.5337 16.2978C29.5465 16.3487 29.5655 16.7261 29.5783 17.1417C29.591 17.5552 29.608 17.9453 29.6164 18.0111C29.6292 18.1192 29.6313 18.1129 29.6461 17.8945C29.6546 17.7651 29.6716 17.394 29.6843 17.0675C29.695 16.7928 29.7616 16.4403 29.6419 16.1769C29.5909 16.0647 29.5077 15.9614 29.3959 15.9055C29.3042 15.8596 29.1991 15.8516 29.099 15.8376C29.2984 15.9453 29.4823 16.0611 29.5337 16.2978ZM12.0571 10.8737C12.0571 10.9829 11.6572 11.1046 11.5694 11.1578C11.5287 11.1826 11.368 11.2991 11.368 11.1833C11.368 11.1451 11.385 11.1239 11.4274 11.107C11.5761 11.0375 11.7352 10.9793 11.8663 10.8779C11.9077 10.8465 12.0571 10.7635 12.0571 10.8737ZM12.2794 11.3126C12.3218 11.3423 12.3218 11.3423 12.2772 11.4038C12.1921 11.5173 11.7577 11.9596 11.6581 11.8533C11.6263 11.8215 11.6263 11.8131 11.6538 11.7813C11.6708 11.7622 11.7662 11.6943 11.8638 11.6286C11.9803 11.5475 12.0791 11.4766 12.1458 11.3508C12.1835 11.2867 12.2159 11.2723 12.2794 11.3126ZM13.3012 12.2462C13.3097 12.2462 13.3246 12.2589 13.3309 12.2738C13.3373 12.2865 13.2779 12.3989 13.1973 12.5219C13.0583 12.7399 12.9157 12.9739 12.7415 13.1665C12.6906 13.2259 12.6609 13.2471 12.6354 13.2365C12.6057 13.2259 12.5994 13.2047 12.6079 13.1538C12.6302 13.0196 12.7454 12.8958 12.8305 12.7975C12.9134 12.6981 13.1537 12.2462 13.3012 12.2462ZM13.767 12.2038C13.7839 12.2038 13.7967 12.2187 13.7967 12.2356C13.7967 12.5856 13.654 12.9907 13.5698 13.3276C13.5295 13.4973 13.4828 13.6606 13.4659 13.6945C13.4489 13.7263 13.4213 13.7517 13.4044 13.7517C13.3811 13.7517 13.3726 13.7284 13.3726 13.6627C13.3726 13.3956 13.4841 13.1145 13.5507 12.8611C13.6164 12.6109 13.6843 12.3607 13.7034 12.3056C13.7224 12.2462 13.7479 12.2038 13.767 12.2038ZM16.2577 12.0357C16.3875 12.0357 16.6473 12.5561 16.7073 12.6506C16.7772 12.7609 16.8514 12.8839 16.8705 12.922C16.8896 12.9581 16.9044 13.0047 16.9044 13.0217C16.9044 13.0944 16.7882 13.0214 16.7687 13.0069C16.5961 12.8666 16.4975 12.5874 16.3871 12.4025C16.298 12.2477 16.2259 12.1014 16.2259 12.0781C16.2259 12.0548 16.2408 12.0357 16.2577 12.0357ZM14.3939 12.2923C14.4129 12.2965 14.4363 12.3389 14.4532 12.4025C14.4809 12.5098 14.533 13.0934 14.4214 13.1086C14.3163 13.1178 14.4048 12.5601 14.3408 12.4555C14.3239 12.4259 14.309 12.3813 14.3048 12.3559C14.3005 12.304 14.35 12.2868 14.3939 12.2923ZM15.6449 12.4555C15.7945 12.4555 15.8887 12.8369 15.9227 12.939C15.9651 13.0577 15.999 13.1701 15.999 13.1871C15.999 13.2062 15.9799 13.2189 15.946 13.2189C15.838 13.2189 15.7768 12.838 15.7319 12.7482C15.6977 12.6773 15.6209 12.6396 15.5919 12.5743C15.5919 12.5743 15.5981 12.4555 15.6449 12.4555ZM15.1063 12.5764C15.1339 12.5807 15.1572 12.604 15.1657 12.6358C15.1742 12.6655 15.1827 12.7482 15.1827 12.8224C15.184 12.8671 15.266 13.1463 15.2335 13.1723C15.2251 13.1829 15.1975 13.1638 15.1721 13.1298C15.0982 13.0291 15.0876 12.9163 15.0682 12.7948C15.0594 12.7409 14.9985 12.5568 15.1063 12.5764ZM3.72809 15.9352C4.14481 16.0368 4.53598 16.4188 4.53598 16.866C4.53598 17.296 4.23769 17.6724 3.81291 17.7715C3.68531 17.797 2.91756 17.7833 2.8884 17.8902C2.81259 18.1934 3.3451 18.0425 3.47152 18.1531C3.56387 18.2191 3.5555 18.8935 3.46304 18.9568C3.42699 18.9822 3.25736 18.9865 1.3214 18.9759C1.33969 18.7016 1.33613 18.3925 1.40834 18.1277C1.43036 18.0341 1.80215 18.0517 1.88968 17.9729C2.00826 17.8622 1.95851 16.9711 1.86211 16.8554C1.75868 16.7692 1.49986 16.8918 1.41046 16.8024C1.33664 16.7286 1.39192 16.0232 1.44227 15.9225C1.64092 15.6245 3.36381 15.8376 3.72809 15.9352ZM2.90537 17.305C3.00769 17.4073 3.57966 17.3285 3.57966 17.1205C3.57966 16.8897 3.0216 16.7496 2.90112 16.8979C2.85584 16.9507 2.85625 17.2559 2.90537 17.305ZM4.7671 15.8694C4.79679 15.8694 5.02686 15.9326 5.19119 15.914C5.72614 15.8522 6.2773 15.9374 6.81332 15.9543C7.35647 15.9713 7.97195 16.0705 8.00712 16.7388C8.01788 16.8859 8.00704 17.0605 7.91594 17.1841C7.65164 17.5428 7.61613 17.519 7.80992 17.9793C7.89821 18.189 8.16619 18.0348 8.27854 18.1659C8.41561 18.3029 8.39949 18.891 8.40364 19.0819C7.94868 19.0819 7.28328 19.204 7.04657 18.7108C6.93303 18.4908 6.9898 18.2165 6.8939 17.9899C6.83877 17.8646 6.41835 17.6296 6.29805 17.7609C6.25655 17.8024 6.24953 18.0219 6.29169 18.0641C6.37195 18.1604 6.61368 18.0528 6.71578 18.1489C6.84324 18.2764 6.80126 18.9648 6.67549 19.0119C6.37216 19.1333 5.15506 19.0034 4.79891 19.0352C4.69842 18.9766 4.70904 18.2901 4.77771 18.1871C4.8709 18.0473 5.14037 18.2087 5.26328 18.0917C5.40157 17.9594 5.38466 17.0913 5.25056 16.9572C5.23572 16.9445 5.12334 16.9254 4.77983 16.8979C4.75208 16.7889 4.5664 15.8694 4.7671 15.8694ZM6.58007 17.2392C6.67863 17.2303 6.83453 17.2154 6.90662 17.1353C6.96725 17.0646 6.88631 16.9785 6.82392 16.9424C6.68243 16.8638 6.47938 16.8893 6.32138 16.883C6.17817 17.1058 6.30841 17.2722 6.58007 17.2392ZM17.0868 15.9331C17.5036 16.0422 17.8947 16.4108 17.8947 16.8639C17.8947 17.0966 17.844 17.3057 17.672 17.4682C17.3334 17.7969 16.9047 17.8393 16.4507 17.8393C16.3238 17.8393 16.1078 17.9274 16.3128 18.0556C16.4632 18.1487 16.6897 18.0559 16.8324 18.151C16.9226 18.2205 16.9145 18.8912 16.8218 18.9547C16.7857 18.9801 16.6182 18.9844 14.6801 18.9738C14.7075 18.6999 14.6945 18.3915 14.7671 18.1256C14.7972 18.0049 15.1411 18.0674 15.2484 17.9708C15.3608 17.8659 15.3205 16.953 15.2208 16.8533C15.1168 16.7667 14.8594 16.8905 14.7692 16.8003C14.7053 16.7364 14.7481 16.0028 14.8031 15.9203C14.9433 15.6399 16.7547 15.85 17.0868 15.9331ZM16.2662 17.305C16.3678 17.4066 16.9384 17.3245 16.9384 17.1184C16.9384 16.8827 16.3903 16.756 16.2598 16.8957C16.216 16.9505 16.2163 17.255 16.2662 17.305ZM10.1424 15.8928C10.8646 15.8503 11.4095 16.5983 11.5101 17.235C11.6129 17.7746 11.3915 18.2497 11.0224 18.6345C10.2874 19.4082 9.12246 18.9743 8.6899 18.1362C8.15785 17.0721 9.00595 15.8928 10.1424 15.8928ZM9.63985 17.9644C10.0946 18.5405 10.8436 17.7641 10.541 17.1926C10.4305 16.9715 10.2001 16.9006 9.9664 16.9275C9.48271 16.9862 9.35923 17.6277 9.63985 17.9644ZM13.7217 15.8843C13.834 15.8901 14.2319 15.8475 14.3027 15.9182C14.4481 15.9909 14.2735 16.8778 14.3621 17.0548C14.3684 17.0738 14.3557 17.1141 14.2878 17.2032L13.7323 17.1926C13.6217 17.0235 13.5077 16.8697 13.3018 16.8109C13.164 16.7701 12.5242 16.8484 12.8205 17.0823C13.1142 17.3369 13.6392 17.2609 13.991 17.3665C14.6209 17.529 14.6142 18.2949 14.1861 18.7108C13.8951 19.0018 13.1866 19.2316 12.8141 18.9928C12.7675 18.961 12.6784 18.8847 12.4961 18.7108C12.478 18.8115 12.4747 18.9531 12.4134 19.0374C12.3178 19.1697 11.7348 19.199 11.7348 18.9504C11.7511 18.609 11.6875 18.0741 11.8218 17.7609C11.8405 17.6766 12.4127 17.7576 12.4537 17.7609C12.5371 17.9068 12.6256 18.1258 12.8141 18.1468C13.1108 18.1872 13.8013 17.9958 13.2276 17.8478C12.837 17.7436 12.0998 17.6179 11.8769 17.2308C11.6609 16.8552 11.8977 16.3427 12.2013 16.0942C12.5682 15.8051 13.1781 15.8769 13.5202 16.1769C13.6644 16.3041 13.675 16.3105 13.6878 16.266C13.718 16.1348 13.6657 16.0149 13.7217 15.8843ZM23.147 15.9034C23.3258 15.9123 23.4895 15.9708 23.6305 16.0815C23.7365 16.1642 23.7386 16.1642 23.7534 16.1175C23.7598 16.0921 23.7704 16.0327 23.7789 15.9012C24.0021 15.8891 24.2235 15.8992 24.4468 15.9118C24.5713 16.3225 24.499 16.8434 24.521 17.2626C24.375 17.3324 23.7961 17.4428 23.7068 17.2753C23.5748 17.0112 23.5486 16.7789 23.164 16.8046C22.8081 16.8319 22.5967 17.1282 22.5914 17.4704C22.5914 17.822 22.825 18.0847 23.1682 18.1362C23.4653 18.1839 23.6776 18.0031 23.7195 17.71C23.7344 17.6082 23.7428 17.5976 23.8001 17.5849C23.9733 17.5416 24.3521 17.5181 24.4892 17.64C24.6827 17.8549 24.4145 18.3792 24.2793 18.5475C23.9175 18.9884 23.4818 19.0849 22.9095 19.0246C21.9731 18.9406 21.4154 17.7594 21.7199 16.9403C21.9651 16.2983 22.4118 15.8666 23.147 15.9034ZM27.8416 15.9267C27.8713 15.9606 27.8777 16.0624 27.9031 17.3537L27.8289 17.3855C27.7233 17.4302 27.1754 17.4809 27.1504 17.3707C27.1326 17.2553 27.1639 17.0492 27.0762 16.9615C26.9572 16.8504 26.794 16.9069 26.756 17.0463C26.6961 17.3097 26.6982 17.7044 26.7539 17.9687C26.8105 18.2359 27.3196 17.9372 27.4133 18.1129C27.521 18.3068 27.4764 18.7501 27.4578 18.9653C26.9565 18.9713 25.6688 19.0246 25.2208 18.9632C25.1378 18.8846 25.1265 18.1322 25.2102 18.1065C25.371 18.0462 25.6047 18.2027 25.7403 18.0726C25.8733 17.9498 25.8877 17.2163 25.8103 17.042C25.778 16.9345 25.649 16.9011 25.5537 16.9487C25.524 16.9636 25.5134 17.0102 25.5007 17.182C25.4858 17.3898 25.4837 17.3962 25.4265 17.4195C25.3024 17.466 24.8871 17.4866 24.7903 17.3898C24.7606 17.358 24.7522 17.2986 24.7416 17.0293C24.7274 16.7364 24.6838 16.3336 24.784 16.0497C24.8052 15.9903 24.8137 15.9861 24.96 15.9712C25.3342 15.9244 27.4515 15.8376 27.8416 15.9267ZM21.2704 15.9712C21.3503 16.0511 21.2689 17.2089 21.1877 17.2647C21.1602 17.2838 21.052 17.2901 20.5028 17.2901V17.2053C20.5028 17.1587 20.4922 17.0738 20.4816 17.0145C20.4668 16.9381 20.4434 16.8957 20.401 16.8639C20.2163 16.8092 19.7812 16.7986 19.6059 16.8512C19.5357 16.8824 19.5461 16.9989 19.5613 17.0569C19.5825 17.144 19.7291 17.1773 19.7988 17.1163C19.8386 17.0765 19.8168 17.0097 19.8349 16.9615C19.8591 16.8888 20.2407 16.9098 20.2929 16.9657C20.3205 16.9975 20.3268 17.0738 20.3332 17.8839C20.2453 17.8823 19.8792 17.9224 19.8455 17.8414C19.7642 17.6789 19.7968 17.6188 19.5804 17.6188C19.5756 17.7164 19.5502 17.8446 19.5953 17.9347C19.6491 18.0578 19.8219 18.0344 19.9303 18.0344C20.0723 18.0344 20.4204 18.0596 20.5389 17.9581C20.6281 17.8986 20.5744 17.6546 20.6364 17.5615C20.7309 17.3936 21.1376 17.4726 21.2768 17.4704C21.2873 17.7608 21.5169 18.7909 21.3446 18.9632C21.3255 18.9844 21.2831 18.9886 21.1708 18.978C20.5825 18.9327 19.0503 18.9568 18.2678 18.9632C17.9224 18.966 17.9822 18.1283 18.111 18.0768C18.2469 18.0245 18.5897 18.0832 18.6623 17.9199C18.7173 17.7962 18.6852 16.9102 18.5308 16.8639C18.4425 16.8387 18.1391 16.8984 18.1152 16.7982C18.0794 16.643 18.04 16.1277 18.1491 16.0094C18.3041 15.8305 19.1974 15.9695 19.4426 15.9564C19.7792 15.9382 21.0417 15.7425 21.2704 15.9712ZM11.7815 23.8974C11.9139 23.9585 12.0077 24.0908 12.0338 24.2345C12.0453 24.3186 12.0201 24.5309 11.9787 24.6395C11.9277 24.6735 11.6954 24.5756 11.65 24.5632C11.6682 24.4693 11.7285 24.3195 11.6839 24.2303C11.6374 24.1294 11.4772 24.1109 11.4168 24.2091C11.2454 24.4661 11.1856 24.9212 11.1199 25.2205C11.0955 25.3232 11.0525 25.471 11.1729 25.528C11.3345 25.6088 11.4097 25.484 11.4507 25.3435C11.474 25.2587 11.4974 25.1718 11.5037 25.1527C11.5184 25.0841 11.3582 25.1135 11.3277 25.0679C11.3076 25.0209 11.3472 24.8702 11.3828 24.8346C11.4052 24.8048 11.8895 24.9128 11.9087 24.9512C11.9816 25.0242 11.7447 25.7753 11.7073 25.897C11.6924 25.9394 11.6818 25.9436 11.6182 25.9309C11.5147 25.9154 11.4882 25.8473 11.491 25.7506C11.3273 25.8497 11.1645 25.8743 10.9821 25.7909C10.8141 25.7168 10.7379 25.5921 10.7298 25.4135C10.7191 25.0785 10.877 24.7274 10.98 24.4148C11.1035 24.0309 11.3492 23.6887 11.7815 23.8974ZM18.0431 24.2176C18.0728 24.3024 18.0898 24.3766 18.0855 24.3809C18.0589 24.4075 17.7911 24.4935 17.7675 24.4699C17.6507 24.3921 17.7497 24.1391 17.5279 24.1391C17.4517 24.1391 17.3837 24.2323 17.3837 24.3045C17.443 24.7269 17.506 25.4053 17.7823 25.5513C17.8589 25.6001 17.9731 25.5203 17.9922 25.4389C18.0063 25.3827 17.9676 25.0509 17.8947 25.0509C17.8756 25.0509 17.8311 25.0615 17.7251 25.0933C17.7033 25.018 17.6593 24.9277 17.6593 24.8495C17.6593 24.8069 18.1699 24.6461 18.1873 24.701C18.2883 25.0191 18.4092 25.3489 18.4778 25.6234C18.4863 25.6467 18.4608 25.6658 18.393 25.687C18.2976 25.7188 18.2976 25.7188 18.2022 25.6001L18.1576 25.6807C18.0289 25.9014 17.622 25.9465 17.443 25.7676C17.2627 25.5873 17.2328 25.2507 17.1822 25.0191C17.097 24.6287 16.8852 23.9838 17.443 23.8444C17.7234 23.7776 17.9575 23.9501 18.0431 24.2176ZM16.7285 24.0395C16.768 24.3045 17.0542 25.6774 17.0974 25.9585C17.1186 26.0431 16.8732 26.0464 16.8133 26.0602C16.6807 26.0879 16.1711 25.0039 16.139 25.0361C16.0683 25.0714 16.262 25.9696 16.262 26.0963C16.262 26.1535 16.2598 26.1535 16.0966 26.1663C16.0075 26.1726 15.9312 26.1747 15.9269 26.1705C15.9248 26.1663 15.876 25.721 15.8188 25.1781C15.7615 24.6353 15.7149 24.19 15.717 24.19C15.7191 24.1879 16.0393 24.154 16.0393 24.154C16.0393 24.154 16.5568 25.2266 16.5949 25.1506C16.5991 25.1484 16.5631 24.9131 16.5164 24.6268C16.4698 24.3406 16.4358 24.1031 16.4422 24.0967C16.4507 24.0904 16.51 24.0755 16.5758 24.0628C16.5841 24.0612 16.7285 24.0275 16.7285 24.0395ZM13.0516 24.1667C13.1313 24.326 13.2692 26.137 13.2022 26.1705C13.2001 26.1747 13.1131 26.1726 12.8269 26.1535C12.8239 26.0014 12.8131 25.851 12.7951 25.6998C12.7419 25.6913 12.4947 25.6231 12.4643 25.6637C12.4064 25.7071 12.3074 26.0832 12.3074 26.0687C12.1998 26.0472 12.0776 26.0051 11.9681 26.0051C11.8441 26.0051 12.5936 24.267 12.6487 24.12C12.6674 24.0734 13.0356 24.1265 13.0516 24.1667ZM12.5766 25.3626C12.6057 25.3917 12.7403 25.3847 12.7845 25.3902C12.7845 24.8473 12.7802 24.6904 12.7781 24.6904C12.7506 24.6904 12.5651 25.3568 12.5766 25.3626ZM14.0228 24.2939C14.0291 24.3194 14.0737 24.5653 14.1203 24.8389C14.1691 25.1124 14.2157 25.3478 14.2221 25.3584C14.2285 25.3711 14.2412 25.352 14.2475 25.316C14.3321 24.9778 14.3857 24.6321 14.4702 24.2939C14.4787 24.2473 14.4893 24.2451 14.9049 24.2451C14.9049 24.6179 14.96 25.9309 14.96 26.232C14.9579 26.2362 14.8773 26.2447 14.6059 26.2702L14.6038 24.9979L14.5338 25.2948C14.4956 25.458 14.4257 25.74 14.2963 26.2489C14.2508 26.2455 14.1494 26.2547 14.1161 26.2214C14.1076 26.2129 14.044 25.9309 13.8531 24.9767L13.815 25.6022C13.7959 25.9457 13.7768 26.2277 13.7747 26.2299C13.7726 26.2299 13.6941 26.2235 13.4312 26.2065C13.451 25.8598 13.4875 25.5136 13.516 25.1675C13.5563 24.6777 13.5881 24.2621 13.5839 24.2451C13.5806 24.2239 14.0228 24.2303 14.0228 24.2939ZM15.4604 24.207C15.5523 24.184 15.5607 25.2419 15.6258 26.1535C15.6258 26.2282 15.3096 26.2678 15.2654 26.2235C15.1593 25.8694 15.1626 24.5874 15.1593 24.2239C15.2555 24.2196 15.3673 24.2303 15.4604 24.207Z" fill="#EFE6D2"/>
</svg>
