<svg width="542" height="542" viewBox="0 0 542 542" fill="none" xmlns="http://www.w3.org/2000/svg">
    <path d="M330.614 455.025C332.681 452.032 333.973 448.514 334.372 444.907C334.731 441.644 334.811 438.381 338.402 436.976C344.306 434.663 350.45 437.862 354.99 441.556C357.311 443.439 366.32 454.53 366.32 454.53C364.157 423.5 333 395.311 285.119 392.662C280.077 392.383 275.664 392.247 270.949 392.255C266.233 392.247 261.821 392.383 256.778 392.662C208.898 395.303 177.74 423.5 175.578 454.53C175.578 454.53 184.586 443.439 186.908 441.556C191.448 437.87 197.592 434.663 203.496 436.976C207.086 438.381 207.166 441.644 207.525 444.907C207.924 448.522 209.217 452.032 211.283 455.025C216.302 462.293 225.198 464.807 233.289 467.033C241.339 469.243 250.371 470.176 258.406 467.352C261.478 466.275 264.374 464.599 266.64 462.237C267.701 461.128 269.824 458.735 270.949 458.735C272.074 458.735 274.196 461.128 275.257 462.237C277.523 464.599 280.42 466.267 283.492 467.352C291.518 470.168 300.558 469.243 308.609 467.033C316.699 464.807 325.604 462.293 330.614 455.025Z"
          fill="#F14F55"/>
    <path d="M498.6 263.988C498.6 264.012 496.518 292.504 495.233 307.72C491.962 346.377 483.839 384.732 455.65 412.873C446.634 421.873 433.405 423.868 433.405 423.868C442.461 405.03 452.754 386.662 460.23 367.218C467.706 347.79 472.454 327.316 478.358 307.281C478.358 307.281 458.531 314.382 454.158 315.491C454.462 311.686 474.704 236.286 474.712 236.246C473.69 237.411 440.171 308.949 438.919 311.701C438.352 312.938 438.663 314.406 439.701 315.284C453.743 327.109 449.06 348.699 443.108 355.721C434.546 365.822 424.038 375.277 417.192 391.314C414.4 397.857 409.23 416.83 409.23 416.838C407.897 416.352 405.871 374.758 418.549 356.646C424.94 347.518 424.98 322.752 415.844 318.085C406.413 313.257 405.089 308.087 411.392 299.119C411.296 298.919 411.28 298.872 411.184 298.672C382.118 296.007 391.405 266.47 369.447 265.353C375.216 261.236 382.126 262.648 388.229 265.991C394.421 269.382 394.102 269.494 397.972 275.119C399.847 277.847 407.57 282.994 411.049 283.776C438.608 289.967 435.887 262.073 435.887 262.065C421.98 261.275 410.235 255.714 409.341 246.315C417.272 245.685 426.887 247.592 432.584 243.722C437.802 240.179 441.632 230.469 441.64 223.36C432.108 227.658 425.014 227.879 420.36 224.022C442.134 201.833 461.012 147.394 460.27 129.625C468.823 136.854 470.459 143.317 472.502 147.721C487.39 141.673 498.736 139.782 496.63 118.918L480.145 127.399C481.111 124.886 482.236 122.412 483.512 120.051C485.643 116.093 488.954 113.516 491.97 110.276C498.233 103.558 505.087 94.7737 507.943 86.0608C509.834 80.2841 511.015 74.2841 511.733 68.2521C512.475 62.0526 513.401 55.1828 512.459 48.9753C510.864 38.3794 502.733 28.1985 489.895 30.2809C483.058 31.39 476.978 34.765 470.73 37.4459C463.741 40.4539 456.648 43.3024 449.499 45.9433C442.414 48.5604 435.185 50.6748 428.036 53.0365C420.177 55.6296 383.753 58.1988 375.727 59.1403L406.549 64.0473C408.751 64.3983 411.001 64.2627 413.147 63.6563C420.304 61.6137 437.291 56.8424 443.882 55.4142C451.573 53.7466 472.382 50.0125 479.483 60.4488C475.127 69.3851 460.262 75.4889 458.794 77.7469C458.722 77.8586 458.642 77.9703 458.571 78.082C470.315 74.8426 475.549 77.4517 475.549 77.4517C466.829 85.59 462.512 93.3534 457.238 104.476C451.166 117.298 448.342 134.987 442.884 148.032C438.025 159.633 431.842 170.7 424.557 180.953C416.817 191.844 407.738 199.575 397.277 205.639C407.227 194.932 416.913 180.41 422.482 169.894C440.451 135.96 441.536 98.6912 444.36 87.0581C436.134 90.6486 418.916 88.6858 418.9 88.6858C418.916 88.6858 446.858 75.7841 454.924 71.5633C450.656 69.1138 446.834 67.7255 443.14 67.3425C424.804 65.4595 417.895 71.2282 406.038 72.9197C399.95 73.7894 356.649 58.9648 347.817 56.994C347.817 56.994 348.104 57.0179 348.607 57.0498C341.41 55.3823 334.205 53.7626 326.976 52.2626C326.019 52.0631 325.061 51.8556 324.104 51.6482C317.649 50.6828 311.178 49.8051 304.683 49.1109C296.058 48.1934 280.164 47.4354 273.726 47.1561C271.843 47.0763 269.975 47.0763 268.1 47.1561C261.67 47.4354 245.768 48.1934 237.143 49.1109C230.648 49.7971 224.177 50.6828 217.722 51.6482C216.765 51.8636 215.807 52.0711 214.85 52.2626C207.613 53.7626 200.408 55.3743 193.219 57.0498C193.714 57.0179 194.009 56.994 194.009 56.994C185.177 58.9648 141.876 73.7894 135.788 72.9197C123.931 71.2282 117.022 65.4515 98.6864 67.3425C95.0002 67.7255 91.1704 69.1058 86.9017 71.5633C94.9683 75.7841 122.926 88.6858 122.926 88.6858C122.926 88.6858 105.7 90.6486 97.4657 87.0581C100.29 98.6833 101.375 135.96 119.344 169.894C124.913 180.41 134.599 194.932 144.549 205.639C134.088 199.567 125.009 191.844 117.269 180.953C109.984 170.7 103.801 159.641 98.9417 148.032C93.4763 134.987 90.6597 117.298 84.5879 104.476C79.3219 93.3534 74.9973 85.5821 66.2765 77.4517C66.2765 77.4517 71.5106 74.8346 83.2554 78.082C83.1836 77.9703 83.1038 77.8586 83.032 77.7469C81.5719 75.4968 66.7074 69.3851 62.3429 60.4488C69.4441 50.0125 90.2448 53.7466 97.9444 55.4142C104.527 56.8424 121.522 61.6217 128.679 63.6563C130.825 64.2707 133.075 64.3983 135.277 64.0473L166.099 59.1403C158.073 58.1988 121.641 55.6296 113.79 53.0365C106.641 50.6748 99.4125 48.5604 92.3273 45.9433C85.1783 43.3024 78.0851 40.4459 71.0957 37.4459C64.8962 34.765 58.8163 31.39 51.9705 30.273C39.1406 28.1905 31.0102 38.3715 29.4144 48.9673C28.4809 55.1748 29.3985 62.0446 30.1405 68.2441C30.8666 74.2761 32.0394 80.2682 33.9304 86.0528C36.7868 94.7736 43.6406 103.55 49.904 110.268C52.92 113.508 56.2312 116.085 58.3615 120.043C59.6381 122.412 60.7631 124.878 61.7286 127.391L45.2444 118.91C43.138 139.774 54.4838 141.673 69.3723 147.713C71.4069 143.309 73.0505 136.846 81.6038 129.617C80.8618 147.386 99.7396 201.825 121.514 224.014C116.859 227.876 109.766 227.655 100.234 223.352C100.234 230.461 104.072 240.171 109.29 243.714C114.987 247.584 124.602 245.677 132.533 246.307C131.639 255.706 119.894 261.259 105.987 262.057C105.987 262.057 103.266 289.959 130.825 283.768C134.304 282.986 142.027 277.839 143.902 275.111C147.772 269.486 147.453 269.374 153.644 265.983C159.748 262.648 166.658 261.228 172.427 265.345C150.469 266.462 159.756 295.999 130.689 298.664C130.594 298.864 130.578 298.911 130.482 299.111C136.785 308.079 135.461 313.249 126.03 318.077C116.894 322.752 116.934 347.51 123.325 356.638C136.011 374.75 133.977 416.344 132.644 416.83C132.644 416.83 127.474 397.849 124.681 391.306C117.836 375.277 107.327 365.822 98.7662 355.713C92.814 348.691 88.1305 327.101 102.173 315.276C103.21 314.398 103.522 312.938 102.955 311.694C101.702 308.941 68.1755 237.395 67.1622 236.238C67.1622 236.238 87.4203 311.678 87.7156 315.483C83.3432 314.366 63.5158 307.273 63.5158 307.273C69.4202 327.308 74.1675 347.782 81.6437 367.21C89.1278 386.654 99.4125 405.022 108.468 423.86C108.468 423.86 95.2396 421.873 86.2235 412.865C58.0344 384.724 49.912 346.361 46.6407 307.712C45.3561 292.489 43.2736 263.98 43.2736 263.98C39.4996 278.374 34.9437 288.962 32.7176 303.443C29.4144 324.922 26.7335 332.67 31.8799 362.08C32.3506 364.761 34.5049 373.418 36.0129 375.771C55.1939 405.756 96.2449 464.966 96.2449 464.966L98.4151 446.112C100.705 451.195 127.737 511.068 127.737 511.068C127.737 496.802 120.461 457.714 135.812 451.035C140.862 448.841 147.964 454.123 148.067 460.953C148.179 468.708 148.131 486.054 148.131 486.054C159.493 479.687 163.993 476.264 169.658 473.735C178.419 469.826 195.549 466.299 213.861 471.094C213.661 470.951 213.406 470.775 213.103 470.583C201.222 462.78 186.589 460.299 172.786 463.674C170.153 464.32 167.575 464.887 165.102 465.23C162.309 465.621 160.027 463.036 160.809 460.323C163.53 450.876 168.828 432.389 170.703 425.144C173.432 414.596 172.091 404.599 170.823 393.955C167.727 383.83 161.727 375.644 150.118 373.37C146.081 372.58 145.339 367.25 144.748 363.971C143.767 358.481 142.945 353.04 142.737 347.455C142.259 334.521 144.469 321.148 149.894 309.244C152.615 303.268 156.15 297.659 160.482 292.72C165.022 287.542 170.336 284.135 175.762 280.074C176.089 279.826 176.4 279.547 176.703 279.276C181.363 275.167 181.283 270.898 181.483 265.137C181.865 253.895 190.586 249.523 200.759 247.249C198.501 249.052 196.219 251.358 194.608 254.198C193.339 256.424 193.347 267.347 193.156 270.124C192.382 280.959 190.73 283.927 174.206 288.707C188.56 300.348 199.219 308.981 212.121 319.441C191.344 324.428 182.496 309.228 169.658 300.834C170.687 325.505 194.847 327.412 207.501 339.835C206.839 341.056 184.044 338.51 165.708 332.095C173.807 349.21 188.057 346.282 199.898 350.838C194.456 356.175 183.014 355.569 174.804 357.101C171.876 357.643 169.474 356.87 166.65 357.979C168.541 360.827 169.825 364.593 172.451 366.356C179.232 370.904 186.318 375.293 193.866 378.277C197.775 379.825 203.305 379.362 207.43 377.91C224.002 372.053 240.39 365.67 258.071 358.92C262.435 357.253 265.372 353.112 265.499 348.436C265.675 341.941 265.834 334.8 264.901 327.803C264.414 324.148 259.356 319.569 255.406 318.172C237.31 311.757 217.77 298.465 212.201 286.241C207.996 277.01 209.376 249.906 209.257 245.773C209.177 242.948 207.613 231.842 202.467 223.264C199.586 218.956 194.911 215.692 191.823 213.865C185.999 210.418 179.36 208.36 172.897 206.333C145.155 197.652 132.884 178.687 123.237 159.33C120.947 154.742 117.979 145.607 115.945 138.107C114.844 134.053 117.405 129.928 121.522 129.114C123.237 133.71 123.915 137.037 126.189 141.944C129.971 150.107 135.365 154.75 145.698 154.822C168.716 154.982 190.882 158.843 203.472 182.692C206.44 188.317 210.174 193.998 214.634 199.049C207.541 193.655 203.305 185.756 193.299 175.966C180.222 163.176 163.969 162.219 155.535 162.139C143.599 162.019 137.495 159.115 137.495 159.115C141.565 166.671 148.514 167.54 160.163 168.993C161.607 169.176 163.107 169.495 164.655 169.942C161.52 176.708 161.95 185.046 167.089 190.767C172.187 196.448 180.98 198.267 187.387 193.671C189.541 192.123 191.241 190.104 192.294 187.767C195.166 190.479 198.031 193.424 200.847 196.591C214.794 212.286 233.105 212.868 233.105 212.868C233.105 212.868 230.552 199.272 229.052 192.307C239.752 187.942 234.238 181.328 228.542 175.184C220.77 166.822 212.903 158.556 204.677 149.827C212.975 147.458 219.063 143.253 223.14 139.623C223.14 139.623 203.735 143.748 185.903 142.407C183.278 142.208 179.775 140.388 178.107 138.354L178.044 138.274C191.137 135.896 210.733 128.117 217.267 124.311C194.344 110.253 166.291 117.593 147.357 108.673C163.347 107.795 175.594 106.199 192.062 101.771C206.065 98.0051 233.361 86.8427 233.073 85.2469H174.006C192.581 76.8772 208.985 64.8132 230.48 65.2441C239.345 65.4196 251.321 67.0952 261.893 68.1484C266.864 68.6431 275.002 68.6431 279.973 68.1484C290.545 67.0952 302.513 65.4196 311.385 65.2441C332.88 64.8132 349.285 76.8772 367.859 85.2469H308.792C308.497 86.8427 335.801 98.0051 349.803 101.771C366.272 106.199 378.519 107.795 394.509 108.673C375.575 117.601 347.522 110.261 324.598 124.311C331.133 128.117 350.721 135.904 363.822 138.274L363.758 138.354C362.091 140.388 358.58 142.208 355.963 142.407C338.138 143.756 318.734 139.631 318.726 139.623C322.803 143.245 328.883 147.458 337.189 149.827C328.963 158.556 321.096 166.822 313.324 175.184C307.619 181.32 302.114 187.942 312.814 192.307C311.314 199.264 308.76 212.868 308.76 212.868C308.76 212.868 327.072 212.286 341.019 196.591C343.835 193.424 346.7 190.479 349.572 187.767C350.625 190.104 352.325 192.123 354.479 193.671C360.886 198.267 369.679 196.448 374.777 190.767C379.915 185.046 380.346 176.708 377.211 169.942C378.759 169.487 380.259 169.168 381.703 168.993C393.352 167.54 400.301 166.671 404.371 159.115C404.371 159.115 398.259 162.019 386.33 162.139C377.897 162.226 361.644 163.184 348.567 175.966C338.561 185.756 334.325 193.655 327.231 199.049C331.692 194.006 335.426 188.325 338.394 182.7C350.984 158.859 373.157 154.99 396.168 154.83C406.501 154.758 411.895 150.107 415.676 141.952C417.95 137.045 418.629 133.718 420.344 129.122C424.062 127.886 427.685 131.237 426.727 135.043C424.74 142.934 421.238 154.104 418.629 159.346C408.982 178.703 396.719 197.668 368.969 206.349C362.506 208.368 355.867 210.434 350.043 213.881C346.955 215.708 342.279 218.972 339.399 223.28C334.253 231.858 332.689 242.964 332.609 245.789C332.489 249.93 333.87 277.026 329.665 286.257C324.096 298.481 304.556 311.773 286.46 318.188C282.51 319.585 277.452 324.164 276.965 327.819C276.031 334.816 276.191 341.957 276.367 348.452C276.494 353.127 279.422 357.268 283.795 358.936C301.476 365.686 317.864 372.069 334.436 377.926C338.561 379.386 344.091 379.84 348 378.293C355.548 375.309 362.633 370.92 369.415 366.372C372.04 364.609 373.325 360.843 375.216 357.995C372.391 356.885 369.998 357.667 367.062 357.117C358.851 355.585 347.41 356.191 341.968 350.854C353.809 346.298 368.051 349.226 376.157 332.111C357.822 338.526 335.027 341.064 334.364 339.851C347.019 327.428 371.187 325.513 372.208 300.85C359.37 309.244 350.522 324.444 329.745 319.457C342.646 308.997 353.306 300.356 367.66 288.723C351.144 283.943 349.484 280.983 348.71 270.14C348.511 267.363 348.519 256.448 347.258 254.214C345.646 251.382 343.365 249.076 341.107 247.265C351.288 249.539 360 253.911 360.383 265.153C360.583 270.906 360.503 275.182 365.163 279.292C365.466 279.563 365.777 279.842 366.104 280.089C371.53 284.159 376.844 287.558 381.384 292.736C385.716 297.675 389.251 303.292 391.971 309.26C397.389 321.164 399.599 334.545 399.128 347.47C398.921 353.056 398.099 358.497 397.118 363.987C396.535 367.266 395.785 372.596 391.748 373.386C380.139 375.66 374.139 383.846 371.043 393.971C369.774 404.615 368.442 414.604 371.163 425.16C373.038 432.397 378.328 450.884 381.056 460.331C381.838 463.044 379.556 465.621 376.764 465.238C374.29 464.895 371.713 464.32 369.072 463.674C355.261 460.291 340.612 462.78 328.731 470.599C328.444 470.791 328.205 470.951 328.005 471.094C346.317 466.299 363.447 469.826 372.208 473.735C377.873 476.264 382.373 479.687 393.735 486.054C393.735 486.054 393.687 468.708 393.799 460.953C393.902 454.123 401.003 448.841 406.054 451.035C421.405 457.706 414.129 496.794 414.129 511.06C414.129 511.06 441.161 451.179 443.451 446.104L445.621 464.958C445.629 464.942 486.68 405.748 505.853 375.763C507.361 373.402 509.515 364.753 509.986 362.072C515.132 332.67 512.451 324.914 509.148 303.435C506.922 288.954 502.358 278.366 498.592 263.972L498.6 263.988Z"
          fill="#F14F55"/>
    <path d="M319.39 272.247C319.39 265.09 312.664 261.778 312.664 261.778C311.675 274.145 299.244 279.459 271.174 279.93C243.105 279.459 230.227 274.145 229.238 261.778C229.238 261.778 222.512 265.09 222.512 272.247C222.512 279.404 230.044 281.151 232.565 281.845C239.538 283.768 249.927 288.444 270.712 288.444C291.497 288.444 302.372 283.76 309.345 281.845C311.858 281.151 319.398 279.611 319.398 272.247H319.39Z"
          fill="#F14F55"/>
</svg>
