<svg width="542" height="542" viewBox="0 0 542 542" fill="none" xmlns="http://www.w3.org/2000/svg">
    <g clip-path="url(#clip0_200_119)">
        <path d="M0 100C0 44.7715 44.7715 0 100 0H442C497.228 0 542 44.7715 542 100V442C542 497.228 497.228 542 442 542H100C44.7715 542 0 497.228 0 442V100Z"
              fill="#EEEEEE"/>
        <path d="M331 271C331 304.137 304.137 331 271 331C237.863 331 211 304.137 211 271C211 237.863 237.863 211 271 211C304.137 211 331 237.863 331 271Z"
              fill="#393939"/>
        <path d="M187 130C187 163.137 160.137 190 127 190C93.8629 190 67 163.137 67 130C67 96.8629 93.8629 70 127 70C160.137 70 187 96.8629 187 130Z"
              fill="#393939"/>
        <path d="M476 130C476 163.137 449.137 190 416 190C382.863 190 356 163.137 356 130C356 96.8629 382.863 70 416 70C449.137 70 476 96.8629 476 130Z"
              fill="#393939"/>
        <path d="M187 412C187 445.137 160.137 472 127 472C93.8629 472 67 445.137 67 412C67 378.863 93.8629 352 127 352C160.137 352 187 378.863 187 412Z"
              fill="#393939"/>
        <path d="M476 412C476 445.137 449.137 472 416 472C382.863 472 356 445.137 356 412C356 378.863 382.863 352 416 352C449.137 352 476 378.863 476 412Z"
              fill="#393939"/>
    </g>
    <defs>
        <clipPath id="clip0_200_119">
            <rect width="542" height="542" fill="white"/>
        </clipPath>
    </defs>
</svg>
