<svg width="542" height="542" viewBox="0 0 542 542" fill="none" xmlns="http://www.w3.org/2000/svg">
    <g clip-path="url(#clip0_200_513)">
        <path d="M0 100C0 44.7715 44.7715 0 100 0H442C497.228 0 542 44.7715 542 100V442C542 497.228 497.228 542 442 542H100C44.7715 542 0 497.228 0 442V100Z"
              fill="#EF5B24"/>
        <path d="M542.584 467.182H31.0275C30.5782 466.957 30.1421 466.706 29.6796 466.515C24.7572 464.453 19.2931 463.178 15.0182 460.198C5.26595 453.379 0 443.739 0 431.529C0.0132144 313.67 0.00660721 195.817 0.00660721 77.9577C0.00660721 76.6891 0.00660721 75.4206 0.00660721 74C1.56591 74 2.6561 74 3.74629 74C172.382 74 341.018 74 509.654 74.0529C512.059 74.0529 514.57 74.5484 516.849 75.3347C534.9 81.5586 542.67 92.5597 542.67 111.628C542.67 228.496 542.67 345.365 542.67 462.233C542.67 463.878 542.617 465.53 542.584 467.175V467.182ZM271.219 345.272C329.845 345.272 388.478 345.18 447.103 345.325C465.392 345.371 482.749 330.294 482.617 309.725C482.313 261.136 482.254 212.54 482.643 163.951C482.809 143.085 465.465 127.895 446.852 127.908C329.819 128.014 212.779 127.941 95.7451 127.981C74.9588 127.988 59.7556 143.31 59.7424 164.03C59.716 212.514 59.7226 260.991 59.7688 309.474C59.7688 312.203 59.9472 314.998 60.5287 317.654C64.1098 333.967 78.302 345.233 95.3354 345.246C153.961 345.279 212.594 345.259 271.219 345.259V345.272ZM271.279 386.072C207.262 386.072 143.238 386.072 79.2204 386.072C77.7933 386.072 76.3595 386.025 74.9324 386.098C64.9819 386.627 57.6743 396.339 59.9274 406.026C61.7972 414.093 68.4044 418.817 77.9122 418.817C206.944 418.817 335.977 418.817 465.002 418.804C466.753 418.804 468.53 418.698 470.255 418.401C479.452 416.802 485.478 406.818 482.69 397.899C480.371 390.466 474.219 386.078 465.987 386.078C401.084 386.072 336.188 386.078 271.285 386.072H271.279Z"
              fill="#EF5B24"/>
        <path d="M271.212 345.273C212.586 345.273 153.954 345.292 95.3283 345.259C78.2949 345.246 64.096 333.981 60.5215 317.668C59.9401 315.012 59.7683 312.217 59.7617 309.488C59.7154 261.004 59.7154 212.527 59.7352 164.044C59.7485 143.323 74.9516 128.001 95.7379 127.995C212.771 127.948 329.812 128.028 446.845 127.922C465.458 127.902 482.808 143.099 482.636 163.964C482.246 212.554 482.306 261.15 482.61 309.739C482.742 330.307 465.378 345.378 447.096 345.339C388.47 345.193 329.838 345.286 271.212 345.286V345.273ZM316.67 311.781V159.736H220.627V311.781H316.67ZM93.247 311.688H189.23V159.729H93.247V311.695V311.688ZM444.803 159.808H348.675V311.734H444.803V159.808Z"
              fill="#FEFDFD"/>
        <path d="M271.278 386.072C336.181 386.072 401.077 386.072 465.979 386.072C474.205 386.072 480.357 390.459 482.682 397.892C485.471 406.819 479.452 416.795 470.248 418.394C468.523 418.692 466.746 418.797 464.995 418.797C335.963 418.817 206.931 418.817 77.905 418.811C68.3972 418.811 61.7966 414.086 59.9202 406.019C57.6737 396.333 64.9747 386.62 74.9251 386.092C76.3523 386.019 77.7861 386.065 79.2132 386.065C143.23 386.065 207.254 386.065 271.272 386.065L271.278 386.072Z"
              fill="#FEFCFC"/>
        <path d="M316.671 311.78H220.629V159.735H316.671V311.78ZM272.502 224.136C271.485 225.854 270.903 226.878 270.282 227.882C264.904 236.557 259.466 245.2 254.16 253.921C250.692 259.623 253.493 266.085 259.744 267.109C263.318 267.697 266.404 265.959 268.756 261.843C276.163 248.886 283.424 235.844 290.976 222.973C293.11 219.332 292.542 216.286 290.394 213.221C287.963 209.752 284.494 208.047 280.252 208.041C271.346 208.021 262.433 207.981 253.526 208.08C251.94 208.1 250.223 208.503 248.809 209.217C245.531 210.875 244.032 214.648 244.93 218.17C245.783 221.526 248.888 224.037 252.74 224.103C259.096 224.215 265.459 224.136 272.509 224.136H272.502Z"
              fill="#EF5B24"/>
        <path d="M93.2461 311.688V159.729H189.229V311.694H93.2461V311.688ZM144.419 224.122C143.368 225.913 142.747 227.036 142.073 228.126C136.94 236.432 131.779 244.73 126.665 253.049C125.925 254.251 125.172 255.52 124.815 256.861C123.765 260.825 125.998 265.061 129.731 266.547C133.834 268.186 137.924 266.693 140.355 262.444C147.881 249.309 155.228 236.068 162.886 223.006C165.007 219.392 164.544 216.385 162.377 213.273C159.86 209.666 156.305 208.021 151.945 208.014C143.15 208.014 134.35 207.961 125.555 208.06C123.963 208.08 122.239 208.45 120.825 209.15C117.481 210.815 115.995 214.449 116.847 218.07C117.633 221.407 120.772 224.003 124.597 224.076C130.96 224.195 137.329 224.109 144.426 224.109L144.419 224.122Z"
              fill="#EF5B24"/>
        <path d="M444.804 159.808V311.734H348.676V159.808H444.804ZM401.507 224.142C400.879 225.179 400.608 225.635 400.331 226.085C394.675 235.222 389.039 244.367 383.35 253.485C381.837 255.909 380.899 258.407 381.884 261.248C383.066 264.671 385.478 266.798 389.092 267.122C392.865 267.459 395.567 265.602 397.417 262.345C404.87 249.183 412.217 235.962 419.902 222.94C422.069 219.266 421.461 216.306 419.34 213.26C416.842 209.679 413.274 208.02 408.901 208.027C400.225 208.04 391.543 208.007 382.868 208.04C377.351 208.06 373.598 211.357 373.578 216.101C373.565 220.878 377.245 224.109 382.842 224.142C388.874 224.175 394.913 224.149 401.5 224.149L401.507 224.142Z"
              fill="#EF5B24"/>
        <path d="M272.495 224.136C265.446 224.136 259.083 224.222 252.727 224.103C248.881 224.037 245.776 221.526 244.917 218.169C244.018 214.641 245.518 210.875 248.795 209.217C250.209 208.503 251.927 208.1 253.513 208.08C262.419 207.974 271.326 208.014 280.239 208.04C284.481 208.054 287.95 209.752 290.381 213.221C292.528 216.293 293.097 219.339 290.963 222.973C283.41 235.844 276.149 248.886 268.742 261.843C266.39 265.953 263.305 267.69 259.73 267.109C253.48 266.085 250.678 259.616 254.147 253.921C259.459 245.199 264.89 236.564 270.269 227.882C270.89 226.878 271.471 225.854 272.489 224.136H272.495Z"
              fill="#FEFCFC"/>
        <path d="M144.42 224.129C137.33 224.129 130.961 224.215 124.592 224.096C120.766 224.024 117.621 221.427 116.841 218.09C115.989 214.47 117.476 210.836 120.819 209.171C122.233 208.464 123.957 208.1 125.55 208.08C134.344 207.981 143.145 208.027 151.939 208.034C156.293 208.034 159.854 209.679 162.372 213.293C164.539 216.405 165.001 219.412 162.88 223.026C155.223 236.088 147.875 249.323 140.35 262.464C137.918 266.706 133.835 268.206 129.725 266.567C125.992 265.081 123.759 260.846 124.81 256.881C125.167 255.54 125.92 254.271 126.66 253.069C131.774 244.744 136.934 236.452 142.068 228.146C142.742 227.056 143.369 225.933 144.413 224.142L144.42 224.129Z"
              fill="#FEFCFC"/>
        <path d="M401.504 224.142C394.91 224.142 388.878 224.169 382.845 224.136C377.249 224.102 373.562 220.872 373.582 216.095C373.595 211.351 377.355 208.054 382.872 208.034C391.547 208.007 400.229 208.034 408.904 208.021C413.272 208.014 416.846 209.672 419.344 213.253C421.465 216.299 422.072 219.259 419.905 222.933C412.221 235.956 404.874 249.177 397.421 262.338C395.578 265.596 392.875 267.452 389.096 267.115C385.482 266.792 383.07 264.664 381.887 261.242C380.903 258.394 381.841 255.903 383.354 253.478C389.043 244.36 394.679 235.216 400.335 226.078C400.612 225.629 400.883 225.173 401.511 224.136L401.504 224.142Z"
              fill="#FEFCFC"/>
    </g>
    <defs>
        <clipPath id="clip0_200_513">
            <rect width="542" height="542" fill="white"/>
        </clipPath>
    </defs>
</svg>
