<svg width="542" height="542" viewBox="0 0 542 542" fill="none" xmlns="http://www.w3.org/2000/svg">
    <g clip-path="url(#clip0_200_117)">
        <path d="M322.827 451.937C303.979 461.852 285.465 472.475 266.214 481.545C209.582 508.245 150.287 526.837 88.6431 537.932C81.3319 539.248 74.0404 540.644 66.739 542H63.8008C69.0778 532.301 74.1779 522.503 79.681 512.932C87.2182 499.813 95.1583 486.92 102.745 473.831C116.07 450.866 129.307 427.851 142.494 404.807C148.145 394.921 153.559 384.908 159.092 374.943C164.831 376.545 170.55 379.238 176.338 379.424C182.165 379.611 188.081 377.302 193.967 376.093C195.048 376.791 196.11 377.547 197.24 378.196C229.54 396.975 261.871 415.705 294.142 434.543C303.792 440.184 313.275 446.129 322.827 451.937Z"
              fill="#D3202B"/>
        <path d="M159.091 374.944C153.558 384.908 148.144 394.922 142.493 404.807C129.305 427.851 116.069 450.866 102.743 473.831C95.1572 486.921 87.2171 499.813 79.6799 512.932C74.1768 522.504 69.0767 532.301 63.7997 542H62.817C49.3739 507.763 38.2007 472.799 30.0051 436.922C29.6808 435.507 29.4941 434.052 29.2485 432.617C26.4085 418.801 22.7234 405.102 20.8956 391.158C17.4857 364.979 15.1469 338.673 12.3561 312.415C11.9041 298.707 11.452 284.998 11 271.29C25.4455 279.515 39.8811 287.73 54.3069 295.995C54.9653 296.378 55.4174 297.135 55.9677 297.724C56.7342 297.97 57.5694 298.088 58.2573 298.481C80.6036 311.354 102.92 324.296 125.306 337.1C131.33 340.55 137.56 343.616 143.702 346.859C143.702 348.205 143.24 349.807 143.8 350.868C147.77 358.356 151.937 365.746 156.044 373.165C157.056 373.755 158.078 374.354 159.091 374.944Z"
              fill="#AF1D22"/>
        <path d="M323.884 90.5544C323.834 90.9672 323.785 91.3799 323.736 91.7926C321.329 92.6672 318.724 93.2273 316.523 94.4753C292.791 107.977 269.109 121.578 245.446 135.188C234.872 141.271 224.318 147.383 213.833 153.613C207.17 157.574 200.635 161.779 194.051 165.867C182.573 161.622 171.145 160.207 159.834 166.388C157.898 163.421 155.903 160.492 154.036 157.495C149.762 150.636 145.546 143.737 141.31 136.859C138.982 132.417 136.81 127.887 134.304 123.543C124.339 106.209 114.247 88.9527 104.253 71.6377C94.5838 54.8928 84.9142 38.1478 75.3723 21.3243C71.3826 14.3079 67.7073 7.11464 63.8945 0C115.653 7.29152 166.025 20.1352 214.845 38.7571C250.418 52.3182 285.156 67.7954 318.184 86.8988C320.13 88.0289 321.987 89.3359 323.884 90.5544Z"
              fill="#9B1C20"/>
        <path d="M143.26 324.817C143.269 332.168 143.545 339.508 143.702 346.859C137.56 343.616 131.33 340.55 125.306 337.101C102.92 324.296 80.6036 311.354 58.2573 298.481C57.5695 298.088 56.7342 297.97 55.9677 297.725C55.4174 297.135 54.9653 296.378 54.3069 295.995C39.8811 287.731 25.4455 279.516 11 271.29C11 270.622 11 269.964 11.0098 269.296C17.4955 266.023 24.1385 262.997 30.467 259.41C49.5704 248.561 68.5559 237.486 87.6003 226.5C104.66 216.653 121.729 206.797 138.818 196.999C140.351 196.115 142.09 195.584 143.741 194.896C143.574 199.132 143.269 203.377 143.26 207.612C143.22 246.684 143.22 285.746 143.26 324.817Z"
              fill="#E61C31"/>
        <path d="M324.735 450.866C324.096 451.229 323.467 451.583 322.828 451.937C313.277 446.129 303.794 440.184 294.144 434.543C261.872 415.705 229.542 396.975 197.241 378.196C196.111 377.548 195.05 376.791 193.969 376.093C212.05 365.696 230.191 355.418 248.193 344.903C273.399 330.182 298.507 315.294 323.654 300.476C323.998 331.941 324.351 363.417 324.695 394.882C324.705 413.543 324.725 432.205 324.735 450.866Z"
              fill="#E61C31"/>
        <path d="M159.839 166.388C149.993 173.355 145.482 183.34 143.743 194.896C142.092 195.584 140.353 196.114 138.82 196.999C121.731 206.796 104.662 216.653 87.6022 226.499C68.5578 237.486 49.5723 248.56 30.4689 259.409C24.1404 262.996 17.4974 266.023 11.0117 269.295C11.6603 251.528 11.7193 233.722 13.1147 216.014C14.6378 196.684 16.6229 177.326 19.8264 158.222C23.423 136.76 28.6116 115.574 33.1025 94.2592C33.358 93.0308 33.4956 91.773 33.6921 90.525C40.227 62.882 49.0023 35.9466 59.2714 9.49274C60.5489 6.2204 62.3472 3.16425 63.8998 0C67.7127 7.11464 71.3879 14.3079 75.3776 21.3243C84.9195 38.1478 94.5891 54.8928 104.259 71.6377C114.253 88.9527 124.345 106.209 134.309 123.543C136.815 127.887 138.987 132.417 141.316 136.859C145.551 143.737 149.767 150.636 154.042 157.495C155.909 160.492 157.904 163.421 159.839 166.388Z"
              fill="#CF1E2A"/>
        <path d="M531.776 270.327C468.108 270.337 404.44 270.337 340.781 270.347C339.671 266.17 338.963 261.827 337.381 257.837C334.453 250.447 328.498 245.406 322.582 240.434C322.965 238.213 323.614 235.992 323.673 233.761C324.086 218.078 324.42 202.384 324.665 186.701C324.695 184.814 324.066 182.927 323.742 181.04C323.751 170.585 323.771 160.129 323.781 149.673C323.771 130.373 323.761 111.083 323.742 91.7929C323.791 91.3801 323.84 90.9674 323.889 90.5547C338.954 99.9 354.195 108.941 368.994 118.679C378.87 125.185 388.098 132.663 397.63 139.699C398.504 140.338 399.457 140.868 400.371 141.458C411.201 150.272 422.177 158.92 432.81 167.971C443.885 177.404 454.989 186.858 465.425 196.979C487.496 218.392 508.673 240.66 527.747 264.834C529.152 266.613 530.43 268.489 531.776 270.327Z"
              fill="#E31C30"/>
        <path d="M531.775 270.327C531.166 271.664 530.793 273.187 529.908 274.297C508.869 300.731 486.503 326.045 461.405 348.627C438.97 368.822 415.248 387.581 392.077 406.95C390.711 408.08 389.109 408.925 387.625 409.908C369.652 421.916 351.698 433.954 333.676 445.894C330.846 447.78 327.721 449.225 324.733 450.866C324.723 432.205 324.704 413.544 324.694 394.882C324.35 363.417 323.996 331.942 323.652 300.476C333.273 292.664 340.23 283.328 340.781 270.347C404.439 270.337 468.107 270.337 531.775 270.327Z"
              fill="#BF1F26"/>
        <path d="M340.78 270.347C340.229 283.328 333.272 292.663 323.651 300.476C298.505 315.295 273.397 330.182 248.191 344.903C230.188 355.418 212.048 365.697 193.967 376.093C188.08 377.302 182.164 379.611 176.337 379.425C170.549 379.238 164.83 376.545 159.091 374.944C158.079 374.354 157.057 373.755 156.045 373.165C151.937 365.746 147.77 358.356 143.8 350.868C143.24 349.807 143.712 348.205 143.702 346.858C143.545 339.508 143.27 332.167 143.26 324.817C143.221 285.745 143.221 246.684 143.26 207.612C143.27 203.377 143.574 199.131 143.741 194.896C145.481 183.34 149.991 173.356 159.838 166.388C171.149 160.207 182.577 161.622 194.055 165.868C199.312 168.649 204.57 171.43 209.827 174.211C212.225 175.468 214.691 176.638 217.02 178.014C237.617 190.209 258.185 202.463 278.782 214.658C293.365 223.286 307.978 231.845 322.58 240.434C328.496 245.406 334.451 250.447 337.38 257.837C338.962 261.827 339.669 266.17 340.78 270.347Z"
              fill="#FEFDFD"/>
        <path d="M324.663 186.701C324.418 202.384 324.084 218.078 323.671 233.762C323.612 235.992 322.963 238.213 322.58 240.434C307.977 231.845 293.365 223.286 278.782 214.658C258.185 202.463 237.617 190.209 217.02 178.014C214.691 176.638 212.225 175.469 209.827 174.211C204.569 171.43 199.312 168.649 194.055 165.868C200.639 161.78 207.174 157.574 213.836 153.614C224.321 147.383 234.875 141.271 245.449 135.188C269.112 121.578 292.795 107.978 316.527 94.4757C318.728 93.2277 321.332 92.6676 323.74 91.793C323.759 111.083 323.769 130.373 323.779 149.673C323.769 160.129 323.749 170.585 323.74 181.04C324.064 182.927 324.693 184.814 324.663 186.701Z"
              fill="#C41F28"/>
    </g>
    <defs>
        <clipPath id="clip0_200_117">
            <rect width="542" height="542" fill="white"/>
        </clipPath>
    </defs>
</svg>
