<svg width="32" height="32" viewBox="0 0 32 32" fill="none" xmlns="http://www.w3.org/2000/svg">
<path d="M0 5.90406C0 2.64334 2.64333 0 5.90405 0H26.0959C29.3566 0 32 2.64334 32 5.90406V26.0959C32 29.3566 29.3566 32 26.0959 32H5.90405C2.64333 32 0 29.3566 0 26.0959V5.90406Z" fill="#C09A5D"/>
<path d="M17.6002 14.4105C17.8915 13.5151 18.9326 9.71386 18.9326 9.71386C18.9326 9.71386 19.5367 13.2237 19.8281 13.6122C19.7309 13.9987 17.6002 14.4105 17.6002 14.4105ZM22.895 17.4095C23.7108 16.4208 26.2475 15.9042 26.2048 15.4749C26.162 15.0437 22.5939 16.5491 22.5939 16.5491C22.5939 16.5491 22.2113 15.7546 21.7878 14.2454C22.4094 14.1658 23.3029 14.0298 23.2408 13.9016C23.1728 13.7676 22.2793 13.6802 21.6325 13.6627C21.0867 11.5222 20.5428 8.24352 20.7021 3.99361L18.7675 2.68057C18.7675 2.68057 18.3246 9.4963 15.9666 14.9583C14.8964 15.9857 13.6067 16.4208 13.6067 16.4208C13.6067 16.4208 13.2629 15.0864 12.6607 14.529C12.0586 13.9696 8.57593 11.3027 8.53319 8.93884C8.49044 6.57308 10.8971 5.62713 11.1981 5.75728C11.4992 5.88547 9.77629 7.88803 9.90647 8.24157C10.1434 8.88057 11.4351 7.8395 12.4801 6.95378C13.5251 6.07 15.1333 4.62294 14.168 3.0943C13.2026 1.5676 9.42476 4.43841 8.13892 5.73591C6.85112 7.03537 5.4837 8.64364 5.88576 10.2519C6.28782 11.8602 8.05927 13.7113 9.0926 14.6999C10.124 15.6886 11.4992 16.8074 11.1554 17.3221C10.8116 17.8388 9.8113 17.6232 10.1395 18.0971C10.4678 18.5691 11.4623 19.2606 9.26352 20.2046C6.38299 21.0825 10.3396 19.2587 9.95111 18.6993C9.56457 18.1398 8.01653 18.6138 6.81228 19.6879C5.60995 20.762 4.83495 21.6652 6.16743 22.3101C7.50181 22.955 10.2095 22.2674 12.1887 19.6025C14.1661 16.9356 15.2829 16.7647 15.2829 16.7647C15.2829 16.7647 13.9077 18.6565 14.4244 19.0003C14.9391 19.3441 16.2288 18.9906 17.0893 15.9857C18.2936 14.6572 20.0145 14.529 20.0145 14.529C20.0145 14.529 20.7448 16.9783 20.873 17.4949C19.1113 19.0858 17.6914 19.8161 17.7769 21.8381C17.8643 23.8582 23.4971 29.291 24.4431 29.291C25.389 29.291 26.4632 28.5451 26.4632 27.7293C26.4632 26.9135 23.1533 19.8608 22.895 17.4095ZM18.7131 21.7779C18.8607 20.5212 20.199 18.7362 21.1314 18.3302C22.0248 21.0475 23.2408 26.4415 24.0118 27.3739C24.783 28.3081 18.5674 23.0346 18.7131 21.7779Z" fill="white"/>
<path d="M25.1813 13.3048C26.1991 13.3592 27.4345 14.1847 25.7038 14.4081C23.9732 14.6314 24.3034 13.2563 25.1813 13.3048Z" fill="white"/>
</svg>
