<svg width="32" height="32" viewBox="0 0 32 32" fill="none" xmlns="http://www.w3.org/2000/svg">
<g clip-path="url(#clip0_20702_1076)">
<path d="M17.7129 9.19291C25.3496 6.92487 31.2924 12.5806 31.7518 21.2509C32.8715 13.528 30.0292 7.61389 26.6128 4.77166C25.0051 4.5994 23.1103 4.54198 21.5025 4.39844C20.6412 5.40327 18.5742 8.18808 17.7129 9.19291Z" fill="#A31E22"/>
<path d="M30.8906 11.2444C27.4167 4.32545 21.0433 7.45477 17.7704 9.57927C10.7079 14.2302 7.03308 4.03835 15.3875 1.39709C20.3255 -0.153222 29.0819 4.23932 30.8906 11.2444Z" fill="#EC1C24"/>
<path d="M20.9 21.1172C19.2062 28.8113 11.3398 31.1942 3.41602 27.4046C9.70337 32.1129 16.3352 32.5148 20.4981 30.9645C21.4168 29.6439 22.3929 28.0362 23.3116 26.7155C22.8523 25.481 21.3881 22.3517 20.9 21.1172Z" fill="#659941"/>
<path d="M12.7168 31.508C20.5545 31.8525 20.8703 24.8474 20.5545 21.0004C19.8654 12.6459 30.6889 14.3972 28.9663 22.8952C27.9328 27.9193 19.808 33.3454 12.7168 31.508Z" fill="#A6CE38"/>
<path d="M8.6146 18.0971C2.90143 12.5849 5.02592 4.71851 12.4904 0.125C5.08334 2.8811 1.23628 8.22106 0.375 12.5275C1.00661 13.9916 1.8966 15.6568 2.5282 17.121C3.82013 17.4081 7.29396 17.81 8.6146 18.0971Z" fill="#116D98"/>
<path d="M4.0485 5.71875C-0.43017 12.0922 5.45526 16.0541 8.90038 17.8341C16.451 21.6812 9.18748 29.806 2.81399 23.8918C-0.946939 20.3606 -1.32016 10.6568 4.0485 5.71875Z" fill="#28ABE2"/>
</g>
<defs>
<clipPath id="clip0_20702_1076">
<rect width="32" height="32" fill="white"/>
</clipPath>
</defs>
</svg>
