<svg width="32" height="32" viewBox="0 0 32 32" fill="none" xmlns="http://www.w3.org/2000/svg">
<g clip-path="url(#clip0_20702_543)">
<path d="M28.7327 7.32859C28.7327 7.00697 28.5696 6.72556 28.3237 6.56007L18.1032 0.442412C17.0864 -0.148773 15.8331 -0.148773 14.8163 0.442412L3.62396 6.67593C2.60712 7.26708 1.98047 8.36199 1.98047 9.54436V14.4961C1.98047 15.9434 2.77502 17.2795 4.06143 18.0031C4.06143 18.0031 11.5458 21.6282 14.0832 22.7468C14.4568 22.9123 14.8778 22.988 15.3128 22.988C17.0651 22.988 18.4864 21.6046 18.4864 19.8996C18.4864 18.5706 17.5924 17.4876 16.4125 17.0028L11.709 15.0566C10.5172 14.5813 9.67767 13.4415 9.67767 12.1125L9.68239 11.8264C9.74151 10.4666 10.4084 9.01937 11.4276 8.25324C11.4276 8.25324 13.3147 6.65463 16.2446 6.65463V6.65224C19.3613 6.65224 22.4945 8.80418 23.3719 9.44742C23.6154 9.62711 23.9182 9.78317 24.2043 9.88018C25.0863 10.1805 26.0842 10.1356 26.926 9.70514C26.9592 9.68862 28.1274 9.07378 28.6618 7.68332C28.7091 7.5745 28.7327 7.45393 28.7327 7.32859Z" fill="#ED1A3C"/>
<path d="M13.2533 11.465C13.2533 12.8626 14.1614 14.0048 15.3603 14.5132L20.0756 16.5493C21.2833 17.0479 22.1368 18.2459 22.1376 19.6449C22.1368 21.134 21.4394 22.7619 20.3546 23.6081C20.3546 23.6081 18.4368 25.2917 15.462 25.2917C12.5676 25.2917 9.79108 23.4907 8.49843 22.6522C8.36112 22.5632 8.24055 22.4849 8.13836 22.4209C7.63467 22.1041 7.04353 21.9149 6.4121 21.851C4.80194 21.689 3.31051 22.4591 2.46755 23.7263C2.37352 23.8622 2.31641 24.0298 2.31641 24.211C2.31641 24.5326 2.49613 24.8141 2.76098 24.956L13.8965 31.5536C14.9134 32.1448 16.1667 32.1448 17.1835 31.5536L28.3758 25.3201C29.3927 24.7289 30.0193 23.6341 30.0193 22.4517V17.1499C30.0193 15.6293 29.2129 14.2224 27.9052 13.4609C27.9052 13.4609 20.3026 9.64656 17.725 8.4689C17.3467 8.29624 16.9186 8.21582 16.4765 8.21582C14.6958 8.21582 13.2533 9.67018 13.2533 11.465Z" fill="#ED1A3C"/>
<path d="M17.1855 31.5581C16.1686 32.1493 14.9153 32.1493 13.8985 31.5581L2.76293 24.9605C2.49809 24.8186 2.31836 24.5372 2.31836 24.2156C2.31836 24.0311 2.37748 23.8609 2.47444 23.7237L2.45079 23.7592C3.29027 22.4751 4.79188 21.6924 6.4141 21.8556C7.04546 21.9194 7.63667 22.1086 8.14037 22.4255C9.20448 23.0923 12.2621 25.2963 15.4639 25.2963C18.4388 25.2963 20.3566 23.6126 20.3566 23.6126C21.442 22.766 22.1396 21.1367 22.1396 19.6469V19.6516C22.1396 18.2517 21.2859 17.0527 20.0775 16.5538L15.3552 14.5154C14.1562 14.0069 13.2482 12.8647 13.2482 11.4672C13.2482 10.5638 13.6124 9.74801 14.2035 9.15918C13.7187 9.65107 13.4184 10.3345 13.4184 11.0817C13.4184 12.2476 14.1491 13.2431 15.1731 13.6286L21.87 16.1849C24.4168 17.1473 26.2306 19.6232 26.2306 22.5272C26.2306 25.0764 24.8306 27.2992 22.7638 28.4532L17.1855 31.5581Z" fill="url(#paint0_linear_20702_543)"/>
<path d="M28.6342 7.74899C28.0287 8.7469 26.9386 9.41376 25.6947 9.41376C24.9026 9.41376 24.1742 9.13945 23.5925 8.68545C21.3673 6.9757 18.3783 5.63965 15.3301 5.63965H15.323C10.8679 5.63965 7.13867 9.84652 7.13867 14.3372C7.13867 16.981 8.76799 19.9701 10.8017 21.2328L10.8041 21.2352C12.1165 21.8548 13.3201 22.4152 14.0792 22.7486C14.4528 22.9142 14.8737 22.9899 15.3088 22.9899C17.0611 22.9899 18.4823 21.6088 18.4823 19.9015C18.4823 18.8232 17.9124 17.9056 17.0611 17.3381C16.9949 17.2979 16.9287 17.2577 16.8648 17.2198C16.7254 17.1395 16.5811 17.0709 16.4321 17.007L15.2096 16.5057L11.7073 15.049C10.5156 14.5737 9.67604 13.4433 9.67604 12.112L9.68076 11.8258C9.73988 10.4661 10.4091 9.01888 11.4259 8.25269C11.4259 8.25269 13.313 6.65414 16.2429 6.65414V6.65175C16.7301 6.65175 17.2172 6.70377 17.6972 6.79601C20.2866 7.2855 22.6395 8.90535 23.3797 9.44926C23.6232 9.62901 23.9259 9.78269 24.2121 9.88202C24.3752 9.93875 24.5432 9.98135 24.7134 10.0145C25.4559 10.1516 26.241 10.0546 26.9221 9.70705C26.9528 9.69517 28.0903 9.09692 28.6342 7.74899Z" fill="url(#paint1_linear_20702_543)"/>
</g>
<defs>
<linearGradient id="paint0_linear_20702_543" x1="16.9612" y1="12.6009" x2="8.32489" y2="27.9736" gradientUnits="userSpaceOnUse">
<stop stop-color="#941A1D"/>
<stop offset="1" stop-color="#E91C31"/>
</linearGradient>
<linearGradient id="paint1_linear_20702_543" x1="11.7794" y1="5.63965" x2="16.2703" y2="22.9899" gradientUnits="userSpaceOnUse">
<stop stop-color="#941A1D"/>
<stop offset="1" stop-color="#E51C30"/>
</linearGradient>
<clipPath id="clip0_20702_543">
<rect width="32" height="32" fill="white"/>
</clipPath>
</defs>
</svg>
