<svg width="32" height="32" viewBox="0 0 32 32" fill="none" xmlns="http://www.w3.org/2000/svg">
<path d="M19.3575 8.45382H14.3523C13.4004 8.45382 12.5867 9.1447 12.4178 10.0813L10.6368 21.274C10.4372 22.4562 11.3584 23.5463 12.5559 23.5463H17.6533C18.6052 23.5463 19.419 22.8554 19.5725 21.9188L21.3688 10.7107C21.5531 9.42107 20.5858 8.42307 19.3575 8.45382ZM20.9082 10.8643L19.2501 21.7039C19.1119 22.5636 18.3903 23.1932 17.5152 23.1932H12.8477C11.7422 23.1932 10.867 22.3641 11.082 21.1204L12.7402 10.2808C12.8783 9.42107 13.5079 8.79153 14.4751 8.79153H19.1426C20.4016 8.79153 21.1693 9.75886 20.9082 10.8643Z" fill="#FFF324"/>
<path d="M18.5888 9.94043L12.6162 16.6192H15.2109L13.3839 21.6859L19.3257 14.961H16.6696L18.5888 9.94043Z" fill="#FFF324"/>
<path d="M29.9815 8.45382H24.9762C24.0243 8.45382 23.2106 9.1447 23.0417 10.0813L21.2606 21.274C21.0611 22.4562 21.9823 23.5463 23.1798 23.5463H28.2772C29.2291 23.5463 30.0428 22.8554 30.1964 21.9188L31.9774 10.7261C32.1617 9.42107 31.1943 8.42307 29.9815 8.45382ZM31.5321 10.8643L29.874 21.7039C29.7358 22.5636 29.0142 23.1932 28.139 23.1932H26.2966L29.3673 19.7232H26.7112L28.6303 14.7026L22.6425 21.3814H25.2373L24.5771 23.2085H23.4562C22.3507 23.2085 21.4756 22.3794 21.6905 21.1357L23.3641 10.2808C23.5023 9.42107 24.1318 8.79153 25.099 8.79153H29.7665C31.0254 8.79153 31.7931 9.75886 31.5321 10.8643Z" fill="#FFF324"/>
<path d="M8.73268 8.45382H3.72747C2.77555 8.45382 1.96182 9.1447 1.80828 10.0813L0.0272875 21.274C-0.172312 22.4562 0.748902 23.5463 1.94647 23.5463H7.0438C7.99575 23.5463 8.80948 22.8554 8.963 21.9188L10.744 10.7261C10.9129 9.42107 9.94562 8.42307 8.73268 8.45382ZM10.2834 10.8643L8.62521 21.7039C8.48706 22.5636 7.76543 23.1932 6.89028 23.1932H2.20748C1.10203 23.1932 0.226879 22.3641 0.441831 21.1204L2.1 10.2808C2.23819 9.42107 2.86767 8.79153 3.83494 8.79153H5.44703L2.63738 11.9237H5.24745L3.4204 16.9903L9.36221 10.2808H6.70601L7.27412 8.80691H8.51774C9.77673 8.79153 10.5444 9.75886 10.2834 10.8643Z" fill="#FFF324"/>
</svg>
