<svg width="32" height="32" viewBox="0 0 32 32" fill="none" xmlns="http://www.w3.org/2000/svg">
<g clip-path="url(#clip0_20702_661)">
<path d="M31.4102 5.30456C20.9424 5.30273 10.4737 5.30273 0.00585938 5.30273V6.50289H1.09671V20.969H8.34022V18.0552H4.29912V6.48194H32.0002V5.31551C31.9347 5.31429 31.8692 5.31267 31.8036 5.31105C31.6725 5.3078 31.5414 5.30456 31.4102 5.30456Z" fill="white"/>
<path fill-rule="evenodd" clip-rule="evenodd" d="M29.8195 15.3417C31.0387 16.6401 31.4976 18.1417 31.0633 19.8581C30.5734 21.7967 28.8215 23.2317 26.7864 23.3319C25.9224 23.3746 25.0563 23.364 24.1802 23.3534C23.7858 23.3486 23.3894 23.3437 22.9902 23.3437V8.21834C23.515 8.24048 24.0394 8.22487 24.5618 8.20932C25.4995 8.18141 26.4309 8.15368 27.3473 8.34492C30.4569 8.99416 31.8063 12.5299 29.9779 15.1268C29.9439 15.175 29.9082 15.2224 29.8714 15.2713C29.8626 15.2829 29.8538 15.2946 29.8449 15.3065C29.8362 15.3181 29.8283 15.3298 29.8195 15.3417ZM26.1481 20.3798C26.841 20.4172 27.3792 20.1759 27.7434 19.6149C28.1386 19.0058 28.1532 18.3602 27.7579 17.7456C27.391 17.1737 26.851 16.9061 26.1472 16.9397L26.1481 20.3798ZM26.1435 13.9722C27.0759 13.9339 27.7179 13.2638 27.6314 12.4689C27.5449 11.6794 26.8884 11.1313 26.1435 11.2424V13.9722Z" fill="white"/>
<path fill-rule="evenodd" clip-rule="evenodd" d="M0 26.6955V25.5227H9.83588C10.4457 22.743 11.0535 19.9734 11.6612 17.2042L13.1139 10.584H17.0203L18.0533 15.2912C18.7981 18.6849 19.5446 22.0865 20.2928 25.4945H31.9808V26.6955H0ZM16.7079 23.942L15.9375 23.9421C15.1733 23.9422 14.4166 23.9424 13.6594 23.9411C13.5045 23.9411 13.4062 23.9811 13.3743 24.155C13.3175 24.4628 13.2531 24.7687 13.1873 25.0811C13.1593 25.2141 13.131 25.3485 13.103 25.4845H17.0311C16.9653 25.1722 16.9018 24.8696 16.8378 24.565L16.707 23.9428L16.7079 23.942ZM14.0709 20.9671H16.0596L15.9196 20.321C15.642 19.0403 15.369 17.7803 15.0953 16.5209L15.0261 16.5327C14.8695 17.2599 14.7127 17.9869 14.5542 18.7212L14.5522 18.7309C14.3935 19.4664 14.2342 20.2093 14.0709 20.9671Z" fill="white"/>
</g>
<defs>
<clipPath id="clip0_20702_661">
<rect width="32" height="32" fill="white"/>
</clipPath>
</defs>
</svg>
