<svg width="542" height="542" viewBox="0 0 542 542" fill="none" xmlns="http://www.w3.org/2000/svg">
    <g clip-path="url(#clip0_200_177)">
        <path d="M272.493 114.451C277.693 101.796 283.467 89.318 287.98 76.3975C292.693 62.9019 296.564 49.0965 300.06 35.2469C302.671 24.9592 304.352 14.4282 305.923 3.91924C306.587 -0.571938 308.91 -1.16929 312.361 -0.439194C320.436 1.22011 328.534 2.83516 336.498 4.93694C344.64 7.08297 352.649 9.78211 360.724 12.2379C366.808 14.0742 367.229 15.0919 365.945 21.353C363.689 32.3044 361.897 43.3443 359.552 54.2735C357.959 61.7736 355.99 69.2072 353.777 76.5524C350.813 86.3534 347.361 95.9994 344.352 105.778C343.888 107.305 344.662 109.207 344.861 110.911C346.388 110.623 348.113 110.668 349.419 109.982C363.932 102.15 379.087 95.2472 392.649 85.9773C404.817 77.6586 415.415 66.9506 426.233 56.7957C430.149 53.1009 433.048 53.1452 436.433 56.508C448.313 68.2338 460.172 79.9816 471.875 91.8844C474.596 94.6499 475.747 97.6145 472.119 101.353C446.543 127.659 417.76 149.606 384.463 165.093C366.034 173.655 346.786 180.314 326.653 183.987C324.219 184.429 321.941 185.757 318.357 187.173C324.795 193.611 330.171 199.827 336.366 205.049C348.445 215.159 360.967 224.739 373.335 234.496C376.963 237.35 379.884 238.036 384.198 234.275C397.428 222.704 410.702 211.022 425.039 200.934C439.198 190.956 454.397 182.327 469.663 174.053C480.393 168.234 491.986 163.964 503.225 159.097C509.973 156.177 512.229 156.863 514.575 163.92C519.951 180.071 524.862 196.354 529.929 212.593C531.057 216.199 529.199 218.124 525.968 219.23C505.592 226.244 486.189 235.248 468.534 247.77C461.057 253.08 453.446 258.169 446.079 263.611C444.309 264.916 443.291 267.239 441.941 269.098C443.601 270.005 445.172 271.31 446.941 271.731C465.083 276.001 483.203 280.47 501.455 284.164C510.946 286.089 520.703 286.598 530.371 287.682C534.464 288.147 535.924 289.673 535.061 294.253C532.76 306.51 531.168 318.899 529.176 331.2C528.623 334.629 527.827 338.058 526.831 341.377C524.044 350.78 523.933 351.178 514.464 350.315C489.729 348.036 465.526 343.235 441.72 335.89C417.295 328.346 393.468 319.275 371.41 306.465C354.33 296.532 337.848 285.403 321.919 273.677C309.109 264.253 297.449 253.235 285.502 242.682C281.542 239.186 278.201 234.938 274.794 230.867C271.896 227.416 269.396 227.969 266.564 230.867C260.657 236.929 254.662 242.903 248.622 248.854C225.967 271.111 200.48 289.563 172.78 305.071C149.196 318.302 124.439 328.788 98.665 336.665C86.4304 340.404 73.7755 342.881 61.1648 345.227C49.2842 347.439 37.2708 349.01 25.2575 350.293C16.9167 351.178 15.6335 349.828 14.107 341.399C11.5848 327.483 9.17331 313.567 6.69542 299.651C6.62905 299.297 6.51843 298.943 6.47418 298.567C5.10249 288.965 5.96533 287.306 15.5229 286.93C36.408 286.111 56.6293 281.731 76.6958 276.421C84.7269 274.297 92.5145 271.155 100.391 268.478L100.634 266.576C93.9747 261.554 87.6251 256.023 80.5897 251.598C67.8905 243.611 54.97 235.912 41.762 228.854C33.3991 224.385 24.4389 220.934 15.5008 217.726C10.7884 216.022 10.6999 213.235 11.8282 209.606C16.8282 193.544 21.8725 177.482 27.0495 161.464C28.2 157.88 29.7044 155.889 34.6602 157.526C63.1338 166.885 89.4172 180.557 113.466 198.168C128.953 209.518 143.333 222.394 158.002 234.828C161.099 237.438 162.935 237.704 166.431 235.337C185.679 222.283 202.958 206.996 218.843 190.093C220.015 188.854 220.613 187.062 221.475 185.513C219.883 184.783 218.356 183.743 216.697 183.389C189.44 177.549 163.356 168.345 139.174 154.584C121.342 144.429 104.24 132.902 89.3729 118.477C83.2003 112.482 77.2932 106.176 71.0542 100.269C67.7799 97.172 66.9834 94.2516 70.1693 90.8445C78.4215 81.9728 86.5853 73.0347 95.0809 64.4063C98.7977 60.6452 103.444 57.8134 107.249 54.1187C110.546 50.9107 112.67 51.7956 115.413 54.7381C127.913 68.3002 141.541 80.6896 157.36 90.1587C169.108 97.1941 181.674 102.858 193.953 109.008C195.126 109.606 196.719 109.362 198.599 109.584C198.599 108.057 198.865 106.951 198.555 106.022C194.816 95.0924 190.502 84.3622 187.338 73.2781C183.732 60.6231 181.077 47.6806 178.134 34.8265C177.073 30.1805 176.475 25.4238 175.524 20.7556C174.705 16.6406 176.099 13.8972 180.192 12.8131C196.652 8.43254 213.113 4.05198 229.617 -0.240078C234.285 -1.4569 236.21 0.600635 236.653 5.42367C238.644 27.6583 243.622 49.2735 251.254 70.2249C256.077 83.4551 261.675 96.3977 267.051 109.429C267.847 111.331 269.396 112.924 270.591 114.65C271.21 114.606 271.83 114.561 272.471 114.495L272.493 114.451Z"
              fill="#F96432"/>
        <path d="M240.372 495.161C240.372 482.284 240.549 469.386 240.239 456.51C240.172 453.435 239.199 449.828 237.407 447.395C220.947 425.116 204.177 403.058 187.584 380.89C178.137 368.257 168.889 355.492 159.53 342.814C157.362 339.872 154.929 337.084 152.783 334.142C150.791 331.398 150.349 329.341 154.243 327.239C170.238 318.677 185.991 309.628 201.986 301.066C203.292 300.381 206.699 301.376 207.694 302.704C220.659 319.606 233.403 336.664 246.102 353.744C252.673 362.571 258.978 371.598 265.504 380.47C269.199 385.492 271.81 385.47 275.283 380.824C293.58 356.244 311.876 331.686 330.262 307.173C336.7 298.611 336.545 299.142 345.66 304.562C358.735 312.35 372.142 319.606 385.638 326.664C390.085 328.987 390.815 330.845 387.762 334.894C372.098 355.713 356.589 376.62 341.036 397.527C329.222 413.412 317.208 429.187 305.792 445.359C303.447 448.678 302.363 453.545 302.319 457.705C302.009 482.926 302.031 508.147 302.252 533.369C302.297 538.988 300.903 542.086 294.686 541.997C278.536 541.798 262.407 541.82 246.257 541.754C241.721 541.732 240.305 539.099 240.349 534.917C240.438 521.665 240.394 508.413 240.372 495.161Z"
              fill="#F96432"/>
    </g>
    <defs>
        <clipPath id="clip0_200_177">
            <rect width="542" height="542" fill="white"/>
        </clipPath>
    </defs>
</svg>
