<svg width="1271" height="1243" viewBox="0 0 1271 1243" fill="none" xmlns="http://www.w3.org/2000/svg">
<rect x="47.782" y="48.4511" width="1175.44" height="1146.77" rx="573.383" stroke="#FF3F3F" stroke-width="95.5639"/>
<g clip-path="url(#clip0_2019_1218)">
<path d="M286.701 862.594L317.129 518.564C321.451 467.139 335.627 430.114 359.485 407.487C383.516 384.86 413.771 373.375 450.422 373.375C489.667 373.375 520.959 385.203 543.953 409.03C567.119 432.856 581.814 465.254 588.384 506.222L626.591 745.689C627.456 750.831 628.839 754.602 630.74 757.174C632.642 759.745 635.754 760.945 640.076 760.945C644.398 760.945 647.683 759.402 649.758 756.488C651.832 753.574 653.215 749.46 653.561 744.318L690.558 505.365C696.609 464.74 711.131 432.514 734.298 408.687C757.464 384.86 788.411 373.032 827.309 373.032C868.283 373.032 898.883 384.517 918.938 407.315C938.993 430.285 951.267 467.139 955.589 518.05L986.017 862.251H861.022L835.089 499.365C834.571 495.08 833.879 491.48 832.842 488.395C831.804 485.481 829.038 483.938 824.716 483.938C821.259 483.938 818.492 485.309 816.245 488.052C813.997 490.795 812.787 494.223 812.441 497.994L769.048 755.46C763.515 789.743 749.512 817.34 727.21 838.253C704.908 859.166 675.69 869.622 639.385 869.622C603.079 869.622 571.787 858.823 549.312 837.225C526.837 815.626 512.833 788.028 507.301 754.774L462.006 498.508C461.141 493.88 459.585 490.109 457.511 487.538C455.263 484.967 452.497 483.767 449.039 483.767C444.717 483.767 441.778 485.309 440.222 488.223C438.666 491.137 437.802 495.08 437.283 499.708L411.351 861.908H286.701V862.594Z" fill="#FF3F3F"/>
</g>
<defs>
<clipPath id="clip0_2019_1218">
<rect width="697.617" height="496.932" fill="white" transform="translate(286.692 373.368)"/>
</clipPath>
</defs>
</svg>
