<svg width="32" height="32" viewBox="0 0 32 32" fill="none" xmlns="http://www.w3.org/2000/svg">
<path d="M3.35459 20.9474C4.80365 20.9238 6.25334 20.9362 7.7024 20.9399C7.98749 20.9424 8.28997 20.9126 8.55208 21.0486C8.9763 21.2436 9.28437 21.725 9.17754 22.1977C8.64463 24.6219 8.09929 27.0443 7.5583 29.4673C7.37507 30.2909 6.54464 30.8753 5.71607 30.8617C4.1844 30.8579 2.65211 30.8635 1.12044 30.8586C0.563922 30.8598 -0.0373169 30.4343 0.00181335 29.8306V29.6996C0.0285213 29.2884 0.137838 28.8909 0.226036 28.4902C0.67945 26.4784 1.131 24.4666 1.58007 22.4542C1.70864 21.612 2.5105 20.9517 3.35459 20.9474ZM25.7371 1.18954C25.8924 1.14979 26.0526 1.1355 26.2122 1.13737C27.7855 1.14917 29.3582 1.12991 30.9309 1.1473C31.5159 1.14109 32.0371 1.69141 31.9979 2.27526C31.9781 2.456 31.9277 2.63178 31.8905 2.80942C31.442 4.84483 30.9793 6.87775 30.5246 8.91192C30.26 10.1051 29.5719 11.1858 28.6501 11.9815C27.3054 13.1057 25.6949 13.8703 24.0265 14.3809C22.6762 14.8014 21.2887 15.0846 19.903 15.3579C19.7713 15.3896 19.629 15.4268 19.5346 15.5306C19.4713 15.6523 19.5713 15.7939 19.698 15.8138C20.0806 15.9132 20.4781 15.93 20.8669 15.9908C22.1054 16.1883 23.3259 16.5598 24.4253 17.171C25.0421 17.5206 25.6408 17.9244 26.1079 18.4641C26.9917 19.4654 27.4818 20.8449 27.2868 22.1803C26.9091 24.6225 26.2588 27.0113 25.7576 29.4294C25.6327 30.0287 25.1713 30.5319 24.6048 30.7492C24.2489 30.8989 23.857 30.8561 23.4812 30.8604C22.0526 30.8586 20.6235 30.8648 19.1943 30.8567C18.562 30.8772 17.9986 30.2287 18.1396 29.6045C18.4744 28.0256 18.8514 26.4554 19.1905 24.8778C19.3707 24.0014 19.5185 23.1014 19.4253 22.2051C19.2831 21.4088 19.0502 20.5616 18.4297 20.0002C17.6769 19.3697 16.8086 18.8554 15.8539 18.6014C14.9763 18.3486 14.044 18.2809 13.2061 17.8977C12.8576 17.7306 12.5055 17.5312 12.2732 17.2126C11.7688 16.5318 11.7372 15.5461 12.1688 14.8213C12.3881 14.4374 12.7738 14.1896 13.1632 14.0051C13.885 13.6728 14.6831 13.5796 15.4595 13.4498C16.9887 13.2119 18.5632 13.0107 19.9638 12.3082C20.9054 11.8666 21.8259 11.2771 22.4042 10.3908C22.5974 10.0914 22.7458 9.76161 22.8303 9.41503C23.3613 7.11937 23.8601 4.81688 24.3849 2.51998C24.5334 1.86532 25.0949 1.34979 25.7371 1.18954ZM7.54153 1.19389C7.81854 1.12432 8.10612 1.14109 8.38873 1.13923C9.85642 1.14979 11.3241 1.12867 12.7924 1.14917C13.4123 1.14606 13.9384 1.79203 13.8036 2.39886C13.2676 4.82495 12.7173 7.24794 12.18 9.67341C11.9856 10.4747 11.1813 11.0461 10.3695 11.048C8.86015 11.0523 7.35147 11.0461 5.84216 11.0511C5.42477 11.0535 4.97446 10.8827 4.7521 10.5113C4.5757 10.2424 4.58191 9.90074 4.64962 9.59764C5.15831 7.3349 5.66328 5.07154 6.16886 2.80818C6.21793 2.59203 6.25458 2.37029 6.35396 2.16967C6.58563 1.69389 7.03594 1.33861 7.54153 1.19389Z" fill="#974586" style="fill:#974586;fill:color(display-p3 0.5922 0.2706 0.5255);fill-opacity:1;"/>
<path d="M6.37614 13.1963C7.2662 13.0348 8.20781 13.3615 8.85439 13.9826C9.37737 14.4708 9.67799 15.1696 9.72395 15.8789C9.77116 16.7534 9.38917 17.6335 8.73762 18.2155C8.31775 18.5963 7.77365 18.8242 7.21589 18.9068C6.10906 19.0528 4.94137 18.4839 4.38485 17.5143C4.00224 16.9043 3.92771 16.146 4.04572 15.4472C4.26373 14.3124 5.24074 13.3876 6.37614 13.1963Z" fill="#EF7B2B" style="fill:#EF7B2B;fill:color(display-p3 0.9373 0.4824 0.1686);fill-opacity:1;"/>
</svg>
