<svg width="32" height="32" viewBox="0 0 32 32" fill="none" xmlns="http://www.w3.org/2000/svg">
<path d="M32 0H2.28882e-05V32H32V0Z" fill="#00004E" style="fill:#00004E;fill:color(display-p3 0.0000 0.0000 0.3059);fill-opacity:1;"/>
<path d="M6.59407 16.2879H7.88554L7.23303 15.3374L6.59407 16.2879Z" fill="white" style="fill:white;fill-opacity:1;"/>
<path d="M21.0329 17.6872L18.5391 14.0521L18.503 13.999H0.855942V17.8576L16.7035 17.8565L17.1415 17.2029H19.6432L20.0598 17.8102L20.0914 17.8565H20.1478H20.9437H21.148L21.0329 17.6872ZM4.96742 15.785V16.8405V16.8789L4.93806 16.9037C4.5881 17.204 4.07106 17.3553 3.40049 17.3553C2.23208 17.3553 1.53441 16.8235 1.53441 15.934C1.53441 15.4801 1.72407 15.1076 2.08193 14.8547C2.41044 14.6233 2.86539 14.5014 3.40049 14.5014C4.04623 14.5014 4.50682 14.6301 4.84888 14.9067L4.91323 14.9586L4.86243 15.0229L4.63326 15.3097L4.5802 15.3763L4.51472 15.3221C4.28894 15.1313 4.01123 15.0049 3.39146 15.0049C2.56623 15.0049 2.14854 15.3153 2.14854 15.9283C2.14854 16.5526 2.55494 16.8552 3.39146 16.8552C3.83174 16.8552 4.16476 16.7807 4.40635 16.6271V16.2218H3.20068H3.11827V16.1394V15.7861V15.7037H3.20068H4.88388H4.96742V15.785ZM9.09018 17.3056H8.62846H8.58443L8.55959 17.2695L8.24124 16.8021H6.24985L5.93827 17.2683L5.91344 17.3056H5.86941H5.42914H5.27448L5.3614 17.1769L7.15636 14.5048L7.1812 14.4686H7.22523H7.25796H7.30199L7.32683 14.5048L9.15904 17.1769L9.24822 17.3067H9.09018V17.3056ZM13.45 14.5883V17.2232V17.3056H13.3676H12.9397H12.8573V17.2232V15.6675L11.7092 16.7682L11.6855 16.7908H11.6528H11.6201H11.5884L11.5647 16.7694L10.3523 15.6619V17.2243V17.3067H10.2699H9.84203H9.75962V17.2243V14.5894V14.507H9.84203H9.87928H9.91089L9.9346 14.5285L11.6392 16.0886L13.275 14.5296L13.2987 14.507H13.3315H13.3687H13.4511V14.5883H13.45ZM17.5299 14.6741L17.2883 15.0444L17.2635 15.0816H17.2183H14.9842V15.6314H16.7509H16.9033L16.8198 15.759L16.5884 16.1123L16.5635 16.1496H16.5184H14.9831V16.7694H16.0047H16.1571L16.0736 16.8969L15.832 17.2672L15.8072 17.3045H15.762H14.4717H14.3893V17.2221V14.629V14.5465H14.4717H17.4588H17.6112L17.5299 14.6741ZM17.697 16.372L18.3777 15.3605L19.072 16.372H17.697Z" fill="white" style="fill:white;fill-opacity:1;"/>
<path d="M26.5585 13.9976V14.1082V14.7641V14.8747H26.6691H28.3715V17.7444V17.855H28.4821H29.2216H29.3322V17.7444V14.8747H31.0346H31.1452V13.9976H26.5585Z" fill="white" style="fill:white;fill-opacity:1;"/>
<path d="M24.1324 15.6435H22.535V14.8578H24.1324C25.0784 14.8578 25.0784 15.0655 25.0784 15.2484C25.0784 15.4155 25.0784 15.6435 24.1324 15.6435ZM25.0536 16.3818C25.9206 16.1572 26.056 15.5701 26.056 15.2258C26.056 14.8115 25.8935 14.4977 25.5706 14.2922C25.2602 14.0946 24.8097 13.9976 24.1933 13.9976H21.6861H21.5754V14.1082V17.7444V17.855H21.6861H22.4255H22.5361V17.7444V16.4755H23.9303L25.1484 17.8189L25.1811 17.855H25.2297H26.1373H26.3868L26.2197 17.6699L25.0536 16.3818Z" fill="white" style="fill:white;fill-opacity:1;"/>
</svg>
