<svg width="32" height="32" viewBox="0 0 32 32" fill="none" xmlns="http://www.w3.org/2000/svg">
<path fill-rule="evenodd" clip-rule="evenodd" d="M2.90909 19.5562C4.51574 19.5562 5.81818 20.8585 5.81818 22.4651C5.81818 24.0717 4.51574 25.3741 2.90909 25.3741C1.30244 25.3741 0 24.0717 0 22.4651C0 20.8585 1.30244 19.5562 2.90909 19.5562ZM9.45455 19.5562C11.0612 19.5562 12.3636 20.8585 12.3636 22.4651C12.3636 24.0717 11.0612 25.3741 9.45455 25.3741C7.8479 25.3741 6.54545 24.0717 6.54545 22.4651C6.54545 20.8585 7.8479 19.5562 9.45455 19.5562ZM16 19.5562C17.6066 19.5562 18.9091 20.8585 18.9091 22.4651C18.9091 24.0717 17.6066 25.3741 16 25.3741C14.3934 25.3741 13.0909 24.0717 13.0909 22.4651C13.0909 20.8585 14.3934 19.5562 16 19.5562ZM22.5455 19.5562C24.1521 19.5562 25.4545 20.8585 25.4545 22.4651C25.4545 24.0717 24.1521 25.3741 22.5455 25.3741C20.9388 25.3741 19.6364 24.0717 19.6364 22.4651C19.6364 20.8585 20.9388 19.5562 22.5455 19.5562ZM31.0677 19.5562C31.1018 19.5562 31.1336 19.5565 31.1634 19.5573L31.2469 19.5606C31.4025 19.5695 31.4931 19.5914 31.5711 19.6255L31.6092 19.6435C31.6155 19.6467 31.6217 19.65 31.6279 19.6533C31.7465 19.7167 31.8395 19.8097 31.9029 19.9282C31.9596 20.0342 31.9926 20.1395 31.9989 20.3927L32 20.4884V24.4418L31.9989 24.5376C31.9926 24.7907 31.9596 24.896 31.9029 25.0021C31.8395 25.1206 31.7465 25.2136 31.6279 25.277L31.5903 25.296L31.5513 25.313C31.4642 25.3477 31.357 25.3681 31.1634 25.373L31.0677 25.3741H27.1141L27.0184 25.373C27.0035 25.3726 26.9891 25.3721 26.9752 25.3716L26.8973 25.3672C26.7522 25.3561 26.6677 25.332 26.5915 25.296L26.5539 25.277C26.4354 25.2136 26.3423 25.1206 26.279 25.0021C26.2256 24.9023 26.1932 24.8031 26.1843 24.5807L26.1821 24.4913V20.4389L26.1843 20.3495C26.1932 20.1271 26.2256 20.028 26.279 19.9282C26.3423 19.8097 26.4354 19.7167 26.5539 19.6533L26.5726 19.6435L26.6108 19.6255C26.6887 19.5914 26.7793 19.5695 26.9349 19.5606L27.0184 19.5573C27.0333 19.5569 27.0487 19.5566 27.0646 19.5564L31.0677 19.5562ZM3.08472 21.1621C2.32554 21.1621 1.73632 21.727 1.73632 22.4576C1.73632 22.8229 1.83452 23.1091 2.04226 23.3426C2.27266 23.6062 2.65792 23.7682 3.04318 23.7682C3.45865 23.7682 3.7797 23.674 4.08186 23.4669V22.3107H3.06584L3.01674 22.7815H3.42843V23.143C3.32268 23.1882 3.24714 23.2033 3.13382 23.1995C2.74857 23.1807 2.45773 22.8718 2.45773 22.4764C2.45773 22.0471 2.71835 21.7571 3.10361 21.7571C3.30379 21.7571 3.47376 21.8249 3.64373 21.9793L4.04787 21.5086C3.78348 21.2675 3.48887 21.1621 3.08472 21.1621ZM29.1246 21.1621C28.9563 21.1621 28.747 21.2224 28.6087 21.3052C28.3956 21.437 28.2722 21.6554 28.2722 21.9002C28.2722 22.2053 28.4031 22.4049 28.7096 22.5743C28.7545 22.5969 28.8479 22.6459 28.975 22.7137C29.1657 22.8154 29.2292 22.8831 29.2292 22.9886C29.2292 23.1468 29.1021 23.2447 28.9227 23.2296C28.6984 23.2108 28.4816 23.1053 28.2498 22.902L28.1788 23.497C28.4778 23.6815 28.7582 23.7682 29.0685 23.7682C29.618 23.7682 30.0031 23.4443 30.0031 22.9811C30.0031 22.7852 29.9171 22.5894 29.7788 22.4689C29.6816 22.386 29.5283 22.2957 29.289 22.1714C29.0685 22.0584 29.0124 21.9981 29.0199 21.8814C29.0274 21.7684 29.132 21.6856 29.2629 21.6856C29.4199 21.6856 29.5619 21.7421 29.79 21.8927L29.9358 21.3843C29.6068 21.2111 29.4274 21.1621 29.1246 21.1621ZM15.3481 21.2272H14.8093L14.4363 23.703H14.9977L15.1635 22.3859L15.7362 23.703H16.1583L16.7347 22.3783L16.8968 23.703H17.5637L17.1944 21.2272H16.6594L16.0038 22.7519L15.3481 21.2272ZM23.2341 21.2272H21.6985V23.703H23.3335L23.3925 23.1822H22.3355V22.6651H23.142V22.1821H22.3355V21.7367H23.2341V21.2272ZM9.74963 21.2403H9.17431L8.12759 23.69H8.75117L8.97016 23.1522H9.86841L10.08 23.69H10.7815L9.74963 21.2403ZM9.46406 22.0568L9.76077 22.8734H9.14833L9.46406 22.0568Z" fill="#8B6CE0" style="fill:#8B6CE0;fill:color(display-p3 0.5451 0.4235 0.8784);fill-opacity:1;"/>
<path fill-rule="evenodd" clip-rule="evenodd" d="M31.9993 6.63098L28.3192 15.6605C27.6248 17.3962 24.9616 17.4196 24.246 15.6481L22.075 10.3213L19.9015 15.6539C19.1689 17.4598 16.4999 17.3415 15.8293 15.6515L13.6525 10.3189C14.7875 10.0813 15.6382 9.11812 15.6382 7.9654C15.6382 7.91053 15.6361 7.85638 15.6323 7.80247L17.863 13.2758L20.0288 7.96199C20.7252 6.22267 23.3771 6.17243 24.1307 7.98541L26.285 13.2714L28.9915 6.63098H31.9993ZM6.7358 6.63086L3.6578 14.2062L7.82603 14.204L6.69173 16.9675L2.53554 16.9638C1.25443 16.8626 0.134221 15.5653 0.653328 14.1835L3.7321 6.63086H6.7358ZM11.0349 9.35022C11.4931 9.97024 12.2502 10.3751 13.1073 10.3751C13.293 10.3751 13.4739 10.3559 13.6484 10.3198L11.4726 15.6609C11.2081 16.3531 10.3798 16.9743 9.45737 16.9656H7.93105L11.0349 9.35022ZM13.1071 6.62646C13.8832 6.62646 14.5135 7.22599 14.5135 7.96553C14.5135 8.70506 13.8832 9.30434 13.1071 9.30434C12.3299 9.30434 11.7001 8.70506 11.7001 7.96553C11.7001 7.22599 12.3299 6.62646 13.1071 6.62646Z" fill="black" style="fill:black;fill-opacity:1;"/>
</svg>
