<svg width="163" height="36" viewBox="0 0 163 36" fill="none" xmlns="http://www.w3.org/2000/svg">
<g clip-path="url(#clip0_1216_16565)">
<path d="M42.2697 10.0803C37.5024 10.0803 33.6092 14.0003 33.6092 18.8003C33.6092 23.6003 37.5024 27.5203 42.2697 27.5203C44.1766 27.5203 46.004 26.8803 47.4342 25.8403V27.4403H51.0096V18.8003C50.9302 14.0003 47.0369 10.0803 42.2697 10.0803ZM42.2697 24.0003C39.4093 24.0003 37.1052 21.6803 37.1052 18.8003C37.1052 15.9203 39.4093 13.6003 42.2697 13.6003C45.13 13.6003 47.4342 15.9203 47.4342 18.8003C47.4342 21.6803 45.13 24.0003 42.2697 24.0003Z" fill="white"/>
<path d="M104.562 10.0803C99.7946 10.0803 95.9013 14.0003 95.9013 18.8003C95.9013 23.6003 99.7946 27.5203 104.562 27.5203C107.343 27.5203 109.965 26.1603 111.554 23.9203L108.693 21.8403C107.74 23.2003 106.151 24.0003 104.562 24.0003C102.337 24.0003 100.43 22.5603 99.7151 20.5603H113.222V18.8003C113.222 14.0003 109.329 10.0803 104.562 10.0803ZM99.7151 17.0403C100.43 15.0403 102.337 13.6003 104.562 13.6003C106.787 13.6003 108.693 15.0403 109.409 17.0403H99.7151Z" fill="white"/>
<path d="M86.2874 10.0803C81.9174 10.0803 78.4214 14.0003 78.4214 18.8003V27.4403H81.9968V18.8003C81.9968 15.9203 83.9832 13.6003 86.3668 13.6003C88.7504 13.6003 90.7368 15.9203 90.7368 18.8003V27.4403H94.3122V18.8003C94.2328 14.0003 90.6573 10.0803 86.2874 10.0803Z" fill="white"/>
<path d="M24.7897 10.0803C22.6445 10.0803 20.7376 11.0403 19.3868 12.5603C18.1156 11.0403 16.1292 10.0803 13.984 10.0803C10.0112 10.0803 6.83307 13.2803 6.83307 17.2803V27.4403H10.4085V17.2803C10.4085 15.2803 11.9976 13.6803 13.984 13.6803C15.9703 13.6803 17.5594 15.2803 17.5594 17.2803V27.4403H21.1348V17.2803C21.1348 15.2803 22.7239 13.6803 24.7103 13.6803C26.6966 13.6803 28.2857 15.2803 28.2857 17.2803V27.4403H31.8612V17.2803C31.9406 13.2803 28.683 10.0803 24.7897 10.0803Z" fill="white"/>
<path d="M61.3387 10.0803C56.5714 10.0803 52.6782 14.0003 52.6782 18.8003C52.6782 23.6003 56.5714 27.5203 61.3387 27.5203C63.2456 27.5203 65.0731 26.8803 66.5032 25.8403V27.2003C66.5032 30.0803 64.1991 32.4003 61.3387 32.4003C59.7496 32.4003 58.24 31.6803 57.2071 30.3203L54.4262 32.4803C56.0947 34.7203 58.6373 35.9203 61.3387 35.9203C66.106 35.9203 69.9992 32.0003 69.9992 27.2003V18.8003C69.9992 14.0003 66.106 10.0803 61.3387 10.0803ZM61.3387 24.0003C58.4784 24.0003 56.1742 21.6803 56.1742 18.8003C56.1742 15.9203 58.4784 13.6003 61.3387 13.6003C64.1991 13.6003 66.5032 15.9203 66.5032 18.8003C66.5032 21.6803 64.1991 24.0003 61.3387 24.0003Z" fill="white"/>
<path d="M75.9583 11.2803H72.3829V27.4403H75.9583V11.2803Z" fill="white"/>
<path d="M74.1309 4.32031C72.7007 4.32031 71.5883 5.52031 71.5883 6.88031C71.5883 8.24031 72.7801 9.44031 74.1309 9.44031C75.561 9.44031 76.6734 8.24031 76.6734 6.88031C76.6734 5.52031 75.561 4.32031 74.1309 4.32031Z" fill="white"/>
<path d="M4.36999 11.2803H0.794543V27.4403H4.36999V11.2803Z" fill="white"/>
<path d="M2.54254 4.32031C1.19181 4.32031 0 5.52031 0 6.96031C0 8.40031 1.19181 9.52031 2.54254 9.52031C3.97271 9.52031 5.08507 8.32031 5.08507 6.96031C5.08507 5.60031 3.97271 4.32031 2.54254 4.32031Z" fill="white"/>
<path d="M162.325 18.8C162.325 14 158.432 10.08 153.665 10.08C148.897 10.08 145.004 14 145.004 18.8C145.004 23.6 148.897 27.52 153.665 27.52C156.446 27.52 159.068 26.16 160.657 23.92L157.796 21.84C156.843 23.2 155.254 24 153.665 24C151.44 24 149.533 22.56 148.818 20.56H162.325V18.8ZM148.818 17.04C149.533 15.04 151.44 13.6 153.665 13.6C155.889 13.6 157.796 15.04 158.511 17.04H148.818Z" fill="#999999"/>
<path d="M126.253 11.28H122.678V27.44H126.253V11.28Z" fill="#999999"/>
<path d="M120.135 4H116.56V27.44H120.135V4Z" fill="#999999"/>
<path d="M124.505 4.32C123.075 4.32 121.962 5.52 121.962 6.88C121.962 8.24 123.154 9.44 124.505 9.44C125.935 9.44 127.048 8.24 127.048 6.88C127.048 5.52 125.935 4.32 124.505 4.32Z" fill="#999999"/>
<path d="M141.19 11.28L136.503 22.72L131.815 11.28H127.922L134.596 27.44H138.409L145.084 11.28H141.19Z" fill="#999999"/>
</g>
<defs>
<clipPath id="clip0_1216_16565">
<rect width="162.881" height="32" fill="white" transform="translate(0 4)"/>
</clipPath>
</defs>
</svg>
