<svg width="40" height="40" viewBox="0 0 16 16" fill="none" xmlns="http://www.w3.org/2000/svg">
    <g clip-path="url(#clip0_3680_144079)">
        <path d="M12 0H4C1.79086 0 0 1.79086 0 4V12C0 14.2091 1.79086 16 4 16H12C14.2091 16 16 14.2091 16 12V4C16 1.79086 14.2091 0 12 0Z" fill="url(#paint0_linear_3680_144079)"/>
        <g clip-path="url(#clip1_3680_144079)">
            <path d="M6.17267 5.44205C6.37911 5.68873 6.6215 5.99837 6.50254 6.73315L6.1789 8.46684L6.23838 9.8629C6.25063 10.3597 6.48855 10.5837 6.90841 10.5837H7.96158C8.29573 10.5837 8.43044 10.3283 8.56514 10.0064L9.36813 8.02424L9.45036 9.91714C9.45736 10.337 9.67079 10.5854 10.0557 10.5854H11.2558C11.597 10.5854 11.7386 10.379 11.8891 10.0099L13.4216 6.21356C13.5878 5.81993 13.4916 5.44031 13.0769 5.44031H12.3055C12.0186 5.44031 11.8279 5.53828 11.7142 5.81119L10.6803 8.35489L10.5858 6.08585C10.57 5.603 10.3391 5.44205 10.0714 5.44205H9.28941C8.97976 5.44205 8.79956 5.56276 8.70335 5.79894L7.66418 8.35663L7.57145 6.03162C7.55746 5.596 7.41401 5.44205 7.06412 5.44205H6.38883C6.37604 5.44205 6.17267 5.44205 6.17267 5.44205Z" fill="white"/>
            <path fill-rule="evenodd" clip-rule="evenodd" d="M5.55415 5.56836C5.8568 5.78878 6.0265 6.11244 5.93379 6.57429L5.33547 9.77403C5.248 10.2954 4.7459 10.6383 4.22458 10.5403C3.73298 10.4458 3.37084 9.98396 3.46881 9.42939L3.8082 7.57672L3.59652 7.67294C3.20464 7.84964 2.74279 7.67294 2.56785 7.27757C2.3929 6.88219 2.56785 6.41859 2.95972 6.24014L4.53947 5.53862C4.91211 5.35142 5.26724 5.37592 5.55415 5.56836Z" fill="white"/>
        </g>
    </g>
    <defs>
        <linearGradient id="paint0_linear_3680_144079" x1="-8.31179e-08" y1="0.8572" x2="9.5636" y2="18.6416" gradientUnits="userSpaceOnUse">
            <stop stop-color="#1BF1FF"/>
            <stop offset="1" stop-color="#0855C4"/>
        </linearGradient>
        <clipPath id="clip0_3680_144079">
            <rect width="16" height="16" fill="white"/>
        </clipPath>
        <clipPath id="clip1_3680_144079">
            <rect width="11" height="5.18586" fill="white" transform="translate(2.5 5.40723)"/>
        </clipPath>
    </defs>
</svg>
