<svg width="542" height="542" viewBox="0 0 542 542" fill="none" xmlns="http://www.w3.org/2000/svg">
    <g clip-path="url(#clip0_83_3197)">
        <path d="M297.991 97.1026C305.946 104.687 313.427 112.024 321.115 119.072C324.989 122.637 326.246 126.821 326.184 131.911C326.04 145.967 326.123 160.022 326.123 174.078C326.123 203.384 326.123 232.71 326.123 262.017V268.034H378.016V317.373H326.04C326.04 329.346 325.278 340.97 326.246 352.449C327.318 365.186 323.258 374.831 314.046 383.507C299.578 397.13 285.852 411.535 271.818 425.612C270.87 426.56 269.86 427.446 268.211 428.991V317.723C265.923 317.723 264.13 317.723 262.337 317.723C229.94 317.661 197.522 317.805 165.145 317.331C160.59 317.27 154.985 315.291 151.77 312.22C139.899 300.865 128.811 288.685 116.961 276.319C176.933 216.944 237.751 156.725 297.991 97.082V97.1026ZM267.181 267.767V209.278C247.849 228.898 228.332 248.682 209.537 267.767H267.181Z"
              fill="#DA1224"/>
        <path d="M528.379 128.449C511.274 168.183 494.416 207.361 477.248 247.24C446.046 213.214 415.256 179.621 383.827 145.348C395.554 143.699 406.312 142.174 417.75 140.546C354.356 55.3071 271.034 15.0576 164.629 22.7654C172.11 19.9007 179.467 16.562 187.113 14.2126C283.914 -15.4645 370.885 4.2172 448.725 67.3841C467.294 82.4493 482.421 100.997 495.446 121.091C500.165 128.366 505.503 132.241 514.612 129.624C518.755 128.428 523.351 128.82 528.4 128.449H528.379Z"
              fill="#D91225"/>
        <path d="M245.312 65.4043C211.142 96.6683 177.508 127.458 143.112 158.908C141.669 147.367 140.329 136.732 138.866 125.212C131.447 130.859 124.213 135.908 117.495 141.555C64.1789 186.297 32.5233 243.178 23.1668 312.157C20.0755 334.827 20.5082 357.621 25.2071 380.167C24.4034 380.62 23.579 381.074 22.7546 381.527C14.2637 365.514 9.27629 348.305 5.58727 330.726C-6.88123 271.392 -1.37861 213.81 24.1767 158.702C45.8162 112.043 77.1626 73.3594 121.122 45.702C126.624 42.2191 129.304 37.8293 128.129 31.1314C127.181 25.7524 126.872 20.291 126.171 13.8403C166.008 31.0901 205.186 48.0308 245.312 65.4043Z"
              fill="#D91225"/>
        <path d="M542.393 262.654C542.29 273.247 542.578 283.943 541.177 294.392C539.219 309.086 535.88 323.595 533.139 338.186C531.449 344.596 530.048 351.108 528.028 357.415C514.591 399.395 492.931 436.512 460.43 466.54C447.818 478.225 433.556 488.138 419.83 498.608C414.472 502.688 412.308 507.737 413.132 514.188C413.792 519.423 414.719 524.616 415.667 530.717C409.031 527.914 403.116 525.502 397.284 522.906C388.608 519.052 380.632 518.598 371.378 522.968C342.752 536.487 312.024 540.176 280.595 541.66C238.161 543.68 197.85 536.693 159.146 519.443C110.859 497.907 71.7017 465.612 42.8696 421.097C37.8822 413.368 35.2854 412.42 26.7121 414.708C25.2282 415.1 23.6825 415.347 22.1781 415.491C18.7776 415.821 15.3977 416.068 11.3789 416.377C15.0061 407.68 18.6539 399.622 21.6835 391.317C22.7757 388.328 22.446 384.804 22.7551 381.527C23.5795 381.074 24.4038 380.621 25.2076 380.167C26.1968 379.034 27.557 378.065 28.1341 376.746C39.1393 351.727 50.0416 326.666 60.985 301.626C61.5826 300.245 62.2834 298.926 63.1902 297.092C94.0832 331.138 124.605 364.772 156.096 399.457C144.328 400.838 134.188 402.013 123.08 403.291C143.318 433.421 168.049 458.255 197.974 477.813C253.453 514.023 314.003 527.357 381.374 517.321C378.427 515.28 376.737 513.611 374.676 512.725C349.595 501.926 324.452 491.25 299.309 480.533C298.546 480.204 297.804 479.833 296.629 479.297C330.449 448.404 364.062 417.696 398.727 386.041C399.943 396.964 401.097 407.433 402.333 418.521C413.627 411.782 423.746 404.548 433.206 396.077C453.712 377.735 469.807 355.848 485.141 333.343C489.716 326.645 492.519 318.752 496.125 311.395C502.761 294.949 509.336 278.544 513.21 261.108C519.826 231.452 522.01 201.651 517.971 171.48C517.806 170.284 517.765 169.089 517.744 167.894C517.744 167.667 518.177 167.42 518.404 167.193C520.918 168.553 533.18 198.704 534.994 210.06C537.426 225.331 543.712 240.396 539.549 254.74C540.806 258.1 542.413 260.387 542.393 262.654Z"
              fill="#D91225"/>
    </g>
    <defs>
        <clipPath id="clip0_83_3197">
            <rect width="542" height="542" fill="white"/>
        </clipPath>
    </defs>
</svg>
