<svg width="542" height="542" viewBox="0 0 542 542" fill="none" xmlns="http://www.w3.org/2000/svg">
    <path fill-rule="evenodd" clip-rule="evenodd"
          d="M131.207 427.11C127.054 427.11 122.901 425.45 121.24 422.131C118.748 418.812 117.917 414.663 119.579 410.515L202.636 173.202H106.289C99.6446 173.202 93.8306 167.394 93.8306 160.756L93 59.5246C93 56.2055 93.8306 52.8865 96.3223 50.3972C98.814 47.9079 102.136 47.0781 105.459 47.0781H384.533C388.686 47.0781 392.839 48.7377 394.5 52.0567C396.992 55.3758 397.822 59.5246 396.161 63.6734L269.913 418.812C268.252 423.791 263.269 427.11 258.285 427.11H131.207Z"
          fill="#E4007C"/>
    <path d="M407.634 42.6343C402.658 35.1551 394.364 31 385.242 31H106.581C99.1165 31 91.6524 34.3241 86.6763 39.3102C81.7002 44.2964 78.3828 51.7756 78.3828 59.2548L79.2122 160.64C79.2122 176.429 91.6524 188.895 107.41 188.895H181.222L105.751 405.792C102.434 414.102 104.093 424.075 109.069 431.554C114.045 439.033 123.168 443.188 132.29 443.188H259.181C270.792 443.188 281.573 435.709 285.72 424.075L411.781 68.3961C414.269 60.0859 413.439 50.1136 407.634 42.6343ZM381.095 62.5789L256.693 412.44H136.437L225.177 158.147H109.898V62.5789H381.095Z"
          fill="#383367"/>
    <path d="M505.758 456.576C505.758 454.596 505.263 445.194 500.809 435.297C499.325 432.327 497.84 429.853 496.356 427.379C497.345 424.904 497.84 422.43 497.84 419.956V390.759C497.84 381.357 490.417 373.439 480.52 373.439H424.601C424.106 373.439 424.106 373.439 423.611 373.439C421.632 373.439 412.724 374.429 403.322 380.367C399.363 382.841 395.899 385.81 392.93 389.769C387.486 385.316 381.548 381.852 375.115 378.882C366.702 375.418 357.795 373.439 348.392 373.439C338.99 373.439 330.082 375.418 321.67 378.882C318.206 380.367 315.237 381.852 312.267 383.831C309.793 377.893 303.855 373.934 296.927 373.934H260.802C251.4 373.934 243.482 381.357 243.482 391.254V403.625C241.007 400.161 238.533 396.697 235.564 393.728C229.131 387.295 221.708 382.346 213.79 378.882C205.377 375.418 196.47 373.439 187.068 373.439C177.665 373.439 168.758 375.418 160.345 378.882C156.881 380.367 153.417 382.346 149.953 384.326C147.479 377.893 141.046 373.934 134.118 373.934H97.9927C91.0647 373.934 86.116 378.388 82.1572 383.831C80.6726 385.81 76.7137 391.749 76.7137 391.749L67.8062 380.367C64.3422 375.913 59.3936 373.439 54.445 373.439H18.3201C8.91777 373.439 1 380.862 1 390.759V494.185C1 503.587 8.42291 511.505 18.3201 511.505H54.445C63.8473 511.505 71.7651 504.082 71.7651 494.185V487.752C73.2497 488.247 75.2291 488.742 76.7137 488.742C78.1983 488.742 79.6829 488.742 80.6726 488.247V494.185C80.6726 503.587 88.0955 511.505 97.9927 511.505H134.118C141.54 511.505 147.974 506.557 149.953 500.123C152.922 502.103 156.386 504.082 159.85 505.567C168.263 509.031 177.17 511.01 186.573 511.01C195.975 511.01 204.883 509.031 213.295 505.567C216.264 504.082 219.234 503.092 221.708 501.113C224.182 507.051 230.615 511.505 237.543 511.505H258.328C262.286 511.505 275.648 509.526 288.019 501.113C292.473 498.144 296.432 494.68 299.896 490.721C299.896 490.721 299.896 490.721 300.391 491.216C306.824 497.649 314.247 502.598 322.165 506.062C330.577 509.526 339.485 511.505 348.887 511.505C358.29 511.505 367.197 509.526 375.61 506.062C381.053 503.587 386.497 500.618 390.95 497.154C391.94 505.567 399.363 512 407.776 512H463.695C464.19 512 464.19 512 464.685 512C466.664 512 475.572 511.01 484.974 505.072C490.912 501.113 495.861 496.164 499.325 490.226C503.284 483.298 505.758 474.885 505.758 465.483V456.576Z"
          fill="#383367"/>
    <path fill-rule="evenodd" clip-rule="evenodd"
          d="M260.806 390.759H296.931V447.173C296.931 489.731 260.311 494.185 258.332 494.185H237.548V457.07H253.383C253.383 457.07 260.311 456.575 260.311 444.204L260.806 390.759ZM463.699 427.873H441.925C441.925 427.873 437.966 427.378 437.966 423.914C437.966 420.45 442.42 419.956 442.42 419.956H481.019V390.759H425.1C425.1 390.759 400.357 392.243 400.357 419.956C400.357 454.596 418.667 456.575 425.1 456.575H446.874C446.874 456.575 450.833 457.07 450.833 460.534C450.833 463.998 446.379 464.493 446.379 464.493H407.78V493.69H463.699C463.699 493.69 488.442 492.205 488.442 464.493V457.07C488.442 457.07 487.947 427.873 463.699 427.873ZM76.7178 419.956L54.4491 390.759H18.3242V494.185H54.4491V443.214L76.7178 471.916L97.9968 444.699V494.185H134.122V390.759H97.9968L76.7178 419.956ZM238.537 442.224C238.537 470.431 215.279 493.69 187.072 493.69C158.37 493.69 135.606 470.431 135.606 442.224C135.606 414.017 158.865 390.759 187.072 390.759C215.279 390.759 238.537 414.017 238.537 442.224ZM201.423 442.719C201.423 434.801 194.99 427.873 187.072 427.873C179.154 427.873 172.226 434.307 172.226 442.719C172.226 450.637 178.659 457.07 186.577 457.565C194.99 457.07 201.423 450.637 201.423 442.719ZM400.357 442.224C400.357 470.431 377.098 493.69 348.891 493.69C320.189 493.69 297.426 470.431 297.426 442.224C297.426 414.017 320.684 390.759 348.891 390.759C377.098 390.759 400.357 414.017 400.357 442.224ZM363.242 442.719C363.242 434.801 356.809 427.873 348.891 427.873C340.973 427.873 334.045 434.307 334.045 442.719C334.045 450.637 340.479 457.07 348.396 457.565C356.809 457.07 363.242 450.637 363.242 442.719Z"
          fill="url(#paint0_linear_83_2763)"/>
    <path fill-rule="evenodd" clip-rule="evenodd"
          d="M397.668 358.008L412.019 357.513L407.07 351.574L413.009 356.523L413.504 342.667L413.998 356.523L419.937 351.08L414.493 357.513L428.844 358.008L414.493 358.503L419.442 364.441L413.504 359.492L412.514 373.843L412.019 359.492L406.575 364.936L412.019 358.503L397.668 358.008Z"
          fill="white"/>
    <path fill-rule="evenodd" clip-rule="evenodd"
          d="M512.473 312.48L525.834 311.985L520.885 306.542L526.329 310.995L526.824 298.129L527.318 310.995L533.257 306.047L528.308 311.985L541.669 312.48L528.308 312.975L532.762 318.418L527.318 313.47L526.329 326.831L525.834 313.47L519.896 318.913L524.844 312.975L512.473 312.48Z"
          fill="white"/>
    <defs>
        <linearGradient id="paint0_linear_83_2763" x1="253.304" y1="398.987" x2="253.304" y2="499.565"
                        gradientUnits="userSpaceOnUse">
            <stop offset="0.0644217" stop-color="#FFED2F"/>
            <stop offset="0.0953293" stop-color="#FEE222"/>
            <stop offset="0.1547" stop-color="#FED30F"/>
            <stop offset="0.2158" stop-color="#FDCA04"/>
            <stop offset="0.2809" stop-color="#FDC700"/>
            <stop offset="0.6685" stop-color="#F08F34"/>
            <stop offset="0.8876" stop-color="#E96131"/>
            <stop offset="1" stop-color="#E1312E"/>
        </linearGradient>
    </defs>
</svg>
