<svg width="32" height="32" viewBox="0 0 32 32" fill="none" xmlns="http://www.w3.org/2000/svg">
<path d="M6.59608 22.7941C6.63757 22.7941 6.67788 22.7941 6.71937 22.7941C7.08806 22.7941 7.33346 22.6294 7.45675 22.2571C7.62035 21.7616 7.78394 21.2649 7.94873 20.8096C8.48101 19.3621 9.01449 17.9158 9.54677 16.428C9.62857 16.1803 9.75186 16.0558 10.0388 16.0973C10.571 16.1388 11.1045 16.1388 11.6368 16.0973C12.0873 16.0558 12.0873 16.2621 12.0055 16.5928C11.7601 17.6681 11.555 18.7421 11.3084 19.8174C11.1851 20.3129 11.3499 20.5204 11.8407 20.5204C12.4145 20.5204 12.9468 20.5204 13.5205 20.5204C13.7659 20.5204 13.8477 20.4789 13.8892 20.1896C14.0125 18.9496 14.1761 17.7096 14.2994 16.4695C14.3409 16.2633 14.3409 16.0558 14.6681 16.0973C14.9953 16.1388 14.8317 16.3451 14.8317 16.511C14.7902 17.751 14.7084 18.9911 14.6266 20.2311C14.6266 20.4374 14.6681 20.5204 14.872 20.5204C15.6094 20.5204 16.3468 20.5204 17.0841 20.5204C17.2892 20.5204 17.3295 20.4789 17.3295 20.2311C17.2477 18.9911 17.2062 17.7096 17.1244 16.4695C17.1244 16.3451 17.0011 16.1388 17.288 16.0973C17.5749 16.0973 17.6567 16.1803 17.6567 16.428C17.78 17.7096 17.9436 18.9496 18.0669 20.2311C18.1084 20.4374 18.1902 20.5204 18.3941 20.5204C18.9679 20.5204 19.5417 20.5204 20.1154 20.5204C20.5659 20.5204 20.7295 20.3141 20.6477 19.8589C20.4023 18.7421 20.1972 17.6266 19.9507 16.5098C19.9092 16.2621 19.9092 16.1376 20.2375 16.1376C20.7698 16.1791 21.3436 16.1791 21.8759 16.1376C22.2031 16.1376 22.3264 16.2621 22.4497 16.5513C22.8599 17.7914 23.3103 19.0314 23.7608 20.2311C23.8841 20.5204 24.2113 20.6863 24.5397 20.5619C24.8266 20.4374 24.5397 20.2311 24.4982 20.0663C24.4982 19.9015 24.3749 19.7771 24.3749 19.6111C24.2931 19.2388 24.1295 18.9496 23.7608 18.8666C23.6375 18.8251 23.5154 18.7421 23.4336 18.6188C23.1882 18.2051 23.27 17.6681 23.6387 17.3788C24.0074 17.0481 24.6215 17.0481 24.9914 17.3373C25.3601 17.6266 25.4833 18.1233 25.1965 18.5358C25.0732 18.7006 25.0732 18.8666 25.155 19.0314C25.4004 19.6929 25.6469 20.3544 25.8923 21.0159C26.0156 21.3881 25.9338 21.5529 25.5237 21.5529C25.155 21.5529 24.8266 21.5529 24.4579 21.5529C24.2943 21.5529 24.2528 21.5944 24.2943 21.7592C24.5397 22.627 24.663 22.7515 25.6055 22.7929C25.8105 22.7929 26.0559 22.7929 26.261 22.7929C26.5479 22.7929 26.753 22.6685 26.9166 22.4207C27.162 21.9655 27.4489 21.5114 27.654 21.0562C28.6782 18.7824 28.8418 16.3854 28.2278 13.9871C28.1045 13.3256 27.8176 12.7056 27.5307 12.0856C26.261 9.27478 24.171 7.33176 21.3851 6.17353C18.8446 5.09829 16.182 4.80903 13.4779 5.30575C11.2266 5.72067 9.30019 6.54696 7.66184 7.86997C6.84266 8.53147 5.49002 9.81299 4.50724 11.756C4.09706 12.542 3.85167 13.2853 3.68688 13.782C3.68688 13.865 3.64539 13.9468 3.64539 14.0713C3.52328 14.6913 3.23639 15.9313 3.31819 17.3373C3.39999 18.7848 3.81017 20.1896 4.46575 21.5541C5.12133 22.8356 5.16282 22.8356 6.59608 22.7941ZM12.865 19.0326C12.3327 19.0326 11.8407 18.5773 11.8407 18.0818C11.8407 17.5863 12.2912 17.131 12.865 17.131C13.4387 17.131 13.8892 17.5448 13.9307 18.0818C13.9307 18.5358 13.4387 19.0326 12.865 19.0326ZM15.9793 18.9911C15.4055 18.9911 14.955 18.5773 14.955 18.0403C14.955 17.5448 15.447 17.0895 15.9793 17.0895C16.553 17.0895 17.0035 17.5448 17.0035 18.0403C17.0438 18.5773 16.553 18.9911 15.9793 18.9911ZM20.1178 18.0403C20.1178 18.5358 19.6673 18.9911 19.0935 19.0326C18.5613 19.0326 18.0278 18.6188 18.0278 18.1233C18.0278 17.5863 18.4783 17.131 19.0521 17.131C19.6661 17.0895 20.1178 17.5021 20.1178 18.0403ZM23.1906 15.725C22.8634 15.7665 22.535 15.725 22.2078 15.725C17.9057 15.725 13.645 15.725 9.34287 15.725C8.81058 15.725 8.3186 15.6836 7.78631 15.5603C6.76205 15.3125 5.90138 14.8158 5.3276 13.865C5.3276 13.6172 5.45089 13.782 5.53269 13.782C6.14559 14.0298 6.75968 14.2776 7.33346 14.5668C7.66065 14.7316 7.94754 14.7316 8.27592 14.5668C9.34168 14.1128 10.4477 13.699 11.5135 13.2853C11.7589 13.1608 12.0055 13.1608 12.2924 13.2853C13.3984 13.7405 14.5045 14.1531 15.6106 14.6083C15.856 14.7328 16.1025 14.7328 16.3894 14.6083C17.4552 14.1946 18.5198 13.782 19.5855 13.3268C19.9127 13.2023 20.1593 13.2023 20.4865 13.3268C21.5108 13.7405 22.5765 14.1531 23.6008 14.5668C23.928 14.6913 24.2564 14.6913 24.5836 14.5668C25.1976 14.319 25.8129 14.0713 26.427 13.8223C26.5088 13.7808 26.6321 13.6575 26.6321 13.9053C25.8532 15.1465 24.5836 15.5591 23.1906 15.725ZM12.9468 8.15923C14.9135 6.13322 17.5761 6.46398 19.2974 8.48998C20.0348 9.35776 20.5671 10.3085 20.9773 11.4253C17.6591 11.4253 14.3397 11.4253 10.98 11.4253C11.4305 10.1852 12.0458 9.0685 12.9468 8.15923ZM6.39099 11.839C9.58708 11.839 12.7832 11.839 15.9781 11.839C19.2145 11.839 22.452 11.839 25.6884 11.839C25.852 11.839 26.0571 11.839 26.2207 11.8805C26.5076 12.005 26.5894 12.1698 26.6309 12.459C26.7127 13.162 26.3855 13.4098 25.8117 13.5757C25.1976 13.7405 24.6239 14.1543 24.0501 14.1543C23.4763 14.1543 22.9025 13.7405 22.3288 13.5343C21.7147 13.328 21.0994 13.079 20.4853 12.8313C20.1581 12.7068 19.8297 12.7068 19.5025 12.8313C18.4368 13.2865 17.3722 13.699 16.3064 14.1128C16.0611 14.1958 15.8963 14.1958 15.6509 14.1128C14.5851 13.6575 13.5205 13.245 12.4548 12.8313C12.0861 12.6665 11.7577 12.6665 11.389 12.8313C10.3245 13.2853 9.21839 13.6575 8.15382 14.1128C7.94873 14.1958 7.74364 14.1958 7.49824 14.1128C6.88297 13.865 6.26888 13.6161 5.65361 13.4098C5.40822 13.3268 5.32642 13.2035 5.32642 12.9142C5.32642 11.8805 5.36672 11.839 6.39099 11.839ZM0 26.845C1.02427 26.225 2.13033 25.9357 3.23639 25.6464C6.84266 24.8201 10.4892 24.4064 14.1358 24.3234C14.546 24.3234 14.6278 24.1989 14.6278 23.8279C14.5863 22.7941 14.6278 22.7941 13.6035 22.7941C13.0712 22.7941 12.5378 22.7941 12.0055 22.7941C11.5135 22.7941 11.2266 22.5464 11.2266 22.1741C11.2266 21.8019 11.5135 21.5541 12.0055 21.5541C14.6693 21.5541 17.2904 21.5541 19.9542 21.5541C20.4865 21.5541 20.7734 21.8019 20.7734 22.2156C20.7734 22.5879 20.4865 22.8356 19.9542 22.8356C19.2168 22.8356 18.438 22.8356 17.7006 22.8356C17.4552 22.8356 17.3734 22.8771 17.3734 23.1249C17.4149 23.4971 17.2501 23.9927 17.4552 24.2416C17.6188 24.4894 18.1523 24.3246 18.4795 24.3661C22.1675 24.5309 25.8141 24.9031 29.4192 25.8539C30.198 26.0602 30.9354 26.3091 31.6313 26.6399C31.7546 26.6814 31.9182 26.7229 32 26.9291C21.3057 25.0264 10.6528 25.1912 0 26.845Z" fill="url(#paint0_linear_20826_907)"/>
<defs>
<linearGradient id="paint0_linear_20826_907" x1="32.4911" y1="10.2955" x2="32.4911" y2="27.0428" gradientUnits="userSpaceOnUse">
<stop stop-color="#FFAD0F"/>
<stop offset="1" stop-color="#F91E13"/>
</linearGradient>
</defs>
</svg>
