<svg width="32" height="32" viewBox="0 0 32 32" fill="none" xmlns="http://www.w3.org/2000/svg">
<g clip-path="url(#clip0_20702_397)">
<path d="M0.772613 5.18205C0.789848 5.13034 1.08859 3.94111 1.43904 2.54506L2.071 0H23.2588C23.2588 0 25.1432 7.52029 27.3091 16.1838C29.4749 24.8531 31.2444 31.954 31.2444 31.9713C31.2444 31.9885 29.7392 32 24.5514 32L23.8161 28.8287C23.4082 27.0822 23.0635 25.5943 23.029 25.3932H8.86741L8.24119 28.0761C7.90224 29.5583 7.55179 31.0406 7.31624 32H4.03006C0.921985 32 0.738142 31.9943 0.761123 31.8966C0.778358 31.8449 1.11157 30.5178 1.50798 28.9551C1.90439 27.3925 2.58805 24.675 3.03042 22.9228C3.47279 21.1706 4.21391 18.2463 4.67351 16.4309C5.13312 14.6154 5.71911 12.2829 6.45448 9.36445H9.48787C11.4642 9.36445 12.5155 9.38169 12.5155 9.4219C12.5155 9.45637 11.9697 11.8406 11.3091 14.7189C10.6426 17.6029 10.1026 19.9986 10.1026 20.033C10.1026 20.0905 11.3091 20.1077 15.9338 20.1077C21.0814 20.1077 21.7651 20.0962 21.7651 20.0215C21.7651 19.9756 21.0125 16.6837 20.099 12.7081C19.1798 8.73824 18.4157 5.44057 18.4042 5.38312C18.3755 5.2912 17.9044 5.28546 9.55681 5.28546C1.18626 5.28546 0.738142 5.27971 0.772613 5.18205Z" fill="white"/>
</g>
<defs>
<clipPath id="clip0_20702_397">
<rect width="32" height="32" fill="white" transform="translate(0.00195312)"/>
</clipPath>
</defs>
</svg>
