<svg width="542" height="542" viewBox="0 0 542 542" fill="none" xmlns="http://www.w3.org/2000/svg">
    <g clip-path="url(#clip0_83_2815)">
        <path d="M-0.417969 461.624C1.1879 457.948 2.7824 454.268 4.40248 450.601C7.14809 444.388 9.88233 438.172 12.7104 431.996C12.9463 431.484 13.8302 431.027 14.4498 430.973C17.6672 430.694 20.8989 430.6 24.1191 430.359C28.8202 430.006 33.5156 429.563 38.2167 429.193C42.787 428.835 47.3574 428.494 51.9334 428.202C58.8685 427.758 65.8035 427.335 72.7415 426.954C76.9594 426.721 81.1858 426.616 85.4037 426.391C95.8688 425.831 106.331 425.189 116.799 424.666C125.721 424.222 134.651 423.89 143.576 423.523C149.951 423.262 156.329 423.026 162.704 422.781C163.304 422.759 163.907 422.779 164.728 422.779C164.486 423.412 164.333 423.887 164.131 424.339C160.138 433.374 156.13 442.401 152.165 451.448C151.807 452.267 151.384 452.525 150.497 452.56C140.859 452.912 131.224 453.316 121.588 453.719C117.578 453.887 113.57 454.075 109.563 454.291C99.1431 454.848 88.7263 455.402 78.3094 455.999C70.6638 456.436 63.021 456.922 55.381 457.42C49.9893 457.769 44.6004 458.145 39.2115 458.551C26.8761 459.483 14.5465 460.444 2.21395 461.402C1.9951 461.419 1.78477 461.547 1.56876 461.624H-0.417969Z"
              fill="#4969F3"/>
        <path d="M540.874 461.623C539.538 461.447 538.208 461.208 536.87 461.106C525.182 460.21 513.495 459.287 501.799 458.477C488.549 457.559 475.292 456.706 462.036 455.91C451.383 455.271 440.725 454.711 430.067 454.199C418.547 453.645 407.022 453.19 395.496 452.69C394.979 452.667 394.439 452.485 393.947 452.579C390.744 453.187 389.317 451.661 388.135 448.756C384.772 440.488 381.038 432.371 377.454 424.191C377.269 423.773 377.121 423.338 376.996 423.011C380.083 423.011 383.093 422.923 386.097 423.028C396.349 423.378 406.598 423.784 416.847 424.191C420.374 424.33 423.899 424.529 427.426 424.705C438.929 425.285 450.437 425.802 461.934 426.464C475.525 427.249 489.111 428.121 502.692 429.031C510.965 429.585 519.231 430.262 527.493 430.938C527.968 430.978 528.63 431.416 528.82 431.842C533.172 441.437 537.472 451.058 541.772 460.677C541.903 460.969 541.932 461.305 542.006 461.62H540.869L540.874 461.623Z"
              fill="#4969F3"/>
        <path d="M441.298 236.634C439.38 236.634 437.618 236.699 435.864 236.622C430.103 236.372 424.347 236.034 418.586 235.801C406.211 235.298 393.836 234.803 381.458 234.38C370.873 234.016 360.286 233.729 349.698 233.462C341.14 233.249 332.582 233.101 324.021 232.959C316.455 232.836 308.887 232.723 301.318 232.677C286.129 232.581 270.94 232.484 255.751 232.484C245.439 232.484 235.13 232.632 224.819 232.751C218.122 232.828 211.423 232.947 204.727 233.092C199.864 233.197 195.003 233.374 190.143 233.519C184.282 233.658 178.419 233.749 172.561 233.948C160.609 234.351 148.658 234.781 136.709 235.264C125.658 235.71 114.61 236.233 103.563 236.73C102.542 236.776 101.525 236.872 100.234 236.966C101.28 234.619 102.21 232.521 103.148 230.423C111.228 212.404 119.312 194.384 127.398 176.367C128.029 174.96 128.688 173.567 129.336 172.169C132.372 165.364 135.404 158.557 138.443 151.753C140.427 147.308 142.445 142.879 144.389 138.42C144.764 137.564 145.202 137.238 146.165 137.209C155.095 136.95 164.023 136.575 172.953 136.339C181.366 136.115 189.782 136.035 198.195 135.856C207.828 135.652 217.457 135.384 227.092 135.191C233.098 135.072 239.107 135.015 245.112 134.975C252.067 134.927 259.019 134.895 265.974 134.91C281.823 134.944 297.671 134.941 313.517 135.077C325.102 135.18 336.687 135.444 348.272 135.706C358.433 135.936 368.594 136.248 378.755 136.55C384.237 136.712 389.717 136.953 395.2 137.084C396.368 137.112 396.936 137.573 397.397 138.605C410.36 167.587 423.355 196.561 436.341 225.535C437.979 229.19 439.607 232.851 441.298 236.634Z"
              fill="#4969F3"/>
        <path d="M482.276 328.16C480.417 328.049 478.695 327.947 476.972 327.844C466.215 327.205 455.457 326.551 444.696 325.932C441.825 325.764 438.946 325.718 436.072 325.576C428.819 325.224 421.566 324.795 414.309 324.493C403.446 324.041 392.58 323.644 381.715 323.274C372.074 322.95 362.433 322.657 352.792 322.424C341.966 322.166 331.137 321.975 320.311 321.782C314.493 321.68 308.677 321.626 302.859 321.554C295.859 321.472 288.858 321.392 281.858 321.313C274.857 321.33 267.854 321.341 260.854 321.361C254.751 321.378 248.646 321.364 242.544 321.432C235.831 321.509 229.12 321.68 222.409 321.785C218.061 321.853 213.712 321.85 209.364 321.935C199.865 322.123 190.363 322.33 180.864 322.566C174.771 322.72 168.674 322.905 162.583 323.132C150.398 323.584 138.214 324.07 126.032 324.553C122.303 324.701 118.574 324.863 114.847 325.062C103.2 325.69 91.5524 326.327 79.9049 326.986C73.6292 327.338 67.3592 327.753 61.0835 328.131C60.5833 328.163 60.0802 328.134 59.418 328.134C59.6226 327.591 59.7477 327.196 59.9154 326.821C64.9405 315.614 69.9741 304.407 75.002 293.2C77.1422 288.434 79.291 283.676 81.3942 278.895C81.7268 278.139 82.136 277.872 82.9745 277.832C94.6334 277.272 106.287 276.636 117.946 276.084C127.103 275.649 136.264 275.283 145.424 274.936C153.926 274.615 162.427 274.345 170.931 274.08C177.829 273.867 184.727 273.668 191.625 273.518C201.553 273.299 211.481 273.123 221.406 272.944C225.749 272.864 230.092 272.821 234.432 272.764C239.682 272.685 244.931 272.546 250.181 272.534C264.281 272.5 278.385 272.483 292.488 272.529C301.421 272.557 310.354 272.671 319.287 272.807C328.033 272.941 336.779 273.123 345.524 273.33C356.802 273.6 368.083 273.87 379.361 274.231C389.929 274.566 400.496 274.99 411.061 275.431C420.98 275.845 430.897 276.306 440.811 276.795C446.808 277.09 452.796 277.5 458.791 277.804C459.586 277.844 459.939 278.131 460.246 278.818C467.482 294.994 474.738 311.158 481.989 327.324C482.083 327.532 482.14 327.759 482.276 328.16Z"
              fill="#4969F3"/>
        <path d="M512.037 394.686C509.413 394.519 506.946 394.374 504.479 394.203C498.351 393.777 492.223 393.305 486.093 392.91C475.622 392.236 465.148 391.574 454.674 390.972C446.557 390.508 438.437 390.11 430.316 389.741C418.604 389.209 406.891 388.709 395.178 388.243C386.958 387.916 378.738 387.626 370.516 387.39C359.979 387.086 349.437 386.853 338.898 386.583C338.716 386.578 338.537 386.501 338.356 386.458C325.582 386.316 312.812 386.128 300.039 386.049C283.668 385.949 267.297 385.912 250.925 385.907C243.592 385.904 236.256 386.029 228.923 386.12C221.025 386.219 213.126 386.319 205.23 386.47C198.233 386.6 191.238 386.779 184.24 386.975C175.026 387.237 165.811 387.507 156.6 387.834C147.01 388.172 137.42 388.547 127.833 388.974C118.155 389.4 108.475 389.875 98.7996 390.389C88.8461 390.918 78.8897 391.463 68.9447 392.109C56.021 392.947 43.1058 393.891 30.1878 394.786C30.0514 394.797 29.9121 394.766 29.5938 394.735C29.733 394.308 29.824 393.919 29.9831 393.564C34.1698 384.204 38.3507 374.842 42.5885 365.505C42.8301 364.974 43.5208 364.328 44.0409 364.292C54.4606 363.564 64.8831 362.868 75.3113 362.268C87.8626 361.546 100.42 360.878 112.977 360.267C122.655 359.798 132.338 359.437 142.022 359.062C150.099 358.749 158.177 358.451 166.257 358.212C177.032 357.894 187.81 357.584 198.585 357.365C211.779 357.101 224.975 356.853 238.169 356.745C255.677 356.603 273.186 356.572 290.694 356.558C297.126 356.552 303.555 356.737 309.987 356.833C318.829 356.939 327.672 357.021 336.517 357.149C342.426 357.234 348.335 357.368 354.247 357.51C359.442 357.638 364.641 357.805 369.839 357.965C376.061 358.155 382.285 358.317 388.507 358.564C401.684 359.087 414.86 359.59 428.034 360.221C442.981 360.935 457.926 361.745 472.865 362.586C481.076 363.049 489.279 363.652 497.482 364.243C497.965 364.277 498.661 364.667 498.849 365.076C503.192 374.623 507.478 384.196 511.77 393.766C511.863 393.97 511.897 394.203 512.037 394.686Z"
              fill="#4969F3"/>
        <path d="M380.58 101.667C376.2 101.522 371.905 101.343 367.611 101.241C358.155 101.019 348.698 100.834 339.242 100.638C328.328 100.411 317.417 100.172 306.502 99.9647C301.017 99.8596 295.529 99.7572 290.043 99.7572C272.771 99.7572 255.498 99.743 238.226 99.8539C227.255 99.9249 216.284 100.175 205.316 100.417C194.725 100.65 184.138 100.96 173.551 101.261C169.395 101.38 165.243 101.565 160.945 101.724C161.133 101.247 161.266 100.857 161.434 100.485C164.075 94.5787 166.741 88.681 169.341 82.7578C169.702 81.9392 170.123 81.6379 171.007 81.6209C179.565 81.4418 188.12 81.1888 196.675 81.0155C207.504 80.7966 218.333 80.538 229.162 80.4612C249.93 80.3106 270.704 80.2651 291.478 80.2054C297.203 80.1884 302.93 80.2395 308.654 80.3191C320.384 80.484 332.114 80.663 343.841 80.8847C351.168 81.024 358.496 81.2514 365.823 81.4446C367.523 81.4901 369.228 81.5157 370.922 81.6493C371.34 81.6806 371.945 81.9932 372.102 82.3428C374.961 88.6213 377.766 94.9226 380.577 101.221C380.611 101.295 380.58 101.397 380.58 101.67V101.667Z"
              fill="#4969F3"/>
    </g>
    <defs>
        <clipPath id="clip0_83_2815">
            <rect width="542" height="542" fill="white"/>
        </clipPath>
    </defs>
</svg>
