<svg width="32" height="32" viewBox="0 0 32 32" fill="none" xmlns="http://www.w3.org/2000/svg">
<g clip-path="url(#clip0_20699_86)">
<path d="M2.70953 9.55861H3.74209C4.08474 9.55861 4.33014 9.49224 4.47832 9.3595C4.62649 9.22677 4.70057 9.06085 4.70057 8.86174C4.70057 8.71203 4.66276 8.57466 4.58713 8.44964C4.5115 8.32462 4.40346 8.22507 4.263 8.15099C4.12409 8.0769 3.95895 8.03986 3.76756 8.03986H2.70953V9.55861Z" fill="white"/>
<path d="M2.70953 7.4819H3.66801C3.82853 7.4819 3.97284 7.45103 4.10094 7.3893C4.23059 7.32756 4.33323 7.24113 4.40886 7.13C4.48603 7.01733 4.52462 6.88459 4.52462 6.73179C4.52462 6.53577 4.45594 6.37139 4.31857 6.23866C4.1812 6.10592 3.97052 6.03955 3.68653 6.03955H2.70953V7.4819Z" fill="white"/>
<path fill-rule="evenodd" clip-rule="evenodd" d="M0 5.49567C0 4.72411 0.625475 4.09863 1.39704 4.09863H6.00927C6.78083 4.09863 7.4063 4.72411 7.4063 5.49567V10.1079C7.4063 10.8795 6.78083 11.5049 6.00927 11.5049H1.39704C0.625475 11.5049 0 10.8795 0 10.1079V5.49567ZM1.99414 10.1721V5.43066H3.73052C4.06699 5.43066 4.34558 5.48623 4.56629 5.59736C4.787 5.70694 4.95215 5.85588 5.06174 6.04418C5.17132 6.23094 5.22611 6.44162 5.22611 6.67622C5.22611 6.87379 5.18984 7.04048 5.1173 7.1763C5.04476 7.31058 4.94752 7.41862 4.82559 7.50042C4.7052 7.58068 4.57247 7.63933 4.42738 7.67638C4.58369 7.68404 4.7362 7.77995 4.8849 7.87347L4.8881 7.87548C5.03936 7.96809 5.16438 8.10005 5.26316 8.27137C5.36194 8.4427 5.41133 8.65106 5.41133 8.89647C5.41133 9.13879 5.35422 9.35642 5.24001 9.54935C5.12733 9.74074 4.95293 9.89276 4.71678 10.0054C4.48063 10.1166 4.17889 10.1721 3.81155 10.1721H1.99414Z" fill="white"/>
<path d="M11.8832 6.29191H11.9202L12.6192 8.31536H11.1829L11.8832 6.29191Z" fill="white"/>
<path fill-rule="evenodd" clip-rule="evenodd" d="M8.1976 5.49567C8.1976 4.72411 8.82307 4.09863 9.59463 4.09863H14.2069C14.9784 4.09863 15.6039 4.72411 15.6039 5.49567V10.1079C15.6039 10.8795 14.9784 11.5049 14.2069 11.5049H9.59463C8.82307 11.5049 8.1976 10.8795 8.1976 10.1079V5.49567ZM10.5404 10.1721H9.78099L11.4873 5.43066H12.3138L14.0201 10.1721H13.2607L12.8272 8.91731H10.9746L10.5404 10.1721Z" fill="white"/>
<path d="M19.9648 7.76204C20.1963 7.76204 20.3846 7.72885 20.5297 7.66249C20.6763 7.59612 20.7836 7.49965 20.8515 7.37309C20.9194 7.24653 20.9534 7.0945 20.9534 6.917C20.9534 6.73796 20.9186 6.58285 20.8492 6.45165C20.7813 6.32046 20.674 6.22014 20.5274 6.15068C20.3823 6.07968 20.1917 6.04418 19.9555 6.04418H19.0572V7.76204H19.9648Z" fill="white"/>
<path fill-rule="evenodd" clip-rule="evenodd" d="M17.7931 4.09863C17.0216 4.09863 16.3961 4.72411 16.3961 5.49567V10.1079C16.3961 10.8795 17.0216 11.5049 17.7931 11.5049H22.4054C23.1769 11.5049 23.8024 10.8795 23.8024 10.1079V5.49567C23.8024 4.72411 23.1769 4.09863 22.4054 4.09863H17.7931ZM18.3419 5.43066V10.1721H19.0572V8.37787L20.0757 8.37755L21.039 10.1721H21.854L20.8046 8.25587C20.8532 8.23762 20.8997 8.21732 20.9441 8.19497C21.188 8.07304 21.3701 7.90249 21.4905 7.68332C21.6124 7.46261 21.6734 7.20717 21.6734 6.917C21.6734 6.62529 21.6132 6.36831 21.4928 6.14605C21.3724 5.92225 21.1903 5.74707 20.9464 5.62051C20.7041 5.49395 20.3993 5.43066 20.0319 5.43066H18.3419Z" fill="white"/>
<path d="M2.70953 17.7566H3.74209C4.08474 17.7566 4.33014 17.6902 4.47832 17.5575C4.62649 17.4247 4.70057 17.2588 4.70057 17.0597C4.70057 16.91 4.66276 16.7726 4.58713 16.6476C4.5115 16.5226 4.40346 16.423 4.263 16.3489C4.12409 16.2749 3.95895 16.2378 3.76756 16.2378H2.70953V17.7566Z" fill="white"/>
<path d="M2.70953 15.6799H3.66801C3.82852 15.6799 3.97284 15.649 4.10094 15.5873C4.23059 15.5255 4.33323 15.4391 4.40886 15.328C4.48603 15.2153 4.52462 15.0825 4.52462 14.9297C4.52462 14.7337 4.45594 14.5694 4.31857 14.4366C4.1812 14.3039 3.97052 14.2375 3.68653 14.2375H2.70953V15.6799Z" fill="white"/>
<path fill-rule="evenodd" clip-rule="evenodd" d="M0 13.6933C0 12.9217 0.625475 12.2962 1.39704 12.2962H6.00927C6.78083 12.2962 7.4063 12.9217 7.4063 13.6933V18.3055C7.4063 19.0771 6.78083 19.7025 6.00927 19.7025H1.39704C0.625475 19.7025 0 19.0771 0 18.3055V13.6933ZM1.99414 18.3701V13.6286H3.73052C4.06699 13.6286 4.34558 13.6842 4.56629 13.7953C4.787 13.9049 4.95215 14.0538 5.06174 14.2421C5.17132 14.4289 5.22611 14.6396 5.22611 14.8742C5.22611 15.0717 5.18984 15.2384 5.1173 15.3743C5.04476 15.5085 4.94752 15.6166 4.82559 15.6984C4.7052 15.7786 4.57247 15.8373 4.42738 15.8743C4.58369 15.882 4.7362 15.9779 4.8849 16.0714L4.8881 16.0734C5.03936 16.166 5.16438 16.298 5.26316 16.4693C5.36194 16.6407 5.41133 16.849 5.41133 17.0944C5.41133 17.3368 5.35422 17.5544 5.24001 17.7473C5.12733 17.9387 4.95292 18.0907 4.71678 18.2034C4.48063 18.3145 4.17889 18.3701 3.81155 18.3701H1.99414Z" fill="white"/>
<path d="M11.8832 14.4899H11.9202L12.6192 16.5133H11.1829L11.8832 14.4899Z" fill="white"/>
<path fill-rule="evenodd" clip-rule="evenodd" d="M9.59463 12.2962C8.82307 12.2962 8.1976 12.9217 8.1976 13.6933V18.3055C8.1976 19.0771 8.82307 19.7025 9.59463 19.7025H14.2069C14.9784 19.7025 15.6039 19.0771 15.6039 18.3055V13.6933C15.6039 12.9217 14.9784 12.2962 14.2069 12.2962H9.59463ZM10.5404 18.3701H9.78099L11.4873 13.6286H12.3138L14.0201 18.3701H13.2607L12.8272 17.1153H10.9746L10.5404 18.3701Z" fill="white"/>
<path d="M19.9657 15.96C20.1972 15.96 20.3855 15.9268 20.5306 15.8604C20.6772 15.7941 20.7845 15.6976 20.8524 15.571C20.9203 15.4445 20.9543 15.2925 20.9543 15.115C20.9543 14.9359 20.9195 14.7808 20.8501 14.6496C20.7822 14.5184 20.6749 14.4181 20.5283 14.3486C20.3832 14.2776 20.1926 14.2421 19.9564 14.2421H19.0582V15.96H19.9657Z" fill="white"/>
<path fill-rule="evenodd" clip-rule="evenodd" d="M16.3961 13.6933C16.3961 12.9217 17.0216 12.2962 17.7931 12.2962H22.4054C23.1769 12.2962 23.8024 12.9217 23.8024 13.6933V18.3055C23.8024 19.0771 23.1769 19.7025 22.4054 19.7025H17.7931C17.0216 19.7025 16.3961 19.0771 16.3961 18.3055V13.6933ZM18.3428 13.6286V18.3701H19.0582V16.5758H20.0305L20.0526 16.5758L20.0766 16.5755L21.0399 18.3701H21.8549L20.8055 16.4538C20.8541 16.4356 20.9006 16.4153 20.945 16.3929C21.1889 16.271 21.371 16.1005 21.4914 15.8813C21.6133 15.6606 21.6743 15.4051 21.6743 15.115C21.6743 14.8232 21.6141 14.5663 21.4937 14.344C21.3733 14.1202 21.1912 13.945 20.9473 13.8185C20.705 13.6919 20.4002 13.6286 20.0328 13.6286H18.3428Z" fill="white"/>
<path d="M28.2791 14.4899H28.3161L29.0152 16.5133H27.5788L28.2791 14.4899Z" fill="white"/>
<path fill-rule="evenodd" clip-rule="evenodd" d="M25.9907 12.2962C25.2192 12.2962 24.5937 12.9217 24.5937 13.6933V18.3055C24.5937 19.0771 25.2192 19.7025 25.9907 19.7025H30.603C31.3745 19.7025 32 19.0771 32 18.3055V13.6933C32 12.9217 31.3745 12.2962 30.603 12.2962H25.9907ZM26.9363 18.3701H26.1769L27.8832 13.6286H28.7097L30.416 18.3701H29.6566L29.2231 17.1153H27.3705L26.9363 18.3701Z" fill="white"/>
<path d="M3.74209 25.9545H2.70953V24.4358H3.76756C3.95895 24.4358 4.12409 24.4728 4.263 24.5469C4.40346 24.621 4.5115 24.7205 4.58713 24.8456C4.66276 24.9706 4.70057 25.1079 4.70057 25.2577C4.70057 25.4568 4.62649 25.6227 4.47831 25.7554C4.33014 25.8882 4.08474 25.9545 3.74209 25.9545Z" fill="white"/>
<path d="M3.66801 23.8778H2.70953V22.4355H3.68653C3.97052 22.4355 4.1812 22.5018 4.31857 22.6346C4.45594 22.7673 4.52462 22.9317 4.52462 23.1277C4.52462 23.2805 4.48603 23.4132 4.40886 23.5259C4.33323 23.637 4.23059 23.7235 4.10094 23.7852C3.97284 23.847 3.82853 23.8778 3.66801 23.8778Z" fill="white"/>
<path fill-rule="evenodd" clip-rule="evenodd" d="M0 21.8918C0 21.1202 0.625475 20.4947 1.39704 20.4947H6.00927C6.78083 20.4947 7.4063 21.1202 7.4063 21.8918V26.504C7.4063 27.2756 6.78083 27.901 6.00927 27.901H1.39704C0.625475 27.901 0 27.2756 0 26.504V21.8918ZM1.99414 21.8266V26.568H3.81155C4.17889 26.568 4.48063 26.5125 4.71678 26.4014C4.95293 26.2887 5.12734 26.1367 5.24001 25.9453C5.35422 25.7523 5.41133 25.5347 5.41133 25.2924C5.41133 25.047 5.36194 24.8386 5.26316 24.6673C5.16438 24.496 5.03936 24.364 4.8881 24.2714L4.88491 24.2694C4.7362 24.1759 4.58369 24.08 4.42738 24.0723C4.57246 24.0353 4.7052 23.9766 4.82559 23.8963C4.94752 23.8145 5.04476 23.7065 5.1173 23.5722C5.18984 23.4364 5.22612 23.2697 5.22612 23.0721C5.22612 22.8375 5.17132 22.6269 5.06174 22.4401C4.95215 22.2518 4.78701 22.1029 4.56629 21.9933C4.34558 21.8821 4.06699 21.8266 3.73052 21.8266H1.99414Z" fill="white"/>
<path d="M11.9202 22.6878H11.8832L11.1829 24.7113H12.6192L11.9202 22.6878Z" fill="white"/>
<path fill-rule="evenodd" clip-rule="evenodd" d="M9.59463 20.4947C8.82307 20.4947 8.1976 21.1202 8.1976 21.8918V26.504C8.1976 27.2756 8.82307 27.901 9.59463 27.901H14.2069C14.9784 27.901 15.6039 27.2756 15.6039 26.504V21.8918C15.6039 21.1202 14.9784 20.4947 14.2069 20.4947H9.59463ZM9.78099 26.568H10.5404L10.9746 25.3132H12.8272L13.2607 26.568H14.0201L12.3138 21.8266H11.4873L9.78099 26.568Z" fill="white"/>
<path fill-rule="evenodd" clip-rule="evenodd" d="M16.3961 21.8918C16.3961 21.1202 17.0216 20.4947 17.7931 20.4947H22.4054C23.1769 20.4947 23.8024 21.1202 23.8024 21.8918V26.504C23.8024 27.2756 23.1769 27.901 22.4054 27.901H17.7931C17.0216 27.901 16.3961 27.2756 16.3961 26.504V21.8918ZM22.0124 21.8266V26.568H21.3549L18.9448 23.0907H18.9008V26.568H18.1854V21.8266H18.8476L21.26 25.3086H21.3039V21.8266H22.0124Z" fill="white"/>
<path fill-rule="evenodd" clip-rule="evenodd" d="M25.9907 20.4947C25.2192 20.4947 24.5937 21.1202 24.5937 21.8918V26.504C24.5937 27.2756 25.2192 27.901 25.9907 27.901H30.603C31.3745 27.901 32 27.2756 32 26.504V21.8918C32 21.1202 31.3745 20.4947 30.603 20.4947H25.9907ZM29.1472 22.6603C29.2506 22.739 29.3393 22.8347 29.4134 22.9474L30.0964 22.6927C29.9822 22.5013 29.8379 22.3362 29.6635 22.1973C29.4906 22.0583 29.293 21.9511 29.0708 21.8754C28.8501 21.7998 28.6116 21.762 28.3554 21.762C28.0483 21.762 27.765 21.8183 27.5057 21.931C27.248 22.0421 27.0234 22.2034 26.832 22.4149C26.6422 22.6248 26.4948 22.8802 26.3898 23.1812C26.2849 23.4822 26.2324 23.8217 26.2324 24.1999C26.2324 24.7 26.3227 25.1321 26.5033 25.4964C26.6839 25.8591 26.9354 26.1392 27.258 26.3368C27.5821 26.5343 27.9587 26.6331 28.3878 26.6331C28.7706 26.6331 29.1101 26.5536 29.4065 26.3947C29.7044 26.2357 29.9374 26.0103 30.1057 25.7186C30.2754 25.4254 30.3603 25.0796 30.3603 24.6814V24.142H28.4966V24.7324L29.6681 24.6976C29.6681 24.9585 29.6149 25.1854 29.5084 25.3783C29.4034 25.5697 29.2545 25.7179 29.0615 25.8228C28.8701 25.9278 28.6456 25.9802 28.3878 25.9802C28.11 25.9802 27.8623 25.9116 27.6446 25.7742C27.427 25.6368 27.2557 25.4354 27.1307 25.1699C27.0057 24.9045 26.9432 24.5796 26.9432 24.1952C26.9432 23.8125 27.0049 23.4891 27.1284 23.2252C27.2534 22.9597 27.4232 22.7583 27.6377 22.6209C27.8522 22.4836 28.093 22.4149 28.36 22.4149C28.5175 22.4149 28.6618 22.4357 28.793 22.4774C28.9257 22.5191 29.0438 22.58 29.1472 22.6603Z" fill="white"/>
</g>
<defs>
<clipPath id="clip0_20699_86">
<rect width="32" height="32" fill="white" transform="translate(0.00195312)"/>
</clipPath>
</defs>
</svg>
