<svg width="542" height="542" viewBox="0 0 542 542" fill="none" xmlns="http://www.w3.org/2000/svg">
    <path d="M383.147 252.012C381.192 238.024 377.105 224.568 368.219 213.119C367.254 211.062 366.569 208.803 365.249 207C337.932 169.757 301.247 151.934 255.244 158.002C219.397 162.699 190.963 180.826 172.608 212.915C160.041 233.2 154.811 255.211 156.994 278.974C158.061 302.28 166.083 322.92 180.935 340.894C181.341 341.631 181.646 342.443 182.179 343.078C212.695 378.62 251.208 391.72 296.804 381.895C322.699 376.31 344.075 362.296 360.273 340.996C375.48 323.123 382.512 302.102 384.239 279.05C383.934 270.038 384.391 260.898 383.147 252.012ZM244.81 227.767C261.921 217.561 279.896 217.485 296.981 228.097C313.788 238.506 321.633 254.069 320.77 273.922C320.694 275.597 320.719 277.273 320.693 278.949C317.469 292.226 311.478 303.854 300.18 312.054C270.781 333.405 228.13 316.446 220.92 280.624C220.793 280.015 220.438 279.482 220.184 278.898C218.61 257.141 225.642 239.166 244.81 227.767Z"
          fill="url(#paint0_linear_83_3157)"/>
    <path d="M495.284 375.396C481.041 381.362 464.286 376.64 457.456 363.388C450.551 350.009 445.093 335.893 439 322.082C429.378 300.528 419.73 278.974 410.083 257.395C402.188 240.004 394.038 222.715 386.498 205.147C380.405 190.955 388.275 173.209 402.898 166.609C417.319 160.109 435.775 165.593 442.249 179.429C453.902 204.385 464.717 229.722 475.888 254.881C485.637 276.842 495.36 298.777 505.109 320.737C507.724 327.338 510.948 333.761 512.877 340.565C516.99 355.162 509.501 369.43 495.284 375.396Z"
          fill="url(#paint1_linear_83_3157)"/>
    <path d="M139.349 375.089C125.259 381.334 107.665 377.145 101.09 364.172C92.0772 346.426 84.7148 327.842 76.6416 309.64C67.0704 288.669 57.4739 267.699 47.9536 246.704C46.9127 244.419 46.1511 242.032 45.2625 239.697C40.0073 227.358 34.5743 215.071 29.4968 202.656C23.226 187.221 33.3811 172.115 46.4049 166.53C61.7644 159.929 78.6726 165.336 85.3241 179.604C94.3621 199 102.638 218.752 111.245 238.351C121.603 261.175 131.936 283.998 142.294 306.822C146.965 317.814 152.297 328.604 156.13 339.902C160.979 354.22 153.515 368.843 139.349 375.089Z"
          fill="url(#paint2_linear_83_3157)"/>
    <defs>
        <linearGradient id="paint0_linear_83_3157" x1="270.375" y1="156.837" x2="270.375" y2="385.058"
                        gradientUnits="userSpaceOnUse">
            <stop stop-color="#F7AA1D"/>
            <stop offset="1" stop-color="#FD911B"/>
        </linearGradient>
        <linearGradient id="paint1_linear_83_3157" x1="449.211" y1="163.888" x2="449.211" y2="377.943"
                        gradientUnits="userSpaceOnUse">
            <stop stop-color="#F7AA1D"/>
            <stop offset="1" stop-color="#FD911B"/>
        </linearGradient>
        <linearGradient id="paint2_linear_83_3157" x1="92.6011" y1="163.739" x2="92.6011" y2="377.938"
                        gradientUnits="userSpaceOnUse">
            <stop stop-color="#F7AA1D"/>
            <stop offset="1" stop-color="#FD911B"/>
        </linearGradient>
    </defs>
</svg>
