<svg width="32" height="32" viewBox="0 0 32 32" fill="none" xmlns="http://www.w3.org/2000/svg">
<path d="M1.4985 21.9155V9.89331L7.56373 15.9585L1.4985 21.9155Z" fill="#FDE100"/>
<path d="M30.5015 9.96558V21.9877L24.4362 15.9827L30.5015 9.96558Z" fill="#FDE100"/>
<path fill-rule="evenodd" clip-rule="evenodd" d="M20.8496 12.5283C20.8621 13.5291 20.5728 14.5104 20.0192 15.3443H10.801V0.000690961H15.6508C16.964 -0.0210556 18.2336 0.471262 19.1889 1.37259C20.1558 2.24859 20.7466 3.46461 20.8375 4.76623C20.8496 4.91842 20.8496 5.07133 20.8375 5.22353L20.8496 12.5283ZM17.3356 5.07912C17.3104 4.64216 17.1162 4.23214 16.794 3.93587C16.4717 3.634 16.0442 3.46992 15.6027 3.47857H14.2308V14.2612H15.6267C15.8546 14.2622 16.0803 14.218 16.291 14.1312C16.5017 14.0445 16.6931 13.9169 16.8542 13.7558C17.0153 13.5947 17.1429 13.4032 17.2297 13.1926C17.3164 12.9819 17.3606 12.7561 17.3597 12.5283L17.3476 5.22353L17.3356 5.07912Z" fill="white"/>
<path fill-rule="evenodd" clip-rule="evenodd" d="M20.3923 16.6677C20.8514 17.379 21.1245 18.1942 21.1866 19.0385C21.1986 19.1867 21.1986 19.3356 21.1866 19.4837L21.1986 26.7885C21.2036 27.4734 21.0709 28.1523 20.8083 28.7849C20.5458 29.4175 20.1587 29.9909 19.6702 30.471C19.1965 30.9646 18.626 31.3551 17.9945 31.618C17.3629 31.881 16.6839 32.0108 15.9998 31.9993H10.8131V16.6677H20.3923ZM17.5768 27.4612C17.6658 27.2482 17.7106 27.0193 17.7087 26.7885L17.7327 19.4958L17.7207 19.3514C17.6857 18.9145 17.4882 18.5066 17.1671 18.2081C16.8564 17.9109 16.4418 17.7468 16.0119 17.7508H14.2789V28.5335H15.9998C16.2222 28.5334 16.4422 28.4887 16.6469 28.4018C16.8516 28.315 17.0367 28.1879 17.1912 28.028C17.3567 27.8671 17.4879 27.6743 17.5768 27.4612Z" fill="white"/>
</svg>
