<svg width="542" height="542" viewBox="0 0 542 542" fill="none" xmlns="http://www.w3.org/2000/svg">
    <path d="M18.2305 58.8301V483.361H26.3993C132.251 483.361 174.238 483.361 280.09 483.361C287.032 483.361 290.514 479.765 290.534 472.573C290.534 338.379 290.534 204.186 290.534 70.0233C290.534 62.5819 286.918 58.8613 279.684 58.8613C174.082 58.8301 132.376 58.8301 26.7735 58.8301H18.2305Z"
          fill="#1A2632"/>
    <path d="M0 58.8327H8.543C114.146 58.8327 183.538 58.8372 289.141 58.8372C299.991 58.8322 299.991 57.5665 299.991 69.9992C299.991 204.193 299.991 338.386 299.991 472.549C299.991 483.337 299.991 483.337 289.546 483.337C183.694 483.337 114.021 483.333 8.16885 483.333H0V58.8327ZM207.258 273.312C209.753 271.035 210.906 269.539 212.372 268.666C229.052 258.813 237.19 243.536 239.56 224.953C243.426 194.99 235.725 167.865 210.782 151.216C193.477 139.679 173.492 136.031 153.194 135.47C127.846 134.753 102.467 135.283 77.0875 135.314C66.2373 135.314 65.5825 135.938 65.5825 146.695C65.5825 234.525 65.6449 322.356 65.4266 410.156C65.4266 417.608 67.7962 420.102 75.2168 420.008C102.124 419.665 129.062 420.383 155.969 419.665C168.815 419.322 181.848 417.857 194.288 414.833C209.285 411.185 222.006 403.109 232.046 390.638C242.116 378.135 246.107 363.637 247.916 348.484C250.129 329.87 247.261 311.911 237.471 295.417C230.798 284.162 220.572 277.739 207.196 273.28L207.258 273.312Z"
          fill="#FCCA2A"/>
    <path d="M119.396 375.677C118.523 369.441 117.026 363.236 116.932 357.001C116.652 338.699 117.088 320.397 116.932 302.064C116.932 297.543 117.587 294.144 122.919 294.269C137.885 294.581 152.85 294.83 167.785 295.485C175.86 295.828 181.348 301.128 184.403 307.832C191.2 322.673 191.949 338.262 187.584 354.039C184.809 364.047 178.324 370.439 168.409 373.432C166.444 374.024 164.636 374.991 162.734 375.802C148.298 375.77 133.831 375.739 119.396 375.677Z"
          fill="#F9C82B"/>
    <path d="M116.871 216.752C116.871 206.931 116.902 197.141 116.871 187.32C116.871 181.894 118.305 178.496 124.884 179.151C136.14 180.273 147.489 180.273 158.682 181.801C172.588 183.703 179.198 193.992 180.538 206.495C181.567 216.222 180.632 226.636 178.169 236.114C174.957 248.461 164.793 254.136 152.477 254.915C142.687 255.539 132.835 255.009 122.982 255.133C118.274 255.196 116.778 253.232 116.933 248.492C117.276 237.923 117.058 227.322 117.058 216.752C116.996 216.752 116.965 216.752 116.902 216.752H116.871Z"
          fill="#F8C72B"/>
    <path d="M119.398 375.669C133.834 375.7 148.301 375.731 162.737 375.794C152.261 376.417 141.816 377.259 131.34 377.508C127.38 377.602 123.389 376.324 119.398 375.7V375.669Z"
          fill="#1A2632"/>
    <path d="M541.999 258.172V318.984C541.506 347.441 531.953 371.568 513.648 390.808C495.096 409.985 471.552 420.007 443.57 420.502C421.752 420.007 403.385 414.378 388.84 403.861C374.294 393.963 363.447 382.147 356.729 368.846C354.695 364.516 352.969 360.618 351.367 356.845C349.702 352.452 348.408 347.194 347.422 341.069C345.573 329.81 344.648 309.148 344.648 277.783C344.648 246.418 345.573 225.075 347.422 214.125C349.456 202.804 352.661 193.463 356.914 186.348C363.447 173.481 374.233 161.541 388.901 151.272C403.447 140.817 421.752 135.311 443.385 135.063C470.011 135.311 491.953 143.663 508.84 159.809C525.481 175.893 536.144 196.061 540.458 219.693L541.814 226.993H488.193L486.899 222.601C484.002 212.888 478.763 204.474 471.182 197.669C463.663 191.421 454.418 188.142 443.201 187.957C435.25 188.142 428.1 189.875 422.368 192.968C416.452 196.185 411.583 200.268 408.008 205.031C403.385 210.352 400.427 216.847 399.009 224.766C397.16 234.045 396.236 251.862 396.236 277.783C396.236 303.704 397.16 321.397 398.948 330.305C400.488 338.595 403.385 345.214 407.7 350.101C411.583 355.236 416.39 359.195 422.245 362.165C428.347 365.877 435.25 367.609 443.324 367.609C457.007 367.609 467.916 362.969 476.729 353.318C485.789 343.977 490.227 331.975 490.412 316.571V308.838H437.53V258.172H541.999Z"
          fill="#FCCA2A"/>
</svg>
