<svg width="542" height="542" viewBox="0 0 542 542" fill="none" xmlns="http://www.w3.org/2000/svg">
    <path d="M270.933 541.977C415.409 541.977 532.529 420.828 532.529 271.382C532.529 121.937 415.409 0.787109 270.933 0.787109C126.457 0.787109 9.33594 121.937 9.33594 271.382C9.33594 420.828 126.457 541.977 270.933 541.977Z"
          fill="white"/>
    <path d="M247.785 1.77091C394.007 -10.8403 522.505 99.2519 535.116 248.2C542.614 336.478 507.167 423.052 440.361 479.632C344.585 560.753 206.543 562.798 108.381 485.427C-7.50585 393.74 -28.6381 223.66 61.3444 105.387C106.336 46.0805 174.163 8.58776 247.785 1.77091ZM249.83 10.9737C108.721 22.5623 3.40112 148.674 14.6489 292.51C25.8967 436.345 149.623 543.711 290.731 532.122C432.181 520.533 537.161 394.763 525.913 250.586C519.437 168.784 475.468 95.1618 407.641 50.8523C360.945 20.5173 305.729 6.54271 249.83 10.9737Z"
          fill="#E40707"/>
    <path d="M233.82 24.6121C356.183 5.52488 473.432 82.5553 506.835 204.236C525.241 271.382 515.356 347.049 477.182 405.333C442.416 421.353 403.219 424.08 365.726 422.375C303.011 419.308 241.659 402.607 178.604 400.902C143.156 399.88 106.686 404.652 73.624 419.308C-6.47401 308.193 17.0441 151.746 126.114 70.285C157.471 46.426 194.623 31.0881 233.82 24.6121ZM270.631 29.3839C265.518 44.7218 260.747 60.0597 255.634 75.7385C239.614 75.7385 223.595 75.3976 207.575 76.0793C220.527 85.6229 233.479 95.1665 246.431 105.051C241.659 120.389 236.547 135.727 231.775 151.406C244.727 141.862 257.679 132.318 270.631 122.775C283.583 132.318 296.535 141.862 309.487 151.406C304.715 136.068 299.603 120.389 294.831 105.051C307.783 95.5074 320.735 85.9638 333.687 76.0793C317.667 75.7385 301.648 76.0793 285.628 76.0793C280.516 60.0597 275.403 44.7218 270.631 29.3839ZM159.176 89.713C157.471 97.5524 156.449 105.392 154.745 113.231L131.226 116.299L152.018 127.887C150.654 135.727 149.291 143.907 147.928 151.406C153.722 145.952 159.516 140.499 165.311 134.704C172.128 138.454 178.944 142.544 186.102 145.952C182.694 138.794 179.285 131.296 175.877 124.138C181.671 118.685 187.465 112.89 192.919 107.437C185.08 108.459 177.24 109.482 169.401 110.504C165.992 104.369 162.584 97.2116 159.176 89.713ZM371.861 111.527L348.343 108.459C354.138 114.254 359.591 119.707 365.385 125.161C361.977 132.318 358.568 139.817 355.16 146.975L375.951 135.727C381.746 141.18 387.54 146.975 393.334 152.428C391.63 144.589 390.608 136.408 389.244 128.569C396.061 124.82 402.878 120.73 410.036 116.98L386.518 113.913C384.813 106.073 383.791 97.8933 382.087 90.3947C378.678 97.2116 375.27 104.369 371.861 111.527ZM84.531 145.952C84.8718 150.724 85.2127 155.496 85.5535 160.267L72.2607 165.721L85.8944 169.129C86.2352 173.901 86.576 178.673 86.9169 183.445C89.3028 179.355 91.6887 175.265 94.4154 171.515L108.049 174.583L99.1872 163.676L106.686 151.406L93.3929 156.859C90.6662 153.11 87.5986 149.36 84.531 145.952ZM447.528 156.859L434.576 151.406L442.075 163.676C439.007 167.425 435.94 170.834 432.872 174.583L446.506 171.515L454.004 183.445L455.027 169.129L468.661 165.721L455.709 160.267L456.731 145.952L447.528 156.859ZM120.66 181.741C105.663 185.831 91.3478 195.374 83.8493 209.349C83.1676 258.43 83.8493 307.511 83.5085 356.934C94.7563 364.773 107.027 370.227 120.319 373.635C135.657 377.725 151.336 376.703 167.015 375.68C182.694 374.657 198.713 370.567 210.302 359.66C228.367 343.641 233.82 315.351 224.276 292.855C219.164 280.244 207.916 271.382 195.987 265.929C207.916 258.43 217.119 245.478 216.437 230.822C216.778 204.577 194.282 181.741 169.401 179.014C153.381 177.31 136.68 177.31 120.66 181.741ZM188.147 177.991C205.871 184.467 217.46 200.828 223.595 218.211H247.113V376.021H287.332V218.211H309.487C321.417 200.146 338.118 184.808 358.568 177.991C301.648 178.332 244.727 177.991 188.147 177.991ZM363.681 183.445C341.867 191.284 324.143 206.963 313.918 228.095C302.67 250.932 300.966 277.176 304.715 302.058C308.124 325.576 319.712 347.731 338.459 362.387C356.183 376.362 379.36 380.793 400.833 379.088C422.647 377.384 445.483 371.249 462.866 356.934V262.52H397.425V298.65H422.988V334.779C409.695 343.982 391.971 343.982 376.974 338.528C360.614 332.052 349.366 315.692 345.957 298.65C342.549 281.267 343.571 263.202 350.047 246.841C356.183 231.844 368.794 219.574 384.473 216.507C403.901 211.394 424.01 219.915 438.667 232.526C444.461 221.278 449.914 210.03 456.049 198.783C431.509 175.946 394.357 173.219 363.681 183.445Z"
          fill="#E40707"/>
    <path d="M131.224 223.66C141.45 211.049 164.968 213.094 171.785 228.773C174.511 237.294 170.762 249.224 161.219 251.609C150.312 254.677 139.064 252.973 127.816 253.314C128.498 243.77 125.43 232.522 131.224 223.66ZM127.816 286.035C141.79 286.716 156.447 283.99 169.74 289.443C189.168 297.282 187.804 331.026 168.376 337.843C155.083 339.547 140.427 340.569 127.816 334.093V286.035ZM204.846 412.487C276.083 419.645 346.978 439.073 418.896 430.552C435.938 428.848 452.639 424.758 468.999 418.282C456.388 434.983 443.095 451.002 426.394 463.614C413.101 466 399.808 464.636 386.856 463.273C348.341 458.16 311.53 446.231 274.719 433.96C251.542 426.803 228.705 417.941 204.846 412.487ZM158.151 427.825C188.827 428.507 218.139 439.073 247.452 448.617C295.851 464.295 343.569 483.383 394.696 487.473C372.882 499.743 350.045 509.627 325.505 515.081C322.096 516.103 319.37 513.377 316.302 512.354C285.967 495.312 256.995 475.884 226.66 457.819C204.846 445.208 182.351 433.62 158.151 427.825ZM119.977 468.726C141.45 470.09 163.264 473.157 182.692 482.701C204.846 492.585 224.274 506.901 244.043 520.534C199.052 514.74 156.106 497.016 119.977 468.726Z"
          fill="#E40707"/>
</svg>
