<svg width="542" height="542" viewBox="0 0 542 542" fill="none" xmlns="http://www.w3.org/2000/svg">
    <g clip-path="url(#clip0_83_2953)">
        <path d="M358.882 401.981V464.932C358.882 470.687 354.216 475.352 348.461 475.352H333.706C331.45 475.352 329.273 474.633 327.465 473.272C315.586 464.388 294.784 448.776 281.856 439.075C279.231 437.112 277.695 434.02 277.695 430.735V346.651L305.283 370.603C320.272 384.795 338.527 395.41 358.882 401.981Z"
              fill="#D60006"/>
        <path d="M263.558 77.2359V192.931L235.971 168.94C220.981 154.748 202.707 144.153 182.371 137.562V111.414C182.371 108.128 183.907 105.037 186.551 103.073C198.663 94.0137 220.34 77.7219 232.141 68.8761C233.949 67.5152 236.126 66.7959 238.381 66.7959H253.137C258.892 66.8153 263.558 71.4812 263.558 77.2359Z"
              fill="#D60006"/>
        <path d="M409.837 144.212C353.905 144.212 309.384 172.013 289.302 215.328L359.31 276.16C359.096 274.079 358.999 271.96 358.999 269.783C358.999 238.638 380.228 217.136 409.837 217.136C425.527 217.136 438.863 223.221 447.942 233.564C448.798 234.536 449.614 235.547 450.392 236.597C450.547 236.811 450.722 237.024 450.878 237.258C451.111 237.588 451.345 237.938 451.578 238.288C451.792 238.619 452.025 238.949 452.239 239.28C452.433 239.571 452.608 239.882 452.783 240.174C453.036 240.582 453.269 240.971 453.503 241.379C453.658 241.632 453.794 241.904 453.95 242.176C454.202 242.643 454.455 243.09 454.688 243.576C454.805 243.809 454.922 244.062 455.038 244.296C455.291 244.801 455.524 245.326 455.758 245.831C455.855 246.045 455.952 246.279 456.049 246.492C456.283 247.056 456.516 247.601 456.749 248.164C456.827 248.359 456.905 248.573 456.982 248.767C457.216 249.37 457.43 249.972 457.624 250.594C457.682 250.769 457.741 250.964 457.799 251.139C458.013 251.8 458.207 252.441 458.402 253.122C458.441 253.277 458.499 253.433 458.538 253.588C458.732 254.308 458.907 255.027 459.082 255.746C459.102 255.863 459.14 255.98 459.16 256.096C459.335 256.874 459.49 257.671 459.646 258.488C459.665 258.546 459.665 258.604 459.685 258.682C460.326 262.22 460.637 265.934 460.637 269.783C460.637 300.928 439.408 322.43 409.818 322.43C394.109 322.43 383.592 315.762 371.655 306.041L226.215 179.653C202.749 157.354 169.699 144.212 131.361 144.212C54.5096 144.212 -0.800781 196.742 -0.800781 269.802C-0.800781 301.55 9.71694 329.468 27.9334 350.872C28.0112 350.95 28.0695 351.047 28.1473 351.125C28.4583 351.495 28.7888 351.864 29.1193 352.233C29.4693 352.622 29.8192 353.03 30.1692 353.419C30.2275 353.478 30.2664 353.536 30.3247 353.594C53.9458 379.684 89.4455 395.393 131.361 395.393C187.06 395.393 231.658 367.475 251.819 324.238L181.889 263.523C182.083 265.564 182.2 267.664 182.2 269.822C182.2 300.967 160.97 322.469 131.38 322.469C115.652 322.469 102.296 316.403 93.2366 306.06C92.284 304.972 91.3897 303.844 90.5343 302.678C90.4759 302.6 90.4176 302.541 90.3788 302.464C90.0483 302.017 89.7372 301.55 89.4455 301.083C89.3095 300.87 89.1734 300.675 89.0373 300.461C88.7651 300.053 88.5318 299.625 88.2791 299.217C88.1235 298.945 87.9486 298.673 87.793 298.401C87.5597 298.012 87.3459 297.603 87.132 297.195C86.9571 296.884 86.8015 296.573 86.6265 296.262C86.4321 295.873 86.2183 295.465 86.0239 295.057C85.8683 294.726 85.7128 294.396 85.5573 294.065C85.3629 293.657 85.1879 293.249 85.0129 292.821C84.8769 292.49 84.7213 292.14 84.5852 291.81C84.4103 291.382 84.2547 290.955 84.0798 290.507C83.9631 290.177 83.827 289.827 83.7104 289.496C83.5548 289.049 83.3993 288.583 83.2632 288.116C83.166 287.786 83.0688 287.455 82.9716 287.125C82.8355 286.639 82.68 286.133 82.5633 285.647C82.4856 285.336 82.4078 285.025 82.33 284.714C82.194 284.189 82.0773 283.645 81.9607 283.12C81.9023 282.848 81.844 282.575 81.7857 282.284C81.669 281.7 81.5524 281.117 81.4552 280.515C81.4163 280.301 81.3969 280.067 81.358 279.854C81.2608 279.193 81.1441 278.532 81.0664 277.871C81.0469 277.754 81.047 277.618 81.0275 277.501C80.7359 275.013 80.5803 272.446 80.5803 269.822C80.5803 238.658 101.81 217.175 131.4 217.175C147.089 217.175 158.851 224.602 169.505 233.603L314.984 359.932C336.35 380.248 365.706 392.982 399.825 395.062V395.082C400.37 395.121 400.953 395.121 401.497 395.16C402.158 395.199 402.839 395.218 403.519 395.257C404.258 395.276 405.016 395.315 405.774 395.335C406.532 395.354 407.271 395.354 408.029 395.374C408.632 395.374 409.235 395.393 409.837 395.393C486.436 395.393 541.999 342.629 541.999 269.802C541.999 196.723 486.436 144.212 409.837 144.212Z"
              fill="#D60006"/>
    </g>
    <defs>
        <clipPath id="clip0_83_2953">
            <rect width="542" height="542" fill="white"/>
        </clipPath>
    </defs>
</svg>
