<svg width="32" height="32" viewBox="0 0 32 32" fill="none" xmlns="http://www.w3.org/2000/svg">
<g clip-path="url(#clip0_20826_145)">
<path d="M25.7384 14.7521H25.0773C24.861 15.6609 24.5413 16.7599 24.3885 17.6962C24.3885 17.7629 24.4218 17.8073 24.494 17.8296L24.4718 17.9018H23.7052C23.5774 17.9018 23.5274 17.8684 23.5274 17.7796C23.5274 17.7573 23.533 17.724 23.5441 17.674L24.244 14.7521H23.6441C23.4941 14.7521 23.4385 14.7854 23.3719 14.9076H23.2941L23.4219 14.391C23.4663 14.1966 23.5052 14.1966 23.7385 14.1966H25.7273C25.9605 14.1966 26.0327 14.1688 26.105 14.041H26.1772L26.0605 14.5354C26.0161 14.7076 25.9494 14.7521 25.7384 14.7521Z" fill="white"/>
<path d="M1.78512 14.1966H2.9128L2.82392 14.5465C2.77392 14.7465 2.71837 14.7798 2.45728 14.7798C1.97087 14.7798 1.47899 14.6969 1.25184 15.2242C1.03522 15.7355 0.862988 16.3461 0.862988 16.9074C0.862988 17.4667 1.57481 17.3129 1.94067 17.3129C2.23508 17.3129 2.34063 17.2574 2.45173 17.0741H2.53505L2.38506 17.6518C2.32343 17.9457 2.12422 17.9443 1.67001 17.941C1.59203 17.9405 1.50653 17.9398 1.41293 17.9407C0.601897 17.9407 0.418582 17.8796 0.246375 17.724C0.0797233 17.5685 0.00195312 17.3407 0.00195312 17.0185C0.00195312 16.6186 0.146385 15.9242 0.363031 15.3076C0.679667 14.4077 0.951862 14.1966 1.78512 14.1966Z" fill="white"/>
<path d="M4.41909 14.3077C4.19714 15.3699 3.94946 16.3119 3.71914 17.274H4.64684C4.81905 17.274 4.85793 17.2518 4.9357 17.113H5.02458L4.89682 17.6407C4.84682 17.8518 4.78016 17.9018 4.56907 17.9018H2.94699C2.81923 17.9018 2.76924 17.8684 2.76924 17.7851C3.01776 16.7599 3.2937 15.5556 3.53028 14.5687C3.56369 14.4518 3.59101 14.3238 3.45251 14.2743L3.46917 14.1966H4.23577C4.35798 14.1966 4.41909 14.2354 4.41909 14.3077Z" fill="white"/>
<path fill-rule="evenodd" clip-rule="evenodd" d="M7.36612 16.9741L7.38834 17.6962C7.3939 17.8573 7.42723 17.9018 7.54944 17.9018H8.31048L8.32159 17.8296C8.22716 17.7907 8.21604 17.7685 8.21048 17.624L8.09383 14.3965C8.08828 14.2243 8.0605 14.1966 7.90496 14.1966H6.9106L6.89394 14.2743C6.97171 14.3077 6.99394 14.3299 6.99394 14.3799C6.47164 15.2857 5.46175 16.9668 5.02189 17.7796C5.02189 17.8573 5.083 17.9018 5.1941 17.9018H5.93847L5.95514 17.8296C5.8607 17.8129 5.82182 17.7851 5.82182 17.724C5.82182 17.4912 6.10699 17.17 6.21623 16.9741H7.36612ZM7.35501 16.413H6.52731L7.31612 14.9854L7.35501 16.413Z" fill="white"/>
<path d="M13.653 14.4965L12.0476 17.9018H11.3255C11.1421 17.9018 11.0922 17.8518 11.0922 17.6574V15.602L10.0256 17.9018H9.30896C9.13677 17.9018 9.08682 17.8407 9.08682 17.624V14.4799C9.08682 14.3521 9.07014 14.3188 8.96458 14.2743L8.9757 14.1966H9.6701C9.85341 14.1966 9.8978 14.2466 9.8978 14.4299L9.87565 16.7352L11.0588 14.1966H11.881V16.713L12.8476 14.4799C12.8643 14.4465 12.8697 14.4077 12.8697 14.3854C12.8697 14.3354 12.8476 14.3021 12.7975 14.2743L12.8142 14.1966H13.5364C13.653 14.1966 13.7142 14.2354 13.7142 14.3077C13.7142 14.3465 13.6975 14.3965 13.653 14.4965Z" fill="white"/>
<path fill-rule="evenodd" clip-rule="evenodd" d="M16.0289 15.8353C16.1956 15.7686 16.29 15.6964 16.39 15.5631C16.5178 15.3742 16.6067 15.0576 16.6067 14.7798C16.6067 14.3854 16.3622 14.1966 15.8456 14.1966H14.1402L14.1235 14.2743C14.1958 14.2966 14.2291 14.3354 14.2291 14.4021C14.0112 15.4464 13.7011 16.6555 13.4569 17.674C13.4458 17.7129 13.4347 17.7629 13.4347 17.7851C13.4347 17.8684 13.4903 17.9018 13.6181 17.9018H15.3067C15.7789 17.9018 16.0178 17.774 16.19 17.424C16.3122 17.1852 16.4344 16.6352 16.4344 16.3519C16.4344 16.0797 16.3234 15.9353 16.0289 15.8353ZM14.8012 15.5575L14.9901 14.7521C15.2196 14.7521 15.5275 14.7521 15.7456 14.7798C15.9799 14.8802 15.8329 15.3263 15.6956 15.4464C15.4854 15.5806 15.0603 15.5575 14.8012 15.5575ZM14.3902 17.274L14.6568 16.1464C14.9282 16.1464 15.5275 16.086 15.6123 16.4241C15.6123 16.613 15.5234 16.9408 15.4234 17.0963C15.1906 17.3129 14.6763 17.274 14.3902 17.274Z" fill="white"/>
<path d="M17.7372 16.9019C17.6548 17.2313 17.8669 17.3185 18.1871 17.3185C18.5871 17.3185 18.7149 17.2241 18.8093 16.8241L19.3481 14.5687C19.3704 14.491 19.3759 14.441 19.3759 14.4021C19.3759 14.3354 19.3426 14.2966 19.2704 14.2743L19.2926 14.1966H20.0536C20.1814 14.1966 20.2314 14.2299 20.2314 14.3132C20.1187 15.1593 19.8091 16.122 19.6147 16.9352C19.4982 17.4074 19.4037 17.5796 19.1926 17.7296C18.9704 17.8907 18.5926 17.9573 18.0927 17.9573C17.5038 17.9573 17.1595 17.8907 16.9984 17.7129C16.8352 17.5225 16.817 17.2437 16.8762 17.0074L17.4594 14.5687C17.4817 14.4854 17.4872 14.441 17.4872 14.4021C17.4872 14.3354 17.4539 14.2966 17.3817 14.2743L17.3983 14.1966H18.1704C18.2927 14.1966 18.3483 14.2299 18.3483 14.3077C18.1871 15.1593 17.9303 16.0955 17.7372 16.9019Z" fill="white"/>
<path d="M20.3193 17.0352H20.2305C20.1759 17.2638 20.1187 17.5296 20.0694 17.7573C20.0694 17.8573 20.1249 17.9018 20.2583 17.9018H21.6304C22.1525 17.9018 22.4803 17.6629 22.6469 17.1574C22.7302 16.9185 22.8024 16.5352 22.8024 16.3519C22.8024 15.8167 22.2302 15.7246 21.8248 15.5798C21.4887 15.4652 21.4125 15.197 21.6193 14.8965C21.697 14.7909 21.8026 14.7521 22.0469 14.7521C22.3379 14.7521 22.8565 14.7803 22.9691 14.5188L23.0469 14.1966H21.8692C21.4248 14.1966 21.1748 14.2854 20.9971 14.5021C20.7388 14.8187 20.4716 15.5603 20.7249 15.952C20.9071 16.2124 21.3303 16.2756 21.6137 16.3741C21.847 16.4575 21.9026 16.5186 21.9026 16.6852C21.9026 16.7908 21.8692 16.9408 21.8192 17.0407C21.6295 17.3966 21.0258 17.274 20.6915 17.274C20.3916 17.274 20.3249 17.2241 20.3193 17.0352Z" fill="white"/>
<path d="M26.7358 17.274L26.9413 16.4186C26.9913 16.213 27.0635 16.1575 27.2802 16.1575H28.1079C28.2579 16.1575 28.3134 16.1131 28.3467 15.9853L28.4467 15.5631H27.1469L27.3413 14.7521H28.4523C28.669 14.7521 28.7412 14.7076 28.7801 14.5576L28.8689 14.1966H26.4858L26.4692 14.2743C26.5414 14.2966 26.5746 14.3354 26.5746 14.4021C26.5746 14.4396 26.5644 14.4875 26.5487 14.5607L26.5469 14.5687L25.8025 17.674C25.7915 17.7129 25.7803 17.7629 25.7803 17.7851C25.7803 17.8684 25.8359 17.9018 25.9636 17.9018H27.8191C28.0634 17.9018 28.1134 17.8629 28.169 17.624L28.2968 17.1018H28.2245C28.1301 17.2518 28.0746 17.274 27.7801 17.274H26.7358Z" fill="white"/>
<path fill-rule="evenodd" clip-rule="evenodd" d="M31.6464 17.274L31.5519 17.674C31.478 17.9792 31.1628 17.9018 30.9131 17.9018C30.7354 17.9018 30.6742 17.8518 30.6243 17.6796L30.2132 16.2242H29.9243C29.8147 16.6841 29.5855 17.2209 29.5855 17.6962C29.5855 17.7629 29.6188 17.8073 29.6911 17.8296L29.6688 17.9018H28.9022C28.7744 17.9018 28.7245 17.8684 28.7245 17.7851C28.9134 16.6957 29.3431 15.5384 29.5132 14.4021C29.5132 14.3354 29.4799 14.2966 29.4078 14.2743L29.4243 14.1966H31.1798C31.5075 14.1966 31.6631 14.2354 31.7964 14.3465C31.9352 14.4576 32.002 14.6299 32.002 14.8854C32.002 15.2298 31.8964 15.5798 31.7075 15.8353C31.5353 16.0742 31.3408 16.1742 30.9742 16.2242L31.2964 17.1241C31.3604 17.2921 31.4938 17.274 31.6464 17.274ZM30.2798 14.7521L30.0577 15.6798C30.3149 15.6798 30.6793 15.7447 30.9076 15.602C31.0575 15.5076 31.1575 15.2798 31.1575 15.0354C31.1575 14.6343 30.5513 14.7521 30.2798 14.7521Z" fill="white"/>
</g>
<defs>
<clipPath id="clip0_20826_145">
<rect width="32" height="32" fill="white" transform="translate(0.00195312)"/>
</clipPath>
</defs>
</svg>
