<svg width="542" height="542" viewBox="0 0 542 542" fill="none" xmlns="http://www.w3.org/2000/svg">
    <g clip-path="url(#clip0_137_366)">
        <path d="M239.217 126.26H131.531C133.695 123.466 134.875 121.499 136.449 119.925C172.449 83.8857 208.41 47.8067 244.528 11.9244C260.778 -4.20693 281.08 -4.20693 297.093 11.767C332.936 47.4919 368.7 83.2955 404.504 119.099C406.235 120.83 407.848 122.719 410.956 126.102C406.038 126.102 402.812 125.984 399.546 126.102C368.189 127.283 336.556 126.142 305.591 130.234C259.322 136.371 243.23 162.811 241.302 203.966C239.217 248.504 240.082 293.199 241.066 337.816C242.05 381.843 266.207 407.535 310.037 412.925C325.893 414.892 341.906 415.64 357.88 416.151C374.523 416.702 391.166 416.269 409.933 416.269C407.258 419.613 405.841 421.738 404.032 423.548C368.267 459.352 332.542 495.194 296.621 530.88C281.748 545.674 260.07 545.752 245.119 530.841C167.177 453.214 89.3532 375.429 11.6082 297.527C-4.52311 281.356 -4.44442 260.937 11.4508 244.884C30.9264 225.212 50.402 205.579 70.3104 186.378C73.4579 183.349 78.9268 181.421 83.3728 181.264C111.622 180.201 139.99 181.067 168.121 178.785C197.394 176.424 223.597 166.745 235.873 136.214C237.014 133.381 237.84 130.391 239.217 126.26Z"
              fill="#38B8BB"/>
        <path d="M336.959 360.085C313.903 358.236 305.955 351.39 304.775 328.649C302.808 291.075 302.493 253.265 304.46 215.73C305.798 190.274 318.939 181.382 346.716 181.146C378.782 180.871 410.887 182.09 442.875 180.674C460.068 179.887 472.304 184.687 483.636 197.631C498.272 214.392 514.954 229.383 530.692 245.199C545.643 260.268 546.666 280.373 532.069 295.678C511.688 317.042 490.56 337.738 469.472 358.354C467.19 360.597 462.862 361.659 459.439 361.738C440.593 362.053 358.835 361.817 336.998 360.085H336.959ZM388.894 266.012C388.894 286.078 388.776 305.121 389.091 324.164C389.091 326.013 392.041 329.239 393.773 329.318C402.704 329.829 411.714 329.554 420.92 329.554V266.012H388.894ZM420.92 244.766V214.078H389.484V244.766H420.92Z"
              fill="#39B8BB"/>
    </g>
    <defs>
        <clipPath id="clip0_137_366">
            <rect width="542" height="542" fill="white"/>
        </clipPath>
    </defs>
</svg>
