<svg width="542" height="542" viewBox="0 0 542 542" fill="none" xmlns="http://www.w3.org/2000/svg">
    <g clip-path="url(#clip0_138_382)">
        <path d="M488.754 80.2606L460.725 52.2596C409.391 0.896558 334.751 -13.2984 270.5 9.6191C206.277 -13.3262 131.609 0.924337 80.2745 52.2596L52.2462 80.2606C0.912007 131.596 -13.3105 206.238 9.6066 270.49C-13.3105 334.742 0.912007 409.384 52.2462 460.719L80.2745 488.748C115.775 524.249 162.415 542 209.054 542C229.888 542 250.694 538.472 270.5 531.388C290.306 538.472 311.112 542 331.945 542C378.585 542 425.225 524.249 460.725 488.748L488.754 460.719C540.088 409.384 554.31 334.742 531.393 270.49C554.31 206.238 540.088 131.596 488.754 80.2606ZM85.6635 113.651L113.664 85.6497C139.97 59.3432 174.498 46.2038 209.054 46.2038H209.527C207.36 48.1483 205.249 50.1762 203.165 52.2596L52.2462 203.154C50.1629 205.238 48.1628 207.349 46.2183 209.488C46.0795 174.792 59.2463 140.068 85.6635 113.651ZM113.664 455.358L85.6635 427.329C59.2463 400.911 46.0795 366.188 46.2183 331.492C48.1628 333.631 50.1629 335.742 52.2462 337.826L203.165 488.748C205.249 490.831 207.36 492.859 209.527 494.804C174.804 494.915 140.081 481.776 113.664 455.358ZM270.5 480.053C258.25 473.803 246.777 465.581 236.555 455.358L85.6635 304.436C75.4411 294.213 67.1909 282.74 60.9686 270.49C67.1909 258.267 75.4411 246.795 85.6635 236.572L236.555 85.6497C246.805 75.4271 258.25 67.1768 270.5 60.9266C282.75 67.1768 294.195 75.4271 304.445 85.6497L455.337 236.572C465.559 246.795 473.809 258.267 480.031 270.49C473.809 282.74 465.559 294.213 455.337 304.436L304.445 455.358C294.223 465.581 282.75 473.803 270.5 480.053ZM455.337 427.329L427.336 455.358C400.919 481.776 366.196 494.915 331.473 494.804C333.64 492.859 335.751 490.831 337.835 488.748L488.754 337.826C490.837 335.742 492.837 333.631 494.782 331.492C494.921 366.188 481.754 400.911 455.337 427.329ZM488.754 203.154L337.835 52.2596C335.751 50.1762 333.64 48.1483 331.473 46.2038H331.945C366.502 46.2038 401.03 59.3432 427.336 85.6497L455.337 113.651C481.754 140.068 494.921 174.792 494.782 209.488C492.837 207.349 490.837 205.238 488.754 203.154Z"
              fill="#F1C84A"/>
    </g>
    <defs>
        <clipPath id="clip0_138_382">
            <rect width="542" height="542" fill="white"/>
        </clipPath>
    </defs>
</svg>
