<svg width="542" height="542" viewBox="0 0 542 542" fill="none" xmlns="http://www.w3.org/2000/svg">
    <path d="M513.002 317.161H153.685C149.281 339.021 157.36 349.153 178.138 349.153C283.788 349.207 389.438 349.153 495.088 349.153H512.191V441.077H496.655C376.63 441.077 256.606 441.158 136.554 440.969C122.395 440.969 107.858 441.509 94.1861 438.537C53.2232 429.647 31.6069 393.683 30.9044 355.719C29.8236 299.247 29.067 242.666 31.0935 186.22C32.8499 138.124 58.8164 100.458 117.045 100.836C244.257 101.701 371.496 101.106 498.708 101.133C503.086 101.133 507.436 101.512 512.489 101.755V193.03C507.382 193.03 502.221 193.03 497.06 193.03C391.41 193.03 285.761 193.03 180.111 193.03C157.657 193.03 150.767 200.73 152.523 225.589H167.979C276.331 225.589 384.655 225.589 493.007 225.589C506.319 225.589 512.984 232.452 513.002 246.179C513.002 269.389 513.002 292.573 513.002 317.134V317.161Z"
          fill="#4C90CD" stroke="white" stroke-width="18" stroke-miterlimit="10"/>
</svg>
