<svg width="542" height="542" viewBox="0 0 542 542" fill="none" xmlns="http://www.w3.org/2000/svg">
    <path d="M478.459 435.24C476.344 438.437 474.37 441.739 472.084 444.816C465.469 453.732 458.043 461.954 449.996 469.593C437.417 481.536 423.697 492.008 408.736 500.796C402.683 504.35 396.51 507.745 390.209 510.833C377.968 516.832 365.277 521.752 352.166 525.519C345.935 527.312 339.685 529.061 333.376 530.544C328.006 531.809 322.555 532.767 317.107 533.663C312.998 534.338 308.847 534.769 304.699 535.188C298.627 535.801 292.547 536.305 286.471 536.872C286.331 536.883 286.211 537.097 286.083 537.217H256.219C253.949 536.969 251.679 536.709 249.406 536.476C244.191 535.937 238.953 535.541 233.758 534.846C228.442 534.136 223.104 533.403 217.881 532.216C208.22 530.02 198.501 527.929 189.045 525.011C149.633 512.843 114.698 492.733 84.2476 464.906C76.0182 457.387 69.0459 448.874 65.197 438.205C64.3551 435.869 63.8196 433.417 63.1445 431.019C63.3618 430.577 63.6373 430.154 63.7925 429.688C64.6694 427.003 65.2319 424.171 66.427 421.641C69.8957 414.312 75.5294 408.69 81.6092 403.514C92.3451 394.373 104.377 387.183 116.929 380.901C125.177 376.773 133.713 373.223 142.086 369.335C163.053 359.6 183.997 349.827 204.949 340.061C223.092 331.603 241.223 323.125 259.373 314.682C260.991 313.929 262.699 313.363 264.363 312.711C260.751 315.353 257.076 317.918 253.542 320.657C244.451 327.696 235.186 334.532 226.436 341.974C217.803 349.315 209.469 357.055 201.453 365.063C189.092 377.409 180.156 392.006 174.697 408.651C172.943 414.001 171.772 419.468 171.228 425.102C169.766 440.269 174.701 453.577 182.814 465.997C188.618 474.882 196.634 481.315 205.783 486.44C215.584 491.93 226.173 495.399 237.048 497.905C242.884 499.248 248.87 499.989 254.822 500.746C260.347 501.448 265.903 501.995 271.463 502.263C276.492 502.507 281.543 502.367 286.58 502.243C292.749 502.092 298.93 501.991 305.075 501.498C318.76 500.396 332.375 498.658 345.869 496.105C362.072 493.044 378.061 489.102 393.542 483.387C402.672 480.015 411.677 476.263 420.578 472.317C433.118 466.757 444.94 459.847 456.165 451.967C461.372 448.312 466.388 444.378 471.444 440.505C473.353 439.043 475.099 437.366 476.969 435.845C477.369 435.52 477.974 435.45 478.486 435.263L478.463 435.244L478.459 435.24Z"
          fill="#F9AF1E"/>
    <path d="M264.364 312.713C262.699 313.365 260.992 313.931 259.374 314.684C241.223 323.127 223.092 331.605 204.95 340.063C183.998 349.829 163.054 359.602 142.087 369.337C133.714 373.225 125.178 376.775 116.929 380.903C104.377 387.185 92.3456 394.374 81.6097 403.516C75.5298 408.692 69.9 414.314 66.4275 421.643C65.2286 424.173 64.6698 427.005 63.793 429.69C63.6417 430.155 63.3662 430.578 63.145 431.021C62.9859 429.182 62.7997 427.342 62.6755 425.503C62.0897 416.828 64.7552 408.917 68.6158 401.355C74.0826 390.646 81.7843 381.59 90.1844 373.132C98.7436 364.514 107.71 356.3 116.203 347.621C128.712 334.833 139.27 320.616 146.196 303.968C149.276 296.561 151.612 288.933 152.275 280.878C152.528 277.828 153.152 274.755 152.97 271.729C152.632 266.08 152.225 260.384 151.146 254.843C146.289 229.872 131.75 210.468 114.539 192.768C105.759 183.739 96.4467 175.227 87.612 166.249C80.3449 158.861 73.9274 150.76 69.0154 141.56C64.3788 132.877 61.8957 123.705 62.6949 113.791C62.7454 113.151 63.145 112.542 63.3856 111.917C63.7503 113.14 64.1111 114.362 64.4758 115.58C66.6952 123.068 71.4442 128.9 76.8878 134.227C85.7303 142.872 96.0083 149.545 106.674 155.664C117.93 162.12 129.853 167.184 141.621 172.604C182.004 191.204 222.258 210.088 262.571 228.852C263.13 229.112 263.762 229.22 264.36 229.399L264.332 229.379C264.724 229.612 265.116 229.841 265.508 230.074C272.279 234.536 279.309 238.664 285.75 243.557C292.509 248.69 298.748 254.568 302.081 262.696C304.331 268.183 304.284 273.836 302.115 279.345C299.372 286.322 294.111 291.412 288.648 296.204C281.618 302.373 273.819 307.498 265.582 311.945C265.427 312.069 265.271 312.197 265.116 312.321C265.116 312.321 265.139 312.306 265.136 312.306C264.876 312.445 264.612 312.585 264.352 312.721L264.364 312.705V312.713Z"
          fill="#E62D31"/>
    <path d="M264.357 229.403C263.759 229.224 263.127 229.12 262.568 228.856C222.259 210.092 182.005 191.209 141.618 172.608C129.85 167.188 117.927 162.124 106.671 155.668C96.0055 149.549 85.7275 142.872 76.8851 134.231C71.4376 128.908 66.6924 123.073 64.4731 115.584C64.1122 114.362 63.7475 113.14 63.3828 111.922C63.8717 105.221 66.7079 99.3777 70.1495 93.7906C75.5348 85.0413 82.9029 78.0806 90.6318 71.4692C115.002 50.6183 142.134 34.3962 172.08 22.8882C190.886 15.6599 210.262 10.5538 230.205 7.73311C237.453 6.7088 244.779 6.19277 252.088 5.69613C258.634 5.24994 265.199 4.94342 271.756 4.9473C278.367 4.95118 285.002 5.17234 291.59 5.71941C314.816 7.64387 337.653 11.6208 359.819 19.0548C369.989 22.4653 379.921 26.4035 389.598 31.0323C404.14 37.9813 417.813 46.3309 430.652 56.0657C440.379 63.4415 449.501 71.508 457.862 80.4008C465.408 88.4246 472.4 96.9139 478.348 106.222C478.55 106.54 478.678 106.905 478.845 107.25L478.876 107.223C477.153 105.966 475.399 104.751 473.715 103.444C468.9 99.7114 464.244 95.7538 459.286 92.2269C449.051 84.9404 438.268 78.5462 427.009 72.9319C418.096 68.4894 408.982 64.5822 399.694 61.001C388.601 56.7253 377.26 53.3187 365.728 50.5484C357.786 48.6395 349.743 47.138 341.719 45.5937C336.28 44.5461 330.809 43.6305 325.319 42.87C321.237 42.3035 317.113 42.0746 313.004 41.7177C306.714 41.1745 300.425 40.6041 294.132 40.154C291.947 39.9988 289.74 40.1696 287.543 40.1618C282.049 40.1502 276.552 39.9639 271.065 40.154C266.673 40.3054 262.297 40.8912 257.92 41.318C254.323 41.6711 250.699 41.9039 247.141 42.4898C238.19 43.9603 229.348 45.9119 220.785 49.012C208.544 53.4429 197.172 59.3443 188.337 69.1218C179.921 78.4376 174.237 89.2898 172.057 101.756C171.409 105.465 170.881 109.275 170.97 113.02C171.164 121.338 172.98 129.409 175.971 137.172C180.744 149.561 186.967 161.15 196.042 170.951C202.437 177.854 208.92 184.729 215.892 191.026C224.141 198.48 232.836 205.464 241.578 212.343C248.895 218.101 256.558 223.412 264.062 228.929C264.202 229.03 264.26 229.24 264.361 229.403H264.357Z"
          fill="#3195D2"/>
    <path d="M264.352 312.729C264.612 312.589 264.875 312.45 265.135 312.314C264.875 312.454 264.612 312.593 264.352 312.729Z"
          fill="#F9AF1E"/>
    <path d="M478.84 107.245C478.886 107.272 478.945 107.291 478.983 107.33C479.003 107.346 478.991 107.396 478.991 107.431C478.952 107.361 478.91 107.291 478.871 107.222L478.84 107.249V107.245Z"
          fill="#3195D2"/>
    <path d="M265.113 312.329C265.268 312.205 265.424 312.081 265.579 311.953C265.424 312.077 265.268 312.205 265.113 312.329Z"
          fill="#F9AF1E"/>
    <path d="M478.871 434.88C478.914 434.802 478.952 434.725 478.995 434.647C478.995 434.682 479.014 434.736 478.995 434.752C478.952 434.791 478.894 434.818 478.84 434.849L478.867 434.884L478.871 434.88Z"
          fill="#F9AF1E"/>
    <path d="M478.488 435.258C478.616 435.13 478.748 435.002 478.876 434.874L478.849 434.839C478.721 434.971 478.593 435.103 478.465 435.235L478.488 435.254V435.258Z"
          fill="#F9AF1E"/>
</svg>
