<svg width="32" height="32" viewBox="0 0 32 32" fill="none" xmlns="http://www.w3.org/2000/svg">
<path d="M7.245 10.4362C6.87 10.5412 6.6275 11.1488 6.80875 11.9875C6.99 12.8263 7.5875 13.4237 8.125 13.305C8.14615 13.3003 8.16701 13.2945 8.1875 13.2875L8.20875 13.2788C8.22195 13.2745 8.23489 13.2695 8.2475 13.2638L8.2725 13.2513L8.30625 13.2338L8.33125 13.2188L8.35875 13.2C8.60875 12.8587 8.68375 12.3062 8.56125 11.7537C8.3725 10.9087 7.77625 10.2912 7.245 10.4362Z" fill="white"/>
<path fill-rule="evenodd" clip-rule="evenodd" d="M20.4476 7.01086C20.4804 7.00549 20.5137 7.00006 20.5462 7.00006C20.9414 6.9664 21.3386 7.03329 21.701 7.1945C22.0633 7.35572 22.379 7.60601 22.6185 7.92207C22.8581 8.23813 23.0138 8.60967 23.071 9.00209C23.1283 9.39452 23.0854 9.79506 22.9462 10.1664C22.807 10.5378 22.5761 10.8679 22.2749 11.1259C21.9738 11.384 21.6123 11.5617 21.224 11.6424C20.8357 11.7231 20.4333 11.7042 20.0543 11.5876C19.6752 11.4709 19.3319 11.2602 19.0562 10.9751L17.0962 11.1413C16.8802 11.4871 16.5794 11.772 16.2223 11.9689C15.8652 12.1658 15.4637 12.2682 15.0559 12.2663C14.6482 12.2644 14.2477 12.1583 13.8924 11.9581C13.5372 11.7579 13.239 11.4702 13.0262 11.1224C12.8134 10.7745 12.6931 10.3781 12.6766 9.97062C12.66 9.56318 12.748 9.15829 12.9319 8.79438C13.1159 8.43047 13.3898 8.11962 13.7277 7.89134C14.0656 7.66306 14.4562 7.52493 14.8625 7.49006L20.4212 7.01506C20.43 7.01373 20.4388 7.0123 20.4476 7.01086ZM16.06 9.90756L16.4275 9.87506L16.4262 9.87006C16.5108 9.84696 16.5847 9.79494 16.6349 9.72304C16.6851 9.65114 16.7086 9.56391 16.7011 9.47653C16.6937 9.38914 16.6559 9.30712 16.5942 9.24474C16.5326 9.18235 16.451 9.14354 16.3637 9.13506L15.9887 9.16631C15.8916 9.17297 15.7957 9.14161 15.7213 9.07887C15.6469 9.01612 15.5998 8.9269 15.59 8.83006L15.5587 8.46256C15.5363 8.37715 15.4844 8.3024 15.4123 8.25148C15.3401 8.20056 15.2523 8.17673 15.1643 8.18421C15.0763 8.19167 14.9938 8.22996 14.9313 8.29231C14.8687 8.35466 14.8302 8.43709 14.8225 8.52506L14.8537 8.89256C14.8607 8.98987 14.8295 9.08608 14.7668 9.16077C14.704 9.23545 14.6146 9.28273 14.5175 9.29256L14.15 9.32381C14.0953 9.31849 14.04 9.32527 13.9882 9.34367C13.9364 9.36207 13.8893 9.39165 13.8502 9.43029C13.811 9.46894 13.7809 9.51571 13.7619 9.5673C13.7429 9.61889 13.7354 9.67403 13.7401 9.72882C13.7447 9.78361 13.7614 9.8367 13.7888 9.88434C13.8163 9.93198 13.8539 9.97299 13.899 10.0045C13.9441 10.036 13.9955 10.0572 14.0497 10.0665C14.1039 10.0759 14.1595 10.0733 14.2125 10.0588L14.5875 10.0276C14.6864 10.0192 14.7846 10.0505 14.8605 10.1145C14.9365 10.1784 14.9839 10.2699 14.9925 10.3688L15.0237 10.7363C15.019 10.7908 15.0262 10.8456 15.0448 10.8971C15.0635 10.9485 15.0931 10.9952 15.1318 11.0339C15.1704 11.0726 15.217 11.1024 15.2683 11.1212C15.3197 11.14 15.3745 11.1474 15.429 11.1428C15.4835 11.1381 15.5363 11.1217 15.5838 11.0945C15.6312 11.0673 15.6722 11.03 15.7037 10.9853C15.7352 10.9407 15.7566 10.8896 15.7663 10.8358C15.7761 10.782 15.7739 10.7267 15.76 10.6738L15.7237 10.2476V10.3063C15.7195 10.258 15.7248 10.2093 15.7394 10.1631C15.754 10.1169 15.7776 10.074 15.8089 10.0369C15.8401 9.99987 15.8784 9.96936 15.9215 9.94715C15.9646 9.92495 16.0117 9.91149 16.06 9.90756ZM19.8704 9.72424C19.9531 9.77084 20.0478 9.792 20.1425 9.78506V9.78006C20.2062 9.77533 20.2682 9.75802 20.3252 9.72912C20.3821 9.70023 20.4327 9.66033 20.4741 9.61173C20.5155 9.56313 20.5468 9.5068 20.5663 9.44601C20.5858 9.38521 20.593 9.32116 20.5875 9.25756C20.5784 9.16304 20.5416 9.07331 20.4817 8.9996C20.4218 8.9259 20.3415 8.87151 20.2509 8.84323C20.1602 8.81496 20.0633 8.81406 19.9721 8.84066C19.8809 8.86725 19.7997 8.92015 19.7384 8.99273C19.6772 9.06531 19.6387 9.15435 19.6279 9.24868C19.617 9.34302 19.6342 9.43846 19.6774 9.52305C19.7205 9.60765 19.7877 9.67763 19.8704 9.72424ZM20.6305 8.08459C20.5886 8.16058 20.5701 8.24732 20.5775 8.33381V8.32881C20.5814 8.38672 20.5969 8.44326 20.6229 8.49513C20.649 8.547 20.6851 8.59314 20.7293 8.63086C20.7734 8.66857 20.8246 8.69711 20.8799 8.71478C20.9352 8.73246 20.9934 8.73893 21.0512 8.73381C21.1377 8.72657 21.2202 8.69384 21.2881 8.63975C21.3559 8.58566 21.4063 8.51265 21.4327 8.42995C21.459 8.34726 21.4603 8.25859 21.4363 8.17518C21.4123 8.09176 21.364 8.01735 21.2977 7.96135C21.2314 7.90535 21.1499 7.87028 21.0637 7.86058C20.9774 7.85088 20.8902 7.86699 20.8131 7.90686C20.736 7.94674 20.6725 8.00859 20.6305 8.08459ZM20.9444 10.5774C21.0231 10.6208 21.1129 10.64 21.2025 10.6326V10.6251C21.3228 10.6146 21.4342 10.5569 21.5121 10.4646C21.5901 10.3723 21.6284 10.253 21.6187 10.1326C21.6098 10.0431 21.5746 9.95825 21.5177 9.8887C21.4607 9.81915 21.3844 9.76799 21.2984 9.74165C21.2125 9.7153 21.1206 9.71494 21.0345 9.74062C20.9483 9.76629 20.8716 9.81686 20.8141 9.88596C20.7566 9.95506 20.7208 10.0396 20.7111 10.129C20.7015 10.2184 20.7185 10.3087 20.76 10.3884C20.8015 10.4682 20.8656 10.5339 20.9444 10.5774ZM21.7717 9.47677C21.8402 9.51432 21.9184 9.53069 21.9962 9.52381V9.51881C22.0994 9.50926 22.1947 9.45969 22.2618 9.38072C22.3288 9.30175 22.3623 9.19965 22.355 9.09631C22.3483 9.01844 22.3186 8.94433 22.2697 8.88334C22.2208 8.82235 22.155 8.77723 22.0804 8.75368C22.0059 8.73014 21.9261 8.72924 21.851 8.75109C21.776 8.77294 21.7091 8.81656 21.6589 8.87643C21.6086 8.93629 21.5773 9.00972 21.5688 9.08741C21.5603 9.16511 21.5751 9.24357 21.6112 9.31288C21.6473 9.38219 21.7032 9.43923 21.7717 9.47677Z" fill="white"/>
<path fill-rule="evenodd" clip-rule="evenodd" d="M25.8375 10.3188C25.77 9.2625 25.2925 8.395 24.69 8.115C23.8963 5.835 22.4025 4.4775 19.7713 3.96875C14.3375 2.92 10.4075 5.6925 9.3675 9.1425C9.36449 9.15657 9.36031 9.17037 9.355 9.18375C9.29448 9.26311 9.2091 9.31988 9.1125 9.345C9.07974 9.34013 9.04827 9.3288 9.01992 9.31166C8.99157 9.29453 8.96691 9.27192 8.94737 9.24518C8.92783 9.21843 8.9138 9.18806 8.9061 9.15584C8.8984 9.12362 8.89717 9.09019 8.9025 9.0575C8.90189 9.05126 8.90189 9.04498 8.9025 9.03875C9.1849 7.98586 9.69719 7.00867 10.4025 6.1775C11.15 5.22848 12.0863 4.44495 13.1522 3.87648C14.2182 3.30801 15.3905 2.96699 16.595 2.875L16.6788 2.86875L16.8538 2.85625H16.9125C17.8159 2.81191 18.7214 2.87823 19.6088 3.05375C20.1405 3.15516 20.6595 3.31488 21.1563 3.53C21.1563 3.53 20.8375 2.8875 19.7125 2.3525C19.8943 1.57547 19.8693 0.764359 19.64 0C18.0425 1.5975 15.7463 1.64125 15.7438 1.64125C11.3563 1.65875 7.5875 5.18875 7.015 8.86375C5.9725 9.375 5.43625 10.9225 5.8 12.5575C6.2125 14.3888 7.5875 15.6388 8.87875 15.3512C9.26241 15.2609 9.60712 15.0502 9.8625 14.75C11.2738 17.0875 13.9275 18.6625 16.9688 18.6625C20.8438 18.6625 24.0875 16.1075 24.9363 12.6763C25.5238 12.3475 25.9075 11.4038 25.8375 10.3188ZM8.65125 13.5138C8.50576 13.7212 8.28987 13.8686 8.04375 13.9288C7.97766 13.9432 7.91017 13.9504 7.8425 13.95C7.17 13.95 6.4925 13.23 6.27 12.2312C6.07375 11.3475 6.29375 10.4725 6.80625 10.1062C6.91145 10.0292 7.03147 9.97469 7.15875 9.94625C7.89125 9.78375 8.6875 10.545 8.93125 11.6438C9.0875 12.3525 8.98125 13.07 8.65125 13.5138ZM21.93 12.4288C22.0981 12.924 22.1564 13.4498 22.1009 13.9698C22.0453 14.4898 21.8773 14.9915 21.6084 15.44C21.3396 15.8886 20.9763 16.2732 20.5438 16.5673C20.1114 16.8613 19.6201 17.0577 19.1041 17.1428C18.5881 17.2279 18.0598 17.1998 17.5558 17.0602C17.0518 16.9206 16.5842 16.6731 16.1855 16.3347C15.7868 15.9963 15.4665 15.5751 15.2469 15.1005C15.0273 14.6259 14.9136 14.1092 14.9138 13.5863C14.9138 13.48 14.9138 13.375 14.9288 13.27H14.8675C14.0143 13.2646 13.1958 12.9311 12.5818 12.3386C11.9678 11.7462 11.6052 10.9402 11.5692 10.0877C11.5332 9.23525 11.8265 8.40159 12.3885 7.7595C12.9504 7.1174 13.7378 6.7161 14.5875 6.63875L20.2238 6.1575C20.2534 6.1575 20.2831 6.1531 20.3125 6.14874C20.3327 6.14575 20.3527 6.14278 20.3725 6.14125C21.1503 6.07493 21.9262 6.28829 22.5607 6.74296C23.1953 7.19762 23.6468 7.86376 23.834 8.62157C24.0213 9.37938 23.9321 10.1791 23.5824 10.877C23.2326 11.5749 22.6454 12.1251 21.9263 12.4288H21.93Z" fill="white"/>
<path d="M2 20.5375H6.83375V21.78H2V20.5375Z" fill="white"/>
<path d="M3.2425 23.99H6.83375V22.7462H2V25.785H3.2425V23.99Z" fill="white"/>
<path d="M24.8562 32H20.0225V26.7525H24.8562V27.995H21.265V30.7575H24.8562V32Z" fill="white"/>
<path d="M24.7188 28.755H21.9563V29.9975H24.7188V28.755Z" fill="white"/>
<path d="M8.7675 24.5425H11.3913V20.5375H12.6338V24.3038L11.3913 25.785H8.7675L7.52375 24.3038V20.5375H8.7675V24.5425Z" fill="white"/>
<path d="M14.5675 23.7475L16.5513 25.785H18.435V20.5375H17.1913V24.5088L13.3238 20.5375V25.785H14.5675V23.7475Z" fill="white"/>
<path d="M8.7675 32H7.52375V26.7525L12.6338 32H10.7512L8.7675 29.9625V32Z" fill="white"/>
<path d="M20.3675 23.1613V20.5375H19.125V25.785H20.3675V23.1613Z" fill="white"/>
<path d="M21.99 23.1613L24.1925 25.785H22.57L20.3675 23.1613L22.57 20.5375H24.1925L21.99 23.1613Z" fill="white"/>
<path d="M30.675 20.5375H29.0525L27.6625 22.1938L26.2712 20.5375H24.6488L26.8512 23.1613L24.6488 25.785H26.2712L30.675 20.5375Z" fill="white"/>
<path d="M6.83375 26.7525L5.79 27.995H3.2425V30.7575H5.59V29.9975H4.8375L3.795 28.755H6.83375V32H3.2425L2 30.5188V26.7525H6.83375Z" fill="white"/>
<path d="M12.9788 26.7525V32H14.2225V29.9625L16.1563 31.9475L18.0888 29.9625V32H19.3325V26.7525L16.1563 30.0138L12.9788 26.7525Z" fill="white"/>
<path d="M25.5475 28.755V27.995L26.59 26.7525H30.6563V27.995H26.79V28.755H30.6563V30.5188L29.4138 32H25.5475V30.7575H29.4138V29.9975H26.59L25.5475 28.755Z" fill="white"/>
</svg>
