<svg width="542" height="542" viewBox="0 0 542 542" fill="none" xmlns="http://www.w3.org/2000/svg">
    <path d="M343.766 51.2423L122.693 184.812V356.909L274.745 441.683L410.606 356.909V169.396L274.745 246.45V310.661L346.342 266.672V328.651L274.745 372.325L181.805 318.382V218.218L410.606 84.6216L478.077 128.243C490.509 136.28 498 150.041 498 164.827V370.723C498 386.034 489.957 400.215 476.841 408.094L297.191 515.796C283.366 524.068 266.124 524.068 252.298 515.796L64.1585 402.973C51.0166 395.094 43 380.913 43 365.602V171.208C43 155.766 51.1743 141.453 64.5265 133.627L249.565 25.0063C262.575 17.364 278.609 16.9963 291.961 24.0083L343.74 51.2423H343.766Z"
          fill="#94C124"/>
</svg>
