<svg width="32" height="32" viewBox="0 0 32 32" fill="none" xmlns="http://www.w3.org/2000/svg">
<path d="M7.41509 24.9364C9.11728 21.9998 14.2008 13.5129 15.9571 10.4856C15.8295 10.2646 16.1478 10.7696 15.9698 10.5075C18.471 14.8273 21.8755 20.596 24.3847 24.903C24.3847 24.903 29.5024 24.9172 32 24.9172C28.1454 18.2598 24.0171 11.1298 20.1291 4.49304C19.9605 4.20669 19.723 3.82981 19.0584 3.82981L12.8743 3.82941C12.3112 3.82145 12.0691 3.96648 11.7652 4.49304C8.01436 11.0104 3.81404 18.4193 0.0436445 24.9265C0.0422023 24.9297 0.040724 24.933 0.0392092 24.9364C2.50977 24.9364 5.09247 24.9857 7.41509 24.9364Z" fill="white"/>
<path d="M16.0473 15.3613L21.5305 24.9682H10.564L16.0473 15.3613Z" fill="url(#paint0_linear_20702_1093)"/>
<defs>
<linearGradient id="paint0_linear_20702_1093" x1="16.0473" y1="15.3613" x2="16.0473" y2="28.1705" gradientUnits="userSpaceOnUse">
<stop stop-color="#144B80"/>
<stop offset="0.52" stop-color="#249BD0"/>
<stop offset="1" stop-color="#28BCEA"/>
</linearGradient>
</defs>
</svg>
