<svg width="542" height="542" viewBox="0 0 542 542" fill="none" xmlns="http://www.w3.org/2000/svg">
    <path fill-rule="evenodd" clip-rule="evenodd"
          d="M293.253 81.655C299.499 81.655 304.538 76.6008 304.538 70.3546V37.7091C304.538 31.4471 299.499 26.3929 293.253 26.3929C287.007 26.3929 281.969 31.4471 281.969 37.7091V70.3546C281.969 76.5849 287.023 81.655 293.253 81.655Z"
          fill="#F4683A"/>
    <path fill-rule="evenodd" clip-rule="evenodd"
          d="M248.101 111.632C254.347 111.632 259.385 106.578 259.385 100.332V67.7021C259.385 61.44 254.347 56.3859 248.101 56.3859C241.855 56.3859 236.816 61.44 236.816 67.7021V100.332C236.816 106.562 241.871 111.632 248.101 111.632Z"
          fill="#F35F3E"/>
    <path fill-rule="evenodd" clip-rule="evenodd"
          d="M248.117 36.1206C254.347 36.1206 259.401 31.0824 259.401 24.8362V25.0746C259.401 18.8284 254.363 13.7742 248.117 13.7742C241.871 13.7742 236.816 18.8443 236.816 25.0746V24.8362C236.816 31.0824 241.871 36.1206 248.117 36.1206Z"
          fill="#F35F3E"/>
    <path fill-rule="evenodd" clip-rule="evenodd"
          d="M338.425 120.279C344.656 120.279 349.71 115.241 349.71 108.994V109.249C349.71 103.018 344.672 97.9483 338.425 97.9483C332.179 97.9483 327.125 103.018 327.125 109.249V108.994C327.125 115.241 332.179 120.279 338.425 120.279Z"
          fill="#F57636"/>
    <path fill-rule="evenodd" clip-rule="evenodd"
          d="M428.715 203.972C422.485 203.972 417.431 209.01 417.431 215.272V220.962C417.033 226.859 412.122 231.515 406.146 231.515C400.17 231.515 394.846 226.477 394.846 220.215V192.052C394.846 185.789 389.792 180.751 383.561 180.751C377.331 180.751 372.261 185.789 372.261 192.052V192.671C372.261 198.933 367.207 203.972 360.993 203.972C354.778 203.972 349.708 198.933 349.708 192.671V145.467C349.708 139.205 344.654 134.167 338.408 134.167C332.162 134.167 327.171 139.205 327.171 145.467V163.475C327.076 169.896 321.513 174.775 315.839 174.775C309.609 174.775 304.554 169.737 304.554 163.491V112.679C304.554 106.433 299.5 101.378 293.27 101.378C287.04 101.378 281.97 106.417 281.97 112.679V142.813V156.847C281.97 163.093 276.915 168.148 270.685 168.148C264.455 168.148 259.401 163.093 259.401 156.847V141.001C259.401 134.739 254.346 129.701 248.116 129.701C241.886 129.701 236.816 134.739 236.816 141.001V174.966C236.816 181.228 231.762 186.266 225.531 186.266C219.301 186.266 214.247 181.212 214.247 174.966V127.778C214.247 121.532 209.209 116.477 202.962 116.477C196.716 116.477 191.678 121.532 191.678 127.778V199.982C191.678 206.229 186.624 211.283 180.393 211.283C174.163 211.283 169.109 206.229 169.109 199.982V180.91C169.109 174.648 164.055 169.61 157.825 169.61C151.594 169.61 146.524 174.648 146.524 180.91V234.058C146.524 240.305 141.486 245.359 135.256 245.359C129.025 245.359 123.955 240.305 123.955 234.058V216.591C123.955 210.345 118.917 205.291 112.671 205.291C106.425 205.291 101.37 210.329 101.37 216.575L101.18 233.995V429.582L270.558 527.375L439.936 429.582V305.85C439.936 305.659 440 305.484 440 305.278V215.256C440 208.994 434.946 203.956 428.715 203.956V203.972ZM350.36 395.792H297.148V355.295H243.952V395.792H190.756V268.977H243.952V311.603H297.148V268.977H350.36V395.792Z"
          fill="url(#paint0_linear_156_18)"/>
    <defs>
        <linearGradient id="paint0_linear_156_18" x1="85.2861" y1="335.371" x2="453.276" y2="365.012"
                        gradientUnits="userSpaceOnUse">
            <stop stop-color="#EE374C"/>
            <stop offset="1" stop-color="#F99828"/>
        </linearGradient>
    </defs>
</svg>
