<svg width="32" height="32" viewBox="0 0 32 32" fill="none" xmlns="http://www.w3.org/2000/svg">
<g clip-path="url(#clip0_20702_723)">
<path d="M0 5.90407C0 2.64334 2.64334 0 5.90406 0H26.0959C29.3566 0 32 2.64334 32 5.90407V26.096C32 29.3567 29.3566 32 26.0959 32H5.90406C2.64334 32 0 29.3567 0 26.096V5.90407Z" fill="#EFEFEF"/>
<path d="M23.9719 11.2139C23.8629 11.5269 23.7537 11.8399 23.6447 12.1529C23.5177 12.3841 23.3908 12.6156 23.2638 12.8468C23.182 12.7921 23.0979 12.7403 23.0193 12.6813C22.9824 12.6535 22.9574 12.6102 22.9242 12.577C22.5534 12.2053 22.183 11.8335 21.8106 11.4634C21.6905 11.344 21.5658 11.2287 21.4433 11.1119C21.4669 11.0382 21.4909 10.965 21.5146 10.8917C21.5222 10.8703 21.5301 10.8491 21.538 10.8279C21.5696 10.6675 21.6015 10.5074 21.6331 10.3472C21.6385 10.2881 21.6435 10.2291 21.6489 10.17C21.6533 10.1261 21.6577 10.0822 21.6618 10.0383C21.6783 9.28129 21.5089 8.57253 21.1116 7.92285C21.2275 8.03024 21.3526 8.12906 21.4574 8.24624C21.7041 8.52231 21.9407 8.80753 22.1817 9.08858C22.5626 9.5317 22.9429 9.97545 23.3251 10.4174C23.4959 10.6147 23.6734 10.8061 23.8424 11.0051C23.8948 11.067 23.9293 11.1441 23.9719 11.2139Z" fill="url(#paint0_linear_20702_723)"/>
<path d="M7.40259 8.03431C7.40317 10.332 7.40288 12.6297 7.40288 14.9275V15.0481H4.98353C4.98131 15.014 4.97689 14.979 4.97689 14.9436C4.97657 12.6774 4.97657 10.411 4.97689 8.14483C4.97689 8.11355 4.98068 8.08198 4.98289 8.0507C4.98321 7.89309 4.98353 7.73519 4.98384 7.57758C4.98353 7.4301 4.98321 7.28292 4.98289 7.13573C4.98258 6.89413 4.98194 6.65247 4.98163 6.41087C5.72955 6.41087 6.47712 6.40994 7.22476 6.41185C7.2857 6.41185 7.34635 6.43172 7.40699 6.44244C7.40259 6.63133 7.39784 6.82022 7.39309 7.0094C7.39338 7.16701 7.39373 7.32491 7.39402 7.48281C7.39466 7.63 7.395 7.77719 7.39529 7.92472C7.39784 7.96104 7.40259 7.99765 7.40259 8.03431Z" fill="url(#paint1_linear_20702_723)"/>
<path d="M13.5326 15.0528C13.4899 15.055 13.4555 15.0582 13.4211 15.0582C12.5171 15.0582 11.6132 15.0595 10.7092 15.0554C10.6552 15.0554 10.5782 15.0307 10.5503 14.9906C10.1894 14.4692 9.83526 13.9427 9.47966 13.4175C9.32616 13.1947 9.17266 12.9721 9.01881 12.7491C8.8824 12.5492 8.74563 12.3493 8.60916 12.1497C8.35586 11.7811 8.10255 11.4125 7.84924 11.0439C7.89883 11.0347 7.95003 11.012 7.99771 11.018C8.73996 11.1074 9.46732 11.0091 10.1906 10.8512C10.2512 10.838 10.3138 10.8332 10.3757 10.8247C10.3946 10.8531 10.4136 10.8816 10.4325 10.9103C10.5823 11.1206 10.7323 11.3313 10.882 11.5416C10.9909 11.6848 11.0999 11.8278 11.2089 11.9709C11.2092 11.9709 11.2155 11.9782 11.2155 11.9782C11.2344 11.9962 11.2537 12.0145 11.2727 12.0325C11.2888 12.0492 11.3046 12.066 11.3207 12.0827C12.0528 13.0545 12.7849 14.0261 13.5164 14.9982C13.5243 15.0089 13.5246 15.0257 13.5326 15.0528Z" fill="url(#paint2_linear_20702_723)"/>
<path d="M12.7015 19.8146C12.3911 20.1224 12.1589 20.4803 11.9946 20.8728C11.8051 21.2887 11.6048 21.752 11.5322 22.1173C11.5036 22.0752 11.4618 22.0215 11.4486 21.9752C11.2636 21.3385 11.1071 20.6934 10.8916 20.0663C10.7653 19.6988 10.4612 19.2018 10.2837 18.8502C10.2566 18.7967 10.3122 18.903 10.2837 18.8502C10.3094 18.8284 10.3427 18.8104 10.36 18.7836C10.8363 18.0433 11.5548 17.5821 12.3572 17.2182C12.4461 17.1779 12.541 17.1504 12.633 17.1167C12.7606 17.1997 12.769 17.3194 12.7627 17.4525C12.7254 18.2394 12.8325 19.0298 12.7015 19.8146Z" fill="url(#paint3_linear_20702_723)"/>
<path d="M22.1455 19.9878C21.6346 20.6051 21.3055 21.3888 21.1522 22.1533C21.1138 22.0243 21.0913 21.8352 21.0681 21.7042C20.9132 20.8289 20.6073 19.9976 20.1649 19.2188C20.0848 19.0776 20.0176 18.9295 19.9444 18.7845C20.1345 18.5683 20.3276 18.3458 20.518 18.1294C20.6531 18.15 20.6853 18.1408 20.7651 18.2429C20.8575 18.3613 21.0442 18.5199 21.2082 18.3889C21.3169 18.5208 21.4502 18.6598 21.4967 18.7912C21.5422 18.9192 21.6242 18.9621 21.7235 19.0349C21.7945 19.0869 21.9014 19.1581 21.9545 19.231C21.9746 19.2584 21.9909 19.2889 22.0048 19.3196C22.0371 19.3903 21.9739 19.503 22.0048 19.5743C22.0534 19.7096 22.0968 19.8526 22.1455 19.9878Z" fill="url(#paint4_linear_20702_723)"/>
<path d="M10.2494 25.5014C10.0624 25.6719 9.87547 25.842 9.68855 26.0125C9.68855 26.0125 8.31279 24.2755 8.2066 24.1173C8.5314 23.6138 8.87112 22.9973 8.90826 22.4658C8.93436 22.5085 8.96751 22.5996 8.98198 22.6456C9.12429 23.0937 9.24305 23.5492 9.40801 23.9892C9.59901 24.4976 9.8742 24.9695 10.2041 25.4107C10.2242 25.4376 10.2345 25.471 10.2494 25.5014Z" fill="url(#paint5_linear_20702_723)"/>
<path d="M28.63 19.8777C28.9111 19.7479 29.1962 19.6162 29.4857 19.4824C29.4198 19.3815 29.357 19.2809 29.295 19.1816C29.1604 18.9658 29.0294 18.756 28.8775 18.5609C28.1323 17.6048 27.1455 17.0039 25.9064 16.7881C25.0087 16.632 24.1096 16.6395 23.2127 16.7752C22.7866 16.8397 22.3688 16.946 21.9842 17.143C21.4165 17.3696 20.938 17.7156 20.5152 18.1356C20.6502 18.1561 20.7492 18.2284 20.829 18.3305C20.9214 18.449 21.0179 18.5621 21.1818 18.4311C21.2156 18.4721 21.2517 18.5103 21.2868 18.5476C21.3648 18.6302 21.4379 18.7077 21.4699 18.7983C21.5155 18.9263 21.595 18.9869 21.6942 19.0597C21.7457 19.0974 21.7825 19.1535 21.8191 19.2093C21.8329 19.2305 21.8468 19.2517 21.8614 19.2717C21.8815 19.2991 21.8979 19.3296 21.9117 19.3603C21.9364 19.4145 21.9599 19.4693 21.9834 19.5241C21.9906 19.5409 21.9978 19.5576 22.005 19.5744C22.0042 19.5757 22.0033 19.577 22.0025 19.5782C22.0016 19.5795 22.0007 19.5808 22 19.5821C22.0245 19.6502 22.0489 19.7182 22.0733 19.7863C22.0974 19.8534 22.1216 19.9206 22.1457 19.9878C22.5155 19.5896 22.9484 19.272 23.4615 19.0564C24.0329 18.8732 24.6799 18.8612 25.2689 18.9395C25.8979 19.0227 26.4593 19.2493 26.8551 19.7424C26.9792 19.8971 27.0821 20.0672 27.1864 20.2396C27.2343 20.3187 27.2824 20.3983 27.333 20.477C27.757 20.281 28.1887 20.0816 28.63 19.8777Z" fill="#4F4F4F"/>
<path d="M30.1637 21.693C30.1582 21.7869 30.1545 21.881 30.1508 21.9751C30.1426 22.1816 30.1345 22.388 30.1075 22.5921C29.9928 23.453 29.7569 24.282 29.3325 25.0557C28.5693 26.4476 27.3962 27.336 25.7518 27.5721C24.5551 27.7438 23.3553 27.7205 22.2026 27.2918C21.3019 26.9572 20.5972 26.382 20.0169 25.6584C19.9961 25.6325 19.9716 25.6092 19.947 25.5859C19.936 25.5754 19.9249 25.565 19.9142 25.5542C19.4791 24.9966 18.9424 23.0994 18.7285 22.2205C18.6277 21.7685 18.4489 21.1763 18.2365 20.759C17.7423 19.7891 16.9409 19.2082 15.8366 18.9927C15.3339 18.8948 14.8319 18.9181 14.3295 18.9948C13.7112 19.1315 13.1683 19.4035 12.7011 19.8124C12.7827 19.324 12.772 18.8335 12.7613 18.3429C12.7548 18.0452 12.7483 17.7475 12.7624 17.4503C12.7687 17.3172 12.7602 17.1975 12.6326 17.1145C13.0948 16.9585 14.3114 16.6548 15.4809 16.6873C16.3003 16.7118 17.0948 16.8652 17.8445 17.1918C18.6644 17.5488 19.4229 18.073 19.945 18.785C20.7336 19.9507 21.0309 21.209 21.081 21.6924C21.1958 22.6512 21.7646 24.6778 23.1213 25.1136C23.481 25.3067 23.8753 25.4008 24.285 25.4303C24.8847 25.4739 25.4747 25.4339 26.0349 25.2008C26.7471 24.9043 27.1452 24.3616 27.3708 23.6587H24.6692V21.693H30.1637Z" fill="#4F4F4F"/>
<path d="M18.6696 26.6989C18.3023 26.967 17.8901 27.1574 17.4553 27.2959C15.8291 27.8144 14.2055 27.7965 12.5998 27.2207C11.6391 26.8759 10.8665 26.2825 10.2491 25.5049C10.2445 25.4954 10.2404 25.4856 10.2362 25.4759C10.227 25.4542 10.2177 25.4326 10.2039 25.4141C9.87403 24.9729 9.59879 24.501 9.40778 23.9926C9.24288 23.5526 9.04715 22.9684 8.90483 22.5204C8.87269 22.3677 8.84478 22.1962 8.81616 22.0204C8.76755 21.7217 8.71688 21.4104 8.63996 21.1571C8.4565 20.5523 8.1392 20.0171 7.5985 19.6234C6.67955 18.9538 5.61198 18.9299 4.52369 18.9702V25.3523C5.1979 25.3663 6.03486 25.3386 6.69182 25.1762C6.88787 25.1493 7.48091 24.8839 8.22207 24.104L9.70678 25.9975C9.65342 26.0542 9.09647 26.4741 9.03396 26.5195C8.56203 26.8636 7.27105 27.2106 6.68456 27.341C6.17121 27.412 5.6456 27.4207 5.12502 27.4269C4.52797 27.4342 3.87613 27.4333 3.23436 27.4324H3.23212C2.79001 27.4318 2.35249 27.4312 1.94119 27.4332C1.94377 24.3267 1.94374 20.0827 1.94372 16.9344C2.82272 16.9337 4.80956 16.9322 5.63617 16.9356C6.61512 16.9398 7.5724 17.0606 8.4678 17.4684C9.18474 17.7953 9.79112 18.255 10.2834 18.8496C10.3788 18.8945 10.8748 19.8872 10.8913 20.0658C11.1068 20.6929 11.3475 21.4652 11.5325 22.1019C11.546 22.1577 11.5584 22.2144 11.5707 22.2705C11.5974 22.3927 11.6241 22.5148 11.6626 22.6335C11.8398 23.1798 12.0418 23.7245 12.4069 24.1809C13.1622 25.1249 14.2061 25.475 15.4258 25.4016C15.9485 25.3702 16.4352 25.2099 16.8995 24.9858C17.2282 24.8069 17.7347 24.3625 17.7316 24.3415C17.7284 24.3206 19.6148 25.9074 19.6148 25.9074C19.3702 26.1841 19.0467 26.4337 18.8053 26.59L18.6696 26.6989Z" fill="#4F4F4F"/>
<path d="M29.4453 15.059V4.55962H27.0724V10.8565C27.063 10.8467 27.0545 10.8378 27.0465 10.8296C27.0379 10.8207 27.0301 10.8126 27.0229 10.8051C26.9971 10.7785 26.9792 10.76 26.9621 10.7409C26.5949 10.3335 26.2279 9.92599 25.8608 9.51848L25.859 9.51644C25.0288 8.59472 24.198 7.67231 23.366 6.75247L23.3077 6.68801C22.8658 6.19916 22.4237 5.71004 21.8692 5.33974C21.06 4.79902 19.823 4.43973 18.8543 4.34625C18.7375 4.33505 18.9707 4.36096 18.8543 4.34625L18.2279 4.32716C18.2136 4.33615 18.2423 4.32673 18.2279 4.32716C17.6789 4.33948 17.0792 4.4576 16.5529 4.613C15.5937 4.89662 14.7507 5.38269 14.1169 6.15965C12.9981 7.53068 12.5231 9.1017 12.8399 10.8618C13.1466 12.5639 14.0774 13.8411 15.6164 14.6364C17.0428 15.373 18.5582 15.4791 20.1014 15.1004C21.4457 14.7703 22.5024 14.0067 23.2652 12.8453C23.242 12.8298 23.2185 12.8145 23.1951 12.7992C23.1361 12.7606 23.0771 12.7221 23.0208 12.6798C22.9986 12.6631 22.9808 12.6409 22.9629 12.6186C22.9509 12.6038 22.939 12.5889 22.9257 12.5756L22.8243 12.4739C22.4874 12.1362 22.1503 11.7982 21.812 11.4619C21.7281 11.3785 21.6419 11.297 21.5557 11.2156C21.5186 11.1806 21.4815 11.1456 21.4447 11.1104C21.2091 11.6745 20.8582 12.147 20.3509 12.4973C19.7199 12.9325 19.0124 13.0838 18.2597 13.0557C17.4701 13.0259 16.775 12.7581 16.2011 12.2032C15.6518 11.672 15.336 11.0289 15.2583 10.2665C15.1825 9.52206 15.2813 8.80889 15.6522 8.15319C16.1508 7.27205 16.9231 6.77836 17.9164 6.63054C18.7502 6.50612 19.5332 6.65933 20.2565 7.0999C20.603 7.31121 20.8806 7.59231 21.113 7.92138C21.1496 7.9552 21.187 7.98818 21.2244 8.02116C21.3058 8.09287 21.3871 8.16456 21.4589 8.24483C21.6297 8.43592 21.7956 8.63143 21.9615 8.82693C22.0353 8.91381 22.109 9.00068 22.1832 9.08716C22.2741 9.193 22.3651 9.29887 22.456 9.40474L22.4581 9.40721C22.7472 9.74379 23.0363 10.0804 23.3265 10.4159C23.4016 10.5026 23.4779 10.5882 23.5543 10.6738C23.6517 10.7829 23.7491 10.8921 23.8438 11.0036C23.8797 11.046 23.9072 11.0955 23.9346 11.1448C23.9472 11.1675 23.9599 11.1904 23.9733 11.2124C23.9884 11.2234 24.0044 11.2337 24.0203 11.2439C24.0548 11.2661 24.0892 11.2884 24.1151 11.3179C25.1764 12.5308 26.2363 13.7445 27.2938 14.9608C27.3592 15.0356 27.4255 15.0622 27.5231 15.0612C27.9645 15.0579 28.4061 15.0583 28.8478 15.0588C28.995 15.0589 29.1426 15.059 29.2899 15.059H29.4453Z" fill="#4F4F4F"/>
<path d="M12.4405 8.96944C12.1168 9.88881 11.4232 10.4153 10.5351 10.727C10.5172 10.7333 10.4988 10.7382 10.4803 10.743C10.453 10.7502 10.4258 10.7574 10.4005 10.7691C10.3908 10.7734 10.3865 10.7901 10.3823 10.8068C10.3803 10.8144 10.3784 10.822 10.3759 10.8285C10.357 10.8311 10.3381 10.8333 10.3191 10.8356C10.276 10.8407 10.2329 10.8458 10.1908 10.855C9.46754 11.0129 8.74011 11.1111 7.99792 11.0218C7.96556 11.0177 7.93158 11.0268 7.89758 11.036C7.88149 11.0404 7.86538 11.0447 7.84946 11.0476C7.84267 11.0349 7.83395 11.0221 7.82524 11.0094C7.80682 10.9824 7.78841 10.9555 7.78817 10.9283C7.78486 10.489 7.78504 10.0496 7.78524 9.58928L7.78524 9.58664C7.78529 9.47714 7.78534 9.36646 7.78534 9.25431C7.89214 9.25431 7.99784 9.25565 8.10275 9.25697C8.33199 9.25987 8.55744 9.26272 8.78217 9.25148C9.43817 9.21863 9.93783 8.83077 10.1027 8.24805C10.2796 7.62207 10.042 6.93891 9.54521 6.66001C9.26381 6.5021 8.95114 6.45883 8.63591 6.45096C8.34819 6.44338 8.06045 6.44394 7.7726 6.44449C7.65096 6.44473 7.52929 6.44496 7.40761 6.44459C7.38852 6.44121 7.36944 6.43694 7.35035 6.43266C7.30876 6.42333 7.26714 6.414 7.22537 6.414C6.66189 6.41256 6.09844 6.41273 5.53486 6.4129C5.3508 6.41296 5.16634 6.41302 4.98225 6.41302C4.98185 6.26842 4.98162 6.1238 4.98138 5.97917C4.98067 5.54602 4.97996 5.11278 4.97499 4.67971C4.97341 4.56632 5.02394 4.55211 5.11743 4.55275C5.44094 4.55449 5.76433 4.55433 6.08775 4.55417C6.28973 4.55406 6.49176 4.55396 6.6938 4.55432C6.94313 4.55478 7.19248 4.55413 7.44184 4.55349C8.05924 4.5519 8.6767 4.5503 9.29382 4.56538C9.9789 4.5818 10.6301 4.7492 11.222 5.11399C11.9652 5.57195 12.3805 6.25037 12.5442 7.0905C12.6673 7.72251 12.6569 8.35545 12.4405 8.96944Z" fill="#4F4F4F"/>
<path d="M1.83557 15.0554H4.24261V4.57559H1.83557V15.0554Z" fill="#4F4F4F"/>
<path d="M19.9144 25.555C19.7872 25.7055 19.733 25.7676 19.6058 25.9181C19.3987 25.8685 19.2268 25.7822 19.1448 25.6341C19.0527 25.4682 18.9641 25.3368 18.7668 25.2873C18.7258 25.277 18.6888 25.2425 18.6565 25.2123L18.6552 25.2112C18.4692 25.0371 18.288 24.8583 18.1001 24.6864C17.977 24.5742 17.8468 24.4654 17.7189 24.3577C18.0083 24.1686 18.6195 23.4844 18.7493 22.2603C18.7898 22.6316 19.662 25.0371 19.8768 25.43C19.8768 25.43 19.9022 25.5133 19.9144 25.555Z" fill="url(#paint6_linear_20702_723)"/>
<path d="M22.4529 17.8379C22.4518 17.8397 22.4508 17.8415 22.4497 17.8434C22.4508 17.8415 22.4518 17.8397 22.4529 17.838V17.8379Z" fill="#4F4F4F"/>
</g>
<defs>
<linearGradient id="paint0_linear_20702_723" x1="23.2265" y1="10.0137" x2="21.9474" y2="11.4823" gradientUnits="userSpaceOnUse">
<stop stop-color="#232323"/>
<stop offset="1" stop-color="#4E4E4E"/>
</linearGradient>
<linearGradient id="paint1_linear_20702_723" x1="6.19184" y1="6.41064" x2="6.19184" y2="9.91824" gradientUnits="userSpaceOnUse">
<stop stop-color="#161616"/>
<stop offset="1" stop-color="#4E4E4E"/>
</linearGradient>
<linearGradient id="paint2_linear_20702_723" x1="8.98347" y1="10.8326" x2="10.6908" y2="15.0584" gradientUnits="userSpaceOnUse">
<stop stop-color="#292929"/>
<stop offset="1" stop-color="#4F4F4F"/>
</linearGradient>
<linearGradient id="paint3_linear_20702_723" x1="12.0735" y1="19.2994" x2="10.5399" y2="20.1709" gradientUnits="userSpaceOnUse">
<stop stop-color="#4F4F4F"/>
<stop offset="1" stop-color="#292929"/>
</linearGradient>
<linearGradient id="paint4_linear_20702_723" x1="21.5605" y1="19.2072" x2="20.4716" y2="20.3375" gradientUnits="userSpaceOnUse">
<stop stop-color="#4F4F4F"/>
<stop offset="1" stop-color="#282828"/>
</linearGradient>
<linearGradient id="paint5_linear_20702_723" x1="9.38538" y1="25.3209" x2="10.0526" y2="24.8464" gradientUnits="userSpaceOnUse">
<stop stop-color="#4F4F4F"/>
<stop offset="1" stop-color="#2F2F2F"/>
</linearGradient>
<linearGradient id="paint6_linear_20702_723" x1="18.9859" y1="25.2049" x2="19.6828" y2="24.6883" gradientUnits="userSpaceOnUse">
<stop stop-color="#4F4F4F"/>
<stop offset="1" stop-color="#2F2F2F"/>
</linearGradient>
<clipPath id="clip0_20702_723">
<rect width="32" height="32" fill="white"/>
</clipPath>
</defs>
</svg>
