<svg width="542" height="542" viewBox="0 0 542 542" fill="none" xmlns="http://www.w3.org/2000/svg">
    <path d="M12.9727 483.059C18.1914 461.057 23.4449 439.055 28.5943 417.036C32.0619 402.211 35.2001 387.301 38.8584 372.529C42.2393 358.866 52.8676 350.215 66.8941 350.041C92.2943 349.729 117.712 349.694 143.112 349.955C155.422 350.076 162.947 359.334 160.346 371.315C152.076 409.493 143.598 447.637 134.79 485.694C131.478 499.998 120.053 508.719 105.281 508.858C81.0246 509.083 56.7686 508.737 32.5127 508.997C23.8263 509.101 18.1741 504.541 12.9727 498.611C12.9727 493.427 12.9727 488.243 12.9727 483.059Z"
          fill="#974586"/>
    <path d="M327.485 266.179C331.403 267.097 335.269 268.398 339.257 268.901C363.791 271.935 387.318 278.09 408.835 290.643C444.725 311.587 458.647 340.784 450.672 381.269C443.84 415.927 435.986 450.378 428.306 484.864C424.925 500 413.36 508.86 397.739 508.912C373.483 508.998 349.244 508.998 324.988 508.912C310.025 508.86 302.778 500.069 305.899 485.314C311.724 457.782 318.33 430.405 323.67 402.768C325.716 392.174 326.548 380.939 325.525 370.242C322.197 335.409 296.9 321.314 267.426 312.176C253.989 308.015 239.789 306.056 226.664 301.149C208.216 294.249 200.761 278.454 205.321 260.353C208.736 246.777 218.688 239.53 231.154 236.253C245.597 232.456 260.386 229.873 275.158 227.549C300.663 223.544 325.456 217.736 347.84 204.178C366.183 193.064 378.441 178.24 382.741 156.377C389.174 123.712 397.288 91.3588 404.604 58.8672C408.679 40.8183 419.064 32.1493 437.339 32.0972C461.005 32.0452 484.689 32.0799 508.355 32.2186C523.336 32.3053 530.635 41.061 527.427 55.781C519.989 90.0237 512.534 124.266 504.368 158.336C498.698 182.002 484.29 199.843 464.473 213.852C432.952 236.149 396.958 246.777 359.924 254.909C351.481 256.764 342.968 258.29 334.559 260.232C332.062 260.804 329.756 262.295 327.381 263.37C327.415 264.306 327.45 265.242 327.485 266.179Z"
          fill="#974586"/>
    <path d="M179.05 32.2029C191.742 32.2029 204.451 32.0642 217.142 32.2376C230.042 32.411 237.566 41.2187 234.827 53.8582C226.557 92.0193 218.078 130.146 209.236 168.168C206.011 182.004 194.533 190.812 180.333 190.985C155.8 191.262 131.267 191.228 106.733 191.02C92.7761 190.898 84.8699 182.039 87.748 168.532C96.0356 129.782 104.774 91.1351 113.824 52.5578C116.616 40.7506 128.527 32.3937 140.959 32.2029C153.65 32.0122 166.359 32.1683 179.05 32.1683C179.05 32.1683 179.05 32.2029 179.05 32.2203V32.2029Z"
          fill="#974586"/>
    <path d="M123.036 225.141C148.731 225.002 169.415 245.409 169.415 270.913C169.415 296.261 149.269 317.067 124.475 317.344C98.2599 317.622 77.3502 297.336 77.2115 271.485C77.0901 245.929 97.497 225.279 123.036 225.141Z"
          fill="#EF7B2B"/>
</svg>
