<svg width="542" height="542" viewBox="0 0 542 542" fill="none" xmlns="http://www.w3.org/2000/svg">
    <g clip-path="url(#clip0_164_237)">
        <path d="M0 100C0 44.7715 44.7715 0 100 0H442C497.228 0 542 44.7715 542 100V442C542 497.228 497.228 542 442 542H100C44.7715 542 0 497.228 0 442V100Z"
              fill="#EFEFEF"/>
        <path d="M66.3984 358.058C85.4412 265.977 104.388 174.434 123.411 82.5444H219.451C205.635 149.492 191.915 215.997 178.003 283.386H251.234C245.988 308.828 240.934 333.289 235.823 358.039H66.3984V358.058Z"
              fill="#152A38"/>
        <path d="M44.4919 459.962C46.644 448.452 48.5272 438.268 50.4295 428.083C51.0444 425.509 51.6401 422.934 52.255 420.359C52.6585 419.052 53.0428 417.745 53.4464 416.439C53.6577 414.517 53.8883 412.615 54.0997 410.693C54.2342 410.117 54.3303 409.521 54.3879 408.925C55.1758 406.12 55.9636 403.295 56.7515 400.49C57.3856 396.416 58.0197 392.323 58.6346 388.249C59.5377 387.308 60.4601 386.366 61.3824 385.444C70.0103 385.348 78.6573 385.194 87.2851 385.194C313.165 385.213 218.682 381.351 444.562 381.389C443.178 382.658 67.1471 457.964 44.4727 460.001L44.4919 459.962Z"
              fill="#EBBC48"/>
        <path d="M249.621 357.87C254.809 333.024 259.901 308.697 265.051 284.005H456.612C451.674 308.812 446.851 333.082 441.931 357.87H249.621Z"
              fill="#152A38"/>
        <path d="M477.016 182.372C472.212 206.526 467.792 229.719 462.642 252.74C462.2 254.738 456.916 256.852 453.861 256.871C412.278 257.14 370.676 257.044 329.093 257.044C309.955 257.044 290.797 257.044 270.562 257.044C275.866 231.564 280.958 207.026 286.07 182.372H477.016Z"
              fill="#162B38"/>
        <path d="M291.297 157.064C296.62 131.412 301.731 106.873 306.804 82.4693H497.058C493.196 102.031 489.602 121.035 485.682 139.982C482.128 157.103 481.974 157.064 464.103 157.064C410.357 157.064 356.592 157.064 302.845 157.064C299.406 157.064 295.947 157.064 291.297 157.064Z"
              fill="#162B39"/>
        <path d="M52.2591 420.357C51.6442 422.932 51.0293 425.507 50.4336 428.082C51.0485 425.507 51.6442 422.932 52.2591 420.357Z"
              fill="#F1DEAF"/>
        <path d="M61.3846 385.424C60.4622 386.365 59.5591 387.288 58.6367 388.229C59.5591 387.288 60.4622 386.346 61.3846 385.424Z"
              fill="#F1DEAF"/>
    </g>
    <defs>
        <clipPath id="clip0_164_237">
            <rect width="542" height="542" fill="white"/>
        </clipPath>
    </defs>
</svg>
