<svg width="32" height="32" viewBox="0 0 32 32" fill="none" xmlns="http://www.w3.org/2000/svg">
<path fill-rule="evenodd" clip-rule="evenodd" d="M2.90909 19.5566C4.51574 19.5566 5.81818 20.859 5.81818 22.4656C5.81818 24.0722 4.51574 25.3746 2.90909 25.3746C1.30244 25.3746 0 24.0722 0 22.4656C0 20.859 1.30244 19.5566 2.90909 19.5566ZM9.45455 19.5566C11.0612 19.5566 12.3636 20.859 12.3636 22.4656C12.3636 24.0722 11.0612 25.3746 9.45455 25.3746C7.8479 25.3746 6.54545 24.0722 6.54545 22.4656C6.54545 20.859 7.8479 19.5566 9.45455 19.5566ZM16 19.5566C17.6066 19.5566 18.9091 20.859 18.9091 22.4656C18.9091 24.0722 17.6066 25.3746 16 25.3746C14.3934 25.3746 13.0909 24.0722 13.0909 22.4656C13.0909 20.859 14.3934 19.5566 16 19.5566ZM22.5455 19.5566C24.1521 19.5566 25.4545 20.859 25.4545 22.4656C25.4545 24.0722 24.1521 25.3746 22.5455 25.3746C20.9388 25.3746 19.6364 24.0722 19.6364 22.4656C19.6364 20.859 20.9388 19.5566 22.5455 19.5566ZM31.0677 19.5566C31.1018 19.5566 31.1336 19.557 31.1634 19.5578L31.2469 19.5611C31.4025 19.57 31.4931 19.5919 31.5711 19.626L31.6092 19.644C31.6155 19.6472 31.6217 19.6504 31.6279 19.6538C31.7465 19.7172 31.8395 19.8102 31.9029 19.9287C31.9596 20.0347 31.9926 20.14 31.9989 20.3932L32 20.4889V24.4423L31.9989 24.538C31.9926 24.7912 31.9596 24.8965 31.9029 25.0025C31.8395 25.1211 31.7465 25.2141 31.6279 25.2774L31.5903 25.2965L31.5513 25.3135C31.4642 25.3482 31.357 25.3686 31.1634 25.3735L31.0677 25.3746H27.1141L27.0184 25.3735C27.0035 25.3731 26.9891 25.3726 26.9752 25.3721L26.8973 25.3676C26.7522 25.3566 26.6677 25.3325 26.5915 25.2965L26.5539 25.2774C26.4354 25.2141 26.3423 25.1211 26.279 25.0025C26.2256 24.9027 26.1932 24.8036 26.1843 24.5812L26.1821 24.4918V20.4394L26.1843 20.35C26.1932 20.1276 26.2256 20.0285 26.279 19.9287C26.3423 19.8102 26.4354 19.7172 26.5539 19.6538L26.5726 19.644L26.6108 19.626C26.6887 19.5919 26.7793 19.57 26.9349 19.5611L27.0184 19.5578C27.0333 19.5574 27.0487 19.5571 27.0646 19.5569L31.0677 19.5566ZM3.08472 21.1626C2.32554 21.1626 1.73632 21.7275 1.73632 22.4581C1.73632 22.8234 1.83452 23.1096 2.04226 23.3431C2.27266 23.6067 2.65792 23.7686 3.04318 23.7686C3.45865 23.7686 3.7797 23.6745 4.08186 23.4674V22.3112H3.06584L3.01674 22.782H3.42843V23.1435C3.32268 23.1887 3.24714 23.2037 3.13382 23.2C2.74857 23.1811 2.45773 22.8723 2.45773 22.4769C2.45773 22.0476 2.71835 21.7576 3.10361 21.7576C3.30379 21.7576 3.47376 21.8254 3.64373 21.9798L4.04787 21.5091C3.78348 21.268 3.48887 21.1626 3.08472 21.1626ZM29.1246 21.1626C28.9563 21.1626 28.747 21.2228 28.6087 21.3057C28.3956 21.4375 28.2722 21.6559 28.2722 21.9007C28.2722 22.2058 28.4031 22.4054 28.7096 22.5748C28.7545 22.5974 28.8479 22.6464 28.975 22.7142C29.1657 22.8158 29.2292 22.8836 29.2292 22.9891C29.2292 23.1473 29.1021 23.2452 28.9227 23.2301C28.6984 23.2113 28.4816 23.1058 28.2498 22.9025L28.1788 23.4975C28.4778 23.682 28.7582 23.7686 29.0685 23.7686C29.618 23.7686 30.0031 23.4448 30.0031 22.9816C30.0031 22.7857 29.9171 22.5899 29.7788 22.4694C29.6816 22.3865 29.5283 22.2961 29.289 22.1719C29.0685 22.0589 29.0124 21.9986 29.0199 21.8819C29.0274 21.7689 29.132 21.6861 29.2629 21.6861C29.4199 21.6861 29.5619 21.7425 29.79 21.8932L29.9358 21.3848C29.6068 21.2115 29.4274 21.1626 29.1246 21.1626ZM15.3481 21.2277H14.8093L14.4363 23.7035H14.9977L15.1635 22.3864L15.7362 23.7035H16.1583L16.7347 22.3788L16.8968 23.7035H17.5637L17.1944 21.2277H16.6594L16.0038 22.7524L15.3481 21.2277ZM23.2341 21.2277H21.6985V23.7035H23.3335L23.3925 23.1827H22.3355V22.6656H23.142V22.1826H22.3355V21.7372H23.2341V21.2277ZM9.74963 21.2408H9.17431L8.12759 23.6904H8.75117L8.97016 23.1527H9.86841L10.08 23.6904H10.7815L9.74963 21.2408ZM9.46406 22.0573L9.76077 22.8739H9.14833L9.46406 22.0573Z" fill="#8B6CE0"/>
<path fill-rule="evenodd" clip-rule="evenodd" d="M31.9993 6.63147L28.3192 15.661C27.6248 17.3966 24.9616 17.4201 24.246 15.6485L22.075 10.3218L19.9015 15.6544C19.1689 17.4603 16.4999 17.342 15.8293 15.652L13.6525 10.3194C14.7875 10.0818 15.6382 9.11861 15.6382 7.96589C15.6382 7.91101 15.6361 7.85687 15.6323 7.80296L17.863 13.2763L20.0288 7.96248C20.7252 6.22316 23.3771 6.17292 24.1307 7.98589L26.285 13.2719L28.9915 6.63147H31.9993ZM6.7358 6.63134L3.6578 14.2067L7.82603 14.2045L6.69173 16.968L2.53554 16.9643C1.25443 16.8631 0.134221 15.5657 0.653328 14.184L3.7321 6.63134H6.7358ZM11.0349 9.35071C11.4931 9.97073 12.2502 10.3756 13.1073 10.3756C13.293 10.3756 13.4739 10.3564 13.6484 10.3203L11.4726 15.6614C11.2081 16.3536 10.3798 16.9748 9.45737 16.966H7.93105L11.0349 9.35071ZM13.1071 6.62695C13.8832 6.62695 14.5135 7.22648 14.5135 7.96601C14.5135 8.70555 13.8832 9.30483 13.1071 9.30483C12.3299 9.30483 11.7001 8.70555 11.7001 7.96601C11.7001 7.22648 12.3299 6.62695 13.1071 6.62695Z" fill="white"/>
</svg>
