<svg width="542" height="542" viewBox="0 0 542 542" fill="none" xmlns="http://www.w3.org/2000/svg">
    <g clip-path="url(#clip0_348_3772)">
        <path d="M0 100C0 44.7715 44.7715 0 100 0H442C497.228 0 542 44.7715 542 100V442C542 497.228 497.228 542 442 542H100C44.7715 542 0 497.228 0 442V100Z"
              fill="#EEEEEE"/>
        <path fill-rule="evenodd" clip-rule="evenodd"
              d="M349.463 415.75C349.49 426.765 351.8 433.826 358.943 439.68C375.122 452.941 389.896 438.994 394.877 439.174C401.525 439.414 402.91 440.633 409.721 437.983C417.377 435.004 423.243 429.101 425.305 420.312C430.351 398.789 411.11 391.585 408.977 389.666C408.776 389.484 395.165 356.271 367.274 374.994C362.384 378.277 362.917 380.516 358.932 384.012C323.852 372.411 295.397 322.254 321.943 279.434C342.779 245.821 383.555 233.763 420.088 253.034C424.785 255.512 429.689 259.964 433.122 260.677C438.936 253.738 444.161 242.19 444.998 230.864C427.968 212.506 383.23 207.091 354.127 215.846C324.587 224.734 303.43 244.226 291.006 267.879C268.369 310.968 280.889 367.514 313.56 393.812C338.419 413.825 330.536 404.344 349.463 415.75Z"
              fill="#030304"/>
        <path fill-rule="evenodd" clip-rule="evenodd"
              d="M182.016 156.622C191.535 159.19 200.75 166.511 206.585 172.041C262.76 225.318 206.568 316.089 135.049 293.595C129.503 291.851 125.91 290.423 120.761 287.531C115.811 284.749 111.429 282.409 107.365 279.456C104.991 282.583 102.403 287.615 100.217 292.93C97.9996 298.323 96.4074 304.305 96.0312 311.128C99.9758 313.477 113.179 323.128 136.695 327.438C153.426 330.503 172.234 329.536 187.824 324.511C217.486 314.952 237.535 296.122 249.974 272.496C284.019 207.832 242.059 142.338 191.737 125.349C190.916 113.298 189.926 108.038 182.598 101.301C167.564 87.4864 149.991 101.334 146.957 101.444C140.397 101.683 139.768 99.7279 132.194 102.282C124.888 104.746 118.345 111.17 116.014 119.25C110.166 139.537 127.043 147.165 131.296 150.241C134.541 152.59 132.656 150.833 134.501 155.028C135.598 157.524 136.472 159.141 137.806 160.953C141.959 166.602 150.51 172.019 161.488 170.719C173.276 169.324 176.196 162.65 182.016 156.622Z"
              fill="#030304"/>
        <path fill-rule="evenodd" clip-rule="evenodd"
              d="M182.015 384C178.863 380.662 174.962 371.962 162.564 369.994C140.254 366.448 134.203 387.491 132.622 389.204C131.039 390.918 110.39 399.173 115.783 420.405C119.517 435.107 131.337 440.27 145.167 439.308C151.566 438.863 150.807 441.351 156.52 443.559C165.754 447.127 175.929 444.951 181.991 439.664C190.981 431.821 190.291 429.155 191.817 415.292C219.627 403.585 233.939 391.257 247.433 369.373C259.297 350.132 268.073 311.303 257.347 285.992C255.691 288.918 249.383 297.684 243.378 304.178C236.7 311.398 230.113 315.741 230.099 315.913C229.64 321.819 228.475 327.84 227.026 333.605C221.23 356.632 203.813 377.216 182.015 384Z"
              fill="#030304"/>
        <path fill-rule="evenodd" clip-rule="evenodd"
              d="M349.291 125.374C323.68 134.485 304.697 152.227 293.238 171.98C282.484 190.52 277.621 211.662 279.616 234.042C280.003 238.381 280.307 245.201 284.741 254.564C286.151 252.514 291.685 243.993 297.634 237.394C304.059 230.267 310.888 225.093 310.924 224.907C311.87 220.08 312.326 215.345 313.245 210.628C318.062 185.881 336.846 163.456 358.931 156.595C362.1 159.4 365.82 168.488 378.435 170.559C389.116 172.314 398.783 167.022 402.792 161.751C404.782 159.132 407.136 153.024 408.539 151.456C410.263 149.527 430.614 141.895 425.285 120.176C421.739 105.731 410.023 100.1 395.877 101.284C387.846 101.957 376.788 87.2642 359.024 100.825C351.001 106.949 350.352 114.211 349.291 125.374Z"
              fill="#030304"/>
        <path fill-rule="evenodd" clip-rule="evenodd"
              d="M83.4137 224.199L83.3621 84.3061L458.219 84.3594C458.244 91.7714 458.634 151.964 458.294 193.231C458.177 207.373 458.435 223.044 456.691 237.144C452.627 269.835 415.516 303.435 372.648 295.758C354.009 292.42 338.48 280.992 337.245 279.598C330.961 284.228 324.513 301.849 324.731 310.852C350.779 326.044 380.349 336.374 417.011 324.289C446.449 314.589 467.268 295.075 479.147 271.197C484.023 261.398 486.945 251.201 488.663 240.646V51.85L51.7207 51.7559V231.02C51.7207 239.903 52.8992 247.392 55.1419 254.777C58.6304 249.346 63.8726 242.931 67.8908 238.847L83.4137 224.199Z"
              fill="#030304"/>
        <path fill-rule="evenodd" clip-rule="evenodd"
              d="M458.308 317.744L458.36 457.637L83.5027 457.583C83.4777 450.171 83.0874 389.979 83.4274 348.712C83.545 334.569 83.2865 318.899 85.0307 304.799C89.0944 272.108 126.205 238.508 169.074 246.185C187.712 249.522 203.242 260.951 204.476 262.345C210.761 257.715 217.208 240.094 216.99 231.091C190.942 215.899 161.373 205.569 124.71 217.654C95.2722 227.354 74.4538 246.868 62.5746 270.746C57.6991 280.545 54.7762 290.741 53.0586 301.297V490.093L490.001 490.187V310.923C490.001 302.04 488.822 294.551 486.58 287.165C483.091 292.597 477.849 299.012 473.831 303.096L458.308 317.744Z"
              fill="#030304"/>
    </g>
    <defs>
        <clipPath id="clip0_348_3772">
            <rect width="542" height="542" fill="white"/>
        </clipPath>
    </defs>
</svg>
