<svg width="32" height="32" viewBox="0 0 32 32" fill="none" xmlns="http://www.w3.org/2000/svg">
<path d="M0 16.0732C0 7.18208 7.14114 0 15.9867 0C21.4018 0 26.4071 2.72573 29.3844 7.16045C34.2171 14.5805 32.1675 24.5316 24.7675 29.3773C17.3674 34.223 7.44318 32.1679 2.61051 24.7479C3.32243 23.6447 4.03445 22.5413 4.70323 21.4164C5.78195 19.6858 6.81752 17.9552 7.80994 16.1813L8.54348 14.8617C8.73498 14.5417 8.91468 14.2098 9.0913 13.8836C9.15345 13.7688 9.21524 13.6547 9.27701 13.5421C9.48006 13.1931 9.67336 12.8245 9.87002 12.4495C9.96587 12.2668 10.0626 12.0823 10.1616 11.898V14.2127C10.1831 15.8568 10.2479 17.4793 10.4205 19.1234C10.5068 19.9454 10.6362 20.8107 10.8088 21.6328C10.9814 22.5413 11.2834 23.4283 11.6933 24.2503C11.9522 24.7912 12.3406 25.2454 12.7721 25.6348C13.0741 25.8728 13.3977 26.0675 13.7429 26.1973C14.0881 26.3271 14.498 26.3703 14.8864 26.3487C14.9727 26.3379 15.059 26.3217 15.1453 26.3054C15.2316 26.2892 15.3178 26.273 15.4041 26.2622C15.4588 26.2622 15.5048 26.2448 15.5531 26.2266C15.5811 26.2161 15.6098 26.2052 15.6415 26.1973L15.7493 26.1757H15.8141L15.9004 26.154H15.9219L16.073 26.0891L16.3318 25.9377C16.4829 25.8728 16.6123 25.7863 16.7202 25.6997C16.7696 25.656 16.8193 25.6124 16.8693 25.5685C17.1903 25.2867 17.5189 24.9983 17.7989 24.6614C18.3598 24.0124 18.8776 23.2985 19.3523 22.563C19.8269 21.8491 20.2368 21.1352 20.6467 20.3781C21.3973 19.0511 22.0394 17.7422 22.6889 16.4183L22.8689 16.0515C22.9669 15.8672 23.058 15.6689 23.1501 15.4685C23.22 15.3162 23.2906 15.1626 23.3651 15.0131C23.4748 15.25 23.5745 15.4835 23.6734 15.715C23.8274 16.0754 23.9795 16.4315 24.1634 16.787C24.5949 17.6523 25.0695 18.496 25.6304 19.2964C26.1914 20.0968 26.8386 20.8324 27.5721 21.4813C27.7016 21.5895 27.8957 21.5895 28.0468 21.4813C28.1978 21.3732 28.2194 21.1352 28.1115 20.9622C27.5506 20.2483 27.0975 19.4911 26.7523 18.6691C26.3855 17.847 26.1051 16.9817 25.8677 16.138C25.6304 15.2944 25.4578 14.4074 25.3068 13.5205C25.2276 13.2028 25.1833 12.8735 25.1397 12.5497C25.124 12.4325 25.1083 12.3158 25.0911 12.2009L25.0048 11.5303C24.9616 11.2923 24.94 11.0543 24.94 10.8813C24.8537 10.3837 24.5301 9.97271 24.0555 9.79965C23.322 9.51842 22.4806 9.86454 22.1785 10.6001C21.8765 11.2923 21.5529 12.0278 21.2292 12.7417C21.045 13.1603 20.8538 13.565 20.6636 13.9676C20.5197 14.2722 20.3762 14.5759 20.2368 14.8833C19.568 16.2895 18.8561 17.674 18.101 19.0368C17.7342 19.7075 17.3458 20.3781 16.9359 21.0054C16.5476 21.6111 16.1161 22.1736 15.6415 22.736L15.6264 22.7526C15.4167 22.9841 15.226 23.1944 14.9942 23.3634C14.9834 23.3742 14.9619 23.3904 14.9403 23.4067C14.9187 23.4229 14.8971 23.4391 14.8864 23.4499L14.8001 23.4716H14.7785L14.7138 23.4932H14.649C14.6218 23.4932 14.6175 23.5008 14.6152 23.5049L14.6135 23.5071C14.6135 23.5071 14.6064 23.5047 14.5858 23.489L14.5627 23.4716C14.4333 23.3201 14.3038 23.1471 14.2176 22.974C13.9155 22.3899 13.6998 21.7409 13.5919 21.092C13.4624 20.3564 13.333 19.6209 13.2467 18.8854C13.0957 17.3711 13.0094 15.8136 13.0094 14.256C13.0094 12.6984 13.031 11.0976 13.0957 9.54005C13.1272 9.15052 13.1485 8.76098 13.1695 8.37643C13.1916 7.97081 13.2135 7.57075 13.2467 7.18208C13.2698 6.91163 13.304 6.63566 13.3383 6.35811C13.4 5.85864 13.4624 5.35407 13.4624 4.86737C13.484 4.24002 13.1604 3.69921 12.6426 3.39635C11.9091 3.07186 11.0461 3.35308 10.7009 4.06696L10.6362 4.15349L9.98896 5.47309C9.8463 5.77508 9.68034 6.08875 9.50821 6.4141C9.44606 6.53156 9.38311 6.65055 9.32015 6.77106C9.08284 7.22535 8.86709 7.63637 8.6082 8.06902L8.45321 8.34055C8.25307 8.69087 8.06387 9.02206 7.87467 9.36699C7.42161 10.2107 6.90382 11.076 6.38603 11.9197C6.14871 12.3523 5.88982 12.785 5.63093 13.196L4.83267 14.4723C3.75395 16.1597 2.67523 17.8038 1.55336 19.4479C1.29447 19.9021 1.014 20.3132 0.711957 20.7242C0.237319 19.2315 0 17.6523 0 16.0732Z" fill="url(#paint0_linear_20702_312)"/>
<defs>
<linearGradient id="paint0_linear_20702_312" x1="23.9308" y1="3.26571" x2="10.3636" y2="31.9717" gradientUnits="userSpaceOnUse">
<stop stop-color="#32B6E6"/>
<stop offset="1" stop-color="#21E21F"/>
</linearGradient>
</defs>
</svg>
