<svg width="32" height="32" viewBox="0 0 32 32" fill="none" xmlns="http://www.w3.org/2000/svg">
<path d="M0 19.3933V12.5793H1.18721L3.84527 16.5598V12.5793H5.20216V19.3933H4.04314L1.27236 15.2937V19.3933H0Z" fill="#6BB22D"/>
<path d="M21.6253 19.3933V12.5793H22.8131L25.4706 16.5598V12.5793H26.8281V19.3933H25.6685L22.8977 15.2937V19.3933H21.6253Z" fill="#6BB22D"/>
<path d="M6.02239 12.5793V19.3933H10.6873V18.1778H7.40746V16.5598H10.1219V15.3789H7.40746V13.7671H10.6873V12.5793H6.02239Z" fill="#6BB22D"/>
<path d="M11.14 13.739V12.5793H15.7204V13.739H14.1932V19.3933H12.8644V13.7671L11.14 13.739Z" fill="#6BB22D"/>
<path d="M27.4196 13.739V12.5793H32V13.739H30.4728V19.3933H29.1441V13.7671L27.4196 13.739Z" fill="#6BB22D"/>
<path d="M21.2339 19.3933V18.1778H17.954V16.5598H20.6678V15.3789H17.954V13.7671H21.2339V12.5793H16.7662V10.3174H16.3704V21.6835H16.7662V19.3933H21.2339Z" fill="#6BB22D"/>
</svg>
