<svg width="542" height="542" viewBox="0 0 542 542" fill="none" xmlns="http://www.w3.org/2000/svg">
    <path d="M8.71875 111.643C8.71875 50.1277 57.0334 0.259766 116.633 0.259766H425.086C484.685 0.259766 533 50.1277 533 111.643V430.013C533 491.528 484.685 541.396 425.086 541.396H116.633C57.0334 541.396 8.71875 491.528 8.71875 430.013V111.643Z"
          fill="url(#paint0_linear_348_1450)"/>
    <path fill-rule="evenodd" clip-rule="evenodd"
          d="M111.82 66.0076C165.57 65.8621 219.312 65.7104 252.573 66.1902C285.841 66.6746 298.629 67.7905 312.183 71.4694C325.745 75.1482 340.089 81.3979 355.371 90.8419C370.654 100.291 386.886 112.929 399.17 128.137C411.451 143.35 419.79 161.137 424.352 180.616C428.921 200.101 429.709 221.294 430.502 242.48C403.404 242.55 376.312 242.62 349.214 242.689C348.843 236.987 348.463 231.286 347.166 222.043C345.867 212.808 343.649 200.025 336.699 187.243C329.754 174.467 318.076 161.691 305.289 155.295C292.509 148.908 278.62 148.908 259.525 148.839C240.436 148.775 216.142 148.637 191.855 148.504C192.132 179.898 192.416 211.289 192.693 242.681C165.796 242.872 138.9 243.054 112.003 243.243C111.939 184.161 111.884 125.088 111.82 66.0076Z"
          fill="#0E123A"/>
    <path d="M430.307 264.847H348.734V475.704H430.307V264.847Z" fill="#0E123A"/>
    <path d="M193.479 265.752H111.906V476.61H193.479V265.752Z" fill="#0E123A"/>
    <defs>
        <linearGradient id="paint0_linear_348_1450" x1="270.859" y1="0.259766" x2="270.859" y2="541.396"
                        gradientUnits="userSpaceOnUse">
            <stop stop-color="#FFFF00"/>
            <stop offset="1" stop-color="#B2AA0E"/>
        </linearGradient>
    </defs>
</svg>
