<svg width="32" height="32" viewBox="0 0 32 32" fill="none" xmlns="http://www.w3.org/2000/svg">
<path fill-rule="evenodd" clip-rule="evenodd" d="M27.4048 5.21941C26.3782 3.63643 21.7577 2.69515 16.025 2.69515C10.2923 2.69515 5.67177 3.63643 4.64519 5.21941C3.66691 6.75713 3.97262 9.80813 4.30401 13.1129C4.378 13.8533 4.45381 14.6066 4.51679 15.3583C4.85918 19.4652 5.71456 25.4547 7.04074 27.123C8.19633 28.5776 12.346 29.3477 16.025 29.3477C19.7039 29.3477 23.8536 28.5776 25.0092 27.123C26.3354 25.4119 27.1908 19.4652 27.5332 15.3583C27.5961 14.6066 27.672 13.8533 27.7459 13.1129C28.0773 9.80813 28.383 6.75713 27.4048 5.21941ZM7.41065 8.54585C7.44306 8.48012 7.48952 8.41745 7.55433 8.38504C7.665 8.32971 7.81174 8.29211 7.90162 8.28416C7.95054 8.27988 7.98233 8.28446 7.98233 8.29944H14.1852C14.1852 8.29944 14.7416 8.25664 15.1268 8.64184C15.5114 9.02673 15.597 9.32633 15.597 9.32633L18.9769 15.7863L19.9179 11.2942C19.9179 11.2942 20.0463 10.6097 19.7895 10.3529C19.5333 10.0964 19.0197 10.0108 19.0197 10.0108L18.7629 9.96801C18.7629 9.96801 18.7048 9.96802 18.64 9.93439C18.5929 9.91024 18.5422 9.86866 18.5061 9.79682C18.4633 9.66842 18.5061 9.49722 18.5061 9.49722L18.6773 8.81273C18.6773 8.81273 18.7201 8.68464 18.8913 8.51344C19.1053 8.34224 19.3193 8.34224 19.3193 8.34224H25.7362C25.7362 8.34224 25.8438 8.34224 25.949 8.37006C26.0187 8.38841 26.0872 8.41928 26.1214 8.47064C26.2498 8.59904 26.207 8.81273 26.207 8.81273L25.993 9.62562C25.993 9.62562 25.9789 9.68217 25.9508 9.74637C25.93 9.79407 25.9013 9.84604 25.8646 9.88242C25.7362 10.0108 25.5222 10.0536 25.5222 10.0536C25.5222 10.0536 24.7524 10.2245 24.4528 10.5241C24.1104 10.8665 24.0676 11.1658 24.0676 11.1658L22.1857 18.8663C22.1857 18.8663 22.0573 19.2515 22.1857 19.4652C22.3569 19.722 22.9126 20.0216 23.2978 20.1497C23.4427 20.1944 23.5815 20.2301 23.7099 20.2634C24.0756 20.3576 24.358 20.4307 24.4528 20.6205C24.5812 20.877 24.4956 21.091 24.4956 21.091L24.41 21.5615C24.41 21.5615 24.3672 21.7755 24.196 21.9467C24.0676 22.0751 23.768 22.0751 23.768 22.0751L18.1637 22.1179C18.1637 22.1179 17.7791 22.1179 17.6079 21.9895C17.4367 21.8611 17.3084 21.6471 17.3084 21.6471L13.9712 15.7007C13.9712 15.7007 13.929 15.4867 13.6722 15.4867C13.501 15.4867 13.4154 15.7435 13.4154 15.7435L12.8162 19.1231C12.8162 19.1231 12.6878 19.722 13.073 20.0641C13.4154 20.3209 13.5866 20.4065 13.929 20.4921L14.0819 20.5343C14.2629 20.5826 14.3387 20.6028 14.442 20.7061C14.5276 20.7914 14.4848 21.0054 14.4848 21.0054L14.3564 21.6471C14.3564 21.6471 14.3564 21.8611 14.228 21.9895C14.0996 22.1179 13.8862 22.1179 13.8862 22.1179L6.91234 22.0751C6.91234 22.0751 6.61336 22.0323 6.52776 21.8611C6.44216 21.6899 6.48496 21.5187 6.48496 21.5187L6.57056 21.091C6.57056 21.091 6.5944 21.0063 6.6427 20.914C6.6855 20.833 6.74726 20.7462 6.82735 20.7061C7.04074 20.6205 7.38314 20.6205 7.38314 20.6205C7.38314 20.6205 7.93953 20.5777 8.28193 20.2781C8.62371 19.936 8.75211 19.2943 8.75211 19.2943L10.1211 12.5348C10.1211 12.5348 10.2079 12.1887 10.1388 11.7717C10.0991 11.533 10.0086 11.271 9.82149 11.0374C9.3513 10.4385 8.06793 10.2245 8.06793 10.2245C8.06793 10.2245 7.34034 10.0964 7.21194 9.88242C7.12634 9.66842 7.16914 9.49722 7.16914 9.49722L7.34034 8.77024C7.34034 8.77024 7.35684 8.65407 7.41065 8.54585Z" fill="white"/>
<path fill-rule="evenodd" clip-rule="evenodd" d="M24.0248 0.727287C26.8912 1.36897 28.7309 2.35306 29.6291 3.76483C31.1265 6.07478 30.7847 9.45473 30.3567 13.3905C30.32 13.7047 30.2833 14.019 30.2497 14.3333C30.2051 14.7463 30.1672 15.1593 30.1427 15.5723C30.0143 17.0269 29.7147 19.8932 29.2017 22.6312C28.4741 26.6525 27.6188 28.0215 27.0624 28.7488C24.6668 31.7863 17.9931 32 15.9822 32C13.9712 32 7.29754 31.7435 4.90198 28.7488C4.34559 28.0215 3.53301 26.6525 2.76262 22.6312C2.24964 19.8932 1.95004 17.0269 1.82164 15.5723C1.77884 14.845 1.69324 14.1177 1.60764 13.3905C1.22306 9.45473 0.880661 6.07478 2.37803 3.76483C3.27621 2.35306 5.11598 1.36897 7.98233 0.727287C10.2067 0.256797 12.9874 0 16.025 0C19.0625 0 21.8005 0.256797 24.0248 0.727287ZM29.0733 15.4867C29.1161 14.7166 29.2017 13.9893 29.2873 13.2621C29.6719 9.58282 30.0143 6.37438 28.6881 4.32092C27.9612 3.12314 26.3354 2.31026 23.768 1.75417C21.6293 1.32617 18.9341 1.06938 15.9822 1.06938C13.0302 1.06938 10.3351 1.28338 8.19633 1.75417C5.62897 2.31026 4.04661 3.16564 3.27621 4.32092C1.9586 6.31813 2.28754 9.49722 2.67029 13.1878L2.67763 13.2621C2.71982 13.6234 2.75161 13.9951 2.78341 14.3669C2.81581 14.7438 2.84822 15.1208 2.89102 15.4867C3.01942 16.8985 3.31901 19.722 3.83261 22.4172C4.55959 26.182 5.32998 27.4654 5.80016 28.0643C7.89673 30.7594 14.656 30.8878 15.9822 30.8878C17.3084 30.8878 24.0248 30.7594 26.1642 28.0643C26.6772 27.4226 27.4048 26.182 28.1317 22.4172C28.6881 19.722 28.9449 16.8985 29.0733 15.4867Z" fill="white"/>
</svg>
