<svg width="32" height="32" viewBox="0 0 32 32" fill="none" xmlns="http://www.w3.org/2000/svg">
<path d="M10.2005 9.1691C9.76579 8.78744 9.38638 8.45435 9.19576 8.21195C8.93332 7.87805 9.02874 7.71576 9.35317 7.38912C9.49003 7.25136 9.66763 7.08433 9.88454 6.88034C10.182 6.60064 10.5533 6.25144 10.9947 5.81292C11.7583 5.05444 12.7317 4.02901 13.4903 3.11556C14.2491 2.20215 14.7932 1.40078 15.108 0.933414C15.1764 0.831926 15.234 0.746179 15.2831 0.673098C15.46 0.409556 15.5264 0.310719 15.5899 0.232309C15.671 0.132037 15.7474 0.0653047 15.8333 0.0318834C15.9192 -0.00153785 16.0146 -0.00153759 16.0909 0.000954417C16.1672 0.00333602 16.2242 0.00809119 16.3054 0.0654152C16.3865 0.122637 16.4916 0.23219 16.8089 0.71881C16.8717 0.815096 16.9428 0.926142 17.0217 1.04931C17.3413 1.54846 17.7883 2.24663 18.3259 2.96785C18.9961 3.86695 19.8074 4.80177 20.5185 5.54582C21.1105 6.16527 21.6331 6.6525 22.0257 7.01848C22.1047 7.09209 22.1784 7.1608 22.2463 7.22469C22.652 7.60622 22.8523 7.81615 22.8976 7.99019C22.943 8.16424 22.8334 8.30256 22.6068 8.51951C22.4912 8.63027 22.3451 8.76151 22.1384 8.94717C21.9401 9.1253 21.686 9.35352 21.3495 9.66181C20.6624 10.2914 19.6317 11.2548 18.7966 12.1849C18.1211 12.9373 17.5736 13.6679 17.1845 14.1872C17.0926 14.3098 17.0095 14.4207 16.9356 14.5173C16.5491 15.0229 16.4156 15.1374 16.2676 15.1946C16.1197 15.2518 15.9574 15.2518 15.7952 15.1946C15.6329 15.1374 15.4706 15.0229 15.2511 14.7272C15.1691 14.6168 15.0791 14.481 14.9751 14.3242C14.8008 14.0612 14.5872 13.739 14.3062 13.3775C13.8576 12.8003 13.2374 12.1231 12.6075 11.4695C11.9777 10.816 11.3383 10.1866 10.7084 9.61899C10.536 9.46363 10.3643 9.31292 10.2005 9.1691Z" fill="url(#paint0_linear_20702_874)"/>
<path d="M0.78708 6.70908C0.729835 8.36886 0.67248 11.5741 0.615234 14.7792C1.5505 13.8062 2.48587 12.8333 3.08453 12.2635C3.68324 11.6936 3.94529 11.5271 4.13622 11.4317C4.32706 11.3362 4.44669 11.312 4.55418 11.3191C4.66175 11.3261 4.75725 11.3642 4.62358 11.6503C4.52485 11.862 4.30076 12.2092 4.0016 12.6728C3.8962 12.8361 3.78149 13.0139 3.65966 13.2053C3.19209 13.9398 2.61948 14.8747 2.1423 15.7809C1.66509 16.6871 1.28333 17.5648 1.0352 18.595C0.787072 19.6252 0.67248 20.8081 0.777443 21.9337C0.882518 23.0593 1.20694 24.1277 1.75091 25.034C2.29499 25.9402 3.05842 26.6842 3.93646 27.3329C4.81442 27.9815 5.80696 28.5349 6.64675 28.8688C7.48662 29.2026 8.17374 29.3171 9.06132 29.3648C9.94882 29.4125 11.0369 29.3934 12.0389 29.2694C13.0411 29.1453 13.9572 28.9165 14.6921 28.6208C15.2377 28.4012 15.6834 28.1448 16.0369 27.9414C16.1595 27.8708 16.2711 27.8067 16.3718 27.7527C16.7631 27.5428 16.992 27.4856 17.1353 27.5142C17.2784 27.5427 17.3356 27.6573 17.3452 27.7908C17.3546 27.9243 17.3166 28.0769 17.2307 28.2392C17.1447 28.4013 17.0112 28.573 16.2095 29.0023C15.6356 29.3096 14.7193 29.7489 13.9439 30.1207C13.6361 30.2683 13.3506 30.4052 13.1174 30.519C12.2966 30.9196 12.1248 31.0342 12.1916 31.206C12.2584 31.3776 12.5638 31.6064 12.8215 31.7496C13.0791 31.8927 13.2892 31.95 14.2288 31.978C15.1685 32.0059 16.8378 32.0047 17.7714 31.9886C18.7051 31.9723 18.9033 31.9414 19.2043 31.7513C19.5053 31.561 19.9093 31.2118 20.1972 30.8463C20.485 30.4809 20.6569 30.0993 20.7427 29.8418C20.8285 29.5842 20.8286 29.4507 20.8286 29.384V29.3171C21.5157 29.3171 22.2029 29.3171 22.9854 29.2886C23.768 29.2599 24.646 29.2026 25.4954 28.945C26.3448 28.6876 27.1655 28.2295 27.8717 27.6955C28.578 27.1613 29.1697 26.5507 29.6373 25.902C30.105 25.2534 30.4486 24.5666 30.6967 23.9656C30.9448 23.3646 31.0976 22.8495 31.2216 22.239C31.3457 21.6285 31.4411 20.9225 31.3457 20.1117C31.2503 19.3008 30.9639 18.3852 30.4772 17.2977C29.9905 16.2101 29.3033 14.951 28.7021 13.9398C28.3837 13.4043 28.0893 12.9383 27.8417 12.5464C27.6218 12.1983 27.4388 11.9086 27.3086 11.6803C27.0317 11.1951 26.9932 10.9878 27.0157 10.8926C27.0382 10.7973 27.1216 10.8139 27.3102 10.8927C27.4987 10.9714 27.7921 11.1121 28.4663 11.8275C29.1404 12.5428 30.1954 13.8327 31.2503 15.1227L31.2503 15.122C31.3026 11.8312 31.355 8.54051 31.2881 6.85221C31.2213 5.16372 31.0354 5.07784 30.8756 5.03486C30.7157 4.99196 30.5822 4.99196 30.0669 5.25906C29.5515 5.52616 28.6544 6.06037 27.4805 6.8903C26.3066 7.72023 24.8561 8.84582 23.4818 9.97148C22.1075 11.0971 20.8095 12.2227 19.8838 13.2244C18.9581 14.226 18.4045 15.1036 17.9941 16.0194C17.7 16.6757 17.4795 17.3516 17.2938 17.9207C17.2203 18.1457 17.1524 18.354 17.0875 18.5378C16.8585 19.1864 16.6676 19.5298 16.4386 19.692C16.2095 19.8542 15.9423 19.835 15.7322 19.7588C15.5223 19.6824 15.3696 19.549 15.1597 19.1292C15.0145 18.8388 14.8418 18.4113 14.629 17.8848C14.5343 17.6504 14.4316 17.3963 14.3199 17.1259C13.9573 16.2483 13.4991 15.1989 12.8215 14.2164C12.144 13.2339 11.2468 12.3181 10.197 11.3546C9.1472 10.3912 7.9448 9.38002 6.56087 8.32123C5.1771 7.26236 3.61203 6.15579 2.73399 5.56433C1.85598 4.97287 1.66509 4.89661 1.48374 4.85845C1.30237 4.82028 1.13065 4.82028 1.01604 4.87753C0.901562 4.9347 0.844317 5.04929 0.78708 6.70908Z" fill="url(#paint1_linear_20702_874)"/>
<defs>
<linearGradient id="paint0_linear_20702_874" x1="15.9999" y1="0" x2="15.9999" y2="32" gradientUnits="userSpaceOnUse">
<stop stop-color="#E18202"/>
<stop offset="1" stop-color="#C21010"/>
</linearGradient>
<linearGradient id="paint1_linear_20702_874" x1="15.9999" y1="0" x2="15.9999" y2="32" gradientUnits="userSpaceOnUse">
<stop stop-color="#E18202"/>
<stop offset="1" stop-color="#C21010"/>
</linearGradient>
</defs>
</svg>
