<svg width="32" height="32" viewBox="0 0 32 32" fill="none" xmlns="http://www.w3.org/2000/svg">
<path d="M13.7117 22.632L11.747 17.0931V16.0062H13.5027V12.2231H11.2454V22.6529H9.46875V10.6973H14.2134C14.924 10.6973 15.3002 11.0526 15.3002 11.7841V16.1316C15.3002 16.8423 14.9449 17.1976 14.2343 17.2185H13.6281L15.5929 22.5693V22.632H13.7117Z" fill="white"/>
<path d="M17.7242 22.632H21.4864C22.218 22.632 22.5733 22.2766 22.5733 21.5451V16.2361H19.4381V17.7619H20.7758V21.1271H18.4557V12.2231H20.7758V14.3341H22.5733V11.7841C22.5733 11.0526 22.218 10.6973 21.4864 10.6973H17.7451C17.0135 10.6973 16.6582 11.0526 16.6582 11.7841V21.5451C16.6582 22.2766 17.0135 22.632 17.7242 22.632Z" fill="white"/>
<path fill-rule="evenodd" clip-rule="evenodd" d="M32 14.6936C31.7492 12.7289 31.143 10.8895 30.2652 9.19652C25.5206 8.19326 21.5702 5.12075 19.3547 0.982277C18.2678 0.752361 17.1391 0.626953 15.9896 0.626953C14.7773 0.626953 13.6068 0.752361 12.4781 1.00318C10.3044 5.09985 6.39582 8.13055 1.73481 9.17562C0.877858 10.785 0.271718 12.5825 0 14.4637C2.88439 17.3899 4.68191 21.4029 4.68191 25.834C4.68191 26.6074 4.6192 27.3807 4.5147 28.1332C5.83148 29.45 7.37818 30.5577 9.0712 31.3729C11.1613 30.3696 13.5023 29.8262 15.9896 29.8262C18.4559 29.8262 20.7969 30.3905 22.887 31.3729C24.6845 30.5159 26.2939 29.3455 27.6525 27.9242C27.5689 27.2553 27.5062 26.5656 27.5062 25.8549C27.5271 21.5074 29.241 17.578 32 14.6936ZM16.0105 28.5512C9.48922 28.5512 4.18027 23.2632 4.18027 16.721C4.18027 10.1998 9.46832 4.89084 16.0105 4.89084C22.5317 4.89084 27.8406 10.1789 27.8406 16.721C27.8197 23.2632 22.5317 28.5512 16.0105 28.5512Z" fill="white"/>
</svg>
