<svg width="32" height="32" viewBox="0 0 32 32" fill="none" xmlns="http://www.w3.org/2000/svg">
<g clip-path="url(#clip0_20702_1154)">
<path d="M31.2528 14.934C31.2408 14.3624 31.0715 13.542 30.9476 13.0555C30.8718 12.754 31.0355 12.8881 31.2084 13.3987C31.041 12.6218 30.7746 11.7903 30.7164 11.7903C30.6544 11.7903 30.6896 11.9105 30.6785 11.9605C30.6341 11.8523 30.573 11.5915 30.5 11.4037C30.4093 11.178 30.3122 11.0458 30.3797 11.2511C30.5055 11.6229 30.9948 13.5929 31.0475 13.9416C30.9948 13.7538 30.9365 13.5402 30.8949 13.3941C30.3788 11.5859 29.761 10.1561 28.9554 8.66699C29.0174 8.71971 29.046 8.74283 29.084 8.77798C29.0923 8.69289 29.0988 8.62537 29.1108 8.51716C29.2745 8.75486 29.4188 8.95648 29.5594 9.16181C29.2689 8.38491 28.7538 7.73194 28.3283 7.0577C28.3108 7.0873 28.296 7.11042 28.2728 7.14557C27.7836 6.46855 27.1269 5.90345 26.8606 5.10343C26.8485 5.13858 26.8402 5.15892 26.831 5.18574C26.7958 4.7899 26.2797 5.02204 26.3324 4.61417C26.6312 4.76955 27.1297 5.1765 27.3702 5.39662C27.6079 5.61304 27.7133 5.61674 27.7984 5.62506C27.8715 5.63339 27.7133 5.4965 27.7632 5.45211C27.828 5.39662 28.4661 6.24288 28.7917 6.61006C27.8918 4.59937 25.4954 3.86686 23.8103 2.58036C19.3903 -0.289547 13.4479 -1.0276 8.71811 1.71744C8.50723 1.84045 8.21959 2.02265 8.09659 2.10404C7.9708 2.18358 8.24272 2.09849 8.25474 2.10959C8.12618 2.19746 8.0115 2.277 7.87369 2.37318C7.73311 2.4703 8.02907 2.40001 7.96155 2.44625C7.89126 2.49619 7.63045 2.8569 7.9819 2.62475C8.33335 2.39353 8.73198 2.12994 8.94285 2.12994C9.15372 2.12994 8.10213 2.72186 7.71461 2.97343C7.10789 3.36928 6.56868 3.72073 6.22278 3.96398C5.93237 4.1693 5.63363 4.3774 5.56889 4.33023C5.4542 4.24514 5.86208 3.91126 5.91202 3.83542C5.99156 3.71518 5.4727 4.04907 5.59293 3.92328C5.71317 3.7975 6.36614 3.17875 6.79435 2.8569C7.08754 2.634 7.26882 2.50267 7.26327 2.40833C7.25402 2.31492 6.96176 2.4666 6.64452 2.63955C4.35267 3.89924 3.55912 6.56012 2.52141 8.76411C2.61482 8.75856 2.69159 8.75208 2.80812 8.74376C2.5621 9.26817 2.24857 9.73431 2.2014 10.3031C2.31886 10.218 2.38268 10.1006 2.52418 10.0571C2.57968 10.2421 2.47424 10.4113 2.43354 10.587C2.44834 10.5898 2.46037 10.5954 2.47146 10.5991C2.54175 10.4113 2.61205 10.2236 2.67956 10.0395C2.73783 10.0451 2.785 10.0478 2.84327 10.0543C2.64997 11.4583 2.50014 12.8502 2.11908 14.2246L2.13666 14.207C1.80832 15.2179 2.23932 16.2177 2.10984 17.2924H2.07192C1.98128 16.7652 1.79353 16.2492 1.90821 15.6952C1.89064 15.7183 1.87307 15.7423 1.82867 15.795C1.81387 15.6452 1.7963 15.5046 1.7815 15.3705C1.76948 15.2679 1.63537 15.2679 1.6437 15.3585C1.69364 15.9208 1.56138 16.4748 1.73433 17.0464C1.75746 16.9669 1.77873 16.8855 1.78983 16.8476C1.96833 17.6947 2.42245 19.7313 2.29944 19.4733C2.17643 19.2153 2.10336 18.8518 2.00347 18.541C2.12926 19.6453 2.52511 20.6886 2.92373 21.718C2.89136 21.7208 2.80072 21.6449 2.73043 21.4803C2.68974 21.3804 2.5843 21.3832 2.60187 21.4451C2.67216 21.668 2.86546 22.0223 2.96535 22.2304C2.90986 22.0546 2.84789 21.8438 2.86546 21.8142C3.11426 22.1074 3.38155 22.6845 3.54802 22.9925C3.7145 23.3004 4.30735 24.352 3.91428 23.8008C3.5212 23.2496 2.68604 22.136 2.28464 21.1899C2.1644 20.9115 2.09411 20.4953 2.03585 20.4925C1.97758 20.4897 1.98868 20.6183 1.98035 20.6655C1.94243 20.6127 1.93596 20.3547 1.88971 20.3723C1.8074 20.4019 2.12371 21.5358 2.0303 21.3804C1.93966 21.225 1.76671 20.5156 1.72879 20.3048C1.76116 20.7589 1.89249 21.1723 1.88139 21.2833C1.50034 20.6793 1.67329 20.0291 1.67329 19.7064C1.68254 19.9052 1.72046 20.117 1.77873 20.2456C1.73156 19.8941 1.80185 19.5214 1.78705 19.4132C1.77503 19.305 1.62335 19.3928 1.63167 19.5214C1.60208 19.4539 1.59375 19.3364 1.55583 19.3457C1.52069 19.3512 1.52069 19.4779 1.51514 19.5538C1.49479 19.5242 1.49202 19.4714 1.46797 19.489C1.44115 19.5038 1.45965 19.8146 1.38565 19.7646C1.34496 19.7415 1.38288 19.4835 1.38565 19.2578C1.38843 19.0497 1.35883 18.8712 1.31814 18.886C1.23027 18.9156 1.30334 19.021 1.27744 19.3429C1.25432 19.6361 1.00183 19.2106 1.02218 19.4049C1.0305 19.4751 0.954661 19.7036 1.01293 19.97C1.06842 20.2363 1.0009 20.6377 1.06842 20.5647C1.13594 20.4944 1.10912 20.4472 1.15906 20.4093C1.17386 20.4296 1.16461 20.4916 1.20345 20.4712C1.24137 20.4481 1.23305 20.3658 1.2534 20.2927C2.3873 26.9093 8.52943 29.942 14.4107 31.7446C14.3636 31.765 14.3312 31.7798 14.2998 31.7946C21.4472 33.1717 28.7815 27.4485 30.7182 20.8699C30.7682 20.6969 30.8856 20.0264 30.9643 19.5427C30.7034 20.4102 30.5222 20.3862 30.5277 20.3251C30.598 19.7452 30.6775 19.3494 30.8237 19.0793C31.2426 18.4226 30.9846 16.7495 30.856 16.6644C30.7562 16.5997 30.7182 16.7467 30.7099 16.7467C30.7219 16.6145 30.7571 16.1779 30.6572 16.3888C30.5814 16.5442 30.8385 20.4009 29.5316 22.05C29.4789 21.0067 30.0412 20.0079 30.3464 18.9933C30.3381 18.9905 30.3289 18.9877 30.3233 18.985C30.2438 19.1107 30.1679 19.2402 30.0828 19.3808C30.0736 19.3401 30.0653 19.3105 30.0597 19.2837C29.9543 19.3457 29.9719 19.5214 29.8017 19.5297C29.8396 19.3161 29.8775 19.1135 29.9127 18.911C29.0655 20.449 28.7723 22.4015 27.6301 23.8193C27.434 24.0626 27.7854 23.2218 27.9908 22.6558C28.1757 22.1573 28.1406 21.9353 27.7975 22.5587C27.3961 23.2912 26.6515 24.1883 26.0393 24.7562C23.8704 26.7669 21.3566 28.5713 18.2619 28.6796V28.6999H18.5348C16.3373 28.9552 13.7846 28.7554 11.7452 27.812C11.748 27.8028 11.7545 27.7972 11.7573 27.7917C12.0449 27.8943 12.6544 28.2162 12.6303 28.0645C12.6211 27.9998 11.8507 27.763 11.0423 27.3847C9.93802 26.8659 8.69498 26.1685 8.61267 26.101C8.46931 25.9835 8.7588 26.2823 8.7477 26.2943C7.19483 25.2159 6.11364 23.4808 5.28402 21.7226C5.15824 21.459 4.94737 21.2657 4.82436 20.9698C4.7365 20.7589 4.6921 20.3658 4.71615 20.3307C4.81604 20.167 4.57279 20.0023 4.59036 20.2659C4.59591 20.3741 4.76054 21.0456 4.87153 21.3591C4.9187 21.4914 4.76332 21.2213 4.70412 21.0632C4.31105 20.0116 4.27591 19.8238 4.19174 19.4455C4.19174 20.5147 4.98899 22.2091 5.112 22.5051C4.94182 22.3876 4.6958 22.0509 4.58204 21.7078C4.69673 22.112 4.81604 22.4496 4.80771 22.5809C4.22781 21.5469 3.76722 19.3133 3.62664 19.3133C3.48883 19.3216 3.62941 19.6675 3.64144 19.8349C3.30478 19.3281 3.09021 17.7225 3.21322 17.3118C3.30386 15.4778 3.59149 13.5994 4.23614 11.8699C4.23614 11.8671 4.23614 11.8606 4.23891 11.8578C4.24168 11.8458 4.24816 11.8347 4.25093 11.8227C4.80216 10.3549 5.61051 8.9944 6.77123 7.86975C6.76291 7.8642 6.75366 7.85495 6.74441 7.8494C6.53909 8.03068 6.33746 8.2101 6.13214 8.38861C6.36983 7.59783 7.22812 7.18441 7.54443 6.48428C7.52963 6.47503 7.51761 6.4667 7.50374 6.45745C7.67392 6.30207 7.84687 6.14669 8.04294 5.96542C7.69704 6.12357 7.52686 6.48705 7.13749 6.51017C8.13358 5.38182 9.59582 4.41809 10.7038 3.7642C10.6012 3.82617 10.6104 4.02502 10.812 4.09531C10.997 4.16005 11.1404 3.8197 11.3836 3.72351C12.8958 3.11956 14.5282 3.19355 16.0228 3.48027C14.4172 2.90591 12.3603 3.08164 11.9145 3.18708C12.3982 2.94661 13.1076 2.97621 13.3795 2.96141C18.0243 2.72094 22.4369 5.76287 25.1301 9.45499C25.2799 9.66032 25.5898 10.1496 25.71 10.5103C25.76 10.6629 26.0383 11.1521 26.1345 11.0819C26.2316 11.0116 26.0763 10.6222 25.8793 10.3873C25.6101 10.0682 25.4483 9.67789 25.1144 9.07764C25.4251 9.44667 25.6684 9.73431 25.932 10.0506C25.3225 8.98978 23.7927 7.45448 23.6318 7.01793C24.5114 7.6598 25.1819 8.49219 25.7415 9.39765C26.2427 10.2125 26.7496 11.2881 27.0576 11.9383C27.0955 12.0206 27.1195 12.0669 27.1306 12.0817C27.1038 11.9882 26.6737 10.9829 26.6673 10.9829C26.4064 10.157 25.9495 9.37453 25.5657 8.57081C25.8145 8.78445 25.7821 8.78723 25.8561 8.72064C25.9292 8.65312 25.4427 8.05287 25.3521 7.66257C25.6684 8.15461 25.9847 8.65035 26.3195 9.17475C26.2437 8.987 26.1817 8.82885 26.117 8.67069C26.1262 8.66792 26.1345 8.66237 26.1438 8.65867C26.5396 9.14793 26.9318 9.63719 27.3248 10.1265C26.9614 9.37083 26.3574 8.75208 25.9976 8.01958C26.0208 8.00755 26.042 7.99923 26.0624 7.98721C26.399 8.53843 27.1408 9.24134 27.3045 9.45499C27.4682 9.66864 26.9558 8.77243 27.1695 9.01845C27.3831 9.26447 27.7114 9.73338 27.7817 9.83604C27.852 9.9387 27.9075 9.94148 27.8169 9.80922C27.7262 9.67696 27.1251 8.8159 26.7792 8.31739C26.7912 8.30906 26.8023 8.29982 26.8143 8.29057C27.6994 9.44204 28.5401 10.6527 29.0387 12.0243C28.517 9.95258 27.0048 8.31184 25.7803 6.60636C26.4018 7.0984 26.8291 7.75784 27.3507 8.33219C27.36 8.32294 27.3711 8.31739 27.3831 8.30906C27.31 8.17403 27.237 8.03623 27.163 7.90212C28.3265 8.91301 29.1145 11.7413 29.1913 11.9253C29.2643 12.1066 29.1385 11.5415 29.0507 11.1549C28.9628 10.7683 29.1126 10.8738 29.1089 11.1429C29.1052 11.412 29.5131 12.1889 29.2726 12.6024C29.2523 12.57 29.2347 12.5376 29.1996 12.4766C29.3957 13.0713 29.3226 13.6872 29.5538 14.232C29.6648 15.1495 29.6038 16.066 29.551 16.978C29.5594 16.978 29.5714 16.9752 29.5806 16.9752C29.6158 16.694 29.6537 16.4129 29.6888 16.1345H29.7268V16.46C29.7795 15.9588 29.6916 15.4112 29.8729 14.9506C29.9053 15.217 29.9376 15.4843 29.9728 15.7479C29.9931 15.7479 30.0135 15.7451 30.0347 15.7423C30.143 14.6232 30.0227 13.5097 29.909 12.3961C29.9265 12.3933 29.9413 12.3933 29.9561 12.3906C29.9792 12.5432 30.0033 12.6921 30.0292 12.877C30.0588 12.8068 30.0736 12.7688 30.0939 12.7217C30.229 13.0796 30.2752 13.4569 30.5129 13.7649C30.4426 13.3543 30.5397 12.9621 30.5425 12.5515C30.7275 13.0232 30.8153 13.9259 30.8533 14.0082C30.8912 14.0905 30.894 13.9434 30.8829 13.9148C31.0114 14.2958 31.1058 15.4297 31.1113 15.254C31.1196 15.0783 31.1233 14.7527 31.0734 14.1497C31.1113 14.2819 31.1881 14.5039 31.2519 14.9321L31.2528 14.934ZM27.2583 25.5155C27.0206 25.6913 26.9947 25.694 27.2879 25.3278C27.581 24.9615 28.2229 23.9414 28.4661 23.5021C28.7094 23.0628 28.4218 24.0413 28.6446 23.6399C28.8648 23.2385 29.0201 23.0507 29.2773 22.087C29.3004 22.3922 28.9841 23.6251 28.5799 24.3197C28.1785 25.017 27.3961 25.8346 27.1029 26.175C26.8097 26.5181 27.6421 25.4073 27.9464 25.0291C28.2516 24.6508 28.4301 24.3197 28.4939 24.1615C28.1831 24.5953 27.4913 25.3398 27.2573 25.5155H27.2583ZM5.45605 23.2736C5.82785 24.2873 7.37518 25.8439 8.12248 26.2388C6.89424 25.7116 5.8704 24.9847 5.6993 24.6489C5.58924 24.4325 5.76774 24.4741 5.92682 24.6628C6.0859 24.8515 6.17561 24.9486 6.43828 25.1077C5.81676 24.3076 5.54114 23.7832 5.45605 23.2736ZM10.3033 1.79421C9.9371 1.90889 9.60599 2.01063 10.0342 1.77941C10.418 1.57409 11.268 1.27258 11.4262 1.43351C11.5843 1.59166 10.6705 1.67675 10.3043 1.79421H10.3033ZM22.9594 5.73512C23.7095 5.87016 23.8297 6.72567 24.0813 6.96336C23.6124 6.5296 23.1407 6.04866 22.9594 5.73512ZM25.2513 6.8607C25.0959 6.73214 25.0348 6.51202 25.0348 6.51202C25.1523 6.59989 25.4214 6.93377 25.4686 6.98926C25.5158 7.04475 25.4039 6.98926 25.2522 6.8607H25.2513Z" fill="#BE1622"/>
<path d="M3.94843 13.2593C4.04739 12.7821 4.14636 12.3058 4.24439 11.8285C4.25734 11.8313 4.27029 11.8341 4.28416 11.8368C4.1926 12.3196 4.10104 12.8015 4.00947 13.2843C3.98913 13.276 3.96878 13.2676 3.94843 13.2602V13.2593Z" fill="#BE1622"/>
<path d="M2.12195 14.2243C2.08773 13.8544 2.12658 13.49 2.19872 13.1283C2.21166 13.1293 2.22461 13.1311 2.23756 13.132C2.19964 13.4964 2.1608 13.8599 2.12288 14.2243H2.12195Z" fill="#BE1622"/>
<path d="M28.2438 21.3896C28.1328 21.5958 27.9969 21.9852 28.2438 21.7744C28.4907 21.5635 28.3566 21.1797 28.2438 21.3896Z" fill="#BE1622"/>
<path d="M30.1563 18.7058C30.2451 18.4635 30.1721 17.9649 30.2932 18.2655C30.4144 18.567 30.0148 19.0896 30.1563 18.7058Z" fill="#BE1622"/>
<path d="M0.994866 19.279C1.06793 19.426 1.01244 18.614 0.890354 18.6195C0.76827 18.6251 0.712777 18.7111 0.767345 18.9488C0.822838 19.1865 0.935673 19.1597 0.994866 19.278V19.279Z" fill="#BE1622"/>
<path d="M1.20577 18.4771C1.16507 18.3735 1.01802 18.0424 1.06796 17.9731C1.1179 17.9037 1.18264 17.9314 1.22796 18.0831C1.27328 18.2348 1.25109 18.5955 1.20484 18.4771H1.20577Z" fill="#BE1622"/>
<path d="M3.38213 18.6908C3.39785 18.627 3.46074 18.4217 3.4182 18.3912C3.37566 18.3607 3.33404 18.3847 3.32016 18.4753C3.30629 18.566 3.36456 18.763 3.38213 18.6908Z" fill="#BE1622"/>
<path d="M1.31946 17.6455C1.4434 17.6372 1.35461 17.7916 1.28802 17.8517C1.25287 17.8841 1.17518 17.6547 1.31946 17.6455Z" fill="#BE1622"/>
<path d="M1.69865 19.0691C1.79669 19.0941 1.7301 19.1848 1.67923 19.2125C1.65241 19.2273 1.58397 19.0396 1.69865 19.0691Z" fill="#BE1622"/>
<path d="M27.4039 11.8663C27.3124 11.6425 27.5584 12.092 27.7119 12.5128C27.8035 12.7616 27.8867 12.9697 27.8414 13.0964C27.7609 13.324 27.6185 12.3898 27.4039 11.8673V11.8663Z" fill="#BE1622"/>
<path d="M27.6193 10.6109C27.7821 10.9097 27.8866 11.0687 27.9505 11.041C28.0143 11.0132 28.042 10.8764 27.9505 10.757C27.8589 10.6377 27.5278 10.4417 27.6193 10.6109Z" fill="#BE1622"/>
<path d="M30.3033 17.6717C30.3135 17.7799 30.11 17.7753 30.1424 17.656C30.1747 17.5367 30.2922 17.5543 30.3033 17.6717Z" fill="#BE1622"/>
<path d="M30.8933 19.5247C30.9405 19.3629 30.7925 19.3361 30.7786 19.4859C30.7638 19.6496 30.8461 19.6866 30.8933 19.5247Z" fill="#BE1622"/>
<path d="M29.9038 18.6502C29.9473 18.8666 29.6504 19.0461 29.6661 18.7649C29.6819 18.4837 29.8557 18.4134 29.9038 18.6502Z" fill="#BE1622"/>
<path d="M7.25985 2.14851C7.39211 2.0699 7.6705 1.93949 7.62518 1.85348C7.57986 1.76746 7.35419 1.93579 7.25985 2.03013C7.16551 2.12447 7.12852 2.22805 7.25985 2.14944V2.14851Z" fill="#BE1622"/>
<path d="M4.55757 19.9747C4.47618 19.9321 4.5437 19.8332 4.59456 19.8646C4.64543 19.8961 4.66301 20.0293 4.55757 19.9747Z" fill="#BE1622"/>
<path d="M27.3696 11.4789C27.3419 11.3771 27.6369 11.6379 27.5639 11.7628C27.4908 11.8877 27.415 11.6407 27.3696 11.4789Z" fill="#BE1622"/>
<path d="M10.3547 4.30631C10.2391 4.36458 10.1124 4.45244 10.2446 4.48481C10.3769 4.51718 10.4962 4.44782 10.524 4.347C10.5517 4.24619 10.4722 4.24712 10.3547 4.30538V4.30631Z" fill="#BE1622"/>
</g>
<defs>
<clipPath id="clip0_20702_1154">
<rect width="32" height="32" fill="white"/>
</clipPath>
</defs>
</svg>
