<svg width="542" height="542" viewBox="0 0 542 542" fill="none" xmlns="http://www.w3.org/2000/svg">
    <g clip-path="url(#clip0_200_137)">
        <path d="M0 100C0 44.7715 44.7715 0 100 0H442C497.228 0 542 44.7715 542 100V442C542 497.228 497.228 542 442 542H100C44.7715 542 0 497.228 0 442V100Z"
              fill="#EEEEEE"/>
        <path d="M305.935 364.525C304.005 394.082 314.162 419.695 339.913 438.162C358.859 451.743 380.831 456.288 403.584 457.917C408.074 458.245 412.619 457.958 417.574 457.958V477.999C405.391 476.781 393.207 476.288 381.297 474.248C345.484 468.115 316.257 451.702 297.899 418.983C285.702 397.244 285.017 373.876 287.878 349.987C288.262 346.825 288.727 343.676 289.192 340.514C289.261 340.089 289.603 339.72 290.247 338.529C296.982 340.295 303.964 342.02 310.877 343.95C325.936 348.153 341.227 349.59 356.833 348.782C376.916 347.742 390.099 337.584 396.561 318.898C405.569 292.874 401.229 267.726 390.264 243.317C377.477 214.842 356.614 192.501 333.848 172.076C315.066 155.224 294.969 139.823 275.243 124.038C273.545 122.683 269.37 122.094 267.85 123.203C232.503 149.104 198.457 176.552 171.228 211.297C151.008 237.088 138.14 265.809 141.179 299.499C141.919 307.713 144.41 316.023 147.518 323.716C153.924 339.638 166.628 347.263 183.522 348.673C203.385 350.343 222.482 346.715 241.388 341.185C244.81 340.185 248.301 339.432 251.765 338.556C271.519 424.021 211.106 479.587 124.286 476.863V459.19C136.388 457.834 148.243 457.26 159.77 455.069C190.572 449.21 215.829 435.041 229.218 404.951C235.132 391.631 237.473 377.627 235.611 364.033C220.361 365.374 205.521 367.647 190.654 367.784C152.377 368.14 130.378 348.495 123.492 308.932C116.853 270.792 129.214 236.978 151.296 206.396C175.267 173.198 206.014 146.763 238.007 121.697C247.494 114.264 257.254 107.145 267.138 100.246C268.808 99.0821 272.546 98.6851 274.038 99.7529C317.133 130.555 358.668 163.191 390.469 206.272C409.895 232.584 421.545 262.031 419.642 295.214C418.957 307.234 416.014 319.596 411.633 330.835C402.215 354.97 382.926 366.99 357.49 367.482C340.584 367.811 323.622 365.607 305.935 364.498V364.525Z"
              fill="#BB171D"/>
        <path d="M315.216 374.957C324.689 375.833 333.464 377.27 342.239 377.298C351.973 377.325 361.939 377.133 371.426 375.176C402.241 368.824 422.502 345.455 428.128 310.369C434.412 271.271 422.666 236.526 400.941 204.684C380.201 174.293 353.41 149.528 325.059 126.489C307.755 112.429 289.698 99.3009 271.231 85.1868C255.871 96.6451 240.703 107.446 226.123 118.973C195.855 142.903 167.134 168.543 144.259 199.92C122.465 229.819 109.364 262.879 112.512 300.54C114.839 328.453 124.696 353.108 150.337 367.934C169.311 378.899 190.42 378.694 211.516 376.6C216.253 376.134 220.948 375.299 226.37 374.546C226.109 388.852 221.852 401.487 214.035 412.905C201.139 431.714 182.152 441.023 160.577 445.336C148.845 447.677 136.784 448.293 124.285 449.757V430.263C153.636 428.552 183.151 426.485 201.605 397.422C190.352 396.45 179.688 396.422 169.379 394.465C130.446 387.1 104.216 359.816 96.0024 318.624C86.9535 273.215 99.3427 232.502 124.518 195.06C145.682 163.574 173.034 137.687 202.33 114.017C223.016 97.3022 244.988 82.1751 266.343 66.2813C269.109 64.2279 271.313 63.2696 274.776 65.5968C322.334 97.6992 367.196 132.923 404.13 177.264C427.772 205.643 443.762 237.649 447.937 274.803C450.703 299.527 447.499 323.401 436.465 345.921C420.216 379.105 392.658 394.506 356.627 396.409C351.493 396.682 346.319 396.45 339.72 396.45C358.585 426.06 387.497 428.689 417.464 430.113V448.826C389.414 448.649 362.473 444.925 339.994 426.28C324.265 413.233 316.817 395.793 315.257 374.97L315.216 374.957Z"
              fill="#BB171D"/>
    </g>
    <defs>
        <clipPath id="clip0_200_137">
            <rect width="542" height="542" fill="white"/>
        </clipPath>
    </defs>
</svg>
