<svg width="542" height="542" viewBox="0 0 542 542" fill="none" xmlns="http://www.w3.org/2000/svg">
    <g clip-path="url(#clip0_200_165)">
        <path d="M0 100C0 44.7715 44.7715 0 100 0H442C497.228 0 542 44.7715 542 100V442C542 497.228 497.228 542 442 542H100C44.7715 542 0 497.228 0 442V100Z"
              fill="#EEEEEE"/>
        <path d="M335.747 344.309C333.914 346.143 332.082 347.059 329.334 347.976C327.501 347.976 321.088 348.893 312.843 348.893H74.6465C70.9819 369.979 69.1496 390.148 68.2335 411.234C67.3173 419.486 69.1496 428.653 72.8142 435.988C78.311 441.488 84.724 446.072 92.0531 447.906C115.873 450.656 139.692 451.573 163.512 450.656H322.921C346.74 450.656 370.56 449.739 394.38 447.906C403.541 446.072 411.786 441.488 419.115 435.071C423.696 428.653 427.361 420.402 429.193 412.151C434.69 391.065 438.354 369.979 441.103 348.893L444.767 322.306C448.432 292.969 450.264 274.633 450.264 265.466V260.882C451.18 250.797 448.432 240.712 442.935 232.461C434.69 225.127 423.696 220.543 411.786 220.543C392.547 218.71 374.225 218.71 354.986 218.71H194.661C195.577 214.126 196.493 208.625 196.493 203.124C196.493 200.374 198.325 198.54 199.242 196.707C201.074 194.873 203.822 193.04 206.571 193.04C212.984 192.123 220.313 192.123 226.726 192.123H369.644C386.134 192.123 401.709 192.123 418.199 190.289C426.445 189.372 433.774 187.539 441.103 184.789C452.096 178.371 459.426 168.286 463.09 156.368C468.587 134.365 473.168 112.363 475 90.3597H206.571C188.248 89.4429 169.925 90.3597 152.518 92.1932C142.441 92.1932 132.363 95.8604 123.202 101.361C114.957 109.612 108.544 119.697 106.711 130.698C102.131 150.867 98.4661 171.954 96.6338 192.123L92.9693 217.793C88.3886 247.13 85.6401 265.466 84.724 275.55V283.801C83.8079 292.969 86.5563 301.22 92.0531 308.554C100.298 314.972 110.376 318.639 121.37 318.639C130.531 319.556 144.273 320.473 164.428 320.473H342.16C342.16 325.057 341.243 329.641 340.327 334.224C338.495 338.808 337.579 342.476 335.747 344.309Z"
              fill="#E51F2D"/>
    </g>
    <defs>
        <clipPath id="clip0_200_165">
            <rect width="542" height="542" fill="white"/>
        </clipPath>
    </defs>
</svg>
