<svg width="542" height="542" viewBox="0 0 542 542" fill="none" xmlns="http://www.w3.org/2000/svg">
    <g clip-path="url(#clip0_200_181)">
        <path d="M541.916 539.555C541.916 542.312 540.664 545.08 539.989 547.837H262.099C211.061 545.833 170.717 523.059 154.995 515.254C127.948 501.835 104.101 483.612 82.113 462.953C51.8551 434.522 24.7858 403.688 8.2674 364.872C6.06421 359.691 0.816406 345.918 0.816406 345.918C3.61745 347.014 6.61777 348.509 8.89846 349.992C48.0909 375.401 90.9147 388.432 137.702 388.288C156.302 388.233 174.902 388.41 193.501 388.487C195.339 388.432 197.177 388.332 199.026 388.332C256.896 388.31 314.777 388.299 372.646 388.288H379.079V350.945H373.233C349.087 350.945 324.94 350.956 300.794 350.922C253.984 350.878 207.163 350.801 160.354 350.734C131.458 350.723 102.54 351.553 73.6988 350.413C51.1355 349.516 31.9932 339.419 18.8626 320.731C11.6884 310.523 0.816406 298.234 0.816406 287.661V-6.83594H269.849C278.939 -5.72881 288.05 -4.8431 297.096 -3.45919C321.585 0.305058 345.046 7.2357 367.93 17.0449C419.356 39.0989 460.176 74.4607 496.235 116.233C515.4 138.442 529.438 163.618 540.432 190.632C540.831 191.617 541.041 192.68 541.761 195.204C538.882 194.086 536.856 193.677 535.251 192.625C507.395 174.556 477.381 161.813 444.455 156.831C432.11 154.971 419.533 153.831 407.056 153.764C343.606 153.454 280.146 153.598 216.696 153.565C214.482 153.565 212.278 153.432 210.064 153.355H163.886V191.174H207.795C255.357 191.108 302.93 191.064 350.493 190.953C386.629 190.876 422.766 190.322 458.892 190.82C469.221 190.953 479.927 192.747 489.736 195.968C508.724 202.224 522.109 215.41 531.509 233.19C535.937 241.549 540.41 249.631 541.462 259.152C541.705 261.344 541.982 263.548 541.982 265.74C542.004 357.012 542.026 448.283 541.916 539.555Z"
              fill="url(#paint0_linear_200_181)"/>
    </g>
    <defs>
        <linearGradient id="paint0_linear_200_181" x1="551.614" y1="192.448" x2="1.92351" y2="192.448"
                        gradientUnits="userSpaceOnUse">
            <stop stop-color="#A1509E"/>
            <stop offset="1" stop-color="#34BDD6"/>
        </linearGradient>
        <clipPath id="clip0_200_181">
            <rect width="542" height="542" fill="white"/>
        </clipPath>
    </defs>
</svg>
