<svg width="32" height="32" viewBox="0 0 32 32" fill="none" xmlns="http://www.w3.org/2000/svg">
<path d="M14.1482 0C13.7295 0 13.39 0.339451 13.39 0.758171V4.92811C13.39 5.34683 13.7295 5.68628 14.1482 5.68628C14.5669 5.68628 14.9064 5.34683 14.9064 4.92811V0.758171C14.9064 0.339451 14.5669 0 14.1482 0Z" fill="url(#paint0_linear_20826_157)"/>
<path d="M21.6602 19.196C19.7052 22.6662 16.2227 26.6206 15.3483 27.0128C14.6186 27.3401 14.0528 27.2841 13.3006 27.0128C10.5842 26.0333 6.77864 23.6668 5.76193 22.0622C5.50652 21.6591 5.48135 21.2386 5.66024 20.7963C5.75772 20.5552 6.03693 20.3819 6.25664 20.2454C6.419 20.1446 6.54893 20.0639 6.54893 19.9911C6.54893 19.9752 6.54946 19.9595 6.55039 19.9441C6.55081 19.9371 6.55132 19.9301 6.5519 19.9232C6.55422 19.8957 6.55769 19.8691 6.5616 19.8434C6.56492 19.8216 6.56856 19.8004 6.5721 19.7799C6.59833 19.6276 6.61845 19.5108 6.45555 19.4293C6.22406 19.3136 5.85466 18.6479 6.14173 17.9965C6.38111 17.4533 6.75708 17.2943 7.07605 17.1594C7.3242 17.0545 7.53791 16.9641 7.62588 16.7188C7.71892 16.4594 7.57327 16.1171 7.42511 15.7689C7.25311 15.3647 7.07773 14.9525 7.26861 14.6529C7.50679 14.2791 7.75663 14.103 8.18238 13.9796C8.52513 13.8803 9.09615 13.9796 9.09615 13.9796V13.5468C9.09615 13.5468 6.21755 11.9501 3.56544 9.98785C2.8419 9.45252 2.86778 8.45992 3.33275 7.6846C3.90356 6.73279 4.77066 6.44478 6.11438 7.10228C10.0691 9.03736 17.1277 13.5468 17.1277 13.5468C17.1277 13.5468 17.8639 11.1204 18.8254 9.86048C18.9907 9.64384 19.1407 9.42855 19.2854 9.22091C19.8828 8.36365 20.3891 7.63714 21.5042 7.48701C22.3622 7.37148 23.044 7.36815 23.6684 7.96794C24.3222 8.59599 24.3584 9.33613 24.1974 10.2283C24.0815 10.8707 23.6545 11.1784 23.2032 11.5037C22.8446 11.7621 22.4707 12.0316 22.2256 12.4887C21.9036 13.0891 21.8362 13.5346 21.7513 14.0952C21.7253 14.2674 21.6975 14.451 21.6602 14.6529C21.5217 15.4034 21.6654 16.0648 21.8031 16.6987C21.9842 17.5321 22.1549 18.318 21.6602 19.196Z" fill="url(#paint1_linear_20826_157)"/>
<path d="M16.2269 28.8876C15.9005 28.6253 15.8485 28.1481 16.1108 27.8217L22.2836 20.1396C22.9393 19.3236 24.1323 19.1936 24.9484 19.8493L27.7272 22.0822C28.0536 22.3445 28.1056 22.8217 27.8433 23.1481L20.9581 31.7167C20.6959 32.0431 20.2186 32.0951 19.8922 31.8328L16.2269 28.8876Z" fill="url(#paint2_linear_20826_157)"/>
<path d="M18.1481 1.84744C18.2948 1.45521 18.7316 1.25611 19.1238 1.40271C19.516 1.54931 19.7151 1.98613 19.5685 2.37833L18.1085 6.28434C17.9619 6.67657 17.5251 6.87567 17.1329 6.72907C16.7407 6.58247 16.5416 6.14565 16.6882 5.75345L18.1481 1.84744Z" fill="url(#paint3_linear_20826_157)"/>
<path d="M9.17209 1.40271C9.56431 1.25611 10.0011 1.45521 10.1477 1.84744L11.6077 5.75345C11.7543 6.14565 11.5552 6.58247 11.163 6.72907C10.7708 6.87567 10.334 6.67657 10.1873 6.28434L8.72736 2.37833C8.58076 1.98613 8.77987 1.54931 9.17209 1.40271Z" fill="url(#paint4_linear_20826_157)"/>
<defs>
<linearGradient id="paint0_linear_20826_157" x1="3.15471" y1="3.95352" x2="35.9456" y2="19.6856" gradientUnits="userSpaceOnUse">
<stop stop-color="#FFAE00"/>
<stop offset="1" stop-color="#FF8200"/>
</linearGradient>
<linearGradient id="paint1_linear_20826_157" x1="3.15471" y1="3.95352" x2="35.9456" y2="19.6856" gradientUnits="userSpaceOnUse">
<stop stop-color="#FFAE00"/>
<stop offset="1" stop-color="#FF8200"/>
</linearGradient>
<linearGradient id="paint2_linear_20826_157" x1="3.15471" y1="3.95352" x2="35.9456" y2="19.6856" gradientUnits="userSpaceOnUse">
<stop stop-color="#FFAE00"/>
<stop offset="1" stop-color="#FF8200"/>
</linearGradient>
<linearGradient id="paint3_linear_20826_157" x1="3.15471" y1="3.95352" x2="35.9456" y2="19.6856" gradientUnits="userSpaceOnUse">
<stop stop-color="#FFAE00"/>
<stop offset="1" stop-color="#FF8200"/>
</linearGradient>
<linearGradient id="paint4_linear_20826_157" x1="3.15471" y1="3.95352" x2="35.9456" y2="19.6856" gradientUnits="userSpaceOnUse">
<stop stop-color="#FFAE00"/>
<stop offset="1" stop-color="#FF8200"/>
</linearGradient>
</defs>
</svg>
