<svg width="542" height="542" viewBox="0 0 542 542" fill="none" xmlns="http://www.w3.org/2000/svg">
    <g clip-path="url(#clip0_200_185)">
        <path d="M491.845 371.03L508.339 255.114L439.011 109.633L391.843 125.789L330.304 59.7886L221.549 0.540039L197.748 88.4363L180.868 42.2817L97.4332 123.884L50.6999 205.511L48.6261 290.103L15.7344 274.453L38.1123 409.999L89.0415 497.292L209.106 538.431L307.444 542L476.991 480.027L525.774 359.456L491.845 371.03ZM418.49 306.79L322.346 309.202L318.874 417.354L313.689 481.377L229.941 480.509V419.138L223.02 311.854L122.512 316.171L119.112 212.359L267.052 211.491L420.202 207.175L422.806 221.016L418.49 306.79Z"
              fill="#FF9F00"/>
    </g>
    <defs>
        <clipPath id="clip0_200_185">
            <rect width="542" height="542" fill="white"/>
        </clipPath>
    </defs>
</svg>
