<svg width="32" height="32" viewBox="0 0 32 32" fill="none" xmlns="http://www.w3.org/2000/svg">
<path fill-rule="evenodd" clip-rule="evenodd" d="M32 16C32 24.8365 24.8365 32 16 32C7.16346 32 0 24.8365 0 16C0 7.16346 7.16346 0 16 0C24.8365 0 32 7.16346 32 16ZM22.766 15.8466L27.886 20.9666C28.526 21.6066 28.526 22.6123 27.886 23.2523L23.3451 27.7933C22.7051 28.4333 21.6994 28.4333 21.0594 27.7933L15.9394 22.6733L10.8194 27.7933C10.1794 28.4333 9.17365 28.4333 8.53365 27.7933L3.9927 23.2523C3.3527 22.6123 3.3527 21.6066 3.9927 20.9666L9.1127 15.8466L3.9927 10.7266C3.3527 10.0866 3.3527 9.08087 3.9927 8.44087L8.53365 3.89992C9.17365 3.25992 10.1794 3.25992 10.8194 3.89992L15.9394 9.01992L21.0594 3.89992C21.6994 3.25992 22.7051 3.25992 23.3451 3.89992L27.886 8.44087C28.526 9.08087 28.526 10.0866 27.886 10.7266L22.766 15.8466Z" fill="#FF003A"/>
</svg>
