<svg width="193" height="72" viewBox="0 0 193 72" fill="none" xmlns="http://www.w3.org/2000/svg">
<path d="M113.235 28.8397L116.366 30.972L135.827 17.7516C140.524 14.5531 148.129 14.5531 152.827 17.7516L172.287 30.972L175.195 29.0529C176.985 27.7735 178.103 26.2809 178.55 24.575C179.221 22.0163 178.103 19.4575 175.195 17.5384L152.827 2.39887C148.129 -0.799622 140.524 -0.799622 135.827 2.39887L113.235 17.7516C109.208 20.5236 109.208 26.2809 113.235 28.8397Z" fill="white"/>
<path d="M17.7364 29.2662L20.6443 31.1852L40.1048 17.9648C44.8022 14.7663 52.4075 14.7663 57.1048 17.9648L76.5653 31.1852L79.6969 29.0529C83.7232 26.2809 83.7232 20.7369 79.6969 17.9648L56.8811 2.39887C52.1838 -0.799622 44.5785 -0.799622 39.8812 2.39887L17.5127 17.5384C14.6049 19.4575 13.4864 22.0162 14.1575 24.575C14.6049 26.2809 15.7233 27.9868 17.7364 29.2662Z" fill="white"/>
<path d="M187.947 31.1927C187.724 31.4059 187.5 31.6191 187.276 31.6191L178.553 37.5897L155.513 53.1556C148.803 57.6335 138.066 57.6335 131.355 53.1556L107.868 36.95L103.395 33.9647C99.1447 31.1927 93.5526 31.1927 89.5263 33.9647L85.0526 36.95L61.3421 53.1556C54.6316 57.6335 43.8947 57.6335 37.1842 53.1556L14.3684 37.5897L5.64474 31.6191C5.42105 31.4059 5.19737 31.4059 4.97368 31.1927C2.06579 29.0604 0.5 26.2883 0.5 23.5163L0.5 39.0823C0.5 41.8543 2.06579 44.8396 5.42105 46.9719L37.1842 68.5084C43.8947 72.9862 54.6316 72.9862 61.3421 68.5084L91.5394 48.038C94.4473 46.119 98.4736 46.119 101.382 48.038L131.355 68.5084C138.066 72.9862 148.803 72.9862 155.513 68.5084L187.276 46.9719C190.632 44.6263 192.197 41.6411 192.197 38.6558L192.197 23.0898C192.197 26.0751 190.855 28.8471 187.947 31.1927Z" fill="white"/>
</svg>
