<svg width="542" height="542" viewBox="0 0 542 542" fill="none" xmlns="http://www.w3.org/2000/svg">
    <path d="M61.8853 60.7483L58.4759 86.8962C53.9299 121.002 80.0692 150.561 114.164 150.561H449.429L59.6124 279.026C39.1555 285.848 25.5176 302.901 22.1081 323.364L6.19721 426.819L0.514749 464.336C-4.03122 498.442 22.1081 528 56.2029 528H425.563C452.839 528 476.705 507.536 481.251 480.252L484.661 454.104C489.207 419.998 463.067 390.439 428.972 390.439H116.437L481.251 269.932C501.708 263.11 515.346 246.057 518.755 225.594L534.666 122.139L541.485 76.6645C546.031 42.5585 519.892 13 485.797 13H116.437C89.1612 13 65.2948 33.4636 61.8853 60.7483Z"
          fill="#EF7D0F"/>
</svg>
