<svg width="32" height="32" viewBox="0 0 32 32" fill="none" xmlns="http://www.w3.org/2000/svg">
<g clip-path="url(#clip0_21320_2210)">
<path d="M-0.000213623 5.8993C-0.000213623 2.63858 2.64312 -0.00476074 5.90385 -0.00476074H26.0957C29.3564 -0.00476074 31.9998 2.63858 31.9998 5.8993V26.0912C31.9998 29.3519 29.3564 31.9953 26.0957 31.9953H5.90385C2.64312 31.9953 -0.000213623 29.3519 -0.000213623 26.0912V5.8993Z" fill="#EF5B24" style="fill:#EF5B24;fill:color(display-p3 0.9373 0.3569 0.1412);fill-opacity:1;"/>
<path d="M15.7216 13.2286C15.8407 13.2282 15.9626 13.2277 16.0879 13.2277C16.0657 13.2652 16.047 13.297 16.0305 13.3253C16.0022 13.3735 15.9799 13.4115 15.9569 13.4489C15.8557 13.6122 15.7542 13.7752 15.6527 13.9382L15.6519 13.9394C15.4352 14.2876 15.2184 14.6358 15.005 14.9862C14.8002 15.3225 14.9656 15.7044 15.3346 15.7648C15.5457 15.7992 15.7278 15.6966 15.8667 15.4539C16.0123 15.1992 16.157 14.944 16.3016 14.6887C16.5914 14.1773 16.8812 13.6659 17.1786 13.159C17.3046 12.9445 17.271 12.7646 17.1443 12.5833C17.0007 12.3785 16.7959 12.2782 16.5455 12.2774L16.4072 12.277C15.9271 12.2755 15.4473 12.274 14.9676 12.2797C14.8739 12.2809 14.7725 12.3047 14.689 12.3469C14.4955 12.4448 14.407 12.6671 14.4601 12.8754C14.5108 13.0736 14.6941 13.2219 14.9212 13.2257C15.1832 13.2307 15.4455 13.2297 15.7216 13.2286Z" fill="#FEFCFC" style="fill:#FEFCFC;fill:color(display-p3 0.9961 0.9882 0.9882);fill-opacity:1;"/>
<path d="M8.52654 13.2269C8.40009 13.2269 8.27753 13.2273 8.15768 13.2278C7.88079 13.2288 7.61831 13.2298 7.35588 13.2249C7.12999 13.2207 6.94431 13.0674 6.89826 12.8703C6.84796 12.6566 6.93575 12.4421 7.13312 12.3438C7.2166 12.302 7.31839 12.2805 7.41244 12.2793C7.82163 12.2747 8.23107 12.2754 8.64037 12.2762L8.97046 12.2766C9.22753 12.2766 9.43777 12.3737 9.58643 12.5871C9.71438 12.7709 9.74165 12.9484 9.61643 13.1618C9.3277 13.6543 9.04641 14.151 8.76508 14.6478C8.60594 14.9288 8.44676 15.2099 8.28624 15.4902C8.14266 15.7407 7.90159 15.8292 7.65894 15.7324C7.43854 15.6447 7.3067 15.3947 7.36875 15.1606C7.38983 15.0814 7.43429 15.0065 7.47798 14.9355C7.67638 14.6125 7.87595 14.2904 8.07549 13.9683C8.17959 13.8003 8.28376 13.6322 8.38767 13.464C8.41464 13.4204 8.44034 13.3759 8.47328 13.3189C8.48892 13.2918 8.50671 13.2609 8.52654 13.2269Z" fill="#FEFCFC" style="fill:#FEFCFC;fill:color(display-p3 0.9961 0.9882 0.9882);fill-opacity:1;"/>
<path d="M23.3443 13.2277C23.4618 13.2276 23.5816 13.2274 23.7048 13.2274C23.6902 13.2514 23.6793 13.2698 23.67 13.2853C23.6555 13.3094 23.6457 13.3256 23.6357 13.3417C23.5503 13.4798 23.4649 13.6178 23.3796 13.7559C23.1313 14.1574 22.8831 14.5589 22.6332 14.9594C22.5438 15.1026 22.4885 15.2497 22.5466 15.4178C22.6164 15.6199 22.7588 15.7455 22.9722 15.7646C23.1953 15.7845 23.3549 15.6749 23.4637 15.4825C23.5682 15.2979 23.6724 15.1131 23.7766 14.9283C24.111 14.3352 24.4453 13.7423 24.7912 13.1561C24.9191 12.9391 24.8833 12.7644 24.758 12.5845C24.6105 12.3731 24.3995 12.2752 24.1416 12.2756C23.9237 12.276 23.7057 12.2759 23.4877 12.2758C23.1933 12.2756 22.899 12.2755 22.6047 12.2764C22.279 12.2776 22.057 12.4722 22.0562 12.7523C22.055 13.0344 22.2727 13.2251 22.6031 13.2271C22.8467 13.2284 23.0902 13.2281 23.3443 13.2277Z" fill="#FEFCFC" style="fill:#FEFCFC;fill:color(display-p3 0.9961 0.9882 0.9882);fill-opacity:1;"/>
<path fill-rule="evenodd" clip-rule="evenodd" d="M16.0124 20.3797L13.2339 20.3798C10.6986 20.38 8.16326 20.3803 5.62812 20.3788C4.62246 20.3781 3.78415 19.713 3.57311 18.7498C3.53878 18.593 3.52864 18.428 3.52825 18.2669C3.52551 15.4044 3.52551 12.5423 3.52668 9.67979C3.52747 8.45641 4.42507 7.55179 5.6523 7.55143C8.45569 7.55031 11.2591 7.55041 14.0626 7.55052C18.1691 7.55068 22.2756 7.55084 26.3819 7.54712C27.4808 7.54594 28.5051 8.44318 28.495 9.67506C28.472 12.5438 28.4755 15.413 28.4935 18.2817C28.5012 19.4961 27.4761 20.3859 26.3967 20.3836C23.9054 20.3774 21.4138 20.3785 18.9224 20.3796H18.9214C17.9517 20.38 16.982 20.3797 16.0124 20.3797ZM18.6963 18.4023V9.42544H13.0258V18.4023H18.6963ZM5.50524 18.3968H11.1721V9.42503H5.50524V18.3968ZM26.2613 9.42969H20.5859V18.3995H26.2613V9.42969Z" fill="#FEFCFC" style="fill:#FEFCFC;fill:color(display-p3 0.9961 0.9882 0.9882);fill-opacity:1;"/>
<path d="M27.5113 22.7867C27.997 22.7867 28.3602 23.0457 28.4975 23.4845C28.6621 24.0116 28.3068 24.6006 27.7634 24.695C27.6615 24.7126 27.5566 24.7188 27.4532 24.7188C19.8351 24.7199 12.217 24.7199 4.59919 24.7196C4.03785 24.7196 3.64814 24.4406 3.53736 23.9643C3.40473 23.3925 3.83578 22.819 4.42326 22.7878C4.48403 22.7847 4.545 22.7853 4.60588 22.7858C4.62937 22.786 4.65298 22.7862 4.67643 22.7862L27.5113 22.7867Z" fill="#FEFCFC" style="fill:#FEFCFC;fill:color(display-p3 0.9961 0.9882 0.9882);fill-opacity:1;"/>
</g>
<defs>
<clipPath id="clip0_21320_2210">
<rect width="32" height="32" fill="white" style="fill:white;fill-opacity:1;"/>
</clipPath>
</defs>
</svg>
