<svg width="32" height="32" viewBox="0 0 32 32" fill="none" xmlns="http://www.w3.org/2000/svg">
<path fill-rule="evenodd" clip-rule="evenodd" d="M0.893377 14.6144C1.00965 15.1462 1.22552 15.9605 1.63235 17.049C2.03919 18.1376 2.637 19.5003 3.36764 20.6969C4.09828 21.8934 4.9618 22.9238 5.75472 23.8087C6.54766 24.6937 7.26996 25.4333 8.37426 26.3307C9.47855 27.2281 10.9648 28.2833 12.1396 28.9855C13.3145 29.6876 14.178 30.0366 14.7841 30.2382C15.3902 30.4397 15.7389 30.4937 16.0772 30.5021C16.4155 30.5105 16.7435 30.4731 17.3745 30.2467C18.0055 30.0203 18.9396 29.6046 19.9547 29.0146C20.9697 28.4245 22.0657 27.6601 23.0558 26.8916C24.0459 26.123 24.93 25.3504 25.7789 24.4406C26.6279 23.5309 27.4416 22.4839 28.1453 21.4493C28.849 20.4147 29.4428 19.3925 29.9472 18.3121C30.4517 17.2319 30.8668 16.0935 31.093 14.9905C31.3193 13.8874 31.3566 12.8196 31.3317 11.8765C31.3068 10.9334 31.2196 10.1149 30.902 9.17385C30.5844 8.2328 30.0365 7.16924 29.4636 6.37987C28.8907 5.59048 28.2928 5.07526 27.4957 4.53516C26.6987 3.99507 25.7024 3.43 24.7807 3.03119C23.8591 2.63232 23.0122 2.39966 22.076 2.19412C21.1398 1.98855 20.1143 1.8101 19.1158 1.6814C18.1173 1.5527 17.1459 1.47379 15.9897 1.47794C14.8335 1.48209 13.4927 1.56933 12.3407 1.72295C11.1887 1.87657 10.2257 2.09656 9.30415 2.34784C8.38258 2.59907 7.50246 2.88162 6.76351 3.21402C6.02456 3.54636 5.42677 3.92855 4.88705 4.3025C4.34738 4.67639 3.86584 5.04205 3.2846 5.68187C2.70341 6.32171 2.02258 7.23566 1.59084 8.00018C1.1591 8.76464 0.976412 9.37954 0.860197 9.94456C0.743975 10.5096 0.694127 11.0248 0.66923 11.4319C0.644326 11.8391 0.644326 12.1382 0.660899 12.4789C0.677513 12.8196 0.710747 13.2018 0.735645 13.5176C0.760548 13.8333 0.777162 14.0826 0.893377 14.6144ZM16.2928 8.2253C19.9417 8.2253 22.8998 11.1996 22.8998 14.8687C22.8998 18.5377 19.9417 21.512 16.2928 21.512C12.6439 21.512 9.68578 18.5377 9.68578 14.8687C9.68578 11.1996 12.6439 8.2253 16.2928 8.2253Z" fill="url(#paint0_linear_21320_1779)" style=""/>
<path fill-rule="evenodd" clip-rule="evenodd" d="M7.63597 2.86393C7.32925 2.97416 7.03665 3.09019 6.76341 3.2131C6.02451 3.54545 5.42669 3.92763 4.88697 4.30158C2.02018 6.28782 0.48971 8.9597 0.660817 12.478C0.676864 12.8075 0.708498 13.176 0.733118 13.4855C0.827069 13.7791 0.930532 14.0767 1.04633 14.3738C1.50297 15.5454 2.15062 16.7087 2.92278 17.8222C3.69494 18.9357 4.59164 19.9992 5.52154 20.8634C6.45149 21.7276 7.41462 22.3923 8.44417 22.8576C9.47372 23.323 10.5697 23.5888 11.6657 23.6886C12.7617 23.7883 13.8577 23.7218 14.8457 23.4974C15.8338 23.2731 16.7138 22.8909 17.6105 22.384C18.5072 21.8771 19.4206 21.2456 20.0599 20.7139C20.6336 20.2366 20.9867 19.8396 21.3532 19.1386C20.1412 20.589 18.3241 21.5111 16.2927 21.5111C12.6438 21.5111 9.68574 18.5367 9.68574 14.8678C9.68574 11.1987 12.6438 8.22435 16.2927 8.22435C19.5726 8.22435 22.2939 10.6276 22.8109 13.7783C22.8036 13.5394 22.7824 13.3103 22.75 13.0858C22.6421 12.338 22.4096 11.64 21.9945 10.7343C21.5793 9.8286 20.9815 8.71516 20.1346 7.68478C19.2877 6.65446 18.1917 5.70714 17.0542 4.98427C15.9168 4.26135 14.7377 3.76276 13.7248 3.4387C12.7118 3.11464 11.865 2.96507 10.8022 2.86539C9.91724 2.78234 8.88255 2.73391 7.63597 2.86393Z" fill="url(#paint1_linear_21320_1779)" style=""/>
<path fill-rule="evenodd" clip-rule="evenodd" d="M19.7962 29.1072C19.8492 29.0771 19.9025 29.0465 19.9559 29.0154C20.971 28.4254 22.067 27.661 23.057 26.8925C24.0471 26.1239 24.9313 25.3513 25.7802 24.4415C26.6291 23.5318 27.4428 22.4847 28.1465 21.4502C28.8502 20.4156 29.444 19.3933 29.9484 18.313C30.4529 17.2328 30.868 16.0944 31.0943 14.9914C31.7126 11.9769 31.3255 8.96792 29.5021 6.4555C28.9292 5.66612 28.294 5.02625 27.497 4.48615C26.6999 3.94606 25.7036 3.43088 24.7819 3.03206C23.8604 2.63325 23.0135 2.40054 22.0772 2.195C21.141 1.98942 20.1155 1.81097 19.117 1.68228C18.3582 1.58448 17.6151 1.51542 16.7946 1.48975L16.7981 1.49587C18.2096 1.69528 19.6211 1.89474 20.9371 2.23542C22.2531 2.57606 23.4737 3.05802 24.5198 3.53998C25.566 4.0219 26.4378 4.50382 27.1269 5.00655C27.8161 5.50929 28.3225 6.03277 28.775 6.67259C29.2276 7.31242 29.6261 8.06861 29.925 8.8829C30.2239 9.69718 30.4231 10.5696 30.5269 11.3633C30.6307 12.1568 30.6391 12.8713 30.5726 13.5694C30.5062 14.2673 30.3651 14.9487 30.1824 15.6426C29.9997 16.3364 29.7755 17.0427 29.4933 17.749C29.2109 18.4553 28.8705 19.1616 28.5176 19.8388C28.1648 20.516 27.7994 21.1641 27.3594 21.7998C26.9193 22.4354 26.4046 23.0587 25.8691 23.6487C25.3335 24.2386 24.7772 24.7953 24.2292 25.3271C23.6812 25.8589 23.1415 26.3658 22.5935 26.8436C22.0456 27.3213 21.4892 27.77 20.9787 28.1731C20.4861 28.5618 20.0361 28.9079 19.7962 29.1072Z" fill="url(#paint2_linear_21320_1779)" style=""/>
<path fill-rule="evenodd" clip-rule="evenodd" d="M20.2344 20.2772C19.9604 20.4808 19.4871 20.7965 18.935 21.0541C18.3828 21.3117 17.7518 21.5111 17.2412 21.6399C16.7306 21.7687 16.3403 21.8268 15.8919 21.8268C15.4436 21.8268 14.9371 21.7687 14.4099 21.6565C13.8827 21.5443 13.3347 21.3782 12.8697 21.1788C12.4047 20.9793 12.0228 20.7466 11.5828 20.352C11.1427 19.9573 10.6445 19.4005 10.2377 18.7815C9.83084 18.1624 9.51533 17.481 9.30361 16.7665C9.09189 16.0518 8.98396 15.304 9.00882 14.5395C9.03373 13.7751 9.19155 12.994 9.48209 12.3002C9.77274 11.6063 10.1962 10.9997 10.6487 10.468C11.1012 9.93619 11.5828 9.47915 12.1224 9.10938C12.6621 8.73961 13.2599 8.4571 13.8702 8.27844C14.4805 8.09979 15.1032 8.02498 15.6802 8.0042C16.2573 7.98348 16.7887 8.01672 17.3408 8.1123C17.8929 8.20783 18.4658 8.36571 19.0595 8.67319C19.6532 8.98061 20.2676 9.43765 20.6121 9.7077C20.8939 9.92857 20.9953 10.0244 21.1636 10.3792C19.9558 9.05471 18.2209 8.22407 16.2928 8.22407C12.6439 8.22407 9.68578 11.1984 9.68578 14.8675C9.68578 18.5365 12.6439 21.5108 16.2928 21.5108C17.9663 21.5108 19.4942 20.8849 20.6584 19.8535L20.6536 19.8617C20.5831 19.9822 20.5084 20.0736 20.2344 20.2772Z" fill="url(#paint3_linear_21320_1779)" style=""/>
<defs>
<linearGradient id="paint0_linear_21320_1779" x1="14.2055" y1="26.4367" x2="28.0148" y2="13.6345" gradientUnits="userSpaceOnUse">
<stop stop-color="#B12020" style="stop-color:#B12020;stop-color:color(display-p3 0.6941 0.1255 0.1255);stop-opacity:1;"/>
<stop offset="0.568627" stop-color="#A01F1F" style="stop-color:#A01F1F;stop-color:color(display-p3 0.6275 0.1216 0.1216);stop-opacity:1;"/>
<stop offset="1" stop-color="#CC3333" style="stop-color:#CC3333;stop-color:color(display-p3 0.8000 0.2000 0.2000);stop-opacity:1;"/>
</linearGradient>
<linearGradient id="paint1_linear_21320_1779" x1="16.0485" y1="3.60197" x2="8.5204" y2="10.9747" gradientUnits="userSpaceOnUse">
<stop stop-color="#6E0908" style="stop-color:#6E0908;stop-color:color(display-p3 0.4314 0.0353 0.0314);stop-opacity:1;"/>
<stop offset="1" stop-color="#CB3232" style="stop-color:#CB3232;stop-color:color(display-p3 0.7961 0.1961 0.1961);stop-opacity:1;"/>
</linearGradient>
<linearGradient id="paint2_linear_21320_1779" x1="20.552" y1="5.21783" x2="28.7238" y2="19.0862" gradientUnits="userSpaceOnUse">
<stop stop-color="#E44441" style="stop-color:#E44441;stop-color:color(display-p3 0.8941 0.2667 0.2549);stop-opacity:1;"/>
<stop offset="0.231373" stop-color="#F58886" style="stop-color:#F58886;stop-color:color(display-p3 0.9608 0.5333 0.5255);stop-opacity:1;"/>
<stop offset="1" stop-color="#E44441" style="stop-color:#E44441;stop-color:color(display-p3 0.8941 0.2667 0.2549);stop-opacity:1;"/>
</linearGradient>
<linearGradient id="paint3_linear_21320_1779" x1="11.3908" y1="8.63676" x2="10.6926" y2="18.8072" gradientUnits="userSpaceOnUse">
<stop stop-color="#871715" style="stop-color:#871715;stop-color:color(display-p3 0.5294 0.0902 0.0824);stop-opacity:1;"/>
<stop offset="1" stop-color="#E4423D" style="stop-color:#E4423D;stop-color:color(display-p3 0.8941 0.2588 0.2392);stop-opacity:1;"/>
</linearGradient>
</defs>
</svg>
