<svg width="32" height="32" viewBox="0 0 32 32" fill="none" xmlns="http://www.w3.org/2000/svg">
<path d="M0.497795 6.58663C0.497795 2.94893 3.35498 0 6.87949 0H25.1205C28.6451 0 31.5022 2.94893 31.5022 6.58663V25.4134C31.5022 29.0511 28.6451 32 25.1205 32H6.87949C3.35498 32 0.497795 29.0511 0.497795 25.4134V6.58663Z" fill="url(#paint0_linear_21320_1694)" style=""/>
<path d="M23.9508 20.8501C21.0645 20.6613 19.3706 18.9 19.3079 16.0067C19.3706 13.1134 21.0645 11.3521 23.9508 11.1634C25.8329 11.0374 27.213 9.65357 27.1506 7.82966C27.0878 6.13138 25.7074 4.68457 23.9504 4.68457C22.1938 4.68457 20.6255 6.00568 20.7507 7.82966C20.8762 10.0941 19.8724 11.4148 17.8647 12.1071C15.857 12.8613 13.9749 12.4215 12.3434 11.1004C11.5279 10.4715 11.2141 9.52787 11.2141 8.5215C11.2141 7.89265 11.1513 7.26344 10.963 6.69759C10.4613 5.31345 8.82986 4.49584 7.26153 4.81028C5.75525 5.18774 4.68899 6.63459 4.75176 8.14441C4.87728 9.77998 6.19495 11.1007 7.88879 11.1638C9.83368 11.2895 11.4024 12.0444 12.2807 13.8683C12.6572 14.5606 12.7828 15.3148 12.7828 16.007C12.7828 16.699 12.5945 17.4536 12.2807 18.1458C11.4024 19.9697 9.83368 20.7243 7.88879 20.8503C6.19495 20.9758 4.87728 22.2338 4.81452 23.9317C4.68899 25.4413 5.81801 26.8881 7.26153 27.2025C8.82986 27.58 10.4613 26.7624 11.0258 25.1898C11.2141 24.6236 11.2141 23.9947 11.2768 23.3655C11.2768 22.3592 11.5906 21.4156 12.4062 20.7866C14.0373 19.4659 15.9198 19.0254 17.9275 19.7803C19.8724 20.5352 20.8762 21.856 20.8138 24.0578C20.7507 25.8817 22.2566 27.2025 24.0135 27.2025C25.7701 27.2025 27.1506 25.8187 27.2134 24.0574C27.2134 22.3595 25.8329 20.9127 23.9508 20.8501Z" fill="url(#paint1_linear_21320_1694)" style=""/>
<path d="M15.9812 20.8649C14.2244 20.8649 12.7811 22.3144 12.7811 24.0789C12.7811 25.8433 14.2872 27.3556 16.1068 27.2928C17.8637 27.2928 19.3074 25.8433 19.2442 24.0157C19.1815 22.2512 17.7381 20.8021 15.9812 20.8649ZM8.01198 12.7367C6.19232 12.7367 4.74898 14.1858 4.74898 16.0135C4.74898 17.8411 6.19232 19.2902 8.01198 19.2902C9.76918 19.2902 11.2125 17.8411 11.2125 16.0766C11.1494 14.1858 9.76918 12.7367 8.01198 12.7367ZM27.2132 15.8875C27.1504 14.1231 25.6443 12.7367 23.8874 12.7367C22.1302 12.7999 20.75 14.249 20.75 16.0135C20.75 17.7779 22.1302 19.2274 23.8874 19.2902C25.6443 19.3533 27.0876 17.9039 27.2132 16.1394V15.8875ZM15.9809 11.1614C17.7377 11.1614 19.1811 9.77501 19.1811 7.94744C19.1811 6.18292 17.8005 4.73383 16.0436 4.73383C14.2237 4.73383 12.7176 6.18292 12.7176 7.94744C12.7176 9.7119 14.2237 11.1614 15.9809 11.1614Z" fill="white" style="fill:white;fill-opacity:1;"/>
<defs>
<linearGradient id="paint0_linear_21320_1694" x1="39.4358" y1="36.6674" x2="2.01513" y2="-13.1686" gradientUnits="userSpaceOnUse">
<stop offset="0.22941" stop-color="#E80000" style="stop-color:#E80000;stop-color:color(display-p3 0.9098 0.0000 0.0000);stop-opacity:1;"/>
<stop offset="0.825724" stop-color="#FFA800" style="stop-color:#FFA800;stop-color:color(display-p3 1.0000 0.6588 0.0000);stop-opacity:1;"/>
</linearGradient>
<linearGradient id="paint1_linear_21320_1694" x1="5.70614" y1="5.71644" x2="26.2826" y2="26.2409" gradientUnits="userSpaceOnUse">
<stop offset="0.018" stop-color="white" style="stop-color:white;stop-opacity:1;"/>
<stop offset="0.437" stop-color="white" style="stop-color:white;stop-opacity:1;"/>
<stop offset="1" stop-color="white" style="stop-color:white;stop-opacity:1;"/>
</linearGradient>
</defs>
</svg>
