<svg width="32" height="32" viewBox="0 0 32 32" fill="none" xmlns="http://www.w3.org/2000/svg">
<path d="M20.5463 6.99969C20.505 6.99969 20.4625 7.00844 20.4213 7.01469L14.8625 7.48969C14.4562 7.52456 14.0656 7.66269 13.7277 7.89097C13.3898 8.11925 13.1159 8.4301 12.9319 8.79401C12.748 9.15792 12.6601 9.56282 12.6766 9.97025C12.6931 10.3777 12.8134 10.7741 13.0262 11.122C13.239 11.4698 13.5372 11.7575 13.8924 11.9577C14.2477 12.1579 14.6482 12.264 15.056 12.2659C15.4637 12.2678 15.8652 12.1654 16.2223 11.9686C16.5794 11.7717 16.8802 11.4868 17.0963 11.1409L19.0563 10.9747C19.3319 11.2598 19.6753 11.4705 20.0543 11.5872C20.4333 11.7039 20.8357 11.7227 21.224 11.642C21.6123 11.5613 21.9738 11.3836 22.2749 11.1256C22.5761 10.8675 22.807 10.5374 22.9462 10.166C23.0854 9.79469 23.1283 9.39415 23.0711 9.00173C23.0138 8.6093 22.8581 8.23776 22.6185 7.9217C22.379 7.60564 22.0633 7.35535 21.701 7.19414C21.3387 7.03292 20.9414 6.96603 20.5463 6.99969ZM16.4275 9.87469L16.06 9.90719C16.0117 9.91112 15.9646 9.92458 15.9215 9.94679C15.8784 9.96899 15.8401 9.9995 15.8089 10.0366C15.7776 10.0736 15.754 10.1165 15.7394 10.1628C15.7248 10.209 15.7195 10.2576 15.7238 10.3059V10.2472L15.76 10.6734C15.7739 10.7263 15.7761 10.7816 15.7663 10.8354C15.7566 10.8893 15.7352 10.9403 15.7037 10.985C15.6722 11.0297 15.6312 11.0669 15.5838 11.0941C15.5363 11.1213 15.4835 11.1378 15.429 11.1424C15.3745 11.147 15.3197 11.1397 15.2683 11.1209C15.217 11.1021 15.1704 11.0723 15.1318 11.0335C15.0932 10.9948 15.0635 10.9481 15.0448 10.8967C15.0262 10.8453 15.019 10.7904 15.0238 10.7359L14.9925 10.3684C14.9839 10.2695 14.9365 10.1781 14.8605 10.1141C14.7846 10.0501 14.6864 10.0189 14.5875 10.0272L14.2125 10.0584C14.1595 10.0729 14.1039 10.0756 14.0497 10.0662C13.9955 10.0568 13.9441 10.0356 13.899 10.0041C13.8539 9.97263 13.8163 9.93161 13.7889 9.88397C13.7614 9.83634 13.7447 9.78324 13.7401 9.72846C13.7354 9.67367 13.7429 9.61853 13.7619 9.56694C13.7809 9.51535 13.8111 9.46857 13.8502 9.42992C13.8893 9.39128 13.9364 9.36171 13.9882 9.34331C14.04 9.3249 14.0953 9.31812 14.15 9.32344L14.5175 9.29219C14.6146 9.28236 14.704 9.23509 14.7668 9.1604C14.8296 9.08572 14.8608 8.98951 14.8538 8.89219L14.8225 8.52469C14.8302 8.43672 14.8688 8.3543 14.9313 8.29195C14.9938 8.22959 15.0764 8.19131 15.1643 8.18384C15.2523 8.17637 15.3401 8.20019 15.4123 8.25111C15.4844 8.30203 15.5363 8.37678 15.5588 8.46219L15.59 8.82969C15.5998 8.92653 15.6469 9.01575 15.7213 9.0785C15.7958 9.14125 15.8916 9.1726 15.9888 9.16594L16.3638 9.13469C16.451 9.14317 16.5326 9.18198 16.5942 9.24437C16.6559 9.30676 16.6937 9.38877 16.7011 9.47616C16.7086 9.56355 16.6851 9.65077 16.6349 9.72267C16.5847 9.79457 16.5109 9.84659 16.4263 9.86969L16.4275 9.87469ZM20.1425 9.78469C20.0478 9.79163 19.9531 9.77048 19.8704 9.72387C19.7877 9.67726 19.7205 9.60728 19.6774 9.52269C19.6343 9.43809 19.617 9.34265 19.6279 9.24832C19.6387 9.15398 19.6772 9.06495 19.7384 8.99236C19.7997 8.91978 19.8809 8.86688 19.9721 8.84029C20.0633 8.8137 20.1602 8.81459 20.2509 8.84287C20.3415 8.87114 20.4218 8.92554 20.4817 8.99924C20.5416 9.07294 20.5784 9.16267 20.5875 9.25719C20.593 9.32079 20.5858 9.38485 20.5663 9.44564C20.5468 9.50644 20.5155 9.56276 20.4741 9.61136C20.4327 9.65996 20.3821 9.69986 20.3252 9.72876C20.2683 9.75765 20.2062 9.77496 20.1425 9.77969V9.78469ZM20.5775 8.33344C20.5701 8.24695 20.5886 8.16022 20.6305 8.08422C20.6725 8.00822 20.736 7.94637 20.8131 7.9065C20.8902 7.86662 20.9774 7.85052 21.0637 7.86022C21.15 7.86991 21.2314 7.90498 21.2977 7.96098C21.364 8.01698 21.4123 8.0914 21.4363 8.17481C21.4603 8.25822 21.459 8.34689 21.4327 8.42959C21.4063 8.51228 21.356 8.58529 21.2881 8.63938C21.2202 8.69347 21.1378 8.7262 21.0513 8.73344C20.9934 8.73856 20.9352 8.7321 20.8799 8.71442C20.8246 8.69674 20.7734 8.66821 20.7293 8.63049C20.6852 8.59277 20.649 8.54663 20.6229 8.49476C20.5969 8.4429 20.5814 8.38635 20.5775 8.32844V8.33344ZM21.2025 10.6322C21.1129 10.6396 21.0231 10.6204 20.9444 10.577C20.8656 10.5336 20.8015 10.4678 20.76 10.3881C20.7185 10.3083 20.7015 10.218 20.7111 10.1287C20.7208 10.0393 20.7566 9.9547 20.8141 9.88559C20.8716 9.81649 20.9483 9.76593 21.0345 9.74025C21.1206 9.71458 21.2125 9.71493 21.2984 9.74128C21.3844 9.76763 21.4607 9.81879 21.5177 9.88834C21.5747 9.95788 21.6098 10.0427 21.6188 10.1322C21.6285 10.2526 21.5901 10.372 21.5121 10.4642C21.4342 10.5565 21.3229 10.6142 21.2025 10.6247V10.6322ZM21.9963 9.52344C21.9184 9.53032 21.8403 9.51395 21.7717 9.47641C21.7032 9.43886 21.6473 9.38182 21.6112 9.31252C21.5751 9.24321 21.5603 9.16474 21.5688 9.08705C21.5773 9.00935 21.6087 8.93593 21.6589 8.87606C21.7091 8.81619 21.776 8.77257 21.851 8.75072C21.9261 8.72887 22.0059 8.72978 22.0804 8.75332C22.155 8.77686 22.2208 8.82198 22.2697 8.88297C22.3186 8.94396 22.3483 9.01808 22.355 9.09594C22.3623 9.19928 22.3288 9.30138 22.2618 9.38035C22.1947 9.45932 22.0994 9.50889 21.9963 9.51844V9.52344Z" fill="#00BFF2" style="fill:#00BFF2;fill:color(display-p3 0.0000 0.7490 0.9490);fill-opacity:1;"/>
<path d="M7.245 10.4362C6.87 10.5412 6.6275 11.1488 6.80875 11.9875C6.99 12.8263 7.5875 13.4237 8.125 13.305C8.14615 13.3003 8.16701 13.2945 8.1875 13.2875L8.20875 13.2788C8.22195 13.2745 8.23489 13.2695 8.2475 13.2638L8.2725 13.2513L8.30625 13.2338L8.33125 13.2188L8.35875 13.2C8.60875 12.8587 8.68375 12.3062 8.56125 11.7537C8.3725 10.9087 7.77625 10.2912 7.245 10.4362Z" fill="#1C4791" style="fill:#1C4791;fill:color(display-p3 0.1098 0.2784 0.5686);fill-opacity:1;"/>
<path fill-rule="evenodd" clip-rule="evenodd" d="M25.8375 10.3188C25.77 9.2625 25.2925 8.395 24.69 8.115C23.8963 5.835 22.4025 4.4775 19.7713 3.96875C14.3375 2.92 10.4075 5.6925 9.3675 9.1425C9.36449 9.15657 9.36031 9.17037 9.355 9.18375C9.29448 9.26311 9.2091 9.31988 9.1125 9.345C9.07974 9.34013 9.04827 9.3288 9.01992 9.31166C8.99157 9.29453 8.96691 9.27192 8.94737 9.24518C8.92783 9.21843 8.9138 9.18806 8.9061 9.15584C8.8984 9.12362 8.89717 9.09019 8.9025 9.0575C8.90189 9.05126 8.90189 9.04498 8.9025 9.03875C9.1849 7.98586 9.69719 7.00867 10.4025 6.1775C11.15 5.22848 12.0863 4.44495 13.1522 3.87648C14.2182 3.30801 15.3905 2.96699 16.595 2.875L16.6788 2.86875L16.8538 2.85625H16.9125C17.8159 2.81191 18.7214 2.87823 19.6088 3.05375C20.1405 3.15516 20.6595 3.31488 21.1563 3.53C21.1563 3.53 20.8375 2.8875 19.7125 2.3525C19.8943 1.57547 19.8693 0.764359 19.64 0C18.0425 1.5975 15.7463 1.64125 15.7438 1.64125C11.3563 1.65875 7.5875 5.18875 7.015 8.86375C5.9725 9.375 5.43625 10.9225 5.8 12.5575C6.2125 14.3888 7.5875 15.6388 8.87875 15.3512C9.26241 15.2609 9.60712 15.0502 9.8625 14.75C11.2738 17.0875 13.9275 18.6625 16.9688 18.6625C20.8438 18.6625 24.0875 16.1075 24.9363 12.6763C25.5238 12.3475 25.9075 11.4038 25.8375 10.3188ZM8.65125 13.5138C8.50576 13.7212 8.28987 13.8686 8.04375 13.9288C7.97766 13.9432 7.91017 13.9504 7.8425 13.95C7.17 13.95 6.4925 13.23 6.27 12.2312C6.07375 11.3475 6.29375 10.4725 6.80625 10.1062C6.91145 10.0292 7.03147 9.97469 7.15875 9.94625C7.89125 9.78375 8.6875 10.545 8.93125 11.6438C9.0875 12.3525 8.98125 13.07 8.65125 13.5138ZM21.93 12.4288C22.0981 12.924 22.1564 13.4498 22.1009 13.9698C22.0453 14.4898 21.8773 14.9915 21.6084 15.44C21.3396 15.8886 20.9763 16.2732 20.5438 16.5673C20.1114 16.8613 19.6201 17.0577 19.1041 17.1428C18.5881 17.2279 18.0598 17.1998 17.5558 17.0602C17.0518 16.9206 16.5842 16.6731 16.1855 16.3347C15.7868 15.9963 15.4665 15.5751 15.2469 15.1005C15.0273 14.6259 14.9136 14.1092 14.9138 13.5863C14.9138 13.48 14.9138 13.375 14.9288 13.27H14.8675C14.0143 13.2646 13.1958 12.9311 12.5818 12.3386C11.9678 11.7462 11.6052 10.9402 11.5692 10.0877C11.5332 9.23525 11.8265 8.40159 12.3885 7.7595C12.9504 7.1174 13.7378 6.7161 14.5875 6.63875L20.2238 6.1575C20.2534 6.1575 20.2831 6.1531 20.3125 6.14874C20.3327 6.14575 20.3527 6.14278 20.3725 6.14125C21.1503 6.07493 21.9262 6.28829 22.5607 6.74296C23.1953 7.19762 23.6468 7.86376 23.834 8.62157C24.0213 9.37938 23.9321 10.1791 23.5824 10.877C23.2326 11.5749 22.6454 12.1251 21.9263 12.4288H21.93Z" fill="#1C4791" style="fill:#1C4791;fill:color(display-p3 0.1098 0.2784 0.5686);fill-opacity:1;"/>
<path d="M6.83375 20.5375H2V21.78H6.83375V20.5375Z" fill="#1C4791" style="fill:#1C4791;fill:color(display-p3 0.1098 0.2784 0.5686);fill-opacity:1;"/>
<path d="M3.2425 23.99H6.83375V22.7462H2V25.785H3.2425V23.99Z" fill="#1C4791" style="fill:#1C4791;fill:color(display-p3 0.1098 0.2784 0.5686);fill-opacity:1;"/>
<path d="M20.0225 32H24.8562V30.7575H21.265V27.995H24.8562V26.7525H20.0225V32Z" fill="#1C4791" style="fill:#1C4791;fill:color(display-p3 0.1098 0.2784 0.5686);fill-opacity:1;"/>
<path d="M24.7188 28.755H21.9563V29.9975H24.7188V28.755Z" fill="#1C4791" style="fill:#1C4791;fill:color(display-p3 0.1098 0.2784 0.5686);fill-opacity:1;"/>
<path d="M11.3913 24.5425H8.7675V20.5375H7.52375V24.3038L8.7675 25.785H11.3913L12.6338 24.3038V20.5375H11.3913V24.5425Z" fill="#1C4791" style="fill:#1C4791;fill:color(display-p3 0.1098 0.2784 0.5686);fill-opacity:1;"/>
<path d="M14.5675 23.7475L16.5513 25.785H18.435V20.5375H17.1913V24.5088L13.3238 20.5375V25.785H14.5675V23.7475Z" fill="#1C4791" style="fill:#1C4791;fill:color(display-p3 0.1098 0.2784 0.5686);fill-opacity:1;"/>
<path d="M7.52375 32H8.7675V29.9625L10.7512 32H12.6338L7.52375 26.7525V32Z" fill="#1C4791" style="fill:#1C4791;fill:color(display-p3 0.1098 0.2784 0.5686);fill-opacity:1;"/>
<path d="M20.3675 23.1613V20.5375H19.125V25.785H20.3675V23.1613Z" fill="#1C4791" style="fill:#1C4791;fill:color(display-p3 0.1098 0.2784 0.5686);fill-opacity:1;"/>
<path d="M24.1925 25.785L21.99 23.1613L24.1925 20.5375H22.57L20.3675 23.1613L22.57 25.785H24.1925Z" fill="#1C4791" style="fill:#1C4791;fill:color(display-p3 0.1098 0.2784 0.5686);fill-opacity:1;"/>
<path d="M30.675 20.5375H29.0525L27.6625 22.1938L26.2712 20.5375H24.6488L26.8512 23.1613L24.6488 25.785H26.2712L30.675 20.5375Z" fill="#1C4791" style="fill:#1C4791;fill:color(display-p3 0.1098 0.2784 0.5686);fill-opacity:1;"/>
<path d="M5.79 27.995L6.83375 26.7525H2V30.5188L3.2425 32H6.83375V28.755H3.795L4.8375 29.9975H5.59V30.7575H3.2425V27.995H5.79Z" fill="#1C4791" style="fill:#1C4791;fill:color(display-p3 0.1098 0.2784 0.5686);fill-opacity:1;"/>
<path d="M12.9788 26.7525V32H14.2225V29.9625L16.1563 31.9475L18.0888 29.9625V32H19.3325V26.7525L16.1563 30.0138L12.9788 26.7525Z" fill="#1C4791" style="fill:#1C4791;fill:color(display-p3 0.1098 0.2784 0.5686);fill-opacity:1;"/>
<path d="M25.5475 27.995V28.755L26.59 29.9975H29.4138V30.7575H25.5475V32H29.4138L30.6563 30.5188V28.755H26.79V27.995H30.6563V26.7525H26.59L25.5475 27.995Z" fill="#1C4791" style="fill:#1C4791;fill:color(display-p3 0.1098 0.2784 0.5686);fill-opacity:1;"/>
</svg>
