<svg width="32" height="32" viewBox="0 0 32 32" fill="none" xmlns="http://www.w3.org/2000/svg">
<path d="M20.3257 3.05497L7.27338 10.941V21.1017L16.2506 26.1069L24.2719 21.1017V10.0308L16.2506 14.5802V18.3712L20.4778 15.7741V19.4334L16.2506 22.0119L10.7634 18.8271V12.9133L24.2719 5.02571L28.2555 7.60115C28.9895 8.07566 29.4317 8.88812 29.4317 9.76109V21.9173C29.4317 22.8213 28.9569 23.6586 28.1825 24.1237L17.5759 30.4825C16.7596 30.9709 15.7416 30.9709 14.9253 30.4825L3.81747 23.8214C3.04157 23.3562 2.56826 22.519 2.56826 21.615V10.1378C2.56826 9.22612 3.05088 8.38107 3.8392 7.91902L14.764 1.50598C15.5321 1.05478 16.4788 1.03307 17.2671 1.44706L20.3241 3.05497H20.3257Z" fill="#94C124" style="fill:#94C124;fill:color(display-p3 0.5804 0.7569 0.1412);fill-opacity:1;"/>
</svg>
