<svg width="100" height="32" viewBox="0 0 100 32" fill="none" xmlns="http://www.w3.org/2000/svg">
<g clip-path="url(#clip0_122_631)">
<path d="M26.0459 7.17517C29.2463 9.43309 32.4365 11.8436 35.798 13.9879C37.4796 15.0609 39.412 14.7626 41.0885 13.6031C43.2295 12.1216 45.3382 10.5926 47.469 9.09576C49.1184 7.93798 50.0931 7.9312 51.7678 9.10084C53.8223 10.5349 55.8531 12.0029 57.8991 13.4489C59.9943 14.9287 62.2675 14.9609 64.3407 13.4946C67.219 11.4571 70.077 9.38901 72.9112 7.35655C73.7249 9.55344 73.2316 11.2774 71.2958 12.6623C69.0582 14.2625 66.8155 15.8593 64.5712 17.4511C62.3234 19.0462 60.0265 19.0343 57.7483 17.4172C55.5853 15.8814 53.4003 14.3744 51.2729 12.7895C50.1032 11.9182 49.0861 11.9639 47.9335 12.82C45.7637 14.4303 43.5448 15.9746 41.3343 17.529C39.2527 18.9902 36.9541 19.0258 34.8792 17.5867C32.5383 15.9627 30.2634 14.2405 27.897 12.6555C26.5256 11.7368 25.8798 10.5858 26.034 8.94489C26.0984 8.27701 26.0459 7.59556 26.0459 7.17517Z" fill="black"/>
<path d="M38.3118 0.0319824C38.6339 0.157422 39.4289 0.321851 40.0578 0.737158C41.8615 1.93053 43.6159 3.20188 45.3534 4.48849C46.4485 5.29876 46.5621 6.54638 45.6857 7.39734C45.1466 7.91944 44.6245 8.1398 43.9024 7.56854C42.7073 6.62435 41.4428 5.76662 40.1867 4.90379C38.5966 3.80874 37.1219 3.8223 35.5352 4.92414C34.3639 5.7378 33.2078 6.5735 32.0483 7.40411C31.4906 7.80417 30.8414 8.39068 30.3057 7.5838C29.8972 6.96508 29.5192 6.07344 29.6497 5.40725C29.8752 4.26642 36.6099 0.0472386 38.3118 0.0319824Z" fill="black"/>
<path d="M61.3555 3.90364C60.5384 4.26639 59.7417 4.51727 59.0603 4.94784C57.8567 5.70895 56.6718 6.52092 55.5784 7.42951C54.7512 8.11604 54.1139 8.08383 53.468 7.2956C52.8154 6.50227 52.7679 5.64454 53.4867 4.90207C53.9935 4.37827 54.641 3.99009 55.2377 3.55783C56.5125 2.63398 57.7855 1.71013 59.0755 0.808324C60.513 -0.19689 62.0267 -0.295208 63.4896 0.686274C65.3272 1.91864 67.1257 3.21033 68.9005 4.53083C70.06 5.39196 70.1379 6.51753 69.2056 7.40239C68.6513 7.92958 68.1496 8.1313 67.4257 7.55495C66.2341 6.60737 64.978 5.73099 63.6897 4.92072C63.0048 4.49185 62.1962 4.26131 61.3555 3.90364Z" fill="black"/>
<path d="M56.3904 27.4C56.3904 28.434 56.4057 29.3273 56.387 30.2207C56.3633 31.2377 55.8683 31.7548 54.6699 31.9514C54.6699 30.9631 54.6699 29.9935 54.6699 29.0239C54.6699 28.095 54.6631 27.166 54.6716 26.2354C54.6834 25.1166 55.2632 24.7708 56.2514 25.3082C58.6246 26.5982 60.991 27.9017 63.3608 29.1985C63.5252 29.2883 63.7015 29.3595 63.988 29.4934C63.988 28.4645 63.9626 27.5457 63.9948 26.6304C64.0304 25.615 64.5728 25.098 65.6984 24.9861C65.6984 27.0135 65.7272 29.0375 65.6831 31.0581C65.6662 31.8344 64.9729 32.0887 64.166 31.653C62.2607 30.6224 60.3655 29.5697 58.467 28.5289C57.8296 28.178 57.1871 27.8322 56.3904 27.4Z" fill="black"/>
<path d="M11.0049 25.0945C11.0049 27.1439 11.0304 29.1916 10.9914 31.2393C10.9778 31.9513 10.3506 32.2022 9.60815 31.8259C8.43003 31.2275 7.28413 30.5647 6.08906 30.0019C5.77546 29.8544 5.2737 29.851 4.9601 29.9968C3.78876 30.5426 2.66658 31.1902 1.51389 31.7784C0.549359 32.2717 0.00691582 31.9326 0.00352555 30.8478C-0.00325498 28.9373 0.00183135 27.0252 0.00183135 25.1165C1.04603 25.0962 1.66815 25.681 1.69018 26.693C1.71052 27.6457 1.69527 28.5983 1.69527 29.6764C2.57165 29.2238 3.40735 28.8848 4.13965 28.3915C5.07367 27.7626 5.89411 27.727 6.84 28.3695C7.5723 28.8678 8.41139 29.2103 9.31659 29.6798C9.31659 28.6153 9.30133 27.6711 9.31998 26.7269C9.34032 25.6996 9.91158 25.1386 11.0049 25.0945Z" fill="black"/>
<path d="M20.9249 31.9463C20.9249 29.8799 20.8927 27.8848 20.9401 25.893C20.9588 25.0946 21.6317 24.8386 22.4403 25.276C24.666 26.4846 26.8816 27.7119 29.1005 28.9307C29.4192 29.1053 29.7429 29.2748 30.2294 29.5358C30.2294 28.5425 30.2159 27.6593 30.2328 26.7778C30.2532 25.6675 30.6888 25.1827 31.8788 24.9573C31.911 25.1353 31.972 25.3149 31.9737 25.4929C31.9805 27.2101 31.9907 28.929 31.9737 30.6461C31.9636 31.8039 31.3432 32.1599 30.3261 31.6056C28.0529 30.3664 25.7865 29.1154 23.515 27.8712C23.2743 27.739 23.0302 27.6169 22.6641 27.4237C22.6641 28.4035 22.681 29.2646 22.659 30.124C22.6319 31.2208 22.1454 31.7531 20.9249 31.9463Z" fill="black"/>
<path d="M45.4873 24.7606C45.4568 25.92 44.872 26.4777 43.6396 26.4964C42.0055 26.5218 40.3714 26.5031 38.7373 26.5031C38.4322 26.5031 38.1271 26.5031 37.7812 26.5031C37.7812 26.9998 37.7812 27.4083 37.7812 27.8932C38.9967 27.8932 40.1697 27.8932 41.3444 27.8932C41.3292 28.8102 40.8749 29.4679 40.0917 29.5595C39.3459 29.6459 38.583 29.5781 37.8474 29.5781C37.5219 31.4478 37.2558 31.792 35.9878 31.9191C35.9878 30.68 35.9878 29.4476 35.9878 28.2169C35.9878 27.3999 35.9912 26.5845 35.9895 25.7675C35.9878 25.1674 36.2539 24.769 36.876 24.7656C39.7442 24.7521 42.6158 24.7606 45.4873 24.7606Z" fill="black"/>
<path d="M85.7925 24.9758C85.6213 26.1489 85.0992 26.6303 83.9838 26.6659C83.1176 26.693 82.2497 26.671 81.3106 26.671C81.3106 27.9067 81.3275 29.0306 81.3055 30.1511C81.2851 31.2529 80.8156 31.7462 79.6188 31.9293C79.6188 30.2155 79.6188 28.5102 79.6188 26.671C78.6594 26.671 77.7677 26.6947 76.8778 26.6642C75.7658 26.6269 75.1911 26.0421 75.203 24.9741C78.7153 24.9758 82.2259 24.9758 85.7925 24.9758Z" fill="black"/>
<path d="M88.9421 25.0216C91.3288 24.4385 92.6171 26.0692 94.0648 27.4829C95.5328 26.1082 96.8295 24.4232 99.3027 25.0369C98.7518 25.5505 98.2331 26.037 97.711 26.5184C97.1737 27.0151 96.6515 27.5304 96.0854 27.9915C95.3649 28.5797 94.87 29.1849 94.931 30.2375C94.9903 31.2716 94.3614 31.7903 93.224 31.9055C93.224 31.3682 93.1697 30.8342 93.2359 30.3155C93.3562 29.3815 92.9918 28.7424 92.2798 28.1542C91.1525 27.2236 90.1032 26.198 89.0251 25.2098C88.9861 25.1776 88.9794 25.1131 88.9421 25.0216Z" fill="black"/>
<path d="M50.6321 24.9504C50.6321 26.8049 50.6558 28.6001 50.6219 30.3952C50.605 31.2919 50.071 31.7649 48.9132 31.9581C48.9132 31.2818 48.9132 30.6257 48.9132 29.9697C48.9132 28.9018 48.8996 27.8339 48.9183 26.7659C48.9352 25.6692 49.3811 25.181 50.6321 24.9504Z" fill="black"/>
<path d="M15.2834 31.975C15.2834 30.0629 15.2461 28.2407 15.3004 26.4201C15.3258 25.5912 15.953 25.1114 16.9498 24.9911C16.9498 26.8761 17.0057 28.7577 16.9243 30.6325C16.8887 31.4445 16.2547 31.8716 15.2834 31.975Z" fill="black"/>
<path d="M69.8278 31.9072C69.8278 30.0545 69.7667 28.2017 69.8549 26.3557C69.8939 25.5166 70.5312 25.0403 71.5466 24.947C71.5466 25.8149 71.5466 26.6489 71.5466 27.4812C71.5449 28.4119 71.5755 29.3442 71.5314 30.2714C71.4805 31.3309 70.9432 31.836 69.8278 31.9072Z" fill="black"/>
</g>
<defs>
<clipPath id="clip0_122_631">
<rect width="99.3" height="32" fill="white"/>
</clipPath>
</defs>
</svg>
