<svg width="16" height="16" viewBox="0 0 16 16" fill="none" xmlns="http://www.w3.org/2000/svg">
<path d="M0.0843506 9.64389C0.0843506 12.0836 1.99847 14.0613 4.35961 14.0613C5.75327 14.0613 7.15128 13.3966 7.93111 12.3299L8.164 11.9593L8.39676 12.3297C9.1766 13.3966 10.2473 14.0613 11.641 14.0613C14.0021 14.0613 15.9157 12.0836 15.9157 9.64389C15.9157 5.61371 10.2574 1.31331 8.60936 0.146259C8.33822 -0.0457444 7.98817 -0.0493382 7.71325 0.1372C6.01291 1.2909 0.0843506 5.6032 0.0843506 9.64389Z" fill="#D0D0D0"/>
<path d="M8.27843 13.5912C8.21568 13.5271 8.11256 13.5271 8.04981 13.5912L5.95682 15.7281C5.85764 15.8294 5.92939 16.0001 6.07113 16.0001H10.2571C10.3989 16.0001 10.4706 15.8294 10.3714 15.7281L8.27843 13.5912Z" fill="#D0D0D0"/>
</svg>
