<svg width="10" height="12" viewBox="0 0 10 12" fill="none" xmlns="http://www.w3.org/2000/svg">
<g clip-path="url(#clip0_6630_777)">
<path d="M1.66667 12C1.22464 12 0.800716 11.842 0.488155 11.5607C0.175595 11.2794 0 10.8978 0 10.5L0 1.5C0 1.10217 0.175595 0.720644 0.488155 0.43934C0.800716 0.158035 1.22464 0 1.66667 0H3.33333C3.33333 0.397824 3.50893 0.779355 3.82149 1.06066C4.13405 1.34196 4.55797 1.5 5 1.5C5.44203 1.5 5.86595 1.34196 6.17851 1.06066C6.49107 0.779355 6.66667 0.397824 6.66667 0H8.33333C8.77536 0 9.19928 0.158035 9.51184 0.43934C9.82441 0.720644 10 1.10217 10 1.5V10.5C10 10.8978 9.82441 11.2794 9.51184 11.5607C9.19928 11.842 8.77536 12 8.33333 12H6.66667C6.66667 11.6022 6.49107 11.2206 6.17851 10.9393C5.86595 10.658 5.44203 10.5 5 10.5C4.55797 10.5 4.13405 10.658 3.82149 10.9393C3.50893 11.2206 3.33333 11.6022 3.33333 12H1.66667Z" fill="white"/>
</g>
<defs>
<clipPath id="clip0_6630_777">
<rect width="12" height="10" fill="white" transform="matrix(0 -1 1 0 0 12)"/>
</clipPath>
</defs>
</svg>
