<svg viewBox="0 0 56 25" fill="none" xmlns="http://www.w3.org/2000/svg">
<g clip-path="url(#clip0)">
<path d="M47.784 12.2754C46.5707 11.7253 45.3924 11.0691 44.2101 11.0691C43.9427 11.0691 43.6423 11.0748 43.3186 11.1705C43.337 10.1612 43.8099 8.64012 45.1065 7.45387C45.904 6.7249 46.7742 6.34798 47.6464 6.34798C48.348 6.34798 49.3044 6.51348 50.0506 6.82056C52.1408 7.68442 53.105 8.98165 53.105 10.2444C53.105 10.4128 53.0943 10.5793 53.0643 10.7457C52.8589 11.9004 51.9208 13.013 50.444 13.013C49.5806 13.013 49.0001 12.8523 47.784 12.2754Z" fill="#FFE600"/>
<path d="M49.0654 17.4048C52.2798 17.4048 54.9475 14.7099 54.9475 11.4965C54.9475 9.75536 54.2866 8.34429 53.1548 7.31397C51.7962 6.07893 50.0064 5.58434 48.8425 5.58434C48.5838 5.58434 48.2718 5.62165 48.013 5.6934C47.919 5.72114 47.8657 5.76706 47.8657 5.82637C47.8657 5.90578 47.9307 5.95361 48.1662 5.967C49.8978 6.06075 51.8069 6.85191 52.899 7.95876C53.8399 8.90968 54.0841 9.91991 54.0502 10.6364C53.9649 12.5077 52.5898 13.825 50.6711 13.825C49.8901 13.825 49.0741 13.5514 48.3716 13.228C46.9045 12.5488 45.6563 11.5835 44.133 11.5835C43.4498 11.5835 43.3054 11.8064 43.3054 12.103C43.3054 13.2261 43.9149 14.6515 45.0507 15.745C46.0226 16.6796 47.3735 17.4048 49.0654 17.4048Z" fill="#FFE600"/>
<path d="M41.768 7.66076C28.9872 0.430348 18.5119 -1.61116 10.6316 1.59364C2.48094 4.90846 0.183336 12.8449 0.161048 12.9243C0.11841 13.0754 0.198843 13.2323 0.346138 13.2878C0.493432 13.3443 0.660107 13.2811 0.731816 13.1424C2.93542 8.83553 6.43271 5.89286 11.1268 4.39569C14.9031 3.1903 19.4605 2.90905 24.674 3.55861C33.5853 4.66929 41.4094 8.16492 41.4879 8.20031C41.6362 8.26728 41.8135 8.20605 41.8891 8.06255C41.9627 7.9181 41.9104 7.74112 41.768 7.66076Z" fill="#07C790"/>
<path d="M5.41772 24.9702V10.8116C5.41772 10.1745 5.816 9.94586 6.36642 9.94586H9.44701V21.9921C9.44701 22.3307 9.40825 22.6598 9.33073 22.9363C8.97896 24.1847 7.83937 24.9702 6.01853 24.9702H5.41772Z" fill="#07C790"/>
<path d="M20.4516 12.7497H23.6824C24.8016 12.7497 25.1825 12.479 25.3259 11.9241L25.7755 9.94574H13.2942C12.5471 9.94574 12.2011 10.1361 12.05 10.7838L11.5674 12.7497H16.4271V24.97H16.4281H17.026C18.8081 24.97 20.0049 24.2315 20.3489 22.895C20.4303 22.5813 20.4516 22.2378 20.4516 21.9834V12.7497Z" fill="#07C790"/>
<path d="M28.8808 9.94635C28.0668 9.94635 27.8091 10.2324 27.8091 10.904V24.9706H28.4118C30.3964 24.9706 31.4818 24.0523 31.7676 22.7665C31.818 22.535 31.8432 22.2011 31.8432 21.9476V18.7686H34.4305C35.3017 18.7686 35.7048 18.5438 35.9248 17.9096L36.5111 15.9647H31.8461V12.7599H36.2233C37.297 12.7599 37.6177 12.4413 37.8532 11.6961L38.4056 9.94635H28.8808Z" fill="#07C790"/>
</g>
<defs>
<clipPath id="clip0">
<rect width="55" height="25" fill="white" transform="translate(0.0258789)"/>
</clipPath>
</defs>
</svg>
