<svg viewBox="0 0 24 25" fill="none" xmlns="http://www.w3.org/2000/svg">
<g clip-path="url(#clip0)">
<path d="M22.028 6.21566L22.8848 4.34557L20.8651 3.7726C20.2498 3.59782 19.7972 3.13906 19.5193 2.40946L18.6274 0.0617065L16.6365 1.64675C16.1087 2.06694 15.5741 2.27976 15.0469 2.27976C14.3421 2.27976 13.5399 1.94985 13.003 1.43948L11.7214 0.220147L10.4392 1.43959C9.90288 1.94995 9.10044 2.27987 8.39577 2.27987C7.86866 2.27987 7.33399 2.06705 6.80611 1.64686L4.81555 0.0618133L3.92322 2.40957C3.64622 3.13927 3.19344 3.59803 2.57733 3.77271L0.558105 4.34568L1.41477 6.21577C1.81055 7.07901 2.01088 7.97998 2.01088 8.89344C2.01088 11.4213 0.670217 11.9963 0.670217 14.804C0.670217 18.849 3.92333 21.496 6.94622 22.2441C8.47355 22.6016 8.93488 22.6256 10.314 22.9525C10.427 23.0692 11.7214 24.4089 11.7214 24.4089C11.7214 24.4089 13.016 23.069 13.1287 22.9525C14.5078 22.6256 14.9693 22.6016 16.4967 22.2441C19.5193 21.4958 22.7729 18.8491 22.7729 14.804C22.7729 11.9964 21.432 11.4213 21.432 8.89344C21.4318 7.97955 21.6324 7.07891 22.028 6.21566ZM21.8083 11.8864C22.131 12.6632 22.4428 13.4737 22.4428 14.8041C22.4428 18.4991 19.5815 21.1531 16.4145 21.9369C14.8487 22.3172 14.1193 22.3541 12.9522 22.6688C12.8001 22.8222 11.7221 23.9426 11.7221 23.9426C11.7221 23.9426 10.6437 22.8219 10.4917 22.6688C9.32455 22.3543 8.59544 22.3172 7.02977 21.9369C4.58344 21.3318 2.32088 19.6107 1.41677 17.1572C1.14988 16.4332 1.00088 15.6462 1.00088 14.8043C1.00088 12.0449 2.34188 11.5222 2.34188 8.89376C2.34188 7.81651 2.07255 6.86299 1.71744 6.08778L1.01255 4.54824L2.67099 4.07763C3.39288 3.87292 3.91888 3.34857 4.2341 2.51908L4.96522 0.593758L6.59555 1.89151C7.13188 2.31865 7.74477 2.5976 8.39621 2.5976C9.26855 2.5976 10.1322 2.17923 10.6719 1.66555L11.7215 0.667048L12.7714 1.66555C13.3113 2.17923 14.175 2.5976 15.047 2.5976C15.6977 2.5976 16.3111 2.31865 16.8473 1.89151L18.4778 0.593651L19.2088 2.51897C19.5243 3.34857 20.0495 3.87292 20.7719 4.07752L22.4304 4.54814L21.7255 6.08767C21.3705 6.86288 21.1011 7.81641 21.1011 8.89365C21.1017 10.2552 21.4615 11.0511 21.8083 11.8864Z" fill="white"/>
<path d="M21.3911 5.01773C21.3911 5.01773 18.8315 4.8032 18.1379 1.81111C18.1379 1.81111 16.6031 3.3312 15.0472 3.3312C13.0416 3.3312 11.7216 1.69177 11.7216 1.69177C11.7216 1.69177 10.4016 3.3312 8.39595 3.3312C6.83995 3.3312 5.30517 1.81111 5.30517 1.81111C4.61151 4.80352 2.05151 5.01773 2.05151 5.01773C2.05151 5.01773 3.09295 6.78942 3.09295 8.88728C3.09295 9.16282 3.07851 9.41688 3.05339 9.65587C2.83284 11.7515 1.75439 12.5921 1.75439 14.8038C1.75439 17.5172 3.6875 20.3658 7.21684 21.2244C8.89384 21.6317 10.0513 21.7356 10.9035 22.0314C11.0125 22.1295 11.7217 22.8686 11.7217 22.8686C11.7217 22.8686 12.4307 22.1295 12.5396 22.0314C13.3918 21.7356 14.5495 21.6318 16.2259 21.2244C19.7556 20.3658 21.6885 17.5175 21.6885 14.8038C21.6885 12.3404 20.3502 11.5786 20.3502 8.88739C20.3498 6.78942 21.3911 5.01773 21.3911 5.01773ZM20.9363 14.8039C20.9363 17.9404 18.3946 19.9371 16.0381 20.5124C14.1718 20.9676 12.9519 21.0199 12.1325 21.3998C12.1325 21.3998 11.8342 21.6618 11.7216 21.7825C11.6085 21.6618 11.3107 21.3998 11.3107 21.3998C10.4912 21.0199 9.27139 20.9676 7.40506 20.5124C5.04862 19.9367 2.50662 17.9405 2.50662 14.8039C2.50662 12.5608 3.84584 11.7371 3.84584 8.8875C3.84584 6.96741 3.09095 5.48782 3.09095 5.48782C3.09095 5.48782 4.83306 5.14989 5.64462 3.02949C5.64462 3.02949 6.80051 4.06688 8.39617 4.06688C10.3946 4.06688 11.7218 2.71763 11.7218 2.71763C11.7218 2.71763 13.0488 4.06688 15.0474 4.06688C16.6428 4.06688 17.7986 3.02949 17.7986 3.02949C18.6104 5.14989 20.3526 5.48782 20.3526 5.48782C20.3526 5.48782 19.5974 6.96752 19.5974 8.8875C19.5969 11.7371 20.9363 12.5608 20.9363 14.8039Z" fill="white"/>
<path d="M15.0471 4.88879C13.5546 4.88879 12.3881 4.26283 11.7214 3.79156C11.0543 4.26283 9.88809 4.88879 8.39586 4.88879C7.41064 4.88879 6.57198 4.56827 5.98087 4.25001C5.43064 5.13323 4.74031 5.64659 4.1902 5.93665C4.42665 6.61731 4.70109 7.66913 4.70109 8.88718C4.70109 11.233 3.86798 12.3317 3.51587 13.6596L15.7344 4.83697C15.5152 4.86998 15.2854 4.88879 15.0471 4.88879Z" fill="white"/>
<path d="M18.7414 8.88757C18.7414 7.66951 19.0162 6.61759 19.2524 5.93703C18.7817 5.68842 18.2069 5.27613 17.7069 4.6084L3.3645 14.9648C3.43306 17.0015 4.80206 18.4844 6.3655 19.2571L18.8447 10.2461C18.7804 9.84131 18.7414 9.39366 18.7414 8.88757ZM9.74139 15.9049L8.63161 16.7058L7.43472 14.9437V17.5707L6.38483 18.3286V14.6133C6.38483 14.0884 5.86372 14.0744 5.86372 14.0744L7.35183 12.9999L8.69172 14.9729V12.0323L9.74161 11.2742V15.9049H9.74139ZM13.9755 12.8477L12.9491 13.5891V11.8959L11.7644 12.7508V14.4445L10.6857 15.2233V11.5077C10.6857 10.9827 10.1646 10.9687 10.1646 10.9687L11.7644 9.81363V11.525L12.9491 10.6699V8.95893L13.9755 8.21673V12.8477ZM17.8494 10.0504L14.8715 12.2007V8.48543C14.8715 7.96011 14.3504 7.94622 14.3504 7.94622L15.9499 6.7912V10.2399L17.8495 8.86876C17.8494 8.86876 17.7848 9.30936 17.8494 10.0504Z" fill="white"/>
<path d="M7.44824 19.6714C7.50402 19.6866 7.56002 19.7016 7.61569 19.7146C9.09402 20.076 10.9021 20.2621 11.448 20.5622C11.5712 20.6489 11.722 20.8026 11.722 20.8026C11.722 20.8026 11.8725 20.6489 11.9956 20.5622C12.5419 20.2621 14.3499 20.076 15.8283 19.7146C17.8763 19.2136 20.0818 17.4645 20.0818 14.8036C20.0818 13.4773 19.4768 12.6043 19.0798 11.272L7.44824 19.6714Z" fill="white"/>
</g>
<defs>
<clipPath id="clip0">
<rect width="23.3333" height="25" fill="white" transform="translate(0.0258789)"/>
</clipPath>
</defs>
</svg>
