<svg viewBox="0 0 61 25" fill="none" xmlns="http://www.w3.org/2000/svg">
<path d="M59.3714 13.4816C55.5938 9.64053 51.0785 6.58683 46.0913 4.5003C41.1111 2.42419 35.7609 1.3586 30.3576 1.36656C24.9552 1.35809 19.6059 2.42309 14.6264 4.49855C9.6392 6.58461 5.12364 9.63769 1.34551 13.4781L0.358887 12.528C4.26625 8.55764 8.93584 5.40137 14.0929 3.24488C19.2409 1.09699 24.7715 -0.00639 30.3576 2.78368e-05C36.1218 2.78368e-05 41.6184 1.15484 46.6248 3.24663C51.7825 5.40289 56.4522 8.55986 60.3589 12.5315L59.3714 13.4816ZM47.63 24.9895C45.4317 22.6136 42.7593 20.7157 39.7821 19.4158C36.8108 18.1232 33.6002 17.4581 30.3549 17.4631C26.9967 17.4631 23.8063 18.1621 20.9215 19.4193C17.9427 20.7205 15.2696 22.621 13.0719 25L12.0534 24.0753C14.3814 21.5574 17.2124 19.5464 20.3668 18.17C23.5142 16.7977 26.9161 16.0912 30.3549 16.0957C33.903 16.0957 37.2807 16.8358 40.3359 18.1665C43.4876 19.5418 46.3162 21.551 48.6422 24.0665L47.63 24.9895Z" fill="white"/>
<path fill-rule="evenodd" clip-rule="evenodd" d="M11.1598 9.49839L14.1629 13.3478C15.9163 15.5962 14.9756 17.5551 13.0968 18.9933C11.1086 20.5156 8.95779 20.6985 7.32019 18.6005L4.30908 14.7406L6.01734 13.4335L9.05936 17.3328C9.81986 18.3083 10.9911 18.3494 11.9751 17.5962C12.8795 16.9041 13.3486 15.7983 12.4017 14.5857L9.4533 10.8063L11.1598 9.49839ZM27.867 12.8841L21.6249 14.2078L19.8098 5.82481L25.9671 4.51951L26.2992 6.05578L22.2529 6.91315L22.6327 8.67164L26.4926 7.85363L26.8256 9.38903L22.9657 10.2079L23.4012 12.2245L27.5349 11.3479L27.867 12.8841ZM40.6083 7.18349L36.8703 6.4626L36.5011 8.33831L40.2391 9.05745L39.9379 10.6007L36.199 9.88158L35.5215 13.3364L33.4025 12.9296L35.0534 4.51251L40.9104 5.64022L40.6083 7.18349ZM49.9782 16.108L47.7876 14.6041L50.7484 12.5823L49.9782 16.108ZM52.9283 11.5867L50.8738 10.1755L43.0727 15.2506L44.9497 16.5411L46.4574 15.5105L49.639 17.6959L49.2477 19.492L51.1556 20.8043L52.9283 11.5867Z" fill="white"/>
</svg>
