<svg viewBox="0 0 34 25" fill="none" xmlns="http://www.w3.org/2000/svg">
<g clip-path="url(#clip0)">
<path d="M27.1933 15.1613C27.1933 15.754 26.711 16.2347 26.1159 16.2347C25.5209 16.2347 25.0386 15.754 25.0386 15.1613C25.0386 14.5685 25.5209 14.0878 26.1159 14.0878C26.711 14.0878 27.1933 14.5685 27.1933 15.1613Z" fill="#F3ED0E"/>
<path fill-rule="evenodd" clip-rule="evenodd" d="M1.64157 11.0963C3.45275 7.15577 7.58814 3.67268 12.7042 1.77837C15.3274 0.807181 18.1015 0.293884 20.7273 0.293884C26.5473 0.293884 31.1347 2.73897 32.7012 6.67506C33.5868 8.90098 33.4472 11.4011 32.2962 13.9044C30.485 17.8446 26.3496 21.3276 21.234 23.2215C18.6104 24.1931 15.8358 24.706 13.2105 24.706C7.39091 24.706 2.80304 22.261 1.23703 18.3257C0.351413 16.0994 0.491025 13.5997 1.64157 11.0963ZM22.4093 8.78133C22.9543 8.80781 23.3601 9.16793 23.3601 9.70201C23.3601 10.2349 22.9358 10.6235 22.4 10.6382C22.3575 10.641 22.3323 10.6426 22.2259 10.6426C22.0602 10.6422 19.7554 10.6439 19.7554 10.6439V15.0639L19.7486 15.2118C19.7272 15.7683 19.3462 16.1932 18.7894 16.1932C18.2512 16.1932 17.8281 15.7565 17.813 15.2138L17.8063 15.0708L17.8058 10.6398L15.3353 10.6394C15.3353 10.6394 13.2146 15.2737 13.1477 15.4069C13.0863 15.5291 13.0313 15.6261 13.0031 15.6673C12.7827 15.987 12.5851 16.1911 12.1734 16.1911C11.7756 16.1911 11.5372 15.9887 11.3462 15.6725C11.2836 15.5691 11.2495 15.508 11.2134 15.4371C11.1776 15.367 9.64608 12.0114 9.64608 12.0114L8.1402 15.3116C8.1402 15.3116 8.04432 15.5226 7.99302 15.6114C7.76594 16.0033 7.46989 16.1911 7.10614 16.1911C6.75501 16.1911 6.45686 15.987 6.2466 15.6143C6.24239 15.6069 6.23817 15.5994 6.23394 15.592C6.19499 15.5234 6.15505 15.4531 6.1175 15.3678C5.91677 14.9301 5.41277 13.8325 4.91934 12.7579C4.4421 11.7186 3.97474 10.7008 3.80128 10.3224C3.76065 10.2335 3.75142 10.2103 3.73416 10.167L3.73231 10.1623C3.53425 9.67267 3.64863 9.38384 3.73399 9.23922C3.90388 8.9508 4.23483 8.75281 4.58512 8.77277C5.0641 8.79925 5.3122 9.06487 5.52036 9.5028L5.59143 9.63723L7.10488 12.9423C7.10488 12.9423 8.56072 9.75456 8.61581 9.64049C8.67089 9.52643 8.70958 9.44862 8.70958 9.44862C8.98544 8.91821 9.28023 8.77196 9.6444 8.77196C10.0334 8.77196 10.3399 8.97483 10.5838 9.46858C10.5838 9.46858 10.6335 9.56309 10.6839 9.67593C10.7369 9.79326 12.1747 12.9443 12.1747 12.9443L13.763 9.46898C13.763 9.46898 13.7991 9.38629 13.8576 9.28689C14.0186 8.97565 14.2991 8.78011 14.6864 8.77359L14.6935 8.77347C14.7593 8.77234 14.7816 8.77196 14.9059 8.77196L22.2259 8.77155C22.3156 8.77155 22.384 8.77872 22.4036 8.78078C22.4069 8.78113 22.4088 8.78133 22.4093 8.78133ZM30.0207 14.4757L30.0816 14.584L30.0834 14.5872C30.2063 14.8104 30.3163 15.0101 30.3163 15.2493C30.3163 15.7834 29.8941 16.1883 29.3605 16.1895C29.0081 16.1899 28.707 15.9756 28.4854 15.6363L28.4172 15.5312L26.1296 11.5548L23.8395 15.5137L23.7545 15.6453C23.53 15.9781 23.2381 16.1899 22.8853 16.1895C22.3521 16.1883 21.9307 15.7793 21.9307 15.2452C21.9307 15.0049 22.0266 14.8289 22.1511 14.6015L22.2448 14.4427L25.1902 9.45228L25.289 9.30237C25.4934 8.98094 25.7612 8.77318 26.1292 8.76544H26.1296C26.4976 8.77318 26.7566 8.97239 26.961 9.28485L27.056 9.43151L30.0207 14.4757Z" fill="#C755FF"/>
</g>
<defs>
<clipPath id="clip0">
<rect width="33.3333" height="25" fill="white" transform="translate(0.358887)"/>
</clipPath>
</defs>
</svg>
