<svg width="32" height="32" viewBox="0 0 32 32" fill="none" xmlns="http://www.w3.org/2000/svg">
<g clip-path="url(#clip0_21320_1653)">
<path d="M17.8646 5.22669C17.8646 5.76306 17.8646 6.26976 17.8646 6.77647C17.8646 7.95411 17.8646 9.13176 17.8646 10.3094C17.8646 10.6822 17.6715 10.8691 17.2853 10.8703C13.7831 10.8703 10.2828 10.8703 6.78063 10.8703C6.40489 10.8703 6.21642 11.0636 6.21529 11.4503C6.21529 12.5267 6.22921 13.603 6.20653 14.6792C6.19778 15.0637 6.31822 15.1772 6.70038 15.1755C9.83957 15.1615 12.977 15.1685 16.1162 15.1685C16.3029 15.1685 16.4878 15.1685 16.7094 15.1685V20.8191C16.5123 20.8295 16.3133 20.8505 16.1162 20.8505C13.0067 20.8522 9.89714 20.8505 6.78762 20.8522C6.21529 20.8522 6.21353 20.854 6.21353 21.4306C6.21353 22.4632 6.22921 23.4958 6.20477 24.5284C6.19608 24.9198 6.32691 25.0177 6.70384 25.0159C10.2339 25.0037 13.7657 25.0089 17.2957 25.0089C17.6738 25.0089 17.8628 25.2006 17.8628 25.5838C17.8628 27.1842 17.8506 28.783 17.8716 30.3835C17.8768 30.7766 17.7477 30.8692 17.3725 30.8692C11.7503 30.8587 6.12629 30.857 0.504012 30.8692C0.0956898 30.8692 -0.000282288 30.7416 -0.000282288 30.3503C0.0101866 22.1347 0.00669703 13.9174 0.00669703 5.70196C0.00669703 5.55693 0.00669703 5.41367 0.00669703 5.22845H17.8646V5.22669Z" fill="#F72442" style="fill:#F72442;fill:color(display-p3 0.9686 0.1412 0.2588);fill-opacity:1;"/>
<path d="M31.9995 6.55105C31.9972 9.449 29.5131 11.9356 26.623 11.9379C23.694 11.9379 21.2009 9.45133 21.1917 6.5396C21.1826 3.85194 23.3405 1.14824 26.607 1.12996C29.7367 1.11396 32.0178 3.73998 31.9995 6.55105Z" fill="#F72442" style="fill:#F72442;fill:color(display-p3 0.9686 0.1412 0.2588);fill-opacity:1;"/>
</g>
<defs>
<clipPath id="clip0_21320_1653">
<rect width="32" height="32" fill="white" style="fill:white;fill-opacity:1;"/>
</clipPath>
</defs>
</svg>
