<svg width="24" height="24" viewBox="0 0 24 24" fill="none" xmlns="http://www.w3.org/2000/svg">
<g clip-path="url(#clip0_16858_15452)">
<path d="M12 0C12.6447 0 13.2527 0 13.8265 0.00260144C14.1114 2.74446 14.6233 5.56629 15.1257 8.33544C15.459 10.1731 15.7942 11.9875 16.05 13.74C16.3012 11.9843 16.6177 10.1687 16.9442 8.33074C17.4258 5.62008 17.916 2.86072 18.1988 0.172883C20.04 0.374502 21.2965 0.811255 22.2426 1.75736C24 3.51472 24 6.34315 24 12C24 17.6569 24 20.4853 22.2426 22.2426C20.4853 24 17.6569 24 12 24C11.3553 24 10.7473 24 10.1735 23.9974C9.88858 21.2555 9.37668 18.4337 8.87433 15.6646C8.54097 13.8269 8.21182 12.0125 7.956 10.26C7.70478 12.0157 7.38226 13.8313 7.05576 15.6693C6.57423 18.3799 6.08405 21.1393 5.8012 23.8271C3.96 23.6255 2.70346 23.1887 1.75736 22.2426C0 20.4853 0 17.6569 0 12C0 6.34315 0 3.51472 1.75736 1.75736C3.51472 0 6.34315 0 12 0Z" fill="url(#paint0_linear_16858_15452)"/>
<path d="M4.75358 23.6707C3.47214 23.4246 2.52432 22.9944 1.77252 22.2426C1.36166 21.8317 1.04687 21.3624 0.805664 20.812C1.06164 19.0984 1.36793 17.3742 1.6708 15.6692C1.9973 13.8313 2.31982 12.0157 2.57104 10.26C2.82686 12.0125 3.15601 13.8269 3.48937 15.6646C3.97179 18.3239 4.46301 21.0317 4.75358 23.6707Z" fill="url(#paint1_linear_16858_15452)"/>
<path d="M15.5864 23.9765C14.5394 24 13.3569 24 12.0152 24C11.7361 24 11.4639 24 11.1984 23.9997C11.4781 21.2575 11.979 18.438 12.4708 15.6693C12.7973 13.8313 13.1198 12.0157 13.371 10.26C13.6269 12.0125 13.956 13.8269 14.2894 15.6645L14.2894 15.6646C14.7904 18.4267 15.301 21.2412 15.5864 23.9765Z" fill="url(#paint2_linear_16858_15452)"/>
<path d="M20.8972 23.1782C19.8308 23.6638 18.4563 23.8625 16.6041 23.9437C16.8849 21.2191 17.3823 18.4191 17.8708 15.6693L17.8708 15.6692C18.1973 13.8312 18.5198 12.0157 18.771 10.26C19.0269 12.0125 19.356 13.8269 19.6894 15.6646C20.1418 18.1586 20.602 20.6955 20.8972 23.1782Z" fill="url(#paint3_linear_16858_15452)"/>
<path d="M24.015 11.3027C24.0152 11.5303 24.0152 11.7626 24.0152 12C24.0152 17.6568 24.0152 20.4852 22.2578 22.2426C22.2375 22.2629 22.2171 22.2829 22.1965 22.3027C22.4833 20.1024 22.8799 17.8698 23.2708 15.6693L23.2708 15.6692C23.5331 14.1928 23.7928 12.7308 24.015 11.3027Z" fill="url(#paint4_linear_16858_15452)"/>
<path d="M1.83376 1.69723C1.81319 1.71704 1.79277 1.73708 1.7725 1.75736C0.0151367 3.51472 0.0151367 6.34315 0.0151367 12C0.0151367 12.2373 0.0151367 12.4697 0.0152665 12.6972C0.237511 11.2691 0.497221 9.8071 0.759498 8.33067C1.1504 6.13018 1.547 3.89759 1.83376 1.69723Z" fill="url(#paint5_linear_16858_15452)"/>
<path d="M19.2767 0.329229C20.5581 0.575377 21.506 1.00556 22.2578 1.75736C22.6686 2.16821 22.9834 2.6376 23.2246 3.18799C22.9687 4.90155 22.6624 6.62575 22.3595 8.33069L22.3595 8.33076C22.033 10.1687 21.7105 11.9843 21.4593 13.7399C21.2034 11.9875 20.8743 10.173 20.5409 8.33533C20.0585 5.67606 19.5673 2.96819 19.2767 0.329229Z" fill="url(#paint6_linear_16858_15452)"/>
<path d="M8.44392 0.0234479C9.49085 2.23517e-08 10.6734 0 12.0151 0C12.2942 0 12.5664 0 12.8319 0.000211024C12.5522 2.74243 12.0513 5.56195 11.5595 8.33068C11.233 10.1686 10.9105 11.9842 10.6593 13.7399C10.4034 11.9875 10.0743 10.173 9.74092 8.33538C9.23985 5.57327 8.72928 2.75875 8.44392 0.0234479Z" fill="url(#paint7_linear_16858_15452)"/>
<path d="M3.13313 0.821779C4.19952 0.336143 5.574 0.137497 7.42619 0.0562421C7.14538 2.78083 6.64799 5.58081 6.1595 8.33068L6.15948 8.33075C5.83299 10.1687 5.51047 11.9842 5.25925 13.7399C5.00343 11.9875 4.67428 10.173 4.34092 8.33538C3.88847 5.84128 3.42827 3.30443 3.13313 0.821779Z" fill="url(#paint8_linear_16858_15452)"/>
</g>
<defs>
<linearGradient id="paint0_linear_16858_15452" x1="24.0916" y1="-7.60305" x2="5.62442" y2="34.8276" gradientUnits="userSpaceOnUse">
<stop stop-color="#C8AF70"/>
<stop offset="1" stop-color="#382F17"/>
</linearGradient>
<linearGradient id="paint1_linear_16858_15452" x1="24.195" y1="23.79" x2="24.195" y2="10.26" gradientUnits="userSpaceOnUse">
<stop stop-color="#FFE5BF" stop-opacity="0"/>
<stop offset="1" stop-color="#FFE5BF"/>
</linearGradient>
<linearGradient id="paint2_linear_16858_15452" x1="24.195" y1="23.79" x2="24.195" y2="10.26" gradientUnits="userSpaceOnUse">
<stop stop-color="#FFE5BF" stop-opacity="0"/>
<stop offset="1" stop-color="#FFE5BF"/>
</linearGradient>
<linearGradient id="paint3_linear_16858_15452" x1="24.195" y1="23.79" x2="24.195" y2="10.26" gradientUnits="userSpaceOnUse">
<stop stop-color="#FFE5BF" stop-opacity="0"/>
<stop offset="1" stop-color="#FFE5BF"/>
</linearGradient>
<linearGradient id="paint4_linear_16858_15452" x1="24.195" y1="23.79" x2="24.195" y2="10.26" gradientUnits="userSpaceOnUse">
<stop stop-color="#FFE5BF" stop-opacity="0"/>
<stop offset="1" stop-color="#FFE5BF"/>
</linearGradient>
<linearGradient id="paint5_linear_16858_15452" x1="-0.164746" y1="0.209941" x2="-0.164746" y2="13.7399" gradientUnits="userSpaceOnUse">
<stop stop-color="#FFE5BF" stop-opacity="0"/>
<stop offset="1" stop-color="#FFE5BF"/>
</linearGradient>
<linearGradient id="paint6_linear_16858_15452" x1="-0.164746" y1="0.209941" x2="-0.164746" y2="13.7399" gradientUnits="userSpaceOnUse">
<stop stop-color="#FFE5BF" stop-opacity="0"/>
<stop offset="1" stop-color="#FFE5BF"/>
</linearGradient>
<linearGradient id="paint7_linear_16858_15452" x1="-0.164746" y1="0.209941" x2="-0.164746" y2="13.7399" gradientUnits="userSpaceOnUse">
<stop stop-color="#FFE5BF" stop-opacity="0"/>
<stop offset="1" stop-color="#FFE5BF"/>
</linearGradient>
<linearGradient id="paint8_linear_16858_15452" x1="-0.164746" y1="0.209941" x2="-0.164746" y2="13.7399" gradientUnits="userSpaceOnUse">
<stop stop-color="#FFE5BF" stop-opacity="0"/>
<stop offset="1" stop-color="#FFE5BF"/>
</linearGradient>
<clipPath id="clip0_16858_15452">
<rect width="24" height="24" rx="6" fill="white"/>
</clipPath>
</defs>
</svg>
