<svg width="16" height="16" viewBox="0 0 16 16" fill="none" xmlns="http://www.w3.org/2000/svg">
<path d="M5.34265 4.046C5.64295 4.40483 5.99557 4.85527 5.82251 5.92414L5.35172 8.44613L5.43824 10.477C5.45606 11.1997 5.80216 11.5255 6.41293 11.5255H7.94497C8.43105 11.5255 8.62702 11.1539 8.82297 10.6857L9.99107 7.80228L10.1107 10.5559C10.1209 11.1666 10.4313 11.528 10.9912 11.528H12.7371C13.2333 11.528 13.4394 11.2277 13.6582 10.6908L15.8876 5.1683C16.1294 4.59569 15.9895 4.04346 15.3862 4.04346H14.264C13.8467 4.04346 13.5692 4.18597 13.4038 4.58298L11.8998 8.28327L11.7623 4.98252C11.7394 4.28012 11.4035 4.046 11.0141 4.046H9.87655C9.42611 4.046 9.16398 4.22159 9.02401 4.56516L7.51234 8.28581L7.37745 4.90363C7.3571 4.26995 7.14843 4.046 6.63943 4.046H5.6571C5.6385 4.046 5.34265 4.046 5.34265 4.046Z" fill="#D0D0D0"/>
<path fill-rule="evenodd" clip-rule="evenodd" d="M4.44285 4.22978C4.88312 4.55043 5.12997 5.02125 4.9951 5.69309L4.12473 10.3477C3.99749 11.1061 3.2671 11.6049 2.50873 11.4624C1.7936 11.325 1.2668 10.6531 1.40932 9.84639L1.90303 7.15133L1.5951 7.2913C1.02504 7.54834 0.353184 7.2913 0.0986943 6.71615C-0.155796 6.14099 0.0986943 5.4666 0.668754 5.20701L2.9668 4.18652C3.50888 3.91421 4.02549 3.94984 4.44285 4.22978Z" fill="#D0D0D0"/>
</svg>
