<svg width="32" height="32" viewBox="0 0 32 32" fill="none" xmlns="http://www.w3.org/2000/svg">
<g id="MPlay/color-on-light/small" clip-path="url(#clip0_21368_627)">
<path id="Vector" d="M26.8088 7.60402C29.8406 8.17658 31.1157 11.8165 29.1039 14.1559L14.9587 30.6046C12.9469 32.944 9.15707 32.2283 8.13699 29.3164L0.964585 8.84183C-0.0554908 5.92989 2.45923 3.00567 5.49108 3.57823L26.8088 7.60402Z" fill="#FE346E"/>
<path id="Vector_2" d="M29.2621 11.8848C31.9342 13.4275 31.9342 17.2843 29.2621 18.827L9.61752 30.1688C6.94545 31.7116 3.60536 29.7832 3.60536 26.6977L3.60536 4.01409C3.60536 0.928649 6.94545 -0.999757 9.61752 0.542963L29.2621 11.8848Z" fill="#2C003D"/>
<path id="Vector_3" d="M22.2987 22.8479V15.9827C22.2987 15.4455 22.2077 14.9906 22.0258 14.618C21.8525 14.2454 21.5968 13.9638 21.2589 13.7732C20.9296 13.5825 20.518 13.4872 20.0241 13.4872C19.5389 13.4872 19.1143 13.5955 18.7504 13.8121C18.3951 14.0288 18.1178 14.332 17.9185 14.722C17.7279 15.1119 17.6326 15.5668 17.6326 16.0867V24.5741H13.9673V15.8658C13.9673 15.3632 13.8763 14.9343 13.6943 14.579C13.5124 14.2237 13.2524 13.9551 12.9145 13.7732C12.5852 13.5825 12.1823 13.4872 11.7057 13.4872C11.2291 13.4872 10.8089 13.5999 10.4449 13.8251C10.081 14.0504 9.79507 14.3667 9.5871 14.774C9.38781 15.1726 9.28816 15.6318 9.28816 16.1517V24.5741H5.49287V10.6277H9.28816V12.9673H9.37914C9.65642 12.1701 10.1417 11.5332 10.8349 11.0567C11.5281 10.5801 12.3426 10.3418 13.2784 10.3418C13.9283 10.3418 14.5132 10.4544 15.0331 10.6797C15.553 10.8964 15.9906 11.2213 16.3458 11.6545C16.7098 12.0791 16.9697 12.5947 17.1257 13.2013H17.2037C17.4116 12.6207 17.7236 12.1181 18.1395 11.6935C18.5641 11.2603 19.0623 10.9267 19.6342 10.6927C20.2148 10.4588 20.8473 10.3418 21.5319 10.3418C22.4417 10.3418 23.2389 10.5368 23.9234 10.9267C24.6079 11.3166 25.1408 11.8625 25.5221 12.5644C25.9034 13.2662 26.094 14.0894 26.094 15.0339V20.6567L22.2987 22.8479Z" fill="white"/>
</g>
<defs>
<clipPath id="clip0_21368_627">
<rect width="32" height="32" fill="white"/>
</clipPath>
</defs>
</svg>
