<svg width="32" height="32" viewBox="0 0 32 32" fill="none" xmlns="http://www.w3.org/2000/svg">
<g clip-path="url(#clip0_21320_1834)">
<path fill-rule="evenodd" clip-rule="evenodd" d="M8.25521 25.8662C7.99192 25.8662 7.72863 25.761 7.62333 25.5506C7.46535 25.3402 7.41266 25.0771 7.51803 24.8142L12.7836 9.76929H6.67549C6.25425 9.76929 5.88566 9.40108 5.88566 8.98025L5.83301 2.56251C5.83301 2.35209 5.88567 2.14167 6.04363 1.98386C6.2016 1.82604 6.4122 1.77344 6.62287 1.77344H24.3152C24.5785 1.77344 24.8418 1.87865 24.9471 2.08906C25.1051 2.29949 25.1577 2.56251 25.0524 2.82553L17.0487 25.3402C16.9434 25.6558 16.6275 25.8662 16.3115 25.8662H8.25521Z" fill="#E4007C" style="fill:#E4007C;fill:color(display-p3 0.8941 0.0000 0.4863);fill-opacity:1;"/>
<path d="M25.7797 1.49148C25.4642 1.01733 24.9384 0.753906 24.3601 0.753906H6.69392C6.2207 0.753906 5.7475 0.964644 5.43203 1.28075C5.11656 1.59686 4.90625 2.07101 4.90625 2.54517L4.95883 8.97267C4.95883 9.97364 5.7475 10.7639 6.74648 10.7639H11.4259L6.6413 24.5145C6.43102 25.0413 6.53619 25.6736 6.85165 26.1477C7.16712 26.6219 7.74548 26.8853 8.32379 26.8853H16.3683C17.1044 26.8853 17.7878 26.4112 18.0507 25.6736L26.0426 3.1247C26.2003 2.59786 26.1477 1.96565 25.7797 1.49148ZM24.0972 2.75591L16.2105 24.936H8.5867L14.2125 8.81462H6.90421V2.75591H24.0972Z" fill="#383367" style="fill:#383367;fill:color(display-p3 0.2196 0.2000 0.4039);fill-opacity:1;"/>
<path d="M32 27.7335C32 27.608 31.9686 27.0119 31.6862 26.3845C31.5922 26.1962 31.498 26.0394 31.4039 25.8825C31.4666 25.7256 31.498 25.5688 31.498 25.4119V23.5609C31.498 22.9649 31.0274 22.4629 30.4 22.4629H26.8549C26.8235 22.4629 26.8235 22.4629 26.7921 22.4629C26.6667 22.4629 26.1019 22.5257 25.5059 22.9021C25.2549 23.0589 25.0353 23.2472 24.8471 23.4982C24.5019 23.2159 24.1255 22.9962 23.7177 22.808C23.1843 22.5884 22.6196 22.4629 22.0235 22.4629C21.4275 22.4629 20.8627 22.5884 20.3294 22.808C20.1098 22.9021 19.9216 22.9962 19.7333 23.1217C19.5765 22.7453 19.2 22.4943 18.7608 22.4943H16.4706C15.8745 22.4943 15.3726 22.9649 15.3726 23.5923V24.3766C15.2157 24.157 15.0588 23.9374 14.8706 23.7491C14.4628 23.3413 13.9922 23.0276 13.4902 22.808C12.9568 22.5884 12.3922 22.4629 11.7961 22.4629C11.2 22.4629 10.6353 22.5884 10.1019 22.808C9.88234 22.9021 9.66274 23.0276 9.44313 23.1531C9.28629 22.7453 8.87846 22.4943 8.43924 22.4943H6.14902C5.70981 22.4943 5.39608 22.7766 5.1451 23.1217C5.05098 23.2472 4.8 23.6237 4.8 23.6237L4.23529 22.9021C4.01569 22.6197 3.70196 22.4629 3.38824 22.4629H1.09804C0.501961 22.4629 0 22.9335 0 23.5609V30.1178C0 30.7139 0.470588 31.2158 1.09804 31.2158H3.38824C3.98431 31.2158 4.48627 30.7452 4.48627 30.1178V29.71C4.58039 29.7414 4.70588 29.7727 4.8 29.7727C4.89412 29.7727 4.98824 29.7727 5.05098 29.7414V30.1178C5.05098 30.7139 5.52157 31.2158 6.14902 31.2158H8.43924C8.90977 31.2158 9.31767 30.9021 9.44313 30.4942C9.63136 30.6198 9.85096 30.7452 10.0706 30.8394C10.6039 31.059 11.1686 31.1845 11.7647 31.1845C12.3608 31.1845 12.9255 31.059 13.4588 30.8394C13.647 30.7452 13.8353 30.6825 13.9922 30.557C14.149 30.9335 14.5568 31.2158 14.996 31.2158H16.3137C16.5647 31.2158 17.4118 31.0904 18.1961 30.557C18.4784 30.3688 18.7294 30.1492 18.949 29.8982C18.949 29.8982 18.949 29.8982 18.9804 29.9296C19.3882 30.3374 19.8588 30.6512 20.3608 30.8708C20.8941 31.0904 21.4588 31.2158 22.0549 31.2158C22.651 31.2158 23.2157 31.0904 23.749 30.8708C24.0941 30.7139 24.4392 30.5256 24.7215 30.306C24.7843 30.8394 25.2549 31.2472 25.7883 31.2472H29.3333C29.3647 31.2472 29.3647 31.2472 29.3961 31.2472C29.5216 31.2472 30.0863 31.1845 30.6824 30.808C31.0588 30.557 31.3726 30.2433 31.5922 29.8668C31.8432 29.4276 32 28.8942 32 28.2982V27.7335Z" fill="#383367" style="fill:#383367;fill:color(display-p3 0.2196 0.2000 0.4039);fill-opacity:1;"/>
<path fill-rule="evenodd" clip-rule="evenodd" d="M16.4702 23.5615H18.7604V27.138C18.7604 29.836 16.4388 30.1184 16.3134 30.1184H14.9957V27.7654H15.9996C15.9996 27.7654 16.4388 27.734 16.4388 26.9498L16.4702 23.5615ZM29.333 25.9144H27.9526C27.9526 25.9144 27.7016 25.8831 27.7016 25.6634C27.7016 25.4438 27.9839 25.4125 27.9839 25.4125H30.431V23.5615H26.8859C26.8859 23.5615 25.3173 23.6556 25.3173 25.4125C25.3173 27.6086 26.4781 27.734 26.8859 27.734H28.2663C28.2663 27.734 28.5173 27.7654 28.5173 27.985C28.5173 28.2046 28.2349 28.236 28.2349 28.236H25.7879V30.087H29.333C29.333 30.087 30.9016 29.9929 30.9016 28.236V27.7654C30.9016 27.7654 30.8702 25.9144 29.333 25.9144ZM4.79962 25.4125L3.38786 23.5615H1.09766V30.1184H3.38786V26.887L4.79962 28.7066L6.14864 26.9811V30.1184H8.43885V23.5615H6.14864L4.79962 25.4125ZM15.0584 26.8242C15.0584 28.6125 13.5839 30.087 11.7957 30.087C9.9761 30.087 8.53294 28.6125 8.53294 26.8242C8.53294 25.036 10.0075 23.5615 11.7957 23.5615C13.5839 23.5615 15.0584 25.036 15.0584 26.8242ZM12.7055 26.8556C12.7055 26.3536 12.2977 25.9144 11.7957 25.9144C11.2937 25.9144 10.8545 26.3223 10.8545 26.8556C10.8545 27.3576 11.2624 27.7654 11.7643 27.7968C12.2977 27.7654 12.7055 27.3576 12.7055 26.8556ZM25.3173 26.8242C25.3173 28.6125 23.8427 30.087 22.0545 30.087C20.2349 30.087 18.7918 28.6125 18.7918 26.8242C18.7918 25.036 20.2663 23.5615 22.0545 23.5615C23.8427 23.5615 25.3173 25.036 25.3173 26.8242ZM22.9643 26.8556C22.9643 26.3536 22.5565 25.9144 22.0545 25.9144C21.5525 25.9144 21.1133 26.3223 21.1133 26.8556C21.1133 27.3576 21.5212 27.7654 22.0231 27.7968C22.5565 27.7654 22.9643 27.3576 22.9643 26.8556Z" fill="url(#paint0_linear_21320_1834)" style=""/>
</g>
<defs>
<linearGradient id="paint0_linear_21320_1834" x1="15.9946" y1="24.0832" x2="15.9946" y2="30.4595" gradientUnits="userSpaceOnUse">
<stop offset="0.0644217" stop-color="#FFED2F" style="stop-color:#FFED2F;stop-color:color(display-p3 1.0000 0.9294 0.1843);stop-opacity:1;"/>
<stop offset="0.0953293" stop-color="#FEE222" style="stop-color:#FEE222;stop-color:color(display-p3 0.9961 0.8863 0.1333);stop-opacity:1;"/>
<stop offset="0.1547" stop-color="#FED30F" style="stop-color:#FED30F;stop-color:color(display-p3 0.9961 0.8275 0.0588);stop-opacity:1;"/>
<stop offset="0.2158" stop-color="#FDCA04" style="stop-color:#FDCA04;stop-color:color(display-p3 0.9922 0.7922 0.0157);stop-opacity:1;"/>
<stop offset="0.2809" stop-color="#FDC700" style="stop-color:#FDC700;stop-color:color(display-p3 0.9922 0.7804 0.0000);stop-opacity:1;"/>
<stop offset="0.6685" stop-color="#F08F34" style="stop-color:#F08F34;stop-color:color(display-p3 0.9412 0.5608 0.2039);stop-opacity:1;"/>
<stop offset="0.8876" stop-color="#E96131" style="stop-color:#E96131;stop-color:color(display-p3 0.9137 0.3804 0.1922);stop-opacity:1;"/>
<stop offset="1" stop-color="#E1312E" style="stop-color:#E1312E;stop-color:color(display-p3 0.8824 0.1922 0.1804);stop-opacity:1;"/>
</linearGradient>
<clipPath id="clip0_21320_1834">
<rect width="32" height="32" fill="white" style="fill:white;fill-opacity:1;"/>
</clipPath>
</defs>
</svg>
