<svg width="96" height="32" viewBox="0 0 96 32" fill="none" xmlns="http://www.w3.org/2000/svg">
<g clip-path="url(#clip0_20702_565)">
<path fill-rule="evenodd" clip-rule="evenodd" d="M8.98543 20.3177V18.7016H13.2507V20.5824C13.2507 22.3038 13.9158 23.165 15.2451 23.165H15.262C16.5791 23.165 17.2386 22.3066 17.2386 20.5908C17.2386 19.6103 16.9548 18.6914 16.3852 17.833C15.8166 16.9746 15.1364 16.1899 14.3448 15.4788L12.2071 13.2727C11.3237 12.501 10.5845 11.5448 9.98967 10.4049C9.39387 9.26416 9.09597 8.0013 9.09597 6.61634C9.09597 4.48485 9.65805 2.85011 10.7822 1.71027C11.9054 0.570431 13.4324 0.000976562 15.3613 0.000976562C17.2901 0.000976562 18.7712 0.570431 19.8054 1.70934C20.8397 2.84825 21.3568 4.48298 21.3568 6.61354V7.45887H17.4232V6.35724C17.4232 4.63024 16.7281 3.76627 15.3369 3.76627C13.9458 3.76627 13.2507 4.63117 13.2507 6.35911C13.2507 7.08234 13.4024 7.77202 13.705 8.42815C14.0076 9.08429 14.4001 9.67518 14.8826 10.2027C15.365 10.7293 15.8971 11.2503 16.4779 11.7647C17.0587 12.2801 17.633 12.8198 18.1988 13.3836C18.7647 13.9475 19.2883 14.5505 19.7689 15.1945C20.2485 15.8376 20.6392 16.5981 20.9408 17.4742C21.2425 18.3512 21.3933 19.3037 21.3933 20.3336C21.3933 22.4595 20.864 24.0905 19.8054 25.2266C18.7469 26.3627 17.2527 26.9312 15.3229 26.9312C13.3931 26.9312 11.8539 26.3618 10.7063 25.2229C9.55875 24.084 8.98543 22.4483 8.98543 20.3177Z" fill="black" style="fill:black;fill-opacity:1;"/>
<path fill-rule="evenodd" clip-rule="evenodd" d="M27.9113 12.9872H29.887C30.5634 12.9872 31.0711 12.7971 31.4102 12.4178C31.7484 12.0384 31.918 11.3953 31.918 10.4885V6.53961C31.918 5.63277 31.7484 4.99342 31.4102 4.61968C31.0711 4.24595 30.5634 4.05955 29.887 4.05955H27.9113V12.9872ZM23.7566 26.6355V0.294252H29.8776C34.0071 0.294252 36.0727 2.47048 36.0727 6.82201V10.2434C36.0727 14.5828 34.0089 16.7534 29.8823 16.7534H27.9113V26.6355H23.7566Z" fill="black" style="fill:black;fill-opacity:1;"/>
<path fill-rule="evenodd" clip-rule="evenodd" d="M42.1655 12.1617H43.7899C44.6274 12.1617 45.2522 11.9473 45.6644 11.5186C46.0766 11.0899 46.2827 10.3741 46.2827 9.36938V6.77935C46.2949 4.96753 45.5932 4.06069 44.1777 4.06069H42.1655V12.1617ZM38.0108 26.6366V0.294464H44.2798C46.4176 0.294464 47.9793 0.791222 48.962 1.78381C49.9456 2.77639 50.4374 4.30208 50.4374 6.36088V8.43738C50.4374 11.1458 49.5306 12.9287 47.7169 13.7862C49.5549 14.5588 50.4739 16.4274 50.4739 19.3931V23.6113C50.4739 24.9562 50.622 25.9646 50.917 26.6366H46.7052C46.4607 25.891 46.3324 24.8155 46.3202 23.4091V19.2831C46.3202 18.0855 46.1075 17.2262 45.6832 16.7071C45.2579 16.187 44.5656 15.9279 43.6053 15.9279H42.1655V26.6366H38.0108Z" fill="black" style="fill:black;fill-opacity:1;"/>
<path fill-rule="evenodd" clip-rule="evenodd" d="M53.2066 26.6364H57.3613V0.294252H53.2066V26.6364Z" fill="black" style="fill:black;fill-opacity:1;"/>
<path fill-rule="evenodd" clip-rule="evenodd" d="M64.5435 22.8702H66.9257C67.6518 22.8702 68.1932 22.6773 68.5501 22.2914C68.9071 21.9056 69.086 21.2354 69.086 20.2801V17.9837C69.086 16.7833 68.8799 15.951 68.4668 15.4859C68.0546 15.0199 67.3688 14.7878 66.4086 14.7878H64.5435V22.8702ZM64.5435 11.0216H66.1754C67.0157 11.0216 67.6433 10.8073 68.0574 10.3785C68.4724 9.94981 68.6794 9.23962 68.6794 8.24797V6.7782C68.6916 4.96639 67.9871 4.05955 66.5651 4.05955H64.5435V11.0216ZM60.3888 26.6364V0.294252H66.6672C68.8087 0.294252 70.3722 0.790079 71.3568 1.78173C72.3414 2.77338 72.8341 4.29814 72.8341 6.356V7.29267C72.8341 9.99921 71.9357 11.7691 70.138 12.6014C72.2065 13.4094 73.2398 15.2902 73.2398 18.2409V20.3901C73.2398 22.4228 72.7048 23.9727 71.6341 25.038C70.5624 26.1033 68.9933 26.6364 66.9257 26.6364H60.3888Z" fill="black" style="fill:black;fill-opacity:1;"/>
<path fill-rule="evenodd" clip-rule="evenodd" d="M75.7335 26.6364V0.294252H87.0706V4.06048H79.8882V11.3898H85.5933V15.1551H79.8882V22.8702H87.0706V26.6364H75.7335Z" fill="black" style="fill:black;fill-opacity:1;"/>
<path fill-rule="evenodd" clip-rule="evenodd" d="M8.8732 32.001H87.1286V28.3438H8.8732V32.001Z" fill="black" style="fill:black;fill-opacity:1;"/>
</g>
<defs>
<clipPath id="clip0_20702_565">
<rect width="96" height="32" fill="white" style="fill:white;fill-opacity:1;" transform="translate(0.000976562)"/>
</clipPath>
</defs>
</svg>
