<svg width="32" height="32" viewBox="0 0 32 32" fill="none" xmlns="http://www.w3.org/2000/svg">
<g clip-path="url(#clip0_21320_2061)">
<path d="M20.8814 13.7818C21.3153 13.1852 21.8034 12.5886 22.1831 12.0462H29.2339L32 8.52084H24.6237C26.1966 5.97171 26.9017 4.23612 26.4135 3.85646C26.3593 3.74799 26.1966 3.74799 25.9254 3.80223C25.383 3.96494 24.7322 4.45307 24.2441 4.77849C23.7559 5.15815 23.2136 5.59205 22.617 6.13442C21.3153 7.32763 21.3695 7.27339 22.5627 6.24289C23.2136 5.70052 23.7559 5.32086 24.1898 5.10391C24.2983 5.04968 24.4068 4.99544 24.5153 4.99544C24.678 4.9412 24.7864 4.9412 24.8407 4.99544C25.1661 5.26663 24.5695 6.56831 23.2678 8.46661C21.8034 10.6903 19.4712 13.7818 16.6509 17.0903L16.4339 17.3072C14.9153 19.0971 13.4509 20.7242 12.095 22.1886H20.8814V17.1988H28.6373L31.1864 13.8903L20.8814 13.7818Z" fill="#FFC20E" style="fill:#FFC20E;fill:color(display-p3 1.0000 0.7608 0.0549);fill-opacity:1;"/>
<path d="M16.7049 14.2154C16.8677 13.9984 17.0304 13.7273 17.1388 13.4018C17.2473 13.0764 17.3015 12.6968 17.3015 12.3171C17.3015 11.7205 17.1931 11.1239 16.9219 10.69C16.6507 10.2019 16.3253 9.8222 15.8372 9.49677C15.349 9.17135 14.8066 8.9544 14.1558 8.79169C13.4507 8.62898 12.7456 8.52051 11.9321 8.52051H2.76604L-4.57764e-05 12.1001H12.0948C12.4202 12.1001 12.6372 12.1544 12.9084 12.2629C13.1795 12.3713 13.288 12.6425 13.288 12.9679C13.288 13.3476 13.1795 13.5645 12.9084 13.673C12.6914 13.7815 12.4202 13.8357 12.0948 13.8357H8.78634H-4.57764e-05V22.1882H8.78634H9.5999C9.38295 22.4052 9.11177 22.7306 8.78634 23.0018C7.64737 24.1408 6.18297 25.5509 4.98976 26.2018C4.88128 26.256 4.77281 26.3102 4.66433 26.3645C4.44739 26.4729 4.28467 26.4729 4.1762 26.3645C3.68807 25.9306 5.74907 23.273 5.74907 23.273C4.23044 24.9001 2.60333 27.6119 3.30841 28.1543C3.41688 28.2628 3.68807 28.2628 3.95925 28.1543C4.23044 28.0458 4.55586 27.8289 4.98976 27.5577C5.15247 27.4492 5.31518 27.3407 5.47789 27.178C6.34568 26.5272 7.48466 25.6052 8.73211 24.4119C9.49142 23.7069 10.305 22.9475 11.1728 22.134C12.7456 20.5611 14.427 18.7713 16.1083 16.8188C16.3253 16.5476 16.5965 16.2764 16.8134 16.0052C16.7592 15.951 16.7049 15.8425 16.5965 15.7883C16.3253 15.5713 16.1083 15.3544 15.7829 15.2459C15.6744 15.1917 15.5117 15.1374 15.4033 15.0832C15.6202 15.0289 15.8372 14.8662 16.1083 14.7035C16.3253 14.6493 16.5422 14.4323 16.7049 14.2154ZM13.0168 18.4459C12.7999 18.6086 12.4745 18.7171 12.0406 18.7171H8.78634H4.23044V16.7645H8.78634H12.0406C12.5287 16.7645 12.8541 16.8188 13.0168 16.9815C13.2338 17.1442 13.3422 17.3611 13.3422 17.6866C13.3422 18.012 13.2338 18.2832 13.0168 18.4459Z" fill="black" style="fill:black;fill-opacity:1;"/>
</g>
<defs>
<clipPath id="clip0_21320_2061">
<rect width="32" height="32" fill="white" style="fill:white;fill-opacity:1;"/>
</clipPath>
</defs>
</svg>
