<svg width="32" height="32" viewBox="0 0 32 32" fill="none" xmlns="http://www.w3.org/2000/svg">
<path d="M13.2786 21.6388C17.0616 19.7488 20.8051 17.8786 24.6041 15.9806C17.9215 12.6412 11.2789 9.32202 4.60423 5.98643V6.29928C4.60423 14.051 4.60423 21.8027 4.60423 29.555C4.60423 30.8776 3.81651 31.7668 2.52297 31.9793C1.72488 32.1103 0.736808 31.6099 0.288502 30.7669C0.0806116 30.3758 0.00188664 29.9621 0.0023581 29.5173C0.00801495 22.0087 0.00660076 14.5001 0.00612936 6.99147C0.00612936 5.36771 0.0023581 3.74395 1.04854e-06 2.12019C-0.00094175 1.41197 0.634043 0.506323 1.34493 0.200985C2.01715 -0.0878615 2.68514 -0.062888 3.33285 0.259885C10.8546 4.00688 18.3745 7.75766 25.8948 11.5079C27.4783 12.2977 29.0575 13.0945 30.6452 13.8757C31.4377 14.2654 31.9209 14.8789 31.9902 15.7554C32.0745 16.8193 31.6154 17.6053 30.6499 18.0864C28.6865 19.0646 26.7245 20.0447 24.7621 21.0248C21.0502 22.879 17.3398 24.7355 13.626 26.5854C12.9722 26.9111 12.3047 27.2102 11.6424 27.5194C10.7792 27.9218 9.64783 27.4068 9.14296 26.6999C8.85635 26.2985 8.70314 25.8669 8.7045 25.3641C8.71302 22.2335 8.72289 19.1028 8.7003 15.9726C8.69368 15.0368 9.37961 13.9747 10.5298 13.7325C11.5179 13.5242 12.572 14.0105 13.0127 14.9232C13.1655 15.2394 13.2621 15.6149 13.2668 15.965C13.2918 17.7693 13.2781 19.574 13.2781 21.3787V21.6402L13.2786 21.6388Z" fill="#FE012A" style="fill:#FE012A;fill:color(display-p3 0.9961 0.0039 0.1647);fill-opacity:1;"/>
</svg>
