<svg width="32" height="32" viewBox="0 0 32 32" fill="none" xmlns="http://www.w3.org/2000/svg">
<g id="merkur/color-on-light/small" clip-path="url(#clip0_21364_241)">
<path id="Vector" d="M18.7871 1.28906L19.2516 7.12132L23.4322 3.56003L21.8322 9.80519L29.1097 6.81164L24.5161 12.5407L32 13.0052L25.1355 17.2374L31.2774 19.6633L24.8258 19.9213L27.6645 26.7342L21.3677 22.9149L22.0387 30.7084L17.5484 25.3923L15.7419 30.502L13.8839 25.3407L9.59999 30.3471L10.7871 22.9665L3.76773 26.0633L8.30966 20.4374L1.08386 21.16L6.4516 18.0633L-1.52588e-05 15.9471L7.43224 14.5536L2.21934 9.65035L8.0516 10.7858L5.36773 4.59229L11.6129 8.92777L11.0968 2.21809L15.0193 7.58584L18.7871 1.28906Z" fill="#F7CE15"/>
<path id="Vector_2" d="M16.258 23.9978C20.7618 23.9978 24.4129 20.5548 24.4129 16.3075C24.4129 12.0603 20.7618 8.61719 16.258 8.61719C11.7543 8.61719 8.10321 12.0603 8.10321 16.3075C8.10321 20.5548 11.7543 23.9978 16.258 23.9978Z" fill="#FDFEFD"/>
<g id="Vector_3">
<path d="M11.9742 12.4893C11.5613 12.1796 10.9419 12.1796 10.4774 12.3861C10.0645 12.5925 9.70321 13.0054 9.54837 13.4699V13.8828L9.85805 13.2635C10.1161 12.799 10.6322 12.4893 11.2 12.4893C11.5613 12.5409 11.871 12.6441 12.0774 12.9538C12.4903 13.5732 12.4903 14.3474 12.3871 15.0183H12.5419C12.6451 14.5538 12.7484 14.0893 12.6451 13.6248C12.5935 13.2119 12.3355 12.799 11.9742 12.4893Z" fill="#010101"/>
<path d="M16.4129 12.3864C16.0516 12.3348 15.6903 12.4896 15.329 12.6444C14.5032 12.9541 13.729 13.5735 13.5742 14.5025C13.5226 14.9154 13.5742 15.3283 13.7806 15.638C14.0387 15.9993 14.4516 16.2574 14.9161 16.2574H16.258C16.3097 16.4122 16.258 16.567 16.2064 16.7219C16.2331 16.7219 16.2598 16.7253 16.2855 16.7286C16.3596 16.7382 16.4262 16.7468 16.4645 16.6703C16.5161 16.5154 16.6193 16.2057 16.4129 16.1025C16.1806 16.0767 15.9484 16.0767 15.7161 16.0767C15.4839 16.0767 15.2516 16.0767 15.0193 16.0509C14.8129 16.0509 14.5548 15.9993 14.3484 15.8444C13.9871 15.638 13.8839 15.2251 13.8322 14.8638C13.8322 14.2444 14.1935 13.7799 14.6064 13.367C15.0193 13.0057 15.5871 12.7477 16.1032 12.5928C16.258 12.5412 16.3613 12.4896 16.4129 12.3864Z" fill="#010101"/>
<path d="M19.4064 13.1092C19.7677 12.7479 20.3355 12.6446 20.8516 12.7479C21.4193 12.9027 21.8322 13.3156 22.0387 13.8317C22.2451 14.3479 22.2451 14.9156 22.1935 15.4317C22.1935 15.535 22.1419 15.5866 22.0387 15.5866C22.0387 14.9156 21.9871 14.2963 21.6774 13.6769C21.3677 13.1092 20.5419 12.6963 19.9226 13.0059C19.3548 13.3156 19.0451 13.935 18.8903 14.5027H18.7871C18.8387 14.0382 18.9935 13.4704 19.4064 13.1092Z" fill="#010101"/>
<path d="M11.458 13.7795C11.3032 13.573 11.0451 13.4698 10.8387 13.573C10.4774 13.7278 10.3226 14.0891 10.2193 14.3988C10.1161 14.8633 10.0645 15.3795 10.3226 15.844C10.4774 16.0504 10.7871 16.102 11.0451 15.9988C11.3897 15.7527 11.4996 15.3657 11.5985 15.017L11.6129 14.9666C11.6645 14.5537 11.6645 14.1407 11.458 13.7795Z" fill="#010101"/>
<path d="M20.3871 13.9347C20.5935 13.9347 20.8516 14.038 20.9548 14.296C21.2129 14.9154 21.1097 15.5863 20.8 16.1541C20.6451 16.3605 20.4387 16.6186 20.129 16.6186C19.871 16.6702 19.7161 16.4638 19.6645 16.2573C19.5097 15.7412 19.5613 15.2251 19.7677 14.7089C19.8193 14.3476 19.9742 13.9863 20.3871 13.9347Z" fill="#010101"/>
<path fill-rule="evenodd" clip-rule="evenodd" d="M21.5226 17.3408C21.729 17.8569 21.9871 18.2698 22.4 18.6311V18.8375C22.1501 18.8019 21.999 18.6427 21.8441 18.4796C21.7751 18.4069 21.7054 18.3335 21.6258 18.2698C21.0064 19.4569 20.0258 20.4892 18.7871 21.1601C17.9613 21.573 16.9806 21.7795 16.0516 21.7795C15.9484 21.7537 15.8451 21.7537 15.7355 21.7537C15.6258 21.7537 15.5097 21.7537 15.3806 21.7279C14.1935 21.573 13.1097 20.9021 12.2839 20.1279C11.6645 19.5085 11.0968 18.8375 10.6322 18.0634C10.5032 18.115 10.3871 18.1924 10.271 18.2698C10.1548 18.3472 10.0387 18.4246 9.90966 18.4763C9.90966 18.4246 9.85805 18.373 9.80643 18.3214C10.3742 17.9601 10.8387 17.444 11.1484 16.8763C11.1484 16.9082 11.1681 16.9203 11.1953 16.9372C11.2122 16.9476 11.2319 16.9598 11.2516 16.9795C11.1484 17.2892 10.9935 17.5472 10.8387 17.8053C10.8387 17.8053 10.9419 17.8569 10.9935 17.8569C14.4516 18.5279 18.0129 18.5795 21.471 17.9085C21.4499 17.8453 21.4288 17.7842 21.4082 17.7244C21.3277 17.4913 21.254 17.2776 21.2129 17.0311C21.4058 16.9829 21.4635 17.1599 21.5123 17.3096C21.5158 17.3202 21.5192 17.3306 21.5226 17.3408ZM16 21.5214C17.0322 21.573 18.0129 21.315 18.8387 20.7988C19.871 20.1795 20.7484 19.2505 21.2645 18.2182C19.5613 18.5279 17.8064 18.7343 16.0516 18.6827C14.6064 18.7343 13.1613 18.5279 11.7161 18.2698C11.4066 18.2182 11.1486 18.1666 10.8906 18.115C11.4583 18.9924 12.0774 19.8182 12.9548 20.4375C13.8322 21.0569 14.9161 21.5214 16 21.5214Z" fill="#010101"/>
</g>
</g>
<defs>
<clipPath id="clip0_21364_241">
<rect width="32" height="32" fill="white"/>
</clipPath>
</defs>
</svg>
