<svg width="32" height="32" viewBox="0 0 32 32" fill="none" xmlns="http://www.w3.org/2000/svg">
<g clip-path="url(#clip0_21320_1659)">
<path d="M5.90406 0.000976562C2.64334 0.000976562 0 2.64432 0 5.90504V22.4731C0.809916 22.3222 1.61846 22.1643 2.42538 21.9988C3.76152 21.7259 4.45403 20.8663 4.66789 19.4813C4.71374 19.1861 4.75808 18.8891 4.80244 18.592L4.80297 18.5885C5.05793 16.8808 5.31546 15.156 5.88589 13.5522C7.33815 9.47454 10.0552 6.70855 14.5891 6.0405C16.0332 5.82867 18.3062 6.11176 18.9478 6.21975C21.0743 6.57411 22.7241 7.69641 24.2333 9.19959C25.3699 10.33 26.6734 11.3179 27.9953 12.2364C29.2783 13.1239 30.6265 13.4228 32 13.2384V5.90504C32 2.64432 29.3566 0.000976562 26.0959 0.000976562H5.90406Z" fill="#262C39" style="fill:#262C39;fill:color(display-p3 0.1490 0.1725 0.2235);fill-opacity:1;"/>
<path fill-rule="evenodd" clip-rule="evenodd" d="M0 23.5668V26.097C0 29.3577 2.64334 32.001 5.90406 32.001H26.0959C29.3566 32.001 32 29.3577 32 26.097V14.0799C31.6571 14.1246 31.3088 14.1544 30.9547 14.1693C28.4312 14.2753 26.5044 13.0084 24.6448 11.546C24.2677 11.25 23.8951 10.9447 23.5232 10.64C22.5595 9.85043 21.5957 9.06069 20.5406 8.42149C17.6362 6.66173 14.4302 6.72691 11.4463 7.951C8.56023 9.13441 6.99796 11.7374 6.27495 14.705C5.93982 16.0829 5.73644 17.4922 5.53308 18.9015C5.43734 19.5649 5.3416 20.2284 5.23208 20.8888C4.95508 22.563 4.33793 23.1333 2.62906 23.3064C1.753 23.3961 0.876532 23.4819 0 23.5668ZM12.4957 24.8044C10.9599 23.6862 9.63606 22.2543 8.33858 20.8489C7.98422 20.464 7.77238 19.5413 7.99644 19.1441C8.22452 18.7388 9.0698 18.4903 9.63807 18.5005C10.6172 18.5192 11.5941 18.6502 12.5694 18.7809C12.8681 18.8209 13.1667 18.8609 13.4652 18.8977C14.6669 19.0463 15.7403 18.7572 16.6996 18.0259L17.2603 17.5981C18.8186 16.4087 20.376 15.22 21.9383 14.0379C22.368 13.712 22.8039 13.3861 23.2683 13.1132C24.0586 12.6488 24.5393 12.8565 24.5515 13.7487C24.5617 14.5043 24.5332 15.3476 24.2154 16.0055C22.8691 18.7898 21.4331 21.5333 19.9768 24.2606C19.2416 25.6375 18.0093 26.2465 16.439 26.1589C16.4023 26.2505 13.5915 25.5987 12.4978 24.8023L12.4957 24.8044ZM14.0693 13.1027C14.2241 13.5875 14.2302 14.1089 14.0856 14.5977L14.0709 14.6477C13.9156 15.1749 13.7698 15.6702 13.5072 16.0948C12.6293 17.5246 10.7147 17.4757 9.79819 16.0744C8.90603 14.7118 8.93254 12.6221 9.8613 11.2798C10.7718 9.96404 12.4378 9.89071 13.3056 11.2452C13.6429 11.7706 13.84 12.3884 14.0374 13.0071L14.0673 13.1007L14.0693 13.1027ZM16.5808 13.1556C16.4708 13.1108 16.4077 12.9967 16.426 12.8806C16.4379 12.8104 16.449 12.7398 16.4601 12.6692C16.5076 12.3667 16.5553 12.0629 16.6725 11.7889C17.3915 10.1228 19.5546 9.10233 21.3123 9.60542C21.7115 9.71948 22.127 9.96185 22.4081 10.2633C22.9254 10.8153 22.7462 11.2349 21.9926 11.3449C21.6069 11.401 21.217 11.4261 20.8266 11.4512C20.6789 11.4606 20.5311 11.4701 20.3835 11.4813C19.1431 11.5771 17.9923 11.8643 17.1715 12.9091C17.0968 13.0025 16.9755 13.059 16.8547 13.1153C16.8304 13.1266 16.8063 13.1379 16.7825 13.1495C16.7193 13.18 16.646 13.182 16.5788 13.1556H16.5808Z" fill="#262C39" style="fill:#262C39;fill:color(display-p3 0.1490 0.1725 0.2235);fill-opacity:1;"/>
</g>
<defs>
<clipPath id="clip0_21320_1659">
<rect width="32" height="32" fill="white" style="fill:white;fill-opacity:1;"/>
</clipPath>
</defs>
</svg>
