<svg width="32" height="32" viewBox="0 0 32 32" fill="none" xmlns="http://www.w3.org/2000/svg">
<g clip-path="url(#clip0_21320_1777)">
<path d="M19.7522 20.4046C19.288 20.7916 19.224 21.4828 19.6108 21.9472C19.9977 22.4115 20.6887 22.4756 21.1529 22.0886C22.9805 20.5647 24.0317 18.3283 24.0317 15.9504C24.0317 11.5469 20.4513 7.96534 16.0491 7.96534C11.6469 7.96534 8.06652 11.5469 8.06652 15.9504C8.06652 18.3817 9.15507 20.6528 11.0493 22.1767C11.5216 22.5557 12.2099 22.4809 12.5887 22.0086C12.9676 21.5361 12.8929 20.8476 12.4206 20.4686C8.17855 17.0579 10.5824 10.1538 16.0464 10.1538C21.4624 10.1538 23.8983 16.9538 19.7522 20.4046Z" fill="#476DE0" style="fill:#476DE0;fill:color(display-p3 0.2784 0.4275 0.8784);fill-opacity:1;"/>
<path d="M23.0821 25.7528C26.1129 23.567 28.0845 19.9962 28.0845 15.9823C28.0845 15.3765 27.5937 14.8881 26.9906 14.8881C26.3877 14.8881 25.8968 15.3792 25.8968 15.9823C25.8968 19.2836 24.272 22.198 21.8015 23.978C21.3105 24.333 21.2012 25.0162 21.5534 25.5073C21.9081 25.9957 22.5912 26.105 23.0821 25.7528Z" fill="#476DE0" style="fill:#476DE0;fill:color(display-p3 0.2784 0.4275 0.8784);fill-opacity:1;"/>
<path d="M11.4818 0.670698C10.9029 0.84417 10.5721 1.45266 10.7455 2.03179C10.9188 2.61092 11.5271 2.94184 12.1061 2.76837C20.8757 0.152954 29.6961 6.75557 29.6961 15.8828C29.6961 16.4887 30.1869 16.977 30.7899 16.977C31.3955 16.977 31.8838 16.486 31.8838 15.8828C31.8865 5.30904 21.6654 -2.36638 11.4818 0.670698Z" fill="#476DE0" style="fill:#476DE0;fill:color(display-p3 0.2784 0.4275 0.8784);fill-opacity:1;"/>
<path d="M23.6508 6.64488C15.8416 0.27711 4.01451 5.83357 4.01451 15.9803C4.01451 22.6202 9.41447 28.0192 16.0497 28.0192C16.6554 28.0192 17.1436 27.5281 17.1436 26.925C17.1436 26.3192 16.6527 25.8308 16.0497 25.8308C10.6204 25.8308 6.20227 21.4113 6.20227 15.9803C6.20227 7.66702 15.8897 3.14072 22.2661 8.34219C22.7357 8.72383 23.424 8.65442 23.8055 8.18474C24.1897 7.71505 24.1177 7.02645 23.6508 6.64488Z" fill="#476DE0" style="fill:#476DE0;fill:color(display-p3 0.2784 0.4275 0.8784);fill-opacity:1;"/>
<path d="M1.21015 14.9685C0.607186 14.9685 0.11628 15.4596 0.11628 16.0627C0.11628 24.8511 7.26376 32.0007 16.0494 32.0007C19.7846 32.0007 23.4183 30.6797 26.2757 28.2858C26.74 27.8961 26.8013 27.2076 26.4118 26.7433C26.0223 26.2789 25.334 26.2175 24.8697 26.6071C22.4045 28.6728 19.2723 29.8124 16.0494 29.8124C8.47236 29.8124 2.30669 23.6448 2.30669 16.0654C2.30401 15.4596 1.81578 14.9685 1.21015 14.9685Z" fill="#476DE0" style="fill:#476DE0;fill:color(display-p3 0.2784 0.4275 0.8784);fill-opacity:1;"/>
</g>
<defs>
<clipPath id="clip0_21320_1777">
<rect width="32" height="32" fill="white" style="fill:white;fill-opacity:1;"/>
</clipPath>
</defs>
</svg>
