<svg width="32" height="32" viewBox="0 0 32 32" fill="none" xmlns="http://www.w3.org/2000/svg">
<path d="M30.7111 12.4571C30.0143 11.5709 28.8037 10.197 26.0772 10.2029C23.8798 10.2077 22.0116 12.2058 21.8428 14.4755C21.6792 16.5781 22.9951 18.5806 24.9822 19.2447C25.9586 19.571 27.0152 19.5577 27.9832 19.207C28.9512 18.8561 29.7748 18.1881 30.3223 17.3095C30.1562 18.0153 29.8556 18.61 29.4197 19.0858C28.2376 20.3778 26.4506 20.3928 26.433 20.3928C24.7479 20.3928 23.1021 19.8777 21.6649 19.0178C21.3478 18.8297 20.9824 18.6154 20.5884 18.3887C20.9903 17.4868 21.1506 16.4942 21.0531 15.5103C20.7876 12.784 18.5806 10.6155 15.8728 10.4199C12.8452 10.1937 10.125 12.5574 9.86505 15.5793C9.78052 16.5619 9.9517 17.5497 10.3616 18.445C10.1354 18.6084 9.81254 18.827 9.37974 19.088C8.70744 19.4952 7.21415 20.412 5.35977 20.3301C3.25312 20.2368 1.54158 18.4873 1.40085 16.3649C1.19464 13.347 4.2303 11.0307 7.05529 12.0637C7.9405 12.3874 8.69319 13.0001 9.19388 13.8047L9.93043 12.4448C9.3683 11.7635 8.65532 11.225 7.84902 10.8728C7.04272 10.5206 6.16567 10.3645 5.2886 10.4172C2.50117 10.578 0.227786 12.8252 0.016433 15.634C-0.0427093 16.4129 0.0581785 17.1959 0.312778 17.9337C1.08973 20.1852 3.25174 21.7397 5.61784 21.7425C5.75327 21.7425 7.73299 21.8941 10.0956 20.2926C10.5061 20.0144 10.8497 19.8157 11.0987 19.6388C12.1613 20.9665 13.8012 21.752 15.4939 21.7423C17.1867 21.7327 18.8177 20.9282 19.8651 19.5885C20.2656 19.8162 20.6368 20.0369 20.9553 20.2266C22.6054 21.211 24.5014 21.7966 26.4326 21.7966C26.6779 21.7966 28.8753 21.7473 30.4413 20.038C31.5204 18.8565 33.19 15.6083 30.7111 12.4571ZM19.3596 17.7254C18.2714 17.1767 17.1006 16.7019 16.1101 16.6162C14.1984 16.4517 12.6674 17.3166 12.6053 17.3541L13.2957 18.5731C13.3073 18.5661 14.533 17.8872 15.9949 18.0147C16.7474 18.0801 17.6942 18.4578 18.614 18.9155C17.9089 19.7064 16.9349 20.2011 15.8852 20.3015C13.7358 20.5072 11.7322 18.9701 11.3506 16.8296C10.8811 14.197 12.9968 11.7655 15.6556 11.8859C17.2624 11.9587 18.8282 12.9121 19.4449 14.6439C19.8014 15.6451 19.7721 16.7449 19.3628 17.7254H19.3596ZM26.4309 18.0715C24.4356 18.0715 22.894 16.1711 23.2824 14.2005C23.5329 12.9302 24.5438 11.9087 25.8047 11.6556C27.0651 11.4026 28.3868 11.9558 29.1001 13.033C29.4528 13.5656 29.6411 14.1918 29.6411 14.8324C29.639 16.5942 28.1802 18.0695 26.4309 18.0715Z" fill="url(#paint0_linear_21320_2200)" style=""/>
<defs>
<linearGradient id="paint0_linear_21320_2200" x1="15.9997" y1="10.2029" x2="15.9997" y2="21.7966" gradientUnits="userSpaceOnUse">
<stop stop-color="#FFCF00" style="stop-color:#FFCF00;stop-color:color(display-p3 1.0000 0.8118 0.0000);stop-opacity:1;"/>
<stop offset="0.07" stop-color="#FDC005" style="stop-color:#FDC005;stop-color:color(display-p3 0.9922 0.7529 0.0196);stop-opacity:1;"/>
<stop offset="0.26" stop-color="#F99C10" style="stop-color:#F99C10;stop-color:color(display-p3 0.9765 0.6118 0.0627);stop-opacity:1;"/>
<stop offset="0.44" stop-color="#F57F19" style="stop-color:#F57F19;stop-color:color(display-p3 0.9608 0.4980 0.0980);stop-opacity:1;"/>
<stop offset="0.63" stop-color="#F36A1F" style="stop-color:#F36A1F;stop-color:color(display-p3 0.9529 0.4157 0.1216);stop-opacity:1;"/>
<stop offset="0.82" stop-color="#F15E23" style="stop-color:#F15E23;stop-color:color(display-p3 0.9451 0.3686 0.1373);stop-opacity:1;"/>
<stop offset="1" stop-color="#F15A24" style="stop-color:#F15A24;stop-color:color(display-p3 0.9451 0.3529 0.1412);stop-opacity:1;"/>
</linearGradient>
</defs>
</svg>
