<svg width="75" height="36" viewBox="0 0 75 36" fill="none" xmlns="http://www.w3.org/2000/svg">
<g clip-path="url(#clip0_1236_309)">
<path d="M66.414 19.7604L65.1534 27.3134C64.8882 29.0049 65.6029 29.9939 66.9568 29.9939L70.0651 29.9909C71.8292 29.9909 72.2153 28.6069 72.4655 27.1446L74.2623 17.487C74.6695 15.5663 74.3286 13.1511 72.5198 11.532C71.4344 10.5581 70.5358 10.2053 68.5849 10.2053C66.001 10.2053 63.067 12.0717 61.8702 14.511L62.1022 13.2989C62.6478 10.8505 61.6137 10.2053 59.877 10.2053L57.6366 10.2083C55.481 10.2083 55.0075 11.3902 54.7511 12.729L52.1191 27.3164C51.8987 28.3024 52.0346 29.9969 53.9793 29.9969H57.103C58.9362 29.9969 59.3223 28.5346 59.5605 27.1536L60.8266 20.1614C61.1162 18.5664 61.3635 17.7794 61.9062 17.2005C62.7476 16.2356 64.406 15.8195 65.5788 16.7754C66.3324 17.3905 66.5947 18.3734 66.414 19.7604Z" fill="white"/>
<path d="M49.8033 27.1507C49.5472 28.6643 49.1098 29.997 47.3217 29.997H44.147C42.627 29.997 42.0935 28.8513 42.3528 27.3798L44.964 12.7321C45.2262 11.1733 45.8986 10.2114 47.8495 10.2114H50.2437C52.2699 10.2114 52.7944 11.1853 52.3329 13.305L49.8033 27.1507Z" fill="white"/>
<path d="M49.5982 8.16407C51.5731 8.16407 53.1743 6.56 53.1743 4.58202C53.1743 2.60407 51.5731 0.999994 49.5982 0.999994C47.6233 0.999994 46.0221 2.60407 46.0221 4.58202C46.0221 6.56 47.6233 8.16407 49.5982 8.16407Z" fill="white"/>
<path d="M15.0926 10.2144C15.8886 11.1642 16.8233 12.3642 16.362 15.1955L15.1137 21.859L15.3429 27.229C15.385 29.1437 16.3077 29.9939 17.9238 29.9939L21.9793 30C23.2667 30 23.7823 29.02 24.3039 27.7778L27.3975 20.1524L27.7111 27.428C27.7382 29.0412 28.5584 30 30.0449 30L34.6702 29.997C35.9848 29.997 36.5335 29.21 37.1094 27.7868L43.0102 13.1904C43.6495 11.6797 43.2816 10.2084 41.6834 10.2084H38.7225C37.619 10.2084 36.8802 10.5913 36.4461 11.6406L32.46 21.4218L32.0952 12.6959C32.0349 10.8416 31.1484 10.2084 30.1112 10.2084H27.096C25.905 10.2084 25.2115 10.6848 24.8407 11.5893L20.8395 21.4248L20.4807 12.4848C20.4295 10.8084 19.8716 10.2114 18.5269 10.2114L15.0926 10.2144Z" fill="white"/>
<path d="M14.2333 14.6889C14.5921 12.916 13.9287 11.6225 12.7619 10.7752C11.6553 10.0335 10.2864 9.94302 8.85117 10.6637L2.77258 13.4045C1.26197 14.0859 0.586572 15.8678 1.26197 17.3875C1.93737 18.9072 3.71331 19.5856 5.22394 18.9072L6.03801 18.5393L4.72943 25.6642C4.35253 27.7989 5.74855 29.5749 7.64208 29.9337C9.65323 30.3136 11.586 28.9929 11.9236 26.9908L14.2333 14.6889Z" fill="white"/>
</g>
<defs>
<clipPath id="clip0_1236_309">
<rect width="75" height="29" fill="white" transform="translate(0 1)"/>
</clipPath>
</defs>
</svg>
