<svg width="542" height="542" viewBox="0 0 542 542" fill="none" xmlns="http://www.w3.org/2000/svg">
    <g clip-path="url(#clip0_83_3148)">
        <path d="M346.084 381.782C336.123 376.39 327.21 371.559 318.672 366.953C305.228 387.137 292.87 406.91 279.239 425.746C252.876 462.258 221.495 494.201 186.818 522.848C184.459 524.795 179.216 525.544 176.333 524.384C89.1919 489.145 31.2976 426.757 8.97876 335.197C-11.8422 249.816 6.28252 171.363 60.6567 101.785C62.4917 99.4261 64.6262 97.2916 68.1088 93.397C81.253 160.541 102.111 222.742 138.286 280.449C147.723 274.719 156.561 269.327 165.099 264.159C154.351 242.664 143.416 222.48 133.979 201.584C115.405 160.354 103.085 117.101 96.0074 72.4637C95.5206 69.393 97.1683 64.5997 99.4901 62.6898C142.705 27.2268 192.061 6.96751 247.971 1.87461C369.638 -9.24738 479.061 63.4013 522.088 169.491C523.699 173.46 525.084 177.58 526.545 181.587C494.003 173.723 462.172 165.11 429.929 158.481C397.35 151.778 364.134 150.093 330.393 151.404V182.897C333.314 183.197 335.673 183.721 338.033 183.684C402.555 182.523 464.681 195.068 525.421 216.076C534.259 219.147 537.854 223.079 539.24 232.665C556.278 350.551 493.141 467.163 384.355 517.006C333.801 540.149 280.887 546.777 226.064 537.94C224.378 537.678 222.843 536.704 221.907 536.329C244.713 512.325 267.93 488.995 289.837 464.505C311.857 439.864 329.682 412.115 346.046 381.782H346.084Z"
              fill="#01A4E2"/>
    </g>
    <defs>
        <clipPath id="clip0_83_3148">
            <rect width="542" height="542" fill="white"/>
        </clipPath>
    </defs>
</svg>
