<svg width="32" height="32" viewBox="0 0 32 32" fill="none" xmlns="http://www.w3.org/2000/svg">
<g clip-path="url(#clip0_20702_135)">
<path d="M13.0196 22.4786C12.7227 22.0035 12.4207 21.5311 12.131 21.0514C11.7078 20.3496 11.2891 19.6452 10.8755 18.9375C10.468 18.239 10.0728 17.5326 9.66592 16.8334C9.22229 16.0707 8.76951 15.3132 8.32393 14.5511C7.87705 13.7877 7.44062 13.0184 6.98849 12.2583C6.22769 10.9779 5.45384 9.70537 4.69372 8.42495C4.12363 7.46365 3.57189 6.4919 3.0018 5.53062C2.2371 4.24104 1.45863 2.95801 0.693274 1.66777C0.439029 1.23988 0.207062 0.798884 -0.0498047 0.336914H26.0549C25.9599 0.519081 25.8892 0.667826 25.806 0.810675C25.0347 2.14023 24.2556 3.46519 23.4955 4.80129C23.3808 5.00312 23.236 4.99526 23.0624 4.9946C18.2251 4.98674 13.3872 4.97953 8.55 4.97232C8.42223 4.97232 8.29447 4.97232 8.12667 4.97232C8.19286 5.09748 8.23808 5.19184 8.29116 5.28161C8.86256 6.24812 9.45166 7.20552 9.99879 8.18578C10.1738 8.49834 10.3684 8.58483 10.7137 8.58288C14.0772 8.56848 17.4407 8.57438 20.8036 8.57438H21.2066C21.1516 8.68184 21.1142 8.76503 21.069 8.84302C20.2696 10.2191 19.4649 11.5932 18.672 12.9739C18.5613 13.1665 18.442 13.2399 18.2146 13.2386C16.5227 13.2274 14.8314 13.2327 13.0923 13.2327C13.1566 13.3625 13.2004 13.4673 13.2575 13.5656C14.0386 14.9148 14.8216 16.2634 15.6027 17.6126C15.6564 17.7056 15.6957 17.8065 15.7416 17.9035C15.7187 17.9402 15.6944 17.9763 15.6722 18.0136C14.7875 19.5023 13.9029 20.9912 13.0183 22.4799L13.0196 22.4786Z" fill="#D61D21"/>
<path d="M13.0195 22.4781C13.9041 20.9893 14.7888 19.5005 15.6734 18.0117C15.6957 17.9744 15.7193 17.9383 15.7428 17.9016C16.1799 18.6388 16.6196 19.3734 17.0528 20.1125C17.5206 20.91 17.982 21.7114 18.4589 22.5331C20.2957 19.4311 22.118 16.3526 23.9626 13.2368H21.272C21.3219 13.1313 21.3513 13.0533 21.3926 12.9825C22.2019 11.5894 23.0105 10.195 23.8289 8.80712C23.8885 8.70551 24.0255 8.583 24.1271 8.58235C26.7351 8.56989 29.3437 8.57249 32.0015 8.57249C27.4788 16.2844 22.9731 23.9662 18.4295 31.7142C18.2041 31.3465 18.0016 31.0294 17.8109 30.7051C16.233 28.0224 14.6571 25.339 13.0818 22.6543C13.051 22.6013 13.0398 22.537 13.0202 22.4774L13.0195 22.4781Z" fill="white"/>
</g>
<defs>
<clipPath id="clip0_20702_135">
<rect width="32" height="32" fill="white"/>
</clipPath>
</defs>
</svg>
