<svg width="35" height="15" viewBox="0 0 35 15" fill="none" xmlns="http://www.w3.org/2000/svg">
    <g clip-path="url(#clip0_9_4671)">
        <path fill-rule="evenodd" clip-rule="evenodd" d="M34.3198 0.0488046C34.3424 0.0758656 34.349 0.117217 34.3343 0.140731C34.3033 0.190461 33.6003 1.05563 33.5705 1.0807C33.5595 1.08999 33.4215 1.25722 33.2638 1.45232C33.1062 1.64742 32.9681 1.81465 32.9569 1.82394C32.9458 1.83323 32.8073 2.00046 32.6492 2.19557C32.4912 2.39067 32.334 2.58039 32.3 2.61722C32.2659 2.65401 32.2425 2.71482 32.248 2.75235C32.2568 2.81364 32.2803 2.81985 32.4795 2.81357C32.9357 2.79918 33.6928 2.74401 33.7664 2.71975C33.8531 2.69124 34.0823 2.72509 34.0823 2.76641C34.0823 2.79465 33.8061 2.86999 33.4514 2.93854C33.3389 2.9603 33.1854 2.9908 33.1104 3.00638C33.0353 3.02195 32.8819 3.05236 32.7693 3.07395C32.6568 3.09553 32.5034 3.12594 32.4283 3.14151C32.3533 3.15709 32.1998 3.1877 32.0873 3.20955C31.9748 3.23141 31.8501 3.26188 31.8102 3.27722C31.7475 3.30138 31.2592 3.87253 30.4676 4.8476C30.347 4.99625 30.2393 5.12545 30.2284 5.13475C30.2174 5.14406 30.0795 5.31128 29.9218 5.50638C29.7642 5.70148 29.626 5.86871 29.6149 5.87801C29.6037 5.88728 29.4656 6.05451 29.308 6.24961C29.1503 6.44474 29.0121 6.61197 29.0008 6.62124C28.9403 6.67106 28.5111 7.22295 28.4667 7.308C28.407 7.4224 28.4162 7.4517 28.6231 7.80367C28.7433 8.00828 28.8702 8.22367 29.4736 9.24792C29.7277 9.67911 30.1272 10.3599 30.331 10.7091C30.4016 10.8299 30.5673 11.1111 30.6993 11.3341C31.0299 11.8922 31.0684 11.9776 31.017 12.0389C30.9943 12.066 30.8959 12.0962 30.7983 12.1061C30.7007 12.116 30.4674 12.141 30.2799 12.1619C29.9505 12.1984 29.7459 12.2199 29.0181 12.2943C28.8305 12.3135 28.6232 12.3384 28.5573 12.3496C28.3861 12.3787 28.2879 12.2883 28.0868 11.9161C27.9941 11.7447 27.8455 11.4751 27.7565 11.3172C27.5699 10.9858 27.2435 10.3965 27.0502 10.0418C26.9567 9.87037 26.8973 9.79692 26.852 9.79692C26.8074 9.79692 26.5885 10.057 26.1483 10.6331C24.7271 12.4926 23.591 13.9819 23.4277 14.1995C23.2794 14.3969 23.2159 14.4495 22.982 14.5689C22.6737 14.7262 22.6341 14.7337 21.4133 14.8647C21.1607 14.8918 20.7575 14.9387 20.3638 14.9867C20.2099 15.0055 20.1003 14.9684 20.1003 14.8976C20.1003 14.8584 20.1159 14.8388 22.9634 11.2856C23.4613 10.6643 24.1749 9.77494 24.5491 9.30924C25.7134 7.8603 25.8356 7.69699 25.8152 7.61649C25.8051 7.57662 25.633 7.23378 25.4329 6.8546C25.2327 6.47542 24.905 5.85351 24.7047 5.47261C24.5044 5.09167 24.2846 4.68121 24.2162 4.56044C24.1478 4.43966 24.0915 4.29863 24.0911 4.24709C24.0902 4.14202 24.1284 4.12052 24.4995 4.0171C24.7482 3.9478 25.1119 3.80922 25.1128 3.7834C25.1132 3.7741 24.8589 3.77164 24.5479 3.77791C24.2368 3.78418 23.9456 3.78017 23.9007 3.76901C23.8146 3.74761 23.6419 3.50697 23.4845 3.18911C23.3759 2.96962 23.4024 2.9233 23.6561 2.89026C23.7543 2.87745 23.9266 2.85367 24.0392 2.83739C24.2261 2.81036 24.4114 2.78553 25.0452 2.70263C25.4287 2.65246 25.7744 2.60249 25.8853 2.58121C25.9441 2.56989 26.0249 2.57796 26.0648 2.59915C26.1064 2.62121 26.2245 2.80982 26.3418 3.04158C26.4542 3.26377 26.5653 3.44727 26.5886 3.44929C26.6119 3.45135 26.8637 3.44993 27.1482 3.44612C27.6548 3.43942 27.8075 3.45482 27.8075 3.5127C27.8075 3.54162 27.7017 3.57833 27.2277 3.71397C26.853 3.82122 26.8183 3.83926 26.8198 3.92629C26.8209 3.996 27.0075 4.36874 27.3952 5.07563C27.5076 5.28057 27.555 5.33724 27.6134 5.33646C27.6676 5.33572 27.7816 5.21916 28.0291 4.91164C28.2167 4.67855 28.3935 4.46235 28.4222 4.43124C28.4508 4.40009 28.5984 4.22258 28.7502 4.03679C28.9019 3.85096 29.0589 3.66988 29.0991 3.63438C29.1448 3.5939 29.4331 3.5043 29.8717 3.39421C30.2566 3.29763 30.5813 3.20888 30.5933 3.19695C30.6481 3.14276 30.5298 3.12384 30.0725 3.11367C29.5541 3.10215 29.5168 3.0883 29.6413 2.95364C29.6746 2.91759 29.8312 2.7285 29.9893 2.5334C30.1473 2.3383 30.2858 2.17107 30.2969 2.16178C30.3081 2.15249 30.4462 1.98526 30.6039 1.79016C30.7615 1.59506 30.8996 1.42783 30.9108 1.41853C30.9219 1.40924 31.0605 1.24202 31.2188 1.04692C31.4926 0.709278 31.56 0.628908 31.7681 0.391574C31.8647 0.281373 31.8051 0.294447 32.6329 0.201812C32.8017 0.182927 33.0626 0.152758 33.2127 0.134751C33.3627 0.116744 33.6271 0.0894465 33.8002 0.0740751C33.9733 0.0587373 34.1255 0.0356966 34.1384 0.0228925C34.1784 -0.0168035 34.2765 -0.00278322 34.3198 0.0488046Z" fill="#FFDB00"/>
        <path fill-rule="evenodd" clip-rule="evenodd" d="M20.7318 2.14548C20.7716 2.18479 20.7824 2.23258 20.768 2.3056C20.7567 2.36287 20.7322 2.5159 20.7136 2.64568C20.6949 2.77545 20.6656 2.96506 20.6485 3.06702C20.5912 3.40728 20.5382 3.72326 20.5207 3.82843C20.4959 3.97752 20.5845 4.0571 20.7453 4.0302C20.8125 4.01891 21.0134 3.99393 21.1916 3.97465C21.3698 3.95537 21.6383 3.92604 21.7884 3.90946C22.531 3.82745 22.5182 3.82742 22.6101 3.9128C22.6567 3.95601 22.738 4.06782 22.7907 4.16122C22.8435 4.25466 22.9527 4.44484 23.0333 4.58389C23.4404 5.28582 23.452 5.31508 23.3542 5.39527C23.3244 5.41964 23.1595 5.45193 22.9876 5.467C22.8157 5.48207 22.5446 5.50984 22.3852 5.52872C22.2257 5.5476 21.9649 5.57766 21.8054 5.59553C21.646 5.61339 21.3774 5.6436 21.2086 5.66264C21.0398 5.68172 20.7866 5.70956 20.646 5.72456C20.3132 5.76002 20.21 5.80428 20.1837 5.9226C20.1722 5.97424 20.1549 6.03922 20.1453 6.06703C20.1356 6.09484 20.1139 6.20861 20.0969 6.31984C20.057 6.58118 20.0116 6.84225 19.9621 7.09512C19.9403 7.20636 19.91 7.37321 19.8947 7.46591C19.8217 7.91015 19.791 8.0859 19.7593 8.24119C19.7404 8.33389 19.7084 8.50833 19.6882 8.62883C19.6681 8.74934 19.6386 8.92378 19.6229 9.01647C19.6071 9.10917 19.5777 9.28361 19.5575 9.40411C19.5374 9.52462 19.5049 9.69906 19.4854 9.79175C19.4029 10.184 19.4052 10.291 19.5001 10.4761C19.5492 10.5718 19.6247 10.673 19.6678 10.701C19.7691 10.7665 20.0689 10.8559 20.1078 10.8321C20.1243 10.822 20.2713 10.7989 20.4345 10.7807C20.5977 10.7625 20.831 10.7344 20.9529 10.7183C21.2521 10.6786 21.6915 10.6265 22.051 10.588C22.2141 10.5705 22.3624 10.5472 22.3804 10.5363C22.4292 10.5064 22.5216 10.5507 22.5216 10.6039C22.5216 10.65 21.5128 11.9947 21.2868 12.25C21.1591 12.3942 21.1487 12.397 20.4584 12.4726C20.2896 12.4911 20.0287 12.521 19.8786 12.5389C19.007 12.6433 18.6821 12.647 18.3579 12.556C17.8292 12.4075 17.4066 11.9357 17.2976 11.3722C17.24 11.0743 17.2411 11.0572 17.3724 10.2637C17.3908 10.1524 17.4213 9.95524 17.4403 9.82546C17.4593 9.69569 17.4889 9.50608 17.506 9.40411C17.5232 9.30215 17.555 9.11254 17.5767 8.98276C17.5985 8.85299 17.6292 8.67097 17.6449 8.57827C17.6607 8.48557 17.6914 8.30355 17.7132 8.17377C17.7349 8.044 17.7667 7.85439 17.7839 7.75243C17.801 7.65046 17.8306 7.46085 17.8496 7.33108C17.8686 7.2013 17.8982 7.0117 17.9155 6.90973C17.966 6.61155 18.0123 6.33666 18.0544 6.08389C18.076 5.95411 18.1076 5.76451 18.1246 5.66254C18.1416 5.56057 18.1706 5.37855 18.189 5.25804C18.2397 4.9266 18.3119 4.48394 18.3952 3.994C18.424 3.82475 18.4763 3.51322 18.5339 3.16815C18.5509 3.06618 18.5789 2.88416 18.5962 2.76365C18.659 2.32555 18.67 2.31399 19.0602 2.27458C19.1727 2.26323 19.3799 2.23993 19.5206 2.22281C19.6612 2.20568 19.918 2.17912 20.091 2.16379C20.2641 2.14848 20.4163 2.1255 20.4292 2.11272C20.4743 2.06812 20.6756 2.08993 20.7318 2.14548ZM8.93201 3.76307C8.96761 3.79826 8.9802 3.84467 8.96632 3.88947C8.95425 3.92844 8.93106 4.0513 8.91482 4.16254C8.87758 4.41744 8.8207 4.78182 8.7806 5.02209C8.72303 5.36716 8.67072 5.67868 8.64194 5.84793C8.62618 5.94063 8.59549 6.12265 8.57373 6.25243C8.55198 6.3822 8.52128 6.56422 8.50553 6.65692C8.48977 6.74962 8.45908 6.93164 8.43732 7.06142C8.41557 7.19119 8.38375 7.3808 8.3666 7.48276C8.34944 7.58473 8.31991 7.77434 8.30091 7.90411C8.28192 8.03389 8.25239 8.22349 8.23523 8.32546C8.21808 8.42743 8.18626 8.61703 8.16451 8.74681C8.14275 8.87658 8.11206 9.05861 8.0963 9.1513C8.08055 9.244 8.04985 9.42602 8.0281 9.5558C8.00634 9.68557 7.97452 9.87518 7.95737 9.97715C7.94021 10.0791 7.91068 10.2687 7.89169 10.3985C7.78229 11.1464 7.68387 11.6459 7.60427 11.8573C7.57477 11.9356 7.52662 12.0634 7.49726 12.1414C7.38806 12.4313 7.01185 12.9722 6.71604 13.2645C6.27217 13.7033 5.69373 14.0236 5.01004 14.2092C4.81961 14.2609 4.66189 14.2833 3.95287 14.3596C3.51978 14.4063 3.05463 14.4586 2.7593 14.494C2.60925 14.512 2.34837 14.5422 2.17956 14.5611C2.01076 14.58 1.7422 14.6109 1.58277 14.6296C1.42335 14.6483 1.16246 14.6788 1.00303 14.6973C0.843607 14.7158 0.64322 14.7396 0.55776 14.7502C0.438538 14.7649 0.391613 14.7566 0.356147 14.7144C0.316008 14.6666 0.361603 14.5544 0.703071 13.8604C0.91928 13.4209 1.12362 12.9969 1.15718 12.918C1.19073 12.8391 1.2411 12.7557 1.26914 12.7326C1.29724 12.7094 1.4746 12.6802 1.66455 12.6673C1.85402 12.6545 2.17786 12.6272 2.38418 12.6066C2.5905 12.586 2.89742 12.5555 3.06622 12.5389C3.23503 12.5224 3.54195 12.492 3.74827 12.4715C3.95458 12.451 4.2615 12.4222 4.4303 12.4074C4.81283 12.3738 4.93324 12.336 5.1662 12.1761C5.37951 12.0297 5.61778 11.7041 5.65574 11.5071C5.66961 11.435 5.69506 11.3078 5.71224 11.2243C5.72946 11.1409 5.75876 10.9816 5.77734 10.8704C5.79593 10.7592 5.82662 10.5923 5.84555 10.4996C5.86448 10.4069 5.89517 10.2401 5.91375 10.1288C5.93234 10.0176 5.96293 9.85074 5.98165 9.75805C6.00041 9.66535 6.03042 9.50608 6.04832 9.40411C6.08488 9.19583 6.14333 8.8896 6.18988 8.66254C6.20696 8.57911 6.23619 8.41984 6.25478 8.30861C6.27336 8.19737 6.30405 8.03052 6.32298 7.93782C6.34191 7.84512 6.3726 7.67827 6.39119 7.56703C6.40977 7.4558 6.439 7.29653 6.45608 7.2131C6.65401 6.24737 6.68777 5.99345 6.62503 5.94279C6.57865 5.9053 6.21975 5.9258 5.60683 6.00093C5.34176 6.03343 4.86971 6.08766 4.5572 6.12157C4.34106 6.145 4.26197 6.09916 4.29314 5.9684C4.31262 5.88666 4.39354 5.70488 4.7894 4.85355C4.87991 4.65889 4.97168 4.45182 4.99326 4.3934C5.06723 4.19348 5.17257 4.13136 5.48161 4.10547C5.76118 4.08204 6.17211 4.03809 6.68106 3.97715C7.13826 3.9224 7.85782 3.84316 8.44602 3.78279C8.61022 3.7659 8.75471 3.74207 8.76713 3.7298C8.80583 3.69154 8.87346 3.70519 8.93201 3.76307ZM16.0629 4.70436C16.3632 4.79069 16.5992 5.01363 16.7812 5.3831C16.8997 5.62357 16.9008 5.62984 16.8839 5.97299C16.8744 6.16377 16.8514 6.3881 16.8327 6.47153C16.7771 6.71969 16.7186 7.01655 16.6901 7.19625C16.6658 7.34925 16.6332 7.51816 16.5537 7.90411C16.5384 7.97827 16.5077 8.12995 16.4855 8.24119C16.4632 8.35243 16.4311 8.5117 16.414 8.59512C16.3969 8.67855 16.3676 8.83782 16.3491 8.94906C16.2382 9.61216 16.2433 9.60565 15.7966 9.64802C15.3658 9.68888 14.5771 9.7748 14.0131 9.84231C13.863 9.86028 13.5944 9.89119 13.4163 9.91098C13.2381 9.9308 12.9772 9.9606 12.8365 9.97721C11.5988 10.1233 11.5608 10.1261 11.5152 10.0718C11.4746 10.0235 11.4892 9.86921 11.5767 9.42097C11.5984 9.30973 11.6282 9.14288 11.6429 9.05018C11.7095 8.63139 11.7475 8.47731 11.7962 8.42921C11.8257 8.40002 11.9486 8.36625 12.0782 8.35169C12.2046 8.33749 12.4461 8.30965 12.6149 8.2898C12.9878 8.24598 13.3606 8.20533 13.7914 8.16154C14.1026 8.12992 14.3272 8.08661 14.3952 8.04508C14.4504 8.01137 14.6266 7.30944 14.6654 6.96889L14.6874 6.77527L14.5301 6.61977C14.3805 6.47197 14.3656 6.46529 14.227 6.48447C14.058 6.5079 13.6602 6.55772 12.7342 6.67142C12.0143 6.75983 12.0042 6.763 11.8005 6.96437C11.6114 7.15135 11.5742 7.24125 11.5024 7.68501C11.4829 7.80552 11.453 7.98754 11.4358 8.08951C11.4186 8.19147 11.3891 8.38108 11.3701 8.51085C11.337 8.73734 11.3221 8.82919 11.2333 9.35355C11.2113 9.48333 11.1808 9.68052 11.1655 9.79175C11.1375 9.99511 11.0863 10.3074 11.0244 10.6513C11.0061 10.7533 10.9829 10.9749 10.9729 11.1438L10.9546 11.4509L11.0651 11.5753C11.2116 11.7402 11.3513 11.8092 11.4855 11.7829C11.5881 11.7628 11.8913 11.724 12.4273 11.6623C13.0703 11.5883 13.3494 11.5553 13.5868 11.5253C13.7274 11.5076 13.9678 11.4841 14.1208 11.4733L14.3991 11.4536L14.6859 11.8362C15.3759 12.7567 15.4965 12.9242 15.4965 12.9622C15.4965 13.0398 15.4092 13.0713 15.1384 13.0914C14.9884 13.1026 14.7428 13.1261 14.5928 13.1438C14.3227 13.1755 13.8926 13.2232 13.3651 13.28C13.2151 13.2962 12.9542 13.3267 12.7854 13.3479C12.6166 13.3691 12.3557 13.3996 12.2056 13.4156C12.0556 13.4316 11.787 13.4618 11.6088 13.4826C11.4307 13.5035 11.1698 13.534 11.0291 13.5504C10.8884 13.5669 10.6275 13.5958 10.4494 13.6146C10.2712 13.6335 10.0767 13.6586 10.0171 13.6704C9.89421 13.6948 9.5063 13.6085 9.32398 13.5161C9.13073 13.4182 8.9478 13.2131 8.82155 12.9528C8.70656 12.7157 8.70397 12.7012 8.72194 12.3966C8.73207 12.2246 8.75649 11.9929 8.7762 11.8816C8.79591 11.7704 8.82756 11.5732 8.84655 11.4434C8.86555 11.3137 8.89522 11.1241 8.91247 11.0221C8.99159 10.5552 9.01955 10.3822 9.05144 10.1625C9.07026 10.0328 9.10072 9.83557 9.11913 9.72434C9.15296 9.51963 9.20316 9.20311 9.2554 8.86479C9.27112 8.76282 9.30199 8.57321 9.32398 8.44344C9.363 8.21315 9.38346 8.08367 9.45726 7.60074C9.53866 7.06799 9.62726 6.7424 9.76128 6.48373C9.91088 6.19489 10.2243 5.82161 10.4965 5.60813C11.0054 5.20893 11.3559 5.08957 12.325 4.98558C12.5032 4.96647 12.7717 4.93762 12.9218 4.92144C13.0718 4.90529 13.3327 4.87475 13.5015 4.85355C13.9064 4.80272 14.2799 4.76281 14.6858 4.72701C14.8683 4.7109 15.0281 4.6873 15.0411 4.67453C15.0889 4.62724 15.8742 4.65016 16.0629 4.70436Z" fill="white"/>
    </g>
    <defs>
        <clipPath id="clip0_9_4671">
            <rect width="34" height="15" fill="white" transform="translate(0.343994)"/>
        </clipPath>
    </defs>
</svg>
