<svg width="32" height="32" viewBox="0 0 32 32" fill="none" xmlns="http://www.w3.org/2000/svg">
<path d="M0.155273 0C0.155273 1.10941 0.19154 2.21803 0.279304 3.32414C0.611863 7.62927 1.6556 11.8844 3.35575 15.854C6.03399 22.128 10.3616 27.6902 15.7794 31.8346C15.8523 31.8927 15.9281 31.9463 16.0039 32C16.0766 31.9461 16.1498 31.8918 16.2204 31.8357C21.4648 27.8272 25.9455 22.4138 28.5831 16.307L28.6781 16.0876H10.8497C11.4666 17.2448 12.2028 18.3227 12.9466 19.4012H23.0645C21.1877 22.4461 18.6886 25.2621 16.0046 27.6046C12.0625 24.1691 8.87253 19.8658 6.74009 15.0906C5.09035 11.4205 4.06946 7.47442 3.70644 3.46783H28.293C28.1098 5.49176 27.7602 7.4998 27.2431 9.46505H8.16063C8.49282 10.5955 8.92257 11.6863 9.36538 12.7772H29.7585L29.8237 12.5818C31.1692 8.56747 31.8445 4.39308 31.8445 0.156851V0H0.155273Z" fill="#F0271D"/>
</svg>
