<svg xmlns="http://www.w3.org/2000/svg" viewBox="0 0 341.87 327.13">
  <rect x="-.31" y="-.39" width="342.42" height="327.7" fill="#020200" />
  <g>
    <path fill="#ff3f13" d="m213.69,82.54c7.02-5.11,12.37-12.04,15.51-19.91-11.03-6.34-24.62-8.08-37.58-3.58-.51.18-.98.42-1.48.61-3.38-9.64-10.51-18.12-18.08-24.68-7.56,6.56-14.76,15.04-18.14,24.68-.5-.19-.97-.43-1.48-.61-12.96-4.5-26.55-2.77-37.58,3.58,3.14,7.87,8.49,14.8,15.51,19.91-20.62,9.66-30.13,28.33-30.13,45.22,0,20.68,14.77,40.04,32.96,61.05,15.75,18.19,20.11,28.92,38.83,28.92s23.08-10.73,38.83-28.92c18.19-21.01,32.96-40.38,32.96-61.05,0-16.89-9.51-35.56-30.13-45.22Z"/>
    <path fill="#ffffff" d="m204.44,117.72c-7.2-7.2-20.75-9.96-32.4-2.76v-40.76l-31.6,37.8c-12,12-9.6,26.67-.8,35.48,7.2,7.2,20.75,9.96,32.4,2.76v40.76l31.6-37.8c12-12,9.6-26.67.8-35.48Z"/>
  </g>
  <g>
    <path fill="#ffffff" d="m39.04,284.53v-9.36c1.55,1.37,3.69,2.49,6.41,3.46,2.72.97,5.29,1.42,7.69,1.42,3.79,0,5.72-.92,5.72-2.8,0-1.07-.59-1.53-1.44-2.09-.43-.36-1.76-.71-2.4-.92l-3.37-.97-2.72-.76-2.46-.92c-1.07-.41-1.87-.76-2.46-1.12-1.07-.76-2.83-1.98-3.63-3.26-.69-1.27-1.34-3.15-1.34-5.24,0-6.87,5.72-10.68,14.69-10.68,4.54,0,8.76.97,12.66,2.95v8.8c-1.66-.97-3.63-1.78-5.93-2.44-2.3-.66-4.49-1.02-6.62-1.02-3.26,0-4.91.76-4.91,2.34,0,.66.43,1.17,1.55,1.63l1.71.56c1.12.36,3.58.97,5.13,1.42,3.58,1.12,6.41,2.54,8.44,4.22s3.04,4.07,3.04,7.12c0,3.51-1.44,6.26-4.27,8.34-2.83,2.09-6.52,3.1-11,3.1-5.77,0-10.58-1.27-14.48-3.82Z"/>
    <path fill="#ffffff" d="m73.51,287.63v-35.61h9.62v27.57h17.95v8.04h-27.57Z"/>
    <path fill="#ffffff" d="m122.02,288.35c-5.66,0-10.36-1.78-14.1-5.39-3.74-3.61-5.61-7.99-5.61-13.13s1.87-9.51,5.61-13.12,8.44-5.39,14.1-5.39,10.36,1.78,14.1,5.39,5.61,7.99,5.61,13.12-1.87,9.51-5.61,13.13c-3.74,3.61-8.44,5.39-14.1,5.39Zm0-8.44c2.83,0,5.13-.97,7-2.85,1.87-1.88,2.83-4.32,2.83-7.22s-.96-5.34-2.83-7.22c-1.87-1.88-4.17-2.85-7-2.85s-5.18.97-7.05,2.85c-1.87,1.88-2.78,4.32-2.78,7.22s.91,5.34,2.78,7.22c1.87,1.88,4.22,2.85,7.05,2.85Z"/>
    <path fill="#ffffff" d="m154.32,287.63v-27.57h-11.22v-8.04h32.11v8.04h-11.27v27.57h-9.62Z"/>
    <path fill="#ffffff" d="m196.26,288.35c-5.66,0-10.36-1.78-14.1-5.39-3.74-3.61-5.61-7.99-5.61-13.13s1.87-9.51,5.61-13.12,8.44-5.39,14.1-5.39,10.36,1.78,14.1,5.39c3.74,3.61,5.61,7.99,5.61,13.12s-1.87,9.51-5.61,13.13c-3.74,3.61-8.44,5.39-14.1,5.39Zm0-8.44c2.83,0,5.13-.97,7-2.85s2.83-4.32,2.83-7.22-.96-5.34-2.83-7.22-4.17-2.85-7-2.85-5.18.97-7.05,2.85-2.78,4.32-2.78,7.22.91,5.34,2.78,7.22,4.22,2.85,7.05,2.85Z"/>
    <path fill="#ffffff" d="m220.82,287.63v-35.61h16.67c4.17,0,7.48,1.02,9.94,3.1s3.69,4.73,3.69,8.04-1.23,6-3.69,8.09c-2.46,2.09-5.77,3.1-9.94,3.1h-7.05v13.28h-9.62Zm9.62-20.81h6.36c2.78,0,4.59-1.32,4.59-3.56s-1.76-3.51-4.59-3.51h-6.36v7.07Z"/>
    <path fill="#ffffff" d="m254.36,287.63v-35.61h9.62v35.61h-9.62Z"/>
    <path fill="#ffffff" d="m266.68,287.63l15.71-35.81h9.24l15.71,35.81h-10.31l-3.15-7.53h-13.89l-3.15,7.53h-10.15Zm16.35-14.85h7.8l-3.9-9.51-3.9,9.51Z"/>
  </g>
</svg>
