<svg width="16" height="16" viewBox="0 0 16 16" fill="none" xmlns="http://www.w3.org/2000/svg">
<g clip-path="url(#clip0_2412_400)">
<path d="M2.84679 11.4785L1.87888 11.7536L1.57373 9.05071L2.51266 8.78383C2.7748 8.70932 3.00842 8.70058 3.21351 8.75761C3.41921 8.81356 3.58636 8.93041 3.71498 9.10816C3.8442 9.28483 3.92494 9.51615 3.95718 9.80212C3.98848 10.0784 3.96492 10.3293 3.8865 10.555C3.80893 10.7805 3.68184 10.9724 3.50525 11.1306C3.32842 11.288 3.10894 11.404 2.84679 11.4785ZM2.43852 11.0197L2.73469 10.9355C2.8792 10.8945 2.99951 10.8321 3.09561 10.7485C3.19231 10.6638 3.26074 10.5531 3.30088 10.4164C3.34078 10.2788 3.34929 10.1107 3.3264 9.91194C3.30506 9.72186 3.26309 9.57896 3.20047 9.48325C3.13845 9.38646 3.05478 9.32851 2.94946 9.30941C2.84474 9.28923 2.71845 9.30016 2.57057 9.34219L2.26053 9.43031L2.43852 11.0197Z" fill="#D0D0D0"/>
<path d="M4.47133 11.0167L4.16618 8.31383L5.2324 8.01077C5.42565 7.95585 5.59688 7.94486 5.74609 7.97782C5.89507 8.00994 6.01525 8.08293 6.10664 8.1968C6.1978 8.30983 6.25375 8.45874 6.27449 8.64355C6.29655 8.82979 6.2758 8.9996 6.21224 9.15297C6.14928 9.30526 6.0494 9.43626 5.91259 9.54598C5.77662 9.65546 5.61033 9.73814 5.41372 9.79403L4.73946 9.98568L4.68293 9.47051L5.24125 9.31182C5.33451 9.28531 5.41171 9.2502 5.47284 9.20649C5.53373 9.16194 5.57718 9.10873 5.60318 9.04685C5.62978 8.9839 5.63846 8.9106 5.62921 8.82696C5.61913 8.74356 5.5945 8.67927 5.55533 8.63411C5.51675 8.58786 5.46394 8.56019 5.39688 8.5511C5.33043 8.54093 5.25099 8.54898 5.15856 8.57525L4.85105 8.66266L5.09518 10.8394L4.47133 11.0167ZM5.78451 9.36853L6.56722 10.421L5.88665 10.6145L5.11781 9.55803L5.78451 9.36853Z" fill="#D0D0D0"/>
<path d="M9.13766 8.33916C9.16966 8.63064 9.14399 8.89175 9.06064 9.12248C8.9779 9.35214 8.8522 9.54406 8.68353 9.69824C8.51571 9.85219 8.31921 9.96117 8.09403 10.0252C7.85625 10.0928 7.63536 10.0983 7.43134 10.0419C7.22733 9.98547 7.05706 9.86724 6.92052 9.6872C6.78483 9.50692 6.69985 9.26546 6.66559 8.96281C6.63191 8.67181 6.6562 8.41064 6.73847 8.17931C6.82157 7.94773 6.94776 7.75431 7.11702 7.59905C7.28689 7.4427 7.48526 7.33229 7.71211 7.26781C7.94821 7.2007 8.16796 7.1959 8.37138 7.25341C8.57563 7.31068 8.74572 7.42987 8.88165 7.61099C9.01759 7.79211 9.10292 8.03484 9.13766 8.33916ZM8.49303 8.44338C8.47299 8.27382 8.43418 8.13729 8.37661 8.03378C8.31988 7.93004 8.24654 7.86053 8.15661 7.82525C8.06643 7.78914 7.9621 7.78791 7.84364 7.82159C7.71256 7.85884 7.60329 7.92486 7.51581 8.01965C7.42894 8.11336 7.36764 8.23158 7.33193 8.37431C7.29599 8.5162 7.28875 8.67763 7.31022 8.85859C7.32822 9.03055 7.36619 9.16732 7.42412 9.26891C7.48289 9.37025 7.55797 9.43791 7.64935 9.47186C7.74049 9.50498 7.84446 9.50495 7.96125 9.47175C8.09148 9.43473 8.19973 9.36991 8.286 9.27728C8.37228 9.18465 8.43309 9.06793 8.46844 8.92712C8.50462 8.78607 8.51282 8.62483 8.49303 8.44338Z" fill="#D0D0D0"/>
<path d="M9.6493 9.54496L9.34416 6.84206L10.4104 6.539C10.6036 6.48407 10.7752 6.47572 10.925 6.51396C11.0748 6.5522 11.1957 6.6309 11.2876 6.75004C11.3796 6.86919 11.4361 7.02159 11.4571 7.20723C11.4794 7.39431 11.4594 7.56844 11.3972 7.72961C11.3358 7.89055 11.2373 8.02977 11.1018 8.14729C10.9663 8.26481 10.799 8.35187 10.5999 8.40847L9.94324 8.5951L9.88545 8.0803L10.4274 7.92626C10.5223 7.89927 10.5996 7.8596 10.6592 7.80725C10.7196 7.75466 10.7625 7.69299 10.7877 7.62224C10.813 7.55148 10.8211 7.47428 10.8118 7.39064C10.8017 7.30724 10.7771 7.23978 10.7379 7.18825C10.6985 7.13588 10.6449 7.1021 10.577 7.08689C10.51 7.07144 10.4298 7.07697 10.3365 7.10348L10.029 7.19088L10.2732 9.36764L9.6493 9.54496Z" fill="#D0D0D0"/>
<path d="M13.1413 6.60455C13.1211 6.50769 13.075 6.44134 13.003 6.40549C12.9319 6.36939 12.8355 6.36866 12.7136 6.40329C12.633 6.42622 12.5671 6.4563 12.5159 6.49355C12.4645 6.52995 12.4277 6.5713 12.4054 6.61758C12.3829 6.66302 12.3743 6.71088 12.3795 6.76116C12.3827 6.80112 12.3943 6.83413 12.4144 6.8602C12.4346 6.88626 12.4626 6.90646 12.4984 6.92078C12.5351 6.93487 12.5781 6.94399 12.6274 6.94814C12.6776 6.95204 12.7326 6.9523 12.7924 6.9489L13.0185 6.93913C13.1491 6.93199 13.2659 6.93875 13.3689 6.95941C13.4725 6.97898 13.5617 7.01312 13.6364 7.06182C13.7108 7.10967 13.7704 7.1722 13.815 7.24941C13.8597 7.32662 13.8878 7.41941 13.8996 7.52777C13.919 7.69841 13.8945 7.85658 13.826 8.00226C13.7584 8.14771 13.6519 8.27468 13.5066 8.38319C13.3621 8.49146 13.1823 8.57616 12.9672 8.6373C12.7521 8.69843 12.5602 8.71803 12.3914 8.69608C12.2232 8.67306 12.0868 8.60514 11.9821 8.49233C11.8774 8.37953 11.812 8.2183 11.786 8.00865L12.3822 7.83921C12.3966 7.92502 12.4268 7.99135 12.4728 8.03821C12.5196 8.08482 12.5795 8.11322 12.6523 8.1234C12.7251 8.13358 12.8073 8.12565 12.8989 8.09962C12.9829 8.07574 13.0532 8.0435 13.1097 8.0029C13.1672 7.96207 13.209 7.91611 13.2354 7.86503C13.2626 7.81372 13.273 7.76082 13.2665 7.70634C13.2613 7.65606 13.2415 7.61674 13.2071 7.58837C13.1736 7.55977 13.1245 7.54057 13.06 7.53076C12.9963 7.52072 12.9157 7.51821 12.8181 7.52323L12.5418 7.53365C12.3136 7.54222 12.1282 7.50501 11.9857 7.42203C11.844 7.33881 11.7613 7.19478 11.7376 6.98993C11.7188 6.82181 11.7453 6.66263 11.817 6.51239C11.8896 6.36191 11.9979 6.23032 12.1421 6.11761C12.2868 6.00383 12.4575 5.91899 12.6541 5.86311C12.8541 5.80627 13.0318 5.79253 13.1872 5.8219C13.3433 5.85019 13.469 5.91707 13.5644 6.02255C13.6603 6.12694 13.7185 6.26434 13.7387 6.43475L13.1413 6.60455Z" fill="#D0D0D0"/>
<path d="M3.6258 14.8326C3.44431 14.8842 3.2843 14.8947 3.14576 14.8641C3.00723 14.8336 2.89639 14.7711 2.81325 14.6767C2.72987 14.5814 2.67958 14.4636 2.66237 14.3232C2.651 14.2193 2.65965 14.1219 2.68833 14.0311C2.71785 13.9401 2.76344 13.8513 2.82511 13.7648C2.88762 13.678 2.96129 13.589 3.04613 13.4976L3.54752 12.9805C3.60459 12.9226 3.643 12.8676 3.66275 12.8157C3.68226 12.7629 3.68982 12.7144 3.68544 12.6703C3.68179 12.6223 3.65989 12.5836 3.61973 12.5541C3.57958 12.5247 3.52379 12.5201 3.45237 12.5404C3.40868 12.5528 3.37086 12.5731 3.33891 12.6012C3.30779 12.6291 3.28447 12.6621 3.26894 12.7001C3.25425 12.7379 3.24982 12.7782 3.25564 12.821C3.26372 12.8751 3.28591 12.926 3.3222 12.9738C3.35933 13.0213 3.40624 13.0697 3.46292 13.119C3.51937 13.1674 3.58151 13.2215 3.64933 13.2812L5.05144 14.3851L4.42381 14.5635L3.25896 13.681C3.19137 13.6284 3.12006 13.5693 3.04504 13.5034C2.97062 13.4365 2.9054 13.3588 2.84936 13.2703C2.79393 13.1807 2.75964 13.076 2.74649 12.9562C2.73179 12.8215 2.74829 12.691 2.79598 12.5649C2.8445 12.4385 2.9197 12.3276 3.02158 12.2324C3.12321 12.1363 3.24671 12.0676 3.39206 12.0263C3.53406 11.9859 3.65993 11.9815 3.76967 12.0129C3.87941 12.0444 3.96764 12.1024 4.03435 12.187C4.10191 12.2713 4.14184 12.3735 4.15416 12.4935C4.16946 12.6208 4.15321 12.7457 4.10541 12.8683C4.05761 12.9908 3.98348 13.1086 3.88302 13.2216L3.39598 13.7701C3.34611 13.8278 3.30758 13.8855 3.28038 13.9432C3.25379 13.9998 3.24309 14.0564 3.2483 14.1131C3.2565 14.1707 3.27653 14.2172 3.3084 14.2526C3.34026 14.2881 3.38139 14.3113 3.43176 14.3225C3.48298 14.3333 3.54136 14.3294 3.60689 14.3108C3.69512 14.2857 3.78043 14.2392 3.86283 14.1713C3.94499 14.1026 4.01733 14.0184 4.07986 13.9189C4.14299 13.8184 4.18957 13.7075 4.21962 13.5864C4.25026 13.4641 4.25829 13.3374 4.24371 13.2063L4.74027 13.0651C4.76069 13.2264 4.76246 13.3812 4.74558 13.5295C4.7293 13.6767 4.6948 13.8141 4.64207 13.9417C4.59018 14.069 4.51996 14.183 4.43139 14.2835C4.4034 14.3096 4.37559 14.3348 4.34796 14.359C4.32033 14.3832 4.29252 14.4083 4.26453 14.4345C4.1756 14.5369 4.07506 14.6209 3.96291 14.6864C3.85076 14.7518 3.73839 14.8006 3.6258 14.8326Z" fill="#D0D0D0"/>
<path d="M5.71783 14.1957L4.66154 11.7063L5.35093 11.5104L5.94258 13.1702L5.96401 13.1641L6.20668 11.2671L6.76878 11.1074L7.41695 12.7552L7.43712 12.7495L7.62579 10.8638L8.31392 10.6682L7.86918 13.5842L7.26801 13.7551L6.62018 12.2475L6.60002 12.2532L6.31774 14.0252L5.71783 14.1957Z" fill="#D0D0D0"/>
<path d="M9.1955 10.4176L9.50065 13.1205L8.87679 13.2978L8.57165 10.5949L9.1955 10.4176Z" fill="#D0D0D0"/>
<path d="M11.7839 9.68189L12.089 12.3848L11.5597 12.5353L10.3586 11.2666L10.341 11.2716L10.5161 12.8319L9.89229 13.0092L9.58714 10.3063L10.124 10.1537L11.318 11.4216L11.3395 11.4155L11.1613 9.85885L11.7839 9.68189Z" fill="#D0D0D0"/>
<path d="M13.6616 9.98996C13.6413 9.8931 13.5952 9.82675 13.5233 9.7909C13.4522 9.75481 13.3557 9.75407 13.2339 9.7887C13.1532 9.81163 13.0873 9.84171 13.0362 9.87896C12.9848 9.91536 12.9479 9.95671 12.9257 10.003C12.9032 10.0484 12.8945 10.0963 12.8997 10.1466C12.9029 10.1865 12.9146 10.2195 12.9347 10.2456C12.9548 10.2717 12.9828 10.2919 13.0187 10.3062C13.0554 10.3203 13.0984 10.3294 13.1477 10.3335C13.1978 10.3375 13.2528 10.3377 13.3127 10.3343L13.5388 10.3245C13.6693 10.3174 13.7861 10.3242 13.8891 10.3448C13.9928 10.3644 14.0819 10.3985 14.1566 10.4472C14.2311 10.4951 14.2906 10.5576 14.3353 10.6348C14.3799 10.712 14.4081 10.8048 14.4198 10.9132C14.4393 11.0838 14.4148 11.242 14.3463 11.3877C14.2787 11.5331 14.1722 11.6601 14.0269 11.7686C13.8824 11.8769 13.7026 11.9616 13.4875 12.0227C13.2724 12.0838 13.0805 12.1034 12.9117 12.0815C12.7435 12.0585 12.607 11.9906 12.5023 11.8777C12.3976 11.7649 12.3323 11.6037 12.3063 11.3941L12.9024 11.2246C12.9168 11.3104 12.947 11.3768 12.993 11.4236C13.0399 11.4702 13.0997 11.4986 13.1725 11.5088C13.2453 11.519 13.3275 11.5111 13.4191 11.485C13.5031 11.4612 13.5734 11.4289 13.63 11.3883C13.6874 11.3475 13.7293 11.3015 13.7556 11.2504C13.7828 11.1991 13.7932 11.1462 13.7868 11.0917C13.7816 11.0415 13.7618 11.0021 13.7274 10.9738C13.6938 10.9452 13.6448 10.926 13.5802 10.9162C13.5166 10.9061 13.4359 10.9036 13.3384 10.9086L13.0621 10.9191C12.8339 10.9276 12.6485 10.8904 12.506 10.8074C12.3642 10.7242 12.2815 10.5802 12.2578 10.3753C12.2391 10.2072 12.2656 10.048 12.3373 9.8978C12.4099 9.74732 12.5182 9.61573 12.6623 9.50302C12.8071 9.38924 12.9777 9.3044 13.1743 9.24852C13.3743 9.19168 13.552 9.17794 13.7075 9.20731C13.8635 9.2356 13.9893 9.30248 14.0846 9.40796C14.1806 9.51236 14.2387 9.64975 14.259 9.82016L13.6616 9.98996Z" fill="#D0D0D0"/>
<path d="M5.19876 5.78103C6.11633 5.16793 7.1951 4.84069 8.29866 4.84069C9.47735 4.84069 10.6176 5.21365 11.5616 5.89421L10.8034 6.10222C10.6126 5.99152 10.4139 5.89318 10.2085 5.80812C9.29602 5.4302 8.29194 5.33136 7.32326 5.52411C6.35458 5.71686 5.46481 6.19254 4.76648 6.89099C4.43977 7.21776 4.16183 7.58642 3.93881 7.98545L3.18293 8.19282C3.60957 7.21297 4.309 6.37555 5.19876 5.78103Z" fill="#D0D0D0"/>
<path d="M4.90927 14.8526C5.58407 15.3686 6.37058 15.7258 7.21012 15.8928C8.29247 16.1081 9.41435 15.9976 10.4339 15.5753C11.4534 15.153 12.3249 14.4378 12.938 13.5202C13.1527 13.1988 13.3324 12.8577 13.4752 12.5026L12.739 12.7046C12.5044 13.161 12.1987 13.5827 11.8291 13.9523C10.8928 14.8888 9.62288 15.415 8.29866 15.4152C7.35833 15.4154 6.43807 15.1501 5.64324 14.6512L4.90927 14.8526Z" fill="#D0D0D0"/>
<path d="M7.03598 3.48224C7.03598 3.48224 6.80577 1.94674 8.13039 0.945476C7.43183 2.39794 7.81758 3.89742 7.92609 4.25329C6.96302 4.28668 6.02526 4.57045 5.20524 5.07662C5.08311 4.69439 4.5493 3.2696 3.17328 2.47878C4.83224 2.55699 5.50927 3.9541 5.50927 3.9541C5.50927 3.9541 4.97634 1.70071 5.12221 9.53674e-06C6.20343 1.32111 7.03598 3.48224 7.03598 3.48224Z" fill="#D0D0D0"/>
</g>
<defs>
<clipPath id="clip0_2412_400">
<rect width="16" height="16" fill="white"/>
</clipPath>
</defs>
</svg>
