<svg width="16" height="16" viewBox="0 0 16 16" fill="none" xmlns="http://www.w3.org/2000/svg">
<path fill-rule="evenodd" clip-rule="evenodd" d="M14.5569 5.72857L15.645 6.99225C16.117 7.54411 16.117 8.45589 15.653 9.00775L14.5649 10.2714C14.3569 10.5114 14.1889 10.9673 14.1889 11.2792V12.6388C14.1889 13.4866 13.4928 14.1825 12.6448 14.1825H11.2847C10.9647 14.1825 10.5167 14.3504 10.2766 14.5584L9.01256 15.6461C8.45252 16.118 7.54847 16.118 6.99643 15.6461L5.73235 14.5584C5.49234 14.3504 5.03631 14.1825 4.72429 14.1825H3.34021C2.49215 14.1825 1.79611 13.4866 1.79611 12.6388V11.2712C1.79611 10.9593 1.6281 10.5114 1.42809 10.2714L0.348022 8.99975C-0.116007 8.44789 -0.116007 7.55211 0.348022 7.00025L1.42809 5.72857C1.6281 5.48863 1.79611 5.04074 1.79611 4.72882V3.36116C1.79611 2.51337 2.49215 1.81755 3.34021 1.81755H4.72429C5.03631 1.81755 5.49234 1.64959 5.73235 1.44964L6.98843 0.353912C7.54847 -0.117971 8.45252 -0.117971 9.00456 0.353912L10.2686 1.44164C10.5087 1.64959 10.9647 1.81755 11.2767 1.81755H12.6368C13.4848 1.81755 14.1809 2.51337 14.1809 3.36116V4.72082C14.1809 5.04074 14.3489 5.48863 14.5569 5.72857ZM2.90044 9.62286V6.40187H3.63482L4.85101 8.00009H4.89598V6.40187H5.78884V9.62286H5.06116L3.83761 8.00009H3.7933V9.62286H2.90044ZM6.30134 9.62286V6.40187H8.57366V7.15187H7.24776V7.67419H8.49107V8.35277H7.24776V8.87286H8.57366V9.62286H6.30134ZM8.85625 6.40187L9.6866 9.62286H10.5795L11.0437 7.82598H11.0884L11.5638 9.62286H12.45L13.2804 6.40187H12.3071L11.9522 8.38848H11.9076L11.4321 6.40187H10.7L10.2469 8.38848H10.2022L9.83839 6.40187H8.85625Z" fill="#D0D0D0"/>
</svg>
