<svg width="32" height="32" viewBox="0 0 32 32" fill="none" xmlns="http://www.w3.org/2000/svg">
<path d="M21.0514 21.8032C20.9072 21.9474 20.7632 22.0194 20.5471 22.0915C20.403 22.0915 19.8988 22.1636 19.2506 22.1636H0.522574C0.234448 23.8215 0.0903853 25.4072 0.0183577 27.0651C-0.0536776 27.7139 0.0903856 28.4347 0.378511 29.0114C0.810692 29.4438 1.31491 29.8042 1.89115 29.9484C3.76397 30.1646 5.63672 30.2367 7.50954 30.1646H20.0429C21.9157 30.1646 23.7885 30.0925 25.6613 29.9484C26.3816 29.8042 27.0299 29.4438 27.6061 28.9393C27.9663 28.4347 28.2544 27.7859 28.3985 27.1372C28.8307 25.4793 29.1187 23.8215 29.3349 22.1636L29.623 20.0732C29.9111 17.7666 30.0552 16.325 30.0552 15.6042V15.2438C30.1272 14.4509 29.9111 13.658 29.4789 13.0092C28.8307 12.4326 27.9663 12.0722 27.0299 12.0722C25.5172 11.9281 24.0767 11.9281 22.564 11.9281H9.9586C10.0306 11.5677 10.1026 11.1351 10.1026 10.7026C10.1026 10.4864 10.2467 10.3422 10.3188 10.1981C10.4628 10.0539 10.6789 9.90978 10.895 9.90978C11.3992 9.83768 11.9755 9.83768 12.4797 9.83768H23.7165C25.013 9.83768 26.2376 9.83768 27.5341 9.69349C28.1824 9.62139 28.7586 9.47727 29.3349 9.26105C30.1992 8.75644 30.7755 7.96352 31.0636 7.02647C31.4958 5.29651 31.856 3.56662 32 1.83663H10.895C9.45439 1.76455 8.01376 1.83663 6.64515 1.98079C5.85285 1.98079 5.06048 2.26912 4.34021 2.7016C3.69195 3.35032 3.18773 4.14325 3.04362 5.00819C2.68352 6.59396 2.39537 8.25191 2.25131 9.83768L1.96319 11.856C1.60303 14.1626 1.38694 15.6042 1.31491 16.3971V17.0458C1.24288 17.7666 1.45897 18.4153 1.89115 18.992C2.5394 19.4966 3.33177 19.7849 4.19617 19.7849C4.91644 19.857 5.99689 19.9291 7.58156 19.9291H21.5556C21.5556 20.2895 21.4835 20.6499 21.4115 21.0103C21.2674 21.3707 21.1954 21.6591 21.0514 21.8032Z" fill="#E51F2D" style="fill:#E51F2D;fill:color(display-p3 0.8980 0.1216 0.1765);fill-opacity:1;"/>
</svg>
