<svg width="32" height="32" viewBox="0 0 32 32" fill="none" xmlns="http://www.w3.org/2000/svg">
<g clip-path="url(#clip0_21320_2383)">
<path fill-rule="evenodd" clip-rule="evenodd" d="M17.4068 4.23017C17.7959 4.23017 18.1098 3.91527 18.1098 3.5261V1.49213C18.1098 1.10198 17.7959 0.787074 17.4068 0.787074C17.0176 0.787074 16.7037 1.10198 16.7037 1.49213V3.5261C16.7037 3.91428 17.0186 4.23017 17.4068 4.23017Z" fill="url(#paint0_linear_21320_2383)" style=""/>
<path fill-rule="evenodd" clip-rule="evenodd" d="M14.5944 6.09628C14.9836 6.09628 15.2975 5.78139 15.2975 5.39223V3.35923C15.2975 2.96907 14.9836 2.65418 14.5944 2.65418C14.2053 2.65418 13.8913 2.96907 13.8913 3.35923V5.39223C13.8913 5.78039 14.2063 6.09628 14.5944 6.09628Z" fill="url(#paint1_linear_21320_2383)" style=""/>
<path fill-rule="evenodd" clip-rule="evenodd" d="M14.5954 1.39229C14.9836 1.39229 15.2985 1.07838 15.2985 0.689216V0.70407C15.2985 0.314901 14.9846 0 14.5954 0C14.2063 0 13.8913 0.315892 13.8913 0.70407V0.689216C13.8913 1.07838 14.2063 1.39229 14.5954 1.39229Z" fill="url(#paint2_linear_21320_2383)" style=""/>
<path fill-rule="evenodd" clip-rule="evenodd" d="M20.2201 6.63522C20.6083 6.63522 20.9232 6.32132 20.9232 5.93211V5.94799C20.9232 5.55977 20.6093 5.24391 20.2201 5.24391C19.831 5.24391 19.5161 5.55977 19.5161 5.94799V5.93211C19.5161 6.32132 19.831 6.63522 20.2201 6.63522Z" fill="url(#paint3_linear_21320_2383)" style=""/>
<path fill-rule="evenodd" clip-rule="evenodd" d="M25.852 11.8504C25.4638 11.8504 25.1489 12.1643 25.1489 12.5545V12.909C25.1241 13.2764 24.8182 13.5665 24.4458 13.5665C24.0735 13.5665 23.7418 13.2526 23.7418 12.8624V11.1077C23.7418 10.7175 23.4269 10.4036 23.0387 10.4036C22.6506 10.4036 22.3347 10.7175 22.3347 11.1077V11.1463C22.3347 11.5365 22.0198 11.8504 21.6327 11.8504C21.2454 11.8504 20.9296 11.5365 20.9296 11.1463V8.20528C20.9296 7.81512 20.6147 7.50123 20.2255 7.50123C19.8364 7.50123 19.5254 7.81512 19.5254 8.20528V9.32726C19.5195 9.72732 19.1729 10.0313 18.8194 10.0313C18.4313 10.0313 18.1163 9.71742 18.1163 9.32826V6.16243C18.1163 5.77327 17.8014 5.45832 17.4133 5.45832C17.0251 5.45832 16.7093 5.77227 16.7093 6.16243V8.91431C16.7093 9.30346 16.3943 9.61841 16.0062 9.61841C15.618 9.61841 15.3031 9.30346 15.3031 8.91431V7.92702C15.3031 7.53687 14.9882 7.22298 14.6 7.22298C14.2119 7.22298 13.896 7.53687 13.896 7.92702V10.0432C13.896 10.4334 13.5811 10.7473 13.1929 10.7473C12.8048 10.7473 12.4899 10.4324 12.4899 10.0432V7.10317C12.4899 6.71401 12.176 6.39906 11.7868 6.39906C11.3977 6.39906 11.0838 6.71401 11.0838 7.10317V11.6018C11.0838 11.991 10.7689 12.3059 10.3807 12.3059C9.99253 12.3059 9.67765 11.991 9.67765 11.6018V10.4135C9.67765 10.0234 9.36277 9.7095 8.97462 9.7095C8.58641 9.7095 8.27053 10.0234 8.27053 10.4135V13.7249C8.27053 14.1141 7.95665 14.429 7.5685 14.429C7.18029 14.429 6.86441 14.1141 6.86441 13.7249V12.6366C6.86441 12.2475 6.55052 11.9326 6.16138 11.9326C5.77223 11.9326 5.45729 12.2465 5.45729 12.6357L5.44545 13.721V25.907L15.9983 32L26.5511 25.907V18.1979C26.5511 18.186 26.5551 18.1751 26.5551 18.1623V12.5535C26.5551 12.1633 26.2402 11.8504 25.852 11.8504ZM20.9702 23.8017H17.6549V21.2786H14.3406V23.8017H11.0263V15.9006H14.3406V18.5564H17.6549V15.9006H20.9702V23.8017Z" fill="url(#paint4_linear_21320_2383)" style=""/>
</g>
<defs>
<linearGradient id="paint0_linear_21320_2383" x1="4.45521" y1="17.5771" x2="27.4284" y2="19.1118" gradientUnits="userSpaceOnUse">
<stop stop-color="#EE374C" style="stop-color:#EE374C;stop-color:color(display-p3 0.9333 0.2157 0.2980);stop-opacity:1;"/>
<stop offset="1" stop-color="#F99828" style="stop-color:#F99828;stop-color:color(display-p3 0.9765 0.5961 0.1569);stop-opacity:1;"/>
</linearGradient>
<linearGradient id="paint1_linear_21320_2383" x1="4.45521" y1="17.5771" x2="27.4284" y2="19.1118" gradientUnits="userSpaceOnUse">
<stop stop-color="#EE374C" style="stop-color:#EE374C;stop-color:color(display-p3 0.9333 0.2157 0.2980);stop-opacity:1;"/>
<stop offset="1" stop-color="#F99828" style="stop-color:#F99828;stop-color:color(display-p3 0.9765 0.5961 0.1569);stop-opacity:1;"/>
</linearGradient>
<linearGradient id="paint2_linear_21320_2383" x1="4.45521" y1="17.5771" x2="27.4284" y2="19.1118" gradientUnits="userSpaceOnUse">
<stop stop-color="#EE374C" style="stop-color:#EE374C;stop-color:color(display-p3 0.9333 0.2157 0.2980);stop-opacity:1;"/>
<stop offset="1" stop-color="#F99828" style="stop-color:#F99828;stop-color:color(display-p3 0.9765 0.5961 0.1569);stop-opacity:1;"/>
</linearGradient>
<linearGradient id="paint3_linear_21320_2383" x1="4.45521" y1="17.5771" x2="27.4284" y2="19.1118" gradientUnits="userSpaceOnUse">
<stop stop-color="#EE374C" style="stop-color:#EE374C;stop-color:color(display-p3 0.9333 0.2157 0.2980);stop-opacity:1;"/>
<stop offset="1" stop-color="#F99828" style="stop-color:#F99828;stop-color:color(display-p3 0.9765 0.5961 0.1569);stop-opacity:1;"/>
</linearGradient>
<linearGradient id="paint4_linear_21320_2383" x1="4.45521" y1="17.5771" x2="27.4284" y2="19.1118" gradientUnits="userSpaceOnUse">
<stop stop-color="#EE374C" style="stop-color:#EE374C;stop-color:color(display-p3 0.9333 0.2157 0.2980);stop-opacity:1;"/>
<stop offset="1" stop-color="#F99828" style="stop-color:#F99828;stop-color:color(display-p3 0.9765 0.5961 0.1569);stop-opacity:1;"/>
</linearGradient>
<clipPath id="clip0_21320_2383">
<rect width="32" height="32" fill="white" style="fill:white;fill-opacity:1;"/>
</clipPath>
</defs>
</svg>
