<svg width="16" height="16" viewBox="0 0 16 16" fill="none" xmlns="http://www.w3.org/2000/svg">
<g clip-path="url(#clip0_2002_443)">
<path fill-rule="evenodd" clip-rule="evenodd" d="M11.7306 0H13.2816C15.0612 0 16 0.938776 16 2.71837V4.26939C16 6.04898 15.0612 6.98776 13.2816 6.98776H11.7306C9.95103 6.98776 9.01225 6.04898 9.01225 4.26939V2.71837C9.01225 0.938776 9.95103 0 11.7306 0ZM4.27755 9.00408C6.05715 9.00408 6.99592 9.94285 6.98776 11.7306V13.2816C6.98776 15.0612 6.04898 16 4.26939 16H2.71837C0.938776 16 0 15.0612 0 13.2735V11.7224C0 9.94285 0.938776 9.00408 2.72653 9.00408H4.27755ZM3.50204 7.00409C5.43617 7.00409 7.00409 5.43617 7.00409 3.50204C7.00409 1.56792 5.43617 0 3.50204 0C1.56792 0 0 1.56792 0 3.50204C0 5.43617 1.56792 7.00409 3.50204 7.00409ZM16 12.498C16 14.4321 14.4321 16 12.498 16C10.5639 16 8.99594 14.4321 8.99594 12.498C8.99594 10.5638 10.5639 8.99591 12.498 8.99591C14.4321 8.99591 16 10.5638 16 12.498Z" fill="#D0D0D0"/>
</g>
<defs>
<clipPath id="clip0_2002_443">
<rect width="16" height="16" fill="white"/>
</clipPath>
</defs>
</svg>
