<svg width="32" height="32" viewBox="0 0 32 32" fill="none" xmlns="http://www.w3.org/2000/svg">
<g clip-path="url(#clip0_21320_1940)">
<path d="M31.2535 14.9325C31.2415 14.3609 31.0722 13.5406 30.9483 13.0541C30.8725 12.7526 31.0362 12.8867 31.2091 13.3972C31.0417 12.6203 30.7754 11.7888 30.7171 11.7888C30.6551 11.7888 30.6903 11.9091 30.6792 11.959C30.6348 11.8508 30.5737 11.59 30.5007 11.4022C30.41 11.1766 30.3129 11.0443 30.3804 11.2496C30.5062 11.6214 30.9955 13.5914 31.0482 13.9401C30.9955 13.7524 30.9372 13.5387 30.8956 13.3926C30.3795 11.5844 29.7617 10.1546 28.9561 8.66551C29.0181 8.71823 29.0467 8.74135 29.0847 8.7765C29.093 8.69141 29.0995 8.62389 29.1115 8.51568C29.2752 8.75338 29.4195 8.955 29.5601 9.16032C29.2696 8.38343 28.7545 7.73046 28.329 7.05622C28.3115 7.08582 28.2967 7.10894 28.2736 7.14409C27.7843 6.46707 27.1276 5.90197 26.8613 5.10195C26.8492 5.1371 26.8409 5.15744 26.8317 5.18426C26.7965 4.78842 26.2804 5.02056 26.3332 4.61269C26.6319 4.76807 27.1304 5.17502 27.3709 5.39514C27.6086 5.61156 27.714 5.61526 27.7991 5.62358C27.8722 5.63191 27.714 5.49502 27.7639 5.45063C27.8287 5.39514 28.4668 6.2414 28.7924 6.60858C27.8925 4.59789 25.4961 3.86538 23.811 2.57888C19.391 -0.291027 13.4486 -1.02908 8.71881 1.71596C8.50793 1.83897 8.2203 2.02117 8.09729 2.10256C7.9715 2.1821 8.24342 2.09701 8.25544 2.10811C8.12688 2.19598 8.0122 2.27552 7.87439 2.3717C7.73381 2.46882 8.02977 2.39852 7.96225 2.44477C7.89196 2.49471 7.63115 2.85542 7.9826 2.62327C8.33406 2.39205 8.73268 2.12846 8.94355 2.12846C9.15443 2.12846 8.10284 2.72038 7.71531 2.97195C7.10859 3.3678 6.56939 3.71925 6.22348 3.9625C5.93307 4.16782 5.63433 4.37592 5.56959 4.32875C5.45491 4.24366 5.86278 3.90978 5.91272 3.83394C5.99226 3.7137 5.4734 4.04759 5.59364 3.9218C5.71387 3.79602 6.36684 3.17727 6.79506 2.85542C7.08824 2.63252 7.26952 2.50119 7.26397 2.40685C7.25472 2.31344 6.96246 2.46512 6.64523 2.63807C4.35337 3.89776 3.55983 6.55864 2.52211 8.76263C2.61552 8.75708 2.69229 8.7506 2.80882 8.74228C2.5628 9.26669 2.24927 9.73283 2.2021 10.3016C2.31956 10.2165 2.38338 10.0991 2.52488 10.0556C2.58038 10.2406 2.47494 10.4098 2.43425 10.5856C2.44904 10.5883 2.46107 10.5939 2.47217 10.5976C2.54246 10.4098 2.61275 10.2221 2.68026 10.038C2.73853 10.0436 2.7857 10.0464 2.84397 10.0528C2.65067 11.4568 2.50084 12.8487 2.11979 14.2231L2.13736 14.2055C1.80903 15.2164 2.24002 16.2162 2.11054 17.2909H2.07262C1.98198 16.7638 1.79423 16.2477 1.90891 15.6937C1.89134 15.7168 1.87377 15.7408 1.82937 15.7936C1.81458 15.6437 1.797 15.5032 1.78221 15.369C1.77018 15.2664 1.63607 15.2664 1.6444 15.357C1.69434 15.9194 1.56208 16.4734 1.73504 17.0449C1.75816 16.9654 1.77943 16.884 1.79053 16.8461C1.96903 17.6933 2.42315 19.7299 2.30014 19.4718C2.17713 19.2138 2.10406 18.8503 2.00418 18.5395C2.12996 19.6438 2.52581 20.6871 2.92443 21.7165C2.89206 21.7193 2.80142 21.6434 2.73113 21.4788C2.69044 21.3789 2.585 21.3817 2.60257 21.4437C2.67286 21.6666 2.86616 22.0208 2.96605 22.2289C2.91056 22.0532 2.84859 21.8423 2.86617 21.8127C3.11496 22.1059 3.38225 22.683 3.54873 22.991C3.71521 23.299 4.30805 24.3506 3.91498 23.7993C3.52191 23.2481 2.68674 22.1345 2.28534 21.1884C2.16511 20.91 2.09481 20.4938 2.03655 20.491C1.97828 20.4883 1.98938 20.6168 1.98105 20.664C1.94313 20.6113 1.93666 20.3532 1.89042 20.3708C1.8081 20.4004 2.12441 21.5343 2.031 21.3789C1.94036 21.2235 1.76741 20.5142 1.72949 20.3033C1.76186 20.7574 1.89319 21.1708 1.88209 21.2818C1.50104 20.6779 1.67399 20.0277 1.67399 19.7049C1.68324 19.9037 1.72116 20.1155 1.77943 20.2441C1.73226 19.8926 1.80255 19.5199 1.78775 19.4117C1.77573 19.3035 1.62405 19.3913 1.63237 19.5199C1.60278 19.4524 1.59445 19.3349 1.55653 19.3442C1.52139 19.3497 1.52139 19.4764 1.51584 19.5523C1.49549 19.5227 1.49272 19.47 1.46867 19.4875C1.44185 19.5023 1.46035 19.8131 1.38636 19.7632C1.34566 19.74 1.38358 19.482 1.38636 19.2563C1.38913 19.0482 1.35954 18.8697 1.31884 18.8845C1.23098 18.9141 1.30404 19.0195 1.27815 19.3414C1.25502 19.6346 1.00253 19.2092 1.02288 19.4034C1.0312 19.4737 0.955362 19.7021 1.01363 19.9685C1.06912 20.2348 1.00161 20.6362 1.06912 20.5632C1.13664 20.4929 1.10982 20.4457 1.15976 20.4078C1.17456 20.4281 1.16531 20.4901 1.20416 20.4698C1.24208 20.4466 1.23375 20.3643 1.2541 20.2913C2.388 26.9079 8.53013 29.9405 14.4114 31.7431C14.3643 31.7635 14.3319 31.7783 14.3005 31.7931C21.4479 33.1702 28.7822 27.4471 30.7189 20.8684C30.7689 20.6954 30.8863 20.0249 30.965 19.5412C30.7041 20.4087 30.5229 20.3847 30.5284 20.3236C30.5987 19.7437 30.6782 19.3479 30.8244 19.0778C31.2433 18.4212 30.9853 16.748 30.8567 16.663C30.7569 16.5982 30.7189 16.7453 30.7106 16.7453C30.7226 16.613 30.7578 16.1765 30.6579 16.3873C30.5821 16.5427 30.8392 20.3995 29.5323 22.0485C29.4796 21.0053 30.0419 20.0064 30.3471 18.9918C30.3388 18.989 30.3296 18.9863 30.324 18.9835C30.2445 19.1093 30.1686 19.2387 30.0835 19.3793C30.0743 19.3386 30.066 19.309 30.0604 19.2822C29.955 19.3442 29.9726 19.5199 29.8024 19.5282C29.8403 19.3146 29.8782 19.112 29.9134 18.9095C29.0662 20.4476 28.773 22.4 27.6308 23.8178C27.4347 24.0611 27.7861 23.2204 27.9915 22.6543C28.1764 22.1558 28.1413 21.9338 27.7982 22.5572C27.3968 23.2897 26.6522 24.1869 26.04 24.7547C23.8711 26.7654 21.3573 28.5699 18.2626 28.6781V28.6984H18.5355C16.338 28.9537 13.7853 28.7539 11.7459 27.8105C11.7487 27.8013 11.7552 27.7957 11.758 27.7902C12.0456 27.8929 12.6551 28.2147 12.6311 28.063C12.6218 27.9983 11.8514 27.7615 11.043 27.3832C9.93872 26.8644 8.69569 26.167 8.61337 26.0995C8.47001 25.9821 8.7595 26.2808 8.7484 26.2928C7.19553 25.2144 6.11434 23.4793 5.28473 21.7211C5.15894 21.4575 4.94807 21.2642 4.82506 20.9683C4.7372 20.7574 4.6928 20.3643 4.71685 20.3292C4.81674 20.1655 4.57349 20.0008 4.59107 20.2644C4.59662 20.3726 4.76124 21.0441 4.87223 21.3576C4.9194 21.4899 4.76402 21.2198 4.70483 21.0617C4.31175 20.0101 4.27661 19.8223 4.19244 19.4441C4.19244 20.5132 4.98969 22.2076 5.1127 22.5036C4.94252 22.3861 4.6965 22.0495 4.58274 21.7063C4.69743 22.1105 4.81674 22.4481 4.80841 22.5794C4.22851 21.5454 3.76792 19.3118 3.62734 19.3118C3.48953 19.3201 3.63012 19.666 3.64214 19.8334C3.30548 19.3266 3.09091 17.721 3.21392 17.3104C3.30456 15.4763 3.5922 13.5979 4.23684 11.8684C4.23684 11.8656 4.23684 11.8591 4.23961 11.8564C4.24239 11.8443 4.24886 11.8332 4.25164 11.8212C4.80286 10.3534 5.61121 8.99292 6.77193 7.86827C6.76361 7.86272 6.75436 7.85347 6.74511 7.84792C6.53979 8.0292 6.33817 8.20862 6.13284 8.38713C6.37054 7.59635 7.22883 7.18293 7.54513 6.4828C7.53034 6.47355 7.51831 6.46522 7.50444 6.45597C7.67462 6.30059 7.84757 6.14521 8.04364 5.96394C7.69774 6.12209 7.52756 6.48557 7.13819 6.50869C8.13428 5.38034 9.59652 4.41661 10.7045 3.76272C10.6019 3.82469 10.6111 4.02354 10.8127 4.09383C10.9977 4.15857 11.1411 3.81822 11.3843 3.72203C12.8965 3.11808 14.5289 3.19207 16.0235 3.47879C14.4179 2.90443 12.361 3.08016 11.9152 3.1856C12.3989 2.94513 13.1083 2.97473 13.3802 2.95993C18.025 2.71946 22.4376 5.76139 25.1308 9.45351C25.2806 9.65884 25.5905 10.1481 25.7107 10.5088C25.7607 10.6614 26.039 11.1507 26.1352 11.0804C26.2323 11.0101 26.077 10.6207 25.88 10.3858C25.6108 10.0667 25.449 9.67641 25.1151 9.07616C25.4258 9.44519 25.6691 9.73283 25.9327 10.0491C25.3232 8.9883 23.7934 7.453 23.6325 7.01645C24.5121 7.65832 25.1826 8.49071 25.7422 9.39617C26.2434 10.211 26.7503 11.2866 27.0583 11.9368C27.0962 12.0191 27.1202 12.0654 27.1313 12.0802C27.1045 11.9868 26.6744 10.9814 26.668 10.9814C26.4071 10.1555 25.9502 9.37305 25.5664 8.56933C25.8152 8.78297 25.7828 8.78575 25.8568 8.71916C25.9299 8.65164 25.4434 8.05139 25.3528 7.66109C25.6691 8.15313 25.9854 8.64887 26.3202 9.17327C26.2444 8.98552 26.1824 8.82737 26.1177 8.66921C26.1269 8.66644 26.1352 8.66089 26.1445 8.65719C26.5403 9.14645 26.9325 9.63571 27.3255 10.125C26.9621 9.36935 26.3581 8.7506 25.9983 8.0181C26.0215 8.00607 26.0427 7.99775 26.0631 7.98573C26.3997 8.53696 27.1415 9.23986 27.3052 9.45351C27.4689 9.66716 26.9565 8.77095 27.1702 9.01697C27.3838 9.26299 27.7121 9.7319 27.7824 9.83456C27.8527 9.93722 27.9082 9.94 27.8176 9.80774C27.7269 9.67548 27.1258 8.81442 26.7799 8.31591C26.7919 8.30758 26.803 8.29834 26.815 8.28909C27.7001 9.44056 28.5408 10.6512 29.0394 12.0228C28.5177 9.9511 27.0055 8.31036 25.781 6.60488C26.4025 7.09692 26.8298 7.75636 27.3514 8.33071C27.3607 8.32146 27.3718 8.31591 27.3838 8.30759C27.3108 8.17255 27.2377 8.03475 27.1637 7.90064C28.3272 8.91153 29.1152 11.7398 29.192 11.9239C29.265 12.1051 29.1392 11.54 29.0514 11.1534C28.9635 10.7668 29.1133 10.8723 29.1096 11.1414C29.1059 11.4106 29.5138 12.1875 29.2733 12.6009C29.253 12.5685 29.2354 12.5361 29.2003 12.4751C29.3964 13.0698 29.3233 13.6858 29.5545 14.2305C29.6655 15.148 29.6045 16.0646 29.5517 16.9765C29.5601 16.9765 29.5721 16.9737 29.5813 16.9737C29.6165 16.6926 29.6544 16.4114 29.6895 16.133H29.7275V16.4586C29.7802 15.9573 29.6923 15.4097 29.8736 14.9492C29.906 15.2155 29.9383 15.4828 29.9735 15.7464C29.9938 15.7464 30.0142 15.7436 30.0354 15.7408C30.1437 14.6217 30.0234 13.5082 29.9097 12.3946C29.9272 12.3919 29.942 12.3919 29.9568 12.3891C29.98 12.5417 30.004 12.6906 30.0299 12.8756C30.0595 12.8053 30.0743 12.7674 30.0946 12.7202C30.2297 13.0781 30.2759 13.4555 30.5136 13.7635C30.4433 13.3528 30.5404 12.9607 30.5432 12.55C30.7282 13.0217 30.816 13.9244 30.854 14.0067C30.8919 14.089 30.8947 13.942 30.8836 13.9133C31.0121 14.2943 31.1065 15.4282 31.112 15.2525C31.1203 15.0768 31.124 14.7512 31.0741 14.1482C31.112 14.2805 31.1888 14.5024 31.2526 14.9307L31.2535 14.9325ZM27.259 25.5141C27.0213 25.6898 26.9954 25.6926 27.2886 25.3263C27.5817 24.9601 28.2236 23.9399 28.4668 23.5006C28.7101 23.0613 28.4225 24.0398 28.6454 23.6384C28.8655 23.237 29.0209 23.0493 29.278 22.0855C29.3011 22.3907 28.9848 23.6236 28.5806 24.3182C28.1792 25.0156 27.3968 25.8331 27.1036 26.1735C26.8104 26.5166 27.6428 25.4058 27.9471 25.0276C28.2523 24.6493 28.4308 24.3182 28.4946 24.16C28.1838 24.5938 27.492 25.3383 27.258 25.5141H27.259ZM5.45675 23.2721C5.82856 24.2858 7.37588 25.8424 8.12318 26.2373C6.89494 25.7101 5.8711 24.9832 5.7 24.6474C5.58994 24.431 5.76844 24.4726 5.92752 24.6613C6.0866 24.85 6.17631 24.9471 6.43898 25.1062C5.81746 24.3062 5.54184 23.7818 5.45675 23.2721ZM10.3041 1.79273C9.9378 1.90741 9.60669 2.00915 10.0349 1.77793C10.4187 1.57261 11.2687 1.2711 11.4269 1.43202C11.585 1.59018 10.6712 1.67527 10.305 1.79273H10.3041ZM22.9601 5.73364C23.7102 5.86868 23.8304 6.72419 24.082 6.96188C23.6131 6.52812 23.1414 6.04718 22.9601 5.73364ZM25.252 6.85922C25.0966 6.73066 25.0355 6.51054 25.0355 6.51054C25.153 6.59841 25.4221 6.93229 25.4693 6.98778C25.5165 7.04327 25.4046 6.98778 25.2529 6.85922H25.252Z" fill="#BE1622" style="fill:#BE1622;fill:color(display-p3 0.7451 0.0863 0.1333);fill-opacity:1;"/>
<path d="M3.94913 13.2578C4.04809 12.7806 4.14706 12.3043 4.24509 11.827C4.25804 11.8298 4.27099 11.8326 4.28486 11.8354C4.1933 12.3181 4.10174 12.8 4.01017 13.2828C3.98983 13.2745 3.96948 13.2661 3.94913 13.2587V13.2578Z" fill="#BE1622" style="fill:#BE1622;fill:color(display-p3 0.7451 0.0863 0.1333);fill-opacity:1;"/>
<path d="M2.12265 14.2228C2.08843 13.8529 2.12728 13.4885 2.19942 13.1269C2.21237 13.1278 2.22531 13.1296 2.23826 13.1306C2.20034 13.495 2.1615 13.8584 2.12358 14.2228H2.12265Z" fill="#BE1622" style="fill:#BE1622;fill:color(display-p3 0.7451 0.0863 0.1333);fill-opacity:1;"/>
<path d="M28.2445 21.3881C28.1335 21.5944 27.9976 21.9837 28.2445 21.7729C28.4914 21.562 28.3573 21.1782 28.2445 21.3881Z" fill="#BE1622" style="fill:#BE1622;fill:color(display-p3 0.7451 0.0863 0.1333);fill-opacity:1;"/>
<path d="M30.157 18.7043C30.2458 18.462 30.1728 17.9635 30.2939 18.2641C30.4151 18.5656 30.0155 19.0881 30.157 18.7043Z" fill="#BE1622" style="fill:#BE1622;fill:color(display-p3 0.7451 0.0863 0.1333);fill-opacity:1;"/>
<path d="M0.995568 19.2775C1.06863 19.4245 1.01314 18.6125 0.891056 18.618C0.768972 18.6236 0.713479 18.7096 0.768047 18.9473C0.82354 19.185 0.936375 19.1582 0.995568 19.2766V19.2775Z" fill="#BE1622" style="fill:#BE1622;fill:color(display-p3 0.7451 0.0863 0.1333);fill-opacity:1;"/>
<path d="M1.20647 18.4756C1.16577 18.3721 1.01872 18.0409 1.06866 17.9716C1.1186 17.9022 1.18335 17.93 1.22867 18.0816C1.27398 18.2333 1.25179 18.594 1.20554 18.4756H1.20647Z" fill="#BE1622" style="fill:#BE1622;fill:color(display-p3 0.7451 0.0863 0.1333);fill-opacity:1;"/>
<path d="M3.38283 18.6894C3.39855 18.6255 3.46145 18.4202 3.4189 18.3897C3.37636 18.3592 3.33474 18.3832 3.32086 18.4739C3.30699 18.5645 3.36526 18.7615 3.38283 18.6894Z" fill="#BE1622" style="fill:#BE1622;fill:color(display-p3 0.7451 0.0863 0.1333);fill-opacity:1;"/>
<path d="M1.32016 17.644C1.4441 17.6357 1.35531 17.7901 1.28872 17.8503C1.25357 17.8826 1.17588 17.6533 1.32016 17.644Z" fill="#BE1622" style="fill:#BE1622;fill:color(display-p3 0.7451 0.0863 0.1333);fill-opacity:1;"/>
<path d="M1.69935 19.0677C1.79739 19.0926 1.7308 19.1833 1.67993 19.211C1.65311 19.2258 1.58467 19.0381 1.69935 19.0677Z" fill="#BE1622" style="fill:#BE1622;fill:color(display-p3 0.7451 0.0863 0.1333);fill-opacity:1;"/>
<path d="M27.4046 11.8649C27.3131 11.641 27.5591 12.0905 27.7126 12.5114C27.8042 12.7602 27.8874 12.9683 27.8421 13.095C27.7616 13.3225 27.6192 12.3884 27.4046 11.8658V11.8649Z" fill="#BE1622" style="fill:#BE1622;fill:color(display-p3 0.7451 0.0863 0.1333);fill-opacity:1;"/>
<path d="M27.6201 10.6094C27.7828 10.9082 27.8873 11.0673 27.9512 11.0395C28.015 11.0118 28.0427 10.8749 27.9512 10.7556C27.8596 10.6363 27.5285 10.4402 27.6201 10.6094Z" fill="#BE1622" style="fill:#BE1622;fill:color(display-p3 0.7451 0.0863 0.1333);fill-opacity:1;"/>
<path d="M30.304 17.6703C30.3142 17.7785 30.1107 17.7738 30.1431 17.6545C30.1754 17.5352 30.2929 17.5528 30.304 17.6703Z" fill="#BE1622" style="fill:#BE1622;fill:color(display-p3 0.7451 0.0863 0.1333);fill-opacity:1;"/>
<path d="M30.894 19.5233C30.9412 19.3614 30.7932 19.3346 30.7793 19.4844C30.7645 19.6481 30.8468 19.6851 30.894 19.5233Z" fill="#BE1622" style="fill:#BE1622;fill:color(display-p3 0.7451 0.0863 0.1333);fill-opacity:1;"/>
<path d="M29.9045 18.6487C29.948 18.8652 29.6511 19.0446 29.6668 18.7634C29.6826 18.4823 29.8564 18.412 29.9045 18.6487Z" fill="#BE1622" style="fill:#BE1622;fill:color(display-p3 0.7451 0.0863 0.1333);fill-opacity:1;"/>
<path d="M7.26055 2.14703C7.39281 2.06842 7.6712 1.93801 7.62588 1.852C7.58056 1.76598 7.35489 1.93431 7.26055 2.02865C7.16622 2.12299 7.12922 2.22657 7.26055 2.14796V2.14703Z" fill="#BE1622" style="fill:#BE1622;fill:color(display-p3 0.7451 0.0863 0.1333);fill-opacity:1;"/>
<path d="M4.55827 19.9732C4.47688 19.9307 4.5444 19.8317 4.59527 19.8632C4.64613 19.8946 4.66371 20.0278 4.55827 19.9732Z" fill="#BE1622" style="fill:#BE1622;fill:color(display-p3 0.7451 0.0863 0.1333);fill-opacity:1;"/>
<path d="M27.3703 11.4774C27.3426 11.3756 27.6376 11.6365 27.5646 11.7613C27.4915 11.8862 27.4157 11.6392 27.3703 11.4774Z" fill="#BE1622" style="fill:#BE1622;fill:color(display-p3 0.7451 0.0863 0.1333);fill-opacity:1;"/>
<path d="M10.3554 4.30483C10.2398 4.3631 10.1131 4.45096 10.2454 4.48333C10.3776 4.5157 10.4969 4.44634 10.5247 4.34552C10.5524 4.24471 10.4729 4.24564 10.3554 4.3039V4.30483Z" fill="#BE1622" style="fill:#BE1622;fill:color(display-p3 0.7451 0.0863 0.1333);fill-opacity:1;"/>
</g>
<defs>
<clipPath id="clip0_21320_1940">
<rect width="32" height="32" fill="white" style="fill:white;fill-opacity:1;"/>
</clipPath>
</defs>
</svg>
