<svg width="32" height="32" viewBox="0 0 32 32" fill="none" xmlns="http://www.w3.org/2000/svg">
<g clip-path="url(#clip0_21320_2315)">
<path d="M6.59597 22.7941C6.63746 22.7941 6.67776 22.7941 6.71926 22.7941C7.08794 22.7941 7.33334 22.6294 7.45663 22.2571C7.62023 21.7616 7.78383 21.2649 7.94861 20.8096C8.4809 19.3621 9.01437 17.9158 9.54666 16.428C9.62846 16.1803 9.75175 16.0558 10.0386 16.0973C10.5709 16.1388 11.1044 16.1388 11.6367 16.0973C12.0872 16.0558 12.0872 16.2621 12.0054 16.5928C11.76 17.6681 11.5549 18.7421 11.3083 19.8174C11.185 20.3129 11.3498 20.5204 11.8406 20.5204C12.4144 20.5204 12.9467 20.5204 13.5204 20.5204C13.7658 20.5204 13.8476 20.4789 13.8891 20.1896C14.0124 18.9496 14.176 17.7096 14.2993 16.4695C14.3408 16.2633 14.3408 16.0558 14.668 16.0973C14.9952 16.1388 14.8316 16.3451 14.8316 16.511C14.7901 17.751 14.7083 18.9911 14.6265 20.2311C14.6265 20.4374 14.668 20.5204 14.8719 20.5204C15.6093 20.5204 16.3466 20.5204 17.084 20.5204C17.2891 20.5204 17.3294 20.4789 17.3294 20.2311C17.2476 18.9911 17.2061 17.7096 17.1243 16.4695C17.1243 16.3451 17.001 16.1388 17.2879 16.0973C17.5748 16.0973 17.6566 16.1803 17.6566 16.428C17.7799 17.7096 17.9435 18.9496 18.0668 20.2311C18.1083 20.4374 18.1901 20.5204 18.394 20.5204C18.9678 20.5204 19.5415 20.5204 20.1153 20.5204C20.5658 20.5204 20.7294 20.3141 20.6476 19.8589C20.4022 18.7421 20.1971 17.6266 19.9505 16.5098C19.909 16.2621 19.909 16.1376 20.2374 16.1376C20.7697 16.1791 21.3435 16.1791 21.8758 16.1376C22.203 16.1376 22.3263 16.2621 22.4496 16.5513C22.8597 17.7914 23.3102 19.0314 23.7607 20.2311C23.884 20.5204 24.2112 20.6863 24.5396 20.5619C24.8265 20.4374 24.5396 20.2311 24.4981 20.0663C24.4981 19.9015 24.3748 19.7771 24.3748 19.6111C24.293 19.2388 24.1294 18.9496 23.7607 18.8666C23.6374 18.8251 23.5153 18.7421 23.4335 18.6188C23.1881 18.2051 23.2699 17.6681 23.6386 17.3788C24.0073 17.0481 24.6214 17.0481 24.9913 17.3373C25.3599 17.6266 25.4832 18.1233 25.1963 18.5358C25.0731 18.7006 25.0731 18.8666 25.1549 19.0314C25.4002 19.6929 25.6468 20.3544 25.8922 21.0159C26.0155 21.3881 25.9337 21.5529 25.5235 21.5529C25.1548 21.5529 24.8265 21.5529 24.4578 21.5529C24.2942 21.5529 24.2527 21.5944 24.2942 21.7592C24.5396 22.627 24.6629 22.7515 25.6053 22.7929C25.8104 22.7929 26.0558 22.7929 26.2609 22.7929C26.5478 22.7929 26.7529 22.6685 26.9165 22.4207C27.1619 21.9655 27.4488 21.5114 27.6539 21.0562C28.6781 18.7824 28.8417 16.3854 28.2276 13.9871C28.1044 13.3256 27.8175 12.7056 27.5306 12.0856C26.2609 9.27478 24.1709 7.33176 21.385 6.17353C18.8445 5.09829 16.1819 4.80903 13.4778 5.30575C11.2265 5.72067 9.30007 6.54696 7.66172 7.86997C6.84255 8.53147 5.4899 9.81299 4.50713 11.756C4.09695 12.542 3.85155 13.2853 3.68677 13.782C3.68677 13.865 3.64528 13.9468 3.64528 14.0713C3.52317 14.6913 3.23628 15.9313 3.31808 17.3373C3.39988 18.7848 3.81006 20.1896 4.46564 21.5541C5.12121 22.8356 5.16271 22.8356 6.59597 22.7941ZM12.8648 19.0326C12.3326 19.0326 11.8406 18.5773 11.8406 18.0818C11.8406 17.5863 12.2911 17.131 12.8648 17.131C13.4386 17.131 13.8891 17.5448 13.9306 18.0818C13.9306 18.5358 13.4386 19.0326 12.8648 19.0326ZM15.9791 18.9911C15.4054 18.9911 14.9549 18.5773 14.9549 18.0403C14.9549 17.5448 15.4469 17.0895 15.9791 17.0895C16.5529 17.0895 17.0034 17.5448 17.0034 18.0403C17.0437 18.5773 16.5529 18.9911 15.9791 18.9911ZM20.1177 18.0403C20.1177 18.5358 19.6672 18.9911 19.0934 19.0326C18.5611 19.0326 18.0277 18.6188 18.0277 18.1233C18.0277 17.5863 18.4782 17.131 19.0519 17.131C19.666 17.0895 20.1177 17.5021 20.1177 18.0403ZM23.1905 15.725C22.8633 15.7665 22.5349 15.725 22.2077 15.725C17.9056 15.725 13.6449 15.725 9.34275 15.725C8.81047 15.725 8.31849 15.6836 7.7862 15.5603C6.76193 15.3125 5.90127 14.8158 5.32749 13.865C5.32749 13.6172 5.45078 13.782 5.53258 13.782C6.14548 14.0298 6.75956 14.2776 7.33334 14.5668C7.66054 14.7316 7.94743 14.7316 8.27581 14.5668C9.34157 14.1128 10.4476 13.699 11.5134 13.2853C11.7588 13.1608 12.0054 13.1608 12.2923 13.2853C13.3983 13.7405 14.5044 14.1531 15.6105 14.6083C15.8558 14.7328 16.1024 14.7328 16.3893 14.6083C17.4551 14.1946 18.5197 13.782 19.5854 13.3268C19.9126 13.2023 20.1592 13.2023 20.4864 13.3268C21.5106 13.7405 22.5764 14.1531 23.6007 14.5668C23.9279 14.6913 24.2562 14.6913 24.5834 14.5668C25.1975 14.319 25.8128 14.0713 26.4269 13.8223C26.5087 13.7808 26.632 13.6575 26.632 13.9053C25.8531 15.1465 24.5834 15.5591 23.1905 15.725ZM12.9466 8.15923C14.9134 6.13322 17.576 6.46398 19.2973 8.48998C20.0347 9.35776 20.567 10.3085 20.9772 11.4253C17.659 11.4253 14.3396 11.4253 10.9799 11.4253C11.4304 10.1852 12.0457 9.0685 12.9466 8.15923ZM6.39088 11.839C9.58696 11.839 12.7831 11.839 15.978 11.839C19.2143 11.839 22.4519 11.839 25.6883 11.839C25.8519 11.839 26.057 11.839 26.2206 11.8805C26.5075 12.005 26.5893 12.1698 26.6308 12.459C26.7126 13.162 26.3854 13.4098 25.8116 13.5757C25.1975 13.7405 24.6238 14.1543 24.05 14.1543C23.4762 14.1543 22.9024 13.7405 22.3286 13.5343C21.7146 13.328 21.0993 13.079 20.4852 12.8313C20.158 12.7068 19.8296 12.7068 19.5024 12.8313C18.4367 13.2865 17.3721 13.699 16.3063 14.1128C16.0609 14.1958 15.8962 14.1958 15.6508 14.1128C14.585 13.6575 13.5204 13.245 12.4547 12.8313C12.086 12.6665 11.7576 12.6665 11.3889 12.8313C10.3243 13.2853 9.21827 13.6575 8.1537 14.1128C7.94861 14.1958 7.74352 14.1958 7.49813 14.1128C6.88286 13.865 6.26877 13.6161 5.6535 13.4098C5.4081 13.3268 5.3263 13.2035 5.3263 12.9142C5.3263 11.8805 5.36661 11.839 6.39088 11.839ZM-0.000114441 26.845C1.02415 26.225 2.13022 25.9357 3.23628 25.6464C6.84255 24.8201 10.4891 24.4064 14.1357 24.3234C14.5459 24.3234 14.6277 24.1989 14.6277 23.8279C14.5862 22.7941 14.6277 22.7941 13.6034 22.7941C13.0711 22.7941 12.5377 22.7941 12.0054 22.7941C11.5134 22.7941 11.2265 22.5464 11.2265 22.1741C11.2265 21.8019 11.5134 21.5541 12.0054 21.5541C14.6692 21.5541 17.2903 21.5541 19.9541 21.5541C20.4864 21.5541 20.7733 21.8019 20.7733 22.2156C20.7733 22.5879 20.4864 22.8356 19.9541 22.8356C19.2167 22.8356 18.4379 22.8356 17.7005 22.8356C17.4551 22.8356 17.3733 22.8771 17.3733 23.1249C17.4148 23.4971 17.25 23.9927 17.4551 24.2416C17.6187 24.4894 18.1521 24.3246 18.4793 24.3661C22.1674 24.5309 25.814 24.9031 29.4191 25.8539C30.1979 26.0602 30.9353 26.3091 31.6312 26.6399C31.7545 26.6814 31.9181 26.7229 31.9999 26.9291C21.3056 25.0264 10.6527 25.1912 -0.000114441 26.845Z" fill="url(#paint0_linear_21320_2315)" style=""/>
</g>
<defs>
<linearGradient id="paint0_linear_21320_2315" x1="32.491" y1="10.2955" x2="32.491" y2="27.0428" gradientUnits="userSpaceOnUse">
<stop stop-color="#FFAD0F" style="stop-color:#FFAD0F;stop-color:color(display-p3 1.0000 0.6784 0.0588);stop-opacity:1;"/>
<stop offset="1" stop-color="#F91E13" style="stop-color:#F91E13;stop-color:color(display-p3 0.9765 0.1176 0.0745);stop-opacity:1;"/>
</linearGradient>
<clipPath id="clip0_21320_2315">
<rect width="32" height="32" fill="white" style="fill:white;fill-opacity:1;"/>
</clipPath>
</defs>
</svg>
