<svg width="32" height="32" viewBox="0 0 32 32" fill="none" xmlns="http://www.w3.org/2000/svg">
<g clip-path="url(#clip0_21320_2187)">
<path fill-rule="evenodd" clip-rule="evenodd" d="M27.4051 5.21941C26.3785 3.63643 21.758 2.69515 16.0253 2.69515C10.2926 2.69515 5.67207 3.63643 4.64549 5.21941C3.66722 6.75713 3.97293 9.80813 4.30432 13.1129C4.3783 13.8533 4.45412 14.6066 4.51709 15.3583C4.85949 19.4652 5.71487 25.4547 7.04104 27.123C8.19663 28.5776 12.3464 29.3477 16.0253 29.3477C19.7042 29.3477 23.8539 28.5776 25.0095 27.123C26.3357 25.4119 27.1911 19.4652 27.5335 15.3583C27.5964 14.6066 27.6723 13.8533 27.7462 13.1129C28.0776 9.80813 28.3833 6.75713 27.4051 5.21941ZM7.41096 8.54585C7.44336 8.48012 7.48983 8.41745 7.55464 8.38504C7.66531 8.32971 7.81205 8.29211 7.90193 8.28416C7.95084 8.27988 7.98263 8.28446 7.98263 8.29944H14.1855C14.1855 8.29944 14.7419 8.25664 15.1271 8.64184C15.5117 9.02673 15.5973 9.32633 15.5973 9.32633L18.9772 15.7863L19.9182 11.2942C19.9182 11.2942 20.0466 10.6097 19.7898 10.3529C19.5336 10.0964 19.02 10.0108 19.02 10.0108L18.7632 9.96802C18.7632 9.96802 18.7051 9.96802 18.6403 9.93439C18.5933 9.91024 18.5425 9.86866 18.5064 9.79682C18.4636 9.66842 18.5064 9.49722 18.5064 9.49722L18.6776 8.81273C18.6776 8.81273 18.7204 8.68464 18.8916 8.51344C19.1056 8.34224 19.3196 8.34224 19.3196 8.34224H25.7365C25.7365 8.34224 25.8441 8.34224 25.9493 8.37006C26.019 8.38841 26.0875 8.41928 26.1217 8.47064C26.2501 8.59904 26.2073 8.81273 26.2073 8.81273L25.9933 9.62562C25.9933 9.62562 25.9792 9.68217 25.9511 9.74637C25.9303 9.79407 25.9016 9.84604 25.8649 9.88242C25.7365 10.0108 25.5225 10.0536 25.5225 10.0536C25.5225 10.0536 24.7527 10.2245 24.4531 10.5241C24.1107 10.8665 24.0679 11.1658 24.0679 11.1658L22.186 18.8663C22.186 18.8663 22.0576 19.2515 22.186 19.4652C22.3572 19.722 22.913 20.0216 23.2981 20.1497C23.4431 20.1944 23.5818 20.2301 23.7102 20.2634C24.0759 20.3576 24.3584 20.4307 24.4531 20.6205C24.5815 20.877 24.4959 21.091 24.4959 21.091L24.4103 21.5615C24.4103 21.5615 24.3675 21.7755 24.1963 21.9467C24.0679 22.0751 23.7683 22.0751 23.7683 22.0751L18.164 22.1179C18.164 22.1179 17.7795 22.1179 17.6083 21.9895C17.4371 21.8611 17.3087 21.6471 17.3087 21.6471L13.9715 15.7007C13.9715 15.7007 13.9293 15.4867 13.6725 15.4867C13.5013 15.4867 13.4157 15.7435 13.4157 15.7435L12.8165 19.1231C12.8165 19.1231 12.6881 19.722 13.0733 20.0641C13.4157 20.3209 13.5869 20.4065 13.9293 20.4921L14.0822 20.5343C14.2632 20.5826 14.339 20.6028 14.4423 20.7061C14.5279 20.7914 14.4851 21.0054 14.4851 21.0054L14.3567 21.6471C14.3567 21.6471 14.3567 21.8611 14.2283 21.9895C14.0999 22.1179 13.8865 22.1179 13.8865 22.1179L6.91265 22.0751C6.91265 22.0751 6.61366 22.0323 6.52806 21.8611C6.44246 21.6899 6.48526 21.5187 6.48526 21.5187L6.57086 21.091C6.57086 21.091 6.59471 21.0063 6.64301 20.914C6.68581 20.833 6.74756 20.7462 6.82766 20.7061C7.04104 20.6205 7.38344 20.6205 7.38344 20.6205C7.38344 20.6205 7.93984 20.5777 8.28223 20.2781C8.62402 19.936 8.75241 19.2943 8.75241 19.2943L10.1214 12.5348C10.1214 12.5348 10.2082 12.1887 10.1391 11.7717C10.0994 11.5329 10.0089 11.271 9.82179 11.0374C9.35161 10.4385 8.06823 10.2245 8.06823 10.2245C8.06823 10.2245 7.34064 10.0964 7.21224 9.88242C7.12664 9.66842 7.16944 9.49722 7.16944 9.49722L7.34064 8.77024C7.34064 8.77024 7.35715 8.65407 7.41096 8.54585Z" fill="#00285A" style="fill:#00285A;fill:color(display-p3 0.0000 0.1569 0.3529);fill-opacity:1;"/>
<path fill-rule="evenodd" clip-rule="evenodd" d="M24.0251 0.727287C26.8915 1.36897 28.7312 2.35306 29.6294 3.76483C31.1268 6.07478 30.785 9.45473 30.357 13.3905C30.3203 13.7047 30.2836 14.019 30.25 14.3333C30.2054 14.7463 30.1675 15.1593 30.143 15.5723C30.0146 17.0269 29.715 19.8932 29.202 22.6312C28.4744 26.6525 27.6191 28.0215 27.0627 28.7488C24.6671 31.7863 17.9934 32 15.9825 32C13.9715 32 7.29784 31.7435 4.90229 28.7488C4.3459 28.0215 3.53332 26.6525 2.76292 22.6312C2.24994 19.8932 1.95034 17.0269 1.82195 15.5723C1.77915 14.845 1.69355 14.1177 1.60795 13.3905C1.22336 9.45473 0.880966 6.07478 2.37834 3.76483C3.27652 2.35306 5.11629 1.36897 7.98263 0.727287C10.207 0.256797 12.9877 0 16.0253 0C19.0628 0 21.8008 0.256797 24.0251 0.727287ZM29.0736 15.4867C29.1164 14.7166 29.202 13.9893 29.2876 13.2621C29.6722 9.58282 30.0146 6.37438 28.6884 4.32092C27.9615 3.12314 26.3357 2.31026 23.7683 1.75417C21.6296 1.32617 18.9344 1.06938 15.9825 1.06938C13.0305 1.06938 10.3354 1.28338 8.19663 1.75417C5.62927 2.31026 4.04691 3.16564 3.27652 4.32092C1.9589 6.31813 2.28785 9.49722 2.6706 13.1878L2.67794 13.2621C2.72012 13.6234 2.75192 13.9951 2.78371 14.3669C2.81612 14.7438 2.84852 15.1208 2.89132 15.4867C3.01972 16.8985 3.31932 19.722 3.83291 22.4172C4.55989 26.182 5.33029 27.4654 5.80047 28.0643C7.89704 30.7594 14.6563 30.8878 15.9825 30.8878C17.3087 30.8878 24.0251 30.7594 26.1645 28.0643C26.6775 27.4226 27.4051 26.182 28.1321 22.4172C28.6884 19.722 28.9452 16.8985 29.0736 15.4867Z" fill="#00285A" style="fill:#00285A;fill:color(display-p3 0.0000 0.1569 0.3529);fill-opacity:1;"/>
</g>
<defs>
<clipPath id="clip0_21320_2187">
<rect width="32" height="32" fill="white" style="fill:white;fill-opacity:1;"/>
</clipPath>
</defs>
</svg>
