<svg width="32" height="32" viewBox="0 0 32 32" fill="none" xmlns="http://www.w3.org/2000/svg">
<path d="M11.809 15.8008H4.13808C1.93074 15.8008 0.144836 13.9955 0.144836 11.7642V4.01021C0.144836 0.451254 4.40077 -1.35401 6.92183 1.19437L14.6456 9.00188C17.1157 11.4987 15.3279 15.8008 11.809 15.8008Z" fill="#4B309E" style="fill:#4B309E;fill:color(display-p3 0.2941 0.1882 0.6196);fill-opacity:1;"/>
<path d="M28.2546 31.9981H19.6898C17.6941 31.9981 16.0651 30.3514 16.0651 28.3341V19.8369C16.0651 17.8196 17.6941 16.1729 19.6898 16.1729H28.3056C31.5108 16.1729 33.0869 20.156 30.7227 22.3872C29.7778 23.2908 29.7778 24.8305 30.7227 25.7857C33.034 28.017 31.5108 32 28.2527 32L28.2546 31.9981Z" fill="#4B309E" style="fill:#4B309E;fill:color(display-p3 0.2941 0.1882 0.6196);fill-opacity:1;"/>
<path d="M10.2555 16.8817L9.21233 17.9361C8.58677 18.5685 7.57382 18.5685 6.94829 17.9361L5.90509 16.8817C5.4553 16.427 4.84678 16.1729 4.21179 16.1729H2.94559C1.3997 16.171 0.144836 17.4395 0.144836 19.004V23.9786C0.144836 28.2749 3.62027 31.9427 7.8705 31.9981C12.2247 32.0554 15.8022 28.4755 15.7493 24.0855V19.004C15.7493 17.4395 14.4945 16.1729 12.9485 16.1729H11.9507C11.3157 16.1729 10.7053 16.4289 10.2574 16.8817H10.2555Z" fill="#4B309E" style="fill:#4B309E;fill:color(display-p3 0.2941 0.1882 0.6196);fill-opacity:1;"/>
<path d="M31.7736 4.41403V2.85712C31.7736 1.29255 30.5187 0.0259976 28.9728 0.0259976H18.9188C17.371 0.0259976 16.1181 1.29446 16.1181 2.85712V4.41403C16.1181 5.1648 16.4129 5.88499 16.9383 6.41606C17.7547 7.2413 17.7547 8.58049 16.9383 9.40764C16.4129 9.93874 16.1181 10.6589 16.1181 11.4097V12.9666C16.1181 14.5312 17.373 15.7977 18.9188 15.7977H28.9728C30.5206 15.7977 31.7736 14.5293 31.7736 12.9666V11.4097C31.7736 10.6589 31.4788 9.93874 30.9534 9.40764C30.1369 8.58237 30.1369 7.24325 30.9534 6.41606C31.4788 5.88499 31.7736 5.1648 31.7736 4.41403Z" fill="#4B309E" style="fill:#4B309E;fill:color(display-p3 0.2941 0.1882 0.6196);fill-opacity:1;"/>
</svg>
