<svg width="32" height="32" viewBox="0 0 32 32" fill="none" xmlns="http://www.w3.org/2000/svg">
<g clip-path="url(#clip0_21320_1609)">
<path d="M16.0466 32C15.7906 31.6459 15.5571 31.2919 15.286 30.9755C14.6081 30.1619 13.7721 29.5291 12.906 28.9491C11.7159 28.1506 10.5034 27.3822 9.3209 26.5686C8.16858 25.7701 7.14432 24.836 6.3384 23.6759C5.36687 22.2823 4.87729 20.7305 4.78691 19.0506C4.68899 17.2426 4.62874 15.4271 4.5459 13.6192C4.53836 13.4384 4.59108 13.3555 4.74925 13.2802C6.10493 12.6172 7.52839 12.1729 8.98951 11.8565C11.7461 11.2613 14.5403 11.0655 17.3572 11.1709C19.3379 11.2387 21.3037 11.4572 23.2393 11.9017C24.6628 12.2255 26.0411 12.6549 27.3516 13.3103C27.4871 13.3781 27.5248 13.4534 27.5172 13.5966C27.442 15.1107 27.3666 16.6324 27.3064 18.1466C27.2612 19.3745 27.1482 20.5873 26.7114 21.7474C26.2219 23.0657 25.4385 24.1882 24.4369 25.1599C23.3071 26.2597 21.9891 27.111 20.6711 27.9547C19.5865 28.6477 18.5019 29.3257 17.5379 30.192C16.9504 30.7118 16.4308 31.2994 16.0466 32ZM19.0216 25.3934C20.5957 24.4518 22.0042 23.3219 23.036 21.7625C24.113 20.1203 24.5498 18.2897 24.6553 16.3537C24.5423 16.6626 24.4443 16.9789 24.3314 17.2878C23.7063 19.1033 22.923 20.8359 21.8234 22.4179C21.0326 23.5479 20.1137 24.5498 19.0216 25.3934Z" fill="#F6B002" style="fill:#F6B002;fill:color(display-p3 0.9647 0.6902 0.0078);fill-opacity:1;"/>
<path d="M28.0611 13.5099C28.2726 12.9743 27.8648 12.8913 27.5628 12.748C26.3999 12.2049 25.1918 11.7825 23.9534 11.4581C22.2997 11.0282 20.6234 10.7868 18.9244 10.6585C17.3085 10.5303 15.685 10.5077 14.0691 10.5907C11.1997 10.7415 8.38313 11.1715 5.69498 12.2124C5.15886 12.4237 4.63784 12.6801 4.10926 12.9064C3.94314 12.9743 3.86008 13.0724 3.89784 13.261C3.91294 13.3213 3.89784 13.3968 3.89784 13.4646C3.88274 13.4721 3.86763 13.4721 3.84498 13.4797C3.74682 13.2383 3.63355 13.0045 3.55804 12.7631C2.85579 10.6811 3.60335 8.7501 5.56661 7.55078C6.45763 7.00764 7.43925 6.70588 8.44358 6.47204C10.3842 6.02702 12.3474 5.75546 14.3334 5.64987C14.424 5.64233 14.4995 5.6574 14.5297 5.53668C14.8468 4.4882 15.5038 3.68863 16.4024 3.08517C16.8403 2.79098 17.3236 2.5496 17.7691 2.25541C18.4487 1.81037 19.1434 1.37287 19.7777 0.859926C20.2911 0.445048 20.8424 0.211208 21.4842 0.143323C21.824 0.105607 22.1638 0.0528006 22.5489 0C22.5111 0.25647 22.4809 0.490309 22.4356 0.724148C22.1789 1.95369 21.4314 2.8287 20.3893 3.46987C19.6946 3.89229 18.9622 4.25437 18.2599 4.68432C17.9126 4.89556 17.603 5.18219 17.2783 5.43863C17.2179 5.48389 17.1726 5.55181 17.1046 5.6348C17.6332 5.66493 18.124 5.6876 18.6148 5.73286C20.7593 5.92143 22.8811 6.23067 24.9426 6.87186C25.9997 7.19622 26.9512 7.73935 27.6836 8.59172C28.7936 9.88157 28.9371 11.3525 28.3934 12.9215C28.3254 13.1177 28.2272 13.3062 28.1442 13.5023C28.114 13.4948 28.0913 13.5023 28.0611 13.5099Z" fill="#F6B002" style="fill:#F6B002;fill:color(display-p3 0.9647 0.6902 0.0078);fill-opacity:1;"/>
</g>
<defs>
<clipPath id="clip0_21320_1609">
<rect width="32" height="32" fill="white" style="fill:white;fill-opacity:1;"/>
</clipPath>
</defs>
</svg>
