<svg width="32" height="32" viewBox="0 0 32 32" fill="none" xmlns="http://www.w3.org/2000/svg">
<path d="M17.6027 5.7318C18.0713 6.17859 18.512 6.61081 18.9649 7.026C19.1931 7.23601 19.2671 7.48248 19.2635 7.78233C19.255 8.61035 19.2599 9.43832 19.2599 10.2663C19.2599 11.9927 19.2599 13.7203 19.2599 15.4467V15.8012H22.3168V18.7077H19.255C19.255 19.413 19.2101 20.0978 19.2671 20.774C19.3303 21.5243 19.0911 22.0925 18.5484 22.6036C17.6961 23.4061 16.8876 24.2547 16.0608 25.084C16.005 25.1398 15.9455 25.192 15.8484 25.283V18.7283C15.7136 18.7283 15.6079 18.7283 15.5023 18.7283C13.5938 18.7247 11.6841 18.7332 9.77685 18.7052C9.50852 18.7016 9.17833 18.5851 8.98894 18.4042C8.28963 17.7352 7.63645 17.0177 6.93838 16.2893C10.4713 12.7915 14.054 9.24531 17.6027 5.7318ZM15.7877 15.7855V12.3399C14.6488 13.4957 13.4991 14.6612 12.3919 15.7855H15.7877Z" fill="#D90221" style="fill:#D90221;fill:color(display-p3 0.8510 0.0078 0.1294);fill-opacity:1;"/>
<path d="M31.1743 7.57835C30.1667 9.91904 29.1736 12.227 28.1623 14.5762C26.3242 12.5718 24.5104 10.5928 22.6589 8.57385C23.3498 8.47671 23.9835 8.38688 24.6573 8.29097C20.9228 3.26964 16.0144 0.898576 9.74623 1.35263C10.1869 1.18388 10.6203 0.987199 11.0707 0.848798C16.7732 -0.899451 21.8965 0.259979 26.482 3.98108C27.5759 4.86855 28.6564 6.39463 29.4237 7.57835H31.1743Z" fill="#D90221" style="fill:#D90221;fill:color(display-p3 0.8510 0.0078 0.1294);fill-opacity:1;"/>
<path d="M14.4991 3.86441C12.4862 5.70614 10.5049 7.51993 8.47866 9.37262C8.39365 8.69275 8.31472 8.06625 8.22853 7.38762C7.79149 7.72028 7.36534 8.01771 6.96959 8.35037C3.8288 10.9861 1.84755 14.4616 1.41282 18.4004L1.20028 22.2054C0.990868 21.6956 0.46048 20.0922 0.377233 19.4942C-0.357272 15.9989 -0.0331187 12.6068 1.47232 9.36048C2.74707 6.61185 4.89109 4.19265 7.48068 2.56338V0.826826C9.82744 1.843 12.1354 2.84095 14.4991 3.86441Z" fill="#D90221" style="fill:#D90221;fill:color(display-p3 0.8510 0.0078 0.1294);fill-opacity:1;"/>
<path d="M21.718 30.528C20.0317 31.3244 18.4292 31.8329 16.5777 31.9204C14.078 32.0394 11.5236 31.8318 9.24364 30.8156C6.3991 29.5469 4.06988 27.1102 2.37141 24.4879C2.17109 24.5073 0.955259 24.5219 0.718516 24.5401C1.36682 23.0662 2.99609 19.2553 3.64076 17.7802C3.67596 17.6988 3.71724 17.6211 3.77066 17.5131C5.59053 19.5187 7.38854 21.5001 9.24364 23.5433C8.5504 23.6247 7.95306 23.6939 7.2987 23.7692C8.4909 25.5441 9.94777 27.0071 11.7106 28.1592C15.0861 29.906 17.2268 30.0666 21.718 30.528Z" fill="#D90221" style="fill:#D90221;fill:color(display-p3 0.8510 0.0078 0.1294);fill-opacity:1;"/>
<path d="M32 15.4844C31.9939 16.1084 32.0109 16.7385 31.9283 17.3541C31.7898 18.6058 31.3542 20.3507 31.1537 21.0667C30.3622 23.5397 29.0862 25.7262 27.1716 27.4951C26.4287 28.1835 25.4248 28.8376 24.6162 29.4544L24.5347 31.2757C24.1438 31.1106 23.7953 30.9685 23.4518 30.8156L22.1199 30.2158C20.6424 29.5797 19.1613 28.9508 17.6802 28.3194C17.6352 28.3001 17.5915 28.2782 17.5223 28.2466C19.5146 26.4267 21.4947 24.6178 23.5368 22.753C23.6084 23.3965 23.6764 24.0132 23.7492 24.6664C24.4145 24.2694 25.0106 23.8432 25.5679 23.3442C26.7759 22.2637 27.724 20.9744 28.6273 19.6486C28.8968 19.254 29.0619 18.7891 29.2744 18.3557C29.6653 17.3869 30.0526 16.4205 30.2808 15.3933C30.6706 13.6463 30.7992 11.8908 30.5613 10.1134C30.5516 10.043 30.5492 9.97258 30.5479 9.90218C30.5479 9.88881 30.5734 9.87426 30.5868 9.86089C30.7349 9.941 31.4572 11.7172 31.5641 12.3861C31.7111 13.1436 32.004 14.8238 32 15.4844Z" fill="#D90221" style="fill:#D90221;fill:color(display-p3 0.8510 0.0078 0.1294);fill-opacity:1;"/>
</svg>
