<svg width="16" height="16" viewBox="0 0 16 16" fill="none" xmlns="http://www.w3.org/2000/svg">
<g clip-path="url(#clip0_2002_442)">
<path d="M11.2488 6.29136L9.58815 6.05199C9.49419 6.04024 9.41237 5.98151 9.36904 5.89484L8.62865 4.41244C8.62743 4.41082 8.62663 4.4092 8.62581 4.40718C8.55777 4.28122 8.45206 4.1755 8.32448 4.10787C7.98142 3.9333 7.55574 4.06777 7.37469 4.41244L6.63351 5.89443C6.58977 5.98111 6.50714 6.04024 6.40953 6.05239L4.75258 6.29136C4.59219 6.31525 4.45164 6.38654 4.34715 6.4967C4.21835 6.62995 4.14949 6.80573 4.15314 6.99123C4.15678 7.17673 4.23252 7.34887 4.36537 7.47605L5.56708 8.6328C5.63391 8.69517 5.6651 8.79035 5.6489 8.8831L5.36497 10.5105C5.34067 10.6624 5.36659 10.8191 5.43707 10.9487C5.52536 11.1148 5.67239 11.2359 5.85141 11.291C5.91905 11.3116 5.98831 11.3218 6.05676 11.3218C6.16935 11.3218 6.28074 11.2942 6.38159 11.2404L7.86396 10.474C7.94983 10.4283 8.05311 10.4283 8.141 10.4749L9.6161 11.2379C9.74854 11.3108 9.89962 11.3372 10.0588 11.3129C10.4391 11.2505 10.6995 10.89 10.6376 10.5073L10.3541 8.8831C10.3375 8.78752 10.3682 8.69396 10.4383 8.62672L11.6364 7.47605C11.7486 7.36791 11.8223 7.22331 11.8425 7.069C11.8923 6.69151 11.6254 6.34239 11.2488 6.29136Z" fill="#D0D0D0"/>
<path d="M2.87827 6.83244C2.87382 6.89337 2.87216 6.95474 2.87338 7.01638C2.88368 7.54093 3.10042 8.03625 3.47857 8.3991L3.48021 8.40067L4.29661 9.18653L4.10246 10.2994L4.10104 10.3083C4.03427 10.7256 4.10083 11.1675 4.30925 11.5541C4.35627 11.642 4.40938 11.7256 4.468 11.8043C4.39508 11.8855 4.29523 11.9432 4.17977 11.9622C4.06712 11.9794 3.9602 11.9607 3.86646 11.9091L2.82247 11.3691C2.76027 11.3361 2.68717 11.3361 2.6264 11.3685L1.57726 11.9109C1.50589 11.949 1.42706 11.9685 1.34737 11.9685C1.29892 11.9685 1.2499 11.9613 1.20203 11.9467C1.07533 11.9077 0.971277 11.822 0.908787 11.7045C0.858909 11.6127 0.840564 11.5018 0.857763 11.3943L1.05871 10.2425C1.07017 10.1769 1.0481 10.1095 1.0008 10.0654L0.150304 9.24671C0.0562814 9.1567 0.0026773 9.03487 9.74274e-05 8.90359C-0.00248245 8.7723 0.0462486 8.64789 0.137404 8.55358C0.211361 8.47562 0.310829 8.42517 0.424344 8.40826L1.59704 8.23913C1.66612 8.23053 1.7246 8.18868 1.75556 8.12734L2.28012 7.07847C2.3955 6.85883 2.65124 6.7598 2.87827 6.83244Z" fill="#D0D0D0"/>
<path d="M11.5329 11.8053C11.5924 11.8712 11.6687 11.9199 11.7556 11.9467C11.8035 11.9613 11.8525 11.9685 11.9009 11.9685C11.9806 11.9685 12.0595 11.949 12.1308 11.9109L13.18 11.3685C13.2407 11.3361 13.3138 11.3361 13.376 11.3691L14.42 11.9091C14.5138 11.9607 14.6207 11.9794 14.7333 11.9622C15.0025 11.918 15.1868 11.6629 15.143 11.392L14.9423 10.2425C14.9306 10.1749 14.9524 10.1087 15.0019 10.0611L15.8499 9.24671C15.9293 9.17017 15.9814 9.06784 15.9958 8.95862C16.031 8.69146 15.8421 8.44438 15.5755 8.40826L14.4003 8.23884C14.3338 8.23053 14.2759 8.18897 14.2452 8.12762L13.7212 7.07847L13.7192 7.07475C13.671 6.9856 13.5962 6.91078 13.5059 6.86291C13.3834 6.80057 13.246 6.79392 13.1235 6.83396C13.133 6.96546 13.1295 7.09983 13.1116 7.23555C13.0535 7.67558 12.8442 8.0896 12.5247 8.39763L12.523 8.39923L11.7059 9.18399L11.8999 10.2949L11.9011 10.3027C11.9905 10.8545 11.8426 11.39 11.5329 11.8053Z" fill="#D0D0D0"/>
</g>
<defs>
<clipPath id="clip0_2002_442">
<rect width="16" height="16" fill="white"/>
</clipPath>
</defs>
</svg>
