<svg width="32" height="32" viewBox="0 0 32 32" fill="none" xmlns="http://www.w3.org/2000/svg">
<g id="F*Bastards/black/small" clip-path="url(#clip0_21248_130)">
<g id="Vector">
<path d="M9.74244 10.6331C7.92969 10.5844 6.0702 10.5628 4.16396 10.5683C2.75003 10.574 1.36223 10.5956 0.000559703 10.6331V10.3652H9.74317L9.74244 10.6331Z" fill="black"/>
<path fill-rule="evenodd" clip-rule="evenodd" d="M20.3338 14.4816C20.2725 14.2567 20.186 14.0394 20.0759 13.8339C19.9975 12.3173 18.2082 11.1034 15.9997 11.0846C13.7919 11.1034 12.0016 12.3173 11.9235 13.8339C11.8132 14.0393 11.7266 14.2566 11.6654 14.4816C11.5814 14.7813 11.568 14.8872 11.5714 15.184C11.5727 15.3951 11.6299 15.5942 11.6872 15.7938C11.7578 16.0396 11.8286 16.2862 11.7959 16.5572C11.7876 16.6249 11.7738 16.6925 11.76 16.7601C11.7334 16.8907 11.7067 17.0216 11.7192 17.1542C11.7467 17.451 11.9668 17.6974 12.2129 17.8668C12.4329 18.0182 12.6672 18.1505 12.9017 18.2828C13.0842 18.3858 13.2669 18.4889 13.443 18.6012C13.6805 18.7525 13.6656 18.96 13.6458 19.2374L13.6414 19.2994C13.6341 19.4239 13.6326 19.8745 13.6429 20.0004C13.6494 20.073 13.663 20.1449 13.6833 20.2149C13.779 20.538 14.0426 20.7958 14.383 20.9015C14.4023 20.9072 14.4223 20.9101 14.4424 20.9103C14.4933 20.9103 14.5422 20.8902 14.5783 20.8544C14.6143 20.8185 14.6348 20.7698 14.635 20.7189V20.0615C14.7491 20.0615 14.8585 20.1068 14.9392 20.1875C15.0199 20.2682 15.0652 20.3776 15.0652 20.4917V20.667C15.0784 20.8915 15.1305 20.912 15.4061 20.912C15.4206 20.9122 15.4352 20.9117 15.4497 20.9105H15.5656C15.5708 20.9097 15.5761 20.9092 15.5814 20.909C15.6095 20.9089 15.6373 20.9033 15.6632 20.8925C15.6891 20.8817 15.7126 20.8658 15.7323 20.8459C15.7521 20.826 15.7678 20.8024 15.7785 20.7764C15.7891 20.7504 15.7945 20.7226 15.7944 20.6945V20.2772C15.7946 20.2232 15.8148 20.1711 15.8512 20.1312C15.8876 20.0913 15.9376 20.0663 15.9914 20.0613L15.9957 20.06L15.9983 20.0606L16.0087 20.0598C16.0625 20.0649 16.1125 20.0913 16.1489 20.1312C16.1853 20.1711 16.2055 20.2232 16.2057 20.2772V20.6943C16.2056 20.7224 16.211 20.7502 16.2217 20.7762C16.2323 20.8021 16.248 20.8258 16.2678 20.8457C16.2875 20.8656 16.3111 20.8814 16.337 20.8922C16.3629 20.9031 16.3906 20.9087 16.4187 20.9088C16.424 20.909 16.4293 20.9095 16.4345 20.9103H16.5504C16.5649 20.9115 16.5795 20.912 16.594 20.9117C16.8691 20.9117 16.9212 20.8913 16.9349 20.6668V20.4915C16.9349 20.3774 16.9802 20.268 17.0609 20.1873C17.1416 20.1066 17.251 20.0613 17.3651 20.0613V20.7186C17.3654 20.7695 17.3858 20.8182 17.4219 20.8541C17.458 20.89 17.5068 20.9101 17.5577 20.91C17.5778 20.9099 17.5978 20.9069 17.6171 20.9013C17.958 20.7956 18.2211 20.5377 18.3168 20.2147C18.3372 20.1446 18.3507 20.0728 18.3572 20.0002C18.3675 19.8743 18.366 19.4236 18.3587 19.2992L18.3543 19.235C18.3348 18.9589 18.3202 18.7521 18.5574 18.6009C18.734 18.4881 18.9175 18.3845 19.1011 18.2809C19.3346 18.1491 19.5681 18.0174 19.7872 17.8666C20.0333 17.6962 20.2534 17.4507 20.2812 17.1539C20.2935 17.0211 20.2668 16.89 20.2401 16.7592C20.2264 16.6921 20.2126 16.6242 20.2042 16.5569C20.1715 16.286 20.2423 16.0394 20.3129 15.7936C20.3702 15.5939 20.4274 15.3948 20.4287 15.1838C20.4307 14.8872 20.4178 14.7813 20.3338 14.4816ZM15.3377 17.0281C15.288 17.1214 15.2288 17.2092 15.1609 17.2903C15.1434 17.3105 15.1276 17.3307 15.1122 17.3526C15.0736 17.4083 15.0316 17.4614 14.9864 17.5119C14.8473 17.6538 14.6589 17.7249 14.4634 17.7422C14.2354 17.7645 14.0053 17.7429 13.7855 17.6784C13.5315 17.5987 13.3079 17.4434 13.1446 17.2332C12.9812 17.023 12.886 16.768 12.8715 16.5022C12.8701 16.4778 12.8701 16.4535 12.8701 16.4291C12.8697 16.2311 12.9144 16.0355 13.0007 15.8573C13.087 15.679 13.2127 15.5227 13.3682 15.4001C13.5238 15.2775 13.7051 15.1919 13.8986 15.1497C14.0921 15.1075 14.2927 15.1098 14.4852 15.1564C14.6777 15.2031 14.857 15.2928 15.0097 15.419C15.1624 15.5451 15.2845 15.7042 15.3667 15.8844C15.4488 16.0646 15.489 16.2612 15.4841 16.4591C15.4792 16.6571 15.4287 16.8522 15.3377 17.0281ZM16.4197 18.6649C16.3849 18.662 16.3574 18.633 16.3342 18.607C16.3253 18.5969 16.3162 18.5864 16.3068 18.5756C16.2348 18.4925 16.1497 18.3942 16.0445 18.3635C16.0152 18.355 15.984 18.355 15.9546 18.3635C15.8472 18.395 15.76 18.4964 15.6874 18.5809L15.6649 18.607L15.6632 18.6088C15.6393 18.6344 15.6135 18.6621 15.5795 18.6649C15.4361 18.6793 15.5417 18.2868 15.6462 17.9832C15.7027 17.8181 15.7591 17.6789 15.7735 17.6455C15.7896 17.6079 15.8084 17.5716 15.83 17.5369C15.8513 17.5009 15.8777 17.4681 15.9084 17.4395C15.9213 17.4276 15.9353 17.4169 15.9503 17.4076C15.9656 17.3956 15.9844 17.389 16.0038 17.3887C16.014 17.3893 16.024 17.3923 16.0328 17.3974C16.043 17.4028 16.0527 17.4091 16.0618 17.4162C16.0703 17.4223 16.0789 17.4294 16.0873 17.4365L16.0922 17.4405L16.1112 17.4593C16.1397 17.4909 16.1642 17.5259 16.1842 17.5635C16.1992 17.5897 16.2128 17.6168 16.2249 17.6445C16.2393 17.6779 16.2958 17.8172 16.3522 17.9822C16.4574 18.2868 16.5631 18.6793 16.4197 18.6649ZM19.1286 16.5022C19.1142 16.768 19.0189 17.0231 18.8555 17.2333C18.6921 17.4435 18.4684 17.5988 18.2143 17.6784C17.9946 17.7429 17.7644 17.7645 17.5365 17.7422C17.3417 17.7249 17.1525 17.6538 17.0135 17.5119C16.9683 17.4614 16.9262 17.4083 16.8876 17.3526C16.8716 17.3307 16.8557 17.3105 16.8389 17.2903C16.7711 17.2092 16.7119 17.1214 16.6622 17.0281C16.5715 16.8522 16.5219 16.658 16.5172 16.4602C16.5125 16.2624 16.5528 16.066 16.635 15.886C16.7172 15.706 16.8392 15.5471 16.9918 15.4211C17.1444 15.2951 17.3237 15.2055 17.516 15.1589C17.7083 15.1122 17.9087 15.1099 18.102 15.1521C18.2954 15.1942 18.4767 15.2797 18.6322 15.4021C18.7877 15.5245 18.9133 15.6806 18.9997 15.8586C19.0861 16.0366 19.1309 16.232 19.1308 16.4299L19.1302 16.4541C19.1299 16.4705 19.1296 16.4867 19.1286 16.5022Z" fill="black"/>
<path fill-rule="evenodd" clip-rule="evenodd" d="M7.97096 21.1729C7.83221 21.2513 7.69339 21.3297 7.55749 21.4121C8.29246 21.4014 9.02053 21.386 9.74169 21.3658V21.6325H0.000305176V21.3658C0.721475 21.3853 1.45011 21.4007 2.18622 21.4121C2.05011 21.3295 1.91103 21.251 1.77202 21.1725C1.53804 21.0403 1.30424 20.9083 1.08523 20.7574C0.838829 20.588 0.618729 20.3418 0.591216 20.0448C0.57887 19.9122 0.605488 19.7815 0.632059 19.651C0.645836 19.5833 0.659599 19.5158 0.667912 19.448C0.700693 19.177 0.629833 18.9303 0.559241 18.6845C0.501902 18.4848 0.444738 18.2858 0.443428 18.0748C0.440263 17.7778 0.453655 17.6721 0.537653 17.3721C0.598839 17.1473 0.685338 16.9301 0.795492 16.7248C0.872917 15.2079 2.66415 13.9932 4.87173 13.9752C7.07931 13.9942 8.86982 15.2079 8.94797 16.7248C9.05812 16.9301 9.14462 17.1473 9.20581 17.3721C9.28981 17.6721 9.30295 17.7778 9.30003 18.0748C9.29872 18.2857 9.24156 18.4848 9.18422 18.6845C9.11363 18.9303 9.04277 19.177 9.07555 19.448C9.0839 19.5154 9.0976 19.5827 9.1113 19.65C9.13793 19.7808 9.16462 19.9118 9.15224 20.0448C9.12473 20.3418 8.90463 20.587 8.65824 20.7574C8.43902 20.9086 8.20508 21.0407 7.97096 21.1729ZM4.03296 20.1809C4.10096 20.0999 4.16021 20.012 4.20973 19.9186C4.30089 19.7427 4.35135 19.5478 4.35636 19.3497C4.36137 19.1516 4.32128 18.955 4.23912 18.7746C4.15696 18.5943 4.03488 18.435 3.88211 18.3088C3.72934 18.1825 3.54987 18.0927 3.35728 18.046C3.16468 17.9993 2.964 17.997 2.77039 18.0393C2.57678 18.0816 2.39532 18.1673 2.23971 18.29C2.08411 18.4128 1.95843 18.5692 1.87218 18.7477C1.78594 18.9261 1.74138 19.1218 1.74188 19.3199C1.74188 19.3443 1.74187 19.3686 1.74334 19.393C1.75777 19.6588 1.85303 19.9139 2.01637 20.124C2.1797 20.3342 2.40333 20.4896 2.65733 20.5692C2.8772 20.6336 3.1074 20.6552 3.33541 20.6328C3.53092 20.6155 3.71913 20.5444 3.85815 20.4024C3.90346 20.352 3.94558 20.2988 3.98427 20.2432C3.99961 20.2215 4.01568 20.2013 4.03296 20.1809ZM5.14978 21.4326C5.22084 21.4326 5.2903 21.4326 5.36038 21.4309C5.35746 21.2933 5.29075 21.0656 5.22428 20.8731C5.16779 20.708 5.11131 20.569 5.0967 20.5356C5.0838 20.5081 5.07065 20.4806 5.05628 20.4531C5.0362 20.4159 5.01167 20.3813 4.98324 20.3501C4.9794 20.3454 4.97503 20.3413 4.97041 20.337L4.96303 20.3299C4.95403 20.3214 4.94434 20.3136 4.93406 20.3067C4.9251 20.2994 4.91539 20.293 4.90509 20.2877C4.89636 20.2824 4.88636 20.2794 4.87611 20.2792C4.85685 20.279 4.83805 20.2851 4.82255 20.2965C4.8077 20.306 4.79362 20.3167 4.78043 20.3284C4.75037 20.3574 4.72412 20.3902 4.70228 20.4258C4.68057 20.4609 4.66168 20.4977 4.64579 20.5358C4.63118 20.5692 4.57469 20.7082 4.51821 20.8733C4.45174 21.0659 4.38503 21.2935 4.38211 21.4311C4.4532 21.4326 4.52113 21.4326 4.59222 21.4326C4.65723 21.3571 4.73563 21.2804 4.82693 21.2543C4.85574 21.2456 4.8865 21.2456 4.91531 21.2543C5.00637 21.2804 5.08477 21.3571 5.14978 21.4326ZM6.40878 20.6328C6.63671 20.6552 6.86682 20.6336 7.08661 20.5692C7.34062 20.4896 7.56473 20.3347 7.72807 20.1245C7.89141 19.9143 7.98667 19.6593 8.0011 19.3935C8.00256 19.3692 8.00256 19.3449 8.00256 19.3206C8.00275 19.1227 7.95799 18.9271 7.87164 18.749C7.7853 18.5709 7.65963 18.4147 7.50412 18.2923C7.34862 18.1699 7.16733 18.0843 6.97394 18.0422C6.78055 18 6.58011 18.0023 6.38775 18.049C6.19539 18.0956 6.01613 18.1853 5.8635 18.3113C5.71087 18.4373 5.58885 18.5963 5.50666 18.7764C5.42446 18.9564 5.38423 19.1528 5.38901 19.3507C5.39378 19.5486 5.44343 19.7428 5.53422 19.9186C5.58374 20.012 5.64299 20.0999 5.71098 20.1809C5.72779 20.2013 5.74385 20.2215 5.75968 20.2432C5.79837 20.2988 5.84049 20.352 5.8858 20.4024C6.02482 20.5444 6.214 20.6155 6.40878 20.6328Z" fill="black"/>
<path fill-rule="evenodd" clip-rule="evenodd" d="M32.0003 10.3652H22.2575V10.6331C22.3165 10.6316 22.3756 10.63 22.4348 10.6284C22.5553 10.6251 22.6762 10.6219 22.7977 10.6199L22.7963 10.6243L22.7948 10.6287C22.7108 10.9284 22.6974 11.0343 22.7006 11.3311C22.7019 11.5422 22.7591 11.7413 22.8164 11.941C22.887 12.1868 22.9578 12.4336 22.9251 12.7045C22.9167 12.7723 22.903 12.8399 22.8892 12.9075C22.8626 13.038 22.836 13.1687 22.8484 13.3013C22.8759 13.5981 23.096 13.8445 23.3424 14.0139C23.5623 14.1656 23.7968 14.2978 24.0314 14.4302C24.2138 14.5331 24.3963 14.6361 24.5722 14.7483C24.8097 14.8996 24.7948 15.1071 24.7749 15.3845L24.7706 15.4465C24.7633 15.5712 24.7618 16.0216 24.7721 16.1477C24.7787 16.2203 24.7923 16.292 24.8127 16.362C24.9082 16.6851 25.1718 16.9429 25.5122 17.0486C25.5315 17.0542 25.5515 17.0572 25.5716 17.0574C25.6225 17.0575 25.6714 17.0374 25.7075 17.0016C25.7437 16.9658 25.7641 16.9171 25.7645 16.8662V16.2086C25.8784 16.2088 25.9877 16.2542 26.0683 16.3349C26.1488 16.4155 26.1941 16.5248 26.1942 16.6388V16.8141C26.2071 17.0389 26.2592 17.0591 26.535 17.0591C26.5495 17.0593 26.564 17.0588 26.5784 17.0576H26.6943C26.6996 17.0568 26.705 17.0563 26.7103 17.0561C26.767 17.0559 26.8212 17.0331 26.8611 16.9929C26.901 16.9527 26.9233 16.8983 26.9231 16.8416V16.4246C26.9233 16.3706 26.9434 16.3187 26.9797 16.2788C27.0159 16.2389 27.0657 16.2139 27.1194 16.2086C27.1251 16.2102 27.1312 16.2102 27.1369 16.2086C27.1907 16.2137 27.2407 16.2386 27.2771 16.2785C27.3135 16.3185 27.3338 16.3705 27.3339 16.4246V16.8416C27.3337 16.8983 27.356 16.9527 27.3959 16.9929C27.4358 17.0331 27.49 17.0559 27.5467 17.0561C27.5521 17.0563 27.5574 17.0568 27.5627 17.0576H27.6794C27.6938 17.0588 27.7083 17.0593 27.7227 17.0591C27.9981 17.0591 28.0502 17.0389 28.0636 16.8141V16.6388C28.0636 16.5248 28.1089 16.4155 28.1895 16.3349C28.27 16.2542 28.3793 16.2088 28.4933 16.2086V16.866C28.4936 16.9169 28.5141 16.9656 28.5502 17.0014C28.5864 17.0372 28.6353 17.0572 28.6861 17.0571C28.7063 17.0569 28.7262 17.054 28.7455 17.0483C29.0864 16.9427 29.3496 16.6848 29.445 16.3618C29.4655 16.2918 29.4791 16.2201 29.4857 16.1475C29.4959 16.0214 29.4945 15.5709 29.4872 15.4463L29.4827 15.3821C29.4633 15.106 29.4487 14.8992 29.6856 14.748C29.8619 14.6354 30.0451 14.532 30.2283 14.4287C30.4623 14.2967 30.6961 14.1648 30.9154 14.0137C31.1618 13.8433 31.3819 13.5978 31.4094 13.301C31.4218 13.1681 31.3951 13.0371 31.3685 12.9063C31.3548 12.839 31.3411 12.7716 31.3327 12.7043C31.2999 12.4333 31.3708 12.1866 31.4414 11.9408C31.4987 11.7411 31.5559 11.5419 31.5572 11.3309C31.5601 11.0341 31.547 10.9281 31.463 10.6284L31.4615 10.6233L31.46 10.6182C31.5501 10.6204 31.6405 10.623 31.7309 10.6255C31.8209 10.6281 31.9108 10.6306 32.0003 10.6328V10.3652ZM26.4669 13.1754C26.4174 13.2688 26.3581 13.3567 26.2901 13.4376C26.2728 13.4578 26.2568 13.4783 26.2414 13.5C26.2027 13.5556 26.1606 13.6088 26.1153 13.6592C25.9763 13.8011 25.7881 13.8722 25.5926 13.8895C25.3646 13.912 25.1343 13.8904 24.9145 13.826C24.6605 13.7462 24.4369 13.5908 24.2736 13.3806C24.1103 13.1704 24.015 12.9153 24.0005 12.6495C23.999 12.6264 23.999 12.6008 23.999 12.5765C23.9985 12.3783 24.0431 12.1826 24.1293 12.0042C24.2156 11.8258 24.3413 11.6693 24.4969 11.5466C24.6525 11.4239 24.8339 11.3381 25.0275 11.2958C25.2211 11.2536 25.4218 11.2559 25.6144 11.3025C25.807 11.3492 25.9865 11.4391 26.1393 11.5653C26.292 11.6915 26.4141 11.8508 26.4963 12.0311C26.5784 12.2115 26.6185 12.4081 26.6135 12.6062C26.6085 12.8043 26.558 12.9995 26.4669 13.1754ZM27.5474 14.8123C27.5128 14.8094 27.4853 14.7804 27.462 14.7543L27.4398 14.7286C27.3673 14.644 27.2803 14.5424 27.1722 14.5109C27.143 14.5021 27.1118 14.5021 27.0826 14.5109C26.9772 14.5415 26.8924 14.6396 26.82 14.7232L26.7929 14.7543C26.7698 14.7804 26.742 14.8094 26.7074 14.8123C26.564 14.8269 26.6697 14.4342 26.7739 14.1306C26.8304 13.9655 26.8869 13.8265 26.9015 13.7931C26.9174 13.7554 26.9363 13.719 26.958 13.6843C26.9791 13.6478 27.006 13.6149 27.0376 13.5869C27.0498 13.5747 27.0635 13.564 27.0782 13.555C27.0938 13.5434 27.1125 13.5369 27.1318 13.5362C27.142 13.5368 27.1519 13.5397 27.1608 13.5448C27.171 13.5502 27.1807 13.5566 27.1897 13.5637C27.2005 13.571 27.2107 13.5792 27.2202 13.5881L27.2303 13.5975L27.2404 13.6068C27.2688 13.6385 27.2934 13.6735 27.3134 13.7111C27.3289 13.7371 27.3424 13.7643 27.3538 13.7924C27.3685 13.8257 27.4249 13.9648 27.4814 14.1298C27.5851 14.4342 27.6908 14.8269 27.5474 14.8123ZM30.2578 12.6495C30.2432 12.9153 30.148 13.1704 29.9846 13.3806C29.8213 13.5908 29.5977 13.7462 29.3438 13.826C29.1239 13.8904 28.8937 13.912 28.6657 13.8895C28.4709 13.8722 28.282 13.8011 28.143 13.6592C28.0976 13.6088 28.0555 13.5556 28.0168 13.5C28.001 13.4783 27.9849 13.4578 27.9681 13.4376C27.9001 13.3567 27.8409 13.2688 27.7914 13.1754C27.7008 12.9995 27.6513 12.8054 27.6466 12.6076C27.642 12.4098 27.6823 12.2135 27.7645 12.0336C27.8468 11.8537 27.9688 11.6947 28.1214 11.5688C28.274 11.4429 28.4532 11.3532 28.6454 11.3067C28.8377 11.2601 29.0381 11.2577 29.2314 11.2998C29.4247 11.3419 29.6059 11.4274 29.7614 11.5497C29.9169 11.6721 30.0426 11.8281 30.129 12.0061C30.2154 12.1841 30.2602 12.3793 30.2602 12.5772C30.2602 12.6018 30.2602 12.6264 30.2578 12.6495Z" fill="black"/>
<path d="M27.8359 21.4304C25.9294 21.4359 24.0698 21.4143 22.2572 21.3656V21.6335H31.9993V21.3656C30.6376 21.4031 29.2498 21.4247 27.8359 21.4304Z" fill="black"/>
</g>
</g>
<defs>
<clipPath id="clip0_21248_130">
<rect width="32" height="32" fill="white"/>
</clipPath>
</defs>
</svg>
