<svg width="32" height="32" viewBox="0 0 32 32" fill="none" xmlns="http://www.w3.org/2000/svg">
<g clip-path="url(#clip0_21320_2143)">
<path fill-rule="evenodd" clip-rule="evenodd" d="M1.19358 14.8064C1.19358 6.62883 7.82241 0 16 0C24.1776 0 30.8064 6.62883 30.8064 14.8064C30.8064 22.984 24.1776 29.6128 16 29.6128C11.5776 29.6128 7.60822 27.6742 4.89519 24.6004V32H1.1972V15.1369C1.19479 15.027 1.19358 14.9169 1.19358 14.8064ZM9.31759 23.2953C9.31759 23.2953 11.9176 25.6427 16.148 25.5024C16.148 25.5024 19.8247 25.5075 22.9835 22.91L21.9144 20.8867C21.9144 20.8867 16.9823 25.6835 10.9174 21.6802C10.9174 21.6802 7.77648 19.5446 7.48816 14.9978L10.7031 15.0233L7.23812 8.75934C7.23812 8.75934 5.35509 11.1195 5.22497 13.9134C5.22497 13.9134 4.55392 20.0243 9.31759 23.2953ZM21.302 14.8217L24.8486 20.583C24.8486 20.583 26.6219 18.1412 26.6219 15.3448C26.6219 15.3448 27.0072 9.2084 22.0981 6.1619C22.0981 6.1619 19.3935 3.93954 15.1733 4.27378C15.1733 4.27378 11.8028 4.41156 8.96038 6.87887L10.0703 8.77975C10.0703 8.77975 14.686 3.94719 20.756 7.83314C20.756 7.83314 24.5067 10.2188 24.3026 14.8217H21.302Z" fill="#AC0C0C" style="fill:#AC0C0C;fill:color(display-p3 0.6745 0.0471 0.0471);fill-opacity:1;"/>
</g>
<defs>
<clipPath id="clip0_21320_2143">
<rect width="32" height="32" fill="white" style="fill:white;fill-opacity:1;"/>
</clipPath>
</defs>
</svg>
